  0
SECTION
  2
HEADER
  9
$ACADVER
  1
AC1015
  9
$ACADMAINTVER
 70
     6
  9
$DWGCODEPAGE
  3
ANSI_1252
  9
$INSBASE
 10
0.0
 20
0.0
 30
0.0
  9
$EXTMIN
 10
0.0
 20
0.0
 30
0.0
  9
$EXTMAX
 10
450.0
 20
300.0
 30
0.0
  9
$LIMMIN
 10
0.0
 20
0.0
  9
$LIMMAX
 10
450.0
 20
300.0
  9
$ORTHOMODE
 70
     0
  9
$REGENMODE
 70
     1
  9
$FILLMODE
 70
     1
  9
$QTEXTMODE
 70
     0
  9
$MIRRTEXT
 70
     1
  9
$LTSCALE
 40
1.0
  9
$ATTMODE
 70
     1
  9
$TEXTSIZE
 40
2.5
  9
$TRACEWID
 40
1.0
  9
$TEXTSTYLE
  7
Standard
  9
$CLAYER
  8
0
  9
$CELTYPE
  6
ByLayer
  9
$CECOLOR
 62
   256
  9
$CELTSCALE
 40
1.0
  9
$DISPSILH
 70
     0
  9
$DIMSCALE
 40
1.0
  9
$DIMASZ
 40
2.5
  9
$DIMEXO
 40
0.625
  9
$DIMDLI
 40
3.75
  9
$DIMRND
 40
0.0
  9
$DIMDLE
 40
0.0
  9
$DIMEXE
 40
1.25
  9
$DIMTP
 40
0.0
  9
$DIMTM
 40
0.0
  9
$DIMTXT
 40
2.5
  9
$DIMCEN
 40
2.5
  9
$DIMTSZ
 40
0.0
  9
$DIMTOL
 70
     0
  9
$DIMLIM
 70
     0
  9
$DIMTIH
 70
     0
  9
$DIMTOH
 70
     0
  9
$DIMSE1
 70
     0
  9
$DIMSE2
 70
     0
  9
$DIMTAD
 70
     1
  9
$DIMZIN
 70
     8
  9
$DIMBLK
  1

  9
$DIMASO
 70
     1
  9
$DIMSHO
 70
     1
  9
$DIMPOST
  1

  9
$DIMAPOST
  1

  9
$DIMALT
 70
     0
  9
$DIMALTD
 70
     3
  9
$DIMALTF
 40
0.0393700787
  9
$DIMLFAC
 40
1.0
  9
$DIMTOFL
 70
     1
  9
$DIMTVP
 40
0.0
  9
$DIMTIX
 70
     0
  9
$DIMSOXD
 70
     0
  9
$DIMSAH
 70
     0
  9
$DIMBLK1
  1

  9
$DIMBLK2
  1

  9
$DIMSTYLE
  2
ISO-25
  9
$DIMCLRD
 70
     0
  9
$DIMCLRE
 70
     0
  9
$DIMCLRT
 70
     0
  9
$DIMTFAC
 40
1.0
  9
$DIMGAP
 40
0.625
  9
$DIMJUST
 70
     0
  9
$DIMSD1
 70
     0
  9
$DIMSD2
 70
     0
  9
$DIMTOLJ
 70
     0
  9
$DIMTZIN
 70
     8
  9
$DIMALTZ
 70
     0
  9
$DIMALTTZ
 70
     0
  9
$DIMUPT
 70
     0
  9
$DIMDEC
 70
     2
  9
$DIMTDEC
 70
     2
  9
$DIMALTU
 70
     2
  9
$DIMALTTD
 70
     3
  9
$DIMTXSTY
  7
Standard
  9
$DIMAUNIT
 70
     0
  9
$DIMADEC
 70
     0
  9
$DIMALTRND
 40
0.0
  9
$DIMAZIN
 70
     0
  9
$DIMDSEP
 70
    44
  9
$DIMATFIT
 70
     3
  9
$DIMFRAC
 70
     0
  9
$DIMLDRBLK
  1

  9
$DIMLUNIT
 70
     2
  9
$DIMLWD
 70
    -2
  9
$DIMLWE
 70
    -2
  9
$DIMTMOVE
 70
     0
  9
$LUNITS
 70
     2
  9
$LUPREC
 70
     4
  9
$SKETCHINC
 40
1.0
  9
$FILLETRAD
 40
10.0
  9
$AUNITS
 70
     0
  9
$AUPREC
 70
     0
  9
$MENU
  1
.
  9
$ELEVATION
 40
0.0
  9
$PELEVATION
 40
0.0
  9
$THICKNESS
 40
0.0
  9
$LIMCHECK
 70
     0
  9
$CHAMFERA
 40
10.0
  9
$CHAMFERB
 40
10.0
  9
$CHAMFERC
 40
20.0
  9
$CHAMFERD
 40
0.0
  9
$SKPOLY
 70
     0
  9
$TDCREATE
 40
2456220.006503762
  9
$TDUCREATE
 40
2456220.131503762
  9
$TDUPDATE
 40
2456220.006503773
  9
$TDUUPDATE
 40
2456220.131503773
  9
$TDINDWG
 40
0.0000000116
  9
$TDUSRTIMER
 40
0.0000000116
  9
$USRTIMER
 70
     1
  9
$ANGBASE
 50
0.0
  9
$ANGDIR
 70
     0
  9
$PDMODE
 70
     0
  9
$PDSIZE
 40
0.0
  9
$PLINEWID
 40
0.0
  9
$SPLFRAME
 70
     0
  9
$SPLINETYPE
 70
     6
  9
$SPLINESEGS
 70
     8
  9
$HANDSEED
  5
193
  9
$SURFTAB1
 70
     6
  9
$SURFTAB2
 70
     6
  9
$SURFTYPE
 70
     6
  9
$SURFU
 70
     6
  9
$SURFV
 70
     6
  9
$UCSBASE
  2

  9
$UCSNAME
  2

  9
$UCSORG
 10
0.0
 20
0.0
 30
0.0
  9
$UCSXDIR
 10
1.0
 20
0.0
 30
0.0
  9
$UCSYDIR
 10
0.0
 20
1.0
 30
0.0
  9
$UCSORTHOREF
  2

  9
$UCSORTHOVIEW
 70
     0
  9
$UCSORGTOP
 10
0.0
 20
0.0
 30
0.0
  9
$UCSORGBOTTOM
 10
0.0
 20
0.0
 30
0.0
  9
$UCSORGLEFT
 10
0.0
 20
0.0
 30
0.0
  9
$UCSORGRIGHT
 10
0.0
 20
0.0
 30
0.0
  9
$UCSORGFRONT
 10
0.0
 20
0.0
 30
0.0
  9
$UCSORGBACK
 10
0.0
 20
0.0
 30
0.0
  9
$PUCSBASE
  2

  9
$PUCSNAME
  2

  9
$PUCSORG
 10
0.0
 20
0.0
 30
0.0
  9
$PUCSXDIR
 10
1.0
 20
0.0
 30
0.0
  9
$PUCSYDIR
 10
0.0
 20
1.0
 30
0.0
  9
$PUCSORTHOREF
  2

  9
$PUCSORTHOVIEW
 70
     0
  9
$PUCSORGTOP
 10
0.0
 20
0.0
 30
0.0
  9
$PUCSORGBOTTOM
 10
0.0
 20
0.0
 30
0.0
  9
$PUCSORGLEFT
 10
0.0
 20
0.0
 30
0.0
  9
$PUCSORGRIGHT
 10
0.0
 20
0.0
 30
0.0
  9
$PUCSORGFRONT
 10
0.0
 20
0.0
 30
0.0
  9
$PUCSORGBACK
 10
0.0
 20
0.0
 30
0.0
  9
$USERI1
 70
     0
  9
$USERI2
 70
     0
  9
$USERI3
 70
     0
  9
$USERI4
 70
     0
  9
$USERI5
 70
     0
  9
$USERR1
 40
0.0
  9
$USERR2
 40
0.0
  9
$USERR3
 40
0.0
  9
$USERR4
 40
0.0
  9
$USERR5
 40
0.0
  9
$WORLDVIEW
 70
     1
  9
$SHADEDGE
 70
     3
  9
$SHADEDIF
 70
    70
  9
$TILEMODE
 70
     1
  9
$MAXACTVP
 70
    64
  9
$PINSBASE
 10
0.0
 20
0.0
 30
0.0
  9
$PLIMCHECK
 70
     0
  9
$PEXTMIN
 10
0.0
 20
0.0
 30
0.0
  9
$PEXTMAX
 10
450.0
 20
300.0
 30
0.0
  9
$PLIMMIN
 10
0.0
 20
0.0
  9
$PLIMMAX
 10
450.0
 20
300.0
  9
$UNITMODE
 70
     0
  9
$VISRETAIN
 70
     1
  9
$PLINEGEN
 70
     0
  9
$PSLTSCALE
 70
     1
  9
$TREEDEPTH
 70
  3020
  9
$CMLSTYLE
  2
Standard
  9
$CMLJUST
 70
     0
  9
$CMLSCALE
 40
20.0
  9
$PROXYGRAPHICS
 70
     1
  9
$MEASUREMENT
 70
     1
  9
$CELWEIGHT
370
    -1
  9
$ENDCAPS
280
     0
  9
$JOINSTYLE
280
     0
  9
$LWDISPLAY
290
     0
  9
$INSUNITS
 70
     4
  9
$HYPERLINKBASE
  1

  9
$STYLESHEET
  1

  9
$XEDIT
290
     1
  9
$CEPSNTYPE
380
     0
  9
$PSTYLEMODE
290
     1
  9
$FINGERPRINTGUID
  2
{D7EA86B5-6BF1-4595-BB90-8A8D7E7ED804}
  9
$VERSIONGUID
  2
{FAEB1C32-E019-11D5-929B-00C0DF256EC4}
  9
$EXTNAMES
290
     1
  9
$PSVPSCALE
 40
0.0
  9
$OLESTARTUP
290
     0
  0
ENDSEC
  0
SECTION
  2
CLASSES
  0
CLASS
  1
ACDBDICTIONARYWDFLT
  2
AcDbDictionaryWithDefault
  3
ObjectDBX Classes
 90
        0
280
     0
281
     0
  0
CLASS
  1
VISUALSTYLE
  2
AcDbVisualStyle
  3
ObjectDBX Classes
 90
     4095
280
     0
281
     0
  0
CLASS
  1
DICTIONARYVAR
  2
AcDbDictionaryVar
  3
ObjectDBX Classes
 90
        0
280
     0
281
     0
  0
CLASS
  1
ACDBPLACEHOLDER
  2
AcDbPlaceHolder
  3
ObjectDBX Classes
 90
        0
280
     0
281
     0
  0
CLASS
  1
LAYOUT
  2
AcDbLayout
  3
ObjectDBX Classes
 90
        0
280
     0
281
     0
  0
ENDSEC
  0
SECTION
  2
TABLES
  0
TABLE
  2
VPORT
  5
8
330
0
100
AcDbSymbolTable
 70
     1
  0
VPORT
  5
29
330
8
100
AcDbSymbolTableRecord
100
AcDbViewportTableRecord
  2
*Active
 70
     0
 10
0.0
 20
0.0
 11
1.0
 21
1.0
 12
344.1869158879
 22
148.5
 13
0.0
 23
0.0
 14
10.0
 24
10.0
 15
10.0
 25
10.0
 16
0.0
 26
0.0
 36
1.0
 17
0.0
 27
0.0
 37
0.0
 40
297.0
 41
1.9729729729
 42
50.0
 43
0.0
 44
0.0
 50
0.0
 51
0.0
 71
     0
 72
   100
 73
     1
 74
     3
 75
     0
 76
     0
 77
     0
 78
     0
281
     0
 65
     1
110
0.0
120
0.0
130
0.0
111
1.0
121
0.0
131
0.0
112
0.0
122
1.0
132
0.0
 79
     0
146
0.0
  0
ENDTAB
  0
TABLE
  2
LTYPE
  5
5
330
0
100
AcDbSymbolTable
 70
     1
  0
LTYPE
  5
14
330
5
100
AcDbSymbolTableRecord
100
AcDbLinetypeTableRecord
  2
ByBlock
 70
     0
  3

 72
    65
 73
     0
 40
0.0
  0
LTYPE
  5
15
330
5
100
AcDbSymbolTableRecord
100
AcDbLinetypeTableRecord
  2
ByLayer
 70
     0
  3

 72
    65
 73
     0
 40
0.0
  0
LTYPE
  5
16
330
5
100
AcDbSymbolTableRecord
100
AcDbLinetypeTableRecord
  2
Continuous
 70
     0
  3
Solid line
 72
    65
 73
     0
 40
0.0
  0
ENDTAB
  0
TABLE
  2
LAYER
  5
2
330
0
100
AcDbSymbolTable
 70
     2
  0
LAYER
  5
10
330
2
100
AcDbSymbolTableRecord
100
AcDbLayerTableRecord
  2
0
 70
     0
 62
     7
  6
Continuous
370
    -3
390
F
  0
LAYER
  5
3B
330
2
100
AcDbSymbolTableRecord
100
AcDbLayerTableRecord
  2
Default
 70
     0
 62
     7
  6
Continuous
370
    -3
390
F
  0
ENDTAB
  0
TABLE
  2
STYLE
  5
3
330
0
100
AcDbSymbolTable
 70
     1
  0
STYLE
  5
11
330
3
100
AcDbSymbolTableRecord
100
AcDbTextStyleTableRecord
  2
Standard
 70
     0
 40
0.0
 41
1.0
 50
0.0
 71
     0
 42
2.5
  3
txt
  4

  0
ENDTAB
  0
TABLE
  2
VIEW
  5
6
330
0
100
AcDbSymbolTable
 70
     0
  0
ENDTAB
  0
TABLE
  2
UCS
  5
7
330
0
100
AcDbSymbolTable
 70
     0
  0
ENDTAB
  0
TABLE
  2
APPID
  5
9
330
0
100
AcDbSymbolTable
 70
     1
  0
APPID
  5
12
330
9
100
AcDbSymbolTableRecord
100
AcDbRegAppTableRecord
  2
ACAD
 70
     0
  0
ENDTAB
  0
TABLE
  2
DIMSTYLE
  5
A
330
0
100
AcDbSymbolTable
 70
     1
100
AcDbDimStyleTable
  0
DIMSTYLE
105
27
330
A
100
AcDbSymbolTableRecord
100
AcDbDimStyleTableRecord
  2
ISO-25
 70
     0
 41
2.5
 42
0.625
 43
3.75
 44
1.25
 73
     0
 74
     0
 77
     1
 78
     8
140
2.5
141
2.5
143
0.0393700787
147
0.625
171
     3
172
     1
271
     2
272
     2
274
     3
278
    44
283
     0
284
     8
340
11
  0
ENDTAB
  0
TABLE
  2
BLOCK_RECORD
  5
1
330
0
100
AcDbSymbolTable
 70
    38
  0
BLOCK_RECORD
  5
1F
330
1
100
AcDbSymbolTableRecord
100
AcDbBlockTableRecord
  2
*Model_Space
340
22
  0
BLOCK_RECORD
  5
1B
330
1
100
AcDbSymbolTableRecord
100
AcDbBlockTableRecord
  2
*Paper_Space
340
1E
  0
BLOCK_RECORD
  5
44
330
1
100
AcDbSymbolTableRecord
100
AcDbBlockTableRecord
  2
SE
340
0
102
{BLKREFS
331
45
102
}
  0
BLOCK_RECORD
  5
6E
330
1
100
AcDbSymbolTableRecord
100
AcDbBlockTableRecord
  2
SE1
340
0
102
{BLKREFS
331
6F
102
}
  0
BLOCK_RECORD
  5
76
330
1
100
AcDbSymbolTableRecord
100
AcDbBlockTableRecord
  2
SE2
340
0
102
{BLKREFS
331
77
102
}
  0
BLOCK_RECORD
  5
7E
330
1
100
AcDbSymbolTableRecord
100
AcDbBlockTableRecord
  2
SE3
340
0
102
{BLKREFS
331
7F
102
}
  0
BLOCK_RECORD
  5
86
330
1
100
AcDbSymbolTableRecord
100
AcDbBlockTableRecord
  2
SE4
340
0
102
{BLKREFS
331
87
102
}
  0
BLOCK_RECORD
  5
8E
330
1
100
AcDbSymbolTableRecord
100
AcDbBlockTableRecord
  2
SE5
340
0
102
{BLKREFS
331
8F
102
}
  0
BLOCK_RECORD
  5
96
330
1
100
AcDbSymbolTableRecord
100
AcDbBlockTableRecord
  2
SE6
340
0
102
{BLKREFS
331
97
102
}
  0
BLOCK_RECORD
  5
9E
330
1
100
AcDbSymbolTableRecord
100
AcDbBlockTableRecord
  2
SE7
340
0
102
{BLKREFS
331
9F
102
}
  0
BLOCK_RECORD
  5
A6
330
1
100
AcDbSymbolTableRecord
100
AcDbBlockTableRecord
  2
SE8
340
0
102
{BLKREFS
331
A7
102
}
  0
BLOCK_RECORD
  5
AE
330
1
100
AcDbSymbolTableRecord
100
AcDbBlockTableRecord
  2
SE9
340
0
102
{BLKREFS
331
AF
102
}
  0
BLOCK_RECORD
  5
B6
330
1
100
AcDbSymbolTableRecord
100
AcDbBlockTableRecord
  2
SE10
340
0
102
{BLKREFS
331
B7
102
}
  0
BLOCK_RECORD
  5
BE
330
1
100
AcDbSymbolTableRecord
100
AcDbBlockTableRecord
  2
SE11
340
0
102
{BLKREFS
331
BF
102
}
  0
BLOCK_RECORD
  5
C6
330
1
100
AcDbSymbolTableRecord
100
AcDbBlockTableRecord
  2
SE12
340
0
102
{BLKREFS
331
C7
102
}
  0
BLOCK_RECORD
  5
CE
330
1
100
AcDbSymbolTableRecord
100
AcDbBlockTableRecord
  2
SE13
340
0
102
{BLKREFS
331
CF
102
}
  0
BLOCK_RECORD
  5
D6
330
1
100
AcDbSymbolTableRecord
100
AcDbBlockTableRecord
  2
SE14
340
0
102
{BLKREFS
331
D7
102
}
  0
BLOCK_RECORD
  5
DE
330
1
100
AcDbSymbolTableRecord
100
AcDbBlockTableRecord
  2
SE15
340
0
102
{BLKREFS
331
DF
102
}
  0
BLOCK_RECORD
  5
E6
330
1
100
AcDbSymbolTableRecord
100
AcDbBlockTableRecord
  2
SE16
340
0
102
{BLKREFS
331
E7
102
}
  0
BLOCK_RECORD
  5
EE
330
1
100
AcDbSymbolTableRecord
100
AcDbBlockTableRecord
  2
SE17
340
0
102
{BLKREFS
331
EF
102
}
  0
BLOCK_RECORD
  5
F6
330
1
100
AcDbSymbolTableRecord
100
AcDbBlockTableRecord
  2
SE18
340
0
102
{BLKREFS
331
F7
102
}
  0
BLOCK_RECORD
  5
FE
330
1
100
AcDbSymbolTableRecord
100
AcDbBlockTableRecord
  2
SE19
340
0
102
{BLKREFS
331
FF
102
}
  0
BLOCK_RECORD
  5
106
330
1
100
AcDbSymbolTableRecord
100
AcDbBlockTableRecord
  2
SE20
340
0
102
{BLKREFS
331
107
102
}
  0
BLOCK_RECORD
  5
10E
330
1
100
AcDbSymbolTableRecord
100
AcDbBlockTableRecord
  2
SE21
340
0
102
{BLKREFS
331
10F
102
}
  0
BLOCK_RECORD
  5
116
330
1
100
AcDbSymbolTableRecord
100
AcDbBlockTableRecord
  2
SE22
340
0
102
{BLKREFS
331
117
102
}
  0
BLOCK_RECORD
  5
11E
330
1
100
AcDbSymbolTableRecord
100
AcDbBlockTableRecord
  2
SE23
340
0
102
{BLKREFS
331
11F
102
}
  0
BLOCK_RECORD
  5
126
330
1
100
AcDbSymbolTableRecord
100
AcDbBlockTableRecord
  2
SE24
340
0
102
{BLKREFS
331
127
102
}
  0
BLOCK_RECORD
  5
12E
330
1
100
AcDbSymbolTableRecord
100
AcDbBlockTableRecord
  2
SE25
340
0
102
{BLKREFS
331
12F
102
}
  0
BLOCK_RECORD
  5
136
330
1
100
AcDbSymbolTableRecord
100
AcDbBlockTableRecord
  2
SE26
340
0
102
{BLKREFS
331
137
102
}
  0
BLOCK_RECORD
  5
13E
330
1
100
AcDbSymbolTableRecord
100
AcDbBlockTableRecord
  2
SE27
340
0
102
{BLKREFS
331
13F
102
}
  0
BLOCK_RECORD
  5
146
330
1
100
AcDbSymbolTableRecord
100
AcDbBlockTableRecord
  2
SE28
340
0
102
{BLKREFS
331
147
102
}
  0
BLOCK_RECORD
  5
14E
330
1
100
AcDbSymbolTableRecord
100
AcDbBlockTableRecord
  2
SE29
340
0
102
{BLKREFS
331
14F
102
}
  0
BLOCK_RECORD
  5
156
330
1
100
AcDbSymbolTableRecord
100
AcDbBlockTableRecord
  2
SE30
340
0
102
{BLKREFS
331
157
102
}
  0
BLOCK_RECORD
  5
15E
330
1
100
AcDbSymbolTableRecord
100
AcDbBlockTableRecord
  2
SE31
340
0
102
{BLKREFS
331
15F
102
}
  0
BLOCK_RECORD
  5
166
330
1
100
AcDbSymbolTableRecord
100
AcDbBlockTableRecord
  2
SE32
340
0
102
{BLKREFS
331
167
102
}
  0
BLOCK_RECORD
  5
16E
330
1
100
AcDbSymbolTableRecord
100
AcDbBlockTableRecord
  2
SE33
340
0
102
{BLKREFS
331
16F
102
}
  0
BLOCK_RECORD
  5
176
330
1
100
AcDbSymbolTableRecord
100
AcDbBlockTableRecord
  2
SE34
340
0
102
{BLKREFS
331
177
102
}
  0
BLOCK_RECORD
  5
17E
330
1
100
AcDbSymbolTableRecord
100
AcDbBlockTableRecord
  2
SE35
340
0
102
{BLKREFS
331
17F
102
}
  0
BLOCK_RECORD
  5
186
330
1
100
AcDbSymbolTableRecord
100
AcDbBlockTableRecord
  2
SE36
340
0
102
{BLKREFS
331
187
102
}
  0
ENDTAB
  0
ENDSEC
  0
SECTION
  2
BLOCKS
  0
BLOCK
  5
20
330
1F
100
AcDbEntity
  8
0
100
AcDbBlockBegin
  2
*Model_Space
 70
     0
 10
0.0
 20
0.0
 30
0.0
  3
*Model_Space
  1

  0
ENDBLK
  5
21
330
1F
100
AcDbEntity
  8
0
100
AcDbBlockEnd
  0
BLOCK
  5
1C
330
1B
100
AcDbEntity
 67
     1
  8
0
100
AcDbBlockBegin
  2
*Paper_Space
 70
     0
 10
0.0
 20
0.0
 30
0.0
  3
*Paper_Space
  1

  0
ENDBLK
  5
1D
330
1B
100
AcDbEntity
 67
     1
  8
0
100
AcDbBlockEnd
  0
BLOCK
  5
6C
330
44
100
AcDbEntity
  8
0
100
AcDbBlockBegin
  2
SE
 70
     0
 10
0.0
 20
0.0
 30
0.0
  3
SE
  1

  0
LINE
  5
46
330
44
100
AcDbEntity
  8
Default
  6
Continuous
 62
     7
100
AcDbLine
 10
45.4575636197
 20
265.084656419
 30
0.0
 11
45.4578322497
 21
271.1015978839
 31
0.0
  0
LINE
  5
47
330
44
100
AcDbEntity
  8
Default
  6
Continuous
 62
     7
100
AcDbLine
 10
25.2578322698
 20
271.1024997252
 30
0.0
 11
25.2575637901
 21
265.0889244324
 31
0.0
  0
ARC
  5
48
330
44
100
AcDbEntity
  8
Default
  6
Continuous
 62
     7
100
AcDbCircle
 10
35.3558343689
 20
256.9020488796
 30
0.0
 40
13.0
100
AcDbArc
 50
320.98670303
 51
39.0081809605
  0
ARC
  5
49
330
44
100
AcDbEntity
  8
Default
  6
Continuous
 62
     7
100
AcDbCircle
 10
35.3558343689
 20
256.9020488796
 30
0.0
 40
13.0
100
AcDbArc
 50
140.9676072421
 51
219.0272767484
  0
LINE
  5
4A
330
44
100
AcDbEntity
  8
Default
  6
Continuous
 62
     7
100
AcDbLine
 10
36.1580985299
 20
277.0661146973
 30
0.0
 11
36.3580985297
 21
277.0661057681
 31
0.0
  0
LINE
  5
4B
330
44
100
AcDbEntity
  8
Default
  6
Continuous
 62
     7
100
AcDbLine
 10
36.1582028175
 20
279.4020130798
 30
0.0
 11
34.5582028191
 21
279.4020845128
 31
0.0
  0
LINE
  5
4C
330
44
100
AcDbEntity
  8
Default
  6
Continuous
 62
     7
100
AcDbLine
 10
34.5582028191
 20
279.4020845128
 30
0.0
 11
34.5580985315
 21
277.0661861302
 31
0.0
  0
LINE
  5
4D
330
44
100
AcDbEntity
  8
Default
  6
Continuous
 62
     7
100
AcDbLine
 10
36.1582028175
 20
279.4020130798
 30
0.0
 11
36.1580985299
 21
277.0661146973
 31
0.0
  0
LINE
  5
4E
330
44
100
AcDbEntity
  8
Default
  6
Continuous
 62
     7
100
AcDbLine
 10
34.555724988
 20
223.9020845681
 30
0.0
 11
36.1557249864
 21
223.9020131351
 31
0.0
  0
LINE
  5
4F
330
44
100
AcDbEntity
  8
Default
  6
Continuous
 62
     7
100
AcDbLine
 10
34.556035275
 20
230.8520845612
 30
0.0
 11
34.555724988
 21
223.9020845681
 31
0.0
  0
LINE
  5
50
330
44
100
AcDbEntity
  8
Default
  6
Continuous
 62
     7
100
AcDbLine
 10
36.1560352734
 20
230.8520131282
 30
0.0
 11
36.1557249864
 21
223.9020131351
 31
0.0
  0
ARC
  5
51
330
44
100
AcDbEntity
  8
Default
  6
Continuous
 62
     7
100
AcDbCircle
 10
37.8580216287
 20
275.3435945731
 30
0.0
 40
0.5000000000000004
100
AcDbArc
 50
179.9974419952
 51
236.2484533993
  0
ARC
  5
52
330
44
100
AcDbEntity
  8
Default
  6
Continuous
 62
     7
100
AcDbCircle
 10
32.8580216336
 20
275.3438178011
 30
0.0
 40
0.4999999999999997
100
AcDbArc
 50
303.7464305911
 51
359.9974419952
  0
ARC
  5
53
330
44
100
AcDbEntity
  8
Default
  6
Continuous
 62
     7
100
AcDbCircle
 10
36.3580538841
 20
276.0661057691
 30
0.0
 40
1.0
100
AcDbArc
 50
359.9974419952
 51
89.9974419952
  0
ARC
  5
54
330
44
100
AcDbEntity
  8
Default
  6
Continuous
 62
     7
100
AcDbCircle
 10
34.3580538861
 20
276.0661950603
 30
0.0
 40
1.0
100
AcDbArc
 50
89.9974419952
 51
179.9974419952
  0
LINE
  5
55
330
44
100
AcDbEntity
  8
Default
  6
Continuous
 62
     7
100
AcDbLine
 10
37.3580216292
 20
275.3436168959
 30
0.0
 11
37.3580538831
 21
276.0660611235
 31
0.0
  0
LINE
  5
56
330
44
100
AcDbEntity
  8
Default
  6
Continuous
 62
     7
100
AcDbLine
 10
34.3580985317
 20
277.0661950594
 30
0.0
 11
34.5580985315
 21
277.0661861302
 31
0.0
  0
LINE
  5
57
330
44
100
AcDbEntity
  8
Default
  6
Continuous
 62
     7
100
AcDbLine
 10
33.3580216331
 20
275.3437954783
 30
0.0
 11
33.3580538871
 21
276.066239706
 31
0.0
  0
LINE
  5
58
330
44
100
AcDbEntity
  8
Default
  6
Continuous
 62
     7
100
AcDbLine
 10
37.358033163
 20
275.6019595089
 30
0.0
 11
37.3580216292
 21
275.3436168959
 31
0.0
  0
LINE
  5
59
330
44
100
AcDbEntity
  8
Default
  6
Continuous
 62
     7
100
AcDbLine
 10
33.358033167
 20
275.6021380913
 30
0.0
 11
33.3580216331
 21
275.3437954783
 31
0.0
  0
ARC
  5
5A
330
44
100
AcDbEntity
  8
Default
  6
Continuous
 62
     7
100
AcDbCircle
 10
35.3578545826
 20
271.6020488041
 30
0.0
 40
4.0
100
AcDbArc
 50
11.534401028
 51
56.2484533993
  0
ARC
  5
5B
330
44
100
AcDbEntity
  8
Default
  6
Continuous
 62
     7
100
AcDbCircle
 10
40.2568787089
 20
272.6018300852
 30
0.0
 40
1.000000000000006
100
AcDbArc
 50
191.534401028
 51
269.9974419952
  0
ARC
  5
5C
330
44
100
AcDbEntity
  8
Default
  6
Continuous
 62
     7
100
AcDbCircle
 10
30.4589197475
 20
272.602267521
 30
0.0
 40
1.000000000000001
100
AcDbArc
 50
269.9974419952
 51
348.4604829624
  0
ARC
  5
5D
330
44
100
AcDbEntity
  8
Default
  6
Continuous
 62
     7
100
AcDbCircle
 10
35.3578545826
 20
271.6020488041
 30
0.0
 40
4.0
100
AcDbArc
 50
123.7464305911
 51
168.4604829624
  0
ARC
  5
5E
330
44
100
AcDbEntity
  8
Default
  6
Continuous
 62
     7
100
AcDbCircle
 10
44.9578322502
 20
271.1016202067
 30
0.0
 40
0.5
100
AcDbArc
 50
359.9974419952
 51
89.9974419952
  0
ARC
  5
5F
330
44
100
AcDbEntity
  8
Default
  6
Continuous
 62
     7
100
AcDbCircle
 10
44.9560575874
 20
231.3516202464
 30
0.0
 40
0.5
100
AcDbArc
 50
269.9974419952
 51
359.9974419952
  0
ARC
  5
60
330
44
100
AcDbEntity
  8
Default
  6
Continuous
 62
     7
100
AcDbCircle
 10
25.7578322693
 20
271.1024774024
 30
0.0
 40
0.5
100
AcDbArc
 50
89.9974419952
 51
179.9974419952
  0
ARC
  5
61
330
44
100
AcDbEntity
  8
Default
  6
Continuous
 62
     7
100
AcDbCircle
 10
25.7560576065
 20
231.352477442
 30
0.0
 40
0.5
100
AcDbArc
 50
179.9974419952
 51
269.9974419952
  0
LINE
  5
62
330
44
100
AcDbEntity
  8
Default
  6
Continuous
 62
     7
100
AcDbLine
 10
44.957854573
 20
271.6016202062
 30
0.0
 11
40.2568340633
 21
271.6018300861
 31
0.0
  0
LINE
  5
63
330
44
100
AcDbEntity
  8
Default
  6
Continuous
 62
     7
100
AcDbLine
 10
25.7560352837
 20
230.8524774425
 30
0.0
 11
34.556035275
 21
230.8520845612
 31
0.0
  0
LINE
  5
64
330
44
100
AcDbEntity
  8
Default
  6
Continuous
 62
     7
100
AcDbLine
 10
45.4560575869
 20
231.3515979236
 30
0.0
 11
45.4568329445
 21
248.7185393772
 31
0.0
  0
LINE
  5
65
330
44
100
AcDbEntity
  8
Default
  6
Continuous
 62
     7
100
AcDbLine
 10
30.4588751019
 20
271.602267522
 30
0.0
 11
25.7578545922
 21
271.6024774019
 31
0.0
  0
LINE
  5
66
330
44
100
AcDbEntity
  8
Default
  6
Continuous
 62
     7
100
AcDbLine
 10
25.2568328144
 20
248.7160750462
 30
0.0
 11
25.256057607
 21
231.3524997648
 31
0.0
  0
CIRCLE
  5
67
330
44
100
AcDbEntity
  8
Default
  6
Continuous
 62
     7
100
AcDbCircle
 10
40.3558477576
 20
226.6518256208
 30
0.0
 40
1.5
  0
CIRCLE
  5
68
330
44
100
AcDbEntity
  8
Default
  6
Continuous
 62
     7
100
AcDbCircle
 10
30.3558477676
 20
226.6522720769
 30
0.0
 40
1.5
  0
CIRCLE
  5
69
330
44
100
AcDbEntity
  8
Default
  6
Continuous
 62
     7
100
AcDbCircle
 10
40.3580130695
 20
275.1518255725
 30
0.0
 40
1.5
  0
CIRCLE
  5
6A
330
44
100
AcDbEntity
  8
Default
  6
Continuous
 62
     7
100
AcDbCircle
 10
30.3580130795
 20
275.1522720285
 30
0.0
 40
1.5
  0
LINE
  5
6B
330
44
100
AcDbEntity
  8
Default
  6
Continuous
 62
     7
100
AcDbLine
 10
36.1560352734
 20
230.8520131282
 30
0.0
 11
44.9560352646
 21
230.8516202469
 31
0.0
  0
ENDBLK
  5
6D
330
44
100
AcDbEntity
  8
0
100
AcDbBlockEnd
  0
BLOCK
  5
74
330
6E
100
AcDbEntity
  8
0
100
AcDbBlockBegin
  2
SE1
 70
     0
 10
0.0
 20
0.0
 30
0.0
  3
SE1
  1

  0
LINE
  5
70
330
6E
100
AcDbEntity
  8
Default
  6
Continuous
 62
     7
100
AcDbLine
 10
54.8560352742
 20
289.9020488751
 30
0.0
 11
51.8560352742
 21
289.9020488751
 31
0.0
  0
LINE
  5
71
330
6E
100
AcDbEntity
  8
Default
  6
Continuous
 62
     7
100
AcDbLine
 10
54.8560352742
 20
286.9020488751
 30
0.0
 11
54.8560352742
 21
289.9020488751
 31
0.0
  0
LINE
  5
72
330
6E
100
AcDbEntity
  8
Default
  6
Continuous
 62
     7
100
AcDbLine
 10
51.8560352742
 20
286.9020488751
 30
0.0
 11
54.8560352742
 21
286.9020488751
 31
0.0
  0
LINE
  5
73
330
6E
100
AcDbEntity
  8
Default
  6
Continuous
 62
     7
100
AcDbLine
 10
51.8560352742
 20
289.9020488751
 30
0.0
 11
51.8560352742
 21
286.9020488751
 31
0.0
  0
ENDBLK
  5
75
330
6E
100
AcDbEntity
  8
0
100
AcDbBlockEnd
  0
BLOCK
  5
7C
330
76
100
AcDbEntity
  8
0
100
AcDbBlockBegin
  2
SE2
 70
     0
 10
0.0
 20
0.0
 30
0.0
  3
SE2
  1

  0
LINE
  5
78
330
76
100
AcDbEntity
  8
Default
  6
Continuous
 62
     7
100
AcDbLine
 10
54.8560352742
 20
280.9020488751
 30
0.0
 11
51.8560352742
 21
280.9020488751
 31
0.0
  0
LINE
  5
79
330
76
100
AcDbEntity
  8
Default
  6
Continuous
 62
     7
100
AcDbLine
 10
54.8560352742
 20
277.9020488751
 30
0.0
 11
54.8560352742
 21
280.9020488751
 31
0.0
  0
LINE
  5
7A
330
76
100
AcDbEntity
  8
Default
  6
Continuous
 62
     7
100
AcDbLine
 10
51.8560352742
 20
277.9020488751
 30
0.0
 11
54.8560352742
 21
277.9020488751
 31
0.0
  0
LINE
  5
7B
330
76
100
AcDbEntity
  8
Default
  6
Continuous
 62
     7
100
AcDbLine
 10
51.8560352742
 20
280.9020488751
 30
0.0
 11
51.8560352742
 21
277.9020488751
 31
0.0
  0
ENDBLK
  5
7D
330
76
100
AcDbEntity
  8
0
100
AcDbBlockEnd
  0
BLOCK
  5
84
330
7E
100
AcDbEntity
  8
0
100
AcDbBlockBegin
  2
SE3
 70
     0
 10
0.0
 20
0.0
 30
0.0
  3
SE3
  1

  0
LINE
  5
80
330
7E
100
AcDbEntity
  8
Default
  6
Continuous
 62
     7
100
AcDbLine
 10
54.8560352742
 20
271.9020488751
 30
0.0
 11
51.8560352742
 21
271.9020488751
 31
0.0
  0
LINE
  5
81
330
7E
100
AcDbEntity
  8
Default
  6
Continuous
 62
     7
100
AcDbLine
 10
54.8560352742
 20
268.9020488751
 30
0.0
 11
54.8560352742
 21
271.9020488751
 31
0.0
  0
LINE
  5
82
330
7E
100
AcDbEntity
  8
Default
  6
Continuous
 62
     7
100
AcDbLine
 10
51.8560352742
 20
268.9020488751
 30
0.0
 11
54.8560352742
 21
268.9020488751
 31
0.0
  0
LINE
  5
83
330
7E
100
AcDbEntity
  8
Default
  6
Continuous
 62
     7
100
AcDbLine
 10
51.8560352742
 20
271.9020488751
 30
0.0
 11
51.8560352742
 21
268.9020488751
 31
0.0
  0
ENDBLK
  5
85
330
7E
100
AcDbEntity
  8
0
100
AcDbBlockEnd
  0
BLOCK
  5
8C
330
86
100
AcDbEntity
  8
0
100
AcDbBlockBegin
  2
SE4
 70
     0
 10
0.0
 20
0.0
 30
0.0
  3
SE4
  1

  0
LINE
  5
88
330
86
100
AcDbEntity
  8
Default
  6
Continuous
 62
     7
100
AcDbLine
 10
54.8560352742
 20
262.9020488751
 30
0.0
 11
51.8560352742
 21
262.9020488751
 31
0.0
  0
LINE
  5
89
330
86
100
AcDbEntity
  8
Default
  6
Continuous
 62
     7
100
AcDbLine
 10
54.8560352742
 20
259.9020488751
 30
0.0
 11
54.8560352742
 21
262.9020488751
 31
0.0
  0
LINE
  5
8A
330
86
100
AcDbEntity
  8
Default
  6
Continuous
 62
     7
100
AcDbLine
 10
51.8560352742
 20
259.9020488751
 30
0.0
 11
54.8560352742
 21
259.9020488751
 31
0.0
  0
LINE
  5
8B
330
86
100
AcDbEntity
  8
Default
  6
Continuous
 62
     7
100
AcDbLine
 10
51.8560352742
 20
262.9020488751
 30
0.0
 11
51.8560352742
 21
259.9020488751
 31
0.0
  0
ENDBLK
  5
8D
330
86
100
AcDbEntity
  8
0
100
AcDbBlockEnd
  0
BLOCK
  5
94
330
8E
100
AcDbEntity
  8
0
100
AcDbBlockBegin
  2
SE5
 70
     0
 10
0.0
 20
0.0
 30
0.0
  3
SE5
  1

  0
LINE
  5
90
330
8E
100
AcDbEntity
  8
Default
  6
Continuous
 62
     7
100
AcDbLine
 10
54.8560352742
 20
253.9020488751
 30
0.0
 11
51.8560352742
 21
253.9020488751
 31
0.0
  0
LINE
  5
91
330
8E
100
AcDbEntity
  8
Default
  6
Continuous
 62
     7
100
AcDbLine
 10
54.8560352742
 20
250.9020488751
 30
0.0
 11
54.8560352742
 21
253.9020488751
 31
0.0
  0
LINE
  5
92
330
8E
100
AcDbEntity
  8
Default
  6
Continuous
 62
     7
100
AcDbLine
 10
51.8560352742
 20
250.9020488751
 30
0.0
 11
54.8560352742
 21
250.9020488751
 31
0.0
  0
LINE
  5
93
330
8E
100
AcDbEntity
  8
Default
  6
Continuous
 62
     7
100
AcDbLine
 10
51.8560352742
 20
253.9020488751
 30
0.0
 11
51.8560352742
 21
250.9020488751
 31
0.0
  0
ENDBLK
  5
95
330
8E
100
AcDbEntity
  8
0
100
AcDbBlockEnd
  0
BLOCK
  5
9C
330
96
100
AcDbEntity
  8
0
100
AcDbBlockBegin
  2
SE6
 70
     0
 10
0.0
 20
0.0
 30
0.0
  3
SE6
  1

  0
LINE
  5
98
330
96
100
AcDbEntity
  8
Default
  6
Continuous
 62
     7
100
AcDbLine
 10
54.8560352742
 20
244.9020488751
 30
0.0
 11
51.8560352742
 21
244.9020488751
 31
0.0
  0
LINE
  5
99
330
96
100
AcDbEntity
  8
Default
  6
Continuous
 62
     7
100
AcDbLine
 10
54.8560352742
 20
241.9020488751
 30
0.0
 11
54.8560352742
 21
244.9020488751
 31
0.0
  0
LINE
  5
9A
330
96
100
AcDbEntity
  8
Default
  6
Continuous
 62
     7
100
AcDbLine
 10
51.8560352742
 20
241.9020488751
 30
0.0
 11
54.8560352742
 21
241.9020488751
 31
0.0
  0
LINE
  5
9B
330
96
100
AcDbEntity
  8
Default
  6
Continuous
 62
     7
100
AcDbLine
 10
51.8560352742
 20
244.9020488751
 30
0.0
 11
51.8560352742
 21
241.9020488751
 31
0.0
  0
ENDBLK
  5
9D
330
96
100
AcDbEntity
  8
0
100
AcDbBlockEnd
  0
BLOCK
  5
A4
330
9E
100
AcDbEntity
  8
0
100
AcDbBlockBegin
  2
SE7
 70
     0
 10
0.0
 20
0.0
 30
0.0
  3
SE7
  1

  0
LINE
  5
A0
330
9E
100
AcDbEntity
  8
Default
  6
Continuous
 62
     7
100
AcDbLine
 10
54.8560352742
 20
235.9020488751
 30
0.0
 11
51.8560352742
 21
235.9020488751
 31
0.0
  0
LINE
  5
A1
330
9E
100
AcDbEntity
  8
Default
  6
Continuous
 62
     7
100
AcDbLine
 10
54.8560352742
 20
232.9020488751
 30
0.0
 11
54.8560352742
 21
235.9020488751
 31
0.0
  0
LINE
  5
A2
330
9E
100
AcDbEntity
  8
Default
  6
Continuous
 62
     7
100
AcDbLine
 10
51.8560352742
 20
232.9020488751
 30
0.0
 11
54.8560352742
 21
232.9020488751
 31
0.0
  0
LINE
  5
A3
330
9E
100
AcDbEntity
  8
Default
  6
Continuous
 62
     7
100
AcDbLine
 10
51.8560352742
 20
235.9020488751
 30
0.0
 11
51.8560352742
 21
232.9020488751
 31
0.0
  0
ENDBLK
  5
A5
330
9E
100
AcDbEntity
  8
0
100
AcDbBlockEnd
  0
BLOCK
  5
AC
330
A6
100
AcDbEntity
  8
0
100
AcDbBlockBegin
  2
SE8
 70
     0
 10
0.0
 20
0.0
 30
0.0
  3
SE8
  1

  0
LINE
  5
A8
330
A6
100
AcDbEntity
  8
Default
  6
Continuous
 62
     7
100
AcDbLine
 10
54.8560352742
 20
226.9020488751
 30
0.0
 11
51.8560352742
 21
226.9020488751
 31
0.0
  0
LINE
  5
A9
330
A6
100
AcDbEntity
  8
Default
  6
Continuous
 62
     7
100
AcDbLine
 10
54.8560352742
 20
223.9020488751
 30
0.0
 11
54.8560352742
 21
226.9020488751
 31
0.0
  0
LINE
  5
AA
330
A6
100
AcDbEntity
  8
Default
  6
Continuous
 62
     7
100
AcDbLine
 10
51.8560352742
 20
223.9020488751
 30
0.0
 11
54.8560352742
 21
223.9020488751
 31
0.0
  0
LINE
  5
AB
330
A6
100
AcDbEntity
  8
Default
  6
Continuous
 62
     7
100
AcDbLine
 10
51.8560352742
 20
226.9020488751
 30
0.0
 11
51.8560352742
 21
223.9020488751
 31
0.0
  0
ENDBLK
  5
AD
330
A6
100
AcDbEntity
  8
0
100
AcDbBlockEnd
  0
BLOCK
  5
B4
330
AE
100
AcDbEntity
  8
0
100
AcDbBlockBegin
  2
SE9
 70
     0
 10
0.0
 20
0.0
 30
0.0
  3
SE9
  1

  0
LINE
  5
B0
330
AE
100
AcDbEntity
  8
Default
  6
Continuous
 62
     7
100
AcDbLine
 10
54.8560352742
 20
217.9020488751
 30
0.0
 11
51.8560352742
 21
217.9020488751
 31
0.0
  0
LINE
  5
B1
330
AE
100
AcDbEntity
  8
Default
  6
Continuous
 62
     7
100
AcDbLine
 10
54.8560352742
 20
214.9020488751
 30
0.0
 11
54.8560352742
 21
217.9020488751
 31
0.0
  0
LINE
  5
B2
330
AE
100
AcDbEntity
  8
Default
  6
Continuous
 62
     7
100
AcDbLine
 10
51.8560352742
 20
214.9020488751
 30
0.0
 11
54.8560352742
 21
214.9020488751
 31
0.0
  0
LINE
  5
B3
330
AE
100
AcDbEntity
  8
Default
  6
Continuous
 62
     7
100
AcDbLine
 10
51.8560352742
 20
217.9020488751
 30
0.0
 11
51.8560352742
 21
214.9020488751
 31
0.0
  0
ENDBLK
  5
B5
330
AE
100
AcDbEntity
  8
0
100
AcDbBlockEnd
  0
BLOCK
  5
BC
330
B6
100
AcDbEntity
  8
0
100
AcDbBlockBegin
  2
SE10
 70
     0
 10
0.0
 20
0.0
 30
0.0
  3
SE10
  1

  0
LINE
  5
B8
330
B6
100
AcDbEntity
  8
Default
  6
Continuous
 62
     7
100
AcDbLine
 10
54.8560352742
 20
208.9020488751
 30
0.0
 11
51.8560352742
 21
208.9020488751
 31
0.0
  0
LINE
  5
B9
330
B6
100
AcDbEntity
  8
Default
  6
Continuous
 62
     7
100
AcDbLine
 10
54.8560352742
 20
205.9020488751
 30
0.0
 11
54.8560352742
 21
208.9020488751
 31
0.0
  0
LINE
  5
BA
330
B6
100
AcDbEntity
  8
Default
  6
Continuous
 62
     7
100
AcDbLine
 10
51.8560352742
 20
205.9020488751
 30
0.0
 11
54.8560352742
 21
205.9020488751
 31
0.0
  0
LINE
  5
BB
330
B6
100
AcDbEntity
  8
Default
  6
Continuous
 62
     7
100
AcDbLine
 10
51.8560352742
 20
208.9020488751
 30
0.0
 11
51.8560352742
 21
205.9020488751
 31
0.0
  0
ENDBLK
  5
BD
330
B6
100
AcDbEntity
  8
0
100
AcDbBlockEnd
  0
BLOCK
  5
C4
330
BE
100
AcDbEntity
  8
0
100
AcDbBlockBegin
  2
SE11
 70
     0
 10
0.0
 20
0.0
 30
0.0
  3
SE11
  1

  0
LINE
  5
C0
330
BE
100
AcDbEntity
  8
Default
  6
Continuous
 62
     7
100
AcDbLine
 10
54.8560352742
 20
199.9020488751
 30
0.0
 11
51.8560352742
 21
199.9020488751
 31
0.0
  0
LINE
  5
C1
330
BE
100
AcDbEntity
  8
Default
  6
Continuous
 62
     7
100
AcDbLine
 10
54.8560352742
 20
196.9020488751
 30
0.0
 11
54.8560352742
 21
199.9020488751
 31
0.0
  0
LINE
  5
C2
330
BE
100
AcDbEntity
  8
Default
  6
Continuous
 62
     7
100
AcDbLine
 10
51.8560352742
 20
196.9020488751
 30
0.0
 11
54.8560352742
 21
196.9020488751
 31
0.0
  0
LINE
  5
C3
330
BE
100
AcDbEntity
  8
Default
  6
Continuous
 62
     7
100
AcDbLine
 10
51.8560352742
 20
199.9020488751
 30
0.0
 11
51.8560352742
 21
196.9020488751
 31
0.0
  0
ENDBLK
  5
C5
330
BE
100
AcDbEntity
  8
0
100
AcDbBlockEnd
  0
BLOCK
  5
CC
330
C6
100
AcDbEntity
  8
0
100
AcDbBlockBegin
  2
SE12
 70
     0
 10
0.0
 20
0.0
 30
0.0
  3
SE12
  1

  0
LINE
  5
C8
330
C6
100
AcDbEntity
  8
Default
  6
Continuous
 62
     7
100
AcDbLine
 10
18.8560352742
 20
289.9020488751
 30
0.0
 11
15.8560352742
 21
289.9020488751
 31
0.0
  0
LINE
  5
C9
330
C6
100
AcDbEntity
  8
Default
  6
Continuous
 62
     7
100
AcDbLine
 10
18.8560352742
 20
286.9020488751
 30
0.0
 11
18.8560352742
 21
289.9020488751
 31
0.0
  0
LINE
  5
CA
330
C6
100
AcDbEntity
  8
Default
  6
Continuous
 62
     7
100
AcDbLine
 10
15.8560352742
 20
286.9020488751
 30
0.0
 11
18.8560352742
 21
286.9020488751
 31
0.0
  0
LINE
  5
CB
330
C6
100
AcDbEntity
  8
Default
  6
Continuous
 62
     7
100
AcDbLine
 10
15.8560352742
 20
289.9020488751
 30
0.0
 11
15.8560352742
 21
286.9020488751
 31
0.0
  0
ENDBLK
  5
CD
330
C6
100
AcDbEntity
  8
0
100
AcDbBlockEnd
  0
BLOCK
  5
D4
330
CE
100
AcDbEntity
  8
0
100
AcDbBlockBegin
  2
SE13
 70
     0
 10
0.0
 20
0.0
 30
0.0
  3
SE13
  1

  0
LINE
  5
D0
330
CE
100
AcDbEntity
  8
Default
  6
Continuous
 62
     7
100
AcDbLine
 10
18.8560352742
 20
280.9020488751
 30
0.0
 11
15.8560352742
 21
280.9020488751
 31
0.0
  0
LINE
  5
D1
330
CE
100
AcDbEntity
  8
Default
  6
Continuous
 62
     7
100
AcDbLine
 10
18.8560352742
 20
277.9020488751
 30
0.0
 11
18.8560352742
 21
280.9020488751
 31
0.0
  0
LINE
  5
D2
330
CE
100
AcDbEntity
  8
Default
  6
Continuous
 62
     7
100
AcDbLine
 10
15.8560352742
 20
277.9020488751
 30
0.0
 11
18.8560352742
 21
277.9020488751
 31
0.0
  0
LINE
  5
D3
330
CE
100
AcDbEntity
  8
Default
  6
Continuous
 62
     7
100
AcDbLine
 10
15.8560352742
 20
280.9020488751
 30
0.0
 11
15.8560352742
 21
277.9020488751
 31
0.0
  0
ENDBLK
  5
D5
330
CE
100
AcDbEntity
  8
0
100
AcDbBlockEnd
  0
BLOCK
  5
DC
330
D6
100
AcDbEntity
  8
0
100
AcDbBlockBegin
  2
SE14
 70
     0
 10
0.0
 20
0.0
 30
0.0
  3
SE14
  1

  0
LINE
  5
D8
330
D6
100
AcDbEntity
  8
Default
  6
Continuous
 62
     7
100
AcDbLine
 10
18.8560352742
 20
271.9020488751
 30
0.0
 11
15.8560352742
 21
271.9020488751
 31
0.0
  0
LINE
  5
D9
330
D6
100
AcDbEntity
  8
Default
  6
Continuous
 62
     7
100
AcDbLine
 10
18.8560352742
 20
268.9020488751
 30
0.0
 11
18.8560352742
 21
271.9020488751
 31
0.0
  0
LINE
  5
DA
330
D6
100
AcDbEntity
  8
Default
  6
Continuous
 62
     7
100
AcDbLine
 10
15.8560352742
 20
268.9020488751
 30
0.0
 11
18.8560352742
 21
268.9020488751
 31
0.0
  0
LINE
  5
DB
330
D6
100
AcDbEntity
  8
Default
  6
Continuous
 62
     7
100
AcDbLine
 10
15.8560352742
 20
271.9020488751
 30
0.0
 11
15.8560352742
 21
268.9020488751
 31
0.0
  0
ENDBLK
  5
DD
330
D6
100
AcDbEntity
  8
0
100
AcDbBlockEnd
  0
BLOCK
  5
E4
330
DE
100
AcDbEntity
  8
0
100
AcDbBlockBegin
  2
SE15
 70
     0
 10
0.0
 20
0.0
 30
0.0
  3
SE15
  1

  0
LINE
  5
E0
330
DE
100
AcDbEntity
  8
Default
  6
Continuous
 62
     7
100
AcDbLine
 10
18.8560352742
 20
262.9020488751
 30
0.0
 11
15.8560352742
 21
262.9020488751
 31
0.0
  0
LINE
  5
E1
330
DE
100
AcDbEntity
  8
Default
  6
Continuous
 62
     7
100
AcDbLine
 10
18.8560352742
 20
259.9020488751
 30
0.0
 11
18.8560352742
 21
262.9020488751
 31
0.0
  0
LINE
  5
E2
330
DE
100
AcDbEntity
  8
Default
  6
Continuous
 62
     7
100
AcDbLine
 10
15.8560352742
 20
259.9020488751
 30
0.0
 11
18.8560352742
 21
259.9020488751
 31
0.0
  0
LINE
  5
E3
330
DE
100
AcDbEntity
  8
Default
  6
Continuous
 62
     7
100
AcDbLine
 10
15.8560352742
 20
262.9020488751
 30
0.0
 11
15.8560352742
 21
259.9020488751
 31
0.0
  0
ENDBLK
  5
E5
330
DE
100
AcDbEntity
  8
0
100
AcDbBlockEnd
  0
BLOCK
  5
EC
330
E6
100
AcDbEntity
  8
0
100
AcDbBlockBegin
  2
SE16
 70
     0
 10
0.0
 20
0.0
 30
0.0
  3
SE16
  1

  0
LINE
  5
E8
330
E6
100
AcDbEntity
  8
Default
  6
Continuous
 62
     7
100
AcDbLine
 10
18.8560352742
 20
253.9020488751
 30
0.0
 11
15.8560352742
 21
253.9020488751
 31
0.0
  0
LINE
  5
E9
330
E6
100
AcDbEntity
  8
Default
  6
Continuous
 62
     7
100
AcDbLine
 10
18.8560352742
 20
250.9020488751
 30
0.0
 11
18.8560352742
 21
253.9020488751
 31
0.0
  0
LINE
  5
EA
330
E6
100
AcDbEntity
  8
Default
  6
Continuous
 62
     7
100
AcDbLine
 10
15.8560352742
 20
250.9020488751
 30
0.0
 11
18.8560352742
 21
250.9020488751
 31
0.0
  0
LINE
  5
EB
330
E6
100
AcDbEntity
  8
Default
  6
Continuous
 62
     7
100
AcDbLine
 10
15.8560352742
 20
253.9020488751
 30
0.0
 11
15.8560352742
 21
250.9020488751
 31
0.0
  0
ENDBLK
  5
ED
330
E6
100
AcDbEntity
  8
0
100
AcDbBlockEnd
  0
BLOCK
  5
F4
330
EE
100
AcDbEntity
  8
0
100
AcDbBlockBegin
  2
SE17
 70
     0
 10
0.0
 20
0.0
 30
0.0
  3
SE17
  1

  0
LINE
  5
F0
330
EE
100
AcDbEntity
  8
Default
  6
Continuous
 62
     7
100
AcDbLine
 10
18.8560352742
 20
244.9020488751
 30
0.0
 11
15.8560352742
 21
244.9020488751
 31
0.0
  0
LINE
  5
F1
330
EE
100
AcDbEntity
  8
Default
  6
Continuous
 62
     7
100
AcDbLine
 10
18.8560352742
 20
241.9020488751
 30
0.0
 11
18.8560352742
 21
244.9020488751
 31
0.0
  0
LINE
  5
F2
330
EE
100
AcDbEntity
  8
Default
  6
Continuous
 62
     7
100
AcDbLine
 10
15.8560352742
 20
241.9020488751
 30
0.0
 11
18.8560352742
 21
241.9020488751
 31
0.0
  0
LINE
  5
F3
330
EE
100
AcDbEntity
  8
Default
  6
Continuous
 62
     7
100
AcDbLine
 10
15.8560352742
 20
244.9020488751
 30
0.0
 11
15.8560352742
 21
241.9020488751
 31
0.0
  0
ENDBLK
  5
F5
330
EE
100
AcDbEntity
  8
0
100
AcDbBlockEnd
  0
BLOCK
  5
FC
330
F6
100
AcDbEntity
  8
0
100
AcDbBlockBegin
  2
SE18
 70
     0
 10
0.0
 20
0.0
 30
0.0
  3
SE18
  1

  0
LINE
  5
F8
330
F6
100
AcDbEntity
  8
Default
  6
Continuous
 62
     7
100
AcDbLine
 10
18.8560352742
 20
235.9020488751
 30
0.0
 11
15.8560352742
 21
235.9020488751
 31
0.0
  0
LINE
  5
F9
330
F6
100
AcDbEntity
  8
Default
  6
Continuous
 62
     7
100
AcDbLine
 10
18.8560352742
 20
232.9020488751
 30
0.0
 11
18.8560352742
 21
235.9020488751
 31
0.0
  0
LINE
  5
FA
330
F6
100
AcDbEntity
  8
Default
  6
Continuous
 62
     7
100
AcDbLine
 10
15.8560352742
 20
232.9020488751
 30
0.0
 11
18.8560352742
 21
232.9020488751
 31
0.0
  0
LINE
  5
FB
330
F6
100
AcDbEntity
  8
Default
  6
Continuous
 62
     7
100
AcDbLine
 10
15.8560352742
 20
235.9020488751
 30
0.0
 11
15.8560352742
 21
232.9020488751
 31
0.0
  0
ENDBLK
  5
FD
330
F6
100
AcDbEntity
  8
0
100
AcDbBlockEnd
  0
BLOCK
  5
104
330
FE
100
AcDbEntity
  8
0
100
AcDbBlockBegin
  2
SE19
 70
     0
 10
0.0
 20
0.0
 30
0.0
  3
SE19
  1

  0
LINE
  5
100
330
FE
100
AcDbEntity
  8
Default
  6
Continuous
 62
     7
100
AcDbLine
 10
18.8560352742
 20
226.9020488751
 30
0.0
 11
15.8560352742
 21
226.9020488751
 31
0.0
  0
LINE
  5
101
330
FE
100
AcDbEntity
  8
Default
  6
Continuous
 62
     7
100
AcDbLine
 10
18.8560352742
 20
223.9020488751
 30
0.0
 11
18.8560352742
 21
226.9020488751
 31
0.0
  0
LINE
  5
102
330
FE
100
AcDbEntity
  8
Default
  6
Continuous
 62
     7
100
AcDbLine
 10
15.8560352742
 20
223.9020488751
 30
0.0
 11
18.8560352742
 21
223.9020488751
 31
0.0
  0
LINE
  5
103
330
FE
100
AcDbEntity
  8
Default
  6
Continuous
 62
     7
100
AcDbLine
 10
15.8560352742
 20
226.9020488751
 30
0.0
 11
15.8560352742
 21
223.9020488751
 31
0.0
  0
ENDBLK
  5
105
330
FE
100
AcDbEntity
  8
0
100
AcDbBlockEnd
  0
BLOCK
  5
10C
330
106
100
AcDbEntity
  8
0
100
AcDbBlockBegin
  2
SE20
 70
     0
 10
0.0
 20
0.0
 30
0.0
  3
SE20
  1

  0
LINE
  5
108
330
106
100
AcDbEntity
  8
Default
  6
Continuous
 62
     7
100
AcDbLine
 10
18.8560352742
 20
217.9020488751
 30
0.0
 11
15.8560352742
 21
217.9020488751
 31
0.0
  0
LINE
  5
109
330
106
100
AcDbEntity
  8
Default
  6
Continuous
 62
     7
100
AcDbLine
 10
18.8560352742
 20
214.9020488751
 30
0.0
 11
18.8560352742
 21
217.9020488751
 31
0.0
  0
LINE
  5
10A
330
106
100
AcDbEntity
  8
Default
  6
Continuous
 62
     7
100
AcDbLine
 10
15.8560352742
 20
214.9020488751
 30
0.0
 11
18.8560352742
 21
214.9020488751
 31
0.0
  0
LINE
  5
10B
330
106
100
AcDbEntity
  8
Default
  6
Continuous
 62
     7
100
AcDbLine
 10
15.8560352742
 20
217.9020488751
 30
0.0
 11
15.8560352742
 21
214.9020488751
 31
0.0
  0
ENDBLK
  5
10D
330
106
100
AcDbEntity
  8
0
100
AcDbBlockEnd
  0
BLOCK
  5
114
330
10E
100
AcDbEntity
  8
0
100
AcDbBlockBegin
  2
SE21
 70
     0
 10
0.0
 20
0.0
 30
0.0
  3
SE21
  1

  0
LINE
  5
110
330
10E
100
AcDbEntity
  8
Default
  6
Continuous
 62
     7
100
AcDbLine
 10
18.8560352742
 20
208.9020488751
 30
0.0
 11
15.8560352742
 21
208.9020488751
 31
0.0
  0
LINE
  5
111
330
10E
100
AcDbEntity
  8
Default
  6
Continuous
 62
     7
100
AcDbLine
 10
18.8560352742
 20
205.9020488751
 30
0.0
 11
18.8560352742
 21
208.9020488751
 31
0.0
  0
LINE
  5
112
330
10E
100
AcDbEntity
  8
Default
  6
Continuous
 62
     7
100
AcDbLine
 10
15.8560352742
 20
205.9020488751
 30
0.0
 11
18.8560352742
 21
205.9020488751
 31
0.0
  0
LINE
  5
113
330
10E
100
AcDbEntity
  8
Default
  6
Continuous
 62
     7
100
AcDbLine
 10
15.8560352742
 20
208.9020488751
 30
0.0
 11
15.8560352742
 21
205.9020488751
 31
0.0
  0
ENDBLK
  5
115
330
10E
100
AcDbEntity
  8
0
100
AcDbBlockEnd
  0
BLOCK
  5
11C
330
116
100
AcDbEntity
  8
0
100
AcDbBlockBegin
  2
SE22
 70
     0
 10
0.0
 20
0.0
 30
0.0
  3
SE22
  1

  0
LINE
  5
118
330
116
100
AcDbEntity
  8
Default
  6
Continuous
 62
     7
100
AcDbLine
 10
18.8560352742
 20
199.9020488751
 30
0.0
 11
15.8560352742
 21
199.9020488751
 31
0.0
  0
LINE
  5
119
330
116
100
AcDbEntity
  8
Default
  6
Continuous
 62
     7
100
AcDbLine
 10
18.8560352742
 20
196.9020488751
 30
0.0
 11
18.8560352742
 21
199.9020488751
 31
0.0
  0
LINE
  5
11A
330
116
100
AcDbEntity
  8
Default
  6
Continuous
 62
     7
100
AcDbLine
 10
15.8560352742
 20
196.9020488751
 30
0.0
 11
18.8560352742
 21
196.9020488751
 31
0.0
  0
LINE
  5
11B
330
116
100
AcDbEntity
  8
Default
  6
Continuous
 62
     7
100
AcDbLine
 10
15.8560352742
 20
199.9020488751
 30
0.0
 11
15.8560352742
 21
196.9020488751
 31
0.0
  0
ENDBLK
  5
11D
330
116
100
AcDbEntity
  8
0
100
AcDbBlockEnd
  0
BLOCK
  5
124
330
11E
100
AcDbEntity
  8
0
100
AcDbBlockBegin
  2
SE23
 70
     0
 10
0.0
 20
0.0
 30
0.0
  3
SE23
  1

  0
LINE
  5
120
330
11E
100
AcDbEntity
  8
Default
  6
Continuous
 62
     7
100
AcDbLine
 10
45.8560352742
 20
199.9020488751
 30
0.0
 11
42.8560352742
 21
199.9020488751
 31
0.0
  0
LINE
  5
121
330
11E
100
AcDbEntity
  8
Default
  6
Continuous
 62
     7
100
AcDbLine
 10
45.8560352742
 20
196.9020488751
 30
0.0
 11
45.8560352742
 21
199.9020488751
 31
0.0
  0
LINE
  5
122
330
11E
100
AcDbEntity
  8
Default
  6
Continuous
 62
     7
100
AcDbLine
 10
42.8560352742
 20
196.9020488751
 30
0.0
 11
45.8560352742
 21
196.9020488751
 31
0.0
  0
LINE
  5
123
330
11E
100
AcDbEntity
  8
Default
  6
Continuous
 62
     7
100
AcDbLine
 10
42.8560352742
 20
199.9020488751
 30
0.0
 11
42.8560352742
 21
196.9020488751
 31
0.0
  0
ENDBLK
  5
125
330
11E
100
AcDbEntity
  8
0
100
AcDbBlockEnd
  0
BLOCK
  5
12C
330
126
100
AcDbEntity
  8
0
100
AcDbBlockBegin
  2
SE24
 70
     0
 10
0.0
 20
0.0
 30
0.0
  3
SE24
  1

  0
LINE
  5
128
330
126
100
AcDbEntity
  8
Default
  6
Continuous
 62
     7
100
AcDbLine
 10
27.8560352742
 20
199.9020488751
 30
0.0
 11
24.8560352742
 21
199.9020488751
 31
0.0
  0
LINE
  5
129
330
126
100
AcDbEntity
  8
Default
  6
Continuous
 62
     7
100
AcDbLine
 10
27.8560352742
 20
196.9020488751
 30
0.0
 11
27.8560352742
 21
199.9020488751
 31
0.0
  0
LINE
  5
12A
330
126
100
AcDbEntity
  8
Default
  6
Continuous
 62
     7
100
AcDbLine
 10
24.8560352742
 20
196.9020488751
 30
0.0
 11
27.8560352742
 21
196.9020488751
 31
0.0
  0
LINE
  5
12B
330
126
100
AcDbEntity
  8
Default
  6
Continuous
 62
     7
100
AcDbLine
 10
24.8560352742
 20
199.9020488751
 30
0.0
 11
24.8560352742
 21
196.9020488751
 31
0.0
  0
ENDBLK
  5
12D
330
126
100
AcDbEntity
  8
0
100
AcDbBlockEnd
  0
BLOCK
  5
134
330
12E
100
AcDbEntity
  8
0
100
AcDbBlockBegin
  2
SE25
 70
     0
 10
0.0
 20
0.0
 30
0.0
  3
SE25
  1

  0
LINE
  5
130
330
12E
100
AcDbEntity
  8
Default
  6
Continuous
 62
     7
100
AcDbLine
 10
36.8560352742
 20
199.9020488751
 30
0.0
 11
33.8560352742
 21
199.9020488751
 31
0.0
  0
LINE
  5
131
330
12E
100
AcDbEntity
  8
Default
  6
Continuous
 62
     7
100
AcDbLine
 10
36.8560352742
 20
196.9020488751
 30
0.0
 11
36.8560352742
 21
199.9020488751
 31
0.0
  0
LINE
  5
132
330
12E
100
AcDbEntity
  8
Default
  6
Continuous
 62
     7
100
AcDbLine
 10
33.8560352742
 20
196.9020488751
 30
0.0
 11
36.8560352742
 21
196.9020488751
 31
0.0
  0
LINE
  5
133
330
12E
100
AcDbEntity
  8
Default
  6
Continuous
 62
     7
100
AcDbLine
 10
33.8560352742
 20
199.9020488751
 30
0.0
 11
33.8560352742
 21
196.9020488751
 31
0.0
  0
ENDBLK
  5
135
330
12E
100
AcDbEntity
  8
0
100
AcDbBlockEnd
  0
BLOCK
  5
13C
330
136
100
AcDbEntity
  8
0
100
AcDbBlockBegin
  2
SE26
 70
     0
 10
0.0
 20
0.0
 30
0.0
  3
SE26
  1

  0
LINE
  5
138
330
136
100
AcDbEntity
  8
Default
  6
Continuous
 62
     7
100
AcDbLine
 10
45.8560352742
 20
217.9020488751
 30
0.0
 11
42.8560352742
 21
217.9020488751
 31
0.0
  0
LINE
  5
139
330
136
100
AcDbEntity
  8
Default
  6
Continuous
 62
     7
100
AcDbLine
 10
45.8560352742
 20
214.9020488751
 30
0.0
 11
45.8560352742
 21
217.9020488751
 31
0.0
  0
LINE
  5
13A
330
136
100
AcDbEntity
  8
Default
  6
Continuous
 62
     7
100
AcDbLine
 10
42.8560352742
 20
214.9020488751
 30
0.0
 11
45.8560352742
 21
214.9020488751
 31
0.0
  0
LINE
  5
13B
330
136
100
AcDbEntity
  8
Default
  6
Continuous
 62
     7
100
AcDbLine
 10
42.8560352742
 20
217.9020488751
 30
0.0
 11
42.8560352742
 21
214.9020488751
 31
0.0
  0
ENDBLK
  5
13D
330
136
100
AcDbEntity
  8
0
100
AcDbBlockEnd
  0
BLOCK
  5
144
330
13E
100
AcDbEntity
  8
0
100
AcDbBlockBegin
  2
SE27
 70
     0
 10
0.0
 20
0.0
 30
0.0
  3
SE27
  1

  0
LINE
  5
140
330
13E
100
AcDbEntity
  8
Default
  6
Continuous
 62
     7
100
AcDbLine
 10
27.8560352742
 20
217.9020488751
 30
0.0
 11
24.8560352742
 21
217.9020488751
 31
0.0
  0
LINE
  5
141
330
13E
100
AcDbEntity
  8
Default
  6
Continuous
 62
     7
100
AcDbLine
 10
27.8560352742
 20
214.9020488751
 30
0.0
 11
27.8560352742
 21
217.9020488751
 31
0.0
  0
LINE
  5
142
330
13E
100
AcDbEntity
  8
Default
  6
Continuous
 62
     7
100
AcDbLine
 10
24.8560352742
 20
214.9020488751
 30
0.0
 11
27.8560352742
 21
214.9020488751
 31
0.0
  0
LINE
  5
143
330
13E
100
AcDbEntity
  8
Default
  6
Continuous
 62
     7
100
AcDbLine
 10
24.8560352742
 20
217.9020488751
 30
0.0
 11
24.8560352742
 21
214.9020488751
 31
0.0
  0
ENDBLK
  5
145
330
13E
100
AcDbEntity
  8
0
100
AcDbBlockEnd
  0
BLOCK
  5
14C
330
146
100
AcDbEntity
  8
0
100
AcDbBlockBegin
  2
SE28
 70
     0
 10
0.0
 20
0.0
 30
0.0
  3
SE28
  1

  0
LINE
  5
148
330
146
100
AcDbEntity
  8
Default
  6
Continuous
 62
     7
100
AcDbLine
 10
36.8560352742
 20
217.9020488751
 30
0.0
 11
33.8560352742
 21
217.9020488751
 31
0.0
  0
LINE
  5
149
330
146
100
AcDbEntity
  8
Default
  6
Continuous
 62
     7
100
AcDbLine
 10
36.8560352742
 20
214.9020488751
 30
0.0
 11
36.8560352742
 21
217.9020488751
 31
0.0
  0
LINE
  5
14A
330
146
100
AcDbEntity
  8
Default
  6
Continuous
 62
     7
100
AcDbLine
 10
33.8560352742
 20
214.9020488751
 30
0.0
 11
36.8560352742
 21
214.9020488751
 31
0.0
  0
LINE
  5
14B
330
146
100
AcDbEntity
  8
Default
  6
Continuous
 62
     7
100
AcDbLine
 10
33.8560352742
 20
217.9020488751
 30
0.0
 11
33.8560352742
 21
214.9020488751
 31
0.0
  0
ENDBLK
  5
14D
330
146
100
AcDbEntity
  8
0
100
AcDbBlockEnd
  0
BLOCK
  5
154
330
14E
100
AcDbEntity
  8
0
100
AcDbBlockBegin
  2
SE29
 70
     0
 10
0.0
 20
0.0
 30
0.0
  3
SE29
  1

  0
LINE
  5
150
330
14E
100
AcDbEntity
  8
Default
  6
Continuous
 62
     7
100
AcDbLine
 10
45.8560352742
 20
208.9020488751
 30
0.0
 11
42.8560352742
 21
208.9020488751
 31
0.0
  0
LINE
  5
151
330
14E
100
AcDbEntity
  8
Default
  6
Continuous
 62
     7
100
AcDbLine
 10
45.8560352742
 20
205.9020488751
 30
0.0
 11
45.8560352742
 21
208.9020488751
 31
0.0
  0
LINE
  5
152
330
14E
100
AcDbEntity
  8
Default
  6
Continuous
 62
     7
100
AcDbLine
 10
42.8560352742
 20
205.9020488751
 30
0.0
 11
45.8560352742
 21
205.9020488751
 31
0.0
  0
LINE
  5
153
330
14E
100
AcDbEntity
  8
Default
  6
Continuous
 62
     7
100
AcDbLine
 10
42.8560352742
 20
208.9020488751
 30
0.0
 11
42.8560352742
 21
205.9020488751
 31
0.0
  0
ENDBLK
  5
155
330
14E
100
AcDbEntity
  8
0
100
AcDbBlockEnd
  0
BLOCK
  5
15C
330
156
100
AcDbEntity
  8
0
100
AcDbBlockBegin
  2
SE30
 70
     0
 10
0.0
 20
0.0
 30
0.0
  3
SE30
  1

  0
LINE
  5
158
330
156
100
AcDbEntity
  8
Default
  6
Continuous
 62
     7
100
AcDbLine
 10
27.8560352742
 20
208.9020488751
 30
0.0
 11
24.8560352742
 21
208.9020488751
 31
0.0
  0
LINE
  5
159
330
156
100
AcDbEntity
  8
Default
  6
Continuous
 62
     7
100
AcDbLine
 10
27.8560352742
 20
205.9020488751
 30
0.0
 11
27.8560352742
 21
208.9020488751
 31
0.0
  0
LINE
  5
15A
330
156
100
AcDbEntity
  8
Default
  6
Continuous
 62
     7
100
AcDbLine
 10
24.8560352742
 20
205.9020488751
 30
0.0
 11
27.8560352742
 21
205.9020488751
 31
0.0
  0
LINE
  5
15B
330
156
100
AcDbEntity
  8
Default
  6
Continuous
 62
     7
100
AcDbLine
 10
24.8560352742
 20
208.9020488751
 30
0.0
 11
24.8560352742
 21
205.9020488751
 31
0.0
  0
ENDBLK
  5
15D
330
156
100
AcDbEntity
  8
0
100
AcDbBlockEnd
  0
BLOCK
  5
164
330
15E
100
AcDbEntity
  8
0
100
AcDbBlockBegin
  2
SE31
 70
     0
 10
0.0
 20
0.0
 30
0.0
  3
SE31
  1

  0
LINE
  5
160
330
15E
100
AcDbEntity
  8
Default
  6
Continuous
 62
     7
100
AcDbLine
 10
36.8560352742
 20
208.9020488751
 30
0.0
 11
33.8560352742
 21
208.9020488751
 31
0.0
  0
LINE
  5
161
330
15E
100
AcDbEntity
  8
Default
  6
Continuous
 62
     7
100
AcDbLine
 10
36.8560352742
 20
205.9020488751
 30
0.0
 11
36.8560352742
 21
208.9020488751
 31
0.0
  0
LINE
  5
162
330
15E
100
AcDbEntity
  8
Default
  6
Continuous
 62
     7
100
AcDbLine
 10
33.8560352742
 20
205.9020488751
 30
0.0
 11
36.8560352742
 21
205.9020488751
 31
0.0
  0
LINE
  5
163
330
15E
100
AcDbEntity
  8
Default
  6
Continuous
 62
     7
100
AcDbLine
 10
33.8560352742
 20
208.9020488751
 30
0.0
 11
33.8560352742
 21
205.9020488751
 31
0.0
  0
ENDBLK
  5
165
330
15E
100
AcDbEntity
  8
0
100
AcDbBlockEnd
  0
BLOCK
  5
16C
330
166
100
AcDbEntity
  8
0
100
AcDbBlockBegin
  2
SE32
 70
     0
 10
0.0
 20
0.0
 30
0.0
  3
SE32
  1

  0
LINE
  5
168
330
166
100
AcDbEntity
  8
Default
  6
Continuous
 62
     7
100
AcDbLine
 10
45.8560352742
 20
289.9020488751
 30
0.0
 11
42.8560352742
 21
289.9020488751
 31
0.0
  0
LINE
  5
169
330
166
100
AcDbEntity
  8
Default
  6
Continuous
 62
     7
100
AcDbLine
 10
45.8560352742
 20
286.9020488751
 30
0.0
 11
45.8560352742
 21
289.9020488751
 31
0.0
  0
LINE
  5
16A
330
166
100
AcDbEntity
  8
Default
  6
Continuous
 62
     7
100
AcDbLine
 10
42.8560352742
 20
286.9020488751
 30
0.0
 11
45.8560352742
 21
286.9020488751
 31
0.0
  0
LINE
  5
16B
330
166
100
AcDbEntity
  8
Default
  6
Continuous
 62
     7
100
AcDbLine
 10
42.8560352742
 20
289.9020488751
 30
0.0
 11
42.8560352742
 21
286.9020488751
 31
0.0
  0
ENDBLK
  5
16D
330
166
100
AcDbEntity
  8
0
100
AcDbBlockEnd
  0
BLOCK
  5
174
330
16E
100
AcDbEntity
  8
0
100
AcDbBlockBegin
  2
SE33
 70
     0
 10
0.0
 20
0.0
 30
0.0
  3
SE33
  1

  0
LINE
  5
170
330
16E
100
AcDbEntity
  8
Default
  6
Continuous
 62
     7
100
AcDbLine
 10
27.8560352742
 20
289.9020488751
 30
0.0
 11
24.8560352742
 21
289.9020488751
 31
0.0
  0
LINE
  5
171
330
16E
100
AcDbEntity
  8
Default
  6
Continuous
 62
     7
100
AcDbLine
 10
27.8560352742
 20
286.9020488751
 30
0.0
 11
27.8560352742
 21
289.9020488751
 31
0.0
  0
LINE
  5
172
330
16E
100
AcDbEntity
  8
Default
  6
Continuous
 62
     7
100
AcDbLine
 10
24.8560352742
 20
286.9020488751
 30
0.0
 11
27.8560352742
 21
286.9020488751
 31
0.0
  0
LINE
  5
173
330
16E
100
AcDbEntity
  8
Default
  6
Continuous
 62
     7
100
AcDbLine
 10
24.8560352742
 20
289.9020488751
 30
0.0
 11
24.8560352742
 21
286.9020488751
 31
0.0
  0
ENDBLK
  5
175
330
16E
100
AcDbEntity
  8
0
100
AcDbBlockEnd
  0
BLOCK
  5
17C
330
176
100
AcDbEntity
  8
0
100
AcDbBlockBegin
  2
SE34
 70
     0
 10
0.0
 20
0.0
 30
0.0
  3
SE34
  1

  0
LINE
  5
178
330
176
100
AcDbEntity
  8
Default
  6
Continuous
 62
     7
100
AcDbLine
 10
36.8560352742
 20
289.9020488751
 30
0.0
 11
33.8560352742
 21
289.9020488751
 31
0.0
  0
LINE
  5
179
330
176
100
AcDbEntity
  8
Default
  6
Continuous
 62
     7
100
AcDbLine
 10
36.8560352742
 20
286.9020488751
 30
0.0
 11
36.8560352742
 21
289.9020488751
 31
0.0
  0
LINE
  5
17A
330
176
100
AcDbEntity
  8
Default
  6
Continuous
 62
     7
100
AcDbLine
 10
33.8560352742
 20
286.9020488751
 30
0.0
 11
36.8560352742
 21
286.9020488751
 31
0.0
  0
LINE
  5
17B
330
176
100
AcDbEntity
  8
Default
  6
Continuous
 62
     7
100
AcDbLine
 10
33.8560352742
 20
289.9020488751
 30
0.0
 11
33.8560352742
 21
286.9020488751
 31
0.0
  0
ENDBLK
  5
17D
330
176
100
AcDbEntity
  8
0
100
AcDbBlockEnd
  0
BLOCK
  5
184
330
17E
100
AcDbEntity
  8
0
100
AcDbBlockBegin
  2
SE35
 70
     0
 10
0.0
 20
0.0
 30
0.0
  3
SE35
  1

  0
LINE
  5
180
330
17E
100
AcDbEntity
  8
Default
  6
Continuous
 62
     7
100
AcDbLine
 10
45.8560352742
 20
280.9020488751
 30
0.0
 11
42.8560352742
 21
280.9020488751
 31
0.0
  0
LINE
  5
181
330
17E
100
AcDbEntity
  8
Default
  6
Continuous
 62
     7
100
AcDbLine
 10
45.8560352742
 20
277.9020488751
 30
0.0
 11
45.8560352742
 21
280.9020488751
 31
0.0
  0
LINE
  5
182
330
17E
100
AcDbEntity
  8
Default
  6
Continuous
 62
     7
100
AcDbLine
 10
42.8560352742
 20
277.9020488751
 30
0.0
 11
45.8560352742
 21
277.9020488751
 31
0.0
  0
LINE
  5
183
330
17E
100
AcDbEntity
  8
Default
  6
Continuous
 62
     7
100
AcDbLine
 10
42.8560352742
 20
280.9020488751
 30
0.0
 11
42.8560352742
 21
277.9020488751
 31
0.0
  0
ENDBLK
  5
185
330
17E
100
AcDbEntity
  8
0
100
AcDbBlockEnd
  0
BLOCK
  5
18C
330
186
100
AcDbEntity
  8
0
100
AcDbBlockBegin
  2
SE36
 70
     0
 10
0.0
 20
0.0
 30
0.0
  3
SE36
  1

  0
LINE
  5
188
330
186
100
AcDbEntity
  8
Default
  6
Continuous
 62
     7
100
AcDbLine
 10
27.8560352742
 20
280.9020488751
 30
0.0
 11
24.8560352742
 21
280.9020488751
 31
0.0
  0
LINE
  5
189
330
186
100
AcDbEntity
  8
Default
  6
Continuous
 62
     7
100
AcDbLine
 10
27.8560352742
 20
277.9020488751
 30
0.0
 11
27.8560352742
 21
280.9020488751
 31
0.0
  0
LINE
  5
18A
330
186
100
AcDbEntity
  8
Default
  6
Continuous
 62
     7
100
AcDbLine
 10
24.8560352742
 20
277.9020488751
 30
0.0
 11
27.8560352742
 21
277.9020488751
 31
0.0
  0
LINE
  5
18B
330
186
100
AcDbEntity
  8
Default
  6
Continuous
 62
     7
100
AcDbLine
 10
24.8560352742
 20
280.9020488751
 30
0.0
 11
24.8560352742
 21
277.9020488751
 31
0.0
  0
ENDBLK
  5
18D
330
186
100
AcDbEntity
  8
0
100
AcDbBlockEnd
  0
ENDSEC
  0
SECTION
  2
ENTITIES
  0
ARC
  5
3C
330
1F
100
AcDbEntity
  8
Default
  6
Continuous
 62
     7
100
AcDbCircle
 10
53.3560352742
 20
198.4020488751
 30
0.0
 40
4.500000000000001
100
AcDbArc
 50
270.0
 51
0.0
  0
LINE
  5
3D
330
1F
100
AcDbEntity
  8
Default
  6
Continuous
 62
     7
100
AcDbLine
 10
17.3560352742
 20
193.9020488751
 30
0.0
 11
53.3560352742
 21
193.9020488751
 31
0.0
  0
ARC
  5
3E
330
1F
100
AcDbEntity
  8
Default
  6
Continuous
 62
     7
100
AcDbCircle
 10
17.3560352742
 20
198.4020488751
 30
0.0
 40
4.500000000000001
100
AcDbArc
 50
180.0
 51
270.0
  0
ARC
  5
3F
330
1F
100
AcDbEntity
  8
Default
  6
Continuous
 62
     7
100
AcDbCircle
 10
53.3560352742
 20
288.4020488751
 30
0.0
 40
4.500000000000001
100
AcDbArc
 50
0.0
 51
90.0
  0
LINE
  5
40
330
1F
100
AcDbEntity
  8
Default
  6
Continuous
 62
     7
100
AcDbLine
 10
57.8560352742
 20
198.4020488751
 30
0.0
 11
57.8560352742
 21
288.4020488751
 31
0.0
  0
LINE
  5
41
330
1F
100
AcDbEntity
  8
Default
  6
Continuous
 62
     7
100
AcDbLine
 10
53.3560352742
 20
292.9020488751
 30
0.0
 11
17.3560352742
 21
292.9020488751
 31
0.0
  0
LINE
  5
42
330
1F
100
AcDbEntity
  8
Default
  6
Continuous
 62
     7
100
AcDbLine
 10
12.8560352742
 20
288.4020488751
 30
0.0
 11
12.8560352742
 21
198.4020488751
 31
0.0
  0
ARC
  5
43
330
1F
100
AcDbEntity
  8
Default
  6
Continuous
 62
     7
100
AcDbCircle
 10
17.3560352742
 20
288.4020488751
 30
0.0
 40
4.500000000000001
100
AcDbArc
 50
90.0
 51
180.0
  0
INSERT
  5
45
330
1F
100
AcDbEntity
  8
Default
100
AcDbBlockReference
  2
SE
 10
0.0
 20
0.0
 30
0.0
  0
INSERT
  5
6F
330
1F
100
AcDbEntity
  8
Default
100
AcDbBlockReference
  2
SE1
 10
0.0
 20
0.0
 30
0.0
  0
INSERT
  5
77
330
1F
100
AcDbEntity
  8
Default
100
AcDbBlockReference
  2
SE2
 10
0.0
 20
0.0
 30
0.0
  0
INSERT
  5
7F
330
1F
100
AcDbEntity
  8
Default
100
AcDbBlockReference
  2
SE3
 10
0.0
 20
0.0
 30
0.0
  0
INSERT
  5
87
330
1F
100
AcDbEntity
  8
Default
100
AcDbBlockReference
  2
SE4
 10
0.0
 20
0.0
 30
0.0
  0
INSERT
  5
8F
330
1F
100
AcDbEntity
  8
Default
100
AcDbBlockReference
  2
SE5
 10
0.0
 20
0.0
 30
0.0
  0
INSERT
  5
97
330
1F
100
AcDbEntity
  8
Default
100
AcDbBlockReference
  2
SE6
 10
0.0
 20
0.0
 30
0.0
  0
INSERT
  5
9F
330
1F
100
AcDbEntity
  8
Default
100
AcDbBlockReference
  2
SE7
 10
0.0
 20
0.0
 30
0.0
  0
INSERT
  5
A7
330
1F
100
AcDbEntity
  8
Default
100
AcDbBlockReference
  2
SE8
 10
0.0
 20
0.0
 30
0.0
  0
INSERT
  5
AF
330
1F
100
AcDbEntity
  8
Default
100
AcDbBlockReference
  2
SE9
 10
0.0
 20
0.0
 30
0.0
  0
INSERT
  5
B7
330
1F
100
AcDbEntity
  8
Default
100
AcDbBlockReference
  2
SE10
 10
0.0
 20
0.0
 30
0.0
  0
INSERT
  5
BF
330
1F
100
AcDbEntity
  8
Default
100
AcDbBlockReference
  2
SE11
 10
0.0
 20
0.0
 30
0.0
  0
INSERT
  5
C7
330
1F
100
AcDbEntity
  8
Default
100
AcDbBlockReference
  2
SE12
 10
0.0
 20
0.0
 30
0.0
  0
INSERT
  5
CF
330
1F
100
AcDbEntity
  8
Default
100
AcDbBlockReference
  2
SE13
 10
0.0
 20
0.0
 30
0.0
  0
INSERT
  5
D7
330
1F
100
AcDbEntity
  8
Default
100
AcDbBlockReference
  2
SE14
 10
0.0
 20
0.0
 30
0.0
  0
INSERT
  5
DF
330
1F
100
AcDbEntity
  8
Default
100
AcDbBlockReference
  2
SE15
 10
0.0
 20
0.0
 30
0.0
  0
INSERT
  5
E7
330
1F
100
AcDbEntity
  8
Default
100
AcDbBlockReference
  2
SE16
 10
0.0
 20
0.0
 30
0.0
  0
INSERT
  5
EF
330
1F
100
AcDbEntity
  8
Default
100
AcDbBlockReference
  2
SE17
 10
0.0
 20
0.0
 30
0.0
  0
INSERT
  5
F7
330
1F
100
AcDbEntity
  8
Default
100
AcDbBlockReference
  2
SE18
 10
0.0
 20
0.0
 30
0.0
  0
INSERT
  5
FF
330
1F
100
AcDbEntity
  8
Default
100
AcDbBlockReference
  2
SE19
 10
0.0
 20
0.0
 30
0.0
  0
INSERT
  5
107
330
1F
100
AcDbEntity
  8
Default
100
AcDbBlockReference
  2
SE20
 10
0.0
 20
0.0
 30
0.0
  0
INSERT
  5
10F
330
1F
100
AcDbEntity
  8
Default
100
AcDbBlockReference
  2
SE21
 10
0.0
 20
0.0
 30
0.0
  0
INSERT
  5
117
330
1F
100
AcDbEntity
  8
Default
100
AcDbBlockReference
  2
SE22
 10
0.0
 20
0.0
 30
0.0
  0
INSERT
  5
11F
330
1F
100
AcDbEntity
  8
Default
100
AcDbBlockReference
  2
SE23
 10
0.0
 20
0.0
 30
0.0
  0
INSERT
  5
127
330
1F
100
AcDbEntity
  8
Default
100
AcDbBlockReference
  2
SE24
 10
0.0
 20
0.0
 30
0.0
  0
INSERT
  5
12F
330
1F
100
AcDbEntity
  8
Default
100
AcDbBlockReference
  2
SE25
 10
0.0
 20
0.0
 30
0.0
  0
INSERT
  5
137
330
1F
100
AcDbEntity
  8
Default
100
AcDbBlockReference
  2
SE26
 10
0.0
 20
0.0
 30
0.0
  0
INSERT
  5
13F
330
1F
100
AcDbEntity
  8
Default
100
AcDbBlockReference
  2
SE27
 10
0.0
 20
0.0
 30
0.0
  0
INSERT
  5
147
330
1F
100
AcDbEntity
  8
Default
100
AcDbBlockReference
  2
SE28
 10
0.0
 20
0.0
 30
0.0
  0
INSERT
  5
14F
330
1F
100
AcDbEntity
  8
Default
100
AcDbBlockReference
  2
SE29
 10
0.0
 20
0.0
 30
0.0
  0
INSERT
  5
157
330
1F
100
AcDbEntity
  8
Default
100
AcDbBlockReference
  2
SE30
 10
0.0
 20
0.0
 30
0.0
  0
INSERT
  5
15F
330
1F
100
AcDbEntity
  8
Default
100
AcDbBlockReference
  2
SE31
 10
0.0
 20
0.0
 30
0.0
  0
INSERT
  5
167
330
1F
100
AcDbEntity
  8
Default
100
AcDbBlockReference
  2
SE32
 10
0.0
 20
0.0
 30
0.0
  0
INSERT
  5
16F
330
1F
100
AcDbEntity
  8
Default
100
AcDbBlockReference
  2
SE33
 10
0.0
 20
0.0
 30
0.0
  0
INSERT
  5
177
330
1F
100
AcDbEntity
  8
Default
100
AcDbBlockReference
  2
SE34
 10
0.0
 20
0.0
 30
0.0
  0
INSERT
  5
17F
330
1F
100
AcDbEntity
  8
Default
100
AcDbBlockReference
  2
SE35
 10
0.0
 20
0.0
 30
0.0
  0
INSERT
  5
187
330
1F
100
AcDbEntity
  8
Default
100
AcDbBlockReference
  2
SE36
 10
0.0
 20
0.0
 30
0.0
  0
ENDSEC
  0
SECTION
  2
OBJECTS
  0
DICTIONARY
  5
C
330
0
100
AcDbDictionary
281
     1
  3
ACAD_GROUP
350
D
  3
ACAD_LAYOUT
350
1A
  3
ACAD_MLEADERSTYLE
350
190
  3
ACAD_MLINESTYLE
350
17
  3
ACAD_PLOTSETTINGS
350
19
  3
ACAD_PLOTSTYLENAME
350
E
  3
ACAD_VISUALSTYLE
350
2A
  3
AcDbVariableDictionary
350
18E
  0
DICTIONARY
  5
D
102
{ACAD_REACTORS
330
C
102
}
330
C
100
AcDbDictionary
281
     1
  0
DICTIONARY
  5
1A
102
{ACAD_REACTORS
330
C
102
}
330
C
100
AcDbDictionary
281
     1
  3
Layout1
350
1E
  3
Model
350
22
  0
DICTIONARY
  5
190
102
{ACAD_REACTORS
330
C
102
}
330
C
100
AcDbDictionary
281
     1
  0
DICTIONARY
  5
17
102
{ACAD_REACTORS
330
C
102
}
330
C
100
AcDbDictionary
281
     1
  3
Standard
350
18
  0
DICTIONARY
  5
19
102
{ACAD_REACTORS
330
C
102
}
330
C
100
AcDbDictionary
281
     1
  0
ACDBDICTIONARYWDFLT
  5
E
102
{ACAD_REACTORS
330
C
102
}
330
C
100
AcDbDictionary
281
     1
  3
Normal
350
F
100
AcDbDictionaryWithDefault
340
F
  0
DICTIONARY
  5
2A
102
{ACAD_REACTORS
330
C
102
}
330
C
100
AcDbDictionary
281
     1
  3
2dWireframe
350
2F
  3
3D Hidden
350
31
  3
3dWireframe
350
30
  3
Basic
350
32
  3
Brighten
350
36
  3
ColorChange
350
3A
  3
Conceptual
350
34
  3
Dim
350
35
  3
Facepattern
350
39
  3
Flat
350
2B
  3
FlatWithEdges
350
2C
  3
Gouraud
350
2D
  3
GouraudWithEdges
350
2E
  3
Linepattern
350
38
  3
Realistic
350
33
  3
Thicken
350
37
  0
DICTIONARY
  5
18E
102
{ACAD_REACTORS
330
C
102
}
330
C
100
AcDbDictionary
281
     1
  3
PSOLHEIGHT
350
192
  3
PSOLWIDTH
350
191
  0
LAYOUT
  5
1E
102
{ACAD_REACTORS
330
1A
102
}
330
1A
100
AcDbPlotSettings
  1

  2
none_device
  4

  6

 40
0.0
 41
0.0
 42
0.0
 43
0.0
 44
0.0
 45
0.0
 46
0.0
 47
0.0
 48
0.0
 49
0.0
140
0.0
141
0.0
142
1.0
143
1.0
 70
   688
 72
     0
 73
     0
 74
     5
  7

 75
    16
147
1.0
148
0.0
149
0.0
100
AcDbLayout
  1
Layout1
 70
     1
 71
     1
 10
0.0
 20
0.0
 11
450.0
 21
300.0
 12
0.0
 22
0.0
 32
0.0
 14
0.0
 24
0.0
 34
0.0
 15
450.0
 25
300.0
 35
0.0
146
0.0
 13
0.0
 23
0.0
 33
0.0
 16
1.0
 26
0.0
 36
0.0
 17
0.0
 27
1.0
 37
0.0
 76
     0
330
1B
  0
LAYOUT
  5
22
102
{ACAD_REACTORS
330
1A
102
}
330
1A
100
AcDbPlotSettings
  1

  2
none_device
  4

  6

 40
0.0
 41
0.0
 42
0.0
 43
0.0
 44
0.0
 45
0.0
 46
0.0
 47
0.0
 48
0.0
 49
0.0
140
0.0
141
0.0
142
1.0
143
1.0
 70
  1712
 72
     0
 73
     0
 74
     0
  7

 75
     0
147
1.0
148
0.0
149
0.0
100
AcDbLayout
  1
Model
 70
     1
 71
     0
 10
0.0
 20
0.0
 11
450.0
 21
300.0
 12
0.0
 22
0.0
 32
0.0
 14
0.0
 24
0.0
 34
0.0
 15
450.0
 25
300.0
 35
0.0
146
0.0
 13
0.0
 23
0.0
 33
0.0
 16
1.0
 26
0.0
 36
0.0
 17
0.0
 27
1.0
 37
0.0
 76
     0
330
1F
331
29
  0
MLINESTYLE
  5
18
102
{ACAD_REACTORS
330
17
102
}
330
17
100
AcDbMlineStyle
  2
Standard
 70
     0
  3

 62
   256
 51
90.0
 52
90.0
 71
     2
 49
0.5
 62
   256
  6
BYLAYER
 49
-0.5
 62
   256
  6
BYLAYER
  0
ACDBPLACEHOLDER
  5
F
102
{ACAD_REACTORS
330
E
102
}
330
E
  0
VISUALSTYLE
  5
2F
102
{ACAD_REACTORS
330
2A
102
}
330
2A
100
AcDbVisualStyle
  2
2dWireframe
 70
     4
 71
     0
 72
     2
 73
     0
 90
        0
 40
-0.6
 41
-30.0
 62
     5
 63
     7
 74
     1
 91
        4
 64
     7
 65
   257
 75
     1
175
     1
 42
1.0
 92
        0
 66
   257
 43
1.0
 76
     1
 77
     6
 78
     2
 67
     7
 79
     5
170
     0
171
     0
290
     0
174
     0
 93
        1
 44
0.0
173
     0
291
     0
 45
0.0
1001
ACAD
1000
AcDbSavedByObjectVersion
1070
     0
  0
VISUALSTYLE
  5
31
102
{ACAD_REACTORS
330
2A
102
}
330
2A
100
AcDbVisualStyle
  2
3D Hidden
 70
     6
 71
     1
 72
     2
 73
     2
 90
        0
 40
-0.6
 41
-30.0
 62
     5
 63
     7
 74
     2
 91
        2
 64
     7
 65
   257
 75
     2
175
     1
 42
40.0
 92
        0
 66
   257
 43
1.0
 76
     1
 77
     6
 78
     2
 67
     7
 79
     3
170
     0
171
     0
290
     0
174
     0
 93
        1
 44
0.0
173
     0
291
     0
 45
0.0
1001
ACAD
1000
AcDbSavedByObjectVersion
1070
     0
  0
VISUALSTYLE
  5
30
102
{ACAD_REACTORS
330
2A
102
}
330
2A
100
AcDbVisualStyle
  2
3dWireframe
 70
     5
 71
     0
 72
     2
 73
     0
 90
        0
 40
-0.6
 41
-30.0
 62
     5
 63
     7
 74
     1
 91
        4
 64
     7
 65
   257
 75
     1
175
     1
 42
1.0
 92
        0
 66
   257
 43
1.0
 76
     1
 77
     6
 78
     2
 67
     7
 79
     5
170
     0
171
     0
290
     0
174
     0
 93
        1
 44
0.0
173
     0
291
     0
 45
0.0
1001
ACAD
1000
AcDbSavedByObjectVersion
1070
     0
  0
VISUALSTYLE
  5
32
102
{ACAD_REACTORS
330
2A
102
}
330
2A
100
AcDbVisualStyle
  2
Basic
 70
     7
 71
     1
 72
     0
 73
     1
 90
        0
 40
-0.6
 41
-30.0
 62
     5
 63
     7
 74
     0
 91
        4
 64
     7
 65
   257
 75
     1
175
     1
 42
1.0
 92
        8
 66
     7
 43
1.0
 76
     1
 77
     6
 78
     2
 67
     7
 79
     5
170
     0
171
     0
290
     0
174
     0
 93
        1
 44
0.0
173
     0
291
     1
 45
0.0
1001
ACAD
1000
AcDbSavedByObjectVersion
1070
     0
  0
VISUALSTYLE
  5
36
102
{ACAD_REACTORS
330
2A
102
}
330
2A
100
AcDbVisualStyle
  2
Brighten
 70
    12
 71
     2
 72
     2
 73
     0
 90
        0
 40
-0.6
 41
-30.0
 62
     5
 63
     7
 74
     1
 91
        4
 64
     7
 65
   257
 75
     1
175
     1
 42
1.0
 92
        8
 66
     7
 43
1.0
 76
     1
 77
     6
 78
     2
 67
     7
 79
     5
170
     0
171
     0
290
     0
174
     0
 93
        1
 44
50.0
173
     0
291
     1
 45
0.0
1001
ACAD
1000
AcDbSavedByObjectVersion
1070
     0
  0
VISUALSTYLE
  5
3A
102
{ACAD_REACTORS
330
2A
102
}
330
2A
100
AcDbVisualStyle
  2
ColorChange
 70
    16
 71
     2
 72
     2
 73
     3
 90
        0
 40
-0.6
 41
-30.0
 62
     5
 63
     8
 74
     1
 91
        4
 64
     7
 65
   257
 75
     1
175
     1
 42
1.0
 92
        8
 66
     8
 43
1.0
 76
     1
 77
     6
 78
     2
 67
     7
 79
     5
170
     0
171
     0
290
     0
174
     0
 93
        1
 44
0.0
173
     0
291
     1
 45
0.0
1001
ACAD
1000
AcDbSavedByObjectVersion
1070
     0
  0
VISUALSTYLE
  5
34
102
{ACAD_REACTORS
330
2A
102
}
330
2A
100
AcDbVisualStyle
  2
Conceptual
 70
     9
 71
     3
 72
     2
 73
     0
 90
        0
 40
-0.6
 41
-30.0
 62
     5
 63
     7
 74
     2
 91
        2
 64
     7
 65
   257
 75
     1
175
     1
 42
40.0
 92
        8
 66
     7
 43
1.0
 76
     1
 77
     6
 78
     2
 67
     7
 79
     3
170
     0
171
     0
290
     0
174
     0
 93
        1
 44
0.0
173
     0
291
     0
 45
0.0
1001
ACAD
1000
AcDbSavedByObjectVersion
1070
     0
  0
VISUALSTYLE
  5
35
102
{ACAD_REACTORS
330
2A
102
}
330
2A
100
AcDbVisualStyle
  2
Dim
 70
    11
 71
     2
 72
     2
 73
     0
 90
        0
 40
-0.6
 41
-30.0
 62
     5
 63
     7
 74
     1
 91
        4
 64
     7
 65
   257
 75
     1
175
     1
 42
1.0
 92
        8
 66
     7
 43
1.0
 76
     1
 77
     6
 78
     2
 67
     7
 79
     5
170
     0
171
     0
290
     0
174
     0
 93
        1
 44
-50.0
173
     0
291
     1
 45
0.0
1001
ACAD
1000
AcDbSavedByObjectVersion
1070
     0
  0
VISUALSTYLE
  5
39
102
{ACAD_REACTORS
330
2A
102
}
330
2A
100
AcDbVisualStyle
  2
Facepattern
 70
    15
 71
     2
 72
     2
 73
     0
 90
        0
 40
-0.6
 41
-30.0
 62
     5
 63
     7
 74
     1
 91
        4
 64
     7
 65
   257
 75
     1
175
     1
 42
1.0
 92
        8
 66
     7
 43
1.0
 76
     1
 77
     6
 78
     2
 67
     7
 79
     5
170
     0
171
     0
290
     0
174
     0
 93
        1
 44
0.0
173
     0
291
     1
 45
0.0
1001
ACAD
1000
AcDbSavedByObjectVersion
1070
     0
  0
VISUALSTYLE
  5
2B
102
{ACAD_REACTORS
330
2A
102
}
330
2A
100
AcDbVisualStyle
  2
Flat
 70
     0
 71
     2
 72
     1
 73
     1
 90
        2
 40
-0.6
 41
30.0
 62
     5
 63
     7
 74
     0
 91
        4
 64
     7
 65
   257
 75
     1
175
     1
 42
1.0
 92
        8
 66
     7
 43
1.0
 76
     1
 77
     6
 78
     2
 67
     7
 79
     5
170
     0
171
     0
290
     0
174
     0
 93
       13
 44
0.0
173
     0
291
     1
 45
0.0
1001
ACAD
1000
AcDbSavedByObjectVersion
1070
     0
  0
VISUALSTYLE
  5
2C
102
{ACAD_REACTORS
330
2A
102
}
330
2A
100
AcDbVisualStyle
  2
FlatWithEdges
 70
     1
 71
     2
 72
     1
 73
     1
 90
        2
 40
-0.6
 41
30.0
 62
     5
 63
     7
 74
     1
 91
        4
 64
     7
 65
   257
 75
     1
175
     1
 42
1.0
 92
        0
 66
   257
 43
1.0
 76
     1
 77
     6
 78
     2
 67
     7
 79
     5
170
     0
171
     0
290
     0
174
     0
 93
       13
 44
0.0
173
     0
291
     1
 45
0.0
1001
ACAD
1000
AcDbSavedByObjectVersion
1070
     0
  0
VISUALSTYLE
  5
2D
102
{ACAD_REACTORS
330
2A
102
}
330
2A
100
AcDbVisualStyle
  2
Gouraud
 70
     2
 71
     2
 72
     2
 73
     1
 90
        2
 40
-0.6
 41
30.0
 62
     5
 63
     7
 74
     0
 91
        4
 64
     7
 65
   257
 75
     1
175
     1
 42
1.0
 92
        0
 66
     7
 43
1.0
 76
     1
 77
     6
 78
     2
 67
     7
 79
     5
170
     0
171
     0
290
     0
174
     0
 93
       13
 44
0.0
173
     0
291
     1
 45
0.0
1001
ACAD
1000
AcDbSavedByObjectVersion
1070
     0
  0
VISUALSTYLE
  5
2E
102
{ACAD_REACTORS
330
2A
102
}
330
2A
100
AcDbVisualStyle
  2
GouraudWithEdges
 70
     3
 71
     2
 72
     2
 73
     1
 90
        2
 40
-0.6
 41
30.0
 62
     5
 63
     7
 74
     1
 91
        4
 64
     7
 65
   257
 75
     1
175
     1
 42
1.0
 92
        0
 66
   257
 43
1.0
 76
     1
 77
     6
 78
     2
 67
     7
 79
     5
170
     0
171
     0
290
     0
174
     0
 93
       13
 44
0.0
173
     0
291
     1
 45
0.0
1001
ACAD
1000
AcDbSavedByObjectVersion
1070
     0
  0
VISUALSTYLE
  5
38
102
{ACAD_REACTORS
330
2A
102
}
330
2A
100
AcDbVisualStyle
  2
Linepattern
 70
    14
 71
     2
 72
     2
 73
     0
 90
        0
 40
-0.6
 41
-30.0
 62
     5
 63
     7
 74
     1
 91
        4
 64
     7
 65
   257
 75
     7
175
     7
 42
1.0
 92
        8
 66
     7
 43
1.0
 76
     1
 77
     6
 78
     2
 67
     7
 79
     5
170
     0
171
     0
290
     0
174
     0
 93
        1
 44
0.0
173
     0
291
     1
 45
0.0
1001
ACAD
1000
AcDbSavedByObjectVersion
1070
     0
  0
VISUALSTYLE
  5
33
102
{ACAD_REACTORS
330
2A
102
}
330
2A
100
AcDbVisualStyle
  2
Realistic
 70
     8
 71
     2
 72
     2
 73
     0
 90
        0
 40
-0.6
 41
-30.0
 62
     5
 63
     7
 74
     1
 91
        0
 64
     7
 65
   257
 75
     1
175
     1
 42
1.0
 92
        8
 66
     8
 43
1.0
 76
     1
 77
     6
 78
     2
 67
     7
 79
     5
170
     0
171
     0
290
     0
174
     0
 93
       13
 44
0.0
173
     0
291
     0
 45
0.0
1001
ACAD
1000
AcDbSavedByObjectVersion
1070
     0
  0
VISUALSTYLE
  5
37
102
{ACAD_REACTORS
330
2A
102
}
330
2A
100
AcDbVisualStyle
  2
Thicken
 70
    13
 71
     2
 72
     2
 73
     0
 90
        0
 40
-0.6
 41
-30.0
 62
     5
 63
     7
 74
     1
 91
        4
 64
     7
 65
   257
 75
     1
175
     1
 42
1.0
 92
       12
 66
     7
 43
1.0
 76
     1
 77
     6
 78
     2
 67
     7
 79
     5
170
     0
171
     0
290
     0
174
     0
 93
        1
 44
0.0
173
     0
291
     1
 45
0.0
1001
ACAD
1000
AcDbSavedByObjectVersion
1070
     0
  0
DICTIONARYVAR
  5
192
102
{ACAD_REACTORS
330
18E
102
}
330
18E
100
DictionaryVariables
280
     0
  1
80.000000
  0
DICTIONARYVAR
  5
191
102
{ACAD_REACTORS
330
18E
102
}
330
18E
100
DictionaryVariables
280
     0
  1
5.000000
  0
ENDSEC
  0
EOF
