  0
SECTION
  2
HEADER
  9
$ACADVER
  1
AC1015
  9
$ACADMAINTVER
 70
     6
  9
$DWGCODEPAGE
  3
ANSI_1252
  9
$INSBASE
 10
0.0
 20
0.0
 30
0.0
  9
$EXTMIN
 10
0.0
 20
0.0
 30
0.0
  9
$EXTMAX
 10
594.0
 20
420.0
 30
0.0
  9
$LIMMIN
 10
0.0
 20
0.0
  9
$LIMMAX
 10
594.0
 20
420.0
  9
$ORTHOMODE
 70
     0
  9
$REGENMODE
 70
     1
  9
$FILLMODE
 70
     1
  9
$QTEXTMODE
 70
     0
  9
$MIRRTEXT
 70
     1
  9
$LTSCALE
 40
1.0
  9
$ATTMODE
 70
     1
  9
$TEXTSIZE
 40
2.5
  9
$TRACEWID
 40
1.0
  9
$TEXTSTYLE
  7
Standard
  9
$CLAYER
  8
0
  9
$CELTYPE
  6
ByLayer
  9
$CECOLOR
 62
   256
  9
$CELTSCALE
 40
1.0
  9
$DISPSILH
 70
     0
  9
$DIMSCALE
 40
1.0
  9
$DIMASZ
 40
2.5
  9
$DIMEXO
 40
0.625
  9
$DIMDLI
 40
3.75
  9
$DIMRND
 40
0.0
  9
$DIMDLE
 40
0.0
  9
$DIMEXE
 40
1.25
  9
$DIMTP
 40
0.0
  9
$DIMTM
 40
0.0
  9
$DIMTXT
 40
2.5
  9
$DIMCEN
 40
2.5
  9
$DIMTSZ
 40
0.0
  9
$DIMTOL
 70
     0
  9
$DIMLIM
 70
     0
  9
$DIMTIH
 70
     0
  9
$DIMTOH
 70
     0
  9
$DIMSE1
 70
     0
  9
$DIMSE2
 70
     0
  9
$DIMTAD
 70
     1
  9
$DIMZIN
 70
     8
  9
$DIMBLK
  1

  9
$DIMASO
 70
     1
  9
$DIMSHO
 70
     1
  9
$DIMPOST
  1

  9
$DIMAPOST
  1

  9
$DIMALT
 70
     0
  9
$DIMALTD
 70
     3
  9
$DIMALTF
 40
0.0393700787
  9
$DIMLFAC
 40
1.0
  9
$DIMTOFL
 70
     1
  9
$DIMTVP
 40
0.0
  9
$DIMTIX
 70
     0
  9
$DIMSOXD
 70
     0
  9
$DIMSAH
 70
     0
  9
$DIMBLK1
  1

  9
$DIMBLK2
  1

  9
$DIMSTYLE
  2
ISO-25
  9
$DIMCLRD
 70
     0
  9
$DIMCLRE
 70
     0
  9
$DIMCLRT
 70
     0
  9
$DIMTFAC
 40
1.0
  9
$DIMGAP
 40
0.625
  9
$DIMJUST
 70
     0
  9
$DIMSD1
 70
     0
  9
$DIMSD2
 70
     0
  9
$DIMTOLJ
 70
     0
  9
$DIMTZIN
 70
     8
  9
$DIMALTZ
 70
     0
  9
$DIMALTTZ
 70
     0
  9
$DIMUPT
 70
     0
  9
$DIMDEC
 70
     2
  9
$DIMTDEC
 70
     2
  9
$DIMALTU
 70
     2
  9
$DIMALTTD
 70
     3
  9
$DIMTXSTY
  7
Standard
  9
$DIMAUNIT
 70
     0
  9
$DIMADEC
 70
     0
  9
$DIMALTRND
 40
0.0
  9
$DIMAZIN
 70
     0
  9
$DIMDSEP
 70
    44
  9
$DIMATFIT
 70
     3
  9
$DIMFRAC
 70
     0
  9
$DIMLDRBLK
  1

  9
$DIMLUNIT
 70
     2
  9
$DIMLWD
 70
    -2
  9
$DIMLWE
 70
    -2
  9
$DIMTMOVE
 70
     0
  9
$LUNITS
 70
     2
  9
$LUPREC
 70
     4
  9
$SKETCHINC
 40
1.0
  9
$FILLETRAD
 40
10.0
  9
$AUNITS
 70
     0
  9
$AUPREC
 70
     0
  9
$MENU
  1
.
  9
$ELEVATION
 40
0.0
  9
$PELEVATION
 40
0.0
  9
$THICKNESS
 40
0.0
  9
$LIMCHECK
 70
     0
  9
$CHAMFERA
 40
10.0
  9
$CHAMFERB
 40
10.0
  9
$CHAMFERC
 40
20.0
  9
$CHAMFERD
 40
0.0
  9
$SKPOLY
 70
     0
  9
$TDCREATE
 40
2456220.003255741
  9
$TDUCREATE
 40
2456220.128255741
  9
$TDUPDATE
 40
2456220.003255752
  9
$TDUUPDATE
 40
2456220.128255752
  9
$TDINDWG
 40
0.0000000116
  9
$TDUSRTIMER
 40
0.0000000116
  9
$USRTIMER
 70
     1
  9
$ANGBASE
 50
0.0
  9
$ANGDIR
 70
     0
  9
$PDMODE
 70
     0
  9
$PDSIZE
 40
0.0
  9
$PLINEWID
 40
0.0
  9
$SPLFRAME
 70
     0
  9
$SPLINETYPE
 70
     6
  9
$SPLINESEGS
 70
     8
  9
$HANDSEED
  5
E4
  9
$SURFTAB1
 70
     6
  9
$SURFTAB2
 70
     6
  9
$SURFTYPE
 70
     6
  9
$SURFU
 70
     6
  9
$SURFV
 70
     6
  9
$UCSBASE
  2

  9
$UCSNAME
  2

  9
$UCSORG
 10
0.0
 20
0.0
 30
0.0
  9
$UCSXDIR
 10
1.0
 20
0.0
 30
0.0
  9
$UCSYDIR
 10
0.0
 20
1.0
 30
0.0
  9
$UCSORTHOREF
  2

  9
$UCSORTHOVIEW
 70
     0
  9
$UCSORGTOP
 10
0.0
 20
0.0
 30
0.0
  9
$UCSORGBOTTOM
 10
0.0
 20
0.0
 30
0.0
  9
$UCSORGLEFT
 10
0.0
 20
0.0
 30
0.0
  9
$UCSORGRIGHT
 10
0.0
 20
0.0
 30
0.0
  9
$UCSORGFRONT
 10
0.0
 20
0.0
 30
0.0
  9
$UCSORGBACK
 10
0.0
 20
0.0
 30
0.0
  9
$PUCSBASE
  2

  9
$PUCSNAME
  2

  9
$PUCSORG
 10
0.0
 20
0.0
 30
0.0
  9
$PUCSXDIR
 10
1.0
 20
0.0
 30
0.0
  9
$PUCSYDIR
 10
0.0
 20
1.0
 30
0.0
  9
$PUCSORTHOREF
  2

  9
$PUCSORTHOVIEW
 70
     0
  9
$PUCSORGTOP
 10
0.0
 20
0.0
 30
0.0
  9
$PUCSORGBOTTOM
 10
0.0
 20
0.0
 30
0.0
  9
$PUCSORGLEFT
 10
0.0
 20
0.0
 30
0.0
  9
$PUCSORGRIGHT
 10
0.0
 20
0.0
 30
0.0
  9
$PUCSORGFRONT
 10
0.0
 20
0.0
 30
0.0
  9
$PUCSORGBACK
 10
0.0
 20
0.0
 30
0.0
  9
$USERI1
 70
     0
  9
$USERI2
 70
     0
  9
$USERI3
 70
     0
  9
$USERI4
 70
     0
  9
$USERI5
 70
     0
  9
$USERR1
 40
0.0
  9
$USERR2
 40
0.0
  9
$USERR3
 40
0.0
  9
$USERR4
 40
0.0
  9
$USERR5
 40
0.0
  9
$WORLDVIEW
 70
     1
  9
$SHADEDGE
 70
     3
  9
$SHADEDIF
 70
    70
  9
$TILEMODE
 70
     1
  9
$MAXACTVP
 70
    64
  9
$PINSBASE
 10
0.0
 20
0.0
 30
0.0
  9
$PLIMCHECK
 70
     0
  9
$PEXTMIN
 10
0.0
 20
0.0
 30
0.0
  9
$PEXTMAX
 10
594.0
 20
420.0
 30
0.0
  9
$PLIMMIN
 10
0.0
 20
0.0
  9
$PLIMMAX
 10
594.0
 20
420.0
  9
$UNITMODE
 70
     0
  9
$VISRETAIN
 70
     1
  9
$PLINEGEN
 70
     0
  9
$PSLTSCALE
 70
     1
  9
$TREEDEPTH
 70
  3020
  9
$CMLSTYLE
  2
Standard
  9
$CMLJUST
 70
     0
  9
$CMLSCALE
 40
20.0
  9
$PROXYGRAPHICS
 70
     1
  9
$MEASUREMENT
 70
     1
  9
$CELWEIGHT
370
    -1
  9
$ENDCAPS
280
     0
  9
$JOINSTYLE
280
     0
  9
$LWDISPLAY
290
     0
  9
$INSUNITS
 70
     4
  9
$HYPERLINKBASE
  1

  9
$STYLESHEET
  1

  9
$XEDIT
290
     1
  9
$CEPSNTYPE
380
     0
  9
$PSTYLEMODE
290
     1
  9
$FINGERPRINTGUID
  2
{CD8CAB9E-8704-4F23-8C62-B10533477EDF}
  9
$VERSIONGUID
  2
{FAEB1C32-E019-11D5-929B-00C0DF256EC4}
  9
$EXTNAMES
290
     1
  9
$PSVPSCALE
 40
0.0
  9
$OLESTARTUP
290
     0
  0
ENDSEC
  0
SECTION
  2
CLASSES
  0
CLASS
  1
ACDBDICTIONARYWDFLT
  2
AcDbDictionaryWithDefault
  3
ObjectDBX Classes
 90
        0
280
     0
281
     0
  0
CLASS
  1
VISUALSTYLE
  2
AcDbVisualStyle
  3
ObjectDBX Classes
 90
     4095
280
     0
281
     0
  0
CLASS
  1
SCALE
  2
AcDbScale
  3
ObjectDBX Classes
 90
     1153
280
     0
281
     0
  0
CLASS
  1
DICTIONARYVAR
  2
AcDbDictionaryVar
  3
ObjectDBX Classes
 90
        0
280
     0
281
     0
  0
CLASS
  1
ACDBPLACEHOLDER
  2
AcDbPlaceHolder
  3
ObjectDBX Classes
 90
        0
280
     0
281
     0
  0
CLASS
  1
LAYOUT
  2
AcDbLayout
  3
ObjectDBX Classes
 90
        0
280
     0
281
     0
  0
ENDSEC
  0
SECTION
  2
TABLES
  0
TABLE
  2
VPORT
  5
8
330
0
100
AcDbSymbolTable
 70
     1
  0
VPORT
  5
29
330
8
100
AcDbSymbolTableRecord
100
AcDbViewportTableRecord
  2
*Active
 70
     0
 10
0.0
 20
0.0
 11
1.0
 21
1.0
 12
344.1869158879
 22
148.5
 13
0.0
 23
0.0
 14
10.0
 24
10.0
 15
10.0
 25
10.0
 16
0.0
 26
0.0
 36
1.0
 17
0.0
 27
0.0
 37
0.0
 40
297.0
 41
1.9729729729
 42
50.0
 43
0.0
 44
0.0
 50
0.0
 51
0.0
 71
     0
 72
   100
 73
     1
 74
     3
 75
     0
 76
     0
 77
     0
 78
     0
281
     0
 65
     1
110
0.0
120
0.0
130
0.0
111
1.0
121
0.0
131
0.0
112
0.0
122
1.0
132
0.0
 79
     0
146
0.0
  0
ENDTAB
  0
TABLE
  2
LTYPE
  5
5
330
0
100
AcDbSymbolTable
 70
     2
  0
LTYPE
  5
14
330
5
100
AcDbSymbolTableRecord
100
AcDbLinetypeTableRecord
  2
ByBlock
 70
     0
  3

 72
    65
 73
     0
 40
0.0
  0
LTYPE
  5
15
330
5
100
AcDbSymbolTableRecord
100
AcDbLinetypeTableRecord
  2
ByLayer
 70
     0
  3

 72
    65
 73
     0
 40
0.0
  0
LTYPE
  5
16
330
5
100
AcDbSymbolTableRecord
100
AcDbLinetypeTableRecord
  2
Continuous
 70
     0
  3
Solid line
 72
    65
 73
     0
 40
0.0
  0
LTYPE
  5
43
330
5
100
AcDbSymbolTableRecord
100
AcDbLinetypeTableRecord
  2
HIDDEN2
 70
     0
  3
Hidden (.5x) _ _ _ _ _ _ _ _ _ _ _ _ _ _ _ _ _ 
 72
    65
 73
     2
 40
4.7625
 49
3.175
 74
     4
 75
     0
340
0
 46
0.0
 50
0.0
 44
0.0
 45
0.0
 49
-1.5875
 74
     4
 75
     0
340
0
 46
0.0
 50
0.0
 44
0.0
 45
0.0
  0
ENDTAB
  0
TABLE
  2
LAYER
  5
2
330
0
100
AcDbSymbolTable
 70
     2
  0
LAYER
  5
10
330
2
100
AcDbSymbolTableRecord
100
AcDbLayerTableRecord
  2
0
 70
     0
 62
     7
  6
Continuous
370
    -3
390
F
  0
LAYER
  5
3E
330
2
100
AcDbSymbolTableRecord
100
AcDbLayerTableRecord
  2
Default
 70
     0
 62
     7
  6
Continuous
370
    -3
390
F
  0
ENDTAB
  0
TABLE
  2
STYLE
  5
3
330
0
100
AcDbSymbolTable
 70
     3
  0
STYLE
  5
11
330
3
100
AcDbSymbolTableRecord
100
AcDbTextStyleTableRecord
  2
Standard
 70
     0
 40
0.0
 41
1.0
 50
0.0
 71
     0
 42
2.5
  3
txt
  4

  0
STYLE
  5
76
330
3
100
AcDbSymbolTableRecord
100
AcDbTextStyleTableRecord
  2
SEACAD_seiso_ttf
 70
     0
 40
0.0
 41
1.0
 50
0.0
 71
     0
 42
0.2
  3
seiso.ttf
  4

  0
STYLE
  5
9A
330
3
100
AcDbSymbolTableRecord
100
AcDbTextStyleTableRecord
  2
SEACAD_semeci1_ttf
 70
     0
 40
0.0
 41
1.0
 50
0.0
 71
     0
 42
0.2
  3
semeci1.ttf
  4

  0
ENDTAB
  0
TABLE
  2
VIEW
  5
6
330
0
100
AcDbSymbolTable
 70
     0
  0
ENDTAB
  0
TABLE
  2
UCS
  5
7
330
0
100
AcDbSymbolTable
 70
     0
  0
ENDTAB
  0
TABLE
  2
APPID
  5
9
330
0
100
AcDbSymbolTable
 70
     1
  0
APPID
  5
12
330
9
100
AcDbSymbolTableRecord
100
AcDbRegAppTableRecord
  2
ACAD
 70
     0
  0
ENDTAB
  0
TABLE
  2
DIMSTYLE
  5
A
330
0
100
AcDbSymbolTable
 70
     3
100
AcDbDimStyleTable
  0
DIMSTYLE
105
27
330
A
100
AcDbSymbolTableRecord
100
AcDbDimStyleTableRecord
  2
ISO-25
 70
     0
 41
2.5
 42
0.625
 43
3.75
 44
1.25
 73
     0
 74
     0
 77
     1
 78
     8
140
2.5
141
2.5
143
0.0393700787
147
0.625
171
     3
172
     1
271
     2
272
     2
274
     3
278
    44
283
     0
284
     8
340
11
  0
DIMSTYLE
105
7A
330
A
100
AcDbSymbolTableRecord
100
AcDbDimStyleTableRecord
  2
Standard
 70
     0
277
     1
340
11
  0
DIMSTYLE
105
8C
102
{ACAD_REACTORS
330
8D
330
99
330
A6
330
B2
330
BE
330
C9
330
D3
102
}
330
A
100
AcDbSymbolTableRecord
100
AcDbDimStyleTableRecord
  2
ISO
 70
     0
 41
3.5
 42
0.0
 44
1.75
 73
     0
 74
     0
 77
     1
 78
     8
140
3.5
141
1.75
147
1.75
172
     1
173
     1
271
     2
272
     2
278
    44
284
     8
340
76
343
87
344
87
  0
ENDTAB
  0
TABLE
  2
BLOCK_RECORD
  5
1
330
0
100
AcDbSymbolTable
 70
    12
  0
BLOCK_RECORD
  5
1F
330
1
100
AcDbSymbolTableRecord
100
AcDbBlockTableRecord
  2
*Model_Space
340
22
  0
BLOCK_RECORD
  5
1B
330
1
100
AcDbSymbolTableRecord
100
AcDbBlockTableRecord
  2
*Paper_Space
340
1E
  0
BLOCK_RECORD
  5
4E
330
1
100
AcDbSymbolTableRecord
100
AcDbBlockTableRecord
  2
SEANNOT_GROUP
340
0
102
{BLKREFS
331
4F
102
}
  0
BLOCK_RECORD
  5
7B
330
1
100
AcDbSymbolTableRecord
100
AcDbBlockTableRecord
  2
_OBLIQUE
340
0
  0
BLOCK_RECORD
  5
7F
330
1
100
AcDbSymbolTableRecord
100
AcDbBlockTableRecord
  2
_DOT
340
0
  0
BLOCK_RECORD
  5
87
330
1
100
AcDbSymbolTableRecord
100
AcDbBlockTableRecord
  2
_SE_FILLED
340
0
  0
BLOCK_RECORD
  5
8E
330
1
100
AcDbSymbolTableRecord
100
AcDbBlockTableRecord
  2
DMBLK28
340
0
  0
BLOCK_RECORD
  5
9B
330
1
100
AcDbSymbolTableRecord
100
AcDbBlockTableRecord
  2
DMBLK29
340
0
  0
BLOCK_RECORD
  5
A7
330
1
100
AcDbSymbolTableRecord
100
AcDbBlockTableRecord
  2
DMBLK30
340
0
  0
BLOCK_RECORD
  5
B3
330
1
100
AcDbSymbolTableRecord
100
AcDbBlockTableRecord
  2
DMBLK31
340
0
  0
BLOCK_RECORD
  5
BF
330
1
100
AcDbSymbolTableRecord
100
AcDbBlockTableRecord
  2
DMBLK32
340
0
  0
BLOCK_RECORD
  5
CA
330
1
100
AcDbSymbolTableRecord
100
AcDbBlockTableRecord
  2
DMBLK33
340
0
  0
BLOCK_RECORD
  5
D4
330
1
100
AcDbSymbolTableRecord
100
AcDbBlockTableRecord
  2
DMBLK34
340
0
  0
ENDTAB
  0
ENDSEC
  0
SECTION
  2
BLOCKS
  0
BLOCK
  5
20
330
1F
100
AcDbEntity
  8
0
100
AcDbBlockBegin
  2
*Model_Space
 70
     0
 10
0.0
 20
0.0
 30
0.0
  3
*Model_Space
  1

  0
ENDBLK
  5
21
330
1F
100
AcDbEntity
  8
0
100
AcDbBlockEnd
  0
BLOCK
  5
1C
330
1B
100
AcDbEntity
 67
     1
  8
0
100
AcDbBlockBegin
  2
*Paper_Space
 70
     0
 10
0.0
 20
0.0
 30
0.0
  3
*Paper_Space
  1

  0
ENDBLK
  5
1D
330
1B
100
AcDbEntity
 67
     1
  8
0
100
AcDbBlockEnd
  0
BLOCK
  5
78
330
4E
100
AcDbEntity
  8
0
100
AcDbBlockBegin
  2
SEANNOT_GROUP
 70
     0
 10
0.0
 20
0.0
 30
0.0
  3
SEANNOT_GROUP
  1

  0
CIRCLE
  5
50
330
4E
100
AcDbEntity
  8
Default
  6
Continuous
 62
     7
100
AcDbCircle
 10
148.9443466785
 20
190.1402661875
 30
0.0
 40
8.750000000000007
  0
LWPOLYLINE
  5
51
330
4E
100
AcDbEntity
  8
Default
  6
Continuous
 62
     7
100
AcDbPolyline
 90
        2
 70
     0
 43
0.0
 10
142.7701316535
 20
196.3403927044
 10
123.1557781177
 20
216.037062318
  0
HATCH
  5
74
330
4E
100
AcDbEntity
  8
Default
  6
Continuous
 62
     7
100
AcDbHatch
 10
0.0
 20
0.0
 30
0.0
210
0.0
220
0.0
230
1.0
  2
SOLID
 70
     1
 71
     0
 91
        1
 92
        1
 93
        3
 72
     1
 10
126.0388059844387
 20
213.968625982346
 11
123.1557781176723
 21
216.0370623179548
 72
     1
 10
123.1557781176724
 20
216.0370623179548
 11
125.212122423335
 21
213.1453972869411
 72
     1
 10
125.212122423335
 20
213.1453972869411
 11
126.0388059844387
 21
213.968625982346
 97
        0
 75
     0
 76
     1
 98
        0
  0
LINE
  5
75
330
4E
100
AcDbEntity
  8
Default
  6
Continuous
 62
     7
100
AcDbLine
 10
127.1097041639
 20
216.037062318
 30
0.0
 11
121.4057781177
 21
216.037062318
 31
0.0
  0
TEXT
  5
77
330
4E
100
AcDbEntity
  8
Default
  6
Continuous
 62
     7
100
AcDbText
 10
141.1091194057
 20
188.3902661875
 30
0.0
 40
3.5
  1
M3 Screw
  7
SEACAD_seiso_ttf
 11
141.1091194057
 21
191.8902661875
 31
0.0
100
AcDbText
 73
     3
  0
ENDBLK
  5
79
330
4E
100
AcDbEntity
  8
0
100
AcDbBlockEnd
  0
BLOCK
  5
7C
330
7B
100
AcDbEntity
  8
0
100
AcDbBlockBegin
  2
_OBLIQUE
 70
     0
 10
0.0
 20
0.0
 30
0.0
  3
_OBLIQUE
  1

  0
LINE
  5
7E
330
7B
100
AcDbEntity
  8
0
  6
ByBlock
 62
     0
370
    -2
100
AcDbLine
 10
-0.5
 20
-0.5
 30
0.0
 11
0.5
 21
0.5
 31
0.0
  0
ENDBLK
  5
7D
330
7B
100
AcDbEntity
  8
0
100
AcDbBlockEnd
  0
BLOCK
  5
80
330
7F
100
AcDbEntity
  8
0
100
AcDbBlockBegin
  2
_DOT
 70
     0
 10
0.0
 20
0.0
 30
0.0
  3
_DOT
  1

  0
POLYLINE
  5
82
330
7F
100
AcDbEntity
  8
0
  6
ByBlock
 62
     0
100
AcDb2dPolyline
 66
     1
 10
0.0
 20
0.0
 30
0.0
 70
     1
 40
0.5
 41
0.5
  0
VERTEX
  5
84
330
82
100
AcDbEntity
  8
0
  6
ByBlock
 62
     0
100
AcDbVertex
100
AcDb2dVertex
 10
-0.25
 20
0.0
 30
0.0
 42
1.0
  0
VERTEX
  5
85
330
82
100
AcDbEntity
  8
0
  6
ByBlock
 62
     0
100
AcDbVertex
100
AcDb2dVertex
 10
0.25
 20
0.0
 30
0.0
 42
1.0
  0
SEQEND
  5
86
330
82
100
AcDbEntity
  8
0
  6
ByBlock
 62
     0
  0
LINE
  5
83
330
7F
100
AcDbEntity
  8
0
  6
ByBlock
 62
     0
370
    -2
100
AcDbLine
 10
-0.5
 20
0.0
 30
0.0
 11
-1.0
 21
0.0
 31
0.0
  0
ENDBLK
  5
81
330
7F
100
AcDbEntity
  8
0
100
AcDbBlockEnd
  0
BLOCK
  5
8A
330
87
100
AcDbEntity
  8
0
100
AcDbBlockBegin
  2
_SE_FILLED
 70
     0
 10
0.0
 20
0.0
 30
0.0
  3
_SE_FILLED
  1

  0
SOLID
  5
88
330
87
100
AcDbEntity
  8
0
 62
     0
100
AcDbTrace
 10
0.0
 20
0.0
 30
0.0
 11
-1.0
 21
-0.1665
 31
0.0
 12
-1.0
 22
0.1665
 32
0.0
 13
0.0
 23
0.0
 33
0.0
  0
LINE
  5
89
330
87
100
AcDbEntity
  8
0
 62
     0
100
AcDbLine
 10
0.0
 20
0.0
 30
0.0
 11
-1.0
 21
0.0
 31
0.0
  0
ENDBLK
  5
8B
330
87
100
AcDbEntity
  8
0
100
AcDbBlockEnd
  0
BLOCK
  5
97
330
8E
100
AcDbEntity
  8
0
100
AcDbBlockBegin
  2
DMBLK28
 70
     0
 10
0.0
 20
0.0
 30
0.0
  3
DMBLK28
  1

  0
HATCH
  5
8F
330
8E
100
AcDbEntity
  8
Default
  6
Continuous
 62
     7
100
AcDbHatch
 10
0.0
 20
0.0
 30
0.0
210
0.0
220
0.0
230
1.0
  2
SOLID
 70
     1
 71
     0
 91
        1
 92
        1
 93
        3
 72
     1
 10
140.7229897002155
 20
237.2393490612033
 11
140.7229897002155
 21
236.0726823585255
 72
     1
 10
140.7229897002155
 20
236.0726823585255
 11
144.222989808249
 21
236.6560157098644
 72
     1
 10
144.222989808249
 20
236.6560157098644
 11
140.7229897002155
 21
237.2393490612033
 97
        0
 75
     0
 76
     1
 98
        0
  0
HATCH
  5
90
330
8E
100
AcDbEntity
  8
Default
  6
Continuous
 62
     7
100
AcDbHatch
 10
0.0
 20
0.0
 30
0.0
210
0.0
220
0.0
230
1.0
  2
SOLID
 70
     1
 71
     0
 91
        1
 92
        1
 93
        3
 72
     1
 10
153.7229899162824
 20
237.2393490612033
 11
150.222989808249
 21
236.6560157098644
 72
     1
 10
150.222989808249
 20
236.6560157098644
 11
153.7229899162824
 21
236.0726823585255
 72
     1
 10
153.7229899162824
 20
236.0726823585255
 11
153.7229899162824
 21
237.2393490612033
 97
        0
 75
     0
 76
     1
 98
        0
  0
LINE
  5
91
330
8E
100
AcDbEntity
  8
Default
  6
Continuous
 62
     7
100
AcDbLine
 10
144.2229898082
 20
229.537062318
 30
0.0
 11
144.2229898082
 21
238.4060157639
 31
0.0
  0
LINE
  5
92
330
8E
100
AcDbEntity
  8
Default
  6
Continuous
 62
     7
100
AcDbLine
 10
150.2229898082
 20
229.537062318
 30
0.0
 11
150.2229898082
 21
238.4060157639
 31
0.0
  0
LINE
  5
93
330
8E
100
AcDbEntity
  8
Default
  6
Continuous
 62
     7
100
AcDbLine
 10
137.2229895922
 20
236.6560157099
 30
0.0
 11
160.3193824547
 21
236.6560157099
 31
0.0
  0
TEXT
  5
94
330
8E
100
AcDbEntity
  8
Default
  6
Continuous
 62
     7
100
AcDbText
 10
152.1341538744
 20
237.5310157099
 30
0.0
 40
3.5
  1
6
  7
SEACAD_seiso_ttf
 11
152.1341538744
 21
241.0310157099
 31
0.0
100
AcDbText
 73
     3
  0
TEXT
  5
95
330
8E
100
AcDbEntity
  8
Default
  6
Continuous
 62
     7
100
AcDbText
 10
157.026199329
 20
240.3310157099
 30
0.0
 40
1.75
  1
0
  7
SEACAD_seiso_ttf
 11
157.026199329
 21
242.0810157099
 31
0.0
100
AcDbText
 73
     3
  0
TEXT
  5
96
330
8E
100
AcDbEntity
  8
Default
  6
Continuous
 62
     7
100
AcDbText
 10
156.0318811472
 20
237.5310157099
 30
0.0
 40
1.75
  1
-0.1
  7
SEACAD_seiso_ttf
 11
156.0318811472
 21
239.2810157099
 31
0.0
100
AcDbText
 73
     3
  0
ENDBLK
  5
98
330
8E
100
AcDbEntity
  8
0
100
AcDbBlockEnd
  0
BLOCK
  5
A4
330
9B
100
AcDbEntity
  8
0
100
AcDbBlockBegin
  2
DMBLK29
 70
     0
 10
0.0
 20
0.0
 30
0.0
  3
DMBLK29
  1

  0
LINE
  5
9C
330
9B
100
AcDbEntity
  8
Default
  6
Continuous
 62
     7
100
AcDbLine
 10
117.6216189488
 20
211.1886503148
 30
0.0
 11
107.6216354383
 21
211.1703573413
 31
0.0
  0
LINE
  5
9D
330
9B
100
AcDbEntity
  8
Default
  6
Continuous
 62
     7
100
AcDbLine
 10
107.6216354644
 20
211.1703573413
 30
0.0
 11
80.377061024
 21
211.1205188311
 31
0.0
  0
HATCH
  5
9E
330
9B
100
AcDbEntity
  8
Default
  6
Continuous
 62
     7
100
AcDbHatch
 10
0.0
 20
0.0
 30
0.0
210
0.0
220
0.0
230
1.0
  2
SOLID
 70
     1
 71
     0
 91
        1
 92
        1
 93
        3
 72
     1
 10
114.1226917869561
 20
210.5989153987201
 11
114.12055760669
 21
211.7655801493711
 72
     1
 10
114.12055760669
 20
211.7655801493711
 11
110.6216304448699
 21
211.1758452332475
 72
     1
 10
110.6216304448699
 20
211.1758452332475
 11
114.1226917869561
 21
210.5989153987201
 97
        0
 75
     0
 76
     1
 98
        0
  0
HATCH
  5
9F
330
9B
100
AcDbEntity
  8
Default
  6
Continuous
 62
     7
100
AcDbHatch
 10
0.0
 20
0.0
 30
0.0
210
0.0
220
0.0
230
1.0
  2
SOLID
 70
     1
 71
     0
 91
        1
 92
        1
 93
        3
 72
     1
 10
104.1227083025469
 20
210.5806224251806
 11
107.6216354643671
 21
211.1703573413042
 72
     1
 10
107.6216354643671
 20
211.1703573413042
 11
104.1205741222809
 21
211.7472871758316
 72
     1
 10
104.1205741222809
 20
211.7472871758316
 11
104.1227083025469
 21
210.5806224251806
 97
        0
 75
     0
 76
     1
 98
        0
  0
TEXT
  5
A0
330
9B
100
AcDbEntity
  8
Default
  6
Continuous
 62
     7
100
AcDbText
 10
81.6004596012
 20
211.9977582586
 30
0.0
 40
3.5
  1
O
 50
0.104811074
  7
SEACAD_semeci1_ttf
 11
81.5940570606
 21
215.4977524025
 31
0.0
100
AcDbText
 73
     3
  0
TEXT
  5
A1
330
9B
100
AcDbEntity
  8
Default
  6
Continuous
 62
     7
100
AcDbText
 10
87.5978294793
 20
212.0087292495
 30
0.0
 40
3.5
  1
3
 50
0.104811074
  7
SEACAD_seiso_ttf
 11
87.5914269387
 21
215.5087233934
 31
0.0
100
AcDbText
 73
     3
  0
TEXT
  5
A2
330
9B
100
AcDbEntity
  8
Default
  6
Continuous
 62
     7
100
AcDbText
 10
91.1722469122
 20
214.8152726175
 30
0.0
 40
1.75
  1
+0.1
 50
0.104811074
  7
SEACAD_seiso_ttf
 11
91.1690456419
 21
216.5652696895
 31
0.0
100
AcDbText
 73
     3
  0
TEXT
  5
A3
330
9B
100
AcDbEntity
  8
Default
  6
Continuous
 62
     7
100
AcDbText
 10
92.1716854628
 20
212.017096206
 30
0.0
 40
1.75
  1
0
 50
0.104811074
  7
SEACAD_seiso_ttf
 11
92.1684841925
 21
213.767093278
 31
0.0
100
AcDbText
 73
     3
  0
ENDBLK
  5
A5
330
9B
100
AcDbEntity
  8
0
100
AcDbBlockEnd
  0
BLOCK
  5
B0
330
A7
100
AcDbEntity
  8
0
100
AcDbBlockBegin
  2
DMBLK30
 70
     0
 10
0.0
 20
0.0
 30
0.0
  3
DMBLK30
  1

  0
LINE
  5
A8
330
A7
100
AcDbEntity
  8
Default
  6
Continuous
 62
     7
100
AcDbLine
 10
143.3798340105
 20
225.1186292528
 30
0.0
 11
147.9011937671
 21
216.199138752
 31
0.0
  0
LINE
  5
A9
330
A7
100
AcDbEntity
  8
Default
  6
Continuous
 62
     7
100
AcDbLine
 10
147.9011937553
 20
216.1991387752
 30
0.0
 11
162.7525990826
 21
186.9011010451
 31
0.0
  0
HATCH
  5
AA
330
A7
100
AcDbEntity
  8
Default
  6
Continuous
 62
     7
100
AcDbHatch
 10
0.0
 20
0.0
 30
0.0
210
0.0
220
0.0
230
1.0
  2
SOLID
 70
     1
 71
     0
 91
        1
 92
        1
 93
        3
 72
     1
 10
145.4826135518508
 20
222.2605535442919
 11
144.4420063198326
 21
221.733061569179
 72
     1
 10
144.4420063198326
 20
221.733061569179
 11
146.5447858611805
 21
218.8749858606809
 72
     1
 10
146.5447858611805
 20
218.8749858606809
 11
145.4826135518508
 21
222.2605535442919
 97
        0
 75
     0
 76
     1
 98
        0
  0
HATCH
  5
AB
330
A7
100
AcDbEntity
  8
Default
  6
Continuous
 62
     7
100
AcDbHatch
 10
0.0
 20
0.0
 30
0.0
210
0.0
220
0.0
230
1.0
  2
SOLID
 70
     1
 71
     0
 91
        1
 92
        1
 93
        3
 72
     1
 10
150.0039732966654
 20
213.3410630667306
 11
147.9011937553174
 21
216.1991387752287
 72
     1
 10
147.9011937553174
 20
216.1991387752287
 11
148.9633660646471
 21
212.8135710916177
 72
     1
 10
148.9633660646471
 20
212.8135710916177
 11
150.0039732966654
 21
213.3410630667306
 97
        0
 75
     0
 76
     1
 98
        0
  0
TEXT
  5
AC
330
A7
100
AcDbEntity
  8
Default
  6
Continuous
 62
     7
100
AcDbText
 10
157.2644489944
 20
199.663081046
 30
0.0
 40
3.5
  1
O
 50
296.8808080308
  7
SEACAD_semeci1_ttf
 11
160.3862705941
 21
201.2455569224
 31
0.0
100
AcDbText
 73
     3
  0
TEXT
  5
AD
330
A7
100
AcDbEntity
  8
Default
  6
Continuous
 62
     7
100
AcDbText
 10
159.976080147
 20
194.3137238594
 30
0.0
 40
3.5
  1
3
 50
296.8808080308
  7
SEACAD_seiso_ttf
 11
163.0979017467
 21
195.8961997359
 31
0.0
100
AcDbText
 73
     3
  0
TEXT
  5
AE
330
A7
100
AcDbEntity
  8
Default
  6
Continuous
 62
     7
100
AcDbText
 10
164.0919786641
 20
192.38693247
 30
0.0
 40
1.75
  1
+0.1
 50
296.8808080308
  7
SEACAD_seiso_ttf
 11
165.6528894639
 21
193.1781704082
 31
0.0
100
AcDbText
 73
     3
  0
TEXT
  5
AF
330
A7
100
AcDbEntity
  8
Default
  6
Continuous
 62
     7
100
AcDbText
 10
162.0440883947
 20
190.2340706325
 30
0.0
 40
1.75
  1
0
 50
296.8808080308
  7
SEACAD_seiso_ttf
 11
163.6049991945
 21
191.0253085708
 31
0.0
100
AcDbText
 73
     3
  0
ENDBLK
  5
B1
330
A7
100
AcDbEntity
  8
0
100
AcDbBlockEnd
  0
BLOCK
  5
BC
330
B3
100
AcDbEntity
  8
0
100
AcDbBlockBegin
  2
DMBLK31
 70
     0
 10
0.0
 20
0.0
 30
0.0
  3
DMBLK31
  1

  0
HATCH
  5
B4
330
B3
100
AcDbEntity
  8
Default
  6
Continuous
 62
     7
100
AcDbHatch
 10
0.0
 20
0.0
 30
0.0
210
0.0
220
0.0
230
1.0
  2
SOLID
 70
     1
 71
     0
 91
        1
 92
        1
 93
        3
 72
     1
 10
174.3554943242197
 20
226.0370622099214
 11
173.7721609728808
 21
229.5370623179548
 72
     1
 10
173.7721609728808
 20
229.5370623179548
 11
173.1888276215419
 21
226.0370622099214
 72
     1
 10
173.1888276215419
 20
226.0370622099214
 11
174.3554943242197
 21
226.0370622099214
 97
        0
 75
     0
 76
     1
 98
        0
  0
HATCH
  5
B5
330
B3
100
AcDbEntity
  8
Default
  6
Continuous
 62
     7
100
AcDbHatch
 10
0.0
 20
0.0
 30
0.0
210
0.0
220
0.0
230
1.0
  2
SOLID
 70
     1
 71
     0
 91
        1
 92
        1
 93
        3
 72
     1
 10
174.3554943242197
 20
209.037062217372
 11
173.1888276215419
 21
209.037062217372
 72
     1
 10
173.1888276215419
 20
209.037062217372
 11
173.7721609728808
 21
205.5370621093385
 72
     1
 10
173.7721609728808
 20
205.5370621093385
 11
174.3554943242197
 21
209.037062217372
 97
        0
 75
     0
 76
     1
 98
        0
  0
LINE
  5
B6
330
B3
100
AcDbEntity
  8
Default
  6
Continuous
 62
     7
100
AcDbLine
 10
150.2229898082
 20
229.537062318
 30
0.0
 11
175.5221610269
 21
229.537062318
 31
0.0
  0
LINE
  5
B7
330
B3
100
AcDbEntity
  8
Default
  6
Continuous
 62
     7
100
AcDbLine
 10
147.2229898082
 20
205.537062318
 30
0.0
 11
175.5221610269
 21
205.537062318
 31
0.0
  0
LINE
  5
B8
330
B3
100
AcDbEntity
  8
Default
  6
Continuous
 62
     7
100
AcDbLine
 10
173.7721609729
 20
229.537062318
 30
0.0
 11
173.7721609729
 21
205.5370621093
 31
0.0
  0
TEXT
  5
B9
330
B3
100
AcDbEntity
  8
Default
  6
Continuous
 62
     7
100
AcDbText
 10
172.8971609729
 20
213.0228576682
 30
0.0
 40
3.5
  1
24
 50
90.0
  7
SEACAD_seiso_ttf
 11
169.3971609729
 21
213.0228576682
 31
0.0
100
AcDbText
 73
     3
  0
TEXT
  5
BA
330
B3
100
AcDbEntity
  8
Default
  6
Continuous
 62
     7
100
AcDbText
 10
170.0971609729
 20
219.9830849409
 30
0.0
 40
1.75
  1
0
 50
90.0
  7
SEACAD_seiso_ttf
 11
168.3471609729
 21
219.9830849409
 31
0.0
100
AcDbText
 73
     3
  0
TEXT
  5
BB
330
B3
100
AcDbEntity
  8
Default
  6
Continuous
 62
     7
100
AcDbText
 10
172.8971609729
 20
218.9887667591
 30
0.0
 40
1.75
  1
-0.1
 50
90.0
  7
SEACAD_seiso_ttf
 11
171.1471609729
 21
218.9887667591
 31
0.0
100
AcDbText
 73
     3
  0
ENDBLK
  5
BD
330
B3
100
AcDbEntity
  8
0
100
AcDbBlockEnd
  0
BLOCK
  5
C7
330
BF
100
AcDbEntity
  8
0
100
AcDbBlockBegin
  2
DMBLK32
 70
     0
 10
0.0
 20
0.0
 30
0.0
  3
DMBLK32
  1

  0
LINE
  5
C0
330
BF
100
AcDbEntity
  8
Default
  6
Continuous
 62
     7
100
AcDbLine
 10
111.5405794366
 20
225.6263678567
 30
0.0
 11
116.3622639472
 21
215.7394387373
 31
0.0
  0
LINE
  5
C1
330
BF
100
AcDbEntity
  8
Default
  6
Continuous
 62
     7
100
AcDbLine
 10
116.362263864
 20
215.7394389081
 30
0.0
 11
132.8052362553
 21
182.0229022524
 31
0.0
  0
HATCH
  5
C2
330
BF
100
AcDbEntity
  8
Default
  6
Continuous
 62
     7
100
AcDbHatch
 10
0.0
 20
0.0
 30
0.0
210
0.0
220
0.0
230
1.0
  2
SOLID
 70
     1
 71
     0
 91
        1
 92
        1
 93
        3
 72
     1
 10
113.5990586156679
 20
222.7362221814605
 11
112.5504449275241
 21
222.2248314031172
 72
     1
 10
112.5504449275241
 20
222.2248314031171
 11
114.6089241066259
 21
219.3346857278574
 72
     1
 10
114.6089241066259
 20
219.3346857278574
 11
113.5990586156679
 21
222.7362221814605
 97
        0
 75
     0
 76
     1
 98
        0
  0
HATCH
  5
C3
330
BF
100
AcDbEntity
  8
Default
  6
Continuous
 62
     7
100
AcDbHatch
 10
0.0
 20
0.0
 30
0.0
210
0.0
220
0.0
230
1.0
  2
SOLID
 70
     1
 71
     0
 91
        1
 92
        1
 93
        3
 72
     1
 10
118.4207430430708
 20
212.8492932327924
 11
116.3622638639689
 21
215.7394389080521
 72
     1
 10
116.3622638639689
 20
215.7394389080521
 11
117.372129354927
 21
212.3379024544491
 72
     1
 10
117.372129354927
 20
212.3379024544491
 11
118.4207430430708
 21
212.8492932327924
 97
        0
 75
     0
 76
     1
 98
        0
  0
TEXT
  5
C4
330
BF
100
AcDbEntity
  8
Default
  6
Continuous
 62
     7
100
AcDbText
 10
124.8470662489
 20
200.3374275877
 30
0.0
 40
3.5
  1
O
 50
295.9976918918
  7
SEACAD_semeci1_ttf
 11
127.9929072162
 21
201.8715998753
 31
0.0
100
AcDbText
 73
     3
  0
TEXT
  5
C5
330
BF
100
AcDbEntity
  8
Default
  6
Continuous
 62
     7
100
AcDbText
 10
127.4759274091
 20
194.9469123231
 30
0.0
 40
3.5
  1
4
 50
295.9976918918
  7
SEACAD_seiso_ttf
 11
130.6217683764
 21
196.4810846108
 31
0.0
100
AcDbText
 73
     3
  0
TEXT
  5
C6
330
BF
100
AcDbEntity
  8
Default
  6
Continuous
 62
     7
100
AcDbText
 10
129.1495699047
 20
191.5150858133
 30
0.0
 40
3.5
  1
±0.05
 50
295.9976918918
  7
SEACAD_seiso_ttf
 11
132.2954108721
 21
193.049258101
 31
0.0
100
AcDbText
 73
     3
  0
ENDBLK
  5
C8
330
BF
100
AcDbEntity
  8
0
100
AcDbBlockEnd
  0
BLOCK
  5
D1
330
CA
100
AcDbEntity
  8
0
100
AcDbBlockBegin
  2
DMBLK33
 70
     0
 10
0.0
 20
0.0
 30
0.0
  3
DMBLK33
  1

  0
HATCH
  5
CB
330
CA
100
AcDbEntity
  8
Default
  6
Continuous
 62
     7
100
AcDbHatch
 10
0.0
 20
0.0
 30
0.0
210
0.0
220
0.0
230
1.0
  2
SOLID
 70
     1
 71
     0
 91
        1
 92
        1
 93
        3
 72
     1
 10
102.346558261687
 20
225.8448331890765
 11
104.0840614533557
 21
228.9385948498964
 72
     1
 10
104.0840614533557
 20
228.9385948498964
 11
101.4370951928627
 21
226.5755780977701
 72
     1
 10
101.4370951928627
 20
226.5755780977701
 11
102.346558261687
 21
225.8448331890765
 97
        0
 75
     0
 76
     1
 98
        0
  0
HATCH
  5
CC
330
CA
100
AcDbEntity
  8
Default
  6
Continuous
 62
     7
100
AcDbHatch
 10
0.0
 20
0.0
 30
0.0
210
0.0
220
0.0
230
1.0
  2
SOLID
 70
     1
 71
     0
 91
        1
 92
        1
 93
        3
 72
     1
 10
99.16060942390672
 20
221.0796552798074
 11
99.36139204678747
 21
217.5370623179548
 72
     1
 10
99.36139204678749
 20
217.5370623179548
 11
100.320411607366
 21
220.9532824568577
 72
     1
 10
100.320411607366
 20
220.9532824568577
 11
99.16060942390672
 21
221.0796552798074
 97
        0
 75
     0
 76
     1
 98
        0
  0
LINE
  5
CD
330
CA
100
AcDbEntity
  8
Default
  6
Continuous
 62
     7
100
AcDbLine
 10
109.1216332286
 20
223.9010230747
 30
0.0
 11
102.8466247127
 21
230.1760315905
 31
0.0
  0
LINE
  5
CE
330
CA
100
AcDbEntity
  8
Default
  6
Continuous
 62
     7
100
AcDbLine
 10
103.485593881
 20
217.537062318
 30
0.0
 11
97.6113922256
 21
217.537062318
 31
0.0
  0
ARC
  5
CF
330
CA
100
AcDbEntity
  8
Default
  6
Continuous
 62
     7
100
AcDbCircle
 10
115.4855939853
 20
217.537062318
 30
0.0
 40
16.12420193850987
100
AcDbArc
 50
135.0
 51
180.0000012522
  0
TEXT
  5
D0
330
CA
100
AcDbEntity
  8
Default
  6
Continuous
 62
     7
100
AcDbText
 10
98.730174144
 20
221.5069558644
 30
0.0
 40
3.5
  1
45°
 50
67.5
  7
SEACAD_seiso_ttf
 11
95.4965957802
 21
222.8463478776
 31
0.0
100
AcDbText
 73
     3
  0
ENDBLK
  5
D2
330
CA
100
AcDbEntity
  8
0
100
AcDbBlockEnd
  0
BLOCK
  5
DC
330
D4
100
AcDbEntity
  8
0
100
AcDbBlockBegin
  2
DMBLK34
 70
     0
 10
0.0
 20
0.0
 30
0.0
  3
DMBLK34
  1

  0
HATCH
  5
D5
330
D4
100
AcDbEntity
  8
Default
  6
Continuous
 62
     7
100
AcDbHatch
 10
0.0
 20
0.0
 30
0.0
210
0.0
220
0.0
230
1.0
  2
SOLID
 70
     1
 71
     0
 91
        1
 92
        1
 93
        3
 72
     1
 10
124.1122567077896
 20
233.9418994807166
 11
121.2249039288215
 21
236.0042943228366
 72
     1
 10
121.2249039288215
 20
236.0042943228366
 11
123.2872987709415
 21
233.1169415438685
 72
     1
 10
123.2872987709415
 20
233.1169415438686
 11
124.1122567077896
 21
233.9418994807166
 97
        0
 75
     0
 76
     1
 98
        0
  0
HATCH
  5
D6
330
D4
100
AcDbEntity
  8
Default
  6
Continuous
 62
     7
100
AcDbHatch
 10
0.0
 20
0.0
 30
0.0
210
0.0
220
0.0
230
1.0
  2
SOLID
 70
     1
 71
     0
 91
        1
 92
        1
 93
        3
 72
     1
 10
131.8904306001502
 20
226.1637255883559
 11
131.0654726633022
 21
225.3387676515079
 72
     1
 10
131.0654726633022
 20
225.3387676515079
 11
133.9528254422703
 21
223.2763728093879
 72
     1
 10
133.9528254422703
 20
223.2763728093878
 11
131.8904306001502
 21
226.1637255883559
 97
        0
 75
     0
 76
     1
 98
        0
  0
LINE
  5
D7
330
D4
100
AcDbEntity
  8
Default
  6
Continuous
 62
     7
100
AcDbLine
 10
109.1216329546
 20
223.9010233486
 30
0.0
 11
122.4623408341
 21
237.2417312281
 31
0.0
  0
LINE
  5
D8
330
D4
100
AcDbEntity
  8
Default
  6
Continuous
 62
     7
100
AcDbLine
 10
121.849555016
 20
211.1731012873
 30
0.0
 11
135.1902628955
 21
224.5138091668
 31
0.0
  0
LINE
  5
D9
330
D4
100
AcDbEntity
  8
Default
  6
Continuous
 62
     7
100
AcDbLine
 10
121.2249039288
 20
236.0042943228
 30
0.0
 11
133.9528254423
 21
223.2763728094
 31
0.0
  0
TEXT
  5
DA
330
D4
100
AcDbEntity
  8
Default
  6
Continuous
 62
     7
100
AcDbText
 10
123.1453413901
 20
235.3212937286
 30
0.0
 40
3.5
  1
18
 50
315.0
  7
SEACAD_seiso_ttf
 11
125.6202151243
 21
237.7961674628
 31
0.0
100
AcDbText
 73
     3
  0
TEXT
  5
DB
330
D4
100
AcDbEntity
  8
Default
  6
Continuous
 62
     7
100
AcDbText
 10
126.970146252
 20
231.4964888667
 30
0.0
 40
3.5
  1
±0.05
 50
315.0
  7
SEACAD_seiso_ttf
 11
129.4450199862
 21
233.9713626009
 31
0.0
100
AcDbText
 73
     3
  0
ENDBLK
  5
DD
330
D4
100
AcDbEntity
  8
0
100
AcDbBlockEnd
  0
ENDSEC
  0
SECTION
  2
ENTITIES
  0
CIRCLE
  5
3B
330
1F
100
AcDbEntity
  8
0
  6
Continuous
 62
     7
100
AcDbCircle
 10
109.1216329546
 20
211.1731012873
 30
0.0
 40
1.5
  0
CIRCLE
  5
3C
330
1F
100
AcDbEntity
  8
0
  6
Continuous
 62
     7
100
AcDbCircle
 10
115.4855939853
 20
217.537062318
 30
0.0
 40
2.0
  0
CIRCLE
  5
3D
330
1F
100
AcDbEntity
  8
0
  6
Continuous
 62
     7
100
AcDbCircle
 10
115.4855939853
 20
217.537062318
 30
0.0
 40
12.0
  0
LINE
  5
3F
330
1F
100
AcDbEntity
  8
Default
  6
Continuous
 62
     7
100
AcDbLine
 10
144.2229898082
 20
229.537062318
 30
0.0
 11
144.2229898082
 21
205.537062318
 31
0.0
  0
LINE
  5
40
330
1F
100
AcDbEntity
  8
Default
  6
Continuous
 62
     7
100
AcDbLine
 10
144.2229898082
 20
205.537062318
 30
0.0
 11
150.2229898082
 21
205.537062318
 31
0.0
  0
LINE
  5
41
330
1F
100
AcDbEntity
  8
Default
  6
Continuous
 62
     7
100
AcDbLine
 10
150.2229898082
 20
205.537062318
 30
0.0
 11
150.2229898082
 21
229.537062318
 31
0.0
  0
LINE
  5
42
330
1F
100
AcDbEntity
  8
Default
  6
Continuous
 62
     7
100
AcDbLine
 10
150.2229898082
 20
229.537062318
 30
0.0
 11
144.2229898082
 21
229.537062318
 31
0.0
  0
LINE
  5
44
330
1F
100
AcDbEntity
  8
Default
  6
HIDDEN2
 62
     7
100
AcDbLine
 10
115.4855939853
 20
229.537062318
 30
0.0
 11
144.4855939853
 21
229.537062318
 31
0.0
  0
LINE
  5
45
330
1F
100
AcDbEntity
  8
Default
  6
HIDDEN2
 62
     7
100
AcDbLine
 10
115.4855939853
 20
205.537062318
 30
0.0
 11
144.4855939853
 21
205.537062318
 31
0.0
  0
CIRCLE
  5
46
330
1F
100
AcDbEntity
  8
0
  6
Continuous
 62
     7
100
AcDbCircle
 10
121.849555016
 20
223.9010233486
 30
0.0
 40
1.5
  0
CIRCLE
  5
47
330
1F
100
AcDbEntity
  8
0
  6
Continuous
 62
     7
100
AcDbCircle
 10
147.2229898082
 20
217.537062318
 30
0.0
 40
1.5
  0
LINE
  5
48
330
1F
100
AcDbEntity
  8
Default
  6
HIDDEN2
 62
     7
100
AcDbLine
 10
127.3914748851
 20
216.037062318
 30
0.0
 11
103.5797130855
 21
216.037062318
 31
0.0
  0
LINE
  5
49
330
1F
100
AcDbEntity
  8
Default
  6
HIDDEN2
 62
     7
100
AcDbLine
 10
127.3914748851
 20
219.037062318
 30
0.0
 11
103.5797130855
 21
219.037062318
 31
0.0
  0
LINE
  5
4A
330
1F
100
AcDbEntity
  8
Default
  6
HIDDEN2
 62
     7
100
AcDbLine
 10
127.1097041639
 20
219.037062318
 30
0.0
 11
150.1097041639
 21
219.037062318
 31
0.0
  0
LINE
  5
4B
330
1F
100
AcDbEntity
  8
Default
  6
HIDDEN2
 62
     7
100
AcDbLine
 10
127.1097041639
 20
216.037062318
 30
0.0
 11
150.1097041639
 21
216.037062318
 31
0.0
  0
CIRCLE
  5
4C
330
1F
100
AcDbEntity
  8
0
  6
Continuous
 62
     7
100
AcDbCircle
 10
121.849555016
 20
211.1731012873
 30
0.0
 40
1.5
  0
CIRCLE
  5
4D
330
1F
100
AcDbEntity
  8
0
  6
Continuous
 62
     7
100
AcDbCircle
 10
109.1216329546
 20
223.9010233486
 30
0.0
 40
1.5
  0
INSERT
  5
4F
330
1F
100
AcDbEntity
  8
Default
100
AcDbBlockReference
  2
SEANNOT_GROUP
 10
0.0
 20
0.0
 30
0.0
  0
DIMENSION
  5
8D
330
1F
100
AcDbEntity
  8
Default
  6
Continuous
 62
     7
100
AcDbDimension
  2
DMBLK28
 10
144.2229898082
 20
236.6560157099
 30
0.0
 11
150.9091538744
 21
236.6560157099
 31
0.0
 70
   161
  1
\A1;<>{\H0.5x; \S0^ -0.1;}
 71
     5
 42
-1.0
  3
ISO
100
AcDbAlignedDimension
 13
144.2229898082
 23
229.537062318
 33
0.0
 14
150.2229898082
 24
229.537062318
 34
0.0
  0
DIMENSION
  5
99
330
1F
100
AcDbEntity
  8
Default
  6
Continuous
 62
     7
100
AcDbDimension
  2
DMBLK29
 10
110.6216304449
 20
211.1758452332
 30
0.0
 11
95.4664624061
 21
211.1481218787
 31
0.0
 70
   163
  1
\A1;<>{\H0.5x; \S+0.1^ 0;}
 71
     5
 42
-1.0
  3
ISO
100
AcDbDiametricDimension
 15
107.6216354644
 25
211.1703573413
 35
0.0
 40
0.0
1001
ACAD
1000
DSTYLE
1002
{
1070
   279
1070
     1
1070
     0
1002
}
  0
DIMENSION
  5
A6
330
1F
100
AcDbEntity
  8
Default
  6
Continuous
 62
     7
100
AcDbDimension
  2
DMBLK30
 10
146.5447858612
 20
218.8749858607
 30
0.0
 11
155.9301270377
 21
200.3600996367
 31
0.0
 70
   163
  1
\A1;<>{\H0.5x; \S+0.1^ 0;}
 71
     5
 42
-1.0
  3
ISO
100
AcDbDiametricDimension
 15
147.9011937553
 25
216.1991387752
 35
0.0
 40
0.0
1001
ACAD
1000
DSTYLE
1002
{
1070
   279
1070
     1
1070
     0
1002
}
  0
DIMENSION
  5
B2
330
1F
100
AcDbEntity
  8
Default
  6
Continuous
 62
     7
100
AcDbDimension
  2
DMBLK31
 10
173.7721609729
 20
205.537062318
 30
0.0
 11
173.7721609729
 21
217.5370622136
 31
0.0
 70
   160
  1
\A1;<>{\H0.5x; \S0^ -0.1;}
 71
     5
 42
-1.0
  3
ISO
100
AcDbAlignedDimension
 13
150.2229898082
 23
229.537062318
 33
0.0
 14
147.2229898082
 24
205.537062318
 34
0.0
 50
90.0
100
AcDbRotatedDimension
  0
DIMENSION
  5
BE
330
1F
100
AcDbEntity
  8
Default
  6
Continuous
 62
     7
100
AcDbDimension
  2
DMBLK32
 10
114.6089241066
 20
219.3346857279
 30
0.0
 11
123.5236457064
 21
201.0549288543
 31
0.0
 70
   163
  1
\A1;<>%%p0.05
 71
     5
 42
-1.0
  3
ISO
100
AcDbDiametricDimension
 15
116.362263864
 25
215.7394389081
 35
0.0
 40
0.0
1001
ACAD
1000
DSTYLE
1002
{
1070
   279
1070
     1
1070
     0
1002
}
  0
DIMENSION
  5
C9
330
1F
100
AcDbEntity
  8
Default
  6
Continuous
 62
     7
100
AcDbDimension
  2
DMBLK33
 10
103.4855939853
 20
217.537062318
 30
0.0
 11
100.5887738362
 21
223.7075272599
 31
0.0
 70
   162
  1
\A1;<>
 71
     5
 42
-1.0
  3
ISO
100
AcDb2LineAngularDimension
 13
115.4855939853
 23
217.537062318
 33
0.0
 14
109.1216329546
 24
223.9010233486
 34
0.0
 15
115.4855939853
 25
217.537062318
 35
0.0
 16
100.5887738362
 26
223.7075272599
 36
0.0
1001
ACAD
1000
DSTYLE
1002
{
1070
   172
1070
     0
1070
     0
1002
}
  0
DIMENSION
  5
D3
330
1F
100
AcDbEntity
  8
Default
  6
Continuous
 62
     7
100
AcDbDimension
  2
DMBLK34
 10
121.2249039288
 20
236.0042943228
 30
0.0
 11
127.5888646855
 21
229.6403335661
 31
0.0
 70
   161
  1
\A1;<>%%p0.05
 71
     5
 42
-1.0
  3
ISO
100
AcDbAlignedDimension
 13
109.1216329546
 23
223.9010233486
 33
0.0
 14
121.849555016
 24
211.1731012873
 34
0.0
  0
ENDSEC
  0
SECTION
  2
OBJECTS
  0
DICTIONARY
  5
C
330
0
100
AcDbDictionary
281
     1
  3
ACAD_GROUP
350
D
  3
ACAD_LAYOUT
350
1A
  3
ACAD_MLEADERSTYLE
350
E0
  3
ACAD_MLINESTYLE
350
17
  3
ACAD_PLOTSETTINGS
350
19
  3
ACAD_PLOTSTYLENAME
350
E
  3
ACAD_SCALELIST
350
52
  3
ACAD_VISUALSTYLE
350
2A
  3
AcDbVariableDictionary
350
DE
  0
DICTIONARY
  5
D
102
{ACAD_REACTORS
330
C
102
}
330
C
100
AcDbDictionary
281
     1
  0
DICTIONARY
  5
1A
102
{ACAD_REACTORS
330
C
102
}
330
C
100
AcDbDictionary
281
     1
  3
Layout1
350
1E
  3
Model
350
22
  0
DICTIONARY
  5
E0
102
{ACAD_REACTORS
330
C
102
}
330
C
100
AcDbDictionary
281
     1
  0
DICTIONARY
  5
17
102
{ACAD_REACTORS
330
C
102
}
330
C
100
AcDbDictionary
281
     1
  3
Standard
350
18
  0
DICTIONARY
  5
19
102
{ACAD_REACTORS
330
C
102
}
330
C
100
AcDbDictionary
281
     1
  0
ACDBDICTIONARYWDFLT
  5
E
102
{ACAD_REACTORS
330
C
102
}
330
C
100
AcDbDictionary
281
     1
  3
Normal
350
F
100
AcDbDictionaryWithDefault
340
F
  0
DICTIONARY
  5
52
102
{ACAD_REACTORS
330
C
102
}
330
C
100
AcDbDictionary
281
     1
  3
A0
350
53
  3
A1
350
54
  3
A2
350
55
  3
A3
350
56
  3
A4
350
57
  3
A5
350
58
  3
A6
350
59
  3
A7
350
5A
  3
A8
350
5B
  3
A9
350
5C
  3
B0
350
5D
  3
B1
350
5E
  3
B2
350
5F
  3
B3
350
60
  3
B4
350
61
  3
B5
350
62
  3
B6
350
63
  3
B7
350
64
  3
B8
350
65
  3
B9
350
66
  3
C0
350
67
  3
C1
350
68
  3
C2
350
69
  3
C3
350
6A
  3
C4
350
6B
  3
C5
350
6C
  3
C6
350
6D
  3
C7
350
6E
  3
C8
350
6F
  3
C9
350
70
  3
D0
350
71
  3
D1
350
72
  3
D2
350
73
  0
DICTIONARY
  5
2A
102
{ACAD_REACTORS
330
C
102
}
330
C
100
AcDbDictionary
281
     1
  3
2dWireframe
350
2F
  3
3D Hidden
350
31
  3
3dWireframe
350
30
  3
Basic
350
32
  3
Brighten
350
36
  3
ColorChange
350
3A
  3
Conceptual
350
34
  3
Dim
350
35
  3
Facepattern
350
39
  3
Flat
350
2B
  3
FlatWithEdges
350
2C
  3
Gouraud
350
2D
  3
GouraudWithEdges
350
2E
  3
Linepattern
350
38
  3
Realistic
350
33
  3
Thicken
350
37
  0
DICTIONARY
  5
DE
102
{ACAD_REACTORS
330
C
102
}
330
C
100
AcDbDictionary
281
     1
  3
CANNOSCALE
350
E3
  3
PSOLHEIGHT
350
E2
  3
PSOLWIDTH
350
E1
  0
LAYOUT
  5
1E
102
{ACAD_REACTORS
330
1A
102
}
330
1A
100
AcDbPlotSettings
  1

  2
none_device
  4

  6

 40
0.0
 41
0.0
 42
0.0
 43
0.0
 44
0.0
 45
0.0
 46
0.0
 47
0.0
 48
0.0
 49
0.0
140
0.0
141
0.0
142
1.0
143
1.0
 70
   688
 72
     0
 73
     0
 74
     5
  7

 75
    16
147
1.0
148
0.0
149
0.0
100
AcDbLayout
  1
Layout1
 70
     1
 71
     1
 10
0.0
 20
0.0
 11
594.0
 21
420.0
 12
0.0
 22
0.0
 32
0.0
 14
0.0
 24
0.0
 34
0.0
 15
594.0
 25
420.0
 35
0.0
146
0.0
 13
0.0
 23
0.0
 33
0.0
 16
1.0
 26
0.0
 36
0.0
 17
0.0
 27
1.0
 37
0.0
 76
     0
330
1B
  0
LAYOUT
  5
22
102
{ACAD_REACTORS
330
1A
102
}
330
1A
100
AcDbPlotSettings
  1

  2
none_device
  4

  6

 40
0.0
 41
0.0
 42
0.0
 43
0.0
 44
0.0
 45
0.0
 46
0.0
 47
0.0
 48
0.0
 49
0.0
140
0.0
141
0.0
142
1.0
143
1.0
 70
  1712
 72
     0
 73
     0
 74
     0
  7

 75
     0
147
1.0
148
0.0
149
0.0
100
AcDbLayout
  1
Model
 70
     1
 71
     0
 10
0.0
 20
0.0
 11
594.0
 21
420.0
 12
0.0
 22
0.0
 32
0.0
 14
0.0
 24
0.0
 34
0.0
 15
594.0
 25
420.0
 35
0.0
146
0.0
 13
0.0
 23
0.0
 33
0.0
 16
1.0
 26
0.0
 36
0.0
 17
0.0
 27
1.0
 37
0.0
 76
     0
330
1F
331
29
  0
MLINESTYLE
  5
18
102
{ACAD_REACTORS
330
17
102
}
330
17
100
AcDbMlineStyle
  2
Standard
 70
     0
  3

 62
   256
 51
90.0
 52
90.0
 71
     2
 49
0.5
 62
   256
  6
BYLAYER
 49
-0.5
 62
   256
  6
BYLAYER
  0
ACDBPLACEHOLDER
  5
F
102
{ACAD_REACTORS
330
E
102
}
330
E
  0
SCALE
  5
53
102
{ACAD_REACTORS
330
52
102
}
330
52
100
AcDbScale
 70
     0
300
1:1
140
1.0
141
1.0
290
     1
  0
SCALE
  5
54
102
{ACAD_REACTORS
330
52
102
}
330
52
100
AcDbScale
 70
     0
300
1:2
140
1.0
141
2.0
290
     0
  0
SCALE
  5
55
102
{ACAD_REACTORS
330
52
102
}
330
52
100
AcDbScale
 70
     0
300
1:4
140
1.0
141
4.0
290
     0
  0
SCALE
  5
56
102
{ACAD_REACTORS
330
52
102
}
330
52
100
AcDbScale
 70
     0
300
1:5
140
1.0
141
5.0
290
     0
  0
SCALE
  5
57
102
{ACAD_REACTORS
330
52
102
}
330
52
100
AcDbScale
 70
     0
300
1:8
140
1.0
141
8.0
290
     0
  0
SCALE
  5
58
102
{ACAD_REACTORS
330
52
102
}
330
52
100
AcDbScale
 70
     0
300
1:10
140
1.0
141
10.0
290
     0
  0
SCALE
  5
59
102
{ACAD_REACTORS
330
52
102
}
330
52
100
AcDbScale
 70
     0
300
1:16
140
1.0
141
16.0
290
     0
  0
SCALE
  5
5A
102
{ACAD_REACTORS
330
52
102
}
330
52
100
AcDbScale
 70
     0
300
1:20
140
1.0
141
20.0
290
     0
  0
SCALE
  5
5B
102
{ACAD_REACTORS
330
52
102
}
330
52
100
AcDbScale
 70
     0
300
1:30
140
1.0
141
30.0
290
     0
  0
SCALE
  5
5C
102
{ACAD_REACTORS
330
52
102
}
330
52
100
AcDbScale
 70
     0
300
1:40
140
1.0
141
40.0
290
     0
  0
SCALE
  5
5D
102
{ACAD_REACTORS
330
52
102
}
330
52
100
AcDbScale
 70
     0
300
1:50
140
1.0
141
50.0
290
     0
  0
SCALE
  5
5E
102
{ACAD_REACTORS
330
52
102
}
330
52
100
AcDbScale
 70
     0
300
1:100
140
1.0
141
100.0
290
     0
  0
SCALE
  5
5F
102
{ACAD_REACTORS
330
52
102
}
330
52
100
AcDbScale
 70
     0
300
2:1
140
2.0
141
1.0
290
     0
  0
SCALE
  5
60
102
{ACAD_REACTORS
330
52
102
}
330
52
100
AcDbScale
 70
     0
300
4:1
140
4.0
141
1.0
290
     0
  0
SCALE
  5
61
102
{ACAD_REACTORS
330
52
102
}
330
52
100
AcDbScale
 70
     0
300
8:1
140
8.0
141
1.0
290
     0
  0
SCALE
  5
62
102
{ACAD_REACTORS
330
52
102
}
330
52
100
AcDbScale
 70
     0
300
10:1
140
10.0
141
1.0
290
     0
  0
SCALE
  5
63
102
{ACAD_REACTORS
330
52
102
}
330
52
100
AcDbScale
 70
     0
300
100:1
140
100.0
141
1.0
290
     0
  0
SCALE
  5
64
102
{ACAD_REACTORS
330
52
102
}
330
52
100
AcDbScale
 70
     0
300
1/128" = 1'-0"
140
0.0078125
141
12.0
290
     0
  0
SCALE
  5
65
102
{ACAD_REACTORS
330
52
102
}
330
52
100
AcDbScale
 70
     0
300
1/64" = 1'-0"
140
0.015625
141
12.0
290
     0
  0
SCALE
  5
66
102
{ACAD_REACTORS
330
52
102
}
330
52
100
AcDbScale
 70
     0
300
1/32" = 1'-0"
140
0.03125
141
12.0
290
     0
  0
SCALE
  5
67
102
{ACAD_REACTORS
330
52
102
}
330
52
100
AcDbScale
 70
     0
300
1/16" = 1'-0"
140
0.0625
141
12.0
290
     0
  0
SCALE
  5
68
102
{ACAD_REACTORS
330
52
102
}
330
52
100
AcDbScale
 70
     0
300
3/32" = 1'-0"
140
0.09375
141
12.0
290
     0
  0
SCALE
  5
69
102
{ACAD_REACTORS
330
52
102
}
330
52
100
AcDbScale
 70
     0
300
1/8" = 1'-0"
140
0.125
141
12.0
290
     0
  0
SCALE
  5
6A
102
{ACAD_REACTORS
330
52
102
}
330
52
100
AcDbScale
 70
     0
300
3/16" = 1'-0"
140
0.1875
141
12.0
290
     0
  0
SCALE
  5
6B
102
{ACAD_REACTORS
330
52
102
}
330
52
100
AcDbScale
 70
     0
300
1/4" = 1'-0"
140
0.25
141
12.0
290
     0
  0
SCALE
  5
6C
102
{ACAD_REACTORS
330
52
102
}
330
52
100
AcDbScale
 70
     0
300
3/8" = 1'-0"
140
0.375
141
12.0
290
     0
  0
SCALE
  5
6D
102
{ACAD_REACTORS
330
52
102
}
330
52
100
AcDbScale
 70
     0
300
1/2" = 1'-0"
140
0.5
141
12.0
290
     0
  0
SCALE
  5
6E
102
{ACAD_REACTORS
330
52
102
}
330
52
100
AcDbScale
 70
     0
300
3/4" = 1'-0"
140
0.75
141
12.0
290
     0
  0
SCALE
  5
6F
102
{ACAD_REACTORS
330
52
102
}
330
52
100
AcDbScale
 70
     0
300
1" = 1'-0"
140
1.0
141
12.0
290
     0
  0
SCALE
  5
70
102
{ACAD_REACTORS
330
52
102
}
330
52
100
AcDbScale
 70
     0
300
1-1/2" = 1'-0"
140
1.5
141
12.0
290
     0
  0
SCALE
  5
71
102
{ACAD_REACTORS
330
52
102
}
330
52
100
AcDbScale
 70
     0
300
3" = 1'-0"
140
3.0
141
12.0
290
     0
  0
SCALE
  5
72
102
{ACAD_REACTORS
330
52
102
}
330
52
100
AcDbScale
 70
     0
300
6" = 1'-0"
140
6.0
141
12.0
290
     0
  0
SCALE
  5
73
102
{ACAD_REACTORS
330
52
102
}
330
52
100
AcDbScale
 70
     0
300
1'-0" = 1'-0"
140
12.0
141
12.0
290
     0
  0
VISUALSTYLE
  5
2F
102
{ACAD_REACTORS
330
2A
102
}
330
2A
100
AcDbVisualStyle
  2
2dWireframe
 70
     4
 71
     0
 72
     2
 73
     0
 90
        0
 40
-0.6
 41
-30.0
 62
     5
 63
     7
 74
     1
 91
        4
 64
     7
 65
   257
 75
     1
175
     1
 42
1.0
 92
        0
 66
   257
 43
1.0
 76
     1
 77
     6
 78
     2
 67
     7
 79
     5
170
     0
171
     0
290
     0
174
     0
 93
        1
 44
0.0
173
     0
291
     0
 45
0.0
1001
ACAD
1000
AcDbSavedByObjectVersion
1070
     0
  0
VISUALSTYLE
  5
31
102
{ACAD_REACTORS
330
2A
102
}
330
2A
100
AcDbVisualStyle
  2
3D Hidden
 70
     6
 71
     1
 72
     2
 73
     2
 90
        0
 40
-0.6
 41
-30.0
 62
     5
 63
     7
 74
     2
 91
        2
 64
     7
 65
   257
 75
     2
175
     1
 42
40.0
 92
        0
 66
   257
 43
1.0
 76
     1
 77
     6
 78
     2
 67
     7
 79
     3
170
     0
171
     0
290
     0
174
     0
 93
        1
 44
0.0
173
     0
291
     0
 45
0.0
1001
ACAD
1000
AcDbSavedByObjectVersion
1070
     0
  0
VISUALSTYLE
  5
30
102
{ACAD_REACTORS
330
2A
102
}
330
2A
100
AcDbVisualStyle
  2
3dWireframe
 70
     5
 71
     0
 72
     2
 73
     0
 90
        0
 40
-0.6
 41
-30.0
 62
     5
 63
     7
 74
     1
 91
        4
 64
     7
 65
   257
 75
     1
175
     1
 42
1.0
 92
        0
 66
   257
 43
1.0
 76
     1
 77
     6
 78
     2
 67
     7
 79
     5
170
     0
171
     0
290
     0
174
     0
 93
        1
 44
0.0
173
     0
291
     0
 45
0.0
1001
ACAD
1000
AcDbSavedByObjectVersion
1070
     0
  0
VISUALSTYLE
  5
32
102
{ACAD_REACTORS
330
2A
102
}
330
2A
100
AcDbVisualStyle
  2
Basic
 70
     7
 71
     1
 72
     0
 73
     1
 90
        0
 40
-0.6
 41
-30.0
 62
     5
 63
     7
 74
     0
 91
        4
 64
     7
 65
   257
 75
     1
175
     1
 42
1.0
 92
        8
 66
     7
 43
1.0
 76
     1
 77
     6
 78
     2
 67
     7
 79
     5
170
     0
171
     0
290
     0
174
     0
 93
        1
 44
0.0
173
     0
291
     1
 45
0.0
1001
ACAD
1000
AcDbSavedByObjectVersion
1070
     0
  0
VISUALSTYLE
  5
36
102
{ACAD_REACTORS
330
2A
102
}
330
2A
100
AcDbVisualStyle
  2
Brighten
 70
    12
 71
     2
 72
     2
 73
     0
 90
        0
 40
-0.6
 41
-30.0
 62
     5
 63
     7
 74
     1
 91
        4
 64
     7
 65
   257
 75
     1
175
     1
 42
1.0
 92
        8
 66
     7
 43
1.0
 76
     1
 77
     6
 78
     2
 67
     7
 79
     5
170
     0
171
     0
290
     0
174
     0
 93
        1
 44
50.0
173
     0
291
     1
 45
0.0
1001
ACAD
1000
AcDbSavedByObjectVersion
1070
     0
  0
VISUALSTYLE
  5
3A
102
{ACAD_REACTORS
330
2A
102
}
330
2A
100
AcDbVisualStyle
  2
ColorChange
 70
    16
 71
     2
 72
     2
 73
     3
 90
        0
 40
-0.6
 41
-30.0
 62
     5
 63
     8
 74
     1
 91
        4
 64
     7
 65
   257
 75
     1
175
     1
 42
1.0
 92
        8
 66
     8
 43
1.0
 76
     1
 77
     6
 78
     2
 67
     7
 79
     5
170
     0
171
     0
290
     0
174
     0
 93
        1
 44
0.0
173
     0
291
     1
 45
0.0
1001
ACAD
1000
AcDbSavedByObjectVersion
1070
     0
  0
VISUALSTYLE
  5
34
102
{ACAD_REACTORS
330
2A
102
}
330
2A
100
AcDbVisualStyle
  2
Conceptual
 70
     9
 71
     3
 72
     2
 73
     0
 90
        0
 40
-0.6
 41
-30.0
 62
     5
 63
     7
 74
     2
 91
        2
 64
     7
 65
   257
 75
     1
175
     1
 42
40.0
 92
        8
 66
     7
 43
1.0
 76
     1
 77
     6
 78
     2
 67
     7
 79
     3
170
     0
171
     0
290
     0
174
     0
 93
        1
 44
0.0
173
     0
291
     0
 45
0.0
1001
ACAD
1000
AcDbSavedByObjectVersion
1070
     0
  0
VISUALSTYLE
  5
35
102
{ACAD_REACTORS
330
2A
102
}
330
2A
100
AcDbVisualStyle
  2
Dim
 70
    11
 71
     2
 72
     2
 73
     0
 90
        0
 40
-0.6
 41
-30.0
 62
     5
 63
     7
 74
     1
 91
        4
 64
     7
 65
   257
 75
     1
175
     1
 42
1.0
 92
        8
 66
     7
 43
1.0
 76
     1
 77
     6
 78
     2
 67
     7
 79
     5
170
     0
171
     0
290
     0
174
     0
 93
        1
 44
-50.0
173
     0
291
     1
 45
0.0
1001
ACAD
1000
AcDbSavedByObjectVersion
1070
     0
  0
VISUALSTYLE
  5
39
102
{ACAD_REACTORS
330
2A
102
}
330
2A
100
AcDbVisualStyle
  2
Facepattern
 70
    15
 71
     2
 72
     2
 73
     0
 90
        0
 40
-0.6
 41
-30.0
 62
     5
 63
     7
 74
     1
 91
        4
 64
     7
 65
   257
 75
     1
175
     1
 42
1.0
 92
        8
 66
     7
 43
1.0
 76
     1
 77
     6
 78
     2
 67
     7
 79
     5
170
     0
171
     0
290
     0
174
     0
 93
        1
 44
0.0
173
     0
291
     1
 45
0.0
1001
ACAD
1000
AcDbSavedByObjectVersion
1070
     0
  0
VISUALSTYLE
  5
2B
102
{ACAD_REACTORS
330
2A
102
}
330
2A
100
AcDbVisualStyle
  2
Flat
 70
     0
 71
     2
 72
     1
 73
     1
 90
        2
 40
-0.6
 41
30.0
 62
     5
 63
     7
 74
     0
 91
        4
 64
     7
 65
   257
 75
     1
175
     1
 42
1.0
 92
        8
 66
     7
 43
1.0
 76
     1
 77
     6
 78
     2
 67
     7
 79
     5
170
     0
171
     0
290
     0
174
     0
 93
       13
 44
0.0
173
     0
291
     1
 45
0.0
1001
ACAD
1000
AcDbSavedByObjectVersion
1070
     0
  0
VISUALSTYLE
  5
2C
102
{ACAD_REACTORS
330
2A
102
}
330
2A
100
AcDbVisualStyle
  2
FlatWithEdges
 70
     1
 71
     2
 72
     1
 73
     1
 90
        2
 40
-0.6
 41
30.0
 62
     5
 63
     7
 74
     1
 91
        4
 64
     7
 65
   257
 75
     1
175
     1
 42
1.0
 92
        0
 66
   257
 43
1.0
 76
     1
 77
     6
 78
     2
 67
     7
 79
     5
170
     0
171
     0
290
     0
174
     0
 93
       13
 44
0.0
173
     0
291
     1
 45
0.0
1001
ACAD
1000
AcDbSavedByObjectVersion
1070
     0
  0
VISUALSTYLE
  5
2D
102
{ACAD_REACTORS
330
2A
102
}
330
2A
100
AcDbVisualStyle
  2
Gouraud
 70
     2
 71
     2
 72
     2
 73
     1
 90
        2
 40
-0.6
 41
30.0
 62
     5
 63
     7
 74
     0
 91
        4
 64
     7
 65
   257
 75
     1
175
     1
 42
1.0
 92
        0
 66
     7
 43
1.0
 76
     1
 77
     6
 78
     2
 67
     7
 79
     5
170
     0
171
     0
290
     0
174
     0
 93
       13
 44
0.0
173
     0
291
     1
 45
0.0
1001
ACAD
1000
AcDbSavedByObjectVersion
1070
     0
  0
VISUALSTYLE
  5
2E
102
{ACAD_REACTORS
330
2A
102
}
330
2A
100
AcDbVisualStyle
  2
GouraudWithEdges
 70
     3
 71
     2
 72
     2
 73
     1
 90
        2
 40
-0.6
 41
30.0
 62
     5
 63
     7
 74
     1
 91
        4
 64
     7
 65
   257
 75
     1
175
     1
 42
1.0
 92
        0
 66
   257
 43
1.0
 76
     1
 77
     6
 78
     2
 67
     7
 79
     5
170
     0
171
     0
290
     0
174
     0
 93
       13
 44
0.0
173
     0
291
     1
 45
0.0
1001
ACAD
1000
AcDbSavedByObjectVersion
1070
     0
  0
VISUALSTYLE
  5
38
102
{ACAD_REACTORS
330
2A
102
}
330
2A
100
AcDbVisualStyle
  2
Linepattern
 70
    14
 71
     2
 72
     2
 73
     0
 90
        0
 40
-0.6
 41
-30.0
 62
     5
 63
     7
 74
     1
 91
        4
 64
     7
 65
   257
 75
     7
175
     7
 42
1.0
 92
        8
 66
     7
 43
1.0
 76
     1
 77
     6
 78
     2
 67
     7
 79
     5
170
     0
171
     0
290
     0
174
     0
 93
        1
 44
0.0
173
     0
291
     1
 45
0.0
1001
ACAD
1000
AcDbSavedByObjectVersion
1070
     0
  0
VISUALSTYLE
  5
33
102
{ACAD_REACTORS
330
2A
102
}
330
2A
100
AcDbVisualStyle
  2
Realistic
 70
     8
 71
     2
 72
     2
 73
     0
 90
        0
 40
-0.6
 41
-30.0
 62
     5
 63
     7
 74
     1
 91
        0
 64
     7
 65
   257
 75
     1
175
     1
 42
1.0
 92
        8
 66
     8
 43
1.0
 76
     1
 77
     6
 78
     2
 67
     7
 79
     5
170
     0
171
     0
290
     0
174
     0
 93
       13
 44
0.0
173
     0
291
     0
 45
0.0
1001
ACAD
1000
AcDbSavedByObjectVersion
1070
     0
  0
VISUALSTYLE
  5
37
102
{ACAD_REACTORS
330
2A
102
}
330
2A
100
AcDbVisualStyle
  2
Thicken
 70
    13
 71
     2
 72
     2
 73
     0
 90
        0
 40
-0.6
 41
-30.0
 62
     5
 63
     7
 74
     1
 91
        4
 64
     7
 65
   257
 75
     1
175
     1
 42
1.0
 92
       12
 66
     7
 43
1.0
 76
     1
 77
     6
 78
     2
 67
     7
 79
     5
170
     0
171
     0
290
     0
174
     0
 93
        1
 44
0.0
173
     0
291
     1
 45
0.0
1001
ACAD
1000
AcDbSavedByObjectVersion
1070
     0
  0
DICTIONARYVAR
  5
E3
102
{ACAD_REACTORS
330
DE
102
}
330
DE
100
DictionaryVariables
280
     0
  1
1:1
  0
DICTIONARYVAR
  5
E2
102
{ACAD_REACTORS
330
DE
102
}
330
DE
100
DictionaryVariables
280
     0
  1
80.000000
  0
DICTIONARYVAR
  5
E1
102
{ACAD_REACTORS
330
DE
102
}
330
DE
100
DictionaryVariables
280
     0
  1
5.000000
  0
ENDSEC
  0
EOF
