solid Default
  facet normal 0.000000e+00 0.000000e+00 1.000000e+00
    outer loop
      vertex 4.140575e+00 -1.614505e+01 3.000000e+00
      vertex 4.509529e+00 -1.554294e+01 3.000000e+00
      vertex 1.999999e+00 -1.500000e+01 3.000000e+00
    endloop
  endfacet
  facet normal 0.000000e+00 0.000000e+00 1.000000e+00
    outer loop
      vertex 2.542955e+00 -1.750951e+01 3.000000e+00
      vertex 3.145033e+00 -1.714056e+01 3.000000e+00
      vertex 1.999999e+00 -1.500000e+01 3.000000e+00
    endloop
  endfacet
  facet normal 0.000000e+00 0.000000e+00 1.000000e+00
    outer loop
      vertex 1.999999e+00 -1.500000e+01 3.000000e+00
      vertex 3.145033e+00 -1.714056e+01 3.000000e+00
      vertex 3.681980e+00 -1.668196e+01 3.000000e+00
    endloop
  endfacet
  facet normal 0.000000e+00 0.000000e+00 1.000000e+00
    outer loop
      vertex 1.999999e+00 -1.500000e+01 3.000000e+00
      vertex 3.681980e+00 -1.668196e+01 3.000000e+00
      vertex 4.140575e+00 -1.614505e+01 3.000000e+00
    endloop
  endfacet
  facet normal 0.000000e+00 0.000000e+00 1.000000e+00
    outer loop
      vertex -4.000001e+00 0.000000e+00 3.000000e+00
      vertex -5.000000e+00 -1.000000e+00 3.000000e+00
      vertex -1.000001e+00 -2.999969e+00 3.000000e+00
    endloop
  endfacet
  facet normal 0.000000e+00 0.000000e+00 1.000000e+00
    outer loop
      vertex -1.000001e+00 -2.999969e+00 3.000000e+00
      vertex -5.000000e+00 -1.000000e+00 3.000000e+00
      vertex -4.000001e+00 -2.000000e+00 3.000000e+00
    endloop
  endfacet
  facet normal 0.000000e+00 0.000000e+00 1.000000e+00
    outer loop
      vertex 1.999999e+00 6.000031e+00 3.000000e+00
      vertex 1.999999e+00 3.000000e+00 3.000000e+00
      vertex 5.000000e+00 1.350000e+01 3.000000e+00
    endloop
  endfacet
  facet normal 0.000000e+00 0.000000e+00 1.000000e+00
    outer loop
      vertex 5.000000e+00 1.350000e+01 3.000000e+00
      vertex 1.999999e+00 3.000000e+00 3.000000e+00
      vertex 1.999999e+00 -2.999969e+00 3.000000e+00
    endloop
  endfacet
  facet normal 0.000000e+00 0.000000e+00 1.000000e+00
    outer loop
      vertex 5.000000e+00 1.350000e+01 3.000000e+00
      vertex 1.999999e+00 -2.999969e+00 3.000000e+00
      vertex 1.999999e+00 -6.000000e+00 3.000000e+00
    endloop
  endfacet
  facet normal 0.000000e+00 0.000000e+00 1.000000e+00
    outer loop
      vertex -4.000001e+00 -1.800000e+01 3.000000e+00
      vertex 5.000000e-01 -1.800000e+01 3.000000e+00
      vertex -1.000001e+00 -1.500000e+01 3.000000e+00
    endloop
  endfacet
  facet normal 0.000000e+00 0.000000e+00 1.000000e+00
    outer loop
      vertex -1.000001e+00 -1.500000e+01 3.000000e+00
      vertex 5.000000e-01 -1.800000e+01 3.000000e+00
      vertex 1.203955e+00 -1.794460e+01 3.000000e+00
    endloop
  endfacet
  facet normal 0.000000e+00 0.000000e+00 1.000000e+00
    outer loop
      vertex -1.000001e+00 -1.500000e+01 3.000000e+00
      vertex 1.203955e+00 -1.794460e+01 3.000000e+00
      vertex 1.999999e+00 -1.500000e+01 3.000000e+00
    endloop
  endfacet
  facet normal 0.000000e+00 0.000000e+00 1.000000e+00
    outer loop
      vertex 1.999999e+00 -1.500000e+01 3.000000e+00
      vertex 1.203955e+00 -1.794460e+01 3.000000e+00
      vertex 1.890576e+00 -1.777975e+01 3.000000e+00
    endloop
  endfacet
  facet normal 0.000000e+00 0.000000e+00 1.000000e+00
    outer loop
      vertex 1.999999e+00 -1.500000e+01 3.000000e+00
      vertex 1.890576e+00 -1.777975e+01 3.000000e+00
      vertex 2.542955e+00 -1.750951e+01 3.000000e+00
    endloop
  endfacet
  facet normal 0.000000e+00 0.000000e+00 1.000000e+00
    outer loop
      vertex -4.000001e+00 -1.200000e+01 3.000000e+00
      vertex -5.000000e+00 -1.300000e+01 3.000000e+00
      vertex -1.000001e+00 -1.200000e+01 3.000000e+00
    endloop
  endfacet
  facet normal 0.000000e+00 0.000000e+00 1.000000e+00
    outer loop
      vertex -1.000001e+00 -1.200000e+01 3.000000e+00
      vertex -5.000000e+00 -1.300000e+01 3.000000e+00
      vertex -4.000001e+00 -1.400000e+01 3.000000e+00
    endloop
  endfacet
  facet normal 0.000000e+00 0.000000e+00 1.000000e+00
    outer loop
      vertex -1.000001e+00 -1.200000e+01 3.000000e+00
      vertex -4.000001e+00 -1.400000e+01 3.000000e+00
      vertex -1.000001e+00 -1.500000e+01 3.000000e+00
    endloop
  endfacet
  facet normal 0.000000e+00 0.000000e+00 1.000000e+00
    outer loop
      vertex -5.000000e+00 -1.699998e+01 3.000000e+00
      vertex -4.000001e+00 -1.800000e+01 3.000000e+00
      vertex -4.000001e+00 -1.600000e+01 3.000000e+00
    endloop
  endfacet
  facet normal 0.000000e+00 0.000000e+00 1.000000e+00
    outer loop
      vertex -4.000001e+00 -1.600000e+01 3.000000e+00
      vertex -4.000001e+00 -1.800000e+01 3.000000e+00
      vertex -1.000001e+00 -1.500000e+01 3.000000e+00
    endloop
  endfacet
  facet normal 0.000000e+00 0.000000e+00 1.000000e+00
    outer loop
      vertex -4.000001e+00 -1.600000e+01 3.000000e+00
      vertex -1.000001e+00 -1.500000e+01 3.000000e+00
      vertex -5.000000e+00 -1.500000e+01 3.000000e+00
    endloop
  endfacet
  facet normal 0.000000e+00 0.000000e+00 1.000000e+00
    outer loop
      vertex -5.000000e+00 -1.500000e+01 3.000000e+00
      vertex -1.000001e+00 -1.500000e+01 3.000000e+00
      vertex -4.000001e+00 -1.400000e+01 3.000000e+00
    endloop
  endfacet
  facet normal 0.000000e+00 0.000000e+00 1.000000e+00
    outer loop
      vertex -4.000001e+00 -4.000000e+00 3.000000e+00
      vertex -5.000000e+00 -5.000000e+00 3.000000e+00
      vertex -4.000001e+00 -6.000000e+00 3.000000e+00
    endloop
  endfacet
  facet normal 0.000000e+00 0.000000e+00 1.000000e+00
    outer loop
      vertex -4.000001e+00 2.000000e+00 3.000000e+00
      vertex -5.000000e+00 1.000000e+00 3.000000e+00
      vertex -4.000001e+00 0.000000e+00 3.000000e+00
    endloop
  endfacet
  facet normal 0.000000e+00 0.000000e+00 1.000000e+00
    outer loop
      vertex 5.000000e+00 -1.350000e+01 3.000000e+00
      vertex 1.999999e+00 -1.200000e+01 3.000000e+00
      vertex 4.944597e+00 -1.420395e+01 3.000000e+00
    endloop
  endfacet
  facet normal 0.000000e+00 0.000000e+00 1.000000e+00
    outer loop
      vertex 4.944597e+00 -1.420395e+01 3.000000e+00
      vertex 1.999999e+00 -1.200000e+01 3.000000e+00
      vertex 1.999999e+00 -1.500000e+01 3.000000e+00
    endloop
  endfacet
  facet normal 0.000000e+00 0.000000e+00 1.000000e+00
    outer loop
      vertex 4.944597e+00 -1.420395e+01 3.000000e+00
      vertex 1.999999e+00 -1.500000e+01 3.000000e+00
      vertex 4.779753e+00 -1.489056e+01 3.000000e+00
    endloop
  endfacet
  facet normal 0.000000e+00 0.000000e+00 1.000000e+00
    outer loop
      vertex 4.779753e+00 -1.489056e+01 3.000000e+00
      vertex 1.999999e+00 -1.500000e+01 3.000000e+00
      vertex 4.509529e+00 -1.554294e+01 3.000000e+00
    endloop
  endfacet
  facet normal 0.000000e+00 0.000000e+00 1.000000e+00
    outer loop
      vertex -4.000001e+00 -2.000000e+00 3.000000e+00
      vertex -5.000000e+00 -2.999969e+00 3.000000e+00
      vertex -1.000001e+00 -2.999969e+00 3.000000e+00
    endloop
  endfacet
  facet normal 0.000000e+00 0.000000e+00 1.000000e+00
    outer loop
      vertex -1.000001e+00 -2.999969e+00 3.000000e+00
      vertex -5.000000e+00 -2.999969e+00 3.000000e+00
      vertex -4.000001e+00 -4.000000e+00 3.000000e+00
    endloop
  endfacet
  facet normal 0.000000e+00 0.000000e+00 1.000000e+00
    outer loop
      vertex -1.000001e+00 -2.999969e+00 3.000000e+00
      vertex -4.000001e+00 -4.000000e+00 3.000000e+00
      vertex -1.000001e+00 -6.000000e+00 3.000000e+00
    endloop
  endfacet
  facet normal 0.000000e+00 0.000000e+00 1.000000e+00
    outer loop
      vertex -1.000001e+00 -6.000000e+00 3.000000e+00
      vertex -4.000001e+00 -4.000000e+00 3.000000e+00
      vertex -4.000001e+00 -6.000000e+00 3.000000e+00
    endloop
  endfacet
  facet normal 0.000000e+00 0.000000e+00 1.000000e+00
    outer loop
      vertex -4.000001e+00 1.000000e+01 3.000000e+00
      vertex -5.000000e+00 9.000000e+00 3.000000e+00
      vertex -4.000001e+00 8.000000e+00 3.000000e+00
    endloop
  endfacet
  facet normal 0.000000e+00 0.000000e+00 1.000000e+00
    outer loop
      vertex -5.000000e+00 -9.000000e+00 3.000000e+00
      vertex -4.000001e+00 -9.999969e+00 3.000000e+00
      vertex -4.000001e+00 -8.000000e+00 3.000000e+00
    endloop
  endfacet
  facet normal 0.000000e+00 0.000000e+00 1.000000e+00
    outer loop
      vertex -4.000001e+00 -8.000000e+00 3.000000e+00
      vertex -4.000001e+00 -9.999969e+00 3.000000e+00
      vertex -1.000001e+00 -6.000000e+00 3.000000e+00
    endloop
  endfacet
  facet normal 0.000000e+00 0.000000e+00 1.000000e+00
    outer loop
      vertex -4.000001e+00 -8.000000e+00 3.000000e+00
      vertex -1.000001e+00 -6.000000e+00 3.000000e+00
      vertex -5.000000e+00 -7.000000e+00 3.000000e+00
    endloop
  endfacet
  facet normal 0.000000e+00 0.000000e+00 1.000000e+00
    outer loop
      vertex -5.000000e+00 -7.000000e+00 3.000000e+00
      vertex -1.000001e+00 -6.000000e+00 3.000000e+00
      vertex -4.000001e+00 -6.000000e+00 3.000000e+00
    endloop
  endfacet
  facet normal 0.000000e+00 0.000000e+00 1.000000e+00
    outer loop
      vertex 5.000000e+00 -1.350000e+01 3.000000e+00
      vertex 5.000000e+00 1.350000e+01 3.000000e+00
      vertex 1.999999e+00 -1.200000e+01 3.000000e+00
    endloop
  endfacet
  facet normal 0.000000e+00 0.000000e+00 1.000000e+00
    outer loop
      vertex 1.999999e+00 -1.200000e+01 3.000000e+00
      vertex 5.000000e+00 1.350000e+01 3.000000e+00
      vertex 1.999999e+00 -6.000000e+00 3.000000e+00
    endloop
  endfacet
  facet normal 0.000000e+00 0.000000e+00 1.000000e+00
    outer loop
      vertex 1.999999e+00 -1.200000e+01 3.000000e+00
      vertex 1.999999e+00 -6.000000e+00 3.000000e+00
      vertex -1.000001e+00 -1.200000e+01 3.000000e+00
    endloop
  endfacet
  facet normal 0.000000e+00 0.000000e+00 1.000000e+00
    outer loop
      vertex -1.000001e+00 -1.200000e+01 3.000000e+00
      vertex 1.999999e+00 -6.000000e+00 3.000000e+00
      vertex -1.000001e+00 -6.000000e+00 3.000000e+00
    endloop
  endfacet
  facet normal 0.000000e+00 0.000000e+00 1.000000e+00
    outer loop
      vertex -1.000001e+00 -1.200000e+01 3.000000e+00
      vertex -1.000001e+00 -6.000000e+00 3.000000e+00
      vertex -4.000001e+00 -1.200000e+01 3.000000e+00
    endloop
  endfacet
  facet normal 0.000000e+00 0.000000e+00 1.000000e+00
    outer loop
      vertex -4.000001e+00 -1.200000e+01 3.000000e+00
      vertex -1.000001e+00 -6.000000e+00 3.000000e+00
      vertex -4.000001e+00 -9.999969e+00 3.000000e+00
    endloop
  endfacet
  facet normal 0.000000e+00 0.000000e+00 1.000000e+00
    outer loop
      vertex -4.000001e+00 -1.200000e+01 3.000000e+00
      vertex -4.000001e+00 -9.999969e+00 3.000000e+00
      vertex -5.000000e+00 -1.100000e+01 3.000000e+00
    endloop
  endfacet
  facet normal 0.000000e+00 0.000000e+00 1.000000e+00
    outer loop
      vertex -4.000001e+00 8.000000e+00 3.000000e+00
      vertex -5.000000e+00 7.000000e+00 3.000000e+00
      vertex -1.000001e+00 6.000031e+00 3.000000e+00
    endloop
  endfacet
  facet normal 0.000000e+00 0.000000e+00 1.000000e+00
    outer loop
      vertex -1.000001e+00 6.000031e+00 3.000000e+00
      vertex -5.000000e+00 7.000000e+00 3.000000e+00
      vertex -4.000001e+00 6.000031e+00 3.000000e+00
    endloop
  endfacet
  facet normal 0.000000e+00 0.000000e+00 1.000000e+00
    outer loop
      vertex -4.000001e+00 1.200000e+01 3.000000e+00
      vertex -5.000000e+00 1.100000e+01 3.000000e+00
      vertex -4.000001e+00 1.000000e+01 3.000000e+00
    endloop
  endfacet
  facet normal 0.000000e+00 0.000000e+00 1.000000e+00
    outer loop
      vertex 4.779753e+00 1.489059e+01 3.000000e+00
      vertex 4.509529e+00 1.554297e+01 3.000000e+00
      vertex 1.999999e+00 1.500000e+01 3.000000e+00
    endloop
  endfacet
  facet normal 0.000000e+00 0.000000e+00 1.000000e+00
    outer loop
      vertex 1.999999e+00 1.500000e+01 3.000000e+00
      vertex 4.509529e+00 1.554297e+01 3.000000e+00
      vertex 4.140575e+00 1.614502e+01 3.000000e+00
    endloop
  endfacet
  facet normal 0.000000e+00 0.000000e+00 1.000000e+00
    outer loop
      vertex -1.000001e+00 6.000031e+00 3.000000e+00
      vertex 1.999999e+00 6.000031e+00 3.000000e+00
      vertex -1.000001e+00 1.200000e+01 3.000000e+00
    endloop
  endfacet
  facet normal 0.000000e+00 0.000000e+00 1.000000e+00
    outer loop
      vertex -4.000001e+00 6.000031e+00 3.000000e+00
      vertex -5.000000e+00 5.000000e+00 3.000000e+00
      vertex -1.000001e+00 6.000031e+00 3.000000e+00
    endloop
  endfacet
  facet normal 0.000000e+00 0.000000e+00 1.000000e+00
    outer loop
      vertex -1.000001e+00 6.000031e+00 3.000000e+00
      vertex -5.000000e+00 5.000000e+00 3.000000e+00
      vertex -4.000001e+00 4.000000e+00 3.000000e+00
    endloop
  endfacet
  facet normal 0.000000e+00 0.000000e+00 1.000000e+00
    outer loop
      vertex -1.000001e+00 6.000031e+00 3.000000e+00
      vertex -4.000001e+00 4.000000e+00 3.000000e+00
      vertex -1.000001e+00 3.000000e+00 3.000000e+00
    endloop
  endfacet
  facet normal 0.000000e+00 0.000000e+00 1.000000e+00
    outer loop
      vertex -1.000001e+00 3.000000e+00 3.000000e+00
      vertex -4.000001e+00 4.000000e+00 3.000000e+00
      vertex -5.000000e+00 3.000000e+00 3.000000e+00
    endloop
  endfacet
  facet normal 0.000000e+00 0.000000e+00 1.000000e+00
    outer loop
      vertex -5.000000e+00 3.000000e+00 3.000000e+00
      vertex -4.000001e+00 2.000000e+00 3.000000e+00
      vertex -1.000001e+00 3.000000e+00 3.000000e+00
    endloop
  endfacet
  facet normal 0.000000e+00 0.000000e+00 1.000000e+00
    outer loop
      vertex -1.000001e+00 3.000000e+00 3.000000e+00
      vertex -4.000001e+00 2.000000e+00 3.000000e+00
      vertex -4.000001e+00 0.000000e+00 3.000000e+00
    endloop
  endfacet
  facet normal 0.000000e+00 0.000000e+00 1.000000e+00
    outer loop
      vertex -1.000001e+00 3.000000e+00 3.000000e+00
      vertex -4.000001e+00 0.000000e+00 3.000000e+00
      vertex 1.999999e+00 3.000000e+00 3.000000e+00
    endloop
  endfacet
  facet normal 0.000000e+00 0.000000e+00 1.000000e+00
    outer loop
      vertex 1.999999e+00 3.000000e+00 3.000000e+00
      vertex -4.000001e+00 0.000000e+00 3.000000e+00
      vertex -1.000001e+00 -2.999969e+00 3.000000e+00
    endloop
  endfacet
  facet normal 0.000000e+00 0.000000e+00 1.000000e+00
    outer loop
      vertex 1.999999e+00 3.000000e+00 3.000000e+00
      vertex -1.000001e+00 -2.999969e+00 3.000000e+00
      vertex 1.999999e+00 -2.999969e+00 3.000000e+00
    endloop
  endfacet
  facet normal 0.000000e+00 0.000000e+00 1.000000e+00
    outer loop
      vertex -1.000001e+00 1.200000e+01 3.000000e+00
      vertex 1.999999e+00 6.000031e+00 3.000000e+00
      vertex 1.999999e+00 1.200000e+01 3.000000e+00
    endloop
  endfacet
  facet normal 0.000000e+00 0.000000e+00 1.000000e+00
    outer loop
      vertex 1.999999e+00 1.200000e+01 3.000000e+00
      vertex 1.999999e+00 6.000031e+00 3.000000e+00
      vertex 5.000000e+00 1.350000e+01 3.000000e+00
    endloop
  endfacet
  facet normal 0.000000e+00 0.000000e+00 1.000000e+00
    outer loop
      vertex 1.999999e+00 1.200000e+01 3.000000e+00
      vertex 5.000000e+00 1.350000e+01 3.000000e+00
      vertex 1.999999e+00 1.500000e+01 3.000000e+00
    endloop
  endfacet
  facet normal 0.000000e+00 0.000000e+00 1.000000e+00
    outer loop
      vertex 1.999999e+00 1.500000e+01 3.000000e+00
      vertex 5.000000e+00 1.350000e+01 3.000000e+00
      vertex 4.944597e+00 1.420398e+01 3.000000e+00
    endloop
  endfacet
  facet normal 0.000000e+00 0.000000e+00 1.000000e+00
    outer loop
      vertex 1.999999e+00 1.500000e+01 3.000000e+00
      vertex 4.944597e+00 1.420398e+01 3.000000e+00
      vertex 4.779753e+00 1.489059e+01 3.000000e+00
    endloop
  endfacet
  facet normal 0.000000e+00 0.000000e+00 1.000000e+00
    outer loop
      vertex -4.000001e+00 1.800000e+01 3.000000e+00
      vertex -5.000000e+00 1.700000e+01 3.000000e+00
      vertex -1.000001e+00 1.500000e+01 3.000000e+00
    endloop
  endfacet
  facet normal 0.000000e+00 0.000000e+00 1.000000e+00
    outer loop
      vertex -1.000001e+00 1.500000e+01 3.000000e+00
      vertex -5.000000e+00 1.700000e+01 3.000000e+00
      vertex -4.000001e+00 1.600000e+01 3.000000e+00
    endloop
  endfacet
  facet normal 0.000000e+00 0.000000e+00 1.000000e+00
    outer loop
      vertex -4.000001e+00 1.600000e+01 3.000000e+00
      vertex -5.000000e+00 1.500000e+01 3.000000e+00
      vertex -1.000001e+00 1.500000e+01 3.000000e+00
    endloop
  endfacet
  facet normal 0.000000e+00 0.000000e+00 1.000000e+00
    outer loop
      vertex -1.000001e+00 1.500000e+01 3.000000e+00
      vertex -5.000000e+00 1.500000e+01 3.000000e+00
      vertex -4.000001e+00 1.400000e+01 3.000000e+00
    endloop
  endfacet
  facet normal 0.000000e+00 0.000000e+00 1.000000e+00
    outer loop
      vertex -1.000001e+00 1.500000e+01 3.000000e+00
      vertex -4.000001e+00 1.400000e+01 3.000000e+00
      vertex -1.000001e+00 1.200000e+01 3.000000e+00
    endloop
  endfacet
  facet normal 0.000000e+00 0.000000e+00 1.000000e+00
    outer loop
      vertex 4.140575e+00 1.614502e+01 3.000000e+00
      vertex 3.681980e+00 1.668198e+01 3.000000e+00
      vertex 1.999999e+00 1.500000e+01 3.000000e+00
    endloop
  endfacet
  facet normal 0.000000e+00 0.000000e+00 1.000000e+00
    outer loop
      vertex 1.999999e+00 1.500000e+01 3.000000e+00
      vertex 3.681980e+00 1.668198e+01 3.000000e+00
      vertex 3.145033e+00 1.714056e+01 3.000000e+00
    endloop
  endfacet
  facet normal 0.000000e+00 0.000000e+00 1.000000e+00
    outer loop
      vertex 1.999999e+00 1.500000e+01 3.000000e+00
      vertex 3.145033e+00 1.714056e+01 3.000000e+00
      vertex 2.542955e+00 1.750952e+01 3.000000e+00
    endloop
  endfacet
  facet normal 0.000000e+00 0.000000e+00 1.000000e+00
    outer loop
      vertex 2.542955e+00 1.750952e+01 3.000000e+00
      vertex 1.890576e+00 1.777975e+01 3.000000e+00
      vertex 1.999999e+00 1.500000e+01 3.000000e+00
    endloop
  endfacet
  facet normal 0.000000e+00 0.000000e+00 1.000000e+00
    outer loop
      vertex 1.999999e+00 1.500000e+01 3.000000e+00
      vertex 1.890576e+00 1.777975e+01 3.000000e+00
      vertex 1.203955e+00 1.794461e+01 3.000000e+00
    endloop
  endfacet
  facet normal 0.000000e+00 0.000000e+00 1.000000e+00
    outer loop
      vertex 1.999999e+00 1.500000e+01 3.000000e+00
      vertex 1.203955e+00 1.794461e+01 3.000000e+00
      vertex -1.000001e+00 1.500000e+01 3.000000e+00
    endloop
  endfacet
  facet normal 0.000000e+00 0.000000e+00 1.000000e+00
    outer loop
      vertex -1.000001e+00 1.500000e+01 3.000000e+00
      vertex 1.203955e+00 1.794461e+01 3.000000e+00
      vertex 5.000000e-01 1.800000e+01 3.000000e+00
    endloop
  endfacet
  facet normal 0.000000e+00 0.000000e+00 1.000000e+00
    outer loop
      vertex -1.000001e+00 1.500000e+01 3.000000e+00
      vertex 5.000000e-01 1.800000e+01 3.000000e+00
      vertex -4.000001e+00 1.800000e+01 3.000000e+00
    endloop
  endfacet
  facet normal 0.000000e+00 0.000000e+00 1.000000e+00
    outer loop
      vertex -4.000001e+00 8.000000e+00 3.000000e+00
      vertex -1.000001e+00 6.000031e+00 3.000000e+00
      vertex -4.000001e+00 1.000000e+01 3.000000e+00
    endloop
  endfacet
  facet normal 0.000000e+00 0.000000e+00 1.000000e+00
    outer loop
      vertex -4.000001e+00 1.000000e+01 3.000000e+00
      vertex -1.000001e+00 6.000031e+00 3.000000e+00
      vertex -1.000001e+00 1.200000e+01 3.000000e+00
    endloop
  endfacet
  facet normal 0.000000e+00 0.000000e+00 1.000000e+00
    outer loop
      vertex -4.000001e+00 1.000000e+01 3.000000e+00
      vertex -1.000001e+00 1.200000e+01 3.000000e+00
      vertex -4.000001e+00 1.200000e+01 3.000000e+00
    endloop
  endfacet
  facet normal 0.000000e+00 0.000000e+00 1.000000e+00
    outer loop
      vertex -4.000001e+00 1.200000e+01 3.000000e+00
      vertex -1.000001e+00 1.200000e+01 3.000000e+00
      vertex -4.000001e+00 1.400000e+01 3.000000e+00
    endloop
  endfacet
  facet normal 0.000000e+00 0.000000e+00 1.000000e+00
    outer loop
      vertex -4.000001e+00 1.200000e+01 3.000000e+00
      vertex -4.000001e+00 1.400000e+01 3.000000e+00
      vertex -5.000000e+00 1.300003e+01 3.000000e+00
    endloop
  endfacet
  facet normal 0.000000e+00 0.000000e+00 -1.000000e+00
    outer loop
      vertex -4.000001e+00 -6.000000e+00 0.000000e+00
      vertex -5.000000e+00 -5.000000e+00 0.000000e+00
      vertex -4.000001e+00 -4.000000e+00 0.000000e+00
    endloop
  endfacet
  facet normal 0.000000e+00 0.000000e+00 -1.000000e+00
    outer loop
      vertex -4.000001e+00 -2.000000e+00 0.000000e+00
      vertex -5.000000e+00 -1.000000e+00 0.000000e+00
      vertex -4.000001e+00 0.000000e+00 0.000000e+00
    endloop
  endfacet
  facet normal 0.000000e+00 0.000000e+00 -1.000000e+00
    outer loop
      vertex -4.000001e+00 0.000000e+00 0.000000e+00
      vertex -1.000001e+00 -2.999969e+00 0.000000e+00
      vertex -4.000001e+00 -2.000000e+00 0.000000e+00
    endloop
  endfacet
  facet normal 0.000000e+00 0.000000e+00 -1.000000e+00
    outer loop
      vertex -4.000001e+00 -2.000000e+00 0.000000e+00
      vertex -1.000001e+00 -2.999969e+00 0.000000e+00
      vertex -4.000001e+00 -4.000000e+00 0.000000e+00
    endloop
  endfacet
  facet normal 0.000000e+00 0.000000e+00 -1.000000e+00
    outer loop
      vertex -4.000001e+00 -2.000000e+00 0.000000e+00
      vertex -4.000001e+00 -4.000000e+00 0.000000e+00
      vertex -5.000000e+00 -2.999969e+00 0.000000e+00
    endloop
  endfacet
  facet normal 0.000000e+00 0.000000e+00 -1.000000e+00
    outer loop
      vertex -4.000001e+00 -1.800000e+01 0.000000e+00
      vertex -5.000000e+00 -1.699998e+01 0.000000e+00
      vertex -1.000001e+00 -1.500000e+01 0.000000e+00
    endloop
  endfacet
  facet normal 0.000000e+00 0.000000e+00 -1.000000e+00
    outer loop
      vertex -1.000001e+00 -1.500000e+01 0.000000e+00
      vertex -5.000000e+00 -1.699998e+01 0.000000e+00
      vertex -4.000001e+00 -1.600000e+01 0.000000e+00
    endloop
  endfacet
  facet normal 0.000000e+00 0.000000e+00 -1.000000e+00
    outer loop
      vertex -4.000001e+00 0.000000e+00 0.000000e+00
      vertex -5.000000e+00 1.000000e+00 0.000000e+00
      vertex -1.000001e+00 3.000000e+00 0.000000e+00
    endloop
  endfacet
  facet normal 0.000000e+00 0.000000e+00 -1.000000e+00
    outer loop
      vertex -1.000001e+00 3.000000e+00 0.000000e+00
      vertex -5.000000e+00 1.000000e+00 0.000000e+00
      vertex -4.000001e+00 2.000000e+00 0.000000e+00
    endloop
  endfacet
  facet normal 0.000000e+00 0.000000e+00 -1.000000e+00
    outer loop
      vertex -4.000001e+00 -1.400000e+01 0.000000e+00
      vertex -5.000000e+00 -1.300000e+01 0.000000e+00
      vertex -4.000001e+00 -1.200000e+01 0.000000e+00
    endloop
  endfacet
  facet normal 0.000000e+00 0.000000e+00 -1.000000e+00
    outer loop
      vertex -4.000001e+00 4.000000e+00 0.000000e+00
      vertex -5.000000e+00 5.000000e+00 0.000000e+00
      vertex -4.000001e+00 6.000031e+00 0.000000e+00
    endloop
  endfacet
  facet normal 0.000000e+00 0.000000e+00 -1.000000e+00
    outer loop
      vertex 5.000000e+00 1.350000e+01 0.000000e+00
      vertex 5.000000e+00 -1.350000e+01 0.000000e+00
      vertex 1.999999e+00 3.000000e+00 0.000000e+00
    endloop
  endfacet
  facet normal 0.000000e+00 0.000000e+00 -1.000000e+00
    outer loop
      vertex 4.779753e+00 -1.489056e+01 0.000000e+00
      vertex 4.509529e+00 -1.554294e+01 0.000000e+00
      vertex 1.999999e+00 -1.500000e+01 0.000000e+00
    endloop
  endfacet
  facet normal 0.000000e+00 0.000000e+00 -1.000000e+00
    outer loop
      vertex 1.999999e+00 -1.200000e+01 0.000000e+00
      vertex -1.000001e+00 -1.200000e+01 0.000000e+00
      vertex -1.000001e+00 -6.000000e+00 0.000000e+00
    endloop
  endfacet
  facet normal 0.000000e+00 0.000000e+00 -1.000000e+00
    outer loop
      vertex -4.000001e+00 0.000000e+00 0.000000e+00
      vertex -1.000001e+00 3.000000e+00 0.000000e+00
      vertex -1.000001e+00 -2.999969e+00 0.000000e+00
    endloop
  endfacet
  facet normal 0.000000e+00 0.000000e+00 -1.000000e+00
    outer loop
      vertex -1.000001e+00 -2.999969e+00 0.000000e+00
      vertex -1.000001e+00 3.000000e+00 0.000000e+00
      vertex 1.999999e+00 3.000000e+00 0.000000e+00
    endloop
  endfacet
  facet normal 0.000000e+00 0.000000e+00 -1.000000e+00
    outer loop
      vertex -1.000001e+00 -2.999969e+00 0.000000e+00
      vertex 1.999999e+00 3.000000e+00 0.000000e+00
      vertex 1.999999e+00 -2.999969e+00 0.000000e+00
    endloop
  endfacet
  facet normal 0.000000e+00 0.000000e+00 -1.000000e+00
    outer loop
      vertex 1.999999e+00 -2.999969e+00 0.000000e+00
      vertex 1.999999e+00 3.000000e+00 0.000000e+00
      vertex 5.000000e+00 -1.350000e+01 0.000000e+00
    endloop
  endfacet
  facet normal 0.000000e+00 0.000000e+00 -1.000000e+00
    outer loop
      vertex 1.999999e+00 -2.999969e+00 0.000000e+00
      vertex 5.000000e+00 -1.350000e+01 0.000000e+00
      vertex 1.999999e+00 -6.000000e+00 0.000000e+00
    endloop
  endfacet
  facet normal 0.000000e+00 0.000000e+00 -1.000000e+00
    outer loop
      vertex -4.000001e+00 1.200000e+01 0.000000e+00
      vertex -5.000000e+00 1.300003e+01 0.000000e+00
      vertex -4.000001e+00 1.400000e+01 0.000000e+00
    endloop
  endfacet
  facet normal 0.000000e+00 0.000000e+00 -1.000000e+00
    outer loop
      vertex -4.000001e+00 -1.600000e+01 0.000000e+00
      vertex -5.000000e+00 -1.500000e+01 0.000000e+00
      vertex -1.000001e+00 -1.500000e+01 0.000000e+00
    endloop
  endfacet
  facet normal 0.000000e+00 0.000000e+00 -1.000000e+00
    outer loop
      vertex -1.000001e+00 -1.500000e+01 0.000000e+00
      vertex -5.000000e+00 -1.500000e+01 0.000000e+00
      vertex -4.000001e+00 -1.400000e+01 0.000000e+00
    endloop
  endfacet
  facet normal 0.000000e+00 0.000000e+00 -1.000000e+00
    outer loop
      vertex -1.000001e+00 -1.500000e+01 0.000000e+00
      vertex -4.000001e+00 -1.400000e+01 0.000000e+00
      vertex -1.000001e+00 -1.200000e+01 0.000000e+00
    endloop
  endfacet
  facet normal 0.000000e+00 0.000000e+00 -1.000000e+00
    outer loop
      vertex -1.000001e+00 -1.200000e+01 0.000000e+00
      vertex -4.000001e+00 -1.400000e+01 0.000000e+00
      vertex -4.000001e+00 -1.200000e+01 0.000000e+00
    endloop
  endfacet
  facet normal 0.000000e+00 0.000000e+00 -1.000000e+00
    outer loop
      vertex 1.999999e+00 -1.500000e+01 0.000000e+00
      vertex 3.145033e+00 -1.714056e+01 0.000000e+00
      vertex 2.542955e+00 -1.750951e+01 0.000000e+00
    endloop
  endfacet
  facet normal 0.000000e+00 0.000000e+00 -1.000000e+00
    outer loop
      vertex 2.542955e+00 -1.750951e+01 0.000000e+00
      vertex 1.890576e+00 -1.777975e+01 0.000000e+00
      vertex 1.999999e+00 -1.500000e+01 0.000000e+00
    endloop
  endfacet
  facet normal 0.000000e+00 0.000000e+00 -1.000000e+00
    outer loop
      vertex 1.999999e+00 -1.500000e+01 0.000000e+00
      vertex 1.890576e+00 -1.777975e+01 0.000000e+00
      vertex 1.203955e+00 -1.794460e+01 0.000000e+00
    endloop
  endfacet
  facet normal 0.000000e+00 0.000000e+00 -1.000000e+00
    outer loop
      vertex 1.999999e+00 -1.500000e+01 0.000000e+00
      vertex 1.203955e+00 -1.794460e+01 0.000000e+00
      vertex -1.000001e+00 -1.500000e+01 0.000000e+00
    endloop
  endfacet
  facet normal 0.000000e+00 0.000000e+00 -1.000000e+00
    outer loop
      vertex -1.000001e+00 -1.500000e+01 0.000000e+00
      vertex 1.203955e+00 -1.794460e+01 0.000000e+00
      vertex 5.000000e-01 -1.800000e+01 0.000000e+00
    endloop
  endfacet
  facet normal 0.000000e+00 0.000000e+00 -1.000000e+00
    outer loop
      vertex -1.000001e+00 -1.500000e+01 0.000000e+00
      vertex 5.000000e-01 -1.800000e+01 0.000000e+00
      vertex -4.000001e+00 -1.800000e+01 0.000000e+00
    endloop
  endfacet
  facet normal 0.000000e+00 0.000000e+00 -1.000000e+00
    outer loop
      vertex 4.509529e+00 -1.554294e+01 0.000000e+00
      vertex 4.140575e+00 -1.614505e+01 0.000000e+00
      vertex 1.999999e+00 -1.500000e+01 0.000000e+00
    endloop
  endfacet
  facet normal 0.000000e+00 0.000000e+00 -1.000000e+00
    outer loop
      vertex 1.999999e+00 -1.500000e+01 0.000000e+00
      vertex 4.140575e+00 -1.614505e+01 0.000000e+00
      vertex 3.681980e+00 -1.668196e+01 0.000000e+00
    endloop
  endfacet
  facet normal 0.000000e+00 0.000000e+00 -1.000000e+00
    outer loop
      vertex 1.999999e+00 -1.500000e+01 0.000000e+00
      vertex 3.681980e+00 -1.668196e+01 0.000000e+00
      vertex 3.145033e+00 -1.714056e+01 0.000000e+00
    endloop
  endfacet
  facet normal 0.000000e+00 0.000000e+00 -1.000000e+00
    outer loop
      vertex -4.000001e+00 2.000000e+00 0.000000e+00
      vertex -5.000000e+00 3.000000e+00 0.000000e+00
      vertex -1.000001e+00 3.000000e+00 0.000000e+00
    endloop
  endfacet
  facet normal 0.000000e+00 0.000000e+00 -1.000000e+00
    outer loop
      vertex -1.000001e+00 3.000000e+00 0.000000e+00
      vertex -5.000000e+00 3.000000e+00 0.000000e+00
      vertex -4.000001e+00 4.000000e+00 0.000000e+00
    endloop
  endfacet
  facet normal 0.000000e+00 0.000000e+00 -1.000000e+00
    outer loop
      vertex -1.000001e+00 3.000000e+00 0.000000e+00
      vertex -4.000001e+00 4.000000e+00 0.000000e+00
      vertex -1.000001e+00 6.000031e+00 0.000000e+00
    endloop
  endfacet
  facet normal 0.000000e+00 0.000000e+00 -1.000000e+00
    outer loop
      vertex -1.000001e+00 6.000031e+00 0.000000e+00
      vertex -4.000001e+00 4.000000e+00 0.000000e+00
      vertex -4.000001e+00 6.000031e+00 0.000000e+00
    endloop
  endfacet
  facet normal 0.000000e+00 0.000000e+00 -1.000000e+00
    outer loop
      vertex -1.000001e+00 6.000031e+00 0.000000e+00
      vertex -4.000001e+00 6.000031e+00 0.000000e+00
      vertex -5.000000e+00 7.000000e+00 0.000000e+00
    endloop
  endfacet
  facet normal 0.000000e+00 0.000000e+00 -1.000000e+00
    outer loop
      vertex -4.000001e+00 8.000000e+00 0.000000e+00
      vertex -5.000000e+00 9.000000e+00 0.000000e+00
      vertex -4.000001e+00 1.000000e+01 0.000000e+00
    endloop
  endfacet
  facet normal 0.000000e+00 0.000000e+00 -1.000000e+00
    outer loop
      vertex -1.000001e+00 1.200000e+01 0.000000e+00
      vertex 1.999999e+00 1.200000e+01 0.000000e+00
      vertex 1.999999e+00 6.000031e+00 0.000000e+00
    endloop
  endfacet
  facet normal 0.000000e+00 0.000000e+00 -1.000000e+00
    outer loop
      vertex -5.000000e+00 -9.000000e+00 0.000000e+00
      vertex -4.000001e+00 -8.000000e+00 0.000000e+00
      vertex -4.000001e+00 -9.999969e+00 0.000000e+00
    endloop
  endfacet
  facet normal 0.000000e+00 0.000000e+00 -1.000000e+00
    outer loop
      vertex -4.000001e+00 -9.999969e+00 0.000000e+00
      vertex -4.000001e+00 -8.000000e+00 0.000000e+00
      vertex -1.000001e+00 -1.200000e+01 0.000000e+00
    endloop
  endfacet
  facet normal 0.000000e+00 0.000000e+00 -1.000000e+00
    outer loop
      vertex -4.000001e+00 -9.999969e+00 0.000000e+00
      vertex -1.000001e+00 -1.200000e+01 0.000000e+00
      vertex -5.000000e+00 -1.100000e+01 0.000000e+00
    endloop
  endfacet
  facet normal 0.000000e+00 0.000000e+00 -1.000000e+00
    outer loop
      vertex -5.000000e+00 -1.100000e+01 0.000000e+00
      vertex -1.000001e+00 -1.200000e+01 0.000000e+00
      vertex -4.000001e+00 -1.200000e+01 0.000000e+00
    endloop
  endfacet
  facet normal 0.000000e+00 0.000000e+00 -1.000000e+00
    outer loop
      vertex -1.000001e+00 -2.999969e+00 0.000000e+00
      vertex -1.000001e+00 -6.000000e+00 0.000000e+00
      vertex -4.000001e+00 -4.000000e+00 0.000000e+00
    endloop
  endfacet
  facet normal 0.000000e+00 0.000000e+00 -1.000000e+00
    outer loop
      vertex -4.000001e+00 -4.000000e+00 0.000000e+00
      vertex -1.000001e+00 -6.000000e+00 0.000000e+00
      vertex -1.000001e+00 -1.200000e+01 0.000000e+00
    endloop
  endfacet
  facet normal 0.000000e+00 0.000000e+00 -1.000000e+00
    outer loop
      vertex -4.000001e+00 -4.000000e+00 0.000000e+00
      vertex -1.000001e+00 -1.200000e+01 0.000000e+00
      vertex -4.000001e+00 -6.000000e+00 0.000000e+00
    endloop
  endfacet
  facet normal 0.000000e+00 0.000000e+00 -1.000000e+00
    outer loop
      vertex -4.000001e+00 -6.000000e+00 0.000000e+00
      vertex -1.000001e+00 -1.200000e+01 0.000000e+00
      vertex -4.000001e+00 -8.000000e+00 0.000000e+00
    endloop
  endfacet
  facet normal 0.000000e+00 0.000000e+00 -1.000000e+00
    outer loop
      vertex -4.000001e+00 -6.000000e+00 0.000000e+00
      vertex -4.000001e+00 -8.000000e+00 0.000000e+00
      vertex -5.000000e+00 -7.000000e+00 0.000000e+00
    endloop
  endfacet
  facet normal 0.000000e+00 0.000000e+00 -1.000000e+00
    outer loop
      vertex -1.000001e+00 -6.000000e+00 0.000000e+00
      vertex 1.999999e+00 -6.000000e+00 0.000000e+00
      vertex 1.999999e+00 -1.200000e+01 0.000000e+00
    endloop
  endfacet
  facet normal 0.000000e+00 0.000000e+00 -1.000000e+00
    outer loop
      vertex 1.999999e+00 -1.200000e+01 0.000000e+00
      vertex 1.999999e+00 -6.000000e+00 0.000000e+00
      vertex 5.000000e+00 -1.350000e+01 0.000000e+00
    endloop
  endfacet
  facet normal 0.000000e+00 0.000000e+00 -1.000000e+00
    outer loop
      vertex 1.999999e+00 -1.200000e+01 0.000000e+00
      vertex 5.000000e+00 -1.350000e+01 0.000000e+00
      vertex 1.999999e+00 -1.500000e+01 0.000000e+00
    endloop
  endfacet
  facet normal 0.000000e+00 0.000000e+00 -1.000000e+00
    outer loop
      vertex 1.999999e+00 -1.500000e+01 0.000000e+00
      vertex 5.000000e+00 -1.350000e+01 0.000000e+00
      vertex 4.944597e+00 -1.420395e+01 0.000000e+00
    endloop
  endfacet
  facet normal 0.000000e+00 0.000000e+00 -1.000000e+00
    outer loop
      vertex 1.999999e+00 -1.500000e+01 0.000000e+00
      vertex 4.944597e+00 -1.420395e+01 0.000000e+00
      vertex 4.779753e+00 -1.489056e+01 0.000000e+00
    endloop
  endfacet
  facet normal 0.000000e+00 0.000000e+00 -1.000000e+00
    outer loop
      vertex -5.000000e+00 1.100000e+01 0.000000e+00
      vertex -4.000001e+00 1.200000e+01 0.000000e+00
      vertex -4.000001e+00 1.000000e+01 0.000000e+00
    endloop
  endfacet
  facet normal 0.000000e+00 0.000000e+00 -1.000000e+00
    outer loop
      vertex -4.000001e+00 1.000000e+01 0.000000e+00
      vertex -4.000001e+00 1.200000e+01 0.000000e+00
      vertex -1.000001e+00 6.000031e+00 0.000000e+00
    endloop
  endfacet
  facet normal 0.000000e+00 0.000000e+00 -1.000000e+00
    outer loop
      vertex -4.000001e+00 1.000000e+01 0.000000e+00
      vertex -1.000001e+00 6.000031e+00 0.000000e+00
      vertex -4.000001e+00 8.000000e+00 0.000000e+00
    endloop
  endfacet
  facet normal 0.000000e+00 0.000000e+00 -1.000000e+00
    outer loop
      vertex -4.000001e+00 8.000000e+00 0.000000e+00
      vertex -1.000001e+00 6.000031e+00 0.000000e+00
      vertex -5.000000e+00 7.000000e+00 0.000000e+00
    endloop
  endfacet
  facet normal 0.000000e+00 0.000000e+00 -1.000000e+00
    outer loop
      vertex 1.999999e+00 6.000031e+00 0.000000e+00
      vertex -1.000001e+00 6.000031e+00 0.000000e+00
      vertex -1.000001e+00 1.200000e+01 0.000000e+00
    endloop
  endfacet
  facet normal 0.000000e+00 0.000000e+00 -1.000000e+00
    outer loop
      vertex -1.000001e+00 1.200000e+01 0.000000e+00
      vertex -1.000001e+00 6.000031e+00 0.000000e+00
      vertex -4.000001e+00 1.200000e+01 0.000000e+00
    endloop
  endfacet
  facet normal 0.000000e+00 0.000000e+00 -1.000000e+00
    outer loop
      vertex -1.000001e+00 1.200000e+01 0.000000e+00
      vertex -4.000001e+00 1.200000e+01 0.000000e+00
      vertex -1.000001e+00 1.500000e+01 0.000000e+00
    endloop
  endfacet
  facet normal 0.000000e+00 0.000000e+00 -1.000000e+00
    outer loop
      vertex -1.000001e+00 1.500000e+01 0.000000e+00
      vertex -4.000001e+00 1.200000e+01 0.000000e+00
      vertex -4.000001e+00 1.400000e+01 0.000000e+00
    endloop
  endfacet
  facet normal 0.000000e+00 0.000000e+00 -1.000000e+00
    outer loop
      vertex -5.000000e+00 1.700000e+01 0.000000e+00
      vertex -4.000001e+00 1.800000e+01 0.000000e+00
      vertex -4.000001e+00 1.600000e+01 0.000000e+00
    endloop
  endfacet
  facet normal 0.000000e+00 0.000000e+00 -1.000000e+00
    outer loop
      vertex -4.000001e+00 1.600000e+01 0.000000e+00
      vertex -4.000001e+00 1.800000e+01 0.000000e+00
      vertex -1.000001e+00 1.500000e+01 0.000000e+00
    endloop
  endfacet
  facet normal 0.000000e+00 0.000000e+00 -1.000000e+00
    outer loop
      vertex -4.000001e+00 1.600000e+01 0.000000e+00
      vertex -1.000001e+00 1.500000e+01 0.000000e+00
      vertex -5.000000e+00 1.500000e+01 0.000000e+00
    endloop
  endfacet
  facet normal 0.000000e+00 0.000000e+00 -1.000000e+00
    outer loop
      vertex -5.000000e+00 1.500000e+01 0.000000e+00
      vertex -1.000001e+00 1.500000e+01 0.000000e+00
      vertex -4.000001e+00 1.400000e+01 0.000000e+00
    endloop
  endfacet
  facet normal 0.000000e+00 0.000000e+00 -1.000000e+00
    outer loop
      vertex 4.140575e+00 1.614502e+01 0.000000e+00
      vertex 4.509529e+00 1.554297e+01 0.000000e+00
      vertex 1.999999e+00 1.500000e+01 0.000000e+00
    endloop
  endfacet
  facet normal 0.000000e+00 0.000000e+00 -1.000000e+00
    outer loop
      vertex 2.542955e+00 1.750952e+01 0.000000e+00
      vertex 3.145033e+00 1.714056e+01 0.000000e+00
      vertex 1.999999e+00 1.500000e+01 0.000000e+00
    endloop
  endfacet
  facet normal 0.000000e+00 0.000000e+00 -1.000000e+00
    outer loop
      vertex 1.999999e+00 1.500000e+01 0.000000e+00
      vertex 3.145033e+00 1.714056e+01 0.000000e+00
      vertex 3.681980e+00 1.668198e+01 0.000000e+00
    endloop
  endfacet
  facet normal 0.000000e+00 0.000000e+00 -1.000000e+00
    outer loop
      vertex 1.999999e+00 1.500000e+01 0.000000e+00
      vertex 3.681980e+00 1.668198e+01 0.000000e+00
      vertex 4.140575e+00 1.614502e+01 0.000000e+00
    endloop
  endfacet
  facet normal 0.000000e+00 0.000000e+00 -1.000000e+00
    outer loop
      vertex -4.000001e+00 1.800000e+01 0.000000e+00
      vertex 5.000000e-01 1.800000e+01 0.000000e+00
      vertex -1.000001e+00 1.500000e+01 0.000000e+00
    endloop
  endfacet
  facet normal 0.000000e+00 0.000000e+00 -1.000000e+00
    outer loop
      vertex -1.000001e+00 1.500000e+01 0.000000e+00
      vertex 5.000000e-01 1.800000e+01 0.000000e+00
      vertex 1.203955e+00 1.794461e+01 0.000000e+00
    endloop
  endfacet
  facet normal 0.000000e+00 0.000000e+00 -1.000000e+00
    outer loop
      vertex -1.000001e+00 1.500000e+01 0.000000e+00
      vertex 1.203955e+00 1.794461e+01 0.000000e+00
      vertex 1.999999e+00 1.500000e+01 0.000000e+00
    endloop
  endfacet
  facet normal 0.000000e+00 0.000000e+00 -1.000000e+00
    outer loop
      vertex 1.999999e+00 1.500000e+01 0.000000e+00
      vertex 1.203955e+00 1.794461e+01 0.000000e+00
      vertex 1.890576e+00 1.777975e+01 0.000000e+00
    endloop
  endfacet
  facet normal 0.000000e+00 0.000000e+00 -1.000000e+00
    outer loop
      vertex 1.999999e+00 1.500000e+01 0.000000e+00
      vertex 1.890576e+00 1.777975e+01 0.000000e+00
      vertex 2.542955e+00 1.750952e+01 0.000000e+00
    endloop
  endfacet
  facet normal 0.000000e+00 0.000000e+00 -1.000000e+00
    outer loop
      vertex 1.999999e+00 3.000000e+00 0.000000e+00
      vertex 1.999999e+00 6.000031e+00 0.000000e+00
      vertex 5.000000e+00 1.350000e+01 0.000000e+00
    endloop
  endfacet
  facet normal 0.000000e+00 0.000000e+00 -1.000000e+00
    outer loop
      vertex 5.000000e+00 1.350000e+01 0.000000e+00
      vertex 1.999999e+00 6.000031e+00 0.000000e+00
      vertex 1.999999e+00 1.200000e+01 0.000000e+00
    endloop
  endfacet
  facet normal 0.000000e+00 0.000000e+00 -1.000000e+00
    outer loop
      vertex 5.000000e+00 1.350000e+01 0.000000e+00
      vertex 1.999999e+00 1.200000e+01 0.000000e+00
      vertex 4.944597e+00 1.420398e+01 0.000000e+00
    endloop
  endfacet
  facet normal 0.000000e+00 0.000000e+00 -1.000000e+00
    outer loop
      vertex 4.944597e+00 1.420398e+01 0.000000e+00
      vertex 1.999999e+00 1.200000e+01 0.000000e+00
      vertex 1.999999e+00 1.500000e+01 0.000000e+00
    endloop
  endfacet
  facet normal 0.000000e+00 0.000000e+00 -1.000000e+00
    outer loop
      vertex 4.944597e+00 1.420398e+01 0.000000e+00
      vertex 1.999999e+00 1.500000e+01 0.000000e+00
      vertex 4.779753e+00 1.489059e+01 0.000000e+00
    endloop
  endfacet
  facet normal 0.000000e+00 0.000000e+00 -1.000000e+00
    outer loop
      vertex 4.779753e+00 1.489059e+01 0.000000e+00
      vertex 1.999999e+00 1.500000e+01 0.000000e+00
      vertex 4.509529e+00 1.554297e+01 0.000000e+00
    endloop
  endfacet
  facet normal 9.986320e-01 5.228807e-02 0.000000e+00
    outer loop
      vertex 5.000000e+00 1.350000e+01 3.000000e+00
      vertex 5.000000e+00 1.350000e+01 0.000000e+00
      vertex 4.944597e+00 1.420398e+01 0.000000e+00
    endloop
  endfacet
  facet normal 9.945170e-01 1.045762e-01 0.000000e+00
    outer loop
      vertex 5.000000e+00 1.350000e+01 3.000000e+00
      vertex 4.944597e+00 1.420398e+01 0.000000e+00
      vertex 4.944597e+00 1.420398e+01 3.000000e+00
    endloop
  endfacet
  facet normal 9.781576e-01 2.078648e-01 0.000000e+00
    outer loop
      vertex 4.944597e+00 1.420398e+01 3.000000e+00
      vertex 4.944597e+00 1.420398e+01 0.000000e+00
      vertex 4.779753e+00 1.489059e+01 0.000000e+00
    endloop
  endfacet
  facet normal 9.659135e-01 2.588654e-01 0.000000e+00
    outer loop
      vertex 4.944597e+00 1.420398e+01 3.000000e+00
      vertex 4.779753e+00 1.489059e+01 0.000000e+00
      vertex 4.779753e+00 1.489059e+01 3.000000e+00
    endloop
  endfacet
  facet normal 9.335976e-01 3.583232e-01 0.000000e+00
    outer loop
      vertex 4.779753e+00 1.489059e+01 3.000000e+00
      vertex 4.779753e+00 1.489059e+01 0.000000e+00
      vertex 4.509529e+00 1.554297e+01 0.000000e+00
    endloop
  endfacet
  facet normal 9.135259e-01 4.067805e-01 0.000000e+00
    outer loop
      vertex 4.779753e+00 1.489059e+01 3.000000e+00
      vertex 4.509529e+00 1.554297e+01 0.000000e+00
      vertex 4.509529e+00 1.554297e+01 3.000000e+00
    endloop
  endfacet
  facet normal 8.660494e-01 4.999584e-01 0.000000e+00
    outer loop
      vertex 4.509529e+00 1.554297e+01 3.000000e+00
      vertex 4.509529e+00 1.554297e+01 0.000000e+00
      vertex 4.140575e+00 1.614502e+01 0.000000e+00
    endloop
  endfacet
  facet normal 8.386444e-01 5.446792e-01 0.000000e+00
    outer loop
      vertex 4.509529e+00 1.554297e+01 3.000000e+00
      vertex 4.140575e+00 1.614502e+01 0.000000e+00
      vertex 4.140575e+00 1.614502e+01 3.000000e+00
    endloop
  endfacet
  facet normal 7.771762e-01 6.292832e-01 0.000000e+00
    outer loop
      vertex 4.140575e+00 1.614502e+01 3.000000e+00
      vertex 4.140575e+00 1.614502e+01 0.000000e+00
      vertex 3.681980e+00 1.668198e+01 0.000000e+00
    endloop
  endfacet
  facet normal 7.431127e-01 6.691663e-01 0.000000e+00
    outer loop
      vertex 4.140575e+00 1.614502e+01 3.000000e+00
      vertex 3.681980e+00 1.668198e+01 0.000000e+00
      vertex 3.681980e+00 1.668198e+01 3.000000e+00
    endloop
  endfacet
  facet normal 6.691663e-01 7.431127e-01 0.000000e+00
    outer loop
      vertex 3.681980e+00 1.668198e+01 3.000000e+00
      vertex 3.681980e+00 1.668198e+01 0.000000e+00
      vertex 3.145033e+00 1.714056e+01 0.000000e+00
    endloop
  endfacet
  facet normal 6.292832e-01 7.771762e-01 0.000000e+00
    outer loop
      vertex 3.681980e+00 1.668198e+01 3.000000e+00
      vertex 3.145033e+00 1.714056e+01 0.000000e+00
      vertex 3.145033e+00 1.714056e+01 3.000000e+00
    endloop
  endfacet
  facet normal 5.446792e-01 8.386444e-01 0.000000e+00
    outer loop
      vertex 3.145033e+00 1.714056e+01 3.000000e+00
      vertex 3.145033e+00 1.714056e+01 0.000000e+00
      vertex 2.542955e+00 1.750952e+01 0.000000e+00
    endloop
  endfacet
  facet normal 4.999584e-01 8.660494e-01 0.000000e+00
    outer loop
      vertex 3.145033e+00 1.714056e+01 3.000000e+00
      vertex 2.542955e+00 1.750952e+01 0.000000e+00
      vertex 2.542955e+00 1.750952e+01 3.000000e+00
    endloop
  endfacet
  facet normal 4.067805e-01 9.135259e-01 0.000000e+00
    outer loop
      vertex 2.542955e+00 1.750952e+01 3.000000e+00
      vertex 2.542955e+00 1.750952e+01 0.000000e+00
      vertex 1.890576e+00 1.777975e+01 0.000000e+00
    endloop
  endfacet
  facet normal 3.583232e-01 9.335976e-01 0.000000e+00
    outer loop
      vertex 2.542955e+00 1.750952e+01 3.000000e+00
      vertex 1.890576e+00 1.777975e+01 0.000000e+00
      vertex 1.890576e+00 1.777975e+01 3.000000e+00
    endloop
  endfacet
  facet normal 2.588654e-01 9.659135e-01 0.000000e+00
    outer loop
      vertex 1.890576e+00 1.777975e+01 3.000000e+00
      vertex 1.890576e+00 1.777975e+01 0.000000e+00
      vertex 1.203955e+00 1.794461e+01 0.000000e+00
    endloop
  endfacet
  facet normal 2.078648e-01 9.781576e-01 0.000000e+00
    outer loop
      vertex 1.890576e+00 1.777975e+01 3.000000e+00
      vertex 1.203955e+00 1.794461e+01 0.000000e+00
      vertex 1.203955e+00 1.794461e+01 3.000000e+00
    endloop
  endfacet
  facet normal 1.045762e-01 9.945170e-01 0.000000e+00
    outer loop
      vertex 1.203955e+00 1.794461e+01 3.000000e+00
      vertex 1.203955e+00 1.794461e+01 0.000000e+00
      vertex 5.000000e-01 1.800000e+01 0.000000e+00
    endloop
  endfacet
  facet normal 5.228807e-02 9.986320e-01 0.000000e+00
    outer loop
      vertex 1.203955e+00 1.794461e+01 3.000000e+00
      vertex 5.000000e-01 1.800000e+01 0.000000e+00
      vertex 5.000000e-01 1.800000e+01 3.000000e+00
    endloop
  endfacet
  facet normal 0.000000e+00 1.000000e+00 0.000000e+00
    outer loop
      vertex -4.000001e+00 1.800000e+01 3.000000e+00
      vertex 5.000000e-01 1.800000e+01 3.000000e+00
      vertex -4.000001e+00 1.800000e+01 0.000000e+00
    endloop
  endfacet
  facet normal 0.000000e+00 1.000000e+00 0.000000e+00
    outer loop
      vertex -4.000001e+00 1.800000e+01 0.000000e+00
      vertex 5.000000e-01 1.800000e+01 3.000000e+00
      vertex 5.000000e-01 1.800000e+01 0.000000e+00
    endloop
  endfacet
  facet normal -7.071068e-01 7.071068e-01 0.000000e+00
    outer loop
      vertex -5.000000e+00 1.700000e+01 3.000000e+00
      vertex -4.000001e+00 1.800000e+01 3.000000e+00
      vertex -5.000000e+00 1.700000e+01 0.000000e+00
    endloop
  endfacet
  facet normal -7.071068e-01 7.071068e-01 0.000000e+00
    outer loop
      vertex -5.000000e+00 1.700000e+01 0.000000e+00
      vertex -4.000001e+00 1.800000e+01 3.000000e+00
      vertex -4.000001e+00 1.800000e+01 0.000000e+00
    endloop
  endfacet
  facet normal -7.071068e-01 -7.071068e-01 0.000000e+00
    outer loop
      vertex -4.000001e+00 1.600000e+01 3.000000e+00
      vertex -5.000000e+00 1.700000e+01 3.000000e+00
      vertex -4.000001e+00 1.600000e+01 0.000000e+00
    endloop
  endfacet
  facet normal -7.071068e-01 -7.071068e-01 0.000000e+00
    outer loop
      vertex -4.000001e+00 1.600000e+01 0.000000e+00
      vertex -5.000000e+00 1.700000e+01 3.000000e+00
      vertex -5.000000e+00 1.700000e+01 0.000000e+00
    endloop
  endfacet
  facet normal -7.071068e-01 7.071068e-01 0.000000e+00
    outer loop
      vertex -5.000000e+00 1.500000e+01 3.000000e+00
      vertex -4.000001e+00 1.600000e+01 3.000000e+00
      vertex -5.000000e+00 1.500000e+01 0.000000e+00
    endloop
  endfacet
  facet normal -7.071068e-01 7.071068e-01 0.000000e+00
    outer loop
      vertex -5.000000e+00 1.500000e+01 0.000000e+00
      vertex -4.000001e+00 1.600000e+01 3.000000e+00
      vertex -4.000001e+00 1.600000e+01 0.000000e+00
    endloop
  endfacet
  facet normal -7.071068e-01 -7.071068e-01 0.000000e+00
    outer loop
      vertex -4.000001e+00 1.400000e+01 3.000000e+00
      vertex -5.000000e+00 1.500000e+01 3.000000e+00
      vertex -4.000001e+00 1.400000e+01 0.000000e+00
    endloop
  endfacet
  facet normal -7.071068e-01 -7.071068e-01 0.000000e+00
    outer loop
      vertex -4.000001e+00 1.400000e+01 0.000000e+00
      vertex -5.000000e+00 1.500000e+01 3.000000e+00
      vertex -5.000000e+00 1.500000e+01 0.000000e+00
    endloop
  endfacet
  facet normal -7.071068e-01 7.071068e-01 0.000000e+00
    outer loop
      vertex -5.000000e+00 1.300003e+01 3.000000e+00
      vertex -4.000001e+00 1.400000e+01 3.000000e+00
      vertex -5.000000e+00 1.300003e+01 0.000000e+00
    endloop
  endfacet
  facet normal -7.071068e-01 7.071068e-01 0.000000e+00
    outer loop
      vertex -5.000000e+00 1.300003e+01 0.000000e+00
      vertex -4.000001e+00 1.400000e+01 3.000000e+00
      vertex -4.000001e+00 1.400000e+01 0.000000e+00
    endloop
  endfacet
  facet normal -7.071068e-01 -7.071068e-01 0.000000e+00
    outer loop
      vertex -4.000001e+00 1.200000e+01 3.000000e+00
      vertex -5.000000e+00 1.300003e+01 3.000000e+00
      vertex -4.000001e+00 1.200000e+01 0.000000e+00
    endloop
  endfacet
  facet normal -7.071068e-01 -7.071068e-01 0.000000e+00
    outer loop
      vertex -4.000001e+00 1.200000e+01 0.000000e+00
      vertex -5.000000e+00 1.300003e+01 3.000000e+00
      vertex -5.000000e+00 1.300003e+01 0.000000e+00
    endloop
  endfacet
  facet normal -7.071068e-01 7.071068e-01 0.000000e+00
    outer loop
      vertex -5.000000e+00 1.100000e+01 3.000000e+00
      vertex -4.000001e+00 1.200000e+01 3.000000e+00
      vertex -5.000000e+00 1.100000e+01 0.000000e+00
    endloop
  endfacet
  facet normal -7.071068e-01 7.071068e-01 0.000000e+00
    outer loop
      vertex -5.000000e+00 1.100000e+01 0.000000e+00
      vertex -4.000001e+00 1.200000e+01 3.000000e+00
      vertex -4.000001e+00 1.200000e+01 0.000000e+00
    endloop
  endfacet
  facet normal -7.071068e-01 -7.071068e-01 0.000000e+00
    outer loop
      vertex -4.000001e+00 1.000000e+01 3.000000e+00
      vertex -5.000000e+00 1.100000e+01 3.000000e+00
      vertex -4.000001e+00 1.000000e+01 0.000000e+00
    endloop
  endfacet
  facet normal -7.071068e-01 -7.071068e-01 0.000000e+00
    outer loop
      vertex -4.000001e+00 1.000000e+01 0.000000e+00
      vertex -5.000000e+00 1.100000e+01 3.000000e+00
      vertex -5.000000e+00 1.100000e+01 0.000000e+00
    endloop
  endfacet
  facet normal -7.071068e-01 7.071068e-01 0.000000e+00
    outer loop
      vertex -5.000000e+00 9.000000e+00 3.000000e+00
      vertex -4.000001e+00 1.000000e+01 3.000000e+00
      vertex -5.000000e+00 9.000000e+00 0.000000e+00
    endloop
  endfacet
  facet normal -7.071068e-01 7.071068e-01 0.000000e+00
    outer loop
      vertex -5.000000e+00 9.000000e+00 0.000000e+00
      vertex -4.000001e+00 1.000000e+01 3.000000e+00
      vertex -4.000001e+00 1.000000e+01 0.000000e+00
    endloop
  endfacet
  facet normal -7.071068e-01 -7.071068e-01 0.000000e+00
    outer loop
      vertex -4.000001e+00 8.000000e+00 3.000000e+00
      vertex -5.000000e+00 9.000000e+00 3.000000e+00
      vertex -4.000001e+00 8.000000e+00 0.000000e+00
    endloop
  endfacet
  facet normal -7.071068e-01 -7.071068e-01 0.000000e+00
    outer loop
      vertex -4.000001e+00 8.000000e+00 0.000000e+00
      vertex -5.000000e+00 9.000000e+00 3.000000e+00
      vertex -5.000000e+00 9.000000e+00 0.000000e+00
    endloop
  endfacet
  facet normal -7.071068e-01 7.071068e-01 0.000000e+00
    outer loop
      vertex -5.000000e+00 7.000000e+00 3.000000e+00
      vertex -4.000001e+00 8.000000e+00 3.000000e+00
      vertex -5.000000e+00 7.000000e+00 0.000000e+00
    endloop
  endfacet
  facet normal -7.071068e-01 7.071068e-01 0.000000e+00
    outer loop
      vertex -5.000000e+00 7.000000e+00 0.000000e+00
      vertex -4.000001e+00 8.000000e+00 3.000000e+00
      vertex -4.000001e+00 8.000000e+00 0.000000e+00
    endloop
  endfacet
  facet normal -7.071068e-01 -7.071068e-01 0.000000e+00
    outer loop
      vertex -4.000001e+00 6.000031e+00 3.000000e+00
      vertex -5.000000e+00 7.000000e+00 3.000000e+00
      vertex -4.000001e+00 6.000031e+00 0.000000e+00
    endloop
  endfacet
  facet normal -7.071068e-01 -7.071068e-01 0.000000e+00
    outer loop
      vertex -4.000001e+00 6.000031e+00 0.000000e+00
      vertex -5.000000e+00 7.000000e+00 3.000000e+00
      vertex -5.000000e+00 7.000000e+00 0.000000e+00
    endloop
  endfacet
  facet normal -7.071068e-01 7.071068e-01 0.000000e+00
    outer loop
      vertex -5.000000e+00 5.000000e+00 3.000000e+00
      vertex -4.000001e+00 6.000031e+00 3.000000e+00
      vertex -5.000000e+00 5.000000e+00 0.000000e+00
    endloop
  endfacet
  facet normal -7.071068e-01 7.071068e-01 0.000000e+00
    outer loop
      vertex -5.000000e+00 5.000000e+00 0.000000e+00
      vertex -4.000001e+00 6.000031e+00 3.000000e+00
      vertex -4.000001e+00 6.000031e+00 0.000000e+00
    endloop
  endfacet
  facet normal -7.071068e-01 -7.071068e-01 0.000000e+00
    outer loop
      vertex -4.000001e+00 4.000000e+00 3.000000e+00
      vertex -5.000000e+00 5.000000e+00 3.000000e+00
      vertex -4.000001e+00 4.000000e+00 0.000000e+00
    endloop
  endfacet
  facet normal -7.071068e-01 -7.071068e-01 0.000000e+00
    outer loop
      vertex -4.000001e+00 4.000000e+00 0.000000e+00
      vertex -5.000000e+00 5.000000e+00 3.000000e+00
      vertex -5.000000e+00 5.000000e+00 0.000000e+00
    endloop
  endfacet
  facet normal -7.071068e-01 7.071068e-01 0.000000e+00
    outer loop
      vertex -5.000000e+00 3.000000e+00 3.000000e+00
      vertex -4.000001e+00 4.000000e+00 3.000000e+00
      vertex -5.000000e+00 3.000000e+00 0.000000e+00
    endloop
  endfacet
  facet normal -7.071068e-01 7.071068e-01 0.000000e+00
    outer loop
      vertex -5.000000e+00 3.000000e+00 0.000000e+00
      vertex -4.000001e+00 4.000000e+00 3.000000e+00
      vertex -4.000001e+00 4.000000e+00 0.000000e+00
    endloop
  endfacet
  facet normal -7.071068e-01 -7.071068e-01 0.000000e+00
    outer loop
      vertex -4.000001e+00 2.000000e+00 3.000000e+00
      vertex -5.000000e+00 3.000000e+00 3.000000e+00
      vertex -4.000001e+00 2.000000e+00 0.000000e+00
    endloop
  endfacet
  facet normal -7.071068e-01 -7.071068e-01 0.000000e+00
    outer loop
      vertex -4.000001e+00 2.000000e+00 0.000000e+00
      vertex -5.000000e+00 3.000000e+00 3.000000e+00
      vertex -5.000000e+00 3.000000e+00 0.000000e+00
    endloop
  endfacet
  facet normal -7.071068e-01 7.071068e-01 0.000000e+00
    outer loop
      vertex -5.000000e+00 1.000000e+00 3.000000e+00
      vertex -4.000001e+00 2.000000e+00 3.000000e+00
      vertex -5.000000e+00 1.000000e+00 0.000000e+00
    endloop
  endfacet
  facet normal -7.071068e-01 7.071068e-01 0.000000e+00
    outer loop
      vertex -5.000000e+00 1.000000e+00 0.000000e+00
      vertex -4.000001e+00 2.000000e+00 3.000000e+00
      vertex -4.000001e+00 2.000000e+00 0.000000e+00
    endloop
  endfacet
  facet normal -7.071068e-01 -7.071068e-01 0.000000e+00
    outer loop
      vertex -4.000001e+00 0.000000e+00 3.000000e+00
      vertex -5.000000e+00 1.000000e+00 3.000000e+00
      vertex -4.000001e+00 0.000000e+00 0.000000e+00
    endloop
  endfacet
  facet normal -7.071068e-01 -7.071068e-01 0.000000e+00
    outer loop
      vertex -4.000001e+00 0.000000e+00 0.000000e+00
      vertex -5.000000e+00 1.000000e+00 3.000000e+00
      vertex -5.000000e+00 1.000000e+00 0.000000e+00
    endloop
  endfacet
  facet normal -7.071068e-01 7.071068e-01 0.000000e+00
    outer loop
      vertex -5.000000e+00 -1.000000e+00 3.000000e+00
      vertex -4.000001e+00 0.000000e+00 3.000000e+00
      vertex -5.000000e+00 -1.000000e+00 0.000000e+00
    endloop
  endfacet
  facet normal -7.071068e-01 7.071068e-01 0.000000e+00
    outer loop
      vertex -5.000000e+00 -1.000000e+00 0.000000e+00
      vertex -4.000001e+00 0.000000e+00 3.000000e+00
      vertex -4.000001e+00 0.000000e+00 0.000000e+00
    endloop
  endfacet
  facet normal -7.071068e-01 -7.071068e-01 0.000000e+00
    outer loop
      vertex -4.000001e+00 -2.000000e+00 3.000000e+00
      vertex -5.000000e+00 -1.000000e+00 3.000000e+00
      vertex -4.000001e+00 -2.000000e+00 0.000000e+00
    endloop
  endfacet
  facet normal -7.071068e-01 -7.071068e-01 0.000000e+00
    outer loop
      vertex -4.000001e+00 -2.000000e+00 0.000000e+00
      vertex -5.000000e+00 -1.000000e+00 3.000000e+00
      vertex -5.000000e+00 -1.000000e+00 0.000000e+00
    endloop
  endfacet
  facet normal -7.071068e-01 7.071068e-01 0.000000e+00
    outer loop
      vertex -5.000000e+00 -2.999969e+00 3.000000e+00
      vertex -4.000001e+00 -2.000000e+00 3.000000e+00
      vertex -5.000000e+00 -2.999969e+00 0.000000e+00
    endloop
  endfacet
  facet normal -7.071068e-01 7.071068e-01 0.000000e+00
    outer loop
      vertex -5.000000e+00 -2.999969e+00 0.000000e+00
      vertex -4.000001e+00 -2.000000e+00 3.000000e+00
      vertex -4.000001e+00 -2.000000e+00 0.000000e+00
    endloop
  endfacet
  facet normal -7.071068e-01 -7.071068e-01 0.000000e+00
    outer loop
      vertex -4.000001e+00 -4.000000e+00 3.000000e+00
      vertex -5.000000e+00 -2.999969e+00 3.000000e+00
      vertex -4.000001e+00 -4.000000e+00 0.000000e+00
    endloop
  endfacet
  facet normal -7.071068e-01 -7.071068e-01 0.000000e+00
    outer loop
      vertex -4.000001e+00 -4.000000e+00 0.000000e+00
      vertex -5.000000e+00 -2.999969e+00 3.000000e+00
      vertex -5.000000e+00 -2.999969e+00 0.000000e+00
    endloop
  endfacet
  facet normal -7.071068e-01 7.071068e-01 0.000000e+00
    outer loop
      vertex -5.000000e+00 -5.000000e+00 3.000000e+00
      vertex -4.000001e+00 -4.000000e+00 3.000000e+00
      vertex -5.000000e+00 -5.000000e+00 0.000000e+00
    endloop
  endfacet
  facet normal -7.071068e-01 7.071068e-01 0.000000e+00
    outer loop
      vertex -5.000000e+00 -5.000000e+00 0.000000e+00
      vertex -4.000001e+00 -4.000000e+00 3.000000e+00
      vertex -4.000001e+00 -4.000000e+00 0.000000e+00
    endloop
  endfacet
  facet normal -7.071068e-01 -7.071068e-01 0.000000e+00
    outer loop
      vertex -4.000001e+00 -6.000000e+00 3.000000e+00
      vertex -5.000000e+00 -5.000000e+00 3.000000e+00
      vertex -4.000001e+00 -6.000000e+00 0.000000e+00
    endloop
  endfacet
  facet normal -7.071068e-01 -7.071068e-01 0.000000e+00
    outer loop
      vertex -4.000001e+00 -6.000000e+00 0.000000e+00
      vertex -5.000000e+00 -5.000000e+00 3.000000e+00
      vertex -5.000000e+00 -5.000000e+00 0.000000e+00
    endloop
  endfacet
  facet normal -7.071068e-01 7.071068e-01 0.000000e+00
    outer loop
      vertex -5.000000e+00 -7.000000e+00 3.000000e+00
      vertex -4.000001e+00 -6.000000e+00 3.000000e+00
      vertex -5.000000e+00 -7.000000e+00 0.000000e+00
    endloop
  endfacet
  facet normal -7.071068e-01 7.071068e-01 0.000000e+00
    outer loop
      vertex -5.000000e+00 -7.000000e+00 0.000000e+00
      vertex -4.000001e+00 -6.000000e+00 3.000000e+00
      vertex -4.000001e+00 -6.000000e+00 0.000000e+00
    endloop
  endfacet
  facet normal -7.071068e-01 -7.071068e-01 0.000000e+00
    outer loop
      vertex -4.000001e+00 -8.000000e+00 3.000000e+00
      vertex -5.000000e+00 -7.000000e+00 3.000000e+00
      vertex -4.000001e+00 -8.000000e+00 0.000000e+00
    endloop
  endfacet
  facet normal -7.071068e-01 -7.071068e-01 0.000000e+00
    outer loop
      vertex -4.000001e+00 -8.000000e+00 0.000000e+00
      vertex -5.000000e+00 -7.000000e+00 3.000000e+00
      vertex -5.000000e+00 -7.000000e+00 0.000000e+00
    endloop
  endfacet
  facet normal -7.071068e-01 7.071068e-01 0.000000e+00
    outer loop
      vertex -5.000000e+00 -9.000000e+00 3.000000e+00
      vertex -4.000001e+00 -8.000000e+00 3.000000e+00
      vertex -5.000000e+00 -9.000000e+00 0.000000e+00
    endloop
  endfacet
  facet normal -7.071068e-01 7.071068e-01 0.000000e+00
    outer loop
      vertex -5.000000e+00 -9.000000e+00 0.000000e+00
      vertex -4.000001e+00 -8.000000e+00 3.000000e+00
      vertex -4.000001e+00 -8.000000e+00 0.000000e+00
    endloop
  endfacet
  facet normal -7.071068e-01 -7.071068e-01 0.000000e+00
    outer loop
      vertex -4.000001e+00 -9.999969e+00 3.000000e+00
      vertex -5.000000e+00 -9.000000e+00 3.000000e+00
      vertex -4.000001e+00 -9.999969e+00 0.000000e+00
    endloop
  endfacet
  facet normal -7.071068e-01 -7.071068e-01 0.000000e+00
    outer loop
      vertex -4.000001e+00 -9.999969e+00 0.000000e+00
      vertex -5.000000e+00 -9.000000e+00 3.000000e+00
      vertex -5.000000e+00 -9.000000e+00 0.000000e+00
    endloop
  endfacet
  facet normal -7.071068e-01 7.071068e-01 0.000000e+00
    outer loop
      vertex -5.000000e+00 -1.100000e+01 3.000000e+00
      vertex -4.000001e+00 -9.999969e+00 3.000000e+00
      vertex -5.000000e+00 -1.100000e+01 0.000000e+00
    endloop
  endfacet
  facet normal -7.071068e-01 7.071068e-01 0.000000e+00
    outer loop
      vertex -5.000000e+00 -1.100000e+01 0.000000e+00
      vertex -4.000001e+00 -9.999969e+00 3.000000e+00
      vertex -4.000001e+00 -9.999969e+00 0.000000e+00
    endloop
  endfacet
  facet normal -7.071068e-01 -7.071068e-01 0.000000e+00
    outer loop
      vertex -4.000001e+00 -1.200000e+01 3.000000e+00
      vertex -5.000000e+00 -1.100000e+01 3.000000e+00
      vertex -4.000001e+00 -1.200000e+01 0.000000e+00
    endloop
  endfacet
  facet normal -7.071068e-01 -7.071068e-01 0.000000e+00
    outer loop
      vertex -4.000001e+00 -1.200000e+01 0.000000e+00
      vertex -5.000000e+00 -1.100000e+01 3.000000e+00
      vertex -5.000000e+00 -1.100000e+01 0.000000e+00
    endloop
  endfacet
  facet normal -7.071068e-01 7.071068e-01 0.000000e+00
    outer loop
      vertex -5.000000e+00 -1.300000e+01 3.000000e+00
      vertex -4.000001e+00 -1.200000e+01 3.000000e+00
      vertex -5.000000e+00 -1.300000e+01 0.000000e+00
    endloop
  endfacet
  facet normal -7.071068e-01 7.071068e-01 0.000000e+00
    outer loop
      vertex -5.000000e+00 -1.300000e+01 0.000000e+00
      vertex -4.000001e+00 -1.200000e+01 3.000000e+00
      vertex -4.000001e+00 -1.200000e+01 0.000000e+00
    endloop
  endfacet
  facet normal -7.071068e-01 -7.071068e-01 0.000000e+00
    outer loop
      vertex -4.000001e+00 -1.400000e+01 3.000000e+00
      vertex -5.000000e+00 -1.300000e+01 3.000000e+00
      vertex -4.000001e+00 -1.400000e+01 0.000000e+00
    endloop
  endfacet
  facet normal -7.071068e-01 -7.071068e-01 0.000000e+00
    outer loop
      vertex -4.000001e+00 -1.400000e+01 0.000000e+00
      vertex -5.000000e+00 -1.300000e+01 3.000000e+00
      vertex -5.000000e+00 -1.300000e+01 0.000000e+00
    endloop
  endfacet
  facet normal -7.071068e-01 7.071068e-01 0.000000e+00
    outer loop
      vertex -5.000000e+00 -1.500000e+01 3.000000e+00
      vertex -4.000001e+00 -1.400000e+01 3.000000e+00
      vertex -5.000000e+00 -1.500000e+01 0.000000e+00
    endloop
  endfacet
  facet normal -7.071068e-01 7.071068e-01 0.000000e+00
    outer loop
      vertex -5.000000e+00 -1.500000e+01 0.000000e+00
      vertex -4.000001e+00 -1.400000e+01 3.000000e+00
      vertex -4.000001e+00 -1.400000e+01 0.000000e+00
    endloop
  endfacet
  facet normal -7.071068e-01 -7.071068e-01 0.000000e+00
    outer loop
      vertex -4.000001e+00 -1.600000e+01 3.000000e+00
      vertex -5.000000e+00 -1.500000e+01 3.000000e+00
      vertex -4.000001e+00 -1.600000e+01 0.000000e+00
    endloop
  endfacet
  facet normal -7.071068e-01 -7.071068e-01 0.000000e+00
    outer loop
      vertex -4.000001e+00 -1.600000e+01 0.000000e+00
      vertex -5.000000e+00 -1.500000e+01 3.000000e+00
      vertex -5.000000e+00 -1.500000e+01 0.000000e+00
    endloop
  endfacet
  facet normal -7.071068e-01 7.071068e-01 0.000000e+00
    outer loop
      vertex -5.000000e+00 -1.699998e+01 3.000000e+00
      vertex -4.000001e+00 -1.600000e+01 3.000000e+00
      vertex -5.000000e+00 -1.699998e+01 0.000000e+00
    endloop
  endfacet
  facet normal -7.071068e-01 7.071068e-01 0.000000e+00
    outer loop
      vertex -5.000000e+00 -1.699998e+01 0.000000e+00
      vertex -4.000001e+00 -1.600000e+01 3.000000e+00
      vertex -4.000001e+00 -1.600000e+01 0.000000e+00
    endloop
  endfacet
  facet normal -7.071068e-01 -7.071068e-01 0.000000e+00
    outer loop
      vertex -4.000001e+00 -1.800000e+01 3.000000e+00
      vertex -5.000000e+00 -1.699998e+01 3.000000e+00
      vertex -4.000001e+00 -1.800000e+01 0.000000e+00
    endloop
  endfacet
  facet normal -7.071068e-01 -7.071068e-01 0.000000e+00
    outer loop
      vertex -4.000001e+00 -1.800000e+01 0.000000e+00
      vertex -5.000000e+00 -1.699998e+01 3.000000e+00
      vertex -5.000000e+00 -1.699998e+01 0.000000e+00
    endloop
  endfacet
  facet normal 0.000000e+00 -1.000000e+00 0.000000e+00
    outer loop
      vertex 5.000000e-01 -1.800000e+01 3.000000e+00
      vertex -4.000001e+00 -1.800000e+01 3.000000e+00
      vertex 5.000000e-01 -1.800000e+01 0.000000e+00
    endloop
  endfacet
  facet normal 0.000000e+00 -1.000000e+00 0.000000e+00
    outer loop
      vertex 5.000000e-01 -1.800000e+01 0.000000e+00
      vertex -4.000001e+00 -1.800000e+01 3.000000e+00
      vertex -4.000001e+00 -1.800000e+01 0.000000e+00
    endloop
  endfacet
  facet normal 5.228807e-02 -9.986320e-01 0.000000e+00
    outer loop
      vertex 5.000000e-01 -1.800000e+01 3.000000e+00
      vertex 5.000000e-01 -1.800000e+01 0.000000e+00
      vertex 1.203955e+00 -1.794460e+01 0.000000e+00
    endloop
  endfacet
  facet normal 1.045762e-01 -9.945170e-01 0.000000e+00
    outer loop
      vertex 5.000000e-01 -1.800000e+01 3.000000e+00
      vertex 1.203955e+00 -1.794460e+01 0.000000e+00
      vertex 1.203955e+00 -1.794460e+01 3.000000e+00
    endloop
  endfacet
  facet normal 2.078648e-01 -9.781576e-01 0.000000e+00
    outer loop
      vertex 1.203955e+00 -1.794460e+01 3.000000e+00
      vertex 1.203955e+00 -1.794460e+01 0.000000e+00
      vertex 1.890576e+00 -1.777975e+01 0.000000e+00
    endloop
  endfacet
  facet normal 2.588654e-01 -9.659135e-01 0.000000e+00
    outer loop
      vertex 1.203955e+00 -1.794460e+01 3.000000e+00
      vertex 1.890576e+00 -1.777975e+01 0.000000e+00
      vertex 1.890576e+00 -1.777975e+01 3.000000e+00
    endloop
  endfacet
  facet normal 3.583232e-01 -9.335976e-01 0.000000e+00
    outer loop
      vertex 1.890576e+00 -1.777975e+01 3.000000e+00
      vertex 1.890576e+00 -1.777975e+01 0.000000e+00
      vertex 2.542955e+00 -1.750951e+01 0.000000e+00
    endloop
  endfacet
  facet normal 4.067805e-01 -9.135259e-01 0.000000e+00
    outer loop
      vertex 1.890576e+00 -1.777975e+01 3.000000e+00
      vertex 2.542955e+00 -1.750951e+01 0.000000e+00
      vertex 2.542955e+00 -1.750951e+01 3.000000e+00
    endloop
  endfacet
  facet normal 4.999584e-01 -8.660494e-01 0.000000e+00
    outer loop
      vertex 2.542955e+00 -1.750951e+01 3.000000e+00
      vertex 2.542955e+00 -1.750951e+01 0.000000e+00
      vertex 3.145033e+00 -1.714056e+01 0.000000e+00
    endloop
  endfacet
  facet normal 5.446792e-01 -8.386444e-01 0.000000e+00
    outer loop
      vertex 2.542955e+00 -1.750951e+01 3.000000e+00
      vertex 3.145033e+00 -1.714056e+01 0.000000e+00
      vertex 3.145033e+00 -1.714056e+01 3.000000e+00
    endloop
  endfacet
  facet normal 6.292832e-01 -7.771762e-01 0.000000e+00
    outer loop
      vertex 3.145033e+00 -1.714056e+01 3.000000e+00
      vertex 3.145033e+00 -1.714056e+01 0.000000e+00
      vertex 3.681980e+00 -1.668196e+01 0.000000e+00
    endloop
  endfacet
  facet normal 6.691663e-01 -7.431127e-01 0.000000e+00
    outer loop
      vertex 3.145033e+00 -1.714056e+01 3.000000e+00
      vertex 3.681980e+00 -1.668196e+01 0.000000e+00
      vertex 3.681980e+00 -1.668196e+01 3.000000e+00
    endloop
  endfacet
  facet normal 7.431127e-01 -6.691663e-01 0.000000e+00
    outer loop
      vertex 3.681980e+00 -1.668196e+01 3.000000e+00
      vertex 3.681980e+00 -1.668196e+01 0.000000e+00
      vertex 4.140575e+00 -1.614505e+01 0.000000e+00
    endloop
  endfacet
  facet normal 7.771762e-01 -6.292832e-01 0.000000e+00
    outer loop
      vertex 3.681980e+00 -1.668196e+01 3.000000e+00
      vertex 4.140575e+00 -1.614505e+01 0.000000e+00
      vertex 4.140575e+00 -1.614505e+01 3.000000e+00
    endloop
  endfacet
  facet normal 8.386444e-01 -5.446792e-01 0.000000e+00
    outer loop
      vertex 4.140575e+00 -1.614505e+01 3.000000e+00
      vertex 4.140575e+00 -1.614505e+01 0.000000e+00
      vertex 4.509529e+00 -1.554294e+01 0.000000e+00
    endloop
  endfacet
  facet normal 8.660494e-01 -4.999584e-01 0.000000e+00
    outer loop
      vertex 4.140575e+00 -1.614505e+01 3.000000e+00
      vertex 4.509529e+00 -1.554294e+01 0.000000e+00
      vertex 4.509529e+00 -1.554294e+01 3.000000e+00
    endloop
  endfacet
  facet normal 9.135259e-01 -4.067805e-01 0.000000e+00
    outer loop
      vertex 4.509529e+00 -1.554294e+01 3.000000e+00
      vertex 4.509529e+00 -1.554294e+01 0.000000e+00
      vertex 4.779753e+00 -1.489056e+01 0.000000e+00
    endloop
  endfacet
  facet normal 9.335976e-01 -3.583232e-01 0.000000e+00
    outer loop
      vertex 4.509529e+00 -1.554294e+01 3.000000e+00
      vertex 4.779753e+00 -1.489056e+01 0.000000e+00
      vertex 4.779753e+00 -1.489056e+01 3.000000e+00
    endloop
  endfacet
  facet normal 9.659135e-01 -2.588654e-01 0.000000e+00
    outer loop
      vertex 4.779753e+00 -1.489056e+01 3.000000e+00
      vertex 4.779753e+00 -1.489056e+01 0.000000e+00
      vertex 4.944597e+00 -1.420395e+01 0.000000e+00
    endloop
  endfacet
  facet normal 9.781576e-01 -2.078648e-01 0.000000e+00
    outer loop
      vertex 4.779753e+00 -1.489056e+01 3.000000e+00
      vertex 4.944597e+00 -1.420395e+01 0.000000e+00
      vertex 4.944597e+00 -1.420395e+01 3.000000e+00
    endloop
  endfacet
  facet normal 9.945170e-01 -1.045762e-01 0.000000e+00
    outer loop
      vertex 4.944597e+00 -1.420395e+01 3.000000e+00
      vertex 4.944597e+00 -1.420395e+01 0.000000e+00
      vertex 5.000000e+00 -1.350000e+01 0.000000e+00
    endloop
  endfacet
  facet normal 9.986320e-01 -5.228807e-02 0.000000e+00
    outer loop
      vertex 4.944597e+00 -1.420395e+01 3.000000e+00
      vertex 5.000000e+00 -1.350000e+01 0.000000e+00
      vertex 5.000000e+00 -1.350000e+01 3.000000e+00
    endloop
  endfacet
  facet normal 1.000000e+00 0.000000e+00 0.000000e+00
    outer loop
      vertex 5.000000e+00 1.350000e+01 3.000000e+00
      vertex 5.000000e+00 -1.350000e+01 3.000000e+00
      vertex 5.000000e+00 1.350000e+01 0.000000e+00
    endloop
  endfacet
  facet normal 1.000000e+00 0.000000e+00 0.000000e+00
    outer loop
      vertex 5.000000e+00 1.350000e+01 0.000000e+00
      vertex 5.000000e+00 -1.350000e+01 3.000000e+00
      vertex 5.000000e+00 -1.350000e+01 0.000000e+00
    endloop
  endfacet
  facet normal 0.000000e+00 -1.000000e+00 0.000000e+00
    outer loop
      vertex 1.999999e+00 1.500000e+01 3.000000e+00
      vertex -1.000001e+00 1.500000e+01 3.000000e+00
      vertex 1.999999e+00 1.500000e+01 0.000000e+00
    endloop
  endfacet
  facet normal 0.000000e+00 -1.000000e+00 0.000000e+00
    outer loop
      vertex 1.999999e+00 1.500000e+01 0.000000e+00
      vertex -1.000001e+00 1.500000e+01 3.000000e+00
      vertex -1.000001e+00 1.500000e+01 0.000000e+00
    endloop
  endfacet
  facet normal 1.000000e+00 0.000000e+00 0.000000e+00
    outer loop
      vertex -1.000001e+00 1.500000e+01 3.000000e+00
      vertex -1.000001e+00 1.200000e+01 3.000000e+00
      vertex -1.000001e+00 1.500000e+01 0.000000e+00
    endloop
  endfacet
  facet normal 1.000000e+00 0.000000e+00 0.000000e+00
    outer loop
      vertex -1.000001e+00 1.500000e+01 0.000000e+00
      vertex -1.000001e+00 1.200000e+01 3.000000e+00
      vertex -1.000001e+00 1.200000e+01 0.000000e+00
    endloop
  endfacet
  facet normal 0.000000e+00 1.000000e+00 0.000000e+00
    outer loop
      vertex -1.000001e+00 1.200000e+01 3.000000e+00
      vertex 1.999999e+00 1.200000e+01 3.000000e+00
      vertex -1.000001e+00 1.200000e+01 0.000000e+00
    endloop
  endfacet
  facet normal 0.000000e+00 1.000000e+00 0.000000e+00
    outer loop
      vertex -1.000001e+00 1.200000e+01 0.000000e+00
      vertex 1.999999e+00 1.200000e+01 3.000000e+00
      vertex 1.999999e+00 1.200000e+01 0.000000e+00
    endloop
  endfacet
  facet normal -1.000000e+00 0.000000e+00 0.000000e+00
    outer loop
      vertex 1.999999e+00 1.200000e+01 3.000000e+00
      vertex 1.999999e+00 1.500000e+01 3.000000e+00
      vertex 1.999999e+00 1.200000e+01 0.000000e+00
    endloop
  endfacet
  facet normal -1.000000e+00 0.000000e+00 0.000000e+00
    outer loop
      vertex 1.999999e+00 1.200000e+01 0.000000e+00
      vertex 1.999999e+00 1.500000e+01 3.000000e+00
      vertex 1.999999e+00 1.500000e+01 0.000000e+00
    endloop
  endfacet
  facet normal 0.000000e+00 -1.000000e+00 0.000000e+00
    outer loop
      vertex 1.999999e+00 6.000031e+00 3.000000e+00
      vertex -1.000001e+00 6.000031e+00 3.000000e+00
      vertex 1.999999e+00 6.000031e+00 0.000000e+00
    endloop
  endfacet
  facet normal 0.000000e+00 -1.000000e+00 0.000000e+00
    outer loop
      vertex 1.999999e+00 6.000031e+00 0.000000e+00
      vertex -1.000001e+00 6.000031e+00 3.000000e+00
      vertex -1.000001e+00 6.000031e+00 0.000000e+00
    endloop
  endfacet
  facet normal 1.000000e+00 0.000000e+00 0.000000e+00
    outer loop
      vertex -1.000001e+00 6.000031e+00 3.000000e+00
      vertex -1.000001e+00 3.000000e+00 3.000000e+00
      vertex -1.000001e+00 6.000031e+00 0.000000e+00
    endloop
  endfacet
  facet normal 1.000000e+00 0.000000e+00 0.000000e+00
    outer loop
      vertex -1.000001e+00 6.000031e+00 0.000000e+00
      vertex -1.000001e+00 3.000000e+00 3.000000e+00
      vertex -1.000001e+00 3.000000e+00 0.000000e+00
    endloop
  endfacet
  facet normal 0.000000e+00 1.000000e+00 0.000000e+00
    outer loop
      vertex -1.000001e+00 3.000000e+00 3.000000e+00
      vertex 1.999999e+00 3.000000e+00 3.000000e+00
      vertex -1.000001e+00 3.000000e+00 0.000000e+00
    endloop
  endfacet
  facet normal 0.000000e+00 1.000000e+00 0.000000e+00
    outer loop
      vertex -1.000001e+00 3.000000e+00 0.000000e+00
      vertex 1.999999e+00 3.000000e+00 3.000000e+00
      vertex 1.999999e+00 3.000000e+00 0.000000e+00
    endloop
  endfacet
  facet normal -1.000000e+00 0.000000e+00 0.000000e+00
    outer loop
      vertex 1.999999e+00 3.000000e+00 3.000000e+00
      vertex 1.999999e+00 6.000031e+00 3.000000e+00
      vertex 1.999999e+00 3.000000e+00 0.000000e+00
    endloop
  endfacet
  facet normal -1.000000e+00 0.000000e+00 0.000000e+00
    outer loop
      vertex 1.999999e+00 3.000000e+00 0.000000e+00
      vertex 1.999999e+00 6.000031e+00 3.000000e+00
      vertex 1.999999e+00 6.000031e+00 0.000000e+00
    endloop
  endfacet
  facet normal 0.000000e+00 -1.000000e+00 0.000000e+00
    outer loop
      vertex 1.999999e+00 -1.200000e+01 3.000000e+00
      vertex -1.000001e+00 -1.200000e+01 3.000000e+00
      vertex 1.999999e+00 -1.200000e+01 0.000000e+00
    endloop
  endfacet
  facet normal 0.000000e+00 -1.000000e+00 0.000000e+00
    outer loop
      vertex 1.999999e+00 -1.200000e+01 0.000000e+00
      vertex -1.000001e+00 -1.200000e+01 3.000000e+00
      vertex -1.000001e+00 -1.200000e+01 0.000000e+00
    endloop
  endfacet
  facet normal 1.000000e+00 0.000000e+00 0.000000e+00
    outer loop
      vertex -1.000001e+00 -1.200000e+01 3.000000e+00
      vertex -1.000001e+00 -1.500000e+01 3.000000e+00
      vertex -1.000001e+00 -1.200000e+01 0.000000e+00
    endloop
  endfacet
  facet normal 1.000000e+00 0.000000e+00 0.000000e+00
    outer loop
      vertex -1.000001e+00 -1.200000e+01 0.000000e+00
      vertex -1.000001e+00 -1.500000e+01 3.000000e+00
      vertex -1.000001e+00 -1.500000e+01 0.000000e+00
    endloop
  endfacet
  facet normal 0.000000e+00 1.000000e+00 0.000000e+00
    outer loop
      vertex -1.000001e+00 -1.500000e+01 3.000000e+00
      vertex 1.999999e+00 -1.500000e+01 3.000000e+00
      vertex -1.000001e+00 -1.500000e+01 0.000000e+00
    endloop
  endfacet
  facet normal 0.000000e+00 1.000000e+00 0.000000e+00
    outer loop
      vertex -1.000001e+00 -1.500000e+01 0.000000e+00
      vertex 1.999999e+00 -1.500000e+01 3.000000e+00
      vertex 1.999999e+00 -1.500000e+01 0.000000e+00
    endloop
  endfacet
  facet normal -1.000000e+00 0.000000e+00 0.000000e+00
    outer loop
      vertex 1.999999e+00 -1.500000e+01 3.000000e+00
      vertex 1.999999e+00 -1.200000e+01 3.000000e+00
      vertex 1.999999e+00 -1.500000e+01 0.000000e+00
    endloop
  endfacet
  facet normal -1.000000e+00 0.000000e+00 0.000000e+00
    outer loop
      vertex 1.999999e+00 -1.500000e+01 0.000000e+00
      vertex 1.999999e+00 -1.200000e+01 3.000000e+00
      vertex 1.999999e+00 -1.200000e+01 0.000000e+00
    endloop
  endfacet
  facet normal 0.000000e+00 -1.000000e+00 0.000000e+00
    outer loop
      vertex 1.999999e+00 -2.999969e+00 3.000000e+00
      vertex -1.000001e+00 -2.999969e+00 3.000000e+00
      vertex 1.999999e+00 -2.999969e+00 0.000000e+00
    endloop
  endfacet
  facet normal 0.000000e+00 -1.000000e+00 0.000000e+00
    outer loop
      vertex 1.999999e+00 -2.999969e+00 0.000000e+00
      vertex -1.000001e+00 -2.999969e+00 3.000000e+00
      vertex -1.000001e+00 -2.999969e+00 0.000000e+00
    endloop
  endfacet
  facet normal 1.000000e+00 0.000000e+00 0.000000e+00
    outer loop
      vertex -1.000001e+00 -2.999969e+00 3.000000e+00
      vertex -1.000001e+00 -6.000000e+00 3.000000e+00
      vertex -1.000001e+00 -2.999969e+00 0.000000e+00
    endloop
  endfacet
  facet normal 1.000000e+00 0.000000e+00 0.000000e+00
    outer loop
      vertex -1.000001e+00 -2.999969e+00 0.000000e+00
      vertex -1.000001e+00 -6.000000e+00 3.000000e+00
      vertex -1.000001e+00 -6.000000e+00 0.000000e+00
    endloop
  endfacet
  facet normal 0.000000e+00 1.000000e+00 0.000000e+00
    outer loop
      vertex -1.000001e+00 -6.000000e+00 3.000000e+00
      vertex 1.999999e+00 -6.000000e+00 3.000000e+00
      vertex -1.000001e+00 -6.000000e+00 0.000000e+00
    endloop
  endfacet
  facet normal 0.000000e+00 1.000000e+00 0.000000e+00
    outer loop
      vertex -1.000001e+00 -6.000000e+00 0.000000e+00
      vertex 1.999999e+00 -6.000000e+00 3.000000e+00
      vertex 1.999999e+00 -6.000000e+00 0.000000e+00
    endloop
  endfacet
  facet normal -1.000000e+00 0.000000e+00 0.000000e+00
    outer loop
      vertex 1.999999e+00 -6.000000e+00 3.000000e+00
      vertex 1.999999e+00 -2.999969e+00 3.000000e+00
      vertex 1.999999e+00 -6.000000e+00 0.000000e+00
    endloop
  endfacet
  facet normal -1.000000e+00 0.000000e+00 0.000000e+00
    outer loop
      vertex 1.999999e+00 -6.000000e+00 0.000000e+00
      vertex 1.999999e+00 -2.999969e+00 3.000000e+00
      vertex 1.999999e+00 -2.999969e+00 0.000000e+00
    endloop
  endfacet
endsolid Default
