solid Default
  facet normal 0.000000e+00 0.000000e+00 1.000000e+00
    outer loop
      vertex 8.919525e-01 -1.205994e+00 3.000000e+00
      vertex 6.753082e-01 -1.339386e+00 3.000000e+00
      vertex 4.250000e+00 -6.000000e+00 3.000000e+00
    endloop
  endfacet
  facet normal 0.000000e+00 0.000000e+00 1.000000e+00
    outer loop
      vertex 1.366837e+00 -6.178436e-01 3.000000e+00
      vertex 5.286469e+00 -3.073410e+00 3.000000e+00
      vertex 5.515350e+00 -3.018463e+00 3.000000e+00
    endloop
  endfacet
  facet normal 0.000000e+00 0.000000e+00 1.000000e+00
    outer loop
      vertex 1.494598e+00 -1.272125e-01 3.000000e+00
      vertex 7.250000e+00 -2.999985e+00 3.000000e+00
      vertex 1.500000e+00 0.000000e+00 3.000000e+00
    endloop
  endfacet
  facet normal 0.000000e+00 0.000000e+00 1.000000e+00
    outer loop
      vertex 1.500000e+00 0.000000e+00 3.000000e+00
      vertex 7.250000e+00 -2.999985e+00 3.000000e+00
      vertex 7.250000e+00 3.000015e+00 3.000000e+00
    endloop
  endfacet
  facet normal 0.000000e+00 0.000000e+00 1.000000e+00
    outer loop
      vertex 1.500000e+00 0.000000e+00 3.000000e+00
      vertex 7.250000e+00 3.000015e+00 3.000000e+00
      vertex 1.494598e+00 1.272125e-01 3.000000e+00
    endloop
  endfacet
  facet normal 0.000000e+00 0.000000e+00 1.000000e+00
    outer loop
      vertex 1.494598e+00 1.272125e-01 3.000000e+00
      vertex 7.250000e+00 3.000015e+00 3.000000e+00
      vertex 1.451599e+00 3.779755e-01 3.000000e+00
    endloop
  endfacet
  facet normal 0.000000e+00 0.000000e+00 1.000000e+00
    outer loop
      vertex 1.242767e+00 -8.399658e-01 3.000000e+00
      vertex 4.868332e+00 -3.286469e+00 3.000000e+00
      vertex 1.366837e+00 -6.178436e-01 3.000000e+00
    endloop
  endfacet
  facet normal 0.000000e+00 0.000000e+00 1.000000e+00
    outer loop
      vertex 1.366837e+00 -6.178436e-01 3.000000e+00
      vertex 4.868332e+00 -3.286469e+00 3.000000e+00
      vertex 5.069016e+00 -3.163483e+00 3.000000e+00
    endloop
  endfacet
  facet normal 0.000000e+00 0.000000e+00 1.000000e+00
    outer loop
      vertex 1.366837e+00 -6.178436e-01 3.000000e+00
      vertex 5.069016e+00 -3.163483e+00 3.000000e+00
      vertex 5.286469e+00 -3.073410e+00 3.000000e+00
    endloop
  endfacet
  facet normal 0.000000e+00 0.000000e+00 1.000000e+00
    outer loop
      vertex 1.494598e+00 -1.272125e-01 3.000000e+00
      vertex 1.451599e+00 -3.779602e-01 3.000000e+00
      vertex 7.250000e+00 -2.999985e+00 3.000000e+00
    endloop
  endfacet
  facet normal 0.000000e+00 0.000000e+00 1.000000e+00
    outer loop
      vertex 7.250000e+00 -2.999985e+00 3.000000e+00
      vertex 1.451599e+00 -3.779602e-01 3.000000e+00
      vertex 1.366837e+00 -6.178436e-01 3.000000e+00
    endloop
  endfacet
  facet normal 0.000000e+00 0.000000e+00 1.000000e+00
    outer loop
      vertex 7.250000e+00 -2.999985e+00 3.000000e+00
      vertex 1.366837e+00 -6.178436e-01 3.000000e+00
      vertex 5.750000e+00 -2.999985e+00 3.000000e+00
    endloop
  endfacet
  facet normal 0.000000e+00 0.000000e+00 1.000000e+00
    outer loop
      vertex 5.750000e+00 -2.999985e+00 3.000000e+00
      vertex 1.366837e+00 -6.178436e-01 3.000000e+00
      vertex 5.515350e+00 -3.018463e+00 3.000000e+00
    endloop
  endfacet
  facet normal 0.000000e+00 0.000000e+00 1.000000e+00
    outer loop
      vertex -7.864532e-01 1.277298e+00 3.000000e+00
      vertex -5.592804e-01 1.391846e+00 3.000000e+00
      vertex -4.250000e+00 6.000000e+00 3.000000e+00
    endloop
  endfacet
  facet normal 0.000000e+00 0.000000e+00 1.000000e+00
    outer loop
      vertex 4.392395e-01 1.434250e+00 3.000000e+00
      vertex 6.753082e-01 1.339401e+00 3.000000e+00
      vertex 4.250000e+00 6.000000e+00 3.000000e+00
    endloop
  endfacet
  facet normal 0.000000e+00 0.000000e+00 1.000000e+00
    outer loop
      vertex 4.250000e+00 6.000000e+00 3.000000e+00
      vertex 6.753082e-01 1.339401e+00 3.000000e+00
      vertex 8.919525e-01 1.205994e+00 3.000000e+00
    endloop
  endfacet
  facet normal 0.000000e+00 0.000000e+00 1.000000e+00
    outer loop
      vertex 4.250000e+00 6.000000e+00 3.000000e+00
      vertex 8.919525e-01 1.205994e+00 3.000000e+00
      vertex 4.250000e+00 4.500000e+00 3.000000e+00
    endloop
  endfacet
  facet normal 0.000000e+00 0.000000e+00 1.000000e+00
    outer loop
      vertex 4.323425e+00 -4.036469e+00 3.000000e+00
      vertex 1.082947e+00 -1.037903e+00 3.000000e+00
      vertex 4.268463e+00 -4.265335e+00 3.000000e+00
    endloop
  endfacet
  facet normal 0.000000e+00 0.000000e+00 1.000000e+00
    outer loop
      vertex 4.268463e+00 -4.265335e+00 3.000000e+00
      vertex 1.082947e+00 -1.037903e+00 3.000000e+00
      vertex 8.919525e-01 -1.205994e+00 3.000000e+00
    endloop
  endfacet
  facet normal 0.000000e+00 0.000000e+00 1.000000e+00
    outer loop
      vertex 4.268463e+00 -4.265335e+00 3.000000e+00
      vertex 8.919525e-01 -1.205994e+00 3.000000e+00
      vertex 4.250000e+00 -4.500000e+00 3.000000e+00
    endloop
  endfacet
  facet normal 0.000000e+00 0.000000e+00 1.000000e+00
    outer loop
      vertex 4.250000e+00 -4.500000e+00 3.000000e+00
      vertex 8.919525e-01 -1.205994e+00 3.000000e+00
      vertex 4.250000e+00 -6.000000e+00 3.000000e+00
    endloop
  endfacet
  facet normal 0.000000e+00 0.000000e+00 1.000000e+00
    outer loop
      vertex 1.451599e+00 3.779755e-01 3.000000e+00
      vertex 7.250000e+00 3.000015e+00 3.000000e+00
      vertex 1.366837e+00 6.178589e-01 3.000000e+00
    endloop
  endfacet
  facet normal 0.000000e+00 0.000000e+00 1.000000e+00
    outer loop
      vertex 1.366837e+00 6.178589e-01 3.000000e+00
      vertex 7.250000e+00 3.000015e+00 3.000000e+00
      vertex 5.750000e+00 3.000015e+00 3.000000e+00
    endloop
  endfacet
  facet normal 0.000000e+00 0.000000e+00 1.000000e+00
    outer loop
      vertex 1.366837e+00 6.178589e-01 3.000000e+00
      vertex 5.750000e+00 3.000015e+00 3.000000e+00
      vertex 5.515350e+00 3.018478e+00 3.000000e+00
    endloop
  endfacet
  facet normal 0.000000e+00 0.000000e+00 1.000000e+00
    outer loop
      vertex 5.515350e+00 3.018478e+00 3.000000e+00
      vertex 5.286469e+00 3.073425e+00 3.000000e+00
      vertex 1.366837e+00 6.178589e-01 3.000000e+00
    endloop
  endfacet
  facet normal 0.000000e+00 0.000000e+00 1.000000e+00
    outer loop
      vertex 1.366837e+00 6.178589e-01 3.000000e+00
      vertex 5.286469e+00 3.073425e+00 3.000000e+00
      vertex 5.069016e+00 3.163513e+00 3.000000e+00
    endloop
  endfacet
  facet normal 0.000000e+00 0.000000e+00 1.000000e+00
    outer loop
      vertex 1.366837e+00 6.178589e-01 3.000000e+00
      vertex 5.069016e+00 3.163513e+00 3.000000e+00
      vertex 1.242767e+00 8.399658e-01 3.000000e+00
    endloop
  endfacet
  facet normal 0.000000e+00 0.000000e+00 1.000000e+00
    outer loop
      vertex 4.323425e+00 -4.036469e+00 3.000000e+00
      vertex 4.413483e+00 -3.819000e+00 3.000000e+00
      vertex 1.082947e+00 -1.037903e+00 3.000000e+00
    endloop
  endfacet
  facet normal 0.000000e+00 0.000000e+00 1.000000e+00
    outer loop
      vertex 1.082947e+00 -1.037903e+00 3.000000e+00
      vertex 4.413483e+00 -3.819000e+00 3.000000e+00
      vertex 4.536484e+00 -3.618317e+00 3.000000e+00
    endloop
  endfacet
  facet normal 0.000000e+00 0.000000e+00 1.000000e+00
    outer loop
      vertex 1.082947e+00 -1.037903e+00 3.000000e+00
      vertex 4.536484e+00 -3.618317e+00 3.000000e+00
      vertex 1.242767e+00 -8.399658e-01 3.000000e+00
    endloop
  endfacet
  facet normal 0.000000e+00 0.000000e+00 1.000000e+00
    outer loop
      vertex 1.242767e+00 -8.399658e-01 3.000000e+00
      vertex 4.536484e+00 -3.618317e+00 3.000000e+00
      vertex 4.689331e+00 -3.439331e+00 3.000000e+00
    endloop
  endfacet
  facet normal 0.000000e+00 0.000000e+00 1.000000e+00
    outer loop
      vertex 1.242767e+00 -8.399658e-01 3.000000e+00
      vertex 4.689331e+00 -3.439331e+00 3.000000e+00
      vertex 4.868332e+00 -3.286469e+00 3.000000e+00
    endloop
  endfacet
  facet normal 0.000000e+00 0.000000e+00 1.000000e+00
    outer loop
      vertex 6.753082e-01 -1.339386e+00 3.000000e+00
      vertex 4.392395e-01 -1.434250e+00 3.000000e+00
      vertex 4.250000e+00 -6.000000e+00 3.000000e+00
    endloop
  endfacet
  facet normal 0.000000e+00 0.000000e+00 1.000000e+00
    outer loop
      vertex 4.250000e+00 -6.000000e+00 3.000000e+00
      vertex 4.392395e-01 -1.434250e+00 3.000000e+00
      vertex 1.905212e-01 -1.487854e+00 3.000000e+00
    endloop
  endfacet
  facet normal 0.000000e+00 0.000000e+00 1.000000e+00
    outer loop
      vertex 4.250000e+00 -6.000000e+00 3.000000e+00
      vertex 1.905212e-01 -1.487854e+00 3.000000e+00
      vertex -4.250000e+00 -6.000000e+00 3.000000e+00
    endloop
  endfacet
  facet normal 0.000000e+00 0.000000e+00 1.000000e+00
    outer loop
      vertex -4.250000e+00 -6.000000e+00 3.000000e+00
      vertex 1.905212e-01 -1.487854e+00 3.000000e+00
      vertex -6.365967e-02 -1.498642e+00 3.000000e+00
    endloop
  endfacet
  facet normal 0.000000e+00 0.000000e+00 1.000000e+00
    outer loop
      vertex -4.250000e+00 -6.000000e+00 3.000000e+00
      vertex -6.365967e-02 -1.498642e+00 3.000000e+00
      vertex -3.160248e-01 -1.466324e+00 3.000000e+00
    endloop
  endfacet
  facet normal 0.000000e+00 0.000000e+00 1.000000e+00
    outer loop
      vertex -1.500000e+00 0.000000e+00 3.000000e+00
      vertex -7.250000e+00 3.000015e+00 3.000000e+00
      vertex -1.478424e+00 -2.534943e-01 3.000000e+00
    endloop
  endfacet
  facet normal 0.000000e+00 0.000000e+00 1.000000e+00
    outer loop
      vertex -1.478424e+00 -2.534943e-01 3.000000e+00
      vertex -7.250000e+00 3.000015e+00 3.000000e+00
      vertex -7.250000e+00 -2.999985e+00 3.000000e+00
    endloop
  endfacet
  facet normal 0.000000e+00 0.000000e+00 1.000000e+00
    outer loop
      vertex -1.478424e+00 -2.534943e-01 3.000000e+00
      vertex -7.250000e+00 -2.999985e+00 3.000000e+00
      vertex -1.414322e+00 -4.997101e-01 3.000000e+00
    endloop
  endfacet
  facet normal 0.000000e+00 0.000000e+00 1.000000e+00
    outer loop
      vertex -1.414322e+00 -4.997101e-01 3.000000e+00
      vertex -7.250000e+00 -2.999985e+00 3.000000e+00
      vertex -5.750000e+00 -2.999985e+00 3.000000e+00
    endloop
  endfacet
  facet normal 0.000000e+00 0.000000e+00 1.000000e+00
    outer loop
      vertex -1.414322e+00 -4.997101e-01 3.000000e+00
      vertex -5.750000e+00 -2.999985e+00 3.000000e+00
      vertex -1.309509e+00 -7.315369e-01 3.000000e+00
    endloop
  endfacet
  facet normal 0.000000e+00 0.000000e+00 1.000000e+00
    outer loop
      vertex -1.309509e+00 -7.315369e-01 3.000000e+00
      vertex -5.750000e+00 -2.999985e+00 3.000000e+00
      vertex -5.515350e+00 -3.018463e+00 3.000000e+00
    endloop
  endfacet
  facet normal 0.000000e+00 0.000000e+00 1.000000e+00
    outer loop
      vertex -1.309509e+00 -7.315369e-01 3.000000e+00
      vertex -5.515350e+00 -3.018463e+00 3.000000e+00
      vertex -5.286469e+00 -3.073410e+00 3.000000e+00
    endloop
  endfacet
  facet normal 0.000000e+00 0.000000e+00 1.000000e+00
    outer loop
      vertex -1.414322e+00 4.997101e-01 3.000000e+00
      vertex -1.309509e+00 7.315521e-01 3.000000e+00
      vertex -5.515350e+00 3.018478e+00 3.000000e+00
    endloop
  endfacet
  facet normal 0.000000e+00 0.000000e+00 1.000000e+00
    outer loop
      vertex -3.160248e-01 -1.466324e+00 3.000000e+00
      vertex -5.592804e-01 -1.391830e+00 3.000000e+00
      vertex -4.250000e+00 -6.000000e+00 3.000000e+00
    endloop
  endfacet
  facet normal 0.000000e+00 0.000000e+00 1.000000e+00
    outer loop
      vertex -4.250000e+00 -6.000000e+00 3.000000e+00
      vertex -5.592804e-01 -1.391830e+00 3.000000e+00
      vertex -7.864532e-01 -1.277283e+00 3.000000e+00
    endloop
  endfacet
  facet normal 0.000000e+00 0.000000e+00 1.000000e+00
    outer loop
      vertex -4.250000e+00 -6.000000e+00 3.000000e+00
      vertex -7.864532e-01 -1.277283e+00 3.000000e+00
      vertex -4.250000e+00 -4.500000e+00 3.000000e+00
    endloop
  endfacet
  facet normal 0.000000e+00 0.000000e+00 1.000000e+00
    outer loop
      vertex -4.250000e+00 -4.500000e+00 3.000000e+00
      vertex -7.864532e-01 -1.277283e+00 3.000000e+00
      vertex -9.910126e-01 -1.126007e+00 3.000000e+00
    endloop
  endfacet
  facet normal 0.000000e+00 0.000000e+00 1.000000e+00
    outer loop
      vertex -4.250000e+00 -4.500000e+00 3.000000e+00
      vertex -9.910126e-01 -1.126007e+00 3.000000e+00
      vertex -4.268463e+00 -4.265335e+00 3.000000e+00
    endloop
  endfacet
  facet normal 0.000000e+00 0.000000e+00 1.000000e+00
    outer loop
      vertex -4.268463e+00 -4.265335e+00 3.000000e+00
      vertex -9.910126e-01 -1.126007e+00 3.000000e+00
      vertex -4.323410e+00 -4.036469e+00 3.000000e+00
    endloop
  endfacet
  facet normal 0.000000e+00 0.000000e+00 1.000000e+00
    outer loop
      vertex -1.500000e+00 0.000000e+00 3.000000e+00
      vertex -1.478424e+00 2.535095e-01 3.000000e+00
      vertex -7.250000e+00 3.000015e+00 3.000000e+00
    endloop
  endfacet
  facet normal 0.000000e+00 0.000000e+00 1.000000e+00
    outer loop
      vertex -7.250000e+00 3.000015e+00 3.000000e+00
      vertex -1.478424e+00 2.535095e-01 3.000000e+00
      vertex -1.414322e+00 4.997101e-01 3.000000e+00
    endloop
  endfacet
  facet normal 0.000000e+00 0.000000e+00 1.000000e+00
    outer loop
      vertex -7.250000e+00 3.000015e+00 3.000000e+00
      vertex -1.414322e+00 4.997101e-01 3.000000e+00
      vertex -5.750000e+00 3.000015e+00 3.000000e+00
    endloop
  endfacet
  facet normal 0.000000e+00 0.000000e+00 1.000000e+00
    outer loop
      vertex -5.750000e+00 3.000015e+00 3.000000e+00
      vertex -1.414322e+00 4.997101e-01 3.000000e+00
      vertex -5.515350e+00 3.018478e+00 3.000000e+00
    endloop
  endfacet
  facet normal 0.000000e+00 0.000000e+00 1.000000e+00
    outer loop
      vertex -5.592804e-01 1.391846e+00 3.000000e+00
      vertex -3.160248e-01 1.466339e+00 3.000000e+00
      vertex -4.250000e+00 6.000000e+00 3.000000e+00
    endloop
  endfacet
  facet normal 0.000000e+00 0.000000e+00 1.000000e+00
    outer loop
      vertex -4.250000e+00 6.000000e+00 3.000000e+00
      vertex -3.160248e-01 1.466339e+00 3.000000e+00
      vertex -6.365967e-02 1.498657e+00 3.000000e+00
    endloop
  endfacet
  facet normal 0.000000e+00 0.000000e+00 1.000000e+00
    outer loop
      vertex -4.250000e+00 6.000000e+00 3.000000e+00
      vertex -6.365967e-02 1.498657e+00 3.000000e+00
      vertex 4.250000e+00 6.000000e+00 3.000000e+00
    endloop
  endfacet
  facet normal 0.000000e+00 0.000000e+00 1.000000e+00
    outer loop
      vertex 4.250000e+00 6.000000e+00 3.000000e+00
      vertex -6.365967e-02 1.498657e+00 3.000000e+00
      vertex 1.905212e-01 1.487854e+00 3.000000e+00
    endloop
  endfacet
  facet normal 0.000000e+00 0.000000e+00 1.000000e+00
    outer loop
      vertex 4.250000e+00 6.000000e+00 3.000000e+00
      vertex 1.905212e-01 1.487854e+00 3.000000e+00
      vertex 4.392395e-01 1.434250e+00 3.000000e+00
    endloop
  endfacet
  facet normal 0.000000e+00 0.000000e+00 1.000000e+00
    outer loop
      vertex 5.069016e+00 3.163513e+00 3.000000e+00
      vertex 4.868332e+00 3.286484e+00 3.000000e+00
      vertex 1.242767e+00 8.399658e-01 3.000000e+00
    endloop
  endfacet
  facet normal 0.000000e+00 0.000000e+00 1.000000e+00
    outer loop
      vertex 1.242767e+00 8.399658e-01 3.000000e+00
      vertex 4.868332e+00 3.286484e+00 3.000000e+00
      vertex 4.689331e+00 3.439346e+00 3.000000e+00
    endloop
  endfacet
  facet normal 0.000000e+00 0.000000e+00 1.000000e+00
    outer loop
      vertex 1.242767e+00 8.399658e-01 3.000000e+00
      vertex 4.689331e+00 3.439346e+00 3.000000e+00
      vertex 1.082947e+00 1.037918e+00 3.000000e+00
    endloop
  endfacet
  facet normal 0.000000e+00 0.000000e+00 1.000000e+00
    outer loop
      vertex 1.082947e+00 1.037918e+00 3.000000e+00
      vertex 4.689331e+00 3.439346e+00 3.000000e+00
      vertex 4.536484e+00 3.618332e+00 3.000000e+00
    endloop
  endfacet
  facet normal 0.000000e+00 0.000000e+00 1.000000e+00
    outer loop
      vertex 4.536484e+00 3.618332e+00 3.000000e+00
      vertex 4.413483e+00 3.819031e+00 3.000000e+00
      vertex 1.082947e+00 1.037918e+00 3.000000e+00
    endloop
  endfacet
  facet normal 0.000000e+00 0.000000e+00 1.000000e+00
    outer loop
      vertex 1.082947e+00 1.037918e+00 3.000000e+00
      vertex 4.413483e+00 3.819031e+00 3.000000e+00
      vertex 4.323425e+00 4.036484e+00 3.000000e+00
    endloop
  endfacet
  facet normal 0.000000e+00 0.000000e+00 1.000000e+00
    outer loop
      vertex 1.082947e+00 1.037918e+00 3.000000e+00
      vertex 4.323425e+00 4.036484e+00 3.000000e+00
      vertex 8.919525e-01 1.205994e+00 3.000000e+00
    endloop
  endfacet
  facet normal 0.000000e+00 0.000000e+00 1.000000e+00
    outer loop
      vertex 8.919525e-01 1.205994e+00 3.000000e+00
      vertex 4.323425e+00 4.036484e+00 3.000000e+00
      vertex 4.268463e+00 4.265350e+00 3.000000e+00
    endloop
  endfacet
  facet normal 0.000000e+00 0.000000e+00 1.000000e+00
    outer loop
      vertex 8.919525e-01 1.205994e+00 3.000000e+00
      vertex 4.268463e+00 4.265350e+00 3.000000e+00
      vertex 4.250000e+00 4.500000e+00 3.000000e+00
    endloop
  endfacet
  facet normal 0.000000e+00 0.000000e+00 1.000000e+00
    outer loop
      vertex -1.309509e+00 -7.315369e-01 3.000000e+00
      vertex -4.689331e+00 -3.439331e+00 3.000000e+00
      vertex -1.167038e+00 -9.423218e-01 3.000000e+00
    endloop
  endfacet
  facet normal 0.000000e+00 0.000000e+00 1.000000e+00
    outer loop
      vertex -1.167038e+00 -9.423218e-01 3.000000e+00
      vertex -4.689331e+00 -3.439331e+00 3.000000e+00
      vertex -4.536469e+00 -3.618317e+00 3.000000e+00
    endloop
  endfacet
  facet normal 0.000000e+00 0.000000e+00 1.000000e+00
    outer loop
      vertex -1.167038e+00 -9.423218e-01 3.000000e+00
      vertex -4.536469e+00 -3.618317e+00 3.000000e+00
      vertex -9.910126e-01 -1.126007e+00 3.000000e+00
    endloop
  endfacet
  facet normal 0.000000e+00 0.000000e+00 1.000000e+00
    outer loop
      vertex -9.910126e-01 -1.126007e+00 3.000000e+00
      vertex -4.536469e+00 -3.618317e+00 3.000000e+00
      vertex -4.413483e+00 -3.819000e+00 3.000000e+00
    endloop
  endfacet
  facet normal 0.000000e+00 0.000000e+00 1.000000e+00
    outer loop
      vertex -9.910126e-01 -1.126007e+00 3.000000e+00
      vertex -4.413483e+00 -3.819000e+00 3.000000e+00
      vertex -4.323410e+00 -4.036469e+00 3.000000e+00
    endloop
  endfacet
  facet normal 0.000000e+00 0.000000e+00 1.000000e+00
    outer loop
      vertex -7.864532e-01 1.277298e+00 3.000000e+00
      vertex -4.250000e+00 6.000000e+00 3.000000e+00
      vertex -9.910126e-01 1.126007e+00 3.000000e+00
    endloop
  endfacet
  facet normal 0.000000e+00 0.000000e+00 1.000000e+00
    outer loop
      vertex -9.910126e-01 1.126007e+00 3.000000e+00
      vertex -4.250000e+00 6.000000e+00 3.000000e+00
      vertex -4.250000e+00 4.500000e+00 3.000000e+00
    endloop
  endfacet
  facet normal 0.000000e+00 0.000000e+00 1.000000e+00
    outer loop
      vertex -9.910126e-01 1.126007e+00 3.000000e+00
      vertex -4.250000e+00 4.500000e+00 3.000000e+00
      vertex -4.268463e+00 4.265350e+00 3.000000e+00
    endloop
  endfacet
  facet normal 0.000000e+00 0.000000e+00 1.000000e+00
    outer loop
      vertex -5.286469e+00 -3.073410e+00 3.000000e+00
      vertex -5.069016e+00 -3.163483e+00 3.000000e+00
      vertex -1.309509e+00 -7.315369e-01 3.000000e+00
    endloop
  endfacet
  facet normal 0.000000e+00 0.000000e+00 1.000000e+00
    outer loop
      vertex -1.309509e+00 -7.315369e-01 3.000000e+00
      vertex -5.069016e+00 -3.163483e+00 3.000000e+00
      vertex -4.868317e+00 -3.286469e+00 3.000000e+00
    endloop
  endfacet
  facet normal 0.000000e+00 0.000000e+00 1.000000e+00
    outer loop
      vertex -1.309509e+00 -7.315369e-01 3.000000e+00
      vertex -4.868317e+00 -3.286469e+00 3.000000e+00
      vertex -4.689331e+00 -3.439331e+00 3.000000e+00
    endloop
  endfacet
  facet normal 0.000000e+00 0.000000e+00 1.000000e+00
    outer loop
      vertex -4.268463e+00 4.265350e+00 3.000000e+00
      vertex -4.323410e+00 4.036484e+00 3.000000e+00
      vertex -9.910126e-01 1.126007e+00 3.000000e+00
    endloop
  endfacet
  facet normal 0.000000e+00 0.000000e+00 1.000000e+00
    outer loop
      vertex -9.910126e-01 1.126007e+00 3.000000e+00
      vertex -4.323410e+00 4.036484e+00 3.000000e+00
      vertex -4.413483e+00 3.819031e+00 3.000000e+00
    endloop
  endfacet
  facet normal 0.000000e+00 0.000000e+00 1.000000e+00
    outer loop
      vertex -9.910126e-01 1.126007e+00 3.000000e+00
      vertex -4.413483e+00 3.819031e+00 3.000000e+00
      vertex -1.167038e+00 9.423370e-01 3.000000e+00
    endloop
  endfacet
  facet normal 0.000000e+00 0.000000e+00 1.000000e+00
    outer loop
      vertex -1.167038e+00 9.423370e-01 3.000000e+00
      vertex -4.413483e+00 3.819031e+00 3.000000e+00
      vertex -4.536469e+00 3.618332e+00 3.000000e+00
    endloop
  endfacet
  facet normal 0.000000e+00 0.000000e+00 1.000000e+00
    outer loop
      vertex -1.167038e+00 9.423370e-01 3.000000e+00
      vertex -4.536469e+00 3.618332e+00 3.000000e+00
      vertex -1.309509e+00 7.315521e-01 3.000000e+00
    endloop
  endfacet
  facet normal 0.000000e+00 0.000000e+00 1.000000e+00
    outer loop
      vertex -1.309509e+00 7.315521e-01 3.000000e+00
      vertex -4.536469e+00 3.618332e+00 3.000000e+00
      vertex -4.689331e+00 3.439346e+00 3.000000e+00
    endloop
  endfacet
  facet normal 0.000000e+00 0.000000e+00 1.000000e+00
    outer loop
      vertex -1.309509e+00 7.315521e-01 3.000000e+00
      vertex -4.689331e+00 3.439346e+00 3.000000e+00
      vertex -4.868317e+00 3.286484e+00 3.000000e+00
    endloop
  endfacet
  facet normal 0.000000e+00 0.000000e+00 1.000000e+00
    outer loop
      vertex -4.868317e+00 3.286484e+00 3.000000e+00
      vertex -5.069016e+00 3.163513e+00 3.000000e+00
      vertex -1.309509e+00 7.315521e-01 3.000000e+00
    endloop
  endfacet
  facet normal 0.000000e+00 0.000000e+00 1.000000e+00
    outer loop
      vertex -1.309509e+00 7.315521e-01 3.000000e+00
      vertex -5.069016e+00 3.163513e+00 3.000000e+00
      vertex -5.286469e+00 3.073425e+00 3.000000e+00
    endloop
  endfacet
  facet normal 0.000000e+00 0.000000e+00 1.000000e+00
    outer loop
      vertex -1.309509e+00 7.315521e-01 3.000000e+00
      vertex -5.286469e+00 3.073425e+00 3.000000e+00
      vertex -5.515350e+00 3.018478e+00 3.000000e+00
    endloop
  endfacet
  facet normal 0.000000e+00 0.000000e+00 -1.000000e+00
    outer loop
      vertex -1.478424e+00 2.535095e-01 0.000000e+00
      vertex -1.500000e+00 0.000000e+00 0.000000e+00
      vertex -7.250000e+00 3.000015e+00 0.000000e+00
    endloop
  endfacet
  facet normal 0.000000e+00 0.000000e+00 -1.000000e+00
    outer loop
      vertex 8.919525e-01 1.205994e+00 0.000000e+00
      vertex 6.753082e-01 1.339401e+00 0.000000e+00
      vertex 4.250000e+00 6.000000e+00 0.000000e+00
    endloop
  endfacet
  facet normal 0.000000e+00 0.000000e+00 -1.000000e+00
    outer loop
      vertex -7.250000e+00 3.000015e+00 0.000000e+00
      vertex -1.500000e+00 0.000000e+00 0.000000e+00
      vertex -7.250000e+00 -2.999985e+00 0.000000e+00
    endloop
  endfacet
  facet normal 0.000000e+00 0.000000e+00 -1.000000e+00
    outer loop
      vertex -7.864532e-01 -1.277283e+00 0.000000e+00
      vertex -5.592804e-01 -1.391830e+00 0.000000e+00
      vertex -4.250000e+00 -6.000000e+00 0.000000e+00
    endloop
  endfacet
  facet normal 0.000000e+00 0.000000e+00 -1.000000e+00
    outer loop
      vertex -1.414322e+00 -4.997101e-01 0.000000e+00
      vertex -1.309509e+00 -7.315369e-01 0.000000e+00
      vertex -5.515350e+00 -3.018463e+00 0.000000e+00
    endloop
  endfacet
  facet normal 0.000000e+00 0.000000e+00 -1.000000e+00
    outer loop
      vertex 4.392395e-01 -1.434250e+00 0.000000e+00
      vertex 6.753082e-01 -1.339386e+00 0.000000e+00
      vertex 4.250000e+00 -6.000000e+00 0.000000e+00
    endloop
  endfacet
  facet normal 0.000000e+00 0.000000e+00 -1.000000e+00
    outer loop
      vertex 4.250000e+00 -6.000000e+00 0.000000e+00
      vertex 6.753082e-01 -1.339386e+00 0.000000e+00
      vertex 8.919525e-01 -1.205994e+00 0.000000e+00
    endloop
  endfacet
  facet normal 0.000000e+00 0.000000e+00 -1.000000e+00
    outer loop
      vertex 4.250000e+00 -6.000000e+00 0.000000e+00
      vertex 8.919525e-01 -1.205994e+00 0.000000e+00
      vertex 4.250000e+00 -4.500000e+00 0.000000e+00
    endloop
  endfacet
  facet normal 0.000000e+00 0.000000e+00 -1.000000e+00
    outer loop
      vertex -1.500000e+00 0.000000e+00 0.000000e+00
      vertex -1.478424e+00 -2.534943e-01 0.000000e+00
      vertex -7.250000e+00 -2.999985e+00 0.000000e+00
    endloop
  endfacet
  facet normal 0.000000e+00 0.000000e+00 -1.000000e+00
    outer loop
      vertex -7.250000e+00 -2.999985e+00 0.000000e+00
      vertex -1.478424e+00 -2.534943e-01 0.000000e+00
      vertex -1.414322e+00 -4.997101e-01 0.000000e+00
    endloop
  endfacet
  facet normal 0.000000e+00 0.000000e+00 -1.000000e+00
    outer loop
      vertex -7.250000e+00 -2.999985e+00 0.000000e+00
      vertex -1.414322e+00 -4.997101e-01 0.000000e+00
      vertex -5.750000e+00 -2.999985e+00 0.000000e+00
    endloop
  endfacet
  facet normal 0.000000e+00 0.000000e+00 -1.000000e+00
    outer loop
      vertex -5.750000e+00 -2.999985e+00 0.000000e+00
      vertex -1.414322e+00 -4.997101e-01 0.000000e+00
      vertex -5.515350e+00 -3.018463e+00 0.000000e+00
    endloop
  endfacet
  facet normal 0.000000e+00 0.000000e+00 -1.000000e+00
    outer loop
      vertex 5.515350e+00 -3.018463e+00 0.000000e+00
      vertex 1.366837e+00 -6.178436e-01 0.000000e+00
      vertex 5.750000e+00 -2.999985e+00 0.000000e+00
    endloop
  endfacet
  facet normal 0.000000e+00 0.000000e+00 -1.000000e+00
    outer loop
      vertex 5.750000e+00 -2.999985e+00 0.000000e+00
      vertex 1.366837e+00 -6.178436e-01 0.000000e+00
      vertex 7.250000e+00 -2.999985e+00 0.000000e+00
    endloop
  endfacet
  facet normal 0.000000e+00 0.000000e+00 -1.000000e+00
    outer loop
      vertex 5.515350e+00 -3.018463e+00 0.000000e+00
      vertex 5.286469e+00 -3.073410e+00 0.000000e+00
      vertex 1.366837e+00 -6.178436e-01 0.000000e+00
    endloop
  endfacet
  facet normal 0.000000e+00 0.000000e+00 -1.000000e+00
    outer loop
      vertex 1.366837e+00 -6.178436e-01 0.000000e+00
      vertex 5.286469e+00 -3.073410e+00 0.000000e+00
      vertex 5.069016e+00 -3.163483e+00 0.000000e+00
    endloop
  endfacet
  facet normal 0.000000e+00 0.000000e+00 -1.000000e+00
    outer loop
      vertex 1.366837e+00 -6.178436e-01 0.000000e+00
      vertex 5.069016e+00 -3.163483e+00 0.000000e+00
      vertex 1.242767e+00 -8.399658e-01 0.000000e+00
    endloop
  endfacet
  facet normal 0.000000e+00 0.000000e+00 -1.000000e+00
    outer loop
      vertex 1.366837e+00 6.178589e-01 0.000000e+00
      vertex 5.286469e+00 3.073425e+00 0.000000e+00
      vertex 5.515350e+00 3.018478e+00 0.000000e+00
    endloop
  endfacet
  facet normal 0.000000e+00 0.000000e+00 -1.000000e+00
    outer loop
      vertex 6.753082e-01 1.339401e+00 0.000000e+00
      vertex 4.392395e-01 1.434250e+00 0.000000e+00
      vertex 4.250000e+00 6.000000e+00 0.000000e+00
    endloop
  endfacet
  facet normal 0.000000e+00 0.000000e+00 -1.000000e+00
    outer loop
      vertex 4.250000e+00 6.000000e+00 0.000000e+00
      vertex 4.392395e-01 1.434250e+00 0.000000e+00
      vertex 1.905212e-01 1.487854e+00 0.000000e+00
    endloop
  endfacet
  facet normal 0.000000e+00 0.000000e+00 -1.000000e+00
    outer loop
      vertex 4.250000e+00 6.000000e+00 0.000000e+00
      vertex 1.905212e-01 1.487854e+00 0.000000e+00
      vertex -4.250000e+00 6.000000e+00 0.000000e+00
    endloop
  endfacet
  facet normal 0.000000e+00 0.000000e+00 -1.000000e+00
    outer loop
      vertex -4.250000e+00 6.000000e+00 0.000000e+00
      vertex 1.905212e-01 1.487854e+00 0.000000e+00
      vertex -6.365967e-02 1.498657e+00 0.000000e+00
    endloop
  endfacet
  facet normal 0.000000e+00 0.000000e+00 -1.000000e+00
    outer loop
      vertex -4.250000e+00 6.000000e+00 0.000000e+00
      vertex -6.365967e-02 1.498657e+00 0.000000e+00
      vertex -3.160248e-01 1.466339e+00 0.000000e+00
    endloop
  endfacet
  facet normal 0.000000e+00 0.000000e+00 -1.000000e+00
    outer loop
      vertex -1.478424e+00 2.535095e-01 0.000000e+00
      vertex -7.250000e+00 3.000015e+00 0.000000e+00
      vertex -1.414322e+00 4.997101e-01 0.000000e+00
    endloop
  endfacet
  facet normal 0.000000e+00 0.000000e+00 -1.000000e+00
    outer loop
      vertex -1.414322e+00 4.997101e-01 0.000000e+00
      vertex -7.250000e+00 3.000015e+00 0.000000e+00
      vertex -5.750000e+00 3.000015e+00 0.000000e+00
    endloop
  endfacet
  facet normal 0.000000e+00 0.000000e+00 -1.000000e+00
    outer loop
      vertex -1.414322e+00 4.997101e-01 0.000000e+00
      vertex -5.750000e+00 3.000015e+00 0.000000e+00
      vertex -1.309509e+00 7.315521e-01 0.000000e+00
    endloop
  endfacet
  facet normal 0.000000e+00 0.000000e+00 -1.000000e+00
    outer loop
      vertex -1.309509e+00 7.315521e-01 0.000000e+00
      vertex -5.750000e+00 3.000015e+00 0.000000e+00
      vertex -5.515350e+00 3.018478e+00 0.000000e+00
    endloop
  endfacet
  facet normal 0.000000e+00 0.000000e+00 -1.000000e+00
    outer loop
      vertex -1.309509e+00 7.315521e-01 0.000000e+00
      vertex -5.515350e+00 3.018478e+00 0.000000e+00
      vertex -5.286469e+00 3.073425e+00 0.000000e+00
    endloop
  endfacet
  facet normal 0.000000e+00 0.000000e+00 -1.000000e+00
    outer loop
      vertex -5.592804e-01 -1.391830e+00 0.000000e+00
      vertex -3.160248e-01 -1.466324e+00 0.000000e+00
      vertex -4.250000e+00 -6.000000e+00 0.000000e+00
    endloop
  endfacet
  facet normal 0.000000e+00 0.000000e+00 -1.000000e+00
    outer loop
      vertex -4.250000e+00 -6.000000e+00 0.000000e+00
      vertex -3.160248e-01 -1.466324e+00 0.000000e+00
      vertex -6.365967e-02 -1.498642e+00 0.000000e+00
    endloop
  endfacet
  facet normal 0.000000e+00 0.000000e+00 -1.000000e+00
    outer loop
      vertex -4.250000e+00 -6.000000e+00 0.000000e+00
      vertex -6.365967e-02 -1.498642e+00 0.000000e+00
      vertex 4.250000e+00 -6.000000e+00 0.000000e+00
    endloop
  endfacet
  facet normal 0.000000e+00 0.000000e+00 -1.000000e+00
    outer loop
      vertex 4.250000e+00 -6.000000e+00 0.000000e+00
      vertex -6.365967e-02 -1.498642e+00 0.000000e+00
      vertex 1.905212e-01 -1.487854e+00 0.000000e+00
    endloop
  endfacet
  facet normal 0.000000e+00 0.000000e+00 -1.000000e+00
    outer loop
      vertex 4.250000e+00 -6.000000e+00 0.000000e+00
      vertex 1.905212e-01 -1.487854e+00 0.000000e+00
      vertex 4.392395e-01 -1.434250e+00 0.000000e+00
    endloop
  endfacet
  facet normal 0.000000e+00 0.000000e+00 -1.000000e+00
    outer loop
      vertex 1.242767e+00 8.399658e-01 0.000000e+00
      vertex 4.868332e+00 3.286484e+00 0.000000e+00
      vertex 1.366837e+00 6.178589e-01 0.000000e+00
    endloop
  endfacet
  facet normal 0.000000e+00 0.000000e+00 -1.000000e+00
    outer loop
      vertex 1.366837e+00 6.178589e-01 0.000000e+00
      vertex 4.868332e+00 3.286484e+00 0.000000e+00
      vertex 5.069016e+00 3.163513e+00 0.000000e+00
    endloop
  endfacet
  facet normal 0.000000e+00 0.000000e+00 -1.000000e+00
    outer loop
      vertex 1.366837e+00 6.178589e-01 0.000000e+00
      vertex 5.069016e+00 3.163513e+00 0.000000e+00
      vertex 5.286469e+00 3.073425e+00 0.000000e+00
    endloop
  endfacet
  facet normal 0.000000e+00 0.000000e+00 -1.000000e+00
    outer loop
      vertex 1.494598e+00 1.272125e-01 0.000000e+00
      vertex 1.451599e+00 3.779755e-01 0.000000e+00
      vertex 7.250000e+00 3.000015e+00 0.000000e+00
    endloop
  endfacet
  facet normal 0.000000e+00 0.000000e+00 -1.000000e+00
    outer loop
      vertex 7.250000e+00 3.000015e+00 0.000000e+00
      vertex 1.451599e+00 3.779755e-01 0.000000e+00
      vertex 1.366837e+00 6.178589e-01 0.000000e+00
    endloop
  endfacet
  facet normal 0.000000e+00 0.000000e+00 -1.000000e+00
    outer loop
      vertex 7.250000e+00 3.000015e+00 0.000000e+00
      vertex 1.366837e+00 6.178589e-01 0.000000e+00
      vertex 5.750000e+00 3.000015e+00 0.000000e+00
    endloop
  endfacet
  facet normal 0.000000e+00 0.000000e+00 -1.000000e+00
    outer loop
      vertex 5.750000e+00 3.000015e+00 0.000000e+00
      vertex 1.366837e+00 6.178589e-01 0.000000e+00
      vertex 5.515350e+00 3.018478e+00 0.000000e+00
    endloop
  endfacet
  facet normal 0.000000e+00 0.000000e+00 -1.000000e+00
    outer loop
      vertex -3.160248e-01 1.466339e+00 0.000000e+00
      vertex -5.592804e-01 1.391846e+00 0.000000e+00
      vertex -4.250000e+00 6.000000e+00 0.000000e+00
    endloop
  endfacet
  facet normal 0.000000e+00 0.000000e+00 -1.000000e+00
    outer loop
      vertex -4.250000e+00 6.000000e+00 0.000000e+00
      vertex -5.592804e-01 1.391846e+00 0.000000e+00
      vertex -7.864532e-01 1.277298e+00 0.000000e+00
    endloop
  endfacet
  facet normal 0.000000e+00 0.000000e+00 -1.000000e+00
    outer loop
      vertex -4.250000e+00 6.000000e+00 0.000000e+00
      vertex -7.864532e-01 1.277298e+00 0.000000e+00
      vertex -4.250000e+00 4.500000e+00 0.000000e+00
    endloop
  endfacet
  facet normal 0.000000e+00 0.000000e+00 -1.000000e+00
    outer loop
      vertex -4.250000e+00 4.500000e+00 0.000000e+00
      vertex -7.864532e-01 1.277298e+00 0.000000e+00
      vertex -9.910126e-01 1.126007e+00 0.000000e+00
    endloop
  endfacet
  facet normal 0.000000e+00 0.000000e+00 -1.000000e+00
    outer loop
      vertex -4.250000e+00 4.500000e+00 0.000000e+00
      vertex -9.910126e-01 1.126007e+00 0.000000e+00
      vertex -4.268463e+00 4.265350e+00 0.000000e+00
    endloop
  endfacet
  facet normal 0.000000e+00 0.000000e+00 -1.000000e+00
    outer loop
      vertex -4.268463e+00 4.265350e+00 0.000000e+00
      vertex -9.910126e-01 1.126007e+00 0.000000e+00
      vertex -4.323410e+00 4.036484e+00 0.000000e+00
    endloop
  endfacet
  facet normal 0.000000e+00 0.000000e+00 -1.000000e+00
    outer loop
      vertex -7.864532e-01 -1.277283e+00 0.000000e+00
      vertex -4.250000e+00 -6.000000e+00 0.000000e+00
      vertex -9.910126e-01 -1.126007e+00 0.000000e+00
    endloop
  endfacet
  facet normal 0.000000e+00 0.000000e+00 -1.000000e+00
    outer loop
      vertex -9.910126e-01 -1.126007e+00 0.000000e+00
      vertex -4.250000e+00 -6.000000e+00 0.000000e+00
      vertex -4.250000e+00 -4.500000e+00 0.000000e+00
    endloop
  endfacet
  facet normal 0.000000e+00 0.000000e+00 -1.000000e+00
    outer loop
      vertex -9.910126e-01 -1.126007e+00 0.000000e+00
      vertex -4.250000e+00 -4.500000e+00 0.000000e+00
      vertex -4.268463e+00 -4.265335e+00 0.000000e+00
    endloop
  endfacet
  facet normal 0.000000e+00 0.000000e+00 -1.000000e+00
    outer loop
      vertex 5.069016e+00 -3.163483e+00 0.000000e+00
      vertex 4.868332e+00 -3.286469e+00 0.000000e+00
      vertex 1.242767e+00 -8.399658e-01 0.000000e+00
    endloop
  endfacet
  facet normal 0.000000e+00 0.000000e+00 -1.000000e+00
    outer loop
      vertex 1.242767e+00 -8.399658e-01 0.000000e+00
      vertex 4.868332e+00 -3.286469e+00 0.000000e+00
      vertex 4.689331e+00 -3.439331e+00 0.000000e+00
    endloop
  endfacet
  facet normal 0.000000e+00 0.000000e+00 -1.000000e+00
    outer loop
      vertex 1.242767e+00 -8.399658e-01 0.000000e+00
      vertex 4.689331e+00 -3.439331e+00 0.000000e+00
      vertex 1.082947e+00 -1.037903e+00 0.000000e+00
    endloop
  endfacet
  facet normal 0.000000e+00 0.000000e+00 -1.000000e+00
    outer loop
      vertex 1.082947e+00 -1.037903e+00 0.000000e+00
      vertex 4.689331e+00 -3.439331e+00 0.000000e+00
      vertex 4.536484e+00 -3.618317e+00 0.000000e+00
    endloop
  endfacet
  facet normal 0.000000e+00 0.000000e+00 -1.000000e+00
    outer loop
      vertex 4.536484e+00 -3.618317e+00 0.000000e+00
      vertex 4.413483e+00 -3.819000e+00 0.000000e+00
      vertex 1.082947e+00 -1.037903e+00 0.000000e+00
    endloop
  endfacet
  facet normal 0.000000e+00 0.000000e+00 -1.000000e+00
    outer loop
      vertex 1.082947e+00 -1.037903e+00 0.000000e+00
      vertex 4.413483e+00 -3.819000e+00 0.000000e+00
      vertex 4.323425e+00 -4.036469e+00 0.000000e+00
    endloop
  endfacet
  facet normal 0.000000e+00 0.000000e+00 -1.000000e+00
    outer loop
      vertex 1.082947e+00 -1.037903e+00 0.000000e+00
      vertex 4.323425e+00 -4.036469e+00 0.000000e+00
      vertex 8.919525e-01 -1.205994e+00 0.000000e+00
    endloop
  endfacet
  facet normal 0.000000e+00 0.000000e+00 -1.000000e+00
    outer loop
      vertex 8.919525e-01 -1.205994e+00 0.000000e+00
      vertex 4.323425e+00 -4.036469e+00 0.000000e+00
      vertex 4.268463e+00 -4.265335e+00 0.000000e+00
    endloop
  endfacet
  facet normal 0.000000e+00 0.000000e+00 -1.000000e+00
    outer loop
      vertex 8.919525e-01 -1.205994e+00 0.000000e+00
      vertex 4.268463e+00 -4.265335e+00 0.000000e+00
      vertex 4.250000e+00 -4.500000e+00 0.000000e+00
    endloop
  endfacet
  facet normal 0.000000e+00 0.000000e+00 -1.000000e+00
    outer loop
      vertex 4.323425e+00 4.036484e+00 0.000000e+00
      vertex 1.082947e+00 1.037918e+00 0.000000e+00
      vertex 4.268463e+00 4.265350e+00 0.000000e+00
    endloop
  endfacet
  facet normal 0.000000e+00 0.000000e+00 -1.000000e+00
    outer loop
      vertex 4.268463e+00 4.265350e+00 0.000000e+00
      vertex 1.082947e+00 1.037918e+00 0.000000e+00
      vertex 8.919525e-01 1.205994e+00 0.000000e+00
    endloop
  endfacet
  facet normal 0.000000e+00 0.000000e+00 -1.000000e+00
    outer loop
      vertex 4.268463e+00 4.265350e+00 0.000000e+00
      vertex 8.919525e-01 1.205994e+00 0.000000e+00
      vertex 4.250000e+00 4.500000e+00 0.000000e+00
    endloop
  endfacet
  facet normal 0.000000e+00 0.000000e+00 -1.000000e+00
    outer loop
      vertex 4.250000e+00 4.500000e+00 0.000000e+00
      vertex 8.919525e-01 1.205994e+00 0.000000e+00
      vertex 4.250000e+00 6.000000e+00 0.000000e+00
    endloop
  endfacet
  facet normal 0.000000e+00 0.000000e+00 -1.000000e+00
    outer loop
      vertex -1.309509e+00 7.315521e-01 0.000000e+00
      vertex -4.689331e+00 3.439346e+00 0.000000e+00
      vertex -1.167038e+00 9.423370e-01 0.000000e+00
    endloop
  endfacet
  facet normal 0.000000e+00 0.000000e+00 -1.000000e+00
    outer loop
      vertex -1.167038e+00 9.423370e-01 0.000000e+00
      vertex -4.689331e+00 3.439346e+00 0.000000e+00
      vertex -4.536469e+00 3.618332e+00 0.000000e+00
    endloop
  endfacet
  facet normal 0.000000e+00 0.000000e+00 -1.000000e+00
    outer loop
      vertex -1.167038e+00 9.423370e-01 0.000000e+00
      vertex -4.536469e+00 3.618332e+00 0.000000e+00
      vertex -9.910126e-01 1.126007e+00 0.000000e+00
    endloop
  endfacet
  facet normal 0.000000e+00 0.000000e+00 -1.000000e+00
    outer loop
      vertex -9.910126e-01 1.126007e+00 0.000000e+00
      vertex -4.536469e+00 3.618332e+00 0.000000e+00
      vertex -4.413483e+00 3.819031e+00 0.000000e+00
    endloop
  endfacet
  facet normal 0.000000e+00 0.000000e+00 -1.000000e+00
    outer loop
      vertex -9.910126e-01 1.126007e+00 0.000000e+00
      vertex -4.413483e+00 3.819031e+00 0.000000e+00
      vertex -4.323410e+00 4.036484e+00 0.000000e+00
    endloop
  endfacet
  facet normal 0.000000e+00 0.000000e+00 -1.000000e+00
    outer loop
      vertex -4.268463e+00 -4.265335e+00 0.000000e+00
      vertex -4.323410e+00 -4.036469e+00 0.000000e+00
      vertex -9.910126e-01 -1.126007e+00 0.000000e+00
    endloop
  endfacet
  facet normal 0.000000e+00 0.000000e+00 -1.000000e+00
    outer loop
      vertex -9.910126e-01 -1.126007e+00 0.000000e+00
      vertex -4.323410e+00 -4.036469e+00 0.000000e+00
      vertex -4.413483e+00 -3.819000e+00 0.000000e+00
    endloop
  endfacet
  facet normal 0.000000e+00 0.000000e+00 -1.000000e+00
    outer loop
      vertex -9.910126e-01 -1.126007e+00 0.000000e+00
      vertex -4.413483e+00 -3.819000e+00 0.000000e+00
      vertex -1.167038e+00 -9.423218e-01 0.000000e+00
    endloop
  endfacet
  facet normal 0.000000e+00 0.000000e+00 -1.000000e+00
    outer loop
      vertex -1.167038e+00 -9.423218e-01 0.000000e+00
      vertex -4.413483e+00 -3.819000e+00 0.000000e+00
      vertex -4.536469e+00 -3.618317e+00 0.000000e+00
    endloop
  endfacet
  facet normal 0.000000e+00 0.000000e+00 -1.000000e+00
    outer loop
      vertex -1.167038e+00 -9.423218e-01 0.000000e+00
      vertex -4.536469e+00 -3.618317e+00 0.000000e+00
      vertex -1.309509e+00 -7.315369e-01 0.000000e+00
    endloop
  endfacet
  facet normal 0.000000e+00 0.000000e+00 -1.000000e+00
    outer loop
      vertex -1.309509e+00 -7.315369e-01 0.000000e+00
      vertex -4.536469e+00 -3.618317e+00 0.000000e+00
      vertex -4.689331e+00 -3.439331e+00 0.000000e+00
    endloop
  endfacet
  facet normal 0.000000e+00 0.000000e+00 -1.000000e+00
    outer loop
      vertex -1.309509e+00 -7.315369e-01 0.000000e+00
      vertex -4.689331e+00 -3.439331e+00 0.000000e+00
      vertex -4.868317e+00 -3.286469e+00 0.000000e+00
    endloop
  endfacet
  facet normal 0.000000e+00 0.000000e+00 -1.000000e+00
    outer loop
      vertex 1.366837e+00 -6.178436e-01 0.000000e+00
      vertex 1.451599e+00 -3.779602e-01 0.000000e+00
      vertex 7.250000e+00 -2.999985e+00 0.000000e+00
    endloop
  endfacet
  facet normal 0.000000e+00 0.000000e+00 -1.000000e+00
    outer loop
      vertex 7.250000e+00 -2.999985e+00 0.000000e+00
      vertex 1.451599e+00 -3.779602e-01 0.000000e+00
      vertex 1.494598e+00 -1.272125e-01 0.000000e+00
    endloop
  endfacet
  facet normal 0.000000e+00 0.000000e+00 -1.000000e+00
    outer loop
      vertex 7.250000e+00 -2.999985e+00 0.000000e+00
      vertex 1.494598e+00 -1.272125e-01 0.000000e+00
      vertex 7.250000e+00 3.000015e+00 0.000000e+00
    endloop
  endfacet
  facet normal 0.000000e+00 0.000000e+00 -1.000000e+00
    outer loop
      vertex 7.250000e+00 3.000015e+00 0.000000e+00
      vertex 1.494598e+00 -1.272125e-01 0.000000e+00
      vertex 1.500000e+00 0.000000e+00 0.000000e+00
    endloop
  endfacet
  facet normal 0.000000e+00 0.000000e+00 -1.000000e+00
    outer loop
      vertex 7.250000e+00 3.000015e+00 0.000000e+00
      vertex 1.500000e+00 0.000000e+00 0.000000e+00
      vertex 1.494598e+00 1.272125e-01 0.000000e+00
    endloop
  endfacet
  facet normal 0.000000e+00 0.000000e+00 -1.000000e+00
    outer loop
      vertex 4.323425e+00 4.036484e+00 0.000000e+00
      vertex 4.413483e+00 3.819031e+00 0.000000e+00
      vertex 1.082947e+00 1.037918e+00 0.000000e+00
    endloop
  endfacet
  facet normal 0.000000e+00 0.000000e+00 -1.000000e+00
    outer loop
      vertex 1.082947e+00 1.037918e+00 0.000000e+00
      vertex 4.413483e+00 3.819031e+00 0.000000e+00
      vertex 4.536484e+00 3.618332e+00 0.000000e+00
    endloop
  endfacet
  facet normal 0.000000e+00 0.000000e+00 -1.000000e+00
    outer loop
      vertex 1.082947e+00 1.037918e+00 0.000000e+00
      vertex 4.536484e+00 3.618332e+00 0.000000e+00
      vertex 1.242767e+00 8.399658e-01 0.000000e+00
    endloop
  endfacet
  facet normal 0.000000e+00 0.000000e+00 -1.000000e+00
    outer loop
      vertex 1.242767e+00 8.399658e-01 0.000000e+00
      vertex 4.536484e+00 3.618332e+00 0.000000e+00
      vertex 4.689331e+00 3.439346e+00 0.000000e+00
    endloop
  endfacet
  facet normal 0.000000e+00 0.000000e+00 -1.000000e+00
    outer loop
      vertex 1.242767e+00 8.399658e-01 0.000000e+00
      vertex 4.689331e+00 3.439346e+00 0.000000e+00
      vertex 4.868332e+00 3.286484e+00 0.000000e+00
    endloop
  endfacet
  facet normal 0.000000e+00 0.000000e+00 -1.000000e+00
    outer loop
      vertex -5.286469e+00 3.073425e+00 0.000000e+00
      vertex -5.069016e+00 3.163513e+00 0.000000e+00
      vertex -1.309509e+00 7.315521e-01 0.000000e+00
    endloop
  endfacet
  facet normal 0.000000e+00 0.000000e+00 -1.000000e+00
    outer loop
      vertex -1.309509e+00 7.315521e-01 0.000000e+00
      vertex -5.069016e+00 3.163513e+00 0.000000e+00
      vertex -4.868317e+00 3.286484e+00 0.000000e+00
    endloop
  endfacet
  facet normal 0.000000e+00 0.000000e+00 -1.000000e+00
    outer loop
      vertex -1.309509e+00 7.315521e-01 0.000000e+00
      vertex -4.868317e+00 3.286484e+00 0.000000e+00
      vertex -4.689331e+00 3.439346e+00 0.000000e+00
    endloop
  endfacet
  facet normal 0.000000e+00 0.000000e+00 -1.000000e+00
    outer loop
      vertex -4.868317e+00 -3.286469e+00 0.000000e+00
      vertex -5.069016e+00 -3.163483e+00 0.000000e+00
      vertex -1.309509e+00 -7.315369e-01 0.000000e+00
    endloop
  endfacet
  facet normal 0.000000e+00 0.000000e+00 -1.000000e+00
    outer loop
      vertex -1.309509e+00 -7.315369e-01 0.000000e+00
      vertex -5.069016e+00 -3.163483e+00 0.000000e+00
      vertex -5.286469e+00 -3.073410e+00 0.000000e+00
    endloop
  endfacet
  facet normal 0.000000e+00 0.000000e+00 -1.000000e+00
    outer loop
      vertex -1.309509e+00 -7.315369e-01 0.000000e+00
      vertex -5.286469e+00 -3.073410e+00 0.000000e+00
      vertex -5.515350e+00 -3.018463e+00 0.000000e+00
    endloop
  endfacet
  facet normal 5.228807e-02 9.986320e-01 0.000000e+00
    outer loop
      vertex 5.750000e+00 3.000015e+00 3.000000e+00
      vertex 5.750000e+00 3.000015e+00 0.000000e+00
      vertex 5.515350e+00 3.018478e+00 0.000000e+00
    endloop
  endfacet
  facet normal 1.045762e-01 9.945170e-01 0.000000e+00
    outer loop
      vertex 5.750000e+00 3.000015e+00 3.000000e+00
      vertex 5.515350e+00 3.018478e+00 0.000000e+00
      vertex 5.515350e+00 3.018478e+00 3.000000e+00
    endloop
  endfacet
  facet normal 2.078648e-01 9.781576e-01 0.000000e+00
    outer loop
      vertex 5.515350e+00 3.018478e+00 3.000000e+00
      vertex 5.515350e+00 3.018478e+00 0.000000e+00
      vertex 5.286469e+00 3.073425e+00 0.000000e+00
    endloop
  endfacet
  facet normal 2.588654e-01 9.659135e-01 0.000000e+00
    outer loop
      vertex 5.515350e+00 3.018478e+00 3.000000e+00
      vertex 5.286469e+00 3.073425e+00 0.000000e+00
      vertex 5.286469e+00 3.073425e+00 3.000000e+00
    endloop
  endfacet
  facet normal 3.583232e-01 9.335976e-01 0.000000e+00
    outer loop
      vertex 5.286469e+00 3.073425e+00 3.000000e+00
      vertex 5.286469e+00 3.073425e+00 0.000000e+00
      vertex 5.069016e+00 3.163513e+00 0.000000e+00
    endloop
  endfacet
  facet normal 4.067805e-01 9.135259e-01 0.000000e+00
    outer loop
      vertex 5.286469e+00 3.073425e+00 3.000000e+00
      vertex 5.069016e+00 3.163513e+00 0.000000e+00
      vertex 5.069016e+00 3.163513e+00 3.000000e+00
    endloop
  endfacet
  facet normal 4.999584e-01 8.660494e-01 0.000000e+00
    outer loop
      vertex 5.069016e+00 3.163513e+00 3.000000e+00
      vertex 5.069016e+00 3.163513e+00 0.000000e+00
      vertex 4.868332e+00 3.286484e+00 0.000000e+00
    endloop
  endfacet
  facet normal 5.446792e-01 8.386444e-01 0.000000e+00
    outer loop
      vertex 5.069016e+00 3.163513e+00 3.000000e+00
      vertex 4.868332e+00 3.286484e+00 0.000000e+00
      vertex 4.868332e+00 3.286484e+00 3.000000e+00
    endloop
  endfacet
  facet normal 6.292832e-01 7.771762e-01 0.000000e+00
    outer loop
      vertex 4.868332e+00 3.286484e+00 3.000000e+00
      vertex 4.868332e+00 3.286484e+00 0.000000e+00
      vertex 4.689331e+00 3.439346e+00 0.000000e+00
    endloop
  endfacet
  facet normal 6.691663e-01 7.431127e-01 0.000000e+00
    outer loop
      vertex 4.868332e+00 3.286484e+00 3.000000e+00
      vertex 4.689331e+00 3.439346e+00 0.000000e+00
      vertex 4.689331e+00 3.439346e+00 3.000000e+00
    endloop
  endfacet
  facet normal 7.431127e-01 6.691663e-01 0.000000e+00
    outer loop
      vertex 4.689331e+00 3.439346e+00 3.000000e+00
      vertex 4.689331e+00 3.439346e+00 0.000000e+00
      vertex 4.536484e+00 3.618332e+00 0.000000e+00
    endloop
  endfacet
  facet normal 7.771762e-01 6.292832e-01 0.000000e+00
    outer loop
      vertex 4.689331e+00 3.439346e+00 3.000000e+00
      vertex 4.536484e+00 3.618332e+00 0.000000e+00
      vertex 4.536484e+00 3.618332e+00 3.000000e+00
    endloop
  endfacet
  facet normal 8.386444e-01 5.446792e-01 0.000000e+00
    outer loop
      vertex 4.536484e+00 3.618332e+00 3.000000e+00
      vertex 4.536484e+00 3.618332e+00 0.000000e+00
      vertex 4.413483e+00 3.819031e+00 0.000000e+00
    endloop
  endfacet
  facet normal 8.660494e-01 4.999584e-01 0.000000e+00
    outer loop
      vertex 4.536484e+00 3.618332e+00 3.000000e+00
      vertex 4.413483e+00 3.819031e+00 0.000000e+00
      vertex 4.413483e+00 3.819031e+00 3.000000e+00
    endloop
  endfacet
  facet normal 9.135259e-01 4.067805e-01 0.000000e+00
    outer loop
      vertex 4.413483e+00 3.819031e+00 3.000000e+00
      vertex 4.413483e+00 3.819031e+00 0.000000e+00
      vertex 4.323425e+00 4.036484e+00 0.000000e+00
    endloop
  endfacet
  facet normal 9.335976e-01 3.583232e-01 0.000000e+00
    outer loop
      vertex 4.413483e+00 3.819031e+00 3.000000e+00
      vertex 4.323425e+00 4.036484e+00 0.000000e+00
      vertex 4.323425e+00 4.036484e+00 3.000000e+00
    endloop
  endfacet
  facet normal 9.659135e-01 2.588654e-01 0.000000e+00
    outer loop
      vertex 4.323425e+00 4.036484e+00 3.000000e+00
      vertex 4.323425e+00 4.036484e+00 0.000000e+00
      vertex 4.268463e+00 4.265350e+00 0.000000e+00
    endloop
  endfacet
  facet normal 9.781576e-01 2.078648e-01 0.000000e+00
    outer loop
      vertex 4.323425e+00 4.036484e+00 3.000000e+00
      vertex 4.268463e+00 4.265350e+00 0.000000e+00
      vertex 4.268463e+00 4.265350e+00 3.000000e+00
    endloop
  endfacet
  facet normal 9.945170e-01 1.045762e-01 0.000000e+00
    outer loop
      vertex 4.268463e+00 4.265350e+00 3.000000e+00
      vertex 4.268463e+00 4.265350e+00 0.000000e+00
      vertex 4.250000e+00 4.500000e+00 0.000000e+00
    endloop
  endfacet
  facet normal 9.986320e-01 5.228807e-02 0.000000e+00
    outer loop
      vertex 4.268463e+00 4.265350e+00 3.000000e+00
      vertex 4.250000e+00 4.500000e+00 0.000000e+00
      vertex 4.250000e+00 4.500000e+00 3.000000e+00
    endloop
  endfacet
  facet normal 1.000000e+00 0.000000e+00 0.000000e+00
    outer loop
      vertex 4.250000e+00 6.000000e+00 3.000000e+00
      vertex 4.250000e+00 4.500000e+00 3.000000e+00
      vertex 4.250000e+00 6.000000e+00 0.000000e+00
    endloop
  endfacet
  facet normal 1.000000e+00 0.000000e+00 0.000000e+00
    outer loop
      vertex 4.250000e+00 6.000000e+00 0.000000e+00
      vertex 4.250000e+00 4.500000e+00 3.000000e+00
      vertex 4.250000e+00 4.500000e+00 0.000000e+00
    endloop
  endfacet
  facet normal 0.000000e+00 1.000000e+00 0.000000e+00
    outer loop
      vertex -4.250000e+00 6.000000e+00 3.000000e+00
      vertex 4.250000e+00 6.000000e+00 3.000000e+00
      vertex -4.250000e+00 6.000000e+00 0.000000e+00
    endloop
  endfacet
  facet normal 0.000000e+00 1.000000e+00 0.000000e+00
    outer loop
      vertex -4.250000e+00 6.000000e+00 0.000000e+00
      vertex 4.250000e+00 6.000000e+00 3.000000e+00
      vertex 4.250000e+00 6.000000e+00 0.000000e+00
    endloop
  endfacet
  facet normal -1.000000e+00 0.000000e+00 0.000000e+00
    outer loop
      vertex -4.250000e+00 4.500000e+00 3.000000e+00
      vertex -4.250000e+00 6.000000e+00 3.000000e+00
      vertex -4.250000e+00 4.500000e+00 0.000000e+00
    endloop
  endfacet
  facet normal -1.000000e+00 0.000000e+00 0.000000e+00
    outer loop
      vertex -4.250000e+00 4.500000e+00 0.000000e+00
      vertex -4.250000e+00 6.000000e+00 3.000000e+00
      vertex -4.250000e+00 6.000000e+00 0.000000e+00
    endloop
  endfacet
  facet normal -9.986320e-01 5.228807e-02 0.000000e+00
    outer loop
      vertex -4.250000e+00 4.500000e+00 3.000000e+00
      vertex -4.250000e+00 4.500000e+00 0.000000e+00
      vertex -4.268463e+00 4.265350e+00 0.000000e+00
    endloop
  endfacet
  facet normal -9.945170e-01 1.045762e-01 0.000000e+00
    outer loop
      vertex -4.250000e+00 4.500000e+00 3.000000e+00
      vertex -4.268463e+00 4.265350e+00 0.000000e+00
      vertex -4.268463e+00 4.265350e+00 3.000000e+00
    endloop
  endfacet
  facet normal -9.781576e-01 2.078648e-01 0.000000e+00
    outer loop
      vertex -4.268463e+00 4.265350e+00 3.000000e+00
      vertex -4.268463e+00 4.265350e+00 0.000000e+00
      vertex -4.323410e+00 4.036484e+00 0.000000e+00
    endloop
  endfacet
  facet normal -9.659135e-01 2.588654e-01 0.000000e+00
    outer loop
      vertex -4.268463e+00 4.265350e+00 3.000000e+00
      vertex -4.323410e+00 4.036484e+00 0.000000e+00
      vertex -4.323410e+00 4.036484e+00 3.000000e+00
    endloop
  endfacet
  facet normal -9.335976e-01 3.583232e-01 0.000000e+00
    outer loop
      vertex -4.323410e+00 4.036484e+00 3.000000e+00
      vertex -4.323410e+00 4.036484e+00 0.000000e+00
      vertex -4.413483e+00 3.819031e+00 0.000000e+00
    endloop
  endfacet
  facet normal -9.135259e-01 4.067805e-01 0.000000e+00
    outer loop
      vertex -4.323410e+00 4.036484e+00 3.000000e+00
      vertex -4.413483e+00 3.819031e+00 0.000000e+00
      vertex -4.413483e+00 3.819031e+00 3.000000e+00
    endloop
  endfacet
  facet normal -8.660494e-01 4.999584e-01 0.000000e+00
    outer loop
      vertex -4.413483e+00 3.819031e+00 3.000000e+00
      vertex -4.413483e+00 3.819031e+00 0.000000e+00
      vertex -4.536469e+00 3.618332e+00 0.000000e+00
    endloop
  endfacet
  facet normal -8.386444e-01 5.446792e-01 0.000000e+00
    outer loop
      vertex -4.413483e+00 3.819031e+00 3.000000e+00
      vertex -4.536469e+00 3.618332e+00 0.000000e+00
      vertex -4.536469e+00 3.618332e+00 3.000000e+00
    endloop
  endfacet
  facet normal -7.771762e-01 6.292832e-01 0.000000e+00
    outer loop
      vertex -4.536469e+00 3.618332e+00 3.000000e+00
      vertex -4.536469e+00 3.618332e+00 0.000000e+00
      vertex -4.689331e+00 3.439346e+00 0.000000e+00
    endloop
  endfacet
  facet normal -7.431127e-01 6.691663e-01 0.000000e+00
    outer loop
      vertex -4.536469e+00 3.618332e+00 3.000000e+00
      vertex -4.689331e+00 3.439346e+00 0.000000e+00
      vertex -4.689331e+00 3.439346e+00 3.000000e+00
    endloop
  endfacet
  facet normal -6.691663e-01 7.431127e-01 0.000000e+00
    outer loop
      vertex -4.689331e+00 3.439346e+00 3.000000e+00
      vertex -4.689331e+00 3.439346e+00 0.000000e+00
      vertex -4.868317e+00 3.286484e+00 0.000000e+00
    endloop
  endfacet
  facet normal -6.292832e-01 7.771762e-01 0.000000e+00
    outer loop
      vertex -4.689331e+00 3.439346e+00 3.000000e+00
      vertex -4.868317e+00 3.286484e+00 0.000000e+00
      vertex -4.868317e+00 3.286484e+00 3.000000e+00
    endloop
  endfacet
  facet normal -5.446792e-01 8.386444e-01 0.000000e+00
    outer loop
      vertex -4.868317e+00 3.286484e+00 3.000000e+00
      vertex -4.868317e+00 3.286484e+00 0.000000e+00
      vertex -5.069016e+00 3.163513e+00 0.000000e+00
    endloop
  endfacet
  facet normal -4.999584e-01 8.660494e-01 0.000000e+00
    outer loop
      vertex -4.868317e+00 3.286484e+00 3.000000e+00
      vertex -5.069016e+00 3.163513e+00 0.000000e+00
      vertex -5.069016e+00 3.163513e+00 3.000000e+00
    endloop
  endfacet
  facet normal -4.067805e-01 9.135259e-01 0.000000e+00
    outer loop
      vertex -5.069016e+00 3.163513e+00 3.000000e+00
      vertex -5.069016e+00 3.163513e+00 0.000000e+00
      vertex -5.286469e+00 3.073425e+00 0.000000e+00
    endloop
  endfacet
  facet normal -3.583232e-01 9.335976e-01 0.000000e+00
    outer loop
      vertex -5.069016e+00 3.163513e+00 3.000000e+00
      vertex -5.286469e+00 3.073425e+00 0.000000e+00
      vertex -5.286469e+00 3.073425e+00 3.000000e+00
    endloop
  endfacet
  facet normal -2.588654e-01 9.659135e-01 0.000000e+00
    outer loop
      vertex -5.286469e+00 3.073425e+00 3.000000e+00
      vertex -5.286469e+00 3.073425e+00 0.000000e+00
      vertex -5.515350e+00 3.018478e+00 0.000000e+00
    endloop
  endfacet
  facet normal -2.078648e-01 9.781576e-01 0.000000e+00
    outer loop
      vertex -5.286469e+00 3.073425e+00 3.000000e+00
      vertex -5.515350e+00 3.018478e+00 0.000000e+00
      vertex -5.515350e+00 3.018478e+00 3.000000e+00
    endloop
  endfacet
  facet normal -1.045762e-01 9.945170e-01 0.000000e+00
    outer loop
      vertex -5.515350e+00 3.018478e+00 3.000000e+00
      vertex -5.515350e+00 3.018478e+00 0.000000e+00
      vertex -5.750000e+00 3.000015e+00 0.000000e+00
    endloop
  endfacet
  facet normal -5.228807e-02 9.986320e-01 0.000000e+00
    outer loop
      vertex -5.515350e+00 3.018478e+00 3.000000e+00
      vertex -5.750000e+00 3.000015e+00 0.000000e+00
      vertex -5.750000e+00 3.000015e+00 3.000000e+00
    endloop
  endfacet
  facet normal 0.000000e+00 1.000000e+00 0.000000e+00
    outer loop
      vertex -7.250000e+00 3.000015e+00 3.000000e+00
      vertex -5.750000e+00 3.000015e+00 3.000000e+00
      vertex -7.250000e+00 3.000015e+00 0.000000e+00
    endloop
  endfacet
  facet normal 0.000000e+00 1.000000e+00 0.000000e+00
    outer loop
      vertex -7.250000e+00 3.000015e+00 0.000000e+00
      vertex -5.750000e+00 3.000015e+00 3.000000e+00
      vertex -5.750000e+00 3.000015e+00 0.000000e+00
    endloop
  endfacet
  facet normal -1.000000e+00 0.000000e+00 0.000000e+00
    outer loop
      vertex -7.250000e+00 -2.999985e+00 3.000000e+00
      vertex -7.250000e+00 3.000015e+00 3.000000e+00
      vertex -7.250000e+00 -2.999985e+00 0.000000e+00
    endloop
  endfacet
  facet normal -1.000000e+00 0.000000e+00 0.000000e+00
    outer loop
      vertex -7.250000e+00 -2.999985e+00 0.000000e+00
      vertex -7.250000e+00 3.000015e+00 3.000000e+00
      vertex -7.250000e+00 3.000015e+00 0.000000e+00
    endloop
  endfacet
  facet normal 0.000000e+00 -1.000000e+00 0.000000e+00
    outer loop
      vertex -5.750000e+00 -2.999985e+00 3.000000e+00
      vertex -7.250000e+00 -2.999985e+00 3.000000e+00
      vertex -5.750000e+00 -2.999985e+00 0.000000e+00
    endloop
  endfacet
  facet normal 0.000000e+00 -1.000000e+00 0.000000e+00
    outer loop
      vertex -5.750000e+00 -2.999985e+00 0.000000e+00
      vertex -7.250000e+00 -2.999985e+00 3.000000e+00
      vertex -7.250000e+00 -2.999985e+00 0.000000e+00
    endloop
  endfacet
  facet normal -5.228807e-02 -9.986320e-01 0.000000e+00
    outer loop
      vertex -5.750000e+00 -2.999985e+00 3.000000e+00
      vertex -5.750000e+00 -2.999985e+00 0.000000e+00
      vertex -5.515350e+00 -3.018463e+00 0.000000e+00
    endloop
  endfacet
  facet normal -1.045762e-01 -9.945170e-01 0.000000e+00
    outer loop
      vertex -5.750000e+00 -2.999985e+00 3.000000e+00
      vertex -5.515350e+00 -3.018463e+00 0.000000e+00
      vertex -5.515350e+00 -3.018463e+00 3.000000e+00
    endloop
  endfacet
  facet normal -2.078648e-01 -9.781576e-01 0.000000e+00
    outer loop
      vertex -5.515350e+00 -3.018463e+00 3.000000e+00
      vertex -5.515350e+00 -3.018463e+00 0.000000e+00
      vertex -5.286469e+00 -3.073410e+00 0.000000e+00
    endloop
  endfacet
  facet normal -2.588654e-01 -9.659135e-01 0.000000e+00
    outer loop
      vertex -5.515350e+00 -3.018463e+00 3.000000e+00
      vertex -5.286469e+00 -3.073410e+00 0.000000e+00
      vertex -5.286469e+00 -3.073410e+00 3.000000e+00
    endloop
  endfacet
  facet normal -3.583232e-01 -9.335976e-01 0.000000e+00
    outer loop
      vertex -5.286469e+00 -3.073410e+00 3.000000e+00
      vertex -5.286469e+00 -3.073410e+00 0.000000e+00
      vertex -5.069016e+00 -3.163483e+00 0.000000e+00
    endloop
  endfacet
  facet normal -4.067805e-01 -9.135259e-01 0.000000e+00
    outer loop
      vertex -5.286469e+00 -3.073410e+00 3.000000e+00
      vertex -5.069016e+00 -3.163483e+00 0.000000e+00
      vertex -5.069016e+00 -3.163483e+00 3.000000e+00
    endloop
  endfacet
  facet normal -4.999584e-01 -8.660494e-01 0.000000e+00
    outer loop
      vertex -5.069016e+00 -3.163483e+00 3.000000e+00
      vertex -5.069016e+00 -3.163483e+00 0.000000e+00
      vertex -4.868317e+00 -3.286469e+00 0.000000e+00
    endloop
  endfacet
  facet normal -5.446792e-01 -8.386444e-01 0.000000e+00
    outer loop
      vertex -5.069016e+00 -3.163483e+00 3.000000e+00
      vertex -4.868317e+00 -3.286469e+00 0.000000e+00
      vertex -4.868317e+00 -3.286469e+00 3.000000e+00
    endloop
  endfacet
  facet normal -6.292832e-01 -7.771762e-01 0.000000e+00
    outer loop
      vertex -4.868317e+00 -3.286469e+00 3.000000e+00
      vertex -4.868317e+00 -3.286469e+00 0.000000e+00
      vertex -4.689331e+00 -3.439331e+00 0.000000e+00
    endloop
  endfacet
  facet normal -6.691663e-01 -7.431127e-01 0.000000e+00
    outer loop
      vertex -4.868317e+00 -3.286469e+00 3.000000e+00
      vertex -4.689331e+00 -3.439331e+00 0.000000e+00
      vertex -4.689331e+00 -3.439331e+00 3.000000e+00
    endloop
  endfacet
  facet normal -7.431127e-01 -6.691663e-01 0.000000e+00
    outer loop
      vertex -4.689331e+00 -3.439331e+00 3.000000e+00
      vertex -4.689331e+00 -3.439331e+00 0.000000e+00
      vertex -4.536469e+00 -3.618317e+00 0.000000e+00
    endloop
  endfacet
  facet normal -7.771762e-01 -6.292832e-01 0.000000e+00
    outer loop
      vertex -4.689331e+00 -3.439331e+00 3.000000e+00
      vertex -4.536469e+00 -3.618317e+00 0.000000e+00
      vertex -4.536469e+00 -3.618317e+00 3.000000e+00
    endloop
  endfacet
  facet normal -8.386444e-01 -5.446792e-01 0.000000e+00
    outer loop
      vertex -4.536469e+00 -3.618317e+00 3.000000e+00
      vertex -4.536469e+00 -3.618317e+00 0.000000e+00
      vertex -4.413483e+00 -3.819000e+00 0.000000e+00
    endloop
  endfacet
  facet normal -8.660494e-01 -4.999584e-01 0.000000e+00
    outer loop
      vertex -4.536469e+00 -3.618317e+00 3.000000e+00
      vertex -4.413483e+00 -3.819000e+00 0.000000e+00
      vertex -4.413483e+00 -3.819000e+00 3.000000e+00
    endloop
  endfacet
  facet normal -9.135259e-01 -4.067805e-01 0.000000e+00
    outer loop
      vertex -4.413483e+00 -3.819000e+00 3.000000e+00
      vertex -4.413483e+00 -3.819000e+00 0.000000e+00
      vertex -4.323410e+00 -4.036469e+00 0.000000e+00
    endloop
  endfacet
  facet normal -9.335976e-01 -3.583232e-01 0.000000e+00
    outer loop
      vertex -4.413483e+00 -3.819000e+00 3.000000e+00
      vertex -4.323410e+00 -4.036469e+00 0.000000e+00
      vertex -4.323410e+00 -4.036469e+00 3.000000e+00
    endloop
  endfacet
  facet normal -9.659135e-01 -2.588654e-01 0.000000e+00
    outer loop
      vertex -4.323410e+00 -4.036469e+00 3.000000e+00
      vertex -4.323410e+00 -4.036469e+00 0.000000e+00
      vertex -4.268463e+00 -4.265335e+00 0.000000e+00
    endloop
  endfacet
  facet normal -9.781576e-01 -2.078648e-01 0.000000e+00
    outer loop
      vertex -4.323410e+00 -4.036469e+00 3.000000e+00
      vertex -4.268463e+00 -4.265335e+00 0.000000e+00
      vertex -4.268463e+00 -4.265335e+00 3.000000e+00
    endloop
  endfacet
  facet normal -9.945170e-01 -1.045762e-01 0.000000e+00
    outer loop
      vertex -4.268463e+00 -4.265335e+00 3.000000e+00
      vertex -4.268463e+00 -4.265335e+00 0.000000e+00
      vertex -4.250000e+00 -4.500000e+00 0.000000e+00
    endloop
  endfacet
  facet normal -9.986320e-01 -5.228807e-02 0.000000e+00
    outer loop
      vertex -4.268463e+00 -4.265335e+00 3.000000e+00
      vertex -4.250000e+00 -4.500000e+00 0.000000e+00
      vertex -4.250000e+00 -4.500000e+00 3.000000e+00
    endloop
  endfacet
  facet normal -1.000000e+00 0.000000e+00 0.000000e+00
    outer loop
      vertex -4.250000e+00 -6.000000e+00 3.000000e+00
      vertex -4.250000e+00 -4.500000e+00 3.000000e+00
      vertex -4.250000e+00 -6.000000e+00 0.000000e+00
    endloop
  endfacet
  facet normal -1.000000e+00 0.000000e+00 0.000000e+00
    outer loop
      vertex -4.250000e+00 -6.000000e+00 0.000000e+00
      vertex -4.250000e+00 -4.500000e+00 3.000000e+00
      vertex -4.250000e+00 -4.500000e+00 0.000000e+00
    endloop
  endfacet
  facet normal 0.000000e+00 -1.000000e+00 0.000000e+00
    outer loop
      vertex 4.250000e+00 -6.000000e+00 3.000000e+00
      vertex -4.250000e+00 -6.000000e+00 3.000000e+00
      vertex 4.250000e+00 -6.000000e+00 0.000000e+00
    endloop
  endfacet
  facet normal 0.000000e+00 -1.000000e+00 0.000000e+00
    outer loop
      vertex 4.250000e+00 -6.000000e+00 0.000000e+00
      vertex -4.250000e+00 -6.000000e+00 3.000000e+00
      vertex -4.250000e+00 -6.000000e+00 0.000000e+00
    endloop
  endfacet
  facet normal 1.000000e+00 0.000000e+00 0.000000e+00
    outer loop
      vertex 4.250000e+00 -4.500000e+00 3.000000e+00
      vertex 4.250000e+00 -6.000000e+00 3.000000e+00
      vertex 4.250000e+00 -4.500000e+00 0.000000e+00
    endloop
  endfacet
  facet normal 1.000000e+00 0.000000e+00 0.000000e+00
    outer loop
      vertex 4.250000e+00 -4.500000e+00 0.000000e+00
      vertex 4.250000e+00 -6.000000e+00 3.000000e+00
      vertex 4.250000e+00 -6.000000e+00 0.000000e+00
    endloop
  endfacet
  facet normal 9.986320e-01 -5.228807e-02 0.000000e+00
    outer loop
      vertex 4.250000e+00 -4.500000e+00 3.000000e+00
      vertex 4.250000e+00 -4.500000e+00 0.000000e+00
      vertex 4.268463e+00 -4.265335e+00 0.000000e+00
    endloop
  endfacet
  facet normal 9.945170e-01 -1.045762e-01 0.000000e+00
    outer loop
      vertex 4.250000e+00 -4.500000e+00 3.000000e+00
      vertex 4.268463e+00 -4.265335e+00 0.000000e+00
      vertex 4.268463e+00 -4.265335e+00 3.000000e+00
    endloop
  endfacet
  facet normal 9.781576e-01 -2.078648e-01 0.000000e+00
    outer loop
      vertex 4.268463e+00 -4.265335e+00 3.000000e+00
      vertex 4.268463e+00 -4.265335e+00 0.000000e+00
      vertex 4.323425e+00 -4.036469e+00 0.000000e+00
    endloop
  endfacet
  facet normal 9.659135e-01 -2.588654e-01 0.000000e+00
    outer loop
      vertex 4.268463e+00 -4.265335e+00 3.000000e+00
      vertex 4.323425e+00 -4.036469e+00 0.000000e+00
      vertex 4.323425e+00 -4.036469e+00 3.000000e+00
    endloop
  endfacet
  facet normal 9.335976e-01 -3.583232e-01 0.000000e+00
    outer loop
      vertex 4.323425e+00 -4.036469e+00 3.000000e+00
      vertex 4.323425e+00 -4.036469e+00 0.000000e+00
      vertex 4.413483e+00 -3.819000e+00 0.000000e+00
    endloop
  endfacet
  facet normal 9.135259e-01 -4.067805e-01 0.000000e+00
    outer loop
      vertex 4.323425e+00 -4.036469e+00 3.000000e+00
      vertex 4.413483e+00 -3.819000e+00 0.000000e+00
      vertex 4.413483e+00 -3.819000e+00 3.000000e+00
    endloop
  endfacet
  facet normal 8.660494e-01 -4.999584e-01 0.000000e+00
    outer loop
      vertex 4.413483e+00 -3.819000e+00 3.000000e+00
      vertex 4.413483e+00 -3.819000e+00 0.000000e+00
      vertex 4.536484e+00 -3.618317e+00 0.000000e+00
    endloop
  endfacet
  facet normal 8.386444e-01 -5.446792e-01 0.000000e+00
    outer loop
      vertex 4.413483e+00 -3.819000e+00 3.000000e+00
      vertex 4.536484e+00 -3.618317e+00 0.000000e+00
      vertex 4.536484e+00 -3.618317e+00 3.000000e+00
    endloop
  endfacet
  facet normal 7.771762e-01 -6.292832e-01 0.000000e+00
    outer loop
      vertex 4.536484e+00 -3.618317e+00 3.000000e+00
      vertex 4.536484e+00 -3.618317e+00 0.000000e+00
      vertex 4.689331e+00 -3.439331e+00 0.000000e+00
    endloop
  endfacet
  facet normal 7.431127e-01 -6.691663e-01 0.000000e+00
    outer loop
      vertex 4.536484e+00 -3.618317e+00 3.000000e+00
      vertex 4.689331e+00 -3.439331e+00 0.000000e+00
      vertex 4.689331e+00 -3.439331e+00 3.000000e+00
    endloop
  endfacet
  facet normal 6.691663e-01 -7.431127e-01 0.000000e+00
    outer loop
      vertex 4.689331e+00 -3.439331e+00 3.000000e+00
      vertex 4.689331e+00 -3.439331e+00 0.000000e+00
      vertex 4.868332e+00 -3.286469e+00 0.000000e+00
    endloop
  endfacet
  facet normal 6.292832e-01 -7.771762e-01 0.000000e+00
    outer loop
      vertex 4.689331e+00 -3.439331e+00 3.000000e+00
      vertex 4.868332e+00 -3.286469e+00 0.000000e+00
      vertex 4.868332e+00 -3.286469e+00 3.000000e+00
    endloop
  endfacet
  facet normal 5.446792e-01 -8.386444e-01 0.000000e+00
    outer loop
      vertex 4.868332e+00 -3.286469e+00 3.000000e+00
      vertex 4.868332e+00 -3.286469e+00 0.000000e+00
      vertex 5.069016e+00 -3.163483e+00 0.000000e+00
    endloop
  endfacet
  facet normal 4.999584e-01 -8.660494e-01 0.000000e+00
    outer loop
      vertex 4.868332e+00 -3.286469e+00 3.000000e+00
      vertex 5.069016e+00 -3.163483e+00 0.000000e+00
      vertex 5.069016e+00 -3.163483e+00 3.000000e+00
    endloop
  endfacet
  facet normal 4.067805e-01 -9.135259e-01 0.000000e+00
    outer loop
      vertex 5.069016e+00 -3.163483e+00 3.000000e+00
      vertex 5.069016e+00 -3.163483e+00 0.000000e+00
      vertex 5.286469e+00 -3.073410e+00 0.000000e+00
    endloop
  endfacet
  facet normal 3.583232e-01 -9.335976e-01 0.000000e+00
    outer loop
      vertex 5.069016e+00 -3.163483e+00 3.000000e+00
      vertex 5.286469e+00 -3.073410e+00 0.000000e+00
      vertex 5.286469e+00 -3.073410e+00 3.000000e+00
    endloop
  endfacet
  facet normal 2.588654e-01 -9.659135e-01 0.000000e+00
    outer loop
      vertex 5.286469e+00 -3.073410e+00 3.000000e+00
      vertex 5.286469e+00 -3.073410e+00 0.000000e+00
      vertex 5.515350e+00 -3.018463e+00 0.000000e+00
    endloop
  endfacet
  facet normal 2.078648e-01 -9.781576e-01 0.000000e+00
    outer loop
      vertex 5.286469e+00 -3.073410e+00 3.000000e+00
      vertex 5.515350e+00 -3.018463e+00 0.000000e+00
      vertex 5.515350e+00 -3.018463e+00 3.000000e+00
    endloop
  endfacet
  facet normal 1.045762e-01 -9.945170e-01 0.000000e+00
    outer loop
      vertex 5.515350e+00 -3.018463e+00 3.000000e+00
      vertex 5.515350e+00 -3.018463e+00 0.000000e+00
      vertex 5.750000e+00 -2.999985e+00 0.000000e+00
    endloop
  endfacet
  facet normal 5.228807e-02 -9.986320e-01 0.000000e+00
    outer loop
      vertex 5.515350e+00 -3.018463e+00 3.000000e+00
      vertex 5.750000e+00 -2.999985e+00 0.000000e+00
      vertex 5.750000e+00 -2.999985e+00 3.000000e+00
    endloop
  endfacet
  facet normal 0.000000e+00 -1.000000e+00 0.000000e+00
    outer loop
      vertex 7.250000e+00 -2.999985e+00 3.000000e+00
      vertex 5.750000e+00 -2.999985e+00 3.000000e+00
      vertex 7.250000e+00 -2.999985e+00 0.000000e+00
    endloop
  endfacet
  facet normal 0.000000e+00 -1.000000e+00 0.000000e+00
    outer loop
      vertex 7.250000e+00 -2.999985e+00 0.000000e+00
      vertex 5.750000e+00 -2.999985e+00 3.000000e+00
      vertex 5.750000e+00 -2.999985e+00 0.000000e+00
    endloop
  endfacet
  facet normal 1.000000e+00 0.000000e+00 0.000000e+00
    outer loop
      vertex 7.250000e+00 3.000015e+00 3.000000e+00
      vertex 7.250000e+00 -2.999985e+00 3.000000e+00
      vertex 7.250000e+00 3.000015e+00 0.000000e+00
    endloop
  endfacet
  facet normal 1.000000e+00 0.000000e+00 0.000000e+00
    outer loop
      vertex 7.250000e+00 3.000015e+00 0.000000e+00
      vertex 7.250000e+00 -2.999985e+00 3.000000e+00
      vertex 7.250000e+00 -2.999985e+00 0.000000e+00
    endloop
  endfacet
  facet normal 0.000000e+00 1.000000e+00 0.000000e+00
    outer loop
      vertex 5.750000e+00 3.000015e+00 3.000000e+00
      vertex 7.250000e+00 3.000015e+00 3.000000e+00
      vertex 5.750000e+00 3.000015e+00 0.000000e+00
    endloop
  endfacet
  facet normal 0.000000e+00 1.000000e+00 0.000000e+00
    outer loop
      vertex 5.750000e+00 3.000015e+00 0.000000e+00
      vertex 7.250000e+00 3.000015e+00 3.000000e+00
      vertex 7.250000e+00 3.000015e+00 0.000000e+00
    endloop
  endfacet
  facet normal -9.995997e-01 2.829130e-02 0.000000e+00
    outer loop
      vertex 1.494598e+00 -1.272125e-01 3.000000e+00
      vertex 1.500000e+00 0.000000e+00 3.000000e+00
      vertex 1.500000e+00 0.000000e+00 0.000000e+00
    endloop
  endfacet
  facet normal -9.995997e-01 -2.829130e-02 0.000000e+00
    outer loop
      vertex 1.500000e+00 0.000000e+00 0.000000e+00
      vertex 1.500000e+00 0.000000e+00 3.000000e+00
      vertex 1.494598e+00 1.272125e-01 0.000000e+00
    endloop
  endfacet
  facet normal -9.983979e-01 5.658260e-02 0.000000e+00
    outer loop
      vertex 1.500000e+00 0.000000e+00 0.000000e+00
      vertex 1.494598e+00 -1.272125e-01 0.000000e+00
      vertex 1.494598e+00 -1.272125e-01 3.000000e+00
    endloop
  endfacet
  facet normal -9.900122e-01 1.409813e-01 0.000000e+00
    outer loop
      vertex 1.494598e+00 -1.272125e-01 3.000000e+00
      vertex 1.494598e+00 -1.272125e-01 0.000000e+00
      vertex 1.451599e+00 -3.779602e-01 0.000000e+00
    endloop
  endfacet
  facet normal -9.804267e-01 1.968844e-01 0.000000e+00
    outer loop
      vertex 1.494598e+00 -1.272125e-01 3.000000e+00
      vertex 1.451599e+00 -3.779602e-01 0.000000e+00
      vertex 1.451599e+00 -3.779602e-01 3.000000e+00
    endloop
  endfacet
  facet normal -9.519458e-01 3.062663e-01 0.000000e+00
    outer loop
      vertex 1.451599e+00 -3.779602e-01 3.000000e+00
      vertex 1.451599e+00 -3.779602e-01 0.000000e+00
      vertex 1.366837e+00 -6.178436e-01 0.000000e+00
    endloop
  endfacet
  facet normal -9.330506e-01 3.597453e-01 0.000000e+00
    outer loop
      vertex 1.451599e+00 -3.779602e-01 3.000000e+00
      vertex 1.366837e+00 -6.178436e-01 0.000000e+00
      vertex 1.366837e+00 -6.178436e-01 3.000000e+00
    endloop
  endfacet
  facet normal -8.864938e-01 4.627406e-01 0.000000e+00
    outer loop
      vertex 1.366837e+00 -6.178436e-01 3.000000e+00
      vertex 1.366837e+00 -6.178436e-01 0.000000e+00
      vertex 1.242767e+00 -8.399658e-01 0.000000e+00
    endloop
  endfacet
  facet normal -8.588323e-01 5.122570e-01 0.000000e+00
    outer loop
      vertex 1.366837e+00 -6.178436e-01 3.000000e+00
      vertex 1.242767e+00 -8.399658e-01 0.000000e+00
      vertex 1.242767e+00 -8.399658e-01 3.000000e+00
    endloop
  endfacet
  facet normal -7.955388e-01 6.059027e-01 0.000000e+00
    outer loop
      vertex 1.242767e+00 -8.399658e-01 3.000000e+00
      vertex 1.242767e+00 -8.399658e-01 0.000000e+00
      vertex 1.082947e+00 -1.037903e+00 0.000000e+00
    endloop
  endfacet
  facet normal -7.599068e-01 6.500319e-01 0.000000e+00
    outer loop
      vertex 1.242767e+00 -8.399658e-01 3.000000e+00
      vertex 1.082947e+00 -1.037903e+00 0.000000e+00
      vertex 1.082947e+00 -1.037903e+00 3.000000e+00
    endloop
  endfacet
  facet normal -6.816977e-01 7.316340e-01 0.000000e+00
    outer loop
      vertex 1.082947e+00 -1.037903e+00 3.000000e+00
      vertex 1.082947e+00 -1.037903e+00 0.000000e+00
      vertex 8.919525e-01 -1.205994e+00 0.000000e+00
    endloop
  endfacet
  facet normal -6.391203e-01 7.691067e-01 0.000000e+00
    outer loop
      vertex 1.082947e+00 -1.037903e+00 3.000000e+00
      vertex 8.919525e-01 -1.205994e+00 0.000000e+00
      vertex 8.919525e-01 -1.205994e+00 3.000000e+00
    endloop
  endfacet
  facet normal -5.482453e-01 8.363176e-01 0.000000e+00
    outer loop
      vertex 8.919525e-01 -1.205994e+00 3.000000e+00
      vertex 8.919525e-01 -1.205994e+00 0.000000e+00
      vertex 6.753082e-01 -1.339386e+00 0.000000e+00
    endloop
  endfacet
  facet normal -4.999475e-01 8.660558e-01 0.000000e+00
    outer loop
      vertex 8.919525e-01 -1.205994e+00 3.000000e+00
      vertex 6.753082e-01 -1.339386e+00 0.000000e+00
      vertex 6.753082e-01 -1.339386e+00 3.000000e+00
    endloop
  endfacet
  facet normal -3.990209e-01 9.169418e-01 0.000000e+00
    outer loop
      vertex 6.753082e-01 -1.339386e+00 3.000000e+00
      vertex 6.753082e-01 -1.339386e+00 0.000000e+00
      vertex 4.392395e-01 -1.434250e+00 0.000000e+00
    endloop
  endfacet
  facet normal -3.463921e-01 9.380898e-01 0.000000e+00
    outer loop
      vertex 6.753082e-01 -1.339386e+00 3.000000e+00
      vertex 4.392395e-01 -1.434250e+00 0.000000e+00
      vertex 4.392395e-01 -1.434250e+00 3.000000e+00
    endloop
  endfacet
  facet normal -2.383175e-01 9.711873e-01 0.000000e+00
    outer loop
      vertex 4.392395e-01 -1.434250e+00 3.000000e+00
      vertex 4.392395e-01 -1.434250e+00 0.000000e+00
      vertex 1.905212e-01 -1.487854e+00 0.000000e+00
    endloop
  endfacet
  facet normal -1.828716e-01 9.831368e-01 0.000000e+00
    outer loop
      vertex 4.392395e-01 -1.434250e+00 3.000000e+00
      vertex 1.905212e-01 -1.487854e+00 0.000000e+00
      vertex 1.905212e-01 -1.487854e+00 3.000000e+00
    endloop
  endfacet
  facet normal -7.075802e-02 9.974935e-01 0.000000e+00
    outer loop
      vertex 1.905212e-01 -1.487854e+00 3.000000e+00
      vertex 1.905212e-01 -1.487854e+00 0.000000e+00
      vertex -6.365967e-02 -1.498642e+00 0.000000e+00
    endloop
  endfacet
  facet normal -1.409025e-02 9.999007e-01 0.000000e+00
    outer loop
      vertex 1.905212e-01 -1.487854e+00 3.000000e+00
      vertex -6.365967e-02 -1.498642e+00 0.000000e+00
      vertex -6.365967e-02 -1.498642e+00 3.000000e+00
    endloop
  endfacet
  facet normal 9.883700e-02 9.951037e-01 0.000000e+00
    outer loop
      vertex -6.365967e-02 -1.498642e+00 3.000000e+00
      vertex -6.365967e-02 -1.498642e+00 0.000000e+00
      vertex -3.160248e-01 -1.466324e+00 0.000000e+00
    endloop
  endfacet
  facet normal 1.550965e-01 9.878993e-01 0.000000e+00
    outer loop
      vertex -6.365967e-02 -1.498642e+00 3.000000e+00
      vertex -3.160248e-01 -1.466324e+00 0.000000e+00
      vertex -3.160248e-01 -1.466324e+00 3.000000e+00
    endloop
  endfacet
  facet normal 2.655886e-01 9.640865e-01 0.000000e+00
    outer loop
      vertex -3.160248e-01 -1.466324e+00 3.000000e+00
      vertex -3.160248e-01 -1.466324e+00 0.000000e+00
      vertex -5.592804e-01 -1.391830e+00 0.000000e+00
    endloop
  endfacet
  facet normal 3.198213e-01 9.474779e-01 0.000000e+00
    outer loop
      vertex -3.160248e-01 -1.466324e+00 3.000000e+00
      vertex -5.592804e-01 -1.391830e+00 0.000000e+00
      vertex -5.592804e-01 -1.391830e+00 3.000000e+00
    endloop
  endfacet
  facet normal 4.246998e-01 9.053342e-01 0.000000e+00
    outer loop
      vertex -5.592804e-01 -1.391830e+00 3.000000e+00
      vertex -5.592804e-01 -1.391830e+00 0.000000e+00
      vertex -7.864532e-01 -1.277283e+00 0.000000e+00
    endloop
  endfacet
  facet normal 4.753455e-01 8.797992e-01 0.000000e+00
    outer loop
      vertex -5.592804e-01 -1.391830e+00 3.000000e+00
      vertex -7.864532e-01 -1.277283e+00 0.000000e+00
      vertex -7.864532e-01 -1.277283e+00 3.000000e+00
    endloop
  endfacet
  facet normal 5.715931e-01 8.205372e-01 0.000000e+00
    outer loop
      vertex -7.864532e-01 -1.277283e+00 3.000000e+00
      vertex -7.864532e-01 -1.277283e+00 0.000000e+00
      vertex -9.910126e-01 -1.126007e+00 0.000000e+00
    endloop
  endfacet
  facet normal 6.171949e-01 7.868103e-01 0.000000e+00
    outer loop
      vertex -7.864532e-01 -1.277283e+00 3.000000e+00
      vertex -9.910126e-01 -1.126007e+00 0.000000e+00
      vertex -9.910126e-01 -1.126007e+00 3.000000e+00
    endloop
  endfacet
  facet normal 7.020427e-01 7.121348e-01 0.000000e+00
    outer loop
      vertex -9.910126e-01 -1.126007e+00 3.000000e+00
      vertex -9.910126e-01 -1.126007e+00 0.000000e+00
      vertex -1.167038e+00 -9.423218e-01 0.000000e+00
    endloop
  endfacet
  facet normal 7.412888e-01 6.711863e-01 0.000000e+00
    outer loop
      vertex -9.910126e-01 -1.126007e+00 3.000000e+00
      vertex -1.167038e+00 -9.423218e-01 0.000000e+00
      vertex -1.167038e+00 -9.423218e-01 3.000000e+00
    endloop
  endfacet
  facet normal 8.122959e-01 5.832456e-01 0.000000e+00
    outer loop
      vertex -1.167038e+00 -9.423218e-01 3.000000e+00
      vertex -1.167038e+00 -9.423218e-01 0.000000e+00
      vertex -1.309509e+00 -7.315369e-01 0.000000e+00
    endloop
  endfacet
  facet normal 8.440570e-01 5.362535e-01 0.000000e+00
    outer loop
      vertex -1.167038e+00 -9.423218e-01 3.000000e+00
      vertex -1.309509e+00 -7.315369e-01 0.000000e+00
      vertex -1.309509e+00 -7.315369e-01 3.000000e+00
    endloop
  endfacet
  facet normal 8.991807e-01 4.375775e-01 0.000000e+00
    outer loop
      vertex -1.309509e+00 -7.315369e-01 3.000000e+00
      vertex -1.309509e+00 -7.315369e-01 0.000000e+00
      vertex -1.414322e+00 -4.997101e-01 0.000000e+00
    endloop
  endfacet
  facet normal 9.225433e-01 3.858936e-01 0.000000e+00
    outer loop
      vertex -1.309509e+00 -7.315369e-01 3.000000e+00
      vertex -1.414322e+00 -4.997101e-01 0.000000e+00
      vertex -1.414322e+00 -4.997101e-01 3.000000e+00
    endloop
  endfacet
  facet normal 9.601977e-01 2.793211e-01 0.000000e+00
    outer loop
      vertex -1.414322e+00 -4.997101e-01 3.000000e+00
      vertex -1.414322e+00 -4.997101e-01 0.000000e+00
      vertex -1.478424e+00 -2.534943e-01 0.000000e+00
    endloop
  endfacet
  facet normal 9.744897e-01 2.244324e-01 0.000000e+00
    outer loop
      vertex -1.414322e+00 -4.997101e-01 3.000000e+00
      vertex -1.478424e+00 -2.534943e-01 0.000000e+00
      vertex -1.478424e+00 -2.534943e-01 3.000000e+00
    endloop
  endfacet
  facet normal 9.935917e-01 1.130291e-01 0.000000e+00
    outer loop
      vertex -1.478424e+00 -2.534943e-01 3.000000e+00
      vertex -1.478424e+00 -2.534943e-01 0.000000e+00
      vertex -1.500000e+00 0.000000e+00 0.000000e+00
    endloop
  endfacet
  facet normal 9.984018e-01 5.651454e-02 0.000000e+00
    outer loop
      vertex -1.478424e+00 -2.534943e-01 3.000000e+00
      vertex -1.500000e+00 0.000000e+00 0.000000e+00
      vertex -1.500000e+00 0.000000e+00 3.000000e+00
    endloop
  endfacet
  facet normal 9.984018e-01 -5.651454e-02 0.000000e+00
    outer loop
      vertex -1.500000e+00 0.000000e+00 3.000000e+00
      vertex -1.500000e+00 0.000000e+00 0.000000e+00
      vertex -1.478424e+00 2.535095e-01 0.000000e+00
    endloop
  endfacet
  facet normal 9.935917e-01 -1.130291e-01 0.000000e+00
    outer loop
      vertex -1.500000e+00 0.000000e+00 3.000000e+00
      vertex -1.478424e+00 2.535095e-01 0.000000e+00
      vertex -1.478424e+00 2.535095e-01 3.000000e+00
    endloop
  endfacet
  facet normal 9.744897e-01 -2.244324e-01 0.000000e+00
    outer loop
      vertex -1.478424e+00 2.535095e-01 3.000000e+00
      vertex -1.478424e+00 2.535095e-01 0.000000e+00
      vertex -1.414322e+00 4.997101e-01 0.000000e+00
    endloop
  endfacet
  facet normal 9.601977e-01 -2.793211e-01 0.000000e+00
    outer loop
      vertex -1.478424e+00 2.535095e-01 3.000000e+00
      vertex -1.414322e+00 4.997101e-01 0.000000e+00
      vertex -1.414322e+00 4.997101e-01 3.000000e+00
    endloop
  endfacet
  facet normal 9.225433e-01 -3.858936e-01 0.000000e+00
    outer loop
      vertex -1.414322e+00 4.997101e-01 3.000000e+00
      vertex -1.414322e+00 4.997101e-01 0.000000e+00
      vertex -1.309509e+00 7.315521e-01 0.000000e+00
    endloop
  endfacet
  facet normal 8.991807e-01 -4.375775e-01 0.000000e+00
    outer loop
      vertex -1.414322e+00 4.997101e-01 3.000000e+00
      vertex -1.309509e+00 7.315521e-01 0.000000e+00
      vertex -1.309509e+00 7.315521e-01 3.000000e+00
    endloop
  endfacet
  facet normal 8.440570e-01 -5.362535e-01 0.000000e+00
    outer loop
      vertex -1.309509e+00 7.315521e-01 3.000000e+00
      vertex -1.309509e+00 7.315521e-01 0.000000e+00
      vertex -1.167038e+00 9.423370e-01 0.000000e+00
    endloop
  endfacet
  facet normal 8.122959e-01 -5.832456e-01 0.000000e+00
    outer loop
      vertex -1.309509e+00 7.315521e-01 3.000000e+00
      vertex -1.167038e+00 9.423370e-01 0.000000e+00
      vertex -1.167038e+00 9.423370e-01 3.000000e+00
    endloop
  endfacet
  facet normal 7.412888e-01 -6.711863e-01 0.000000e+00
    outer loop
      vertex -1.167038e+00 9.423370e-01 3.000000e+00
      vertex -1.167038e+00 9.423370e-01 0.000000e+00
      vertex -9.910126e-01 1.126007e+00 0.000000e+00
    endloop
  endfacet
  facet normal 7.020427e-01 -7.121348e-01 0.000000e+00
    outer loop
      vertex -1.167038e+00 9.423370e-01 3.000000e+00
      vertex -9.910126e-01 1.126007e+00 0.000000e+00
      vertex -9.910126e-01 1.126007e+00 3.000000e+00
    endloop
  endfacet
  facet normal 6.171949e-01 -7.868103e-01 0.000000e+00
    outer loop
      vertex -9.910126e-01 1.126007e+00 3.000000e+00
      vertex -9.910126e-01 1.126007e+00 0.000000e+00
      vertex -7.864532e-01 1.277298e+00 0.000000e+00
    endloop
  endfacet
  facet normal 5.715931e-01 -8.205372e-01 0.000000e+00
    outer loop
      vertex -9.910126e-01 1.126007e+00 3.000000e+00
      vertex -7.864532e-01 1.277298e+00 0.000000e+00
      vertex -7.864532e-01 1.277298e+00 3.000000e+00
    endloop
  endfacet
  facet normal 4.753455e-01 -8.797992e-01 0.000000e+00
    outer loop
      vertex -7.864532e-01 1.277298e+00 3.000000e+00
      vertex -7.864532e-01 1.277298e+00 0.000000e+00
      vertex -5.592804e-01 1.391846e+00 0.000000e+00
    endloop
  endfacet
  facet normal 4.246998e-01 -9.053342e-01 0.000000e+00
    outer loop
      vertex -7.864532e-01 1.277298e+00 3.000000e+00
      vertex -5.592804e-01 1.391846e+00 0.000000e+00
      vertex -5.592804e-01 1.391846e+00 3.000000e+00
    endloop
  endfacet
  facet normal 3.198213e-01 -9.474779e-01 0.000000e+00
    outer loop
      vertex -5.592804e-01 1.391846e+00 3.000000e+00
      vertex -5.592804e-01 1.391846e+00 0.000000e+00
      vertex -3.160248e-01 1.466339e+00 0.000000e+00
    endloop
  endfacet
  facet normal 2.655886e-01 -9.640865e-01 0.000000e+00
    outer loop
      vertex -5.592804e-01 1.391846e+00 3.000000e+00
      vertex -3.160248e-01 1.466339e+00 0.000000e+00
      vertex -3.160248e-01 1.466339e+00 3.000000e+00
    endloop
  endfacet
  facet normal 1.550965e-01 -9.878993e-01 0.000000e+00
    outer loop
      vertex -3.160248e-01 1.466339e+00 3.000000e+00
      vertex -3.160248e-01 1.466339e+00 0.000000e+00
      vertex -6.365967e-02 1.498657e+00 0.000000e+00
    endloop
  endfacet
  facet normal 9.883700e-02 -9.951037e-01 0.000000e+00
    outer loop
      vertex -3.160248e-01 1.466339e+00 3.000000e+00
      vertex -6.365967e-02 1.498657e+00 0.000000e+00
      vertex -6.365967e-02 1.498657e+00 3.000000e+00
    endloop
  endfacet
  facet normal -1.409025e-02 -9.999007e-01 0.000000e+00
    outer loop
      vertex -6.365967e-02 1.498657e+00 3.000000e+00
      vertex -6.365967e-02 1.498657e+00 0.000000e+00
      vertex 1.905212e-01 1.487854e+00 0.000000e+00
    endloop
  endfacet
  facet normal -7.075802e-02 -9.974935e-01 0.000000e+00
    outer loop
      vertex -6.365967e-02 1.498657e+00 3.000000e+00
      vertex 1.905212e-01 1.487854e+00 0.000000e+00
      vertex 1.905212e-01 1.487854e+00 3.000000e+00
    endloop
  endfacet
  facet normal -1.828716e-01 -9.831368e-01 0.000000e+00
    outer loop
      vertex 1.905212e-01 1.487854e+00 3.000000e+00
      vertex 1.905212e-01 1.487854e+00 0.000000e+00
      vertex 4.392395e-01 1.434250e+00 0.000000e+00
    endloop
  endfacet
  facet normal -2.383175e-01 -9.711873e-01 0.000000e+00
    outer loop
      vertex 1.905212e-01 1.487854e+00 3.000000e+00
      vertex 4.392395e-01 1.434250e+00 0.000000e+00
      vertex 4.392395e-01 1.434250e+00 3.000000e+00
    endloop
  endfacet
  facet normal -3.463921e-01 -9.380898e-01 0.000000e+00
    outer loop
      vertex 4.392395e-01 1.434250e+00 3.000000e+00
      vertex 4.392395e-01 1.434250e+00 0.000000e+00
      vertex 6.753082e-01 1.339401e+00 0.000000e+00
    endloop
  endfacet
  facet normal -3.990209e-01 -9.169418e-01 0.000000e+00
    outer loop
      vertex 4.392395e-01 1.434250e+00 3.000000e+00
      vertex 6.753082e-01 1.339401e+00 0.000000e+00
      vertex 6.753082e-01 1.339401e+00 3.000000e+00
    endloop
  endfacet
  facet normal -4.999475e-01 -8.660558e-01 0.000000e+00
    outer loop
      vertex 6.753082e-01 1.339401e+00 3.000000e+00
      vertex 6.753082e-01 1.339401e+00 0.000000e+00
      vertex 8.919525e-01 1.205994e+00 0.000000e+00
    endloop
  endfacet
  facet normal -5.482453e-01 -8.363176e-01 0.000000e+00
    outer loop
      vertex 6.753082e-01 1.339401e+00 3.000000e+00
      vertex 8.919525e-01 1.205994e+00 0.000000e+00
      vertex 8.919525e-01 1.205994e+00 3.000000e+00
    endloop
  endfacet
  facet normal -6.391203e-01 -7.691067e-01 0.000000e+00
    outer loop
      vertex 8.919525e-01 1.205994e+00 3.000000e+00
      vertex 8.919525e-01 1.205994e+00 0.000000e+00
      vertex 1.082947e+00 1.037918e+00 0.000000e+00
    endloop
  endfacet
  facet normal -6.816977e-01 -7.316340e-01 0.000000e+00
    outer loop
      vertex 8.919525e-01 1.205994e+00 3.000000e+00
      vertex 1.082947e+00 1.037918e+00 0.000000e+00
      vertex 1.082947e+00 1.037918e+00 3.000000e+00
    endloop
  endfacet
  facet normal -7.599068e-01 -6.500319e-01 0.000000e+00
    outer loop
      vertex 1.082947e+00 1.037918e+00 3.000000e+00
      vertex 1.082947e+00 1.037918e+00 0.000000e+00
      vertex 1.242767e+00 8.399658e-01 0.000000e+00
    endloop
  endfacet
  facet normal -7.955388e-01 -6.059027e-01 0.000000e+00
    outer loop
      vertex 1.082947e+00 1.037918e+00 3.000000e+00
      vertex 1.242767e+00 8.399658e-01 0.000000e+00
      vertex 1.242767e+00 8.399658e-01 3.000000e+00
    endloop
  endfacet
  facet normal -8.588323e-01 -5.122570e-01 0.000000e+00
    outer loop
      vertex 1.242767e+00 8.399658e-01 3.000000e+00
      vertex 1.242767e+00 8.399658e-01 0.000000e+00
      vertex 1.366837e+00 6.178589e-01 0.000000e+00
    endloop
  endfacet
  facet normal -8.864938e-01 -4.627406e-01 0.000000e+00
    outer loop
      vertex 1.242767e+00 8.399658e-01 3.000000e+00
      vertex 1.366837e+00 6.178589e-01 0.000000e+00
      vertex 1.366837e+00 6.178589e-01 3.000000e+00
    endloop
  endfacet
  facet normal -9.330506e-01 -3.597453e-01 0.000000e+00
    outer loop
      vertex 1.366837e+00 6.178589e-01 3.000000e+00
      vertex 1.366837e+00 6.178589e-01 0.000000e+00
      vertex 1.451599e+00 3.779755e-01 0.000000e+00
    endloop
  endfacet
  facet normal -9.519458e-01 -3.062663e-01 0.000000e+00
    outer loop
      vertex 1.366837e+00 6.178589e-01 3.000000e+00
      vertex 1.451599e+00 3.779755e-01 0.000000e+00
      vertex 1.451599e+00 3.779755e-01 3.000000e+00
    endloop
  endfacet
  facet normal -9.804267e-01 -1.968844e-01 0.000000e+00
    outer loop
      vertex 1.451599e+00 3.779755e-01 3.000000e+00
      vertex 1.451599e+00 3.779755e-01 0.000000e+00
      vertex 1.494598e+00 1.272125e-01 0.000000e+00
    endloop
  endfacet
  facet normal -9.900122e-01 -1.409813e-01 0.000000e+00
    outer loop
      vertex 1.451599e+00 3.779755e-01 3.000000e+00
      vertex 1.494598e+00 1.272125e-01 0.000000e+00
      vertex 1.494598e+00 1.272125e-01 3.000000e+00
    endloop
  endfacet
  facet normal -9.983979e-01 -5.658260e-02 0.000000e+00
    outer loop
      vertex 1.494598e+00 1.272125e-01 3.000000e+00
      vertex 1.494598e+00 1.272125e-01 0.000000e+00
      vertex 1.500000e+00 0.000000e+00 3.000000e+00
    endloop
  endfacet
endsolid Default
