  0
SECTION
  2
HEADER
  9
$ACADVER
  1
AC1015
  9
$ACADMAINTVER
 70
     6
  9
$DWGCODEPAGE
  3
ANSI_1252
  9
$INSBASE
 10
0.0
 20
0.0
 30
0.0
  9
$EXTMIN
 10
0.0
 20
0.0
 30
0.0
  9
$EXTMAX
 10
594.0
 20
420.0
 30
0.0
  9
$LIMMIN
 10
0.0
 20
0.0
  9
$LIMMAX
 10
594.0
 20
420.0
  9
$ORTHOMODE
 70
     0
  9
$REGENMODE
 70
     1
  9
$FILLMODE
 70
     1
  9
$QTEXTMODE
 70
     0
  9
$MIRRTEXT
 70
     1
  9
$LTSCALE
 40
1.0
  9
$ATTMODE
 70
     1
  9
$TEXTSIZE
 40
2.5
  9
$TRACEWID
 40
1.0
  9
$TEXTSTYLE
  7
Standard
  9
$CLAYER
  8
0
  9
$CELTYPE
  6
ByLayer
  9
$CECOLOR
 62
   256
  9
$CELTSCALE
 40
1.0
  9
$DISPSILH
 70
     0
  9
$DIMSCALE
 40
1.0
  9
$DIMASZ
 40
2.5
  9
$DIMEXO
 40
0.625
  9
$DIMDLI
 40
3.75
  9
$DIMRND
 40
0.0
  9
$DIMDLE
 40
0.0
  9
$DIMEXE
 40
1.25
  9
$DIMTP
 40
0.0
  9
$DIMTM
 40
0.0
  9
$DIMTXT
 40
2.5
  9
$DIMCEN
 40
2.5
  9
$DIMTSZ
 40
0.0
  9
$DIMTOL
 70
     0
  9
$DIMLIM
 70
     0
  9
$DIMTIH
 70
     0
  9
$DIMTOH
 70
     0
  9
$DIMSE1
 70
     0
  9
$DIMSE2
 70
     0
  9
$DIMTAD
 70
     1
  9
$DIMZIN
 70
     8
  9
$DIMBLK
  1

  9
$DIMASO
 70
     1
  9
$DIMSHO
 70
     1
  9
$DIMPOST
  1

  9
$DIMAPOST
  1

  9
$DIMALT
 70
     0
  9
$DIMALTD
 70
     3
  9
$DIMALTF
 40
0.0393700787
  9
$DIMLFAC
 40
1.0
  9
$DIMTOFL
 70
     1
  9
$DIMTVP
 40
0.0
  9
$DIMTIX
 70
     0
  9
$DIMSOXD
 70
     0
  9
$DIMSAH
 70
     0
  9
$DIMBLK1
  1

  9
$DIMBLK2
  1

  9
$DIMSTYLE
  2
ISO-25
  9
$DIMCLRD
 70
     0
  9
$DIMCLRE
 70
     0
  9
$DIMCLRT
 70
     0
  9
$DIMTFAC
 40
1.0
  9
$DIMGAP
 40
0.625
  9
$DIMJUST
 70
     0
  9
$DIMSD1
 70
     0
  9
$DIMSD2
 70
     0
  9
$DIMTOLJ
 70
     0
  9
$DIMTZIN
 70
     8
  9
$DIMALTZ
 70
     0
  9
$DIMALTTZ
 70
     0
  9
$DIMUPT
 70
     0
  9
$DIMDEC
 70
     2
  9
$DIMTDEC
 70
     2
  9
$DIMALTU
 70
     2
  9
$DIMALTTD
 70
     3
  9
$DIMTXSTY
  7
Standard
  9
$DIMAUNIT
 70
     0
  9
$DIMADEC
 70
     0
  9
$DIMALTRND
 40
0.0
  9
$DIMAZIN
 70
     0
  9
$DIMDSEP
 70
    44
  9
$DIMATFIT
 70
     3
  9
$DIMFRAC
 70
     0
  9
$DIMLDRBLK
  1

  9
$DIMLUNIT
 70
     2
  9
$DIMLWD
 70
    -2
  9
$DIMLWE
 70
    -2
  9
$DIMTMOVE
 70
     0
  9
$LUNITS
 70
     2
  9
$LUPREC
 70
     4
  9
$SKETCHINC
 40
1.0
  9
$FILLETRAD
 40
10.0
  9
$AUNITS
 70
     0
  9
$AUPREC
 70
     0
  9
$MENU
  1
.
  9
$ELEVATION
 40
0.0
  9
$PELEVATION
 40
0.0
  9
$THICKNESS
 40
0.0
  9
$LIMCHECK
 70
     0
  9
$CHAMFERA
 40
10.0
  9
$CHAMFERB
 40
10.0
  9
$CHAMFERC
 40
20.0
  9
$CHAMFERD
 40
0.0
  9
$SKPOLY
 70
     0
  9
$TDCREATE
 40
2456219.983525174
  9
$TDUCREATE
 40
2456220.108525174
  9
$TDUPDATE
 40
2456219.983525185
  9
$TDUUPDATE
 40
2456220.108525185
  9
$TDINDWG
 40
0.0000000116
  9
$TDUSRTIMER
 40
0.0000000116
  9
$USRTIMER
 70
     1
  9
$ANGBASE
 50
0.0
  9
$ANGDIR
 70
     0
  9
$PDMODE
 70
     0
  9
$PDSIZE
 40
0.0
  9
$PLINEWID
 40
0.0
  9
$SPLFRAME
 70
     0
  9
$SPLINETYPE
 70
     6
  9
$SPLINESEGS
 70
     8
  9
$HANDSEED
  5
3E6
  9
$SURFTAB1
 70
     6
  9
$SURFTAB2
 70
     6
  9
$SURFTYPE
 70
     6
  9
$SURFU
 70
     6
  9
$SURFV
 70
     6
  9
$UCSBASE
  2

  9
$UCSNAME
  2

  9
$UCSORG
 10
0.0
 20
0.0
 30
0.0
  9
$UCSXDIR
 10
1.0
 20
0.0
 30
0.0
  9
$UCSYDIR
 10
0.0
 20
1.0
 30
0.0
  9
$UCSORTHOREF
  2

  9
$UCSORTHOVIEW
 70
     0
  9
$UCSORGTOP
 10
0.0
 20
0.0
 30
0.0
  9
$UCSORGBOTTOM
 10
0.0
 20
0.0
 30
0.0
  9
$UCSORGLEFT
 10
0.0
 20
0.0
 30
0.0
  9
$UCSORGRIGHT
 10
0.0
 20
0.0
 30
0.0
  9
$UCSORGFRONT
 10
0.0
 20
0.0
 30
0.0
  9
$UCSORGBACK
 10
0.0
 20
0.0
 30
0.0
  9
$PUCSBASE
  2

  9
$PUCSNAME
  2

  9
$PUCSORG
 10
0.0
 20
0.0
 30
0.0
  9
$PUCSXDIR
 10
1.0
 20
0.0
 30
0.0
  9
$PUCSYDIR
 10
0.0
 20
1.0
 30
0.0
  9
$PUCSORTHOREF
  2

  9
$PUCSORTHOVIEW
 70
     0
  9
$PUCSORGTOP
 10
0.0
 20
0.0
 30
0.0
  9
$PUCSORGBOTTOM
 10
0.0
 20
0.0
 30
0.0
  9
$PUCSORGLEFT
 10
0.0
 20
0.0
 30
0.0
  9
$PUCSORGRIGHT
 10
0.0
 20
0.0
 30
0.0
  9
$PUCSORGFRONT
 10
0.0
 20
0.0
 30
0.0
  9
$PUCSORGBACK
 10
0.0
 20
0.0
 30
0.0
  9
$USERI1
 70
     0
  9
$USERI2
 70
     0
  9
$USERI3
 70
     0
  9
$USERI4
 70
     0
  9
$USERI5
 70
     0
  9
$USERR1
 40
0.0
  9
$USERR2
 40
0.0
  9
$USERR3
 40
0.0
  9
$USERR4
 40
0.0
  9
$USERR5
 40
0.0
  9
$WORLDVIEW
 70
     1
  9
$SHADEDGE
 70
     3
  9
$SHADEDIF
 70
    70
  9
$TILEMODE
 70
     1
  9
$MAXACTVP
 70
    64
  9
$PINSBASE
 10
0.0
 20
0.0
 30
0.0
  9
$PLIMCHECK
 70
     0
  9
$PEXTMIN
 10
0.0
 20
0.0
 30
0.0
  9
$PEXTMAX
 10
594.0
 20
420.0
 30
0.0
  9
$PLIMMIN
 10
0.0
 20
0.0
  9
$PLIMMAX
 10
594.0
 20
420.0
  9
$UNITMODE
 70
     0
  9
$VISRETAIN
 70
     1
  9
$PLINEGEN
 70
     0
  9
$PSLTSCALE
 70
     1
  9
$TREEDEPTH
 70
  3020
  9
$CMLSTYLE
  2
Standard
  9
$CMLJUST
 70
     0
  9
$CMLSCALE
 40
20.0
  9
$PROXYGRAPHICS
 70
     1
  9
$MEASUREMENT
 70
     1
  9
$CELWEIGHT
370
    -1
  9
$ENDCAPS
280
     0
  9
$JOINSTYLE
280
     0
  9
$LWDISPLAY
290
     0
  9
$INSUNITS
 70
     4
  9
$HYPERLINKBASE
  1

  9
$STYLESHEET
  1

  9
$XEDIT
290
     1
  9
$CEPSNTYPE
380
     0
  9
$PSTYLEMODE
290
     1
  9
$FINGERPRINTGUID
  2
{5994094E-9AB1-44B5-990B-EC0203525E2A}
  9
$VERSIONGUID
  2
{FAEB1C32-E019-11D5-929B-00C0DF256EC4}
  9
$EXTNAMES
290
     1
  9
$PSVPSCALE
 40
0.0
  9
$OLESTARTUP
290
     0
  0
ENDSEC
  0
SECTION
  2
CLASSES
  0
CLASS
  1
ACDBDICTIONARYWDFLT
  2
AcDbDictionaryWithDefault
  3
ObjectDBX Classes
 90
        0
280
     0
281
     0
  0
CLASS
  1
VISUALSTYLE
  2
AcDbVisualStyle
  3
ObjectDBX Classes
 90
     4095
280
     0
281
     0
  0
CLASS
  1
DICTIONARYVAR
  2
AcDbDictionaryVar
  3
ObjectDBX Classes
 90
        0
280
     0
281
     0
  0
CLASS
  1
ACDBPLACEHOLDER
  2
AcDbPlaceHolder
  3
ObjectDBX Classes
 90
        0
280
     0
281
     0
  0
CLASS
  1
LAYOUT
  2
AcDbLayout
  3
ObjectDBX Classes
 90
        0
280
     0
281
     0
  0
ENDSEC
  0
SECTION
  2
TABLES
  0
TABLE
  2
VPORT
  5
8
330
0
100
AcDbSymbolTable
 70
     1
  0
VPORT
  5
29
330
8
100
AcDbSymbolTableRecord
100
AcDbViewportTableRecord
  2
*Active
 70
     0
 10
0.0
 20
0.0
 11
1.0
 21
1.0
 12
344.1869158879
 22
148.5
 13
0.0
 23
0.0
 14
10.0
 24
10.0
 15
10.0
 25
10.0
 16
0.0
 26
0.0
 36
1.0
 17
0.0
 27
0.0
 37
0.0
 40
297.0
 41
1.9729729729
 42
50.0
 43
0.0
 44
0.0
 50
0.0
 51
0.0
 71
     0
 72
   100
 73
     1
 74
     3
 75
     0
 76
     0
 77
     0
 78
     0
281
     0
 65
     1
110
0.0
120
0.0
130
0.0
111
1.0
121
0.0
131
0.0
112
0.0
122
1.0
132
0.0
 79
     0
146
0.0
  0
ENDTAB
  0
TABLE
  2
LTYPE
  5
5
330
0
100
AcDbSymbolTable
 70
     1
  0
LTYPE
  5
14
330
5
100
AcDbSymbolTableRecord
100
AcDbLinetypeTableRecord
  2
ByBlock
 70
     0
  3

 72
    65
 73
     0
 40
0.0
  0
LTYPE
  5
15
330
5
100
AcDbSymbolTableRecord
100
AcDbLinetypeTableRecord
  2
ByLayer
 70
     0
  3

 72
    65
 73
     0
 40
0.0
  0
LTYPE
  5
16
330
5
100
AcDbSymbolTableRecord
100
AcDbLinetypeTableRecord
  2
Continuous
 70
     0
  3
Solid line
 72
    65
 73
     0
 40
0.0
  0
ENDTAB
  0
TABLE
  2
LAYER
  5
2
330
0
100
AcDbSymbolTable
 70
     2
  0
LAYER
  5
10
330
2
100
AcDbSymbolTableRecord
100
AcDbLayerTableRecord
  2
0
 70
     0
 62
     7
  6
Continuous
370
    -3
390
F
  0
LAYER
  5
3B
330
2
100
AcDbSymbolTableRecord
100
AcDbLayerTableRecord
  2
Default
 70
     0
 62
     7
  6
Continuous
370
    -3
390
F
  0
ENDTAB
  0
TABLE
  2
STYLE
  5
3
330
0
100
AcDbSymbolTable
 70
     1
  0
STYLE
  5
11
330
3
100
AcDbSymbolTableRecord
100
AcDbTextStyleTableRecord
  2
Standard
 70
     0
 40
0.0
 41
1.0
 50
0.0
 71
     0
 42
2.5
  3
txt
  4

  0
ENDTAB
  0
TABLE
  2
VIEW
  5
6
330
0
100
AcDbSymbolTable
 70
     0
  0
ENDTAB
  0
TABLE
  2
UCS
  5
7
330
0
100
AcDbSymbolTable
 70
     0
  0
ENDTAB
  0
TABLE
  2
APPID
  5
9
330
0
100
AcDbSymbolTable
 70
     1
  0
APPID
  5
12
330
9
100
AcDbSymbolTableRecord
100
AcDbRegAppTableRecord
  2
ACAD
 70
     0
  0
ENDTAB
  0
TABLE
  2
DIMSTYLE
  5
A
330
0
100
AcDbSymbolTable
 70
     1
100
AcDbDimStyleTable
  0
DIMSTYLE
105
27
330
A
100
AcDbSymbolTableRecord
100
AcDbDimStyleTableRecord
  2
ISO-25
 70
     0
 41
2.5
 42
0.625
 43
3.75
 44
1.25
 73
     0
 74
     0
 77
     1
 78
     8
140
2.5
141
2.5
143
0.0393700787
147
0.625
171
     3
172
     1
271
     2
272
     2
274
     3
278
    44
283
     0
284
     8
340
11
  0
ENDTAB
  0
TABLE
  2
BLOCK_RECORD
  5
1
330
0
100
AcDbSymbolTable
 70
     1
  0
BLOCK_RECORD
  5
1F
330
1
100
AcDbSymbolTableRecord
100
AcDbBlockTableRecord
  2
*Model_Space
340
22
  0
BLOCK_RECORD
  5
1B
330
1
100
AcDbSymbolTableRecord
100
AcDbBlockTableRecord
  2
*Paper_Space
340
1E
  0
ENDTAB
  0
ENDSEC
  0
SECTION
  2
BLOCKS
  0
BLOCK
  5
20
330
1F
100
AcDbEntity
  8
0
100
AcDbBlockBegin
  2
*Model_Space
 70
     0
 10
0.0
 20
0.0
 30
0.0
  3
*Model_Space
  1

  0
ENDBLK
  5
21
330
1F
100
AcDbEntity
  8
0
100
AcDbBlockEnd
  0
BLOCK
  5
1C
330
1B
100
AcDbEntity
 67
     1
  8
0
100
AcDbBlockBegin
  2
*Paper_Space
 70
     0
 10
0.0
 20
0.0
 30
0.0
  3
*Paper_Space
  1

  0
ENDBLK
  5
1D
330
1B
100
AcDbEntity
 67
     1
  8
0
100
AcDbBlockEnd
  0
ENDSEC
  0
SECTION
  2
ENTITIES
  0
ARC
  5
3C
330
1F
100
AcDbEntity
  8
Default
  6
Continuous
 62
     7
100
AcDbCircle
 10
580.4291313108
 20
467.2422436139
 30
0.0
 40
4.500000000000002
100
AcDbArc
 50
0.0
 51
90.0
  0
LINE
  5
3D
330
1F
100
AcDbEntity
  8
Default
  6
Continuous
 62
     7
100
AcDbLine
 10
256.4291313108
 20
471.7422436139
 30
0.0
 11
580.4291313108
 21
471.7422436139
 31
0.0
  0
ARC
  5
3E
330
1F
100
AcDbEntity
  8
Default
  6
Continuous
 62
     7
100
AcDbCircle
 10
256.4291313108
 20
467.2422436139
 30
0.0
 40
4.500000000000002
100
AcDbArc
 50
90.0
 51
180.0
  0
ARC
  5
3F
330
1F
100
AcDbEntity
  8
Default
  6
Continuous
 62
     7
100
AcDbCircle
 10
580.4291313108
 20
251.2422436139
 30
0.0
 40
4.500000000000002
100
AcDbArc
 50
270.0
 51
0.0
  0
LINE
  5
40
330
1F
100
AcDbEntity
  8
Default
  6
Continuous
 62
     7
100
AcDbLine
 10
256.4291313108
 20
246.7422436139
 30
0.0
 11
580.4291313108
 21
246.7422436139
 31
0.0
  0
ARC
  5
41
330
1F
100
AcDbEntity
  8
Default
  6
Continuous
 62
     7
100
AcDbCircle
 10
256.4291313108
 20
251.2422436139
 30
0.0
 40
4.500000000000002
100
AcDbArc
 50
180.0
 51
270.0
  0
LINE
  5
42
330
1F
100
AcDbEntity
  8
Default
  6
Continuous
 62
     7
100
AcDbLine
 10
251.9291313108
 20
251.2422436139
 30
0.0
 11
251.9291313108
 21
467.2422436139
 31
0.0
  0
LINE
  5
43
330
1F
100
AcDbEntity
  8
Default
  6
Continuous
 62
     7
100
AcDbLine
 10
584.9291313108
 20
467.2422436139
 30
0.0
 11
584.9291313108
 21
251.2422436139
 31
0.0
  0
CIRCLE
  5
44
330
1F
100
AcDbEntity
  8
Default
  6
Continuous
 62
     7
100
AcDbCircle
 10
256.4291313108
 20
467.2422436139
 30
0.0
 40
1.5
  0
CIRCLE
  5
45
330
1F
100
AcDbEntity
  8
Default
  6
Continuous
 62
     7
100
AcDbCircle
 10
256.4291313108
 20
458.2422436139
 30
0.0
 40
1.5
  0
CIRCLE
  5
46
330
1F
100
AcDbEntity
  8
Default
  6
Continuous
 62
     7
100
AcDbCircle
 10
256.4291313108
 20
449.2422436139
 30
0.0
 40
1.5
  0
CIRCLE
  5
47
330
1F
100
AcDbEntity
  8
Default
  6
Continuous
 62
     7
100
AcDbCircle
 10
256.4291313108
 20
440.2422436139
 30
0.0
 40
1.5
  0
CIRCLE
  5
48
330
1F
100
AcDbEntity
  8
Default
  6
Continuous
 62
     7
100
AcDbCircle
 10
256.4291313108
 20
431.2422436139
 30
0.0
 40
1.5
  0
CIRCLE
  5
49
330
1F
100
AcDbEntity
  8
Default
  6
Continuous
 62
     7
100
AcDbCircle
 10
256.4291313108
 20
422.2422436139
 30
0.0
 40
1.5
  0
CIRCLE
  5
4A
330
1F
100
AcDbEntity
  8
Default
  6
Continuous
 62
     7
100
AcDbCircle
 10
256.4291313108
 20
413.2422436139
 30
0.0
 40
1.5
  0
CIRCLE
  5
4B
330
1F
100
AcDbEntity
  8
Default
  6
Continuous
 62
     7
100
AcDbCircle
 10
256.4291313108
 20
404.2422436139
 30
0.0
 40
1.5
  0
CIRCLE
  5
4C
330
1F
100
AcDbEntity
  8
Default
  6
Continuous
 62
     7
100
AcDbCircle
 10
256.4291313108
 20
395.2422436139
 30
0.0
 40
1.5
  0
CIRCLE
  5
4D
330
1F
100
AcDbEntity
  8
Default
  6
Continuous
 62
     7
100
AcDbCircle
 10
256.4291313108
 20
386.2422436139
 30
0.0
 40
1.5
  0
CIRCLE
  5
4E
330
1F
100
AcDbEntity
  8
Default
  6
Continuous
 62
     7
100
AcDbCircle
 10
256.4291313108
 20
377.2422436139
 30
0.0
 40
1.5
  0
CIRCLE
  5
4F
330
1F
100
AcDbEntity
  8
Default
  6
Continuous
 62
     7
100
AcDbCircle
 10
256.4291313108
 20
368.2422436139
 30
0.0
 40
1.5
  0
CIRCLE
  5
50
330
1F
100
AcDbEntity
  8
Default
  6
Continuous
 62
     7
100
AcDbCircle
 10
256.4291313108
 20
359.2422436139
 30
0.0
 40
1.5
  0
CIRCLE
  5
51
330
1F
100
AcDbEntity
  8
Default
  6
Continuous
 62
     7
100
AcDbCircle
 10
256.4291313108
 20
350.2422436139
 30
0.0
 40
1.5
  0
CIRCLE
  5
52
330
1F
100
AcDbEntity
  8
Default
  6
Continuous
 62
     7
100
AcDbCircle
 10
256.4291313108
 20
341.2422436139
 30
0.0
 40
1.5
  0
CIRCLE
  5
53
330
1F
100
AcDbEntity
  8
Default
  6
Continuous
 62
     7
100
AcDbCircle
 10
256.4291313108
 20
332.2422436139
 30
0.0
 40
1.5
  0
CIRCLE
  5
54
330
1F
100
AcDbEntity
  8
Default
  6
Continuous
 62
     7
100
AcDbCircle
 10
256.4291313108
 20
323.2422436139
 30
0.0
 40
1.5
  0
CIRCLE
  5
55
330
1F
100
AcDbEntity
  8
Default
  6
Continuous
 62
     7
100
AcDbCircle
 10
256.4291313108
 20
314.2422436139
 30
0.0
 40
1.5
  0
CIRCLE
  5
56
330
1F
100
AcDbEntity
  8
Default
  6
Continuous
 62
     7
100
AcDbCircle
 10
256.4291313108
 20
305.2422436139
 30
0.0
 40
1.5
  0
CIRCLE
  5
57
330
1F
100
AcDbEntity
  8
Default
  6
Continuous
 62
     7
100
AcDbCircle
 10
265.4291313108
 20
467.2422436139
 30
0.0
 40
1.5
  0
CIRCLE
  5
58
330
1F
100
AcDbEntity
  8
Default
  6
Continuous
 62
     7
100
AcDbCircle
 10
265.4291313108
 20
458.2422436139
 30
0.0
 40
1.5
  0
CIRCLE
  5
59
330
1F
100
AcDbEntity
  8
Default
  6
Continuous
 62
     7
100
AcDbCircle
 10
265.4291313108
 20
449.2422436139
 30
0.0
 40
1.5
  0
CIRCLE
  5
5A
330
1F
100
AcDbEntity
  8
Default
  6
Continuous
 62
     7
100
AcDbCircle
 10
265.4291313108
 20
440.2422436139
 30
0.0
 40
1.5
  0
CIRCLE
  5
5B
330
1F
100
AcDbEntity
  8
Default
  6
Continuous
 62
     7
100
AcDbCircle
 10
265.4291313108
 20
431.2422436139
 30
0.0
 40
1.5
  0
CIRCLE
  5
5C
330
1F
100
AcDbEntity
  8
Default
  6
Continuous
 62
     7
100
AcDbCircle
 10
265.4291313108
 20
422.2422436139
 30
0.0
 40
1.5
  0
CIRCLE
  5
5D
330
1F
100
AcDbEntity
  8
Default
  6
Continuous
 62
     7
100
AcDbCircle
 10
265.4291313108
 20
413.2422436139
 30
0.0
 40
1.5
  0
CIRCLE
  5
5E
330
1F
100
AcDbEntity
  8
Default
  6
Continuous
 62
     7
100
AcDbCircle
 10
265.4291313108
 20
404.2422436139
 30
0.0
 40
1.5
  0
CIRCLE
  5
5F
330
1F
100
AcDbEntity
  8
Default
  6
Continuous
 62
     7
100
AcDbCircle
 10
265.4291313108
 20
395.2422436139
 30
0.0
 40
1.5
  0
CIRCLE
  5
60
330
1F
100
AcDbEntity
  8
Default
  6
Continuous
 62
     7
100
AcDbCircle
 10
265.4291313108
 20
386.2422436139
 30
0.0
 40
1.5
  0
CIRCLE
  5
61
330
1F
100
AcDbEntity
  8
Default
  6
Continuous
 62
     7
100
AcDbCircle
 10
265.4291313108
 20
377.2422436139
 30
0.0
 40
1.5
  0
CIRCLE
  5
62
330
1F
100
AcDbEntity
  8
Default
  6
Continuous
 62
     7
100
AcDbCircle
 10
265.4291313108
 20
368.2422436139
 30
0.0
 40
1.5
  0
CIRCLE
  5
63
330
1F
100
AcDbEntity
  8
Default
  6
Continuous
 62
     7
100
AcDbCircle
 10
265.4291313108
 20
359.2422436139
 30
0.0
 40
1.5
  0
CIRCLE
  5
64
330
1F
100
AcDbEntity
  8
Default
  6
Continuous
 62
     7
100
AcDbCircle
 10
265.4291313108
 20
350.2422436139
 30
0.0
 40
1.5
  0
CIRCLE
  5
65
330
1F
100
AcDbEntity
  8
Default
  6
Continuous
 62
     7
100
AcDbCircle
 10
265.4291313108
 20
341.2422436139
 30
0.0
 40
1.5
  0
CIRCLE
  5
66
330
1F
100
AcDbEntity
  8
Default
  6
Continuous
 62
     7
100
AcDbCircle
 10
265.4291313108
 20
332.2422436139
 30
0.0
 40
1.5
  0
CIRCLE
  5
67
330
1F
100
AcDbEntity
  8
Default
  6
Continuous
 62
     7
100
AcDbCircle
 10
265.4291313108
 20
323.2422436139
 30
0.0
 40
1.5
  0
CIRCLE
  5
68
330
1F
100
AcDbEntity
  8
Default
  6
Continuous
 62
     7
100
AcDbCircle
 10
265.4291313108
 20
314.2422436139
 30
0.0
 40
1.5
  0
CIRCLE
  5
69
330
1F
100
AcDbEntity
  8
Default
  6
Continuous
 62
     7
100
AcDbCircle
 10
265.4291313108
 20
305.2422436139
 30
0.0
 40
1.5
  0
CIRCLE
  5
6A
330
1F
100
AcDbEntity
  8
Default
  6
Continuous
 62
     7
100
AcDbCircle
 10
274.4291313108
 20
467.2422436139
 30
0.0
 40
1.5
  0
CIRCLE
  5
6B
330
1F
100
AcDbEntity
  8
Default
  6
Continuous
 62
     7
100
AcDbCircle
 10
274.4291313108
 20
458.2422436139
 30
0.0
 40
1.5
  0
CIRCLE
  5
6C
330
1F
100
AcDbEntity
  8
Default
  6
Continuous
 62
     7
100
AcDbCircle
 10
274.4291313108
 20
449.2422436139
 30
0.0
 40
1.5
  0
CIRCLE
  5
6D
330
1F
100
AcDbEntity
  8
Default
  6
Continuous
 62
     7
100
AcDbCircle
 10
274.4291313108
 20
440.2422436139
 30
0.0
 40
1.5
  0
CIRCLE
  5
6E
330
1F
100
AcDbEntity
  8
Default
  6
Continuous
 62
     7
100
AcDbCircle
 10
274.4291313108
 20
431.2422436139
 30
0.0
 40
1.5
  0
CIRCLE
  5
6F
330
1F
100
AcDbEntity
  8
Default
  6
Continuous
 62
     7
100
AcDbCircle
 10
274.4291313108
 20
422.2422436139
 30
0.0
 40
1.5
  0
CIRCLE
  5
70
330
1F
100
AcDbEntity
  8
Default
  6
Continuous
 62
     7
100
AcDbCircle
 10
274.4291313108
 20
413.2422436139
 30
0.0
 40
1.5
  0
CIRCLE
  5
71
330
1F
100
AcDbEntity
  8
Default
  6
Continuous
 62
     7
100
AcDbCircle
 10
274.4291313108
 20
404.2422436139
 30
0.0
 40
1.5
  0
CIRCLE
  5
72
330
1F
100
AcDbEntity
  8
Default
  6
Continuous
 62
     7
100
AcDbCircle
 10
274.4291313108
 20
395.2422436139
 30
0.0
 40
1.5
  0
CIRCLE
  5
73
330
1F
100
AcDbEntity
  8
Default
  6
Continuous
 62
     7
100
AcDbCircle
 10
274.4291313108
 20
386.2422436139
 30
0.0
 40
1.5
  0
CIRCLE
  5
74
330
1F
100
AcDbEntity
  8
Default
  6
Continuous
 62
     7
100
AcDbCircle
 10
274.4291313108
 20
377.2422436139
 30
0.0
 40
1.5
  0
CIRCLE
  5
75
330
1F
100
AcDbEntity
  8
Default
  6
Continuous
 62
     7
100
AcDbCircle
 10
274.4291313108
 20
368.2422436139
 30
0.0
 40
1.5
  0
CIRCLE
  5
76
330
1F
100
AcDbEntity
  8
Default
  6
Continuous
 62
     7
100
AcDbCircle
 10
274.4291313108
 20
359.2422436139
 30
0.0
 40
1.5
  0
CIRCLE
  5
77
330
1F
100
AcDbEntity
  8
Default
  6
Continuous
 62
     7
100
AcDbCircle
 10
274.4291313108
 20
350.2422436139
 30
0.0
 40
1.5
  0
CIRCLE
  5
78
330
1F
100
AcDbEntity
  8
Default
  6
Continuous
 62
     7
100
AcDbCircle
 10
274.4291313108
 20
341.2422436139
 30
0.0
 40
1.5
  0
CIRCLE
  5
79
330
1F
100
AcDbEntity
  8
Default
  6
Continuous
 62
     7
100
AcDbCircle
 10
274.4291313108
 20
332.2422436139
 30
0.0
 40
1.5
  0
CIRCLE
  5
7A
330
1F
100
AcDbEntity
  8
Default
  6
Continuous
 62
     7
100
AcDbCircle
 10
274.4291313108
 20
323.2422436139
 30
0.0
 40
1.5
  0
CIRCLE
  5
7B
330
1F
100
AcDbEntity
  8
Default
  6
Continuous
 62
     7
100
AcDbCircle
 10
274.4291313108
 20
314.2422436139
 30
0.0
 40
1.5
  0
CIRCLE
  5
7C
330
1F
100
AcDbEntity
  8
Default
  6
Continuous
 62
     7
100
AcDbCircle
 10
274.4291313108
 20
305.2422436139
 30
0.0
 40
1.5
  0
CIRCLE
  5
7D
330
1F
100
AcDbEntity
  8
Default
  6
Continuous
 62
     7
100
AcDbCircle
 10
283.4291313108
 20
467.2422436139
 30
0.0
 40
1.5
  0
CIRCLE
  5
7E
330
1F
100
AcDbEntity
  8
Default
  6
Continuous
 62
     7
100
AcDbCircle
 10
283.4291313108
 20
458.2422436139
 30
0.0
 40
1.5
  0
CIRCLE
  5
7F
330
1F
100
AcDbEntity
  8
Default
  6
Continuous
 62
     7
100
AcDbCircle
 10
283.4291313108
 20
449.2422436139
 30
0.0
 40
1.5
  0
CIRCLE
  5
80
330
1F
100
AcDbEntity
  8
Default
  6
Continuous
 62
     7
100
AcDbCircle
 10
283.4291313108
 20
440.2422436139
 30
0.0
 40
1.5
  0
CIRCLE
  5
81
330
1F
100
AcDbEntity
  8
Default
  6
Continuous
 62
     7
100
AcDbCircle
 10
283.4291313108
 20
431.2422436139
 30
0.0
 40
1.5
  0
CIRCLE
  5
82
330
1F
100
AcDbEntity
  8
Default
  6
Continuous
 62
     7
100
AcDbCircle
 10
283.4291313108
 20
422.2422436139
 30
0.0
 40
1.5
  0
CIRCLE
  5
83
330
1F
100
AcDbEntity
  8
Default
  6
Continuous
 62
     7
100
AcDbCircle
 10
283.4291313108
 20
413.2422436139
 30
0.0
 40
1.5
  0
CIRCLE
  5
84
330
1F
100
AcDbEntity
  8
Default
  6
Continuous
 62
     7
100
AcDbCircle
 10
283.4291313108
 20
404.2422436139
 30
0.0
 40
1.5
  0
CIRCLE
  5
85
330
1F
100
AcDbEntity
  8
Default
  6
Continuous
 62
     7
100
AcDbCircle
 10
283.4291313108
 20
395.2422436139
 30
0.0
 40
1.5
  0
CIRCLE
  5
86
330
1F
100
AcDbEntity
  8
Default
  6
Continuous
 62
     7
100
AcDbCircle
 10
283.4291313108
 20
386.2422436139
 30
0.0
 40
1.5
  0
CIRCLE
  5
87
330
1F
100
AcDbEntity
  8
Default
  6
Continuous
 62
     7
100
AcDbCircle
 10
283.4291313108
 20
377.2422436139
 30
0.0
 40
1.5
  0
CIRCLE
  5
88
330
1F
100
AcDbEntity
  8
Default
  6
Continuous
 62
     7
100
AcDbCircle
 10
283.4291313108
 20
368.2422436139
 30
0.0
 40
1.5
  0
CIRCLE
  5
89
330
1F
100
AcDbEntity
  8
Default
  6
Continuous
 62
     7
100
AcDbCircle
 10
283.4291313108
 20
359.2422436139
 30
0.0
 40
1.5
  0
CIRCLE
  5
8A
330
1F
100
AcDbEntity
  8
Default
  6
Continuous
 62
     7
100
AcDbCircle
 10
283.4291313108
 20
350.2422436139
 30
0.0
 40
1.5
  0
CIRCLE
  5
8B
330
1F
100
AcDbEntity
  8
Default
  6
Continuous
 62
     7
100
AcDbCircle
 10
283.4291313108
 20
341.2422436139
 30
0.0
 40
1.5
  0
CIRCLE
  5
8C
330
1F
100
AcDbEntity
  8
Default
  6
Continuous
 62
     7
100
AcDbCircle
 10
283.4291313108
 20
332.2422436139
 30
0.0
 40
1.5
  0
CIRCLE
  5
8D
330
1F
100
AcDbEntity
  8
Default
  6
Continuous
 62
     7
100
AcDbCircle
 10
283.4291313108
 20
323.2422436139
 30
0.0
 40
1.5
  0
CIRCLE
  5
8E
330
1F
100
AcDbEntity
  8
Default
  6
Continuous
 62
     7
100
AcDbCircle
 10
283.4291313108
 20
314.2422436139
 30
0.0
 40
1.5
  0
CIRCLE
  5
8F
330
1F
100
AcDbEntity
  8
Default
  6
Continuous
 62
     7
100
AcDbCircle
 10
283.4291313108
 20
305.2422436139
 30
0.0
 40
1.5
  0
CIRCLE
  5
90
330
1F
100
AcDbEntity
  8
Default
  6
Continuous
 62
     7
100
AcDbCircle
 10
292.4291313108
 20
467.2422436139
 30
0.0
 40
1.5
  0
CIRCLE
  5
91
330
1F
100
AcDbEntity
  8
Default
  6
Continuous
 62
     7
100
AcDbCircle
 10
292.4291313108
 20
458.2422436139
 30
0.0
 40
1.5
  0
CIRCLE
  5
92
330
1F
100
AcDbEntity
  8
Default
  6
Continuous
 62
     7
100
AcDbCircle
 10
292.4291313108
 20
449.2422436139
 30
0.0
 40
1.5
  0
CIRCLE
  5
93
330
1F
100
AcDbEntity
  8
Default
  6
Continuous
 62
     7
100
AcDbCircle
 10
292.4291313108
 20
440.2422436139
 30
0.0
 40
1.5
  0
CIRCLE
  5
94
330
1F
100
AcDbEntity
  8
Default
  6
Continuous
 62
     7
100
AcDbCircle
 10
292.4291313108
 20
431.2422436139
 30
0.0
 40
1.5
  0
CIRCLE
  5
95
330
1F
100
AcDbEntity
  8
Default
  6
Continuous
 62
     7
100
AcDbCircle
 10
292.4291313108
 20
422.2422436139
 30
0.0
 40
1.5
  0
CIRCLE
  5
96
330
1F
100
AcDbEntity
  8
Default
  6
Continuous
 62
     7
100
AcDbCircle
 10
292.4291313108
 20
413.2422436139
 30
0.0
 40
1.5
  0
CIRCLE
  5
97
330
1F
100
AcDbEntity
  8
Default
  6
Continuous
 62
     7
100
AcDbCircle
 10
292.4291313108
 20
404.2422436139
 30
0.0
 40
1.5
  0
CIRCLE
  5
98
330
1F
100
AcDbEntity
  8
Default
  6
Continuous
 62
     7
100
AcDbCircle
 10
292.4291313108
 20
395.2422436139
 30
0.0
 40
1.5
  0
CIRCLE
  5
99
330
1F
100
AcDbEntity
  8
Default
  6
Continuous
 62
     7
100
AcDbCircle
 10
292.4291313108
 20
386.2422436139
 30
0.0
 40
1.5
  0
CIRCLE
  5
9A
330
1F
100
AcDbEntity
  8
Default
  6
Continuous
 62
     7
100
AcDbCircle
 10
292.4291313108
 20
377.2422436139
 30
0.0
 40
1.5
  0
CIRCLE
  5
9B
330
1F
100
AcDbEntity
  8
Default
  6
Continuous
 62
     7
100
AcDbCircle
 10
292.4291313108
 20
368.2422436139
 30
0.0
 40
1.5
  0
CIRCLE
  5
9C
330
1F
100
AcDbEntity
  8
Default
  6
Continuous
 62
     7
100
AcDbCircle
 10
292.4291313108
 20
359.2422436139
 30
0.0
 40
1.5
  0
CIRCLE
  5
9D
330
1F
100
AcDbEntity
  8
Default
  6
Continuous
 62
     7
100
AcDbCircle
 10
292.4291313108
 20
350.2422436139
 30
0.0
 40
1.5
  0
CIRCLE
  5
9E
330
1F
100
AcDbEntity
  8
Default
  6
Continuous
 62
     7
100
AcDbCircle
 10
292.4291313108
 20
341.2422436139
 30
0.0
 40
1.5
  0
CIRCLE
  5
9F
330
1F
100
AcDbEntity
  8
Default
  6
Continuous
 62
     7
100
AcDbCircle
 10
292.4291313108
 20
332.2422436139
 30
0.0
 40
1.5
  0
CIRCLE
  5
A0
330
1F
100
AcDbEntity
  8
Default
  6
Continuous
 62
     7
100
AcDbCircle
 10
292.4291313108
 20
323.2422436139
 30
0.0
 40
1.5
  0
CIRCLE
  5
A1
330
1F
100
AcDbEntity
  8
Default
  6
Continuous
 62
     7
100
AcDbCircle
 10
292.4291313108
 20
314.2422436139
 30
0.0
 40
1.5
  0
CIRCLE
  5
A2
330
1F
100
AcDbEntity
  8
Default
  6
Continuous
 62
     7
100
AcDbCircle
 10
292.4291313108
 20
305.2422436139
 30
0.0
 40
1.5
  0
CIRCLE
  5
A3
330
1F
100
AcDbEntity
  8
Default
  6
Continuous
 62
     7
100
AcDbCircle
 10
301.4291313108
 20
467.2422436139
 30
0.0
 40
1.5
  0
CIRCLE
  5
A4
330
1F
100
AcDbEntity
  8
Default
  6
Continuous
 62
     7
100
AcDbCircle
 10
301.4291313108
 20
458.2422436139
 30
0.0
 40
1.5
  0
CIRCLE
  5
A5
330
1F
100
AcDbEntity
  8
Default
  6
Continuous
 62
     7
100
AcDbCircle
 10
301.4291313108
 20
449.2422436139
 30
0.0
 40
1.5
  0
CIRCLE
  5
A6
330
1F
100
AcDbEntity
  8
Default
  6
Continuous
 62
     7
100
AcDbCircle
 10
301.4291313108
 20
440.2422436139
 30
0.0
 40
1.5
  0
CIRCLE
  5
A7
330
1F
100
AcDbEntity
  8
Default
  6
Continuous
 62
     7
100
AcDbCircle
 10
301.4291313108
 20
431.2422436139
 30
0.0
 40
1.5
  0
CIRCLE
  5
A8
330
1F
100
AcDbEntity
  8
Default
  6
Continuous
 62
     7
100
AcDbCircle
 10
301.4291313108
 20
422.2422436139
 30
0.0
 40
1.5
  0
CIRCLE
  5
A9
330
1F
100
AcDbEntity
  8
Default
  6
Continuous
 62
     7
100
AcDbCircle
 10
301.4291313108
 20
413.2422436139
 30
0.0
 40
1.5
  0
CIRCLE
  5
AA
330
1F
100
AcDbEntity
  8
Default
  6
Continuous
 62
     7
100
AcDbCircle
 10
301.4291313108
 20
404.2422436139
 30
0.0
 40
1.5
  0
CIRCLE
  5
AB
330
1F
100
AcDbEntity
  8
Default
  6
Continuous
 62
     7
100
AcDbCircle
 10
301.4291313108
 20
395.2422436139
 30
0.0
 40
1.5
  0
CIRCLE
  5
AC
330
1F
100
AcDbEntity
  8
Default
  6
Continuous
 62
     7
100
AcDbCircle
 10
301.4291313108
 20
386.2422436139
 30
0.0
 40
1.5
  0
CIRCLE
  5
AD
330
1F
100
AcDbEntity
  8
Default
  6
Continuous
 62
     7
100
AcDbCircle
 10
301.4291313108
 20
377.2422436139
 30
0.0
 40
1.5
  0
CIRCLE
  5
AE
330
1F
100
AcDbEntity
  8
Default
  6
Continuous
 62
     7
100
AcDbCircle
 10
301.4291313108
 20
368.2422436139
 30
0.0
 40
1.5
  0
CIRCLE
  5
AF
330
1F
100
AcDbEntity
  8
Default
  6
Continuous
 62
     7
100
AcDbCircle
 10
301.4291313108
 20
359.2422436139
 30
0.0
 40
1.5
  0
CIRCLE
  5
B0
330
1F
100
AcDbEntity
  8
Default
  6
Continuous
 62
     7
100
AcDbCircle
 10
301.4291313108
 20
350.2422436139
 30
0.0
 40
1.5
  0
CIRCLE
  5
B1
330
1F
100
AcDbEntity
  8
Default
  6
Continuous
 62
     7
100
AcDbCircle
 10
301.4291313108
 20
341.2422436139
 30
0.0
 40
1.5
  0
CIRCLE
  5
B2
330
1F
100
AcDbEntity
  8
Default
  6
Continuous
 62
     7
100
AcDbCircle
 10
301.4291313108
 20
332.2422436139
 30
0.0
 40
1.5
  0
CIRCLE
  5
B3
330
1F
100
AcDbEntity
  8
Default
  6
Continuous
 62
     7
100
AcDbCircle
 10
301.4291313108
 20
323.2422436139
 30
0.0
 40
1.5
  0
CIRCLE
  5
B4
330
1F
100
AcDbEntity
  8
Default
  6
Continuous
 62
     7
100
AcDbCircle
 10
301.4291313108
 20
314.2422436139
 30
0.0
 40
1.5
  0
CIRCLE
  5
B5
330
1F
100
AcDbEntity
  8
Default
  6
Continuous
 62
     7
100
AcDbCircle
 10
301.4291313108
 20
305.2422436139
 30
0.0
 40
1.5
  0
CIRCLE
  5
B6
330
1F
100
AcDbEntity
  8
Default
  6
Continuous
 62
     7
100
AcDbCircle
 10
310.4291313108
 20
467.2422436139
 30
0.0
 40
1.5
  0
CIRCLE
  5
B7
330
1F
100
AcDbEntity
  8
Default
  6
Continuous
 62
     7
100
AcDbCircle
 10
310.4291313108
 20
458.2422436139
 30
0.0
 40
1.5
  0
CIRCLE
  5
B8
330
1F
100
AcDbEntity
  8
Default
  6
Continuous
 62
     7
100
AcDbCircle
 10
310.4291313108
 20
449.2422436139
 30
0.0
 40
1.5
  0
CIRCLE
  5
B9
330
1F
100
AcDbEntity
  8
Default
  6
Continuous
 62
     7
100
AcDbCircle
 10
310.4291313108
 20
440.2422436139
 30
0.0
 40
1.5
  0
CIRCLE
  5
BA
330
1F
100
AcDbEntity
  8
Default
  6
Continuous
 62
     7
100
AcDbCircle
 10
310.4291313108
 20
431.2422436139
 30
0.0
 40
1.5
  0
CIRCLE
  5
BB
330
1F
100
AcDbEntity
  8
Default
  6
Continuous
 62
     7
100
AcDbCircle
 10
310.4291313108
 20
422.2422436139
 30
0.0
 40
1.5
  0
CIRCLE
  5
BC
330
1F
100
AcDbEntity
  8
Default
  6
Continuous
 62
     7
100
AcDbCircle
 10
310.4291313108
 20
413.2422436139
 30
0.0
 40
1.5
  0
CIRCLE
  5
BD
330
1F
100
AcDbEntity
  8
Default
  6
Continuous
 62
     7
100
AcDbCircle
 10
310.4291313108
 20
404.2422436139
 30
0.0
 40
1.5
  0
CIRCLE
  5
BE
330
1F
100
AcDbEntity
  8
Default
  6
Continuous
 62
     7
100
AcDbCircle
 10
310.4291313108
 20
395.2422436139
 30
0.0
 40
1.5
  0
CIRCLE
  5
BF
330
1F
100
AcDbEntity
  8
Default
  6
Continuous
 62
     7
100
AcDbCircle
 10
310.4291313108
 20
386.2422436139
 30
0.0
 40
1.5
  0
CIRCLE
  5
C0
330
1F
100
AcDbEntity
  8
Default
  6
Continuous
 62
     7
100
AcDbCircle
 10
310.4291313108
 20
377.2422436139
 30
0.0
 40
1.5
  0
CIRCLE
  5
C1
330
1F
100
AcDbEntity
  8
Default
  6
Continuous
 62
     7
100
AcDbCircle
 10
310.4291313108
 20
368.2422436139
 30
0.0
 40
1.5
  0
CIRCLE
  5
C2
330
1F
100
AcDbEntity
  8
Default
  6
Continuous
 62
     7
100
AcDbCircle
 10
310.4291313108
 20
359.2422436139
 30
0.0
 40
1.5
  0
CIRCLE
  5
C3
330
1F
100
AcDbEntity
  8
Default
  6
Continuous
 62
     7
100
AcDbCircle
 10
310.4291313108
 20
350.2422436139
 30
0.0
 40
1.5
  0
CIRCLE
  5
C4
330
1F
100
AcDbEntity
  8
Default
  6
Continuous
 62
     7
100
AcDbCircle
 10
310.4291313108
 20
341.2422436139
 30
0.0
 40
1.5
  0
CIRCLE
  5
C5
330
1F
100
AcDbEntity
  8
Default
  6
Continuous
 62
     7
100
AcDbCircle
 10
310.4291313108
 20
332.2422436139
 30
0.0
 40
1.5
  0
CIRCLE
  5
C6
330
1F
100
AcDbEntity
  8
Default
  6
Continuous
 62
     7
100
AcDbCircle
 10
310.4291313108
 20
323.2422436139
 30
0.0
 40
1.5
  0
CIRCLE
  5
C7
330
1F
100
AcDbEntity
  8
Default
  6
Continuous
 62
     7
100
AcDbCircle
 10
310.4291313108
 20
314.2422436139
 30
0.0
 40
1.5
  0
CIRCLE
  5
C8
330
1F
100
AcDbEntity
  8
Default
  6
Continuous
 62
     7
100
AcDbCircle
 10
310.4291313108
 20
305.2422436139
 30
0.0
 40
1.5
  0
CIRCLE
  5
C9
330
1F
100
AcDbEntity
  8
Default
  6
Continuous
 62
     7
100
AcDbCircle
 10
319.4291313108
 20
467.2422436139
 30
0.0
 40
1.5
  0
CIRCLE
  5
CA
330
1F
100
AcDbEntity
  8
Default
  6
Continuous
 62
     7
100
AcDbCircle
 10
319.4291313108
 20
458.2422436139
 30
0.0
 40
1.5
  0
CIRCLE
  5
CB
330
1F
100
AcDbEntity
  8
Default
  6
Continuous
 62
     7
100
AcDbCircle
 10
319.4291313108
 20
449.2422436139
 30
0.0
 40
1.5
  0
CIRCLE
  5
CC
330
1F
100
AcDbEntity
  8
Default
  6
Continuous
 62
     7
100
AcDbCircle
 10
319.4291313108
 20
440.2422436139
 30
0.0
 40
1.5
  0
CIRCLE
  5
CD
330
1F
100
AcDbEntity
  8
Default
  6
Continuous
 62
     7
100
AcDbCircle
 10
319.4291313108
 20
431.2422436139
 30
0.0
 40
1.5
  0
CIRCLE
  5
CE
330
1F
100
AcDbEntity
  8
Default
  6
Continuous
 62
     7
100
AcDbCircle
 10
319.4291313108
 20
422.2422436139
 30
0.0
 40
1.5
  0
CIRCLE
  5
CF
330
1F
100
AcDbEntity
  8
Default
  6
Continuous
 62
     7
100
AcDbCircle
 10
319.4291313108
 20
413.2422436139
 30
0.0
 40
1.5
  0
CIRCLE
  5
D0
330
1F
100
AcDbEntity
  8
Default
  6
Continuous
 62
     7
100
AcDbCircle
 10
319.4291313108
 20
404.2422436139
 30
0.0
 40
1.5
  0
CIRCLE
  5
D1
330
1F
100
AcDbEntity
  8
Default
  6
Continuous
 62
     7
100
AcDbCircle
 10
319.4291313108
 20
395.2422436139
 30
0.0
 40
1.5
  0
CIRCLE
  5
D2
330
1F
100
AcDbEntity
  8
Default
  6
Continuous
 62
     7
100
AcDbCircle
 10
319.4291313108
 20
386.2422436139
 30
0.0
 40
1.5
  0
CIRCLE
  5
D3
330
1F
100
AcDbEntity
  8
Default
  6
Continuous
 62
     7
100
AcDbCircle
 10
319.4291313108
 20
377.2422436139
 30
0.0
 40
1.5
  0
CIRCLE
  5
D4
330
1F
100
AcDbEntity
  8
Default
  6
Continuous
 62
     7
100
AcDbCircle
 10
319.4291313108
 20
368.2422436139
 30
0.0
 40
1.5
  0
CIRCLE
  5
D5
330
1F
100
AcDbEntity
  8
Default
  6
Continuous
 62
     7
100
AcDbCircle
 10
319.4291313108
 20
359.2422436139
 30
0.0
 40
1.5
  0
CIRCLE
  5
D6
330
1F
100
AcDbEntity
  8
Default
  6
Continuous
 62
     7
100
AcDbCircle
 10
319.4291313108
 20
350.2422436139
 30
0.0
 40
1.5
  0
CIRCLE
  5
D7
330
1F
100
AcDbEntity
  8
Default
  6
Continuous
 62
     7
100
AcDbCircle
 10
319.4291313108
 20
341.2422436139
 30
0.0
 40
1.5
  0
CIRCLE
  5
D8
330
1F
100
AcDbEntity
  8
Default
  6
Continuous
 62
     7
100
AcDbCircle
 10
319.4291313108
 20
332.2422436139
 30
0.0
 40
1.5
  0
CIRCLE
  5
D9
330
1F
100
AcDbEntity
  8
Default
  6
Continuous
 62
     7
100
AcDbCircle
 10
319.4291313108
 20
323.2422436139
 30
0.0
 40
1.5
  0
CIRCLE
  5
DA
330
1F
100
AcDbEntity
  8
Default
  6
Continuous
 62
     7
100
AcDbCircle
 10
319.4291313108
 20
314.2422436139
 30
0.0
 40
1.5
  0
CIRCLE
  5
DB
330
1F
100
AcDbEntity
  8
Default
  6
Continuous
 62
     7
100
AcDbCircle
 10
319.4291313108
 20
305.2422436139
 30
0.0
 40
1.5
  0
CIRCLE
  5
DC
330
1F
100
AcDbEntity
  8
Default
  6
Continuous
 62
     7
100
AcDbCircle
 10
328.4291313108
 20
467.2422436139
 30
0.0
 40
1.5
  0
CIRCLE
  5
DD
330
1F
100
AcDbEntity
  8
Default
  6
Continuous
 62
     7
100
AcDbCircle
 10
328.4291313108
 20
458.2422436139
 30
0.0
 40
1.5
  0
CIRCLE
  5
DE
330
1F
100
AcDbEntity
  8
Default
  6
Continuous
 62
     7
100
AcDbCircle
 10
328.4291313108
 20
449.2422436139
 30
0.0
 40
1.5
  0
CIRCLE
  5
DF
330
1F
100
AcDbEntity
  8
Default
  6
Continuous
 62
     7
100
AcDbCircle
 10
328.4291313108
 20
440.2422436139
 30
0.0
 40
1.5
  0
CIRCLE
  5
E0
330
1F
100
AcDbEntity
  8
Default
  6
Continuous
 62
     7
100
AcDbCircle
 10
328.4291313108
 20
431.2422436139
 30
0.0
 40
1.5
  0
CIRCLE
  5
E1
330
1F
100
AcDbEntity
  8
Default
  6
Continuous
 62
     7
100
AcDbCircle
 10
328.4291313108
 20
422.2422436139
 30
0.0
 40
1.5
  0
CIRCLE
  5
E2
330
1F
100
AcDbEntity
  8
Default
  6
Continuous
 62
     7
100
AcDbCircle
 10
328.4291313108
 20
413.2422436139
 30
0.0
 40
1.5
  0
CIRCLE
  5
E3
330
1F
100
AcDbEntity
  8
Default
  6
Continuous
 62
     7
100
AcDbCircle
 10
328.4291313108
 20
404.2422436139
 30
0.0
 40
1.5
  0
CIRCLE
  5
E4
330
1F
100
AcDbEntity
  8
Default
  6
Continuous
 62
     7
100
AcDbCircle
 10
328.4291313108
 20
395.2422436139
 30
0.0
 40
1.5
  0
CIRCLE
  5
E5
330
1F
100
AcDbEntity
  8
Default
  6
Continuous
 62
     7
100
AcDbCircle
 10
328.4291313108
 20
386.2422436139
 30
0.0
 40
1.5
  0
CIRCLE
  5
E6
330
1F
100
AcDbEntity
  8
Default
  6
Continuous
 62
     7
100
AcDbCircle
 10
328.4291313108
 20
377.2422436139
 30
0.0
 40
1.5
  0
CIRCLE
  5
E7
330
1F
100
AcDbEntity
  8
Default
  6
Continuous
 62
     7
100
AcDbCircle
 10
328.4291313108
 20
368.2422436139
 30
0.0
 40
1.5
  0
CIRCLE
  5
E8
330
1F
100
AcDbEntity
  8
Default
  6
Continuous
 62
     7
100
AcDbCircle
 10
328.4291313108
 20
359.2422436139
 30
0.0
 40
1.5
  0
CIRCLE
  5
E9
330
1F
100
AcDbEntity
  8
Default
  6
Continuous
 62
     7
100
AcDbCircle
 10
328.4291313108
 20
350.2422436139
 30
0.0
 40
1.5
  0
CIRCLE
  5
EA
330
1F
100
AcDbEntity
  8
Default
  6
Continuous
 62
     7
100
AcDbCircle
 10
328.4291313108
 20
341.2422436139
 30
0.0
 40
1.5
  0
CIRCLE
  5
EB
330
1F
100
AcDbEntity
  8
Default
  6
Continuous
 62
     7
100
AcDbCircle
 10
328.4291313108
 20
332.2422436139
 30
0.0
 40
1.5
  0
CIRCLE
  5
EC
330
1F
100
AcDbEntity
  8
Default
  6
Continuous
 62
     7
100
AcDbCircle
 10
328.4291313108
 20
323.2422436139
 30
0.0
 40
1.5
  0
CIRCLE
  5
ED
330
1F
100
AcDbEntity
  8
Default
  6
Continuous
 62
     7
100
AcDbCircle
 10
328.4291313108
 20
314.2422436139
 30
0.0
 40
1.5
  0
CIRCLE
  5
EE
330
1F
100
AcDbEntity
  8
Default
  6
Continuous
 62
     7
100
AcDbCircle
 10
328.4291313108
 20
305.2422436139
 30
0.0
 40
1.5
  0
CIRCLE
  5
EF
330
1F
100
AcDbEntity
  8
Default
  6
Continuous
 62
     7
100
AcDbCircle
 10
337.4291313108
 20
467.2422436139
 30
0.0
 40
1.5
  0
CIRCLE
  5
F0
330
1F
100
AcDbEntity
  8
Default
  6
Continuous
 62
     7
100
AcDbCircle
 10
337.4291313108
 20
458.2422436139
 30
0.0
 40
1.5
  0
CIRCLE
  5
F1
330
1F
100
AcDbEntity
  8
Default
  6
Continuous
 62
     7
100
AcDbCircle
 10
337.4291313108
 20
449.2422436139
 30
0.0
 40
1.5
  0
CIRCLE
  5
F2
330
1F
100
AcDbEntity
  8
Default
  6
Continuous
 62
     7
100
AcDbCircle
 10
337.4291313108
 20
440.2422436139
 30
0.0
 40
1.5
  0
CIRCLE
  5
F3
330
1F
100
AcDbEntity
  8
Default
  6
Continuous
 62
     7
100
AcDbCircle
 10
337.4291313108
 20
431.2422436139
 30
0.0
 40
1.5
  0
CIRCLE
  5
F4
330
1F
100
AcDbEntity
  8
Default
  6
Continuous
 62
     7
100
AcDbCircle
 10
337.4291313108
 20
422.2422436139
 30
0.0
 40
1.5
  0
CIRCLE
  5
F5
330
1F
100
AcDbEntity
  8
Default
  6
Continuous
 62
     7
100
AcDbCircle
 10
337.4291313108
 20
413.2422436139
 30
0.0
 40
1.5
  0
CIRCLE
  5
F6
330
1F
100
AcDbEntity
  8
Default
  6
Continuous
 62
     7
100
AcDbCircle
 10
337.4291313108
 20
404.2422436139
 30
0.0
 40
1.5
  0
CIRCLE
  5
F7
330
1F
100
AcDbEntity
  8
Default
  6
Continuous
 62
     7
100
AcDbCircle
 10
337.4291313108
 20
395.2422436139
 30
0.0
 40
1.5
  0
CIRCLE
  5
F8
330
1F
100
AcDbEntity
  8
Default
  6
Continuous
 62
     7
100
AcDbCircle
 10
337.4291313108
 20
386.2422436139
 30
0.0
 40
1.5
  0
CIRCLE
  5
F9
330
1F
100
AcDbEntity
  8
Default
  6
Continuous
 62
     7
100
AcDbCircle
 10
337.4291313108
 20
377.2422436139
 30
0.0
 40
1.5
  0
CIRCLE
  5
FA
330
1F
100
AcDbEntity
  8
Default
  6
Continuous
 62
     7
100
AcDbCircle
 10
337.4291313108
 20
368.2422436139
 30
0.0
 40
1.5
  0
CIRCLE
  5
FB
330
1F
100
AcDbEntity
  8
Default
  6
Continuous
 62
     7
100
AcDbCircle
 10
337.4291313108
 20
359.2422436139
 30
0.0
 40
1.5
  0
CIRCLE
  5
FC
330
1F
100
AcDbEntity
  8
Default
  6
Continuous
 62
     7
100
AcDbCircle
 10
337.4291313108
 20
350.2422436139
 30
0.0
 40
1.5
  0
CIRCLE
  5
FD
330
1F
100
AcDbEntity
  8
Default
  6
Continuous
 62
     7
100
AcDbCircle
 10
337.4291313108
 20
341.2422436139
 30
0.0
 40
1.5
  0
CIRCLE
  5
FE
330
1F
100
AcDbEntity
  8
Default
  6
Continuous
 62
     7
100
AcDbCircle
 10
337.4291313108
 20
332.2422436139
 30
0.0
 40
1.5
  0
CIRCLE
  5
FF
330
1F
100
AcDbEntity
  8
Default
  6
Continuous
 62
     7
100
AcDbCircle
 10
337.4291313108
 20
323.2422436139
 30
0.0
 40
1.5
  0
CIRCLE
  5
100
330
1F
100
AcDbEntity
  8
Default
  6
Continuous
 62
     7
100
AcDbCircle
 10
337.4291313108
 20
314.2422436139
 30
0.0
 40
1.5
  0
CIRCLE
  5
101
330
1F
100
AcDbEntity
  8
Default
  6
Continuous
 62
     7
100
AcDbCircle
 10
337.4291313108
 20
305.2422436139
 30
0.0
 40
1.5
  0
CIRCLE
  5
102
330
1F
100
AcDbEntity
  8
Default
  6
Continuous
 62
     7
100
AcDbCircle
 10
346.4291313108
 20
467.2422436139
 30
0.0
 40
1.5
  0
CIRCLE
  5
103
330
1F
100
AcDbEntity
  8
Default
  6
Continuous
 62
     7
100
AcDbCircle
 10
346.4291313108
 20
458.2422436139
 30
0.0
 40
1.5
  0
CIRCLE
  5
104
330
1F
100
AcDbEntity
  8
Default
  6
Continuous
 62
     7
100
AcDbCircle
 10
346.4291313108
 20
449.2422436139
 30
0.0
 40
1.5
  0
CIRCLE
  5
105
330
1F
100
AcDbEntity
  8
Default
  6
Continuous
 62
     7
100
AcDbCircle
 10
346.4291313108
 20
440.2422436139
 30
0.0
 40
1.5
  0
CIRCLE
  5
106
330
1F
100
AcDbEntity
  8
Default
  6
Continuous
 62
     7
100
AcDbCircle
 10
346.4291313108
 20
431.2422436139
 30
0.0
 40
1.5
  0
CIRCLE
  5
107
330
1F
100
AcDbEntity
  8
Default
  6
Continuous
 62
     7
100
AcDbCircle
 10
346.4291313108
 20
422.2422436139
 30
0.0
 40
1.5
  0
CIRCLE
  5
108
330
1F
100
AcDbEntity
  8
Default
  6
Continuous
 62
     7
100
AcDbCircle
 10
346.4291313108
 20
413.2422436139
 30
0.0
 40
1.5
  0
CIRCLE
  5
109
330
1F
100
AcDbEntity
  8
Default
  6
Continuous
 62
     7
100
AcDbCircle
 10
346.4291313108
 20
404.2422436139
 30
0.0
 40
1.5
  0
CIRCLE
  5
10A
330
1F
100
AcDbEntity
  8
Default
  6
Continuous
 62
     7
100
AcDbCircle
 10
346.4291313108
 20
395.2422436139
 30
0.0
 40
1.5
  0
CIRCLE
  5
10B
330
1F
100
AcDbEntity
  8
Default
  6
Continuous
 62
     7
100
AcDbCircle
 10
346.4291313108
 20
386.2422436139
 30
0.0
 40
1.5
  0
CIRCLE
  5
10C
330
1F
100
AcDbEntity
  8
Default
  6
Continuous
 62
     7
100
AcDbCircle
 10
346.4291313108
 20
377.2422436139
 30
0.0
 40
1.5
  0
CIRCLE
  5
10D
330
1F
100
AcDbEntity
  8
Default
  6
Continuous
 62
     7
100
AcDbCircle
 10
346.4291313108
 20
368.2422436139
 30
0.0
 40
1.5
  0
CIRCLE
  5
10E
330
1F
100
AcDbEntity
  8
Default
  6
Continuous
 62
     7
100
AcDbCircle
 10
346.4291313108
 20
359.2422436139
 30
0.0
 40
1.5
  0
CIRCLE
  5
10F
330
1F
100
AcDbEntity
  8
Default
  6
Continuous
 62
     7
100
AcDbCircle
 10
346.4291313108
 20
350.2422436139
 30
0.0
 40
1.5
  0
CIRCLE
  5
110
330
1F
100
AcDbEntity
  8
Default
  6
Continuous
 62
     7
100
AcDbCircle
 10
346.4291313108
 20
341.2422436139
 30
0.0
 40
1.5
  0
CIRCLE
  5
111
330
1F
100
AcDbEntity
  8
Default
  6
Continuous
 62
     7
100
AcDbCircle
 10
346.4291313108
 20
332.2422436139
 30
0.0
 40
1.5
  0
CIRCLE
  5
112
330
1F
100
AcDbEntity
  8
Default
  6
Continuous
 62
     7
100
AcDbCircle
 10
346.4291313108
 20
323.2422436139
 30
0.0
 40
1.5
  0
CIRCLE
  5
113
330
1F
100
AcDbEntity
  8
Default
  6
Continuous
 62
     7
100
AcDbCircle
 10
346.4291313108
 20
314.2422436139
 30
0.0
 40
1.5
  0
CIRCLE
  5
114
330
1F
100
AcDbEntity
  8
Default
  6
Continuous
 62
     7
100
AcDbCircle
 10
346.4291313108
 20
305.2422436139
 30
0.0
 40
1.5
  0
CIRCLE
  5
115
330
1F
100
AcDbEntity
  8
Default
  6
Continuous
 62
     7
100
AcDbCircle
 10
355.4291313108
 20
467.2422436139
 30
0.0
 40
1.5
  0
CIRCLE
  5
116
330
1F
100
AcDbEntity
  8
Default
  6
Continuous
 62
     7
100
AcDbCircle
 10
355.4291313108
 20
458.2422436139
 30
0.0
 40
1.5
  0
CIRCLE
  5
117
330
1F
100
AcDbEntity
  8
Default
  6
Continuous
 62
     7
100
AcDbCircle
 10
355.4291313108
 20
449.2422436139
 30
0.0
 40
1.5
  0
CIRCLE
  5
118
330
1F
100
AcDbEntity
  8
Default
  6
Continuous
 62
     7
100
AcDbCircle
 10
355.4291313108
 20
440.2422436139
 30
0.0
 40
1.5
  0
CIRCLE
  5
119
330
1F
100
AcDbEntity
  8
Default
  6
Continuous
 62
     7
100
AcDbCircle
 10
355.4291313108
 20
431.2422436139
 30
0.0
 40
1.5
  0
CIRCLE
  5
11A
330
1F
100
AcDbEntity
  8
Default
  6
Continuous
 62
     7
100
AcDbCircle
 10
355.4291313108
 20
422.2422436139
 30
0.0
 40
1.5
  0
CIRCLE
  5
11B
330
1F
100
AcDbEntity
  8
Default
  6
Continuous
 62
     7
100
AcDbCircle
 10
355.4291313108
 20
413.2422436139
 30
0.0
 40
1.5
  0
CIRCLE
  5
11C
330
1F
100
AcDbEntity
  8
Default
  6
Continuous
 62
     7
100
AcDbCircle
 10
355.4291313108
 20
404.2422436139
 30
0.0
 40
1.5
  0
CIRCLE
  5
11D
330
1F
100
AcDbEntity
  8
Default
  6
Continuous
 62
     7
100
AcDbCircle
 10
355.4291313108
 20
395.2422436139
 30
0.0
 40
1.5
  0
CIRCLE
  5
11E
330
1F
100
AcDbEntity
  8
Default
  6
Continuous
 62
     7
100
AcDbCircle
 10
355.4291313108
 20
386.2422436139
 30
0.0
 40
1.5
  0
CIRCLE
  5
11F
330
1F
100
AcDbEntity
  8
Default
  6
Continuous
 62
     7
100
AcDbCircle
 10
355.4291313108
 20
377.2422436139
 30
0.0
 40
1.5
  0
CIRCLE
  5
120
330
1F
100
AcDbEntity
  8
Default
  6
Continuous
 62
     7
100
AcDbCircle
 10
355.4291313108
 20
368.2422436139
 30
0.0
 40
1.5
  0
CIRCLE
  5
121
330
1F
100
AcDbEntity
  8
Default
  6
Continuous
 62
     7
100
AcDbCircle
 10
355.4291313108
 20
359.2422436139
 30
0.0
 40
1.5
  0
CIRCLE
  5
122
330
1F
100
AcDbEntity
  8
Default
  6
Continuous
 62
     7
100
AcDbCircle
 10
355.4291313108
 20
350.2422436139
 30
0.0
 40
1.5
  0
CIRCLE
  5
123
330
1F
100
AcDbEntity
  8
Default
  6
Continuous
 62
     7
100
AcDbCircle
 10
355.4291313108
 20
341.2422436139
 30
0.0
 40
1.5
  0
CIRCLE
  5
124
330
1F
100
AcDbEntity
  8
Default
  6
Continuous
 62
     7
100
AcDbCircle
 10
355.4291313108
 20
332.2422436139
 30
0.0
 40
1.5
  0
CIRCLE
  5
125
330
1F
100
AcDbEntity
  8
Default
  6
Continuous
 62
     7
100
AcDbCircle
 10
355.4291313108
 20
323.2422436139
 30
0.0
 40
1.5
  0
CIRCLE
  5
126
330
1F
100
AcDbEntity
  8
Default
  6
Continuous
 62
     7
100
AcDbCircle
 10
355.4291313108
 20
314.2422436139
 30
0.0
 40
1.5
  0
CIRCLE
  5
127
330
1F
100
AcDbEntity
  8
Default
  6
Continuous
 62
     7
100
AcDbCircle
 10
355.4291313108
 20
305.2422436139
 30
0.0
 40
1.5
  0
CIRCLE
  5
128
330
1F
100
AcDbEntity
  8
Default
  6
Continuous
 62
     7
100
AcDbCircle
 10
364.4291313108
 20
467.2422436139
 30
0.0
 40
1.5
  0
CIRCLE
  5
129
330
1F
100
AcDbEntity
  8
Default
  6
Continuous
 62
     7
100
AcDbCircle
 10
364.4291313108
 20
458.2422436139
 30
0.0
 40
1.5
  0
CIRCLE
  5
12A
330
1F
100
AcDbEntity
  8
Default
  6
Continuous
 62
     7
100
AcDbCircle
 10
364.4291313108
 20
449.2422436139
 30
0.0
 40
1.5
  0
CIRCLE
  5
12B
330
1F
100
AcDbEntity
  8
Default
  6
Continuous
 62
     7
100
AcDbCircle
 10
364.4291313108
 20
440.2422436139
 30
0.0
 40
1.5
  0
CIRCLE
  5
12C
330
1F
100
AcDbEntity
  8
Default
  6
Continuous
 62
     7
100
AcDbCircle
 10
364.4291313108
 20
431.2422436139
 30
0.0
 40
1.5
  0
CIRCLE
  5
12D
330
1F
100
AcDbEntity
  8
Default
  6
Continuous
 62
     7
100
AcDbCircle
 10
364.4291313108
 20
422.2422436139
 30
0.0
 40
1.5
  0
CIRCLE
  5
12E
330
1F
100
AcDbEntity
  8
Default
  6
Continuous
 62
     7
100
AcDbCircle
 10
364.4291313108
 20
413.2422436139
 30
0.0
 40
1.5
  0
CIRCLE
  5
12F
330
1F
100
AcDbEntity
  8
Default
  6
Continuous
 62
     7
100
AcDbCircle
 10
364.4291313108
 20
404.2422436139
 30
0.0
 40
1.5
  0
CIRCLE
  5
130
330
1F
100
AcDbEntity
  8
Default
  6
Continuous
 62
     7
100
AcDbCircle
 10
364.4291313108
 20
395.2422436139
 30
0.0
 40
1.5
  0
CIRCLE
  5
131
330
1F
100
AcDbEntity
  8
Default
  6
Continuous
 62
     7
100
AcDbCircle
 10
364.4291313108
 20
386.2422436139
 30
0.0
 40
1.5
  0
CIRCLE
  5
132
330
1F
100
AcDbEntity
  8
Default
  6
Continuous
 62
     7
100
AcDbCircle
 10
364.4291313108
 20
377.2422436139
 30
0.0
 40
1.5
  0
CIRCLE
  5
133
330
1F
100
AcDbEntity
  8
Default
  6
Continuous
 62
     7
100
AcDbCircle
 10
364.4291313108
 20
368.2422436139
 30
0.0
 40
1.5
  0
CIRCLE
  5
134
330
1F
100
AcDbEntity
  8
Default
  6
Continuous
 62
     7
100
AcDbCircle
 10
364.4291313108
 20
359.2422436139
 30
0.0
 40
1.5
  0
CIRCLE
  5
135
330
1F
100
AcDbEntity
  8
Default
  6
Continuous
 62
     7
100
AcDbCircle
 10
364.4291313108
 20
350.2422436139
 30
0.0
 40
1.5
  0
CIRCLE
  5
136
330
1F
100
AcDbEntity
  8
Default
  6
Continuous
 62
     7
100
AcDbCircle
 10
364.4291313108
 20
341.2422436139
 30
0.0
 40
1.5
  0
CIRCLE
  5
137
330
1F
100
AcDbEntity
  8
Default
  6
Continuous
 62
     7
100
AcDbCircle
 10
364.4291313108
 20
332.2422436139
 30
0.0
 40
1.5
  0
CIRCLE
  5
138
330
1F
100
AcDbEntity
  8
Default
  6
Continuous
 62
     7
100
AcDbCircle
 10
364.4291313108
 20
323.2422436139
 30
0.0
 40
1.5
  0
CIRCLE
  5
139
330
1F
100
AcDbEntity
  8
Default
  6
Continuous
 62
     7
100
AcDbCircle
 10
364.4291313108
 20
314.2422436139
 30
0.0
 40
1.5
  0
CIRCLE
  5
13A
330
1F
100
AcDbEntity
  8
Default
  6
Continuous
 62
     7
100
AcDbCircle
 10
364.4291313108
 20
305.2422436139
 30
0.0
 40
1.5
  0
CIRCLE
  5
13B
330
1F
100
AcDbEntity
  8
Default
  6
Continuous
 62
     7
100
AcDbCircle
 10
373.4291313108
 20
467.2422436139
 30
0.0
 40
1.5
  0
CIRCLE
  5
13C
330
1F
100
AcDbEntity
  8
Default
  6
Continuous
 62
     7
100
AcDbCircle
 10
373.4291313108
 20
458.2422436139
 30
0.0
 40
1.5
  0
CIRCLE
  5
13D
330
1F
100
AcDbEntity
  8
Default
  6
Continuous
 62
     7
100
AcDbCircle
 10
373.4291313108
 20
449.2422436139
 30
0.0
 40
1.5
  0
CIRCLE
  5
13E
330
1F
100
AcDbEntity
  8
Default
  6
Continuous
 62
     7
100
AcDbCircle
 10
373.4291313108
 20
440.2422436139
 30
0.0
 40
1.5
  0
CIRCLE
  5
13F
330
1F
100
AcDbEntity
  8
Default
  6
Continuous
 62
     7
100
AcDbCircle
 10
373.4291313108
 20
431.2422436139
 30
0.0
 40
1.5
  0
CIRCLE
  5
140
330
1F
100
AcDbEntity
  8
Default
  6
Continuous
 62
     7
100
AcDbCircle
 10
373.4291313108
 20
422.2422436139
 30
0.0
 40
1.5
  0
CIRCLE
  5
141
330
1F
100
AcDbEntity
  8
Default
  6
Continuous
 62
     7
100
AcDbCircle
 10
373.4291313108
 20
413.2422436139
 30
0.0
 40
1.5
  0
CIRCLE
  5
142
330
1F
100
AcDbEntity
  8
Default
  6
Continuous
 62
     7
100
AcDbCircle
 10
373.4291313108
 20
404.2422436139
 30
0.0
 40
1.5
  0
CIRCLE
  5
143
330
1F
100
AcDbEntity
  8
Default
  6
Continuous
 62
     7
100
AcDbCircle
 10
373.4291313108
 20
395.2422436139
 30
0.0
 40
1.5
  0
CIRCLE
  5
144
330
1F
100
AcDbEntity
  8
Default
  6
Continuous
 62
     7
100
AcDbCircle
 10
373.4291313108
 20
386.2422436139
 30
0.0
 40
1.5
  0
CIRCLE
  5
145
330
1F
100
AcDbEntity
  8
Default
  6
Continuous
 62
     7
100
AcDbCircle
 10
373.4291313108
 20
377.2422436139
 30
0.0
 40
1.5
  0
CIRCLE
  5
146
330
1F
100
AcDbEntity
  8
Default
  6
Continuous
 62
     7
100
AcDbCircle
 10
373.4291313108
 20
368.2422436139
 30
0.0
 40
1.5
  0
CIRCLE
  5
147
330
1F
100
AcDbEntity
  8
Default
  6
Continuous
 62
     7
100
AcDbCircle
 10
373.4291313108
 20
359.2422436139
 30
0.0
 40
1.5
  0
CIRCLE
  5
148
330
1F
100
AcDbEntity
  8
Default
  6
Continuous
 62
     7
100
AcDbCircle
 10
373.4291313108
 20
350.2422436139
 30
0.0
 40
1.5
  0
CIRCLE
  5
149
330
1F
100
AcDbEntity
  8
Default
  6
Continuous
 62
     7
100
AcDbCircle
 10
373.4291313108
 20
341.2422436139
 30
0.0
 40
1.5
  0
CIRCLE
  5
14A
330
1F
100
AcDbEntity
  8
Default
  6
Continuous
 62
     7
100
AcDbCircle
 10
373.4291313108
 20
332.2422436139
 30
0.0
 40
1.5
  0
CIRCLE
  5
14B
330
1F
100
AcDbEntity
  8
Default
  6
Continuous
 62
     7
100
AcDbCircle
 10
373.4291313108
 20
323.2422436139
 30
0.0
 40
1.5
  0
CIRCLE
  5
14C
330
1F
100
AcDbEntity
  8
Default
  6
Continuous
 62
     7
100
AcDbCircle
 10
373.4291313108
 20
314.2422436139
 30
0.0
 40
1.5
  0
CIRCLE
  5
14D
330
1F
100
AcDbEntity
  8
Default
  6
Continuous
 62
     7
100
AcDbCircle
 10
373.4291313108
 20
305.2422436139
 30
0.0
 40
1.5
  0
CIRCLE
  5
14E
330
1F
100
AcDbEntity
  8
Default
  6
Continuous
 62
     7
100
AcDbCircle
 10
382.4291313108
 20
467.2422436139
 30
0.0
 40
1.5
  0
CIRCLE
  5
14F
330
1F
100
AcDbEntity
  8
Default
  6
Continuous
 62
     7
100
AcDbCircle
 10
382.4291313108
 20
458.2422436139
 30
0.0
 40
1.5
  0
CIRCLE
  5
150
330
1F
100
AcDbEntity
  8
Default
  6
Continuous
 62
     7
100
AcDbCircle
 10
382.4291313108
 20
449.2422436139
 30
0.0
 40
1.5
  0
CIRCLE
  5
151
330
1F
100
AcDbEntity
  8
Default
  6
Continuous
 62
     7
100
AcDbCircle
 10
382.4291313108
 20
440.2422436139
 30
0.0
 40
1.5
  0
CIRCLE
  5
152
330
1F
100
AcDbEntity
  8
Default
  6
Continuous
 62
     7
100
AcDbCircle
 10
382.4291313108
 20
431.2422436139
 30
0.0
 40
1.5
  0
CIRCLE
  5
153
330
1F
100
AcDbEntity
  8
Default
  6
Continuous
 62
     7
100
AcDbCircle
 10
382.4291313108
 20
422.2422436139
 30
0.0
 40
1.5
  0
CIRCLE
  5
154
330
1F
100
AcDbEntity
  8
Default
  6
Continuous
 62
     7
100
AcDbCircle
 10
382.4291313108
 20
413.2422436139
 30
0.0
 40
1.5
  0
CIRCLE
  5
155
330
1F
100
AcDbEntity
  8
Default
  6
Continuous
 62
     7
100
AcDbCircle
 10
382.4291313108
 20
404.2422436139
 30
0.0
 40
1.5
  0
CIRCLE
  5
156
330
1F
100
AcDbEntity
  8
Default
  6
Continuous
 62
     7
100
AcDbCircle
 10
382.4291313108
 20
395.2422436139
 30
0.0
 40
1.5
  0
CIRCLE
  5
157
330
1F
100
AcDbEntity
  8
Default
  6
Continuous
 62
     7
100
AcDbCircle
 10
382.4291313108
 20
386.2422436139
 30
0.0
 40
1.5
  0
CIRCLE
  5
158
330
1F
100
AcDbEntity
  8
Default
  6
Continuous
 62
     7
100
AcDbCircle
 10
382.4291313108
 20
377.2422436139
 30
0.0
 40
1.5
  0
CIRCLE
  5
159
330
1F
100
AcDbEntity
  8
Default
  6
Continuous
 62
     7
100
AcDbCircle
 10
382.4291313108
 20
368.2422436139
 30
0.0
 40
1.5
  0
CIRCLE
  5
15A
330
1F
100
AcDbEntity
  8
Default
  6
Continuous
 62
     7
100
AcDbCircle
 10
382.4291313108
 20
359.2422436139
 30
0.0
 40
1.5
  0
CIRCLE
  5
15B
330
1F
100
AcDbEntity
  8
Default
  6
Continuous
 62
     7
100
AcDbCircle
 10
382.4291313108
 20
350.2422436139
 30
0.0
 40
1.5
  0
CIRCLE
  5
15C
330
1F
100
AcDbEntity
  8
Default
  6
Continuous
 62
     7
100
AcDbCircle
 10
382.4291313108
 20
341.2422436139
 30
0.0
 40
1.5
  0
CIRCLE
  5
15D
330
1F
100
AcDbEntity
  8
Default
  6
Continuous
 62
     7
100
AcDbCircle
 10
382.4291313108
 20
332.2422436139
 30
0.0
 40
1.5
  0
CIRCLE
  5
15E
330
1F
100
AcDbEntity
  8
Default
  6
Continuous
 62
     7
100
AcDbCircle
 10
382.4291313108
 20
323.2422436139
 30
0.0
 40
1.5
  0
CIRCLE
  5
15F
330
1F
100
AcDbEntity
  8
Default
  6
Continuous
 62
     7
100
AcDbCircle
 10
382.4291313108
 20
314.2422436139
 30
0.0
 40
1.5
  0
CIRCLE
  5
160
330
1F
100
AcDbEntity
  8
Default
  6
Continuous
 62
     7
100
AcDbCircle
 10
382.4291313108
 20
305.2422436139
 30
0.0
 40
1.5
  0
CIRCLE
  5
161
330
1F
100
AcDbEntity
  8
Default
  6
Continuous
 62
     7
100
AcDbCircle
 10
391.4291313108
 20
467.2422436139
 30
0.0
 40
1.5
  0
CIRCLE
  5
162
330
1F
100
AcDbEntity
  8
Default
  6
Continuous
 62
     7
100
AcDbCircle
 10
391.4291313108
 20
458.2422436139
 30
0.0
 40
1.5
  0
CIRCLE
  5
163
330
1F
100
AcDbEntity
  8
Default
  6
Continuous
 62
     7
100
AcDbCircle
 10
391.4291313108
 20
449.2422436139
 30
0.0
 40
1.5
  0
CIRCLE
  5
164
330
1F
100
AcDbEntity
  8
Default
  6
Continuous
 62
     7
100
AcDbCircle
 10
391.4291313108
 20
440.2422436139
 30
0.0
 40
1.5
  0
CIRCLE
  5
165
330
1F
100
AcDbEntity
  8
Default
  6
Continuous
 62
     7
100
AcDbCircle
 10
391.4291313108
 20
431.2422436139
 30
0.0
 40
1.5
  0
CIRCLE
  5
166
330
1F
100
AcDbEntity
  8
Default
  6
Continuous
 62
     7
100
AcDbCircle
 10
391.4291313108
 20
422.2422436139
 30
0.0
 40
1.5
  0
CIRCLE
  5
167
330
1F
100
AcDbEntity
  8
Default
  6
Continuous
 62
     7
100
AcDbCircle
 10
391.4291313108
 20
413.2422436139
 30
0.0
 40
1.5
  0
CIRCLE
  5
168
330
1F
100
AcDbEntity
  8
Default
  6
Continuous
 62
     7
100
AcDbCircle
 10
391.4291313108
 20
404.2422436139
 30
0.0
 40
1.5
  0
CIRCLE
  5
169
330
1F
100
AcDbEntity
  8
Default
  6
Continuous
 62
     7
100
AcDbCircle
 10
391.4291313108
 20
395.2422436139
 30
0.0
 40
1.5
  0
CIRCLE
  5
16A
330
1F
100
AcDbEntity
  8
Default
  6
Continuous
 62
     7
100
AcDbCircle
 10
391.4291313108
 20
386.2422436139
 30
0.0
 40
1.5
  0
CIRCLE
  5
16B
330
1F
100
AcDbEntity
  8
Default
  6
Continuous
 62
     7
100
AcDbCircle
 10
391.4291313108
 20
377.2422436139
 30
0.0
 40
1.5
  0
CIRCLE
  5
16C
330
1F
100
AcDbEntity
  8
Default
  6
Continuous
 62
     7
100
AcDbCircle
 10
391.4291313108
 20
368.2422436139
 30
0.0
 40
1.5
  0
CIRCLE
  5
16D
330
1F
100
AcDbEntity
  8
Default
  6
Continuous
 62
     7
100
AcDbCircle
 10
391.4291313108
 20
359.2422436139
 30
0.0
 40
1.5
  0
CIRCLE
  5
16E
330
1F
100
AcDbEntity
  8
Default
  6
Continuous
 62
     7
100
AcDbCircle
 10
391.4291313108
 20
350.2422436139
 30
0.0
 40
1.5
  0
CIRCLE
  5
16F
330
1F
100
AcDbEntity
  8
Default
  6
Continuous
 62
     7
100
AcDbCircle
 10
391.4291313108
 20
341.2422436139
 30
0.0
 40
1.5
  0
CIRCLE
  5
170
330
1F
100
AcDbEntity
  8
Default
  6
Continuous
 62
     7
100
AcDbCircle
 10
391.4291313108
 20
332.2422436139
 30
0.0
 40
1.5
  0
CIRCLE
  5
171
330
1F
100
AcDbEntity
  8
Default
  6
Continuous
 62
     7
100
AcDbCircle
 10
391.4291313108
 20
323.2422436139
 30
0.0
 40
1.5
  0
CIRCLE
  5
172
330
1F
100
AcDbEntity
  8
Default
  6
Continuous
 62
     7
100
AcDbCircle
 10
391.4291313108
 20
314.2422436139
 30
0.0
 40
1.5
  0
CIRCLE
  5
173
330
1F
100
AcDbEntity
  8
Default
  6
Continuous
 62
     7
100
AcDbCircle
 10
391.4291313108
 20
305.2422436139
 30
0.0
 40
1.5
  0
CIRCLE
  5
174
330
1F
100
AcDbEntity
  8
Default
  6
Continuous
 62
     7
100
AcDbCircle
 10
400.4291313108
 20
467.2422436139
 30
0.0
 40
1.5
  0
CIRCLE
  5
175
330
1F
100
AcDbEntity
  8
Default
  6
Continuous
 62
     7
100
AcDbCircle
 10
400.4291313108
 20
458.2422436139
 30
0.0
 40
1.5
  0
CIRCLE
  5
176
330
1F
100
AcDbEntity
  8
Default
  6
Continuous
 62
     7
100
AcDbCircle
 10
400.4291313108
 20
449.2422436139
 30
0.0
 40
1.5
  0
CIRCLE
  5
177
330
1F
100
AcDbEntity
  8
Default
  6
Continuous
 62
     7
100
AcDbCircle
 10
400.4291313108
 20
440.2422436139
 30
0.0
 40
1.5
  0
CIRCLE
  5
178
330
1F
100
AcDbEntity
  8
Default
  6
Continuous
 62
     7
100
AcDbCircle
 10
400.4291313108
 20
431.2422436139
 30
0.0
 40
1.5
  0
CIRCLE
  5
179
330
1F
100
AcDbEntity
  8
Default
  6
Continuous
 62
     7
100
AcDbCircle
 10
400.4291313108
 20
422.2422436139
 30
0.0
 40
1.5
  0
CIRCLE
  5
17A
330
1F
100
AcDbEntity
  8
Default
  6
Continuous
 62
     7
100
AcDbCircle
 10
400.4291313108
 20
413.2422436139
 30
0.0
 40
1.5
  0
CIRCLE
  5
17B
330
1F
100
AcDbEntity
  8
Default
  6
Continuous
 62
     7
100
AcDbCircle
 10
400.4291313108
 20
404.2422436139
 30
0.0
 40
1.5
  0
CIRCLE
  5
17C
330
1F
100
AcDbEntity
  8
Default
  6
Continuous
 62
     7
100
AcDbCircle
 10
400.4291313108
 20
395.2422436139
 30
0.0
 40
1.5
  0
CIRCLE
  5
17D
330
1F
100
AcDbEntity
  8
Default
  6
Continuous
 62
     7
100
AcDbCircle
 10
400.4291313108
 20
386.2422436139
 30
0.0
 40
1.5
  0
CIRCLE
  5
17E
330
1F
100
AcDbEntity
  8
Default
  6
Continuous
 62
     7
100
AcDbCircle
 10
400.4291313108
 20
377.2422436139
 30
0.0
 40
1.5
  0
CIRCLE
  5
17F
330
1F
100
AcDbEntity
  8
Default
  6
Continuous
 62
     7
100
AcDbCircle
 10
400.4291313108
 20
368.2422436139
 30
0.0
 40
1.5
  0
CIRCLE
  5
180
330
1F
100
AcDbEntity
  8
Default
  6
Continuous
 62
     7
100
AcDbCircle
 10
400.4291313108
 20
359.2422436139
 30
0.0
 40
1.5
  0
CIRCLE
  5
181
330
1F
100
AcDbEntity
  8
Default
  6
Continuous
 62
     7
100
AcDbCircle
 10
400.4291313108
 20
350.2422436139
 30
0.0
 40
1.5
  0
CIRCLE
  5
182
330
1F
100
AcDbEntity
  8
Default
  6
Continuous
 62
     7
100
AcDbCircle
 10
400.4291313108
 20
341.2422436139
 30
0.0
 40
1.5
  0
CIRCLE
  5
183
330
1F
100
AcDbEntity
  8
Default
  6
Continuous
 62
     7
100
AcDbCircle
 10
400.4291313108
 20
332.2422436139
 30
0.0
 40
1.5
  0
CIRCLE
  5
184
330
1F
100
AcDbEntity
  8
Default
  6
Continuous
 62
     7
100
AcDbCircle
 10
400.4291313108
 20
323.2422436139
 30
0.0
 40
1.5
  0
CIRCLE
  5
185
330
1F
100
AcDbEntity
  8
Default
  6
Continuous
 62
     7
100
AcDbCircle
 10
400.4291313108
 20
314.2422436139
 30
0.0
 40
1.5
  0
CIRCLE
  5
186
330
1F
100
AcDbEntity
  8
Default
  6
Continuous
 62
     7
100
AcDbCircle
 10
400.4291313108
 20
305.2422436139
 30
0.0
 40
1.5
  0
CIRCLE
  5
187
330
1F
100
AcDbEntity
  8
Default
  6
Continuous
 62
     7
100
AcDbCircle
 10
409.4291313108
 20
467.2422436139
 30
0.0
 40
1.5
  0
CIRCLE
  5
188
330
1F
100
AcDbEntity
  8
Default
  6
Continuous
 62
     7
100
AcDbCircle
 10
409.4291313108
 20
458.2422436139
 30
0.0
 40
1.5
  0
CIRCLE
  5
189
330
1F
100
AcDbEntity
  8
Default
  6
Continuous
 62
     7
100
AcDbCircle
 10
409.4291313108
 20
449.2422436139
 30
0.0
 40
1.5
  0
CIRCLE
  5
18A
330
1F
100
AcDbEntity
  8
Default
  6
Continuous
 62
     7
100
AcDbCircle
 10
409.4291313108
 20
440.2422436139
 30
0.0
 40
1.5
  0
CIRCLE
  5
18B
330
1F
100
AcDbEntity
  8
Default
  6
Continuous
 62
     7
100
AcDbCircle
 10
409.4291313108
 20
431.2422436139
 30
0.0
 40
1.5
  0
CIRCLE
  5
18C
330
1F
100
AcDbEntity
  8
Default
  6
Continuous
 62
     7
100
AcDbCircle
 10
409.4291313108
 20
422.2422436139
 30
0.0
 40
1.5
  0
CIRCLE
  5
18D
330
1F
100
AcDbEntity
  8
Default
  6
Continuous
 62
     7
100
AcDbCircle
 10
409.4291313108
 20
413.2422436139
 30
0.0
 40
1.5
  0
CIRCLE
  5
18E
330
1F
100
AcDbEntity
  8
Default
  6
Continuous
 62
     7
100
AcDbCircle
 10
409.4291313108
 20
404.2422436139
 30
0.0
 40
1.5
  0
CIRCLE
  5
18F
330
1F
100
AcDbEntity
  8
Default
  6
Continuous
 62
     7
100
AcDbCircle
 10
409.4291313108
 20
395.2422436139
 30
0.0
 40
1.5
  0
CIRCLE
  5
190
330
1F
100
AcDbEntity
  8
Default
  6
Continuous
 62
     7
100
AcDbCircle
 10
409.4291313108
 20
386.2422436139
 30
0.0
 40
1.5
  0
CIRCLE
  5
191
330
1F
100
AcDbEntity
  8
Default
  6
Continuous
 62
     7
100
AcDbCircle
 10
409.4291313108
 20
377.2422436139
 30
0.0
 40
1.5
  0
CIRCLE
  5
192
330
1F
100
AcDbEntity
  8
Default
  6
Continuous
 62
     7
100
AcDbCircle
 10
409.4291313108
 20
368.2422436139
 30
0.0
 40
1.5
  0
CIRCLE
  5
193
330
1F
100
AcDbEntity
  8
Default
  6
Continuous
 62
     7
100
AcDbCircle
 10
409.4291313108
 20
359.2422436139
 30
0.0
 40
1.5
  0
CIRCLE
  5
194
330
1F
100
AcDbEntity
  8
Default
  6
Continuous
 62
     7
100
AcDbCircle
 10
409.4291313108
 20
350.2422436139
 30
0.0
 40
1.5
  0
CIRCLE
  5
195
330
1F
100
AcDbEntity
  8
Default
  6
Continuous
 62
     7
100
AcDbCircle
 10
409.4291313108
 20
341.2422436139
 30
0.0
 40
1.5
  0
CIRCLE
  5
196
330
1F
100
AcDbEntity
  8
Default
  6
Continuous
 62
     7
100
AcDbCircle
 10
409.4291313108
 20
332.2422436139
 30
0.0
 40
1.5
  0
CIRCLE
  5
197
330
1F
100
AcDbEntity
  8
Default
  6
Continuous
 62
     7
100
AcDbCircle
 10
409.4291313108
 20
323.2422436139
 30
0.0
 40
1.5
  0
CIRCLE
  5
198
330
1F
100
AcDbEntity
  8
Default
  6
Continuous
 62
     7
100
AcDbCircle
 10
409.4291313108
 20
314.2422436139
 30
0.0
 40
1.5
  0
CIRCLE
  5
199
330
1F
100
AcDbEntity
  8
Default
  6
Continuous
 62
     7
100
AcDbCircle
 10
409.4291313108
 20
305.2422436139
 30
0.0
 40
1.5
  0
CIRCLE
  5
19A
330
1F
100
AcDbEntity
  8
Default
  6
Continuous
 62
     7
100
AcDbCircle
 10
418.4291313108
 20
467.2422436139
 30
0.0
 40
1.5
  0
CIRCLE
  5
19B
330
1F
100
AcDbEntity
  8
Default
  6
Continuous
 62
     7
100
AcDbCircle
 10
418.4291313108
 20
458.2422436139
 30
0.0
 40
1.5
  0
CIRCLE
  5
19C
330
1F
100
AcDbEntity
  8
Default
  6
Continuous
 62
     7
100
AcDbCircle
 10
418.4291313108
 20
449.2422436139
 30
0.0
 40
1.5
  0
CIRCLE
  5
19D
330
1F
100
AcDbEntity
  8
Default
  6
Continuous
 62
     7
100
AcDbCircle
 10
418.4291313108
 20
440.2422436139
 30
0.0
 40
1.5
  0
CIRCLE
  5
19E
330
1F
100
AcDbEntity
  8
Default
  6
Continuous
 62
     7
100
AcDbCircle
 10
418.4291313108
 20
431.2422436139
 30
0.0
 40
1.5
  0
CIRCLE
  5
19F
330
1F
100
AcDbEntity
  8
Default
  6
Continuous
 62
     7
100
AcDbCircle
 10
418.4291313108
 20
422.2422436139
 30
0.0
 40
1.5
  0
CIRCLE
  5
1A0
330
1F
100
AcDbEntity
  8
Default
  6
Continuous
 62
     7
100
AcDbCircle
 10
418.4291313108
 20
413.2422436139
 30
0.0
 40
1.5
  0
CIRCLE
  5
1A1
330
1F
100
AcDbEntity
  8
Default
  6
Continuous
 62
     7
100
AcDbCircle
 10
418.4291313108
 20
404.2422436139
 30
0.0
 40
1.5
  0
CIRCLE
  5
1A2
330
1F
100
AcDbEntity
  8
Default
  6
Continuous
 62
     7
100
AcDbCircle
 10
418.4291313108
 20
395.2422436139
 30
0.0
 40
1.5
  0
CIRCLE
  5
1A3
330
1F
100
AcDbEntity
  8
Default
  6
Continuous
 62
     7
100
AcDbCircle
 10
418.4291313108
 20
386.2422436139
 30
0.0
 40
1.5
  0
CIRCLE
  5
1A4
330
1F
100
AcDbEntity
  8
Default
  6
Continuous
 62
     7
100
AcDbCircle
 10
418.4291313108
 20
377.2422436139
 30
0.0
 40
1.5
  0
CIRCLE
  5
1A5
330
1F
100
AcDbEntity
  8
Default
  6
Continuous
 62
     7
100
AcDbCircle
 10
418.4291313108
 20
368.2422436139
 30
0.0
 40
1.5
  0
CIRCLE
  5
1A6
330
1F
100
AcDbEntity
  8
Default
  6
Continuous
 62
     7
100
AcDbCircle
 10
418.4291313108
 20
359.2422436139
 30
0.0
 40
1.5
  0
CIRCLE
  5
1A7
330
1F
100
AcDbEntity
  8
Default
  6
Continuous
 62
     7
100
AcDbCircle
 10
418.4291313108
 20
350.2422436139
 30
0.0
 40
1.5
  0
CIRCLE
  5
1A8
330
1F
100
AcDbEntity
  8
Default
  6
Continuous
 62
     7
100
AcDbCircle
 10
418.4291313108
 20
341.2422436139
 30
0.0
 40
1.5
  0
CIRCLE
  5
1A9
330
1F
100
AcDbEntity
  8
Default
  6
Continuous
 62
     7
100
AcDbCircle
 10
418.4291313108
 20
332.2422436139
 30
0.0
 40
1.5
  0
CIRCLE
  5
1AA
330
1F
100
AcDbEntity
  8
Default
  6
Continuous
 62
     7
100
AcDbCircle
 10
418.4291313108
 20
323.2422436139
 30
0.0
 40
1.5
  0
CIRCLE
  5
1AB
330
1F
100
AcDbEntity
  8
Default
  6
Continuous
 62
     7
100
AcDbCircle
 10
418.4291313108
 20
314.2422436139
 30
0.0
 40
1.5
  0
CIRCLE
  5
1AC
330
1F
100
AcDbEntity
  8
Default
  6
Continuous
 62
     7
100
AcDbCircle
 10
418.4291313108
 20
305.2422436139
 30
0.0
 40
1.5
  0
CIRCLE
  5
1AD
330
1F
100
AcDbEntity
  8
Default
  6
Continuous
 62
     7
100
AcDbCircle
 10
427.4291313108
 20
467.2422436139
 30
0.0
 40
1.5
  0
CIRCLE
  5
1AE
330
1F
100
AcDbEntity
  8
Default
  6
Continuous
 62
     7
100
AcDbCircle
 10
427.4291313108
 20
458.2422436139
 30
0.0
 40
1.5
  0
CIRCLE
  5
1AF
330
1F
100
AcDbEntity
  8
Default
  6
Continuous
 62
     7
100
AcDbCircle
 10
427.4291313108
 20
449.2422436139
 30
0.0
 40
1.5
  0
CIRCLE
  5
1B0
330
1F
100
AcDbEntity
  8
Default
  6
Continuous
 62
     7
100
AcDbCircle
 10
427.4291313108
 20
440.2422436139
 30
0.0
 40
1.5
  0
CIRCLE
  5
1B1
330
1F
100
AcDbEntity
  8
Default
  6
Continuous
 62
     7
100
AcDbCircle
 10
427.4291313108
 20
431.2422436139
 30
0.0
 40
1.5
  0
CIRCLE
  5
1B2
330
1F
100
AcDbEntity
  8
Default
  6
Continuous
 62
     7
100
AcDbCircle
 10
427.4291313108
 20
422.2422436139
 30
0.0
 40
1.5
  0
CIRCLE
  5
1B3
330
1F
100
AcDbEntity
  8
Default
  6
Continuous
 62
     7
100
AcDbCircle
 10
427.4291313108
 20
413.2422436139
 30
0.0
 40
1.5
  0
CIRCLE
  5
1B4
330
1F
100
AcDbEntity
  8
Default
  6
Continuous
 62
     7
100
AcDbCircle
 10
427.4291313108
 20
404.2422436139
 30
0.0
 40
1.5
  0
CIRCLE
  5
1B5
330
1F
100
AcDbEntity
  8
Default
  6
Continuous
 62
     7
100
AcDbCircle
 10
427.4291313108
 20
395.2422436139
 30
0.0
 40
1.5
  0
CIRCLE
  5
1B6
330
1F
100
AcDbEntity
  8
Default
  6
Continuous
 62
     7
100
AcDbCircle
 10
427.4291313108
 20
386.2422436139
 30
0.0
 40
1.5
  0
CIRCLE
  5
1B7
330
1F
100
AcDbEntity
  8
Default
  6
Continuous
 62
     7
100
AcDbCircle
 10
427.4291313108
 20
377.2422436139
 30
0.0
 40
1.5
  0
CIRCLE
  5
1B8
330
1F
100
AcDbEntity
  8
Default
  6
Continuous
 62
     7
100
AcDbCircle
 10
427.4291313108
 20
368.2422436139
 30
0.0
 40
1.5
  0
CIRCLE
  5
1B9
330
1F
100
AcDbEntity
  8
Default
  6
Continuous
 62
     7
100
AcDbCircle
 10
427.4291313108
 20
359.2422436139
 30
0.0
 40
1.5
  0
CIRCLE
  5
1BA
330
1F
100
AcDbEntity
  8
Default
  6
Continuous
 62
     7
100
AcDbCircle
 10
427.4291313108
 20
350.2422436139
 30
0.0
 40
1.5
  0
CIRCLE
  5
1BB
330
1F
100
AcDbEntity
  8
Default
  6
Continuous
 62
     7
100
AcDbCircle
 10
427.4291313108
 20
341.2422436139
 30
0.0
 40
1.5
  0
CIRCLE
  5
1BC
330
1F
100
AcDbEntity
  8
Default
  6
Continuous
 62
     7
100
AcDbCircle
 10
427.4291313108
 20
332.2422436139
 30
0.0
 40
1.5
  0
CIRCLE
  5
1BD
330
1F
100
AcDbEntity
  8
Default
  6
Continuous
 62
     7
100
AcDbCircle
 10
427.4291313108
 20
323.2422436139
 30
0.0
 40
1.5
  0
CIRCLE
  5
1BE
330
1F
100
AcDbEntity
  8
Default
  6
Continuous
 62
     7
100
AcDbCircle
 10
427.4291313108
 20
314.2422436139
 30
0.0
 40
1.5
  0
CIRCLE
  5
1BF
330
1F
100
AcDbEntity
  8
Default
  6
Continuous
 62
     7
100
AcDbCircle
 10
427.4291313108
 20
305.2422436139
 30
0.0
 40
1.5
  0
CIRCLE
  5
1C0
330
1F
100
AcDbEntity
  8
Default
  6
Continuous
 62
     7
100
AcDbCircle
 10
436.4291313108
 20
467.2422436139
 30
0.0
 40
1.5
  0
CIRCLE
  5
1C1
330
1F
100
AcDbEntity
  8
Default
  6
Continuous
 62
     7
100
AcDbCircle
 10
436.4291313108
 20
458.2422436139
 30
0.0
 40
1.5
  0
CIRCLE
  5
1C2
330
1F
100
AcDbEntity
  8
Default
  6
Continuous
 62
     7
100
AcDbCircle
 10
436.4291313108
 20
449.2422436139
 30
0.0
 40
1.5
  0
CIRCLE
  5
1C3
330
1F
100
AcDbEntity
  8
Default
  6
Continuous
 62
     7
100
AcDbCircle
 10
436.4291313108
 20
440.2422436139
 30
0.0
 40
1.5
  0
CIRCLE
  5
1C4
330
1F
100
AcDbEntity
  8
Default
  6
Continuous
 62
     7
100
AcDbCircle
 10
436.4291313108
 20
431.2422436139
 30
0.0
 40
1.5
  0
CIRCLE
  5
1C5
330
1F
100
AcDbEntity
  8
Default
  6
Continuous
 62
     7
100
AcDbCircle
 10
436.4291313108
 20
422.2422436139
 30
0.0
 40
1.5
  0
CIRCLE
  5
1C6
330
1F
100
AcDbEntity
  8
Default
  6
Continuous
 62
     7
100
AcDbCircle
 10
436.4291313108
 20
413.2422436139
 30
0.0
 40
1.5
  0
CIRCLE
  5
1C7
330
1F
100
AcDbEntity
  8
Default
  6
Continuous
 62
     7
100
AcDbCircle
 10
436.4291313108
 20
404.2422436139
 30
0.0
 40
1.5
  0
CIRCLE
  5
1C8
330
1F
100
AcDbEntity
  8
Default
  6
Continuous
 62
     7
100
AcDbCircle
 10
436.4291313108
 20
395.2422436139
 30
0.0
 40
1.5
  0
CIRCLE
  5
1C9
330
1F
100
AcDbEntity
  8
Default
  6
Continuous
 62
     7
100
AcDbCircle
 10
436.4291313108
 20
386.2422436139
 30
0.0
 40
1.5
  0
CIRCLE
  5
1CA
330
1F
100
AcDbEntity
  8
Default
  6
Continuous
 62
     7
100
AcDbCircle
 10
436.4291313108
 20
377.2422436139
 30
0.0
 40
1.5
  0
CIRCLE
  5
1CB
330
1F
100
AcDbEntity
  8
Default
  6
Continuous
 62
     7
100
AcDbCircle
 10
436.4291313108
 20
368.2422436139
 30
0.0
 40
1.5
  0
CIRCLE
  5
1CC
330
1F
100
AcDbEntity
  8
Default
  6
Continuous
 62
     7
100
AcDbCircle
 10
436.4291313108
 20
359.2422436139
 30
0.0
 40
1.5
  0
CIRCLE
  5
1CD
330
1F
100
AcDbEntity
  8
Default
  6
Continuous
 62
     7
100
AcDbCircle
 10
436.4291313108
 20
350.2422436139
 30
0.0
 40
1.5
  0
CIRCLE
  5
1CE
330
1F
100
AcDbEntity
  8
Default
  6
Continuous
 62
     7
100
AcDbCircle
 10
436.4291313108
 20
341.2422436139
 30
0.0
 40
1.5
  0
CIRCLE
  5
1CF
330
1F
100
AcDbEntity
  8
Default
  6
Continuous
 62
     7
100
AcDbCircle
 10
436.4291313108
 20
332.2422436139
 30
0.0
 40
1.5
  0
CIRCLE
  5
1D0
330
1F
100
AcDbEntity
  8
Default
  6
Continuous
 62
     7
100
AcDbCircle
 10
436.4291313108
 20
323.2422436139
 30
0.0
 40
1.5
  0
CIRCLE
  5
1D1
330
1F
100
AcDbEntity
  8
Default
  6
Continuous
 62
     7
100
AcDbCircle
 10
436.4291313108
 20
314.2422436139
 30
0.0
 40
1.5
  0
CIRCLE
  5
1D2
330
1F
100
AcDbEntity
  8
Default
  6
Continuous
 62
     7
100
AcDbCircle
 10
436.4291313108
 20
305.2422436139
 30
0.0
 40
1.5
  0
CIRCLE
  5
1D3
330
1F
100
AcDbEntity
  8
Default
  6
Continuous
 62
     7
100
AcDbCircle
 10
445.4291313108
 20
467.2422436139
 30
0.0
 40
1.5
  0
CIRCLE
  5
1D4
330
1F
100
AcDbEntity
  8
Default
  6
Continuous
 62
     7
100
AcDbCircle
 10
445.4291313108
 20
458.2422436139
 30
0.0
 40
1.5
  0
CIRCLE
  5
1D5
330
1F
100
AcDbEntity
  8
Default
  6
Continuous
 62
     7
100
AcDbCircle
 10
445.4291313108
 20
449.2422436139
 30
0.0
 40
1.5
  0
CIRCLE
  5
1D6
330
1F
100
AcDbEntity
  8
Default
  6
Continuous
 62
     7
100
AcDbCircle
 10
445.4291313108
 20
440.2422436139
 30
0.0
 40
1.5
  0
CIRCLE
  5
1D7
330
1F
100
AcDbEntity
  8
Default
  6
Continuous
 62
     7
100
AcDbCircle
 10
445.4291313108
 20
431.2422436139
 30
0.0
 40
1.5
  0
CIRCLE
  5
1D8
330
1F
100
AcDbEntity
  8
Default
  6
Continuous
 62
     7
100
AcDbCircle
 10
445.4291313108
 20
422.2422436139
 30
0.0
 40
1.5
  0
CIRCLE
  5
1D9
330
1F
100
AcDbEntity
  8
Default
  6
Continuous
 62
     7
100
AcDbCircle
 10
445.4291313108
 20
413.2422436139
 30
0.0
 40
1.5
  0
CIRCLE
  5
1DA
330
1F
100
AcDbEntity
  8
Default
  6
Continuous
 62
     7
100
AcDbCircle
 10
445.4291313108
 20
404.2422436139
 30
0.0
 40
1.5
  0
CIRCLE
  5
1DB
330
1F
100
AcDbEntity
  8
Default
  6
Continuous
 62
     7
100
AcDbCircle
 10
445.4291313108
 20
395.2422436139
 30
0.0
 40
1.5
  0
CIRCLE
  5
1DC
330
1F
100
AcDbEntity
  8
Default
  6
Continuous
 62
     7
100
AcDbCircle
 10
445.4291313108
 20
386.2422436139
 30
0.0
 40
1.5
  0
CIRCLE
  5
1DD
330
1F
100
AcDbEntity
  8
Default
  6
Continuous
 62
     7
100
AcDbCircle
 10
445.4291313108
 20
377.2422436139
 30
0.0
 40
1.5
  0
CIRCLE
  5
1DE
330
1F
100
AcDbEntity
  8
Default
  6
Continuous
 62
     7
100
AcDbCircle
 10
445.4291313108
 20
368.2422436139
 30
0.0
 40
1.5
  0
CIRCLE
  5
1DF
330
1F
100
AcDbEntity
  8
Default
  6
Continuous
 62
     7
100
AcDbCircle
 10
445.4291313108
 20
359.2422436139
 30
0.0
 40
1.5
  0
CIRCLE
  5
1E0
330
1F
100
AcDbEntity
  8
Default
  6
Continuous
 62
     7
100
AcDbCircle
 10
445.4291313108
 20
350.2422436139
 30
0.0
 40
1.5
  0
CIRCLE
  5
1E1
330
1F
100
AcDbEntity
  8
Default
  6
Continuous
 62
     7
100
AcDbCircle
 10
445.4291313108
 20
341.2422436139
 30
0.0
 40
1.5
  0
CIRCLE
  5
1E2
330
1F
100
AcDbEntity
  8
Default
  6
Continuous
 62
     7
100
AcDbCircle
 10
445.4291313108
 20
332.2422436139
 30
0.0
 40
1.5
  0
CIRCLE
  5
1E3
330
1F
100
AcDbEntity
  8
Default
  6
Continuous
 62
     7
100
AcDbCircle
 10
445.4291313108
 20
323.2422436139
 30
0.0
 40
1.5
  0
CIRCLE
  5
1E4
330
1F
100
AcDbEntity
  8
Default
  6
Continuous
 62
     7
100
AcDbCircle
 10
445.4291313108
 20
314.2422436139
 30
0.0
 40
1.5
  0
CIRCLE
  5
1E5
330
1F
100
AcDbEntity
  8
Default
  6
Continuous
 62
     7
100
AcDbCircle
 10
445.4291313108
 20
305.2422436139
 30
0.0
 40
1.5
  0
CIRCLE
  5
1E6
330
1F
100
AcDbEntity
  8
Default
  6
Continuous
 62
     7
100
AcDbCircle
 10
454.4291313108
 20
467.2422436139
 30
0.0
 40
1.5
  0
CIRCLE
  5
1E7
330
1F
100
AcDbEntity
  8
Default
  6
Continuous
 62
     7
100
AcDbCircle
 10
454.4291313108
 20
458.2422436139
 30
0.0
 40
1.5
  0
CIRCLE
  5
1E8
330
1F
100
AcDbEntity
  8
Default
  6
Continuous
 62
     7
100
AcDbCircle
 10
454.4291313108
 20
449.2422436139
 30
0.0
 40
1.5
  0
CIRCLE
  5
1E9
330
1F
100
AcDbEntity
  8
Default
  6
Continuous
 62
     7
100
AcDbCircle
 10
454.4291313108
 20
440.2422436139
 30
0.0
 40
1.5
  0
CIRCLE
  5
1EA
330
1F
100
AcDbEntity
  8
Default
  6
Continuous
 62
     7
100
AcDbCircle
 10
454.4291313108
 20
431.2422436139
 30
0.0
 40
1.5
  0
CIRCLE
  5
1EB
330
1F
100
AcDbEntity
  8
Default
  6
Continuous
 62
     7
100
AcDbCircle
 10
454.4291313108
 20
422.2422436139
 30
0.0
 40
1.5
  0
CIRCLE
  5
1EC
330
1F
100
AcDbEntity
  8
Default
  6
Continuous
 62
     7
100
AcDbCircle
 10
454.4291313108
 20
413.2422436139
 30
0.0
 40
1.5
  0
CIRCLE
  5
1ED
330
1F
100
AcDbEntity
  8
Default
  6
Continuous
 62
     7
100
AcDbCircle
 10
454.4291313108
 20
404.2422436139
 30
0.0
 40
1.5
  0
CIRCLE
  5
1EE
330
1F
100
AcDbEntity
  8
Default
  6
Continuous
 62
     7
100
AcDbCircle
 10
454.4291313108
 20
395.2422436139
 30
0.0
 40
1.5
  0
CIRCLE
  5
1EF
330
1F
100
AcDbEntity
  8
Default
  6
Continuous
 62
     7
100
AcDbCircle
 10
454.4291313108
 20
386.2422436139
 30
0.0
 40
1.5
  0
CIRCLE
  5
1F0
330
1F
100
AcDbEntity
  8
Default
  6
Continuous
 62
     7
100
AcDbCircle
 10
454.4291313108
 20
377.2422436139
 30
0.0
 40
1.5
  0
CIRCLE
  5
1F1
330
1F
100
AcDbEntity
  8
Default
  6
Continuous
 62
     7
100
AcDbCircle
 10
454.4291313108
 20
368.2422436139
 30
0.0
 40
1.5
  0
CIRCLE
  5
1F2
330
1F
100
AcDbEntity
  8
Default
  6
Continuous
 62
     7
100
AcDbCircle
 10
454.4291313108
 20
359.2422436139
 30
0.0
 40
1.5
  0
CIRCLE
  5
1F3
330
1F
100
AcDbEntity
  8
Default
  6
Continuous
 62
     7
100
AcDbCircle
 10
454.4291313108
 20
350.2422436139
 30
0.0
 40
1.5
  0
CIRCLE
  5
1F4
330
1F
100
AcDbEntity
  8
Default
  6
Continuous
 62
     7
100
AcDbCircle
 10
454.4291313108
 20
341.2422436139
 30
0.0
 40
1.5
  0
CIRCLE
  5
1F5
330
1F
100
AcDbEntity
  8
Default
  6
Continuous
 62
     7
100
AcDbCircle
 10
454.4291313108
 20
332.2422436139
 30
0.0
 40
1.5
  0
CIRCLE
  5
1F6
330
1F
100
AcDbEntity
  8
Default
  6
Continuous
 62
     7
100
AcDbCircle
 10
454.4291313108
 20
323.2422436139
 30
0.0
 40
1.5
  0
CIRCLE
  5
1F7
330
1F
100
AcDbEntity
  8
Default
  6
Continuous
 62
     7
100
AcDbCircle
 10
454.4291313108
 20
314.2422436139
 30
0.0
 40
1.5
  0
CIRCLE
  5
1F8
330
1F
100
AcDbEntity
  8
Default
  6
Continuous
 62
     7
100
AcDbCircle
 10
454.4291313108
 20
305.2422436139
 30
0.0
 40
1.5
  0
CIRCLE
  5
1F9
330
1F
100
AcDbEntity
  8
Default
  6
Continuous
 62
     7
100
AcDbCircle
 10
463.4291313108
 20
467.2422436139
 30
0.0
 40
1.5
  0
CIRCLE
  5
1FA
330
1F
100
AcDbEntity
  8
Default
  6
Continuous
 62
     7
100
AcDbCircle
 10
463.4291313108
 20
458.2422436139
 30
0.0
 40
1.5
  0
CIRCLE
  5
1FB
330
1F
100
AcDbEntity
  8
Default
  6
Continuous
 62
     7
100
AcDbCircle
 10
463.4291313108
 20
449.2422436139
 30
0.0
 40
1.5
  0
CIRCLE
  5
1FC
330
1F
100
AcDbEntity
  8
Default
  6
Continuous
 62
     7
100
AcDbCircle
 10
463.4291313108
 20
440.2422436139
 30
0.0
 40
1.5
  0
CIRCLE
  5
1FD
330
1F
100
AcDbEntity
  8
Default
  6
Continuous
 62
     7
100
AcDbCircle
 10
463.4291313108
 20
431.2422436139
 30
0.0
 40
1.5
  0
CIRCLE
  5
1FE
330
1F
100
AcDbEntity
  8
Default
  6
Continuous
 62
     7
100
AcDbCircle
 10
463.4291313108
 20
422.2422436139
 30
0.0
 40
1.5
  0
CIRCLE
  5
1FF
330
1F
100
AcDbEntity
  8
Default
  6
Continuous
 62
     7
100
AcDbCircle
 10
463.4291313108
 20
413.2422436139
 30
0.0
 40
1.5
  0
CIRCLE
  5
200
330
1F
100
AcDbEntity
  8
Default
  6
Continuous
 62
     7
100
AcDbCircle
 10
463.4291313108
 20
404.2422436139
 30
0.0
 40
1.5
  0
CIRCLE
  5
201
330
1F
100
AcDbEntity
  8
Default
  6
Continuous
 62
     7
100
AcDbCircle
 10
463.4291313108
 20
395.2422436139
 30
0.0
 40
1.5
  0
CIRCLE
  5
202
330
1F
100
AcDbEntity
  8
Default
  6
Continuous
 62
     7
100
AcDbCircle
 10
463.4291313108
 20
386.2422436139
 30
0.0
 40
1.5
  0
CIRCLE
  5
203
330
1F
100
AcDbEntity
  8
Default
  6
Continuous
 62
     7
100
AcDbCircle
 10
463.4291313108
 20
377.2422436139
 30
0.0
 40
1.5
  0
CIRCLE
  5
204
330
1F
100
AcDbEntity
  8
Default
  6
Continuous
 62
     7
100
AcDbCircle
 10
463.4291313108
 20
368.2422436139
 30
0.0
 40
1.5
  0
CIRCLE
  5
205
330
1F
100
AcDbEntity
  8
Default
  6
Continuous
 62
     7
100
AcDbCircle
 10
463.4291313108
 20
359.2422436139
 30
0.0
 40
1.5
  0
CIRCLE
  5
206
330
1F
100
AcDbEntity
  8
Default
  6
Continuous
 62
     7
100
AcDbCircle
 10
463.4291313108
 20
350.2422436139
 30
0.0
 40
1.5
  0
CIRCLE
  5
207
330
1F
100
AcDbEntity
  8
Default
  6
Continuous
 62
     7
100
AcDbCircle
 10
463.4291313108
 20
341.2422436139
 30
0.0
 40
1.5
  0
CIRCLE
  5
208
330
1F
100
AcDbEntity
  8
Default
  6
Continuous
 62
     7
100
AcDbCircle
 10
463.4291313108
 20
332.2422436139
 30
0.0
 40
1.5
  0
CIRCLE
  5
209
330
1F
100
AcDbEntity
  8
Default
  6
Continuous
 62
     7
100
AcDbCircle
 10
463.4291313108
 20
323.2422436139
 30
0.0
 40
1.5
  0
CIRCLE
  5
20A
330
1F
100
AcDbEntity
  8
Default
  6
Continuous
 62
     7
100
AcDbCircle
 10
463.4291313108
 20
314.2422436139
 30
0.0
 40
1.5
  0
CIRCLE
  5
20B
330
1F
100
AcDbEntity
  8
Default
  6
Continuous
 62
     7
100
AcDbCircle
 10
463.4291313108
 20
305.2422436139
 30
0.0
 40
1.5
  0
CIRCLE
  5
20C
330
1F
100
AcDbEntity
  8
Default
  6
Continuous
 62
     7
100
AcDbCircle
 10
472.4291313108
 20
467.2422436139
 30
0.0
 40
1.5
  0
CIRCLE
  5
20D
330
1F
100
AcDbEntity
  8
Default
  6
Continuous
 62
     7
100
AcDbCircle
 10
472.4291313108
 20
458.2422436139
 30
0.0
 40
1.5
  0
CIRCLE
  5
20E
330
1F
100
AcDbEntity
  8
Default
  6
Continuous
 62
     7
100
AcDbCircle
 10
472.4291313108
 20
449.2422436139
 30
0.0
 40
1.5
  0
CIRCLE
  5
20F
330
1F
100
AcDbEntity
  8
Default
  6
Continuous
 62
     7
100
AcDbCircle
 10
472.4291313108
 20
440.2422436139
 30
0.0
 40
1.5
  0
CIRCLE
  5
210
330
1F
100
AcDbEntity
  8
Default
  6
Continuous
 62
     7
100
AcDbCircle
 10
472.4291313108
 20
431.2422436139
 30
0.0
 40
1.5
  0
CIRCLE
  5
211
330
1F
100
AcDbEntity
  8
Default
  6
Continuous
 62
     7
100
AcDbCircle
 10
472.4291313108
 20
422.2422436139
 30
0.0
 40
1.5
  0
CIRCLE
  5
212
330
1F
100
AcDbEntity
  8
Default
  6
Continuous
 62
     7
100
AcDbCircle
 10
472.4291313108
 20
413.2422436139
 30
0.0
 40
1.5
  0
CIRCLE
  5
213
330
1F
100
AcDbEntity
  8
Default
  6
Continuous
 62
     7
100
AcDbCircle
 10
472.4291313108
 20
404.2422436139
 30
0.0
 40
1.5
  0
CIRCLE
  5
214
330
1F
100
AcDbEntity
  8
Default
  6
Continuous
 62
     7
100
AcDbCircle
 10
472.4291313108
 20
395.2422436139
 30
0.0
 40
1.5
  0
CIRCLE
  5
215
330
1F
100
AcDbEntity
  8
Default
  6
Continuous
 62
     7
100
AcDbCircle
 10
472.4291313108
 20
386.2422436139
 30
0.0
 40
1.5
  0
CIRCLE
  5
216
330
1F
100
AcDbEntity
  8
Default
  6
Continuous
 62
     7
100
AcDbCircle
 10
472.4291313108
 20
377.2422436139
 30
0.0
 40
1.5
  0
CIRCLE
  5
217
330
1F
100
AcDbEntity
  8
Default
  6
Continuous
 62
     7
100
AcDbCircle
 10
472.4291313108
 20
368.2422436139
 30
0.0
 40
1.5
  0
CIRCLE
  5
218
330
1F
100
AcDbEntity
  8
Default
  6
Continuous
 62
     7
100
AcDbCircle
 10
472.4291313108
 20
359.2422436139
 30
0.0
 40
1.5
  0
CIRCLE
  5
219
330
1F
100
AcDbEntity
  8
Default
  6
Continuous
 62
     7
100
AcDbCircle
 10
472.4291313108
 20
350.2422436139
 30
0.0
 40
1.5
  0
CIRCLE
  5
21A
330
1F
100
AcDbEntity
  8
Default
  6
Continuous
 62
     7
100
AcDbCircle
 10
472.4291313108
 20
341.2422436139
 30
0.0
 40
1.5
  0
CIRCLE
  5
21B
330
1F
100
AcDbEntity
  8
Default
  6
Continuous
 62
     7
100
AcDbCircle
 10
472.4291313108
 20
332.2422436139
 30
0.0
 40
1.5
  0
CIRCLE
  5
21C
330
1F
100
AcDbEntity
  8
Default
  6
Continuous
 62
     7
100
AcDbCircle
 10
472.4291313108
 20
323.2422436139
 30
0.0
 40
1.5
  0
CIRCLE
  5
21D
330
1F
100
AcDbEntity
  8
Default
  6
Continuous
 62
     7
100
AcDbCircle
 10
472.4291313108
 20
314.2422436139
 30
0.0
 40
1.5
  0
CIRCLE
  5
21E
330
1F
100
AcDbEntity
  8
Default
  6
Continuous
 62
     7
100
AcDbCircle
 10
472.4291313108
 20
305.2422436139
 30
0.0
 40
1.5
  0
CIRCLE
  5
21F
330
1F
100
AcDbEntity
  8
Default
  6
Continuous
 62
     7
100
AcDbCircle
 10
481.4291313108
 20
467.2422436139
 30
0.0
 40
1.5
  0
CIRCLE
  5
220
330
1F
100
AcDbEntity
  8
Default
  6
Continuous
 62
     7
100
AcDbCircle
 10
481.4291313108
 20
458.2422436139
 30
0.0
 40
1.5
  0
CIRCLE
  5
221
330
1F
100
AcDbEntity
  8
Default
  6
Continuous
 62
     7
100
AcDbCircle
 10
481.4291313108
 20
449.2422436139
 30
0.0
 40
1.5
  0
CIRCLE
  5
222
330
1F
100
AcDbEntity
  8
Default
  6
Continuous
 62
     7
100
AcDbCircle
 10
481.4291313108
 20
440.2422436139
 30
0.0
 40
1.5
  0
CIRCLE
  5
223
330
1F
100
AcDbEntity
  8
Default
  6
Continuous
 62
     7
100
AcDbCircle
 10
481.4291313108
 20
431.2422436139
 30
0.0
 40
1.5
  0
CIRCLE
  5
224
330
1F
100
AcDbEntity
  8
Default
  6
Continuous
 62
     7
100
AcDbCircle
 10
481.4291313108
 20
422.2422436139
 30
0.0
 40
1.5
  0
CIRCLE
  5
225
330
1F
100
AcDbEntity
  8
Default
  6
Continuous
 62
     7
100
AcDbCircle
 10
481.4291313108
 20
413.2422436139
 30
0.0
 40
1.5
  0
CIRCLE
  5
226
330
1F
100
AcDbEntity
  8
Default
  6
Continuous
 62
     7
100
AcDbCircle
 10
481.4291313108
 20
404.2422436139
 30
0.0
 40
1.5
  0
CIRCLE
  5
227
330
1F
100
AcDbEntity
  8
Default
  6
Continuous
 62
     7
100
AcDbCircle
 10
481.4291313108
 20
395.2422436139
 30
0.0
 40
1.5
  0
CIRCLE
  5
228
330
1F
100
AcDbEntity
  8
Default
  6
Continuous
 62
     7
100
AcDbCircle
 10
481.4291313108
 20
386.2422436139
 30
0.0
 40
1.5
  0
CIRCLE
  5
229
330
1F
100
AcDbEntity
  8
Default
  6
Continuous
 62
     7
100
AcDbCircle
 10
481.4291313108
 20
377.2422436139
 30
0.0
 40
1.5
  0
CIRCLE
  5
22A
330
1F
100
AcDbEntity
  8
Default
  6
Continuous
 62
     7
100
AcDbCircle
 10
481.4291313108
 20
368.2422436139
 30
0.0
 40
1.5
  0
CIRCLE
  5
22B
330
1F
100
AcDbEntity
  8
Default
  6
Continuous
 62
     7
100
AcDbCircle
 10
481.4291313108
 20
359.2422436139
 30
0.0
 40
1.5
  0
CIRCLE
  5
22C
330
1F
100
AcDbEntity
  8
Default
  6
Continuous
 62
     7
100
AcDbCircle
 10
481.4291313108
 20
350.2422436139
 30
0.0
 40
1.5
  0
CIRCLE
  5
22D
330
1F
100
AcDbEntity
  8
Default
  6
Continuous
 62
     7
100
AcDbCircle
 10
481.4291313108
 20
341.2422436139
 30
0.0
 40
1.5
  0
CIRCLE
  5
22E
330
1F
100
AcDbEntity
  8
Default
  6
Continuous
 62
     7
100
AcDbCircle
 10
481.4291313108
 20
332.2422436139
 30
0.0
 40
1.5
  0
CIRCLE
  5
22F
330
1F
100
AcDbEntity
  8
Default
  6
Continuous
 62
     7
100
AcDbCircle
 10
481.4291313108
 20
323.2422436139
 30
0.0
 40
1.5
  0
CIRCLE
  5
230
330
1F
100
AcDbEntity
  8
Default
  6
Continuous
 62
     7
100
AcDbCircle
 10
481.4291313108
 20
314.2422436139
 30
0.0
 40
1.5
  0
CIRCLE
  5
231
330
1F
100
AcDbEntity
  8
Default
  6
Continuous
 62
     7
100
AcDbCircle
 10
481.4291313108
 20
305.2422436139
 30
0.0
 40
1.5
  0
CIRCLE
  5
232
330
1F
100
AcDbEntity
  8
Default
  6
Continuous
 62
     7
100
AcDbCircle
 10
490.4291313108
 20
467.2422436139
 30
0.0
 40
1.5
  0
CIRCLE
  5
233
330
1F
100
AcDbEntity
  8
Default
  6
Continuous
 62
     7
100
AcDbCircle
 10
490.4291313108
 20
458.2422436139
 30
0.0
 40
1.5
  0
CIRCLE
  5
234
330
1F
100
AcDbEntity
  8
Default
  6
Continuous
 62
     7
100
AcDbCircle
 10
490.4291313108
 20
449.2422436139
 30
0.0
 40
1.5
  0
CIRCLE
  5
235
330
1F
100
AcDbEntity
  8
Default
  6
Continuous
 62
     7
100
AcDbCircle
 10
490.4291313108
 20
440.2422436139
 30
0.0
 40
1.5
  0
CIRCLE
  5
236
330
1F
100
AcDbEntity
  8
Default
  6
Continuous
 62
     7
100
AcDbCircle
 10
490.4291313108
 20
431.2422436139
 30
0.0
 40
1.5
  0
CIRCLE
  5
237
330
1F
100
AcDbEntity
  8
Default
  6
Continuous
 62
     7
100
AcDbCircle
 10
490.4291313108
 20
422.2422436139
 30
0.0
 40
1.5
  0
CIRCLE
  5
238
330
1F
100
AcDbEntity
  8
Default
  6
Continuous
 62
     7
100
AcDbCircle
 10
490.4291313108
 20
413.2422436139
 30
0.0
 40
1.5
  0
CIRCLE
  5
239
330
1F
100
AcDbEntity
  8
Default
  6
Continuous
 62
     7
100
AcDbCircle
 10
490.4291313108
 20
404.2422436139
 30
0.0
 40
1.5
  0
CIRCLE
  5
23A
330
1F
100
AcDbEntity
  8
Default
  6
Continuous
 62
     7
100
AcDbCircle
 10
490.4291313108
 20
395.2422436139
 30
0.0
 40
1.5
  0
CIRCLE
  5
23B
330
1F
100
AcDbEntity
  8
Default
  6
Continuous
 62
     7
100
AcDbCircle
 10
490.4291313108
 20
386.2422436139
 30
0.0
 40
1.5
  0
CIRCLE
  5
23C
330
1F
100
AcDbEntity
  8
Default
  6
Continuous
 62
     7
100
AcDbCircle
 10
490.4291313108
 20
377.2422436139
 30
0.0
 40
1.5
  0
CIRCLE
  5
23D
330
1F
100
AcDbEntity
  8
Default
  6
Continuous
 62
     7
100
AcDbCircle
 10
490.4291313108
 20
368.2422436139
 30
0.0
 40
1.5
  0
CIRCLE
  5
23E
330
1F
100
AcDbEntity
  8
Default
  6
Continuous
 62
     7
100
AcDbCircle
 10
490.4291313108
 20
359.2422436139
 30
0.0
 40
1.5
  0
CIRCLE
  5
23F
330
1F
100
AcDbEntity
  8
Default
  6
Continuous
 62
     7
100
AcDbCircle
 10
490.4291313108
 20
350.2422436139
 30
0.0
 40
1.5
  0
CIRCLE
  5
240
330
1F
100
AcDbEntity
  8
Default
  6
Continuous
 62
     7
100
AcDbCircle
 10
490.4291313108
 20
341.2422436139
 30
0.0
 40
1.5
  0
CIRCLE
  5
241
330
1F
100
AcDbEntity
  8
Default
  6
Continuous
 62
     7
100
AcDbCircle
 10
490.4291313108
 20
332.2422436139
 30
0.0
 40
1.5
  0
CIRCLE
  5
242
330
1F
100
AcDbEntity
  8
Default
  6
Continuous
 62
     7
100
AcDbCircle
 10
490.4291313108
 20
323.2422436139
 30
0.0
 40
1.5
  0
CIRCLE
  5
243
330
1F
100
AcDbEntity
  8
Default
  6
Continuous
 62
     7
100
AcDbCircle
 10
490.4291313108
 20
314.2422436139
 30
0.0
 40
1.5
  0
CIRCLE
  5
244
330
1F
100
AcDbEntity
  8
Default
  6
Continuous
 62
     7
100
AcDbCircle
 10
490.4291313108
 20
305.2422436139
 30
0.0
 40
1.5
  0
CIRCLE
  5
245
330
1F
100
AcDbEntity
  8
Default
  6
Continuous
 62
     7
100
AcDbCircle
 10
499.4291313108
 20
467.2422436139
 30
0.0
 40
1.5
  0
CIRCLE
  5
246
330
1F
100
AcDbEntity
  8
Default
  6
Continuous
 62
     7
100
AcDbCircle
 10
499.4291313108
 20
458.2422436139
 30
0.0
 40
1.5
  0
CIRCLE
  5
247
330
1F
100
AcDbEntity
  8
Default
  6
Continuous
 62
     7
100
AcDbCircle
 10
499.4291313108
 20
449.2422436139
 30
0.0
 40
1.5
  0
CIRCLE
  5
248
330
1F
100
AcDbEntity
  8
Default
  6
Continuous
 62
     7
100
AcDbCircle
 10
499.4291313108
 20
440.2422436139
 30
0.0
 40
1.5
  0
CIRCLE
  5
249
330
1F
100
AcDbEntity
  8
Default
  6
Continuous
 62
     7
100
AcDbCircle
 10
499.4291313108
 20
431.2422436139
 30
0.0
 40
1.5
  0
CIRCLE
  5
24A
330
1F
100
AcDbEntity
  8
Default
  6
Continuous
 62
     7
100
AcDbCircle
 10
499.4291313108
 20
422.2422436139
 30
0.0
 40
1.5
  0
CIRCLE
  5
24B
330
1F
100
AcDbEntity
  8
Default
  6
Continuous
 62
     7
100
AcDbCircle
 10
499.4291313108
 20
413.2422436139
 30
0.0
 40
1.5
  0
CIRCLE
  5
24C
330
1F
100
AcDbEntity
  8
Default
  6
Continuous
 62
     7
100
AcDbCircle
 10
499.4291313108
 20
404.2422436139
 30
0.0
 40
1.5
  0
CIRCLE
  5
24D
330
1F
100
AcDbEntity
  8
Default
  6
Continuous
 62
     7
100
AcDbCircle
 10
499.4291313108
 20
395.2422436139
 30
0.0
 40
1.5
  0
CIRCLE
  5
24E
330
1F
100
AcDbEntity
  8
Default
  6
Continuous
 62
     7
100
AcDbCircle
 10
499.4291313108
 20
386.2422436139
 30
0.0
 40
1.5
  0
CIRCLE
  5
24F
330
1F
100
AcDbEntity
  8
Default
  6
Continuous
 62
     7
100
AcDbCircle
 10
499.4291313108
 20
377.2422436139
 30
0.0
 40
1.5
  0
CIRCLE
  5
250
330
1F
100
AcDbEntity
  8
Default
  6
Continuous
 62
     7
100
AcDbCircle
 10
499.4291313108
 20
368.2422436139
 30
0.0
 40
1.5
  0
CIRCLE
  5
251
330
1F
100
AcDbEntity
  8
Default
  6
Continuous
 62
     7
100
AcDbCircle
 10
499.4291313108
 20
359.2422436139
 30
0.0
 40
1.5
  0
CIRCLE
  5
252
330
1F
100
AcDbEntity
  8
Default
  6
Continuous
 62
     7
100
AcDbCircle
 10
499.4291313108
 20
350.2422436139
 30
0.0
 40
1.5
  0
CIRCLE
  5
253
330
1F
100
AcDbEntity
  8
Default
  6
Continuous
 62
     7
100
AcDbCircle
 10
499.4291313108
 20
341.2422436139
 30
0.0
 40
1.5
  0
CIRCLE
  5
254
330
1F
100
AcDbEntity
  8
Default
  6
Continuous
 62
     7
100
AcDbCircle
 10
499.4291313108
 20
332.2422436139
 30
0.0
 40
1.5
  0
CIRCLE
  5
255
330
1F
100
AcDbEntity
  8
Default
  6
Continuous
 62
     7
100
AcDbCircle
 10
499.4291313108
 20
323.2422436139
 30
0.0
 40
1.5
  0
CIRCLE
  5
256
330
1F
100
AcDbEntity
  8
Default
  6
Continuous
 62
     7
100
AcDbCircle
 10
499.4291313108
 20
314.2422436139
 30
0.0
 40
1.5
  0
CIRCLE
  5
257
330
1F
100
AcDbEntity
  8
Default
  6
Continuous
 62
     7
100
AcDbCircle
 10
499.4291313108
 20
305.2422436139
 30
0.0
 40
1.5
  0
CIRCLE
  5
258
330
1F
100
AcDbEntity
  8
Default
  6
Continuous
 62
     7
100
AcDbCircle
 10
508.4291313108
 20
467.2422436139
 30
0.0
 40
1.5
  0
CIRCLE
  5
259
330
1F
100
AcDbEntity
  8
Default
  6
Continuous
 62
     7
100
AcDbCircle
 10
508.4291313108
 20
458.2422436139
 30
0.0
 40
1.5
  0
CIRCLE
  5
25A
330
1F
100
AcDbEntity
  8
Default
  6
Continuous
 62
     7
100
AcDbCircle
 10
508.4291313108
 20
449.2422436139
 30
0.0
 40
1.5
  0
CIRCLE
  5
25B
330
1F
100
AcDbEntity
  8
Default
  6
Continuous
 62
     7
100
AcDbCircle
 10
508.4291313108
 20
440.2422436139
 30
0.0
 40
1.5
  0
CIRCLE
  5
25C
330
1F
100
AcDbEntity
  8
Default
  6
Continuous
 62
     7
100
AcDbCircle
 10
508.4291313108
 20
431.2422436139
 30
0.0
 40
1.5
  0
CIRCLE
  5
25D
330
1F
100
AcDbEntity
  8
Default
  6
Continuous
 62
     7
100
AcDbCircle
 10
508.4291313108
 20
422.2422436139
 30
0.0
 40
1.5
  0
CIRCLE
  5
25E
330
1F
100
AcDbEntity
  8
Default
  6
Continuous
 62
     7
100
AcDbCircle
 10
508.4291313108
 20
413.2422436139
 30
0.0
 40
1.5
  0
CIRCLE
  5
25F
330
1F
100
AcDbEntity
  8
Default
  6
Continuous
 62
     7
100
AcDbCircle
 10
508.4291313108
 20
404.2422436139
 30
0.0
 40
1.5
  0
CIRCLE
  5
260
330
1F
100
AcDbEntity
  8
Default
  6
Continuous
 62
     7
100
AcDbCircle
 10
508.4291313108
 20
395.2422436139
 30
0.0
 40
1.5
  0
CIRCLE
  5
261
330
1F
100
AcDbEntity
  8
Default
  6
Continuous
 62
     7
100
AcDbCircle
 10
508.4291313108
 20
386.2422436139
 30
0.0
 40
1.5
  0
CIRCLE
  5
262
330
1F
100
AcDbEntity
  8
Default
  6
Continuous
 62
     7
100
AcDbCircle
 10
508.4291313108
 20
377.2422436139
 30
0.0
 40
1.5
  0
CIRCLE
  5
263
330
1F
100
AcDbEntity
  8
Default
  6
Continuous
 62
     7
100
AcDbCircle
 10
508.4291313108
 20
368.2422436139
 30
0.0
 40
1.5
  0
CIRCLE
  5
264
330
1F
100
AcDbEntity
  8
Default
  6
Continuous
 62
     7
100
AcDbCircle
 10
508.4291313108
 20
359.2422436139
 30
0.0
 40
1.5
  0
CIRCLE
  5
265
330
1F
100
AcDbEntity
  8
Default
  6
Continuous
 62
     7
100
AcDbCircle
 10
508.4291313108
 20
350.2422436139
 30
0.0
 40
1.5
  0
CIRCLE
  5
266
330
1F
100
AcDbEntity
  8
Default
  6
Continuous
 62
     7
100
AcDbCircle
 10
508.4291313108
 20
341.2422436139
 30
0.0
 40
1.5
  0
CIRCLE
  5
267
330
1F
100
AcDbEntity
  8
Default
  6
Continuous
 62
     7
100
AcDbCircle
 10
508.4291313108
 20
332.2422436139
 30
0.0
 40
1.5
  0
CIRCLE
  5
268
330
1F
100
AcDbEntity
  8
Default
  6
Continuous
 62
     7
100
AcDbCircle
 10
508.4291313108
 20
323.2422436139
 30
0.0
 40
1.5
  0
CIRCLE
  5
269
330
1F
100
AcDbEntity
  8
Default
  6
Continuous
 62
     7
100
AcDbCircle
 10
508.4291313108
 20
314.2422436139
 30
0.0
 40
1.5
  0
CIRCLE
  5
26A
330
1F
100
AcDbEntity
  8
Default
  6
Continuous
 62
     7
100
AcDbCircle
 10
508.4291313108
 20
305.2422436139
 30
0.0
 40
1.5
  0
CIRCLE
  5
26B
330
1F
100
AcDbEntity
  8
Default
  6
Continuous
 62
     7
100
AcDbCircle
 10
517.4291313108
 20
467.2422436139
 30
0.0
 40
1.5
  0
CIRCLE
  5
26C
330
1F
100
AcDbEntity
  8
Default
  6
Continuous
 62
     7
100
AcDbCircle
 10
517.4291313108
 20
458.2422436139
 30
0.0
 40
1.5
  0
CIRCLE
  5
26D
330
1F
100
AcDbEntity
  8
Default
  6
Continuous
 62
     7
100
AcDbCircle
 10
517.4291313108
 20
449.2422436139
 30
0.0
 40
1.5
  0
CIRCLE
  5
26E
330
1F
100
AcDbEntity
  8
Default
  6
Continuous
 62
     7
100
AcDbCircle
 10
517.4291313108
 20
440.2422436139
 30
0.0
 40
1.5
  0
CIRCLE
  5
26F
330
1F
100
AcDbEntity
  8
Default
  6
Continuous
 62
     7
100
AcDbCircle
 10
517.4291313108
 20
431.2422436139
 30
0.0
 40
1.5
  0
CIRCLE
  5
270
330
1F
100
AcDbEntity
  8
Default
  6
Continuous
 62
     7
100
AcDbCircle
 10
517.4291313108
 20
422.2422436139
 30
0.0
 40
1.5
  0
CIRCLE
  5
271
330
1F
100
AcDbEntity
  8
Default
  6
Continuous
 62
     7
100
AcDbCircle
 10
517.4291313108
 20
413.2422436139
 30
0.0
 40
1.5
  0
CIRCLE
  5
272
330
1F
100
AcDbEntity
  8
Default
  6
Continuous
 62
     7
100
AcDbCircle
 10
517.4291313108
 20
404.2422436139
 30
0.0
 40
1.5
  0
CIRCLE
  5
273
330
1F
100
AcDbEntity
  8
Default
  6
Continuous
 62
     7
100
AcDbCircle
 10
517.4291313108
 20
395.2422436139
 30
0.0
 40
1.5
  0
CIRCLE
  5
274
330
1F
100
AcDbEntity
  8
Default
  6
Continuous
 62
     7
100
AcDbCircle
 10
517.4291313108
 20
386.2422436139
 30
0.0
 40
1.5
  0
CIRCLE
  5
275
330
1F
100
AcDbEntity
  8
Default
  6
Continuous
 62
     7
100
AcDbCircle
 10
517.4291313108
 20
377.2422436139
 30
0.0
 40
1.5
  0
CIRCLE
  5
276
330
1F
100
AcDbEntity
  8
Default
  6
Continuous
 62
     7
100
AcDbCircle
 10
517.4291313108
 20
368.2422436139
 30
0.0
 40
1.5
  0
CIRCLE
  5
277
330
1F
100
AcDbEntity
  8
Default
  6
Continuous
 62
     7
100
AcDbCircle
 10
517.4291313108
 20
359.2422436139
 30
0.0
 40
1.5
  0
CIRCLE
  5
278
330
1F
100
AcDbEntity
  8
Default
  6
Continuous
 62
     7
100
AcDbCircle
 10
517.4291313108
 20
350.2422436139
 30
0.0
 40
1.5
  0
CIRCLE
  5
279
330
1F
100
AcDbEntity
  8
Default
  6
Continuous
 62
     7
100
AcDbCircle
 10
517.4291313108
 20
341.2422436139
 30
0.0
 40
1.5
  0
CIRCLE
  5
27A
330
1F
100
AcDbEntity
  8
Default
  6
Continuous
 62
     7
100
AcDbCircle
 10
517.4291313108
 20
332.2422436139
 30
0.0
 40
1.5
  0
CIRCLE
  5
27B
330
1F
100
AcDbEntity
  8
Default
  6
Continuous
 62
     7
100
AcDbCircle
 10
517.4291313108
 20
323.2422436139
 30
0.0
 40
1.5
  0
CIRCLE
  5
27C
330
1F
100
AcDbEntity
  8
Default
  6
Continuous
 62
     7
100
AcDbCircle
 10
517.4291313108
 20
314.2422436139
 30
0.0
 40
1.5
  0
CIRCLE
  5
27D
330
1F
100
AcDbEntity
  8
Default
  6
Continuous
 62
     7
100
AcDbCircle
 10
517.4291313108
 20
305.2422436139
 30
0.0
 40
1.5
  0
CIRCLE
  5
27E
330
1F
100
AcDbEntity
  8
Default
  6
Continuous
 62
     7
100
AcDbCircle
 10
256.4291313108
 20
296.2422436139
 30
0.0
 40
1.5
  0
CIRCLE
  5
27F
330
1F
100
AcDbEntity
  8
Default
  6
Continuous
 62
     7
100
AcDbCircle
 10
256.4291313108
 20
287.2422436139
 30
0.0
 40
1.5
  0
CIRCLE
  5
280
330
1F
100
AcDbEntity
  8
Default
  6
Continuous
 62
     7
100
AcDbCircle
 10
256.4291313108
 20
278.2422436139
 30
0.0
 40
1.5
  0
CIRCLE
  5
281
330
1F
100
AcDbEntity
  8
Default
  6
Continuous
 62
     7
100
AcDbCircle
 10
265.4291313108
 20
296.2422436139
 30
0.0
 40
1.5
  0
CIRCLE
  5
282
330
1F
100
AcDbEntity
  8
Default
  6
Continuous
 62
     7
100
AcDbCircle
 10
265.4291313108
 20
287.2422436139
 30
0.0
 40
1.5
  0
CIRCLE
  5
283
330
1F
100
AcDbEntity
  8
Default
  6
Continuous
 62
     7
100
AcDbCircle
 10
265.4291313108
 20
278.2422436139
 30
0.0
 40
1.5
  0
CIRCLE
  5
284
330
1F
100
AcDbEntity
  8
Default
  6
Continuous
 62
     7
100
AcDbCircle
 10
274.4291313108
 20
296.2422436139
 30
0.0
 40
1.5
  0
CIRCLE
  5
285
330
1F
100
AcDbEntity
  8
Default
  6
Continuous
 62
     7
100
AcDbCircle
 10
274.4291313108
 20
287.2422436139
 30
0.0
 40
1.5
  0
CIRCLE
  5
286
330
1F
100
AcDbEntity
  8
Default
  6
Continuous
 62
     7
100
AcDbCircle
 10
274.4291313108
 20
278.2422436139
 30
0.0
 40
1.5
  0
CIRCLE
  5
287
330
1F
100
AcDbEntity
  8
Default
  6
Continuous
 62
     7
100
AcDbCircle
 10
283.4291313108
 20
296.2422436139
 30
0.0
 40
1.5
  0
CIRCLE
  5
288
330
1F
100
AcDbEntity
  8
Default
  6
Continuous
 62
     7
100
AcDbCircle
 10
283.4291313108
 20
287.2422436139
 30
0.0
 40
1.5
  0
CIRCLE
  5
289
330
1F
100
AcDbEntity
  8
Default
  6
Continuous
 62
     7
100
AcDbCircle
 10
283.4291313108
 20
278.2422436139
 30
0.0
 40
1.5
  0
CIRCLE
  5
28A
330
1F
100
AcDbEntity
  8
Default
  6
Continuous
 62
     7
100
AcDbCircle
 10
292.4291313108
 20
296.2422436139
 30
0.0
 40
1.5
  0
CIRCLE
  5
28B
330
1F
100
AcDbEntity
  8
Default
  6
Continuous
 62
     7
100
AcDbCircle
 10
292.4291313108
 20
287.2422436139
 30
0.0
 40
1.5
  0
CIRCLE
  5
28C
330
1F
100
AcDbEntity
  8
Default
  6
Continuous
 62
     7
100
AcDbCircle
 10
292.4291313108
 20
278.2422436139
 30
0.0
 40
1.5
  0
CIRCLE
  5
28D
330
1F
100
AcDbEntity
  8
Default
  6
Continuous
 62
     7
100
AcDbCircle
 10
301.4291313108
 20
296.2422436139
 30
0.0
 40
1.5
  0
CIRCLE
  5
28E
330
1F
100
AcDbEntity
  8
Default
  6
Continuous
 62
     7
100
AcDbCircle
 10
301.4291313108
 20
287.2422436139
 30
0.0
 40
1.5
  0
CIRCLE
  5
28F
330
1F
100
AcDbEntity
  8
Default
  6
Continuous
 62
     7
100
AcDbCircle
 10
301.4291313108
 20
278.2422436139
 30
0.0
 40
1.5
  0
CIRCLE
  5
290
330
1F
100
AcDbEntity
  8
Default
  6
Continuous
 62
     7
100
AcDbCircle
 10
310.4291313108
 20
296.2422436139
 30
0.0
 40
1.5
  0
CIRCLE
  5
291
330
1F
100
AcDbEntity
  8
Default
  6
Continuous
 62
     7
100
AcDbCircle
 10
310.4291313108
 20
287.2422436139
 30
0.0
 40
1.5
  0
CIRCLE
  5
292
330
1F
100
AcDbEntity
  8
Default
  6
Continuous
 62
     7
100
AcDbCircle
 10
310.4291313108
 20
278.2422436139
 30
0.0
 40
1.5
  0
CIRCLE
  5
293
330
1F
100
AcDbEntity
  8
Default
  6
Continuous
 62
     7
100
AcDbCircle
 10
319.4291313108
 20
296.2422436139
 30
0.0
 40
1.5
  0
CIRCLE
  5
294
330
1F
100
AcDbEntity
  8
Default
  6
Continuous
 62
     7
100
AcDbCircle
 10
319.4291313108
 20
287.2422436139
 30
0.0
 40
1.5
  0
CIRCLE
  5
295
330
1F
100
AcDbEntity
  8
Default
  6
Continuous
 62
     7
100
AcDbCircle
 10
319.4291313108
 20
278.2422436139
 30
0.0
 40
1.5
  0
CIRCLE
  5
296
330
1F
100
AcDbEntity
  8
Default
  6
Continuous
 62
     7
100
AcDbCircle
 10
328.4291313108
 20
296.2422436139
 30
0.0
 40
1.5
  0
CIRCLE
  5
297
330
1F
100
AcDbEntity
  8
Default
  6
Continuous
 62
     7
100
AcDbCircle
 10
328.4291313108
 20
287.2422436139
 30
0.0
 40
1.5
  0
CIRCLE
  5
298
330
1F
100
AcDbEntity
  8
Default
  6
Continuous
 62
     7
100
AcDbCircle
 10
328.4291313108
 20
278.2422436139
 30
0.0
 40
1.5
  0
CIRCLE
  5
299
330
1F
100
AcDbEntity
  8
Default
  6
Continuous
 62
     7
100
AcDbCircle
 10
337.4291313108
 20
296.2422436139
 30
0.0
 40
1.5
  0
CIRCLE
  5
29A
330
1F
100
AcDbEntity
  8
Default
  6
Continuous
 62
     7
100
AcDbCircle
 10
337.4291313108
 20
287.2422436139
 30
0.0
 40
1.5
  0
CIRCLE
  5
29B
330
1F
100
AcDbEntity
  8
Default
  6
Continuous
 62
     7
100
AcDbCircle
 10
337.4291313108
 20
278.2422436139
 30
0.0
 40
1.5
  0
CIRCLE
  5
29C
330
1F
100
AcDbEntity
  8
Default
  6
Continuous
 62
     7
100
AcDbCircle
 10
346.4291313108
 20
296.2422436139
 30
0.0
 40
1.5
  0
CIRCLE
  5
29D
330
1F
100
AcDbEntity
  8
Default
  6
Continuous
 62
     7
100
AcDbCircle
 10
346.4291313108
 20
287.2422436139
 30
0.0
 40
1.5
  0
CIRCLE
  5
29E
330
1F
100
AcDbEntity
  8
Default
  6
Continuous
 62
     7
100
AcDbCircle
 10
346.4291313108
 20
278.2422436139
 30
0.0
 40
1.5
  0
CIRCLE
  5
29F
330
1F
100
AcDbEntity
  8
Default
  6
Continuous
 62
     7
100
AcDbCircle
 10
355.4291313108
 20
296.2422436139
 30
0.0
 40
1.5
  0
CIRCLE
  5
2A0
330
1F
100
AcDbEntity
  8
Default
  6
Continuous
 62
     7
100
AcDbCircle
 10
355.4291313108
 20
287.2422436139
 30
0.0
 40
1.5
  0
CIRCLE
  5
2A1
330
1F
100
AcDbEntity
  8
Default
  6
Continuous
 62
     7
100
AcDbCircle
 10
355.4291313108
 20
278.2422436139
 30
0.0
 40
1.5
  0
CIRCLE
  5
2A2
330
1F
100
AcDbEntity
  8
Default
  6
Continuous
 62
     7
100
AcDbCircle
 10
364.4291313108
 20
296.2422436139
 30
0.0
 40
1.5
  0
CIRCLE
  5
2A3
330
1F
100
AcDbEntity
  8
Default
  6
Continuous
 62
     7
100
AcDbCircle
 10
364.4291313108
 20
287.2422436139
 30
0.0
 40
1.5
  0
CIRCLE
  5
2A4
330
1F
100
AcDbEntity
  8
Default
  6
Continuous
 62
     7
100
AcDbCircle
 10
364.4291313108
 20
278.2422436139
 30
0.0
 40
1.5
  0
CIRCLE
  5
2A5
330
1F
100
AcDbEntity
  8
Default
  6
Continuous
 62
     7
100
AcDbCircle
 10
373.4291313108
 20
296.2422436139
 30
0.0
 40
1.5
  0
CIRCLE
  5
2A6
330
1F
100
AcDbEntity
  8
Default
  6
Continuous
 62
     7
100
AcDbCircle
 10
373.4291313108
 20
287.2422436139
 30
0.0
 40
1.5
  0
CIRCLE
  5
2A7
330
1F
100
AcDbEntity
  8
Default
  6
Continuous
 62
     7
100
AcDbCircle
 10
373.4291313108
 20
278.2422436139
 30
0.0
 40
1.5
  0
CIRCLE
  5
2A8
330
1F
100
AcDbEntity
  8
Default
  6
Continuous
 62
     7
100
AcDbCircle
 10
382.4291313108
 20
296.2422436139
 30
0.0
 40
1.5
  0
CIRCLE
  5
2A9
330
1F
100
AcDbEntity
  8
Default
  6
Continuous
 62
     7
100
AcDbCircle
 10
382.4291313108
 20
287.2422436139
 30
0.0
 40
1.5
  0
CIRCLE
  5
2AA
330
1F
100
AcDbEntity
  8
Default
  6
Continuous
 62
     7
100
AcDbCircle
 10
382.4291313108
 20
278.2422436139
 30
0.0
 40
1.5
  0
CIRCLE
  5
2AB
330
1F
100
AcDbEntity
  8
Default
  6
Continuous
 62
     7
100
AcDbCircle
 10
391.4291313108
 20
296.2422436139
 30
0.0
 40
1.5
  0
CIRCLE
  5
2AC
330
1F
100
AcDbEntity
  8
Default
  6
Continuous
 62
     7
100
AcDbCircle
 10
391.4291313108
 20
287.2422436139
 30
0.0
 40
1.5
  0
CIRCLE
  5
2AD
330
1F
100
AcDbEntity
  8
Default
  6
Continuous
 62
     7
100
AcDbCircle
 10
391.4291313108
 20
278.2422436139
 30
0.0
 40
1.5
  0
CIRCLE
  5
2AE
330
1F
100
AcDbEntity
  8
Default
  6
Continuous
 62
     7
100
AcDbCircle
 10
400.4291313108
 20
296.2422436139
 30
0.0
 40
1.5
  0
CIRCLE
  5
2AF
330
1F
100
AcDbEntity
  8
Default
  6
Continuous
 62
     7
100
AcDbCircle
 10
400.4291313108
 20
287.2422436139
 30
0.0
 40
1.5
  0
CIRCLE
  5
2B0
330
1F
100
AcDbEntity
  8
Default
  6
Continuous
 62
     7
100
AcDbCircle
 10
400.4291313108
 20
278.2422436139
 30
0.0
 40
1.5
  0
CIRCLE
  5
2B1
330
1F
100
AcDbEntity
  8
Default
  6
Continuous
 62
     7
100
AcDbCircle
 10
409.4291313108
 20
296.2422436139
 30
0.0
 40
1.5
  0
CIRCLE
  5
2B2
330
1F
100
AcDbEntity
  8
Default
  6
Continuous
 62
     7
100
AcDbCircle
 10
409.4291313108
 20
287.2422436139
 30
0.0
 40
1.5
  0
CIRCLE
  5
2B3
330
1F
100
AcDbEntity
  8
Default
  6
Continuous
 62
     7
100
AcDbCircle
 10
409.4291313108
 20
278.2422436139
 30
0.0
 40
1.5
  0
CIRCLE
  5
2B4
330
1F
100
AcDbEntity
  8
Default
  6
Continuous
 62
     7
100
AcDbCircle
 10
418.4291313108
 20
296.2422436139
 30
0.0
 40
1.5
  0
CIRCLE
  5
2B5
330
1F
100
AcDbEntity
  8
Default
  6
Continuous
 62
     7
100
AcDbCircle
 10
418.4291313108
 20
287.2422436139
 30
0.0
 40
1.5
  0
CIRCLE
  5
2B6
330
1F
100
AcDbEntity
  8
Default
  6
Continuous
 62
     7
100
AcDbCircle
 10
418.4291313108
 20
278.2422436139
 30
0.0
 40
1.5
  0
CIRCLE
  5
2B7
330
1F
100
AcDbEntity
  8
Default
  6
Continuous
 62
     7
100
AcDbCircle
 10
427.4291313108
 20
296.2422436139
 30
0.0
 40
1.5
  0
CIRCLE
  5
2B8
330
1F
100
AcDbEntity
  8
Default
  6
Continuous
 62
     7
100
AcDbCircle
 10
427.4291313108
 20
287.2422436139
 30
0.0
 40
1.5
  0
CIRCLE
  5
2B9
330
1F
100
AcDbEntity
  8
Default
  6
Continuous
 62
     7
100
AcDbCircle
 10
427.4291313108
 20
278.2422436139
 30
0.0
 40
1.5
  0
CIRCLE
  5
2BA
330
1F
100
AcDbEntity
  8
Default
  6
Continuous
 62
     7
100
AcDbCircle
 10
436.4291313108
 20
296.2422436139
 30
0.0
 40
1.5
  0
CIRCLE
  5
2BB
330
1F
100
AcDbEntity
  8
Default
  6
Continuous
 62
     7
100
AcDbCircle
 10
436.4291313108
 20
287.2422436139
 30
0.0
 40
1.5
  0
CIRCLE
  5
2BC
330
1F
100
AcDbEntity
  8
Default
  6
Continuous
 62
     7
100
AcDbCircle
 10
436.4291313108
 20
278.2422436139
 30
0.0
 40
1.5
  0
CIRCLE
  5
2BD
330
1F
100
AcDbEntity
  8
Default
  6
Continuous
 62
     7
100
AcDbCircle
 10
445.4291313108
 20
296.2422436139
 30
0.0
 40
1.5
  0
CIRCLE
  5
2BE
330
1F
100
AcDbEntity
  8
Default
  6
Continuous
 62
     7
100
AcDbCircle
 10
445.4291313108
 20
287.2422436139
 30
0.0
 40
1.5
  0
CIRCLE
  5
2BF
330
1F
100
AcDbEntity
  8
Default
  6
Continuous
 62
     7
100
AcDbCircle
 10
445.4291313108
 20
278.2422436139
 30
0.0
 40
1.5
  0
CIRCLE
  5
2C0
330
1F
100
AcDbEntity
  8
Default
  6
Continuous
 62
     7
100
AcDbCircle
 10
454.4291313108
 20
296.2422436139
 30
0.0
 40
1.5
  0
CIRCLE
  5
2C1
330
1F
100
AcDbEntity
  8
Default
  6
Continuous
 62
     7
100
AcDbCircle
 10
454.4291313108
 20
287.2422436139
 30
0.0
 40
1.5
  0
CIRCLE
  5
2C2
330
1F
100
AcDbEntity
  8
Default
  6
Continuous
 62
     7
100
AcDbCircle
 10
454.4291313108
 20
278.2422436139
 30
0.0
 40
1.5
  0
CIRCLE
  5
2C3
330
1F
100
AcDbEntity
  8
Default
  6
Continuous
 62
     7
100
AcDbCircle
 10
463.4291313108
 20
296.2422436139
 30
0.0
 40
1.5
  0
CIRCLE
  5
2C4
330
1F
100
AcDbEntity
  8
Default
  6
Continuous
 62
     7
100
AcDbCircle
 10
463.4291313108
 20
287.2422436139
 30
0.0
 40
1.5
  0
CIRCLE
  5
2C5
330
1F
100
AcDbEntity
  8
Default
  6
Continuous
 62
     7
100
AcDbCircle
 10
463.4291313108
 20
278.2422436139
 30
0.0
 40
1.5
  0
CIRCLE
  5
2C6
330
1F
100
AcDbEntity
  8
Default
  6
Continuous
 62
     7
100
AcDbCircle
 10
472.4291313108
 20
296.2422436139
 30
0.0
 40
1.5
  0
CIRCLE
  5
2C7
330
1F
100
AcDbEntity
  8
Default
  6
Continuous
 62
     7
100
AcDbCircle
 10
472.4291313108
 20
287.2422436139
 30
0.0
 40
1.5
  0
CIRCLE
  5
2C8
330
1F
100
AcDbEntity
  8
Default
  6
Continuous
 62
     7
100
AcDbCircle
 10
472.4291313108
 20
278.2422436139
 30
0.0
 40
1.5
  0
CIRCLE
  5
2C9
330
1F
100
AcDbEntity
  8
Default
  6
Continuous
 62
     7
100
AcDbCircle
 10
481.4291313108
 20
296.2422436139
 30
0.0
 40
1.5
  0
CIRCLE
  5
2CA
330
1F
100
AcDbEntity
  8
Default
  6
Continuous
 62
     7
100
AcDbCircle
 10
481.4291313108
 20
287.2422436139
 30
0.0
 40
1.5
  0
CIRCLE
  5
2CB
330
1F
100
AcDbEntity
  8
Default
  6
Continuous
 62
     7
100
AcDbCircle
 10
481.4291313108
 20
278.2422436139
 30
0.0
 40
1.5
  0
CIRCLE
  5
2CC
330
1F
100
AcDbEntity
  8
Default
  6
Continuous
 62
     7
100
AcDbCircle
 10
490.4291313108
 20
296.2422436139
 30
0.0
 40
1.5
  0
CIRCLE
  5
2CD
330
1F
100
AcDbEntity
  8
Default
  6
Continuous
 62
     7
100
AcDbCircle
 10
490.4291313108
 20
287.2422436139
 30
0.0
 40
1.5
  0
CIRCLE
  5
2CE
330
1F
100
AcDbEntity
  8
Default
  6
Continuous
 62
     7
100
AcDbCircle
 10
490.4291313108
 20
278.2422436139
 30
0.0
 40
1.5
  0
CIRCLE
  5
2CF
330
1F
100
AcDbEntity
  8
Default
  6
Continuous
 62
     7
100
AcDbCircle
 10
499.4291313108
 20
296.2422436139
 30
0.0
 40
1.5
  0
CIRCLE
  5
2D0
330
1F
100
AcDbEntity
  8
Default
  6
Continuous
 62
     7
100
AcDbCircle
 10
499.4291313108
 20
287.2422436139
 30
0.0
 40
1.5
  0
CIRCLE
  5
2D1
330
1F
100
AcDbEntity
  8
Default
  6
Continuous
 62
     7
100
AcDbCircle
 10
499.4291313108
 20
278.2422436139
 30
0.0
 40
1.5
  0
CIRCLE
  5
2D2
330
1F
100
AcDbEntity
  8
Default
  6
Continuous
 62
     7
100
AcDbCircle
 10
508.4291313108
 20
296.2422436139
 30
0.0
 40
1.5
  0
CIRCLE
  5
2D3
330
1F
100
AcDbEntity
  8
Default
  6
Continuous
 62
     7
100
AcDbCircle
 10
508.4291313108
 20
287.2422436139
 30
0.0
 40
1.5
  0
CIRCLE
  5
2D4
330
1F
100
AcDbEntity
  8
Default
  6
Continuous
 62
     7
100
AcDbCircle
 10
508.4291313108
 20
278.2422436139
 30
0.0
 40
1.5
  0
CIRCLE
  5
2D5
330
1F
100
AcDbEntity
  8
Default
  6
Continuous
 62
     7
100
AcDbCircle
 10
517.4291313108
 20
296.2422436139
 30
0.0
 40
1.5
  0
CIRCLE
  5
2D6
330
1F
100
AcDbEntity
  8
Default
  6
Continuous
 62
     7
100
AcDbCircle
 10
517.4291313108
 20
287.2422436139
 30
0.0
 40
1.5
  0
CIRCLE
  5
2D7
330
1F
100
AcDbEntity
  8
Default
  6
Continuous
 62
     7
100
AcDbCircle
 10
517.4291313108
 20
278.2422436139
 30
0.0
 40
1.5
  0
CIRCLE
  5
2D8
330
1F
100
AcDbEntity
  8
Default
  6
Continuous
 62
     7
100
AcDbCircle
 10
256.4291313108
 20
269.2422436139
 30
0.0
 40
1.5
  0
CIRCLE
  5
2D9
330
1F
100
AcDbEntity
  8
Default
  6
Continuous
 62
     7
100
AcDbCircle
 10
256.4291313108
 20
260.2422436139
 30
0.0
 40
1.5
  0
CIRCLE
  5
2DA
330
1F
100
AcDbEntity
  8
Default
  6
Continuous
 62
     7
100
AcDbCircle
 10
256.4291313108
 20
251.2422436139
 30
0.0
 40
1.5
  0
CIRCLE
  5
2DB
330
1F
100
AcDbEntity
  8
Default
  6
Continuous
 62
     7
100
AcDbCircle
 10
265.4291313108
 20
269.2422436139
 30
0.0
 40
1.5
  0
CIRCLE
  5
2DC
330
1F
100
AcDbEntity
  8
Default
  6
Continuous
 62
     7
100
AcDbCircle
 10
265.4291313108
 20
260.2422436139
 30
0.0
 40
1.5
  0
CIRCLE
  5
2DD
330
1F
100
AcDbEntity
  8
Default
  6
Continuous
 62
     7
100
AcDbCircle
 10
265.4291313108
 20
251.2422436139
 30
0.0
 40
1.5
  0
CIRCLE
  5
2DE
330
1F
100
AcDbEntity
  8
Default
  6
Continuous
 62
     7
100
AcDbCircle
 10
274.4291313108
 20
269.2422436139
 30
0.0
 40
1.5
  0
CIRCLE
  5
2DF
330
1F
100
AcDbEntity
  8
Default
  6
Continuous
 62
     7
100
AcDbCircle
 10
274.4291313108
 20
260.2422436139
 30
0.0
 40
1.5
  0
CIRCLE
  5
2E0
330
1F
100
AcDbEntity
  8
Default
  6
Continuous
 62
     7
100
AcDbCircle
 10
274.4291313108
 20
251.2422436139
 30
0.0
 40
1.5
  0
CIRCLE
  5
2E1
330
1F
100
AcDbEntity
  8
Default
  6
Continuous
 62
     7
100
AcDbCircle
 10
283.4291313108
 20
269.2422436139
 30
0.0
 40
1.5
  0
CIRCLE
  5
2E2
330
1F
100
AcDbEntity
  8
Default
  6
Continuous
 62
     7
100
AcDbCircle
 10
283.4291313108
 20
260.2422436139
 30
0.0
 40
1.5
  0
CIRCLE
  5
2E3
330
1F
100
AcDbEntity
  8
Default
  6
Continuous
 62
     7
100
AcDbCircle
 10
283.4291313108
 20
251.2422436139
 30
0.0
 40
1.5
  0
CIRCLE
  5
2E4
330
1F
100
AcDbEntity
  8
Default
  6
Continuous
 62
     7
100
AcDbCircle
 10
292.4291313108
 20
269.2422436139
 30
0.0
 40
1.5
  0
CIRCLE
  5
2E5
330
1F
100
AcDbEntity
  8
Default
  6
Continuous
 62
     7
100
AcDbCircle
 10
292.4291313108
 20
260.2422436139
 30
0.0
 40
1.5
  0
CIRCLE
  5
2E6
330
1F
100
AcDbEntity
  8
Default
  6
Continuous
 62
     7
100
AcDbCircle
 10
292.4291313108
 20
251.2422436139
 30
0.0
 40
1.5
  0
CIRCLE
  5
2E7
330
1F
100
AcDbEntity
  8
Default
  6
Continuous
 62
     7
100
AcDbCircle
 10
301.4291313108
 20
269.2422436139
 30
0.0
 40
1.5
  0
CIRCLE
  5
2E8
330
1F
100
AcDbEntity
  8
Default
  6
Continuous
 62
     7
100
AcDbCircle
 10
301.4291313108
 20
260.2422436139
 30
0.0
 40
1.5
  0
CIRCLE
  5
2E9
330
1F
100
AcDbEntity
  8
Default
  6
Continuous
 62
     7
100
AcDbCircle
 10
301.4291313108
 20
251.2422436139
 30
0.0
 40
1.5
  0
CIRCLE
  5
2EA
330
1F
100
AcDbEntity
  8
Default
  6
Continuous
 62
     7
100
AcDbCircle
 10
310.4291313108
 20
269.2422436139
 30
0.0
 40
1.5
  0
CIRCLE
  5
2EB
330
1F
100
AcDbEntity
  8
Default
  6
Continuous
 62
     7
100
AcDbCircle
 10
310.4291313108
 20
260.2422436139
 30
0.0
 40
1.5
  0
CIRCLE
  5
2EC
330
1F
100
AcDbEntity
  8
Default
  6
Continuous
 62
     7
100
AcDbCircle
 10
310.4291313108
 20
251.2422436139
 30
0.0
 40
1.5
  0
CIRCLE
  5
2ED
330
1F
100
AcDbEntity
  8
Default
  6
Continuous
 62
     7
100
AcDbCircle
 10
319.4291313108
 20
269.2422436139
 30
0.0
 40
1.5
  0
CIRCLE
  5
2EE
330
1F
100
AcDbEntity
  8
Default
  6
Continuous
 62
     7
100
AcDbCircle
 10
319.4291313108
 20
260.2422436139
 30
0.0
 40
1.5
  0
CIRCLE
  5
2EF
330
1F
100
AcDbEntity
  8
Default
  6
Continuous
 62
     7
100
AcDbCircle
 10
319.4291313108
 20
251.2422436139
 30
0.0
 40
1.5
  0
CIRCLE
  5
2F0
330
1F
100
AcDbEntity
  8
Default
  6
Continuous
 62
     7
100
AcDbCircle
 10
328.4291313108
 20
269.2422436139
 30
0.0
 40
1.5
  0
CIRCLE
  5
2F1
330
1F
100
AcDbEntity
  8
Default
  6
Continuous
 62
     7
100
AcDbCircle
 10
328.4291313108
 20
260.2422436139
 30
0.0
 40
1.5
  0
CIRCLE
  5
2F2
330
1F
100
AcDbEntity
  8
Default
  6
Continuous
 62
     7
100
AcDbCircle
 10
328.4291313108
 20
251.2422436139
 30
0.0
 40
1.5
  0
CIRCLE
  5
2F3
330
1F
100
AcDbEntity
  8
Default
  6
Continuous
 62
     7
100
AcDbCircle
 10
337.4291313108
 20
269.2422436139
 30
0.0
 40
1.5
  0
CIRCLE
  5
2F4
330
1F
100
AcDbEntity
  8
Default
  6
Continuous
 62
     7
100
AcDbCircle
 10
337.4291313108
 20
260.2422436139
 30
0.0
 40
1.5
  0
CIRCLE
  5
2F5
330
1F
100
AcDbEntity
  8
Default
  6
Continuous
 62
     7
100
AcDbCircle
 10
337.4291313108
 20
251.2422436139
 30
0.0
 40
1.5
  0
CIRCLE
  5
2F6
330
1F
100
AcDbEntity
  8
Default
  6
Continuous
 62
     7
100
AcDbCircle
 10
346.4291313108
 20
269.2422436139
 30
0.0
 40
1.5
  0
CIRCLE
  5
2F7
330
1F
100
AcDbEntity
  8
Default
  6
Continuous
 62
     7
100
AcDbCircle
 10
346.4291313108
 20
260.2422436139
 30
0.0
 40
1.5
  0
CIRCLE
  5
2F8
330
1F
100
AcDbEntity
  8
Default
  6
Continuous
 62
     7
100
AcDbCircle
 10
346.4291313108
 20
251.2422436139
 30
0.0
 40
1.5
  0
CIRCLE
  5
2F9
330
1F
100
AcDbEntity
  8
Default
  6
Continuous
 62
     7
100
AcDbCircle
 10
355.4291313108
 20
269.2422436139
 30
0.0
 40
1.5
  0
CIRCLE
  5
2FA
330
1F
100
AcDbEntity
  8
Default
  6
Continuous
 62
     7
100
AcDbCircle
 10
355.4291313108
 20
260.2422436139
 30
0.0
 40
1.5
  0
CIRCLE
  5
2FB
330
1F
100
AcDbEntity
  8
Default
  6
Continuous
 62
     7
100
AcDbCircle
 10
355.4291313108
 20
251.2422436139
 30
0.0
 40
1.5
  0
CIRCLE
  5
2FC
330
1F
100
AcDbEntity
  8
Default
  6
Continuous
 62
     7
100
AcDbCircle
 10
364.4291313108
 20
269.2422436139
 30
0.0
 40
1.5
  0
CIRCLE
  5
2FD
330
1F
100
AcDbEntity
  8
Default
  6
Continuous
 62
     7
100
AcDbCircle
 10
364.4291313108
 20
260.2422436139
 30
0.0
 40
1.5
  0
CIRCLE
  5
2FE
330
1F
100
AcDbEntity
  8
Default
  6
Continuous
 62
     7
100
AcDbCircle
 10
364.4291313108
 20
251.2422436139
 30
0.0
 40
1.5
  0
CIRCLE
  5
2FF
330
1F
100
AcDbEntity
  8
Default
  6
Continuous
 62
     7
100
AcDbCircle
 10
373.4291313108
 20
269.2422436139
 30
0.0
 40
1.5
  0
CIRCLE
  5
300
330
1F
100
AcDbEntity
  8
Default
  6
Continuous
 62
     7
100
AcDbCircle
 10
373.4291313108
 20
260.2422436139
 30
0.0
 40
1.5
  0
CIRCLE
  5
301
330
1F
100
AcDbEntity
  8
Default
  6
Continuous
 62
     7
100
AcDbCircle
 10
373.4291313108
 20
251.2422436139
 30
0.0
 40
1.5
  0
CIRCLE
  5
302
330
1F
100
AcDbEntity
  8
Default
  6
Continuous
 62
     7
100
AcDbCircle
 10
382.4291313108
 20
269.2422436139
 30
0.0
 40
1.5
  0
CIRCLE
  5
303
330
1F
100
AcDbEntity
  8
Default
  6
Continuous
 62
     7
100
AcDbCircle
 10
382.4291313108
 20
260.2422436139
 30
0.0
 40
1.5
  0
CIRCLE
  5
304
330
1F
100
AcDbEntity
  8
Default
  6
Continuous
 62
     7
100
AcDbCircle
 10
382.4291313108
 20
251.2422436139
 30
0.0
 40
1.5
  0
CIRCLE
  5
305
330
1F
100
AcDbEntity
  8
Default
  6
Continuous
 62
     7
100
AcDbCircle
 10
391.4291313108
 20
269.2422436139
 30
0.0
 40
1.5
  0
CIRCLE
  5
306
330
1F
100
AcDbEntity
  8
Default
  6
Continuous
 62
     7
100
AcDbCircle
 10
391.4291313108
 20
260.2422436139
 30
0.0
 40
1.5
  0
CIRCLE
  5
307
330
1F
100
AcDbEntity
  8
Default
  6
Continuous
 62
     7
100
AcDbCircle
 10
391.4291313108
 20
251.2422436139
 30
0.0
 40
1.5
  0
CIRCLE
  5
308
330
1F
100
AcDbEntity
  8
Default
  6
Continuous
 62
     7
100
AcDbCircle
 10
400.4291313108
 20
269.2422436139
 30
0.0
 40
1.5
  0
CIRCLE
  5
309
330
1F
100
AcDbEntity
  8
Default
  6
Continuous
 62
     7
100
AcDbCircle
 10
400.4291313108
 20
260.2422436139
 30
0.0
 40
1.5
  0
CIRCLE
  5
30A
330
1F
100
AcDbEntity
  8
Default
  6
Continuous
 62
     7
100
AcDbCircle
 10
400.4291313108
 20
251.2422436139
 30
0.0
 40
1.5
  0
CIRCLE
  5
30B
330
1F
100
AcDbEntity
  8
Default
  6
Continuous
 62
     7
100
AcDbCircle
 10
409.4291313108
 20
269.2422436139
 30
0.0
 40
1.5
  0
CIRCLE
  5
30C
330
1F
100
AcDbEntity
  8
Default
  6
Continuous
 62
     7
100
AcDbCircle
 10
409.4291313108
 20
260.2422436139
 30
0.0
 40
1.5
  0
CIRCLE
  5
30D
330
1F
100
AcDbEntity
  8
Default
  6
Continuous
 62
     7
100
AcDbCircle
 10
409.4291313108
 20
251.2422436139
 30
0.0
 40
1.5
  0
CIRCLE
  5
30E
330
1F
100
AcDbEntity
  8
Default
  6
Continuous
 62
     7
100
AcDbCircle
 10
418.4291313108
 20
269.2422436139
 30
0.0
 40
1.5
  0
CIRCLE
  5
30F
330
1F
100
AcDbEntity
  8
Default
  6
Continuous
 62
     7
100
AcDbCircle
 10
418.4291313108
 20
260.2422436139
 30
0.0
 40
1.5
  0
CIRCLE
  5
310
330
1F
100
AcDbEntity
  8
Default
  6
Continuous
 62
     7
100
AcDbCircle
 10
418.4291313108
 20
251.2422436139
 30
0.0
 40
1.5
  0
CIRCLE
  5
311
330
1F
100
AcDbEntity
  8
Default
  6
Continuous
 62
     7
100
AcDbCircle
 10
427.4291313108
 20
269.2422436139
 30
0.0
 40
1.5
  0
CIRCLE
  5
312
330
1F
100
AcDbEntity
  8
Default
  6
Continuous
 62
     7
100
AcDbCircle
 10
427.4291313108
 20
260.2422436139
 30
0.0
 40
1.5
  0
CIRCLE
  5
313
330
1F
100
AcDbEntity
  8
Default
  6
Continuous
 62
     7
100
AcDbCircle
 10
427.4291313108
 20
251.2422436139
 30
0.0
 40
1.5
  0
CIRCLE
  5
314
330
1F
100
AcDbEntity
  8
Default
  6
Continuous
 62
     7
100
AcDbCircle
 10
436.4291313108
 20
269.2422436139
 30
0.0
 40
1.5
  0
CIRCLE
  5
315
330
1F
100
AcDbEntity
  8
Default
  6
Continuous
 62
     7
100
AcDbCircle
 10
436.4291313108
 20
260.2422436139
 30
0.0
 40
1.5
  0
CIRCLE
  5
316
330
1F
100
AcDbEntity
  8
Default
  6
Continuous
 62
     7
100
AcDbCircle
 10
436.4291313108
 20
251.2422436139
 30
0.0
 40
1.5
  0
CIRCLE
  5
317
330
1F
100
AcDbEntity
  8
Default
  6
Continuous
 62
     7
100
AcDbCircle
 10
445.4291313108
 20
269.2422436139
 30
0.0
 40
1.5
  0
CIRCLE
  5
318
330
1F
100
AcDbEntity
  8
Default
  6
Continuous
 62
     7
100
AcDbCircle
 10
445.4291313108
 20
260.2422436139
 30
0.0
 40
1.5
  0
CIRCLE
  5
319
330
1F
100
AcDbEntity
  8
Default
  6
Continuous
 62
     7
100
AcDbCircle
 10
445.4291313108
 20
251.2422436139
 30
0.0
 40
1.5
  0
CIRCLE
  5
31A
330
1F
100
AcDbEntity
  8
Default
  6
Continuous
 62
     7
100
AcDbCircle
 10
454.4291313108
 20
269.2422436139
 30
0.0
 40
1.5
  0
CIRCLE
  5
31B
330
1F
100
AcDbEntity
  8
Default
  6
Continuous
 62
     7
100
AcDbCircle
 10
454.4291313108
 20
260.2422436139
 30
0.0
 40
1.5
  0
CIRCLE
  5
31C
330
1F
100
AcDbEntity
  8
Default
  6
Continuous
 62
     7
100
AcDbCircle
 10
454.4291313108
 20
251.2422436139
 30
0.0
 40
1.5
  0
CIRCLE
  5
31D
330
1F
100
AcDbEntity
  8
Default
  6
Continuous
 62
     7
100
AcDbCircle
 10
463.4291313108
 20
269.2422436139
 30
0.0
 40
1.5
  0
CIRCLE
  5
31E
330
1F
100
AcDbEntity
  8
Default
  6
Continuous
 62
     7
100
AcDbCircle
 10
463.4291313108
 20
260.2422436139
 30
0.0
 40
1.5
  0
CIRCLE
  5
31F
330
1F
100
AcDbEntity
  8
Default
  6
Continuous
 62
     7
100
AcDbCircle
 10
463.4291313108
 20
251.2422436139
 30
0.0
 40
1.5
  0
CIRCLE
  5
320
330
1F
100
AcDbEntity
  8
Default
  6
Continuous
 62
     7
100
AcDbCircle
 10
472.4291313108
 20
269.2422436139
 30
0.0
 40
1.5
  0
CIRCLE
  5
321
330
1F
100
AcDbEntity
  8
Default
  6
Continuous
 62
     7
100
AcDbCircle
 10
472.4291313108
 20
260.2422436139
 30
0.0
 40
1.5
  0
CIRCLE
  5
322
330
1F
100
AcDbEntity
  8
Default
  6
Continuous
 62
     7
100
AcDbCircle
 10
472.4291313108
 20
251.2422436139
 30
0.0
 40
1.5
  0
CIRCLE
  5
323
330
1F
100
AcDbEntity
  8
Default
  6
Continuous
 62
     7
100
AcDbCircle
 10
481.4291313108
 20
269.2422436139
 30
0.0
 40
1.5
  0
CIRCLE
  5
324
330
1F
100
AcDbEntity
  8
Default
  6
Continuous
 62
     7
100
AcDbCircle
 10
481.4291313108
 20
260.2422436139
 30
0.0
 40
1.5
  0
CIRCLE
  5
325
330
1F
100
AcDbEntity
  8
Default
  6
Continuous
 62
     7
100
AcDbCircle
 10
481.4291313108
 20
251.2422436139
 30
0.0
 40
1.5
  0
CIRCLE
  5
326
330
1F
100
AcDbEntity
  8
Default
  6
Continuous
 62
     7
100
AcDbCircle
 10
490.4291313108
 20
269.2422436139
 30
0.0
 40
1.5
  0
CIRCLE
  5
327
330
1F
100
AcDbEntity
  8
Default
  6
Continuous
 62
     7
100
AcDbCircle
 10
490.4291313108
 20
260.2422436139
 30
0.0
 40
1.5
  0
CIRCLE
  5
328
330
1F
100
AcDbEntity
  8
Default
  6
Continuous
 62
     7
100
AcDbCircle
 10
490.4291313108
 20
251.2422436139
 30
0.0
 40
1.5
  0
CIRCLE
  5
329
330
1F
100
AcDbEntity
  8
Default
  6
Continuous
 62
     7
100
AcDbCircle
 10
499.4291313108
 20
269.2422436139
 30
0.0
 40
1.5
  0
CIRCLE
  5
32A
330
1F
100
AcDbEntity
  8
Default
  6
Continuous
 62
     7
100
AcDbCircle
 10
499.4291313108
 20
260.2422436139
 30
0.0
 40
1.5
  0
CIRCLE
  5
32B
330
1F
100
AcDbEntity
  8
Default
  6
Continuous
 62
     7
100
AcDbCircle
 10
499.4291313108
 20
251.2422436139
 30
0.0
 40
1.5
  0
CIRCLE
  5
32C
330
1F
100
AcDbEntity
  8
Default
  6
Continuous
 62
     7
100
AcDbCircle
 10
508.4291313108
 20
269.2422436139
 30
0.0
 40
1.5
  0
CIRCLE
  5
32D
330
1F
100
AcDbEntity
  8
Default
  6
Continuous
 62
     7
100
AcDbCircle
 10
508.4291313108
 20
260.2422436139
 30
0.0
 40
1.5
  0
CIRCLE
  5
32E
330
1F
100
AcDbEntity
  8
Default
  6
Continuous
 62
     7
100
AcDbCircle
 10
508.4291313108
 20
251.2422436139
 30
0.0
 40
1.5
  0
CIRCLE
  5
32F
330
1F
100
AcDbEntity
  8
Default
  6
Continuous
 62
     7
100
AcDbCircle
 10
517.4291313108
 20
269.2422436139
 30
0.0
 40
1.5
  0
CIRCLE
  5
330
330
1F
100
AcDbEntity
  8
Default
  6
Continuous
 62
     7
100
AcDbCircle
 10
517.4291313108
 20
260.2422436139
 30
0.0
 40
1.5
  0
CIRCLE
  5
331
330
1F
100
AcDbEntity
  8
Default
  6
Continuous
 62
     7
100
AcDbCircle
 10
517.4291313108
 20
251.2422436139
 30
0.0
 40
1.5
  0
CIRCLE
  5
332
330
1F
100
AcDbEntity
  8
Default
  6
Continuous
 62
     7
100
AcDbCircle
 10
526.4291313108
 20
467.2422436139
 30
0.0
 40
1.5
  0
CIRCLE
  5
333
330
1F
100
AcDbEntity
  8
Default
  6
Continuous
 62
     7
100
AcDbCircle
 10
526.4291313108
 20
458.2422436139
 30
0.0
 40
1.5
  0
CIRCLE
  5
334
330
1F
100
AcDbEntity
  8
Default
  6
Continuous
 62
     7
100
AcDbCircle
 10
526.4291313108
 20
449.2422436139
 30
0.0
 40
1.5
  0
CIRCLE
  5
335
330
1F
100
AcDbEntity
  8
Default
  6
Continuous
 62
     7
100
AcDbCircle
 10
526.4291313108
 20
440.2422436139
 30
0.0
 40
1.5
  0
CIRCLE
  5
336
330
1F
100
AcDbEntity
  8
Default
  6
Continuous
 62
     7
100
AcDbCircle
 10
526.4291313108
 20
431.2422436139
 30
0.0
 40
1.5
  0
CIRCLE
  5
337
330
1F
100
AcDbEntity
  8
Default
  6
Continuous
 62
     7
100
AcDbCircle
 10
526.4291313108
 20
422.2422436139
 30
0.0
 40
1.5
  0
CIRCLE
  5
338
330
1F
100
AcDbEntity
  8
Default
  6
Continuous
 62
     7
100
AcDbCircle
 10
526.4291313108
 20
413.2422436139
 30
0.0
 40
1.5
  0
CIRCLE
  5
339
330
1F
100
AcDbEntity
  8
Default
  6
Continuous
 62
     7
100
AcDbCircle
 10
526.4291313108
 20
404.2422436139
 30
0.0
 40
1.5
  0
CIRCLE
  5
33A
330
1F
100
AcDbEntity
  8
Default
  6
Continuous
 62
     7
100
AcDbCircle
 10
526.4291313108
 20
395.2422436139
 30
0.0
 40
1.5
  0
CIRCLE
  5
33B
330
1F
100
AcDbEntity
  8
Default
  6
Continuous
 62
     7
100
AcDbCircle
 10
526.4291313108
 20
386.2422436139
 30
0.0
 40
1.5
  0
CIRCLE
  5
33C
330
1F
100
AcDbEntity
  8
Default
  6
Continuous
 62
     7
100
AcDbCircle
 10
526.4291313108
 20
377.2422436139
 30
0.0
 40
1.5
  0
CIRCLE
  5
33D
330
1F
100
AcDbEntity
  8
Default
  6
Continuous
 62
     7
100
AcDbCircle
 10
526.4291313108
 20
368.2422436139
 30
0.0
 40
1.5
  0
CIRCLE
  5
33E
330
1F
100
AcDbEntity
  8
Default
  6
Continuous
 62
     7
100
AcDbCircle
 10
526.4291313108
 20
359.2422436139
 30
0.0
 40
1.5
  0
CIRCLE
  5
33F
330
1F
100
AcDbEntity
  8
Default
  6
Continuous
 62
     7
100
AcDbCircle
 10
526.4291313108
 20
350.2422436139
 30
0.0
 40
1.5
  0
CIRCLE
  5
340
330
1F
100
AcDbEntity
  8
Default
  6
Continuous
 62
     7
100
AcDbCircle
 10
526.4291313108
 20
341.2422436139
 30
0.0
 40
1.5
  0
CIRCLE
  5
341
330
1F
100
AcDbEntity
  8
Default
  6
Continuous
 62
     7
100
AcDbCircle
 10
526.4291313108
 20
332.2422436139
 30
0.0
 40
1.5
  0
CIRCLE
  5
342
330
1F
100
AcDbEntity
  8
Default
  6
Continuous
 62
     7
100
AcDbCircle
 10
526.4291313108
 20
323.2422436139
 30
0.0
 40
1.5
  0
CIRCLE
  5
343
330
1F
100
AcDbEntity
  8
Default
  6
Continuous
 62
     7
100
AcDbCircle
 10
526.4291313108
 20
314.2422436139
 30
0.0
 40
1.5
  0
CIRCLE
  5
344
330
1F
100
AcDbEntity
  8
Default
  6
Continuous
 62
     7
100
AcDbCircle
 10
526.4291313108
 20
305.2422436139
 30
0.0
 40
1.5
  0
CIRCLE
  5
345
330
1F
100
AcDbEntity
  8
Default
  6
Continuous
 62
     7
100
AcDbCircle
 10
535.4291313108
 20
467.2422436139
 30
0.0
 40
1.5
  0
CIRCLE
  5
346
330
1F
100
AcDbEntity
  8
Default
  6
Continuous
 62
     7
100
AcDbCircle
 10
535.4291313108
 20
458.2422436139
 30
0.0
 40
1.5
  0
CIRCLE
  5
347
330
1F
100
AcDbEntity
  8
Default
  6
Continuous
 62
     7
100
AcDbCircle
 10
535.4291313108
 20
449.2422436139
 30
0.0
 40
1.5
  0
CIRCLE
  5
348
330
1F
100
AcDbEntity
  8
Default
  6
Continuous
 62
     7
100
AcDbCircle
 10
535.4291313108
 20
440.2422436139
 30
0.0
 40
1.5
  0
CIRCLE
  5
349
330
1F
100
AcDbEntity
  8
Default
  6
Continuous
 62
     7
100
AcDbCircle
 10
535.4291313108
 20
431.2422436139
 30
0.0
 40
1.5
  0
CIRCLE
  5
34A
330
1F
100
AcDbEntity
  8
Default
  6
Continuous
 62
     7
100
AcDbCircle
 10
535.4291313108
 20
422.2422436139
 30
0.0
 40
1.5
  0
CIRCLE
  5
34B
330
1F
100
AcDbEntity
  8
Default
  6
Continuous
 62
     7
100
AcDbCircle
 10
535.4291313108
 20
413.2422436139
 30
0.0
 40
1.5
  0
CIRCLE
  5
34C
330
1F
100
AcDbEntity
  8
Default
  6
Continuous
 62
     7
100
AcDbCircle
 10
535.4291313108
 20
404.2422436139
 30
0.0
 40
1.5
  0
CIRCLE
  5
34D
330
1F
100
AcDbEntity
  8
Default
  6
Continuous
 62
     7
100
AcDbCircle
 10
535.4291313108
 20
395.2422436139
 30
0.0
 40
1.5
  0
CIRCLE
  5
34E
330
1F
100
AcDbEntity
  8
Default
  6
Continuous
 62
     7
100
AcDbCircle
 10
535.4291313108
 20
386.2422436139
 30
0.0
 40
1.5
  0
CIRCLE
  5
34F
330
1F
100
AcDbEntity
  8
Default
  6
Continuous
 62
     7
100
AcDbCircle
 10
535.4291313108
 20
377.2422436139
 30
0.0
 40
1.5
  0
CIRCLE
  5
350
330
1F
100
AcDbEntity
  8
Default
  6
Continuous
 62
     7
100
AcDbCircle
 10
535.4291313108
 20
368.2422436139
 30
0.0
 40
1.5
  0
CIRCLE
  5
351
330
1F
100
AcDbEntity
  8
Default
  6
Continuous
 62
     7
100
AcDbCircle
 10
535.4291313108
 20
359.2422436139
 30
0.0
 40
1.5
  0
CIRCLE
  5
352
330
1F
100
AcDbEntity
  8
Default
  6
Continuous
 62
     7
100
AcDbCircle
 10
535.4291313108
 20
350.2422436139
 30
0.0
 40
1.5
  0
CIRCLE
  5
353
330
1F
100
AcDbEntity
  8
Default
  6
Continuous
 62
     7
100
AcDbCircle
 10
535.4291313108
 20
341.2422436139
 30
0.0
 40
1.5
  0
CIRCLE
  5
354
330
1F
100
AcDbEntity
  8
Default
  6
Continuous
 62
     7
100
AcDbCircle
 10
535.4291313108
 20
332.2422436139
 30
0.0
 40
1.5
  0
CIRCLE
  5
355
330
1F
100
AcDbEntity
  8
Default
  6
Continuous
 62
     7
100
AcDbCircle
 10
535.4291313108
 20
323.2422436139
 30
0.0
 40
1.5
  0
CIRCLE
  5
356
330
1F
100
AcDbEntity
  8
Default
  6
Continuous
 62
     7
100
AcDbCircle
 10
535.4291313108
 20
314.2422436139
 30
0.0
 40
1.5
  0
CIRCLE
  5
357
330
1F
100
AcDbEntity
  8
Default
  6
Continuous
 62
     7
100
AcDbCircle
 10
535.4291313108
 20
305.2422436139
 30
0.0
 40
1.5
  0
CIRCLE
  5
358
330
1F
100
AcDbEntity
  8
Default
  6
Continuous
 62
     7
100
AcDbCircle
 10
544.4291313108
 20
467.2422436139
 30
0.0
 40
1.5
  0
CIRCLE
  5
359
330
1F
100
AcDbEntity
  8
Default
  6
Continuous
 62
     7
100
AcDbCircle
 10
544.4291313108
 20
458.2422436139
 30
0.0
 40
1.5
  0
CIRCLE
  5
35A
330
1F
100
AcDbEntity
  8
Default
  6
Continuous
 62
     7
100
AcDbCircle
 10
544.4291313108
 20
449.2422436139
 30
0.0
 40
1.5
  0
CIRCLE
  5
35B
330
1F
100
AcDbEntity
  8
Default
  6
Continuous
 62
     7
100
AcDbCircle
 10
544.4291313108
 20
440.2422436139
 30
0.0
 40
1.5
  0
CIRCLE
  5
35C
330
1F
100
AcDbEntity
  8
Default
  6
Continuous
 62
     7
100
AcDbCircle
 10
544.4291313108
 20
431.2422436139
 30
0.0
 40
1.5
  0
CIRCLE
  5
35D
330
1F
100
AcDbEntity
  8
Default
  6
Continuous
 62
     7
100
AcDbCircle
 10
544.4291313108
 20
422.2422436139
 30
0.0
 40
1.5
  0
CIRCLE
  5
35E
330
1F
100
AcDbEntity
  8
Default
  6
Continuous
 62
     7
100
AcDbCircle
 10
544.4291313108
 20
413.2422436139
 30
0.0
 40
1.5
  0
CIRCLE
  5
35F
330
1F
100
AcDbEntity
  8
Default
  6
Continuous
 62
     7
100
AcDbCircle
 10
544.4291313108
 20
404.2422436139
 30
0.0
 40
1.5
  0
CIRCLE
  5
360
330
1F
100
AcDbEntity
  8
Default
  6
Continuous
 62
     7
100
AcDbCircle
 10
544.4291313108
 20
395.2422436139
 30
0.0
 40
1.5
  0
CIRCLE
  5
361
330
1F
100
AcDbEntity
  8
Default
  6
Continuous
 62
     7
100
AcDbCircle
 10
544.4291313108
 20
386.2422436139
 30
0.0
 40
1.5
  0
CIRCLE
  5
362
330
1F
100
AcDbEntity
  8
Default
  6
Continuous
 62
     7
100
AcDbCircle
 10
544.4291313108
 20
377.2422436139
 30
0.0
 40
1.5
  0
CIRCLE
  5
363
330
1F
100
AcDbEntity
  8
Default
  6
Continuous
 62
     7
100
AcDbCircle
 10
544.4291313108
 20
368.2422436139
 30
0.0
 40
1.5
  0
CIRCLE
  5
364
330
1F
100
AcDbEntity
  8
Default
  6
Continuous
 62
     7
100
AcDbCircle
 10
544.4291313108
 20
359.2422436139
 30
0.0
 40
1.5
  0
CIRCLE
  5
365
330
1F
100
AcDbEntity
  8
Default
  6
Continuous
 62
     7
100
AcDbCircle
 10
544.4291313108
 20
350.2422436139
 30
0.0
 40
1.5
  0
CIRCLE
  5
366
330
1F
100
AcDbEntity
  8
Default
  6
Continuous
 62
     7
100
AcDbCircle
 10
544.4291313108
 20
341.2422436139
 30
0.0
 40
1.5
  0
CIRCLE
  5
367
330
1F
100
AcDbEntity
  8
Default
  6
Continuous
 62
     7
100
AcDbCircle
 10
544.4291313108
 20
332.2422436139
 30
0.0
 40
1.5
  0
CIRCLE
  5
368
330
1F
100
AcDbEntity
  8
Default
  6
Continuous
 62
     7
100
AcDbCircle
 10
544.4291313108
 20
323.2422436139
 30
0.0
 40
1.5
  0
CIRCLE
  5
369
330
1F
100
AcDbEntity
  8
Default
  6
Continuous
 62
     7
100
AcDbCircle
 10
544.4291313108
 20
314.2422436139
 30
0.0
 40
1.5
  0
CIRCLE
  5
36A
330
1F
100
AcDbEntity
  8
Default
  6
Continuous
 62
     7
100
AcDbCircle
 10
544.4291313108
 20
305.2422436139
 30
0.0
 40
1.5
  0
CIRCLE
  5
36B
330
1F
100
AcDbEntity
  8
Default
  6
Continuous
 62
     7
100
AcDbCircle
 10
553.4291313108
 20
467.2422436139
 30
0.0
 40
1.5
  0
CIRCLE
  5
36C
330
1F
100
AcDbEntity
  8
Default
  6
Continuous
 62
     7
100
AcDbCircle
 10
553.4291313108
 20
458.2422436139
 30
0.0
 40
1.5
  0
CIRCLE
  5
36D
330
1F
100
AcDbEntity
  8
Default
  6
Continuous
 62
     7
100
AcDbCircle
 10
553.4291313108
 20
449.2422436139
 30
0.0
 40
1.5
  0
CIRCLE
  5
36E
330
1F
100
AcDbEntity
  8
Default
  6
Continuous
 62
     7
100
AcDbCircle
 10
553.4291313108
 20
440.2422436139
 30
0.0
 40
1.5
  0
CIRCLE
  5
36F
330
1F
100
AcDbEntity
  8
Default
  6
Continuous
 62
     7
100
AcDbCircle
 10
553.4291313108
 20
431.2422436139
 30
0.0
 40
1.5
  0
CIRCLE
  5
370
330
1F
100
AcDbEntity
  8
Default
  6
Continuous
 62
     7
100
AcDbCircle
 10
553.4291313108
 20
422.2422436139
 30
0.0
 40
1.5
  0
CIRCLE
  5
371
330
1F
100
AcDbEntity
  8
Default
  6
Continuous
 62
     7
100
AcDbCircle
 10
553.4291313108
 20
413.2422436139
 30
0.0
 40
1.5
  0
CIRCLE
  5
372
330
1F
100
AcDbEntity
  8
Default
  6
Continuous
 62
     7
100
AcDbCircle
 10
553.4291313108
 20
404.2422436139
 30
0.0
 40
1.5
  0
CIRCLE
  5
373
330
1F
100
AcDbEntity
  8
Default
  6
Continuous
 62
     7
100
AcDbCircle
 10
553.4291313108
 20
395.2422436139
 30
0.0
 40
1.5
  0
CIRCLE
  5
374
330
1F
100
AcDbEntity
  8
Default
  6
Continuous
 62
     7
100
AcDbCircle
 10
553.4291313108
 20
386.2422436139
 30
0.0
 40
1.5
  0
CIRCLE
  5
375
330
1F
100
AcDbEntity
  8
Default
  6
Continuous
 62
     7
100
AcDbCircle
 10
553.4291313108
 20
377.2422436139
 30
0.0
 40
1.5
  0
CIRCLE
  5
376
330
1F
100
AcDbEntity
  8
Default
  6
Continuous
 62
     7
100
AcDbCircle
 10
553.4291313108
 20
368.2422436139
 30
0.0
 40
1.5
  0
CIRCLE
  5
377
330
1F
100
AcDbEntity
  8
Default
  6
Continuous
 62
     7
100
AcDbCircle
 10
553.4291313108
 20
359.2422436139
 30
0.0
 40
1.5
  0
CIRCLE
  5
378
330
1F
100
AcDbEntity
  8
Default
  6
Continuous
 62
     7
100
AcDbCircle
 10
553.4291313108
 20
350.2422436139
 30
0.0
 40
1.5
  0
CIRCLE
  5
379
330
1F
100
AcDbEntity
  8
Default
  6
Continuous
 62
     7
100
AcDbCircle
 10
553.4291313108
 20
341.2422436139
 30
0.0
 40
1.5
  0
CIRCLE
  5
37A
330
1F
100
AcDbEntity
  8
Default
  6
Continuous
 62
     7
100
AcDbCircle
 10
553.4291313108
 20
332.2422436139
 30
0.0
 40
1.5
  0
CIRCLE
  5
37B
330
1F
100
AcDbEntity
  8
Default
  6
Continuous
 62
     7
100
AcDbCircle
 10
553.4291313108
 20
323.2422436139
 30
0.0
 40
1.5
  0
CIRCLE
  5
37C
330
1F
100
AcDbEntity
  8
Default
  6
Continuous
 62
     7
100
AcDbCircle
 10
553.4291313108
 20
314.2422436139
 30
0.0
 40
1.5
  0
CIRCLE
  5
37D
330
1F
100
AcDbEntity
  8
Default
  6
Continuous
 62
     7
100
AcDbCircle
 10
553.4291313108
 20
305.2422436139
 30
0.0
 40
1.5
  0
CIRCLE
  5
37E
330
1F
100
AcDbEntity
  8
Default
  6
Continuous
 62
     7
100
AcDbCircle
 10
562.4291313108
 20
467.2422436139
 30
0.0
 40
1.5
  0
CIRCLE
  5
37F
330
1F
100
AcDbEntity
  8
Default
  6
Continuous
 62
     7
100
AcDbCircle
 10
562.4291313108
 20
458.2422436139
 30
0.0
 40
1.5
  0
CIRCLE
  5
380
330
1F
100
AcDbEntity
  8
Default
  6
Continuous
 62
     7
100
AcDbCircle
 10
562.4291313108
 20
449.2422436139
 30
0.0
 40
1.5
  0
CIRCLE
  5
381
330
1F
100
AcDbEntity
  8
Default
  6
Continuous
 62
     7
100
AcDbCircle
 10
562.4291313108
 20
440.2422436139
 30
0.0
 40
1.5
  0
CIRCLE
  5
382
330
1F
100
AcDbEntity
  8
Default
  6
Continuous
 62
     7
100
AcDbCircle
 10
562.4291313108
 20
431.2422436139
 30
0.0
 40
1.5
  0
CIRCLE
  5
383
330
1F
100
AcDbEntity
  8
Default
  6
Continuous
 62
     7
100
AcDbCircle
 10
562.4291313108
 20
422.2422436139
 30
0.0
 40
1.5
  0
CIRCLE
  5
384
330
1F
100
AcDbEntity
  8
Default
  6
Continuous
 62
     7
100
AcDbCircle
 10
562.4291313108
 20
413.2422436139
 30
0.0
 40
1.5
  0
CIRCLE
  5
385
330
1F
100
AcDbEntity
  8
Default
  6
Continuous
 62
     7
100
AcDbCircle
 10
562.4291313108
 20
404.2422436139
 30
0.0
 40
1.5
  0
CIRCLE
  5
386
330
1F
100
AcDbEntity
  8
Default
  6
Continuous
 62
     7
100
AcDbCircle
 10
562.4291313108
 20
395.2422436139
 30
0.0
 40
1.5
  0
CIRCLE
  5
387
330
1F
100
AcDbEntity
  8
Default
  6
Continuous
 62
     7
100
AcDbCircle
 10
562.4291313108
 20
386.2422436139
 30
0.0
 40
1.5
  0
CIRCLE
  5
388
330
1F
100
AcDbEntity
  8
Default
  6
Continuous
 62
     7
100
AcDbCircle
 10
562.4291313108
 20
377.2422436139
 30
0.0
 40
1.5
  0
CIRCLE
  5
389
330
1F
100
AcDbEntity
  8
Default
  6
Continuous
 62
     7
100
AcDbCircle
 10
562.4291313108
 20
368.2422436139
 30
0.0
 40
1.5
  0
CIRCLE
  5
38A
330
1F
100
AcDbEntity
  8
Default
  6
Continuous
 62
     7
100
AcDbCircle
 10
562.4291313108
 20
359.2422436139
 30
0.0
 40
1.5
  0
CIRCLE
  5
38B
330
1F
100
AcDbEntity
  8
Default
  6
Continuous
 62
     7
100
AcDbCircle
 10
562.4291313108
 20
350.2422436139
 30
0.0
 40
1.5
  0
CIRCLE
  5
38C
330
1F
100
AcDbEntity
  8
Default
  6
Continuous
 62
     7
100
AcDbCircle
 10
562.4291313108
 20
341.2422436139
 30
0.0
 40
1.5
  0
CIRCLE
  5
38D
330
1F
100
AcDbEntity
  8
Default
  6
Continuous
 62
     7
100
AcDbCircle
 10
562.4291313108
 20
332.2422436139
 30
0.0
 40
1.5
  0
CIRCLE
  5
38E
330
1F
100
AcDbEntity
  8
Default
  6
Continuous
 62
     7
100
AcDbCircle
 10
562.4291313108
 20
323.2422436139
 30
0.0
 40
1.5
  0
CIRCLE
  5
38F
330
1F
100
AcDbEntity
  8
Default
  6
Continuous
 62
     7
100
AcDbCircle
 10
562.4291313108
 20
314.2422436139
 30
0.0
 40
1.5
  0
CIRCLE
  5
390
330
1F
100
AcDbEntity
  8
Default
  6
Continuous
 62
     7
100
AcDbCircle
 10
562.4291313108
 20
305.2422436139
 30
0.0
 40
1.5
  0
CIRCLE
  5
391
330
1F
100
AcDbEntity
  8
Default
  6
Continuous
 62
     7
100
AcDbCircle
 10
526.4291313108
 20
296.2422436139
 30
0.0
 40
1.5
  0
CIRCLE
  5
392
330
1F
100
AcDbEntity
  8
Default
  6
Continuous
 62
     7
100
AcDbCircle
 10
526.4291313108
 20
287.2422436139
 30
0.0
 40
1.5
  0
CIRCLE
  5
393
330
1F
100
AcDbEntity
  8
Default
  6
Continuous
 62
     7
100
AcDbCircle
 10
526.4291313108
 20
278.2422436139
 30
0.0
 40
1.5
  0
CIRCLE
  5
394
330
1F
100
AcDbEntity
  8
Default
  6
Continuous
 62
     7
100
AcDbCircle
 10
535.4291313108
 20
296.2422436139
 30
0.0
 40
1.5
  0
CIRCLE
  5
395
330
1F
100
AcDbEntity
  8
Default
  6
Continuous
 62
     7
100
AcDbCircle
 10
535.4291313108
 20
287.2422436139
 30
0.0
 40
1.5
  0
CIRCLE
  5
396
330
1F
100
AcDbEntity
  8
Default
  6
Continuous
 62
     7
100
AcDbCircle
 10
535.4291313108
 20
278.2422436139
 30
0.0
 40
1.5
  0
CIRCLE
  5
397
330
1F
100
AcDbEntity
  8
Default
  6
Continuous
 62
     7
100
AcDbCircle
 10
544.4291313108
 20
296.2422436139
 30
0.0
 40
1.5
  0
CIRCLE
  5
398
330
1F
100
AcDbEntity
  8
Default
  6
Continuous
 62
     7
100
AcDbCircle
 10
544.4291313108
 20
287.2422436139
 30
0.0
 40
1.5
  0
CIRCLE
  5
399
330
1F
100
AcDbEntity
  8
Default
  6
Continuous
 62
     7
100
AcDbCircle
 10
544.4291313108
 20
278.2422436139
 30
0.0
 40
1.5
  0
CIRCLE
  5
39A
330
1F
100
AcDbEntity
  8
Default
  6
Continuous
 62
     7
100
AcDbCircle
 10
553.4291313108
 20
296.2422436139
 30
0.0
 40
1.5
  0
CIRCLE
  5
39B
330
1F
100
AcDbEntity
  8
Default
  6
Continuous
 62
     7
100
AcDbCircle
 10
553.4291313108
 20
287.2422436139
 30
0.0
 40
1.5
  0
CIRCLE
  5
39C
330
1F
100
AcDbEntity
  8
Default
  6
Continuous
 62
     7
100
AcDbCircle
 10
553.4291313108
 20
278.2422436139
 30
0.0
 40
1.5
  0
CIRCLE
  5
39D
330
1F
100
AcDbEntity
  8
Default
  6
Continuous
 62
     7
100
AcDbCircle
 10
562.4291313108
 20
296.2422436139
 30
0.0
 40
1.5
  0
CIRCLE
  5
39E
330
1F
100
AcDbEntity
  8
Default
  6
Continuous
 62
     7
100
AcDbCircle
 10
562.4291313108
 20
287.2422436139
 30
0.0
 40
1.5
  0
CIRCLE
  5
39F
330
1F
100
AcDbEntity
  8
Default
  6
Continuous
 62
     7
100
AcDbCircle
 10
562.4291313108
 20
278.2422436139
 30
0.0
 40
1.5
  0
CIRCLE
  5
3A0
330
1F
100
AcDbEntity
  8
Default
  6
Continuous
 62
     7
100
AcDbCircle
 10
526.4291313108
 20
269.2422436139
 30
0.0
 40
1.5
  0
CIRCLE
  5
3A1
330
1F
100
AcDbEntity
  8
Default
  6
Continuous
 62
     7
100
AcDbCircle
 10
526.4291313108
 20
260.2422436139
 30
0.0
 40
1.5
  0
CIRCLE
  5
3A2
330
1F
100
AcDbEntity
  8
Default
  6
Continuous
 62
     7
100
AcDbCircle
 10
526.4291313108
 20
251.2422436139
 30
0.0
 40
1.5
  0
CIRCLE
  5
3A3
330
1F
100
AcDbEntity
  8
Default
  6
Continuous
 62
     7
100
AcDbCircle
 10
535.4291313108
 20
269.2422436139
 30
0.0
 40
1.5
  0
CIRCLE
  5
3A4
330
1F
100
AcDbEntity
  8
Default
  6
Continuous
 62
     7
100
AcDbCircle
 10
535.4291313108
 20
260.2422436139
 30
0.0
 40
1.5
  0
CIRCLE
  5
3A5
330
1F
100
AcDbEntity
  8
Default
  6
Continuous
 62
     7
100
AcDbCircle
 10
535.4291313108
 20
251.2422436139
 30
0.0
 40
1.5
  0
CIRCLE
  5
3A6
330
1F
100
AcDbEntity
  8
Default
  6
Continuous
 62
     7
100
AcDbCircle
 10
544.4291313108
 20
269.2422436139
 30
0.0
 40
1.5
  0
CIRCLE
  5
3A7
330
1F
100
AcDbEntity
  8
Default
  6
Continuous
 62
     7
100
AcDbCircle
 10
544.4291313108
 20
260.2422436139
 30
0.0
 40
1.5
  0
CIRCLE
  5
3A8
330
1F
100
AcDbEntity
  8
Default
  6
Continuous
 62
     7
100
AcDbCircle
 10
544.4291313108
 20
251.2422436139
 30
0.0
 40
1.5
  0
CIRCLE
  5
3A9
330
1F
100
AcDbEntity
  8
Default
  6
Continuous
 62
     7
100
AcDbCircle
 10
553.4291313108
 20
269.2422436139
 30
0.0
 40
1.5
  0
CIRCLE
  5
3AA
330
1F
100
AcDbEntity
  8
Default
  6
Continuous
 62
     7
100
AcDbCircle
 10
553.4291313108
 20
260.2422436139
 30
0.0
 40
1.5
  0
CIRCLE
  5
3AB
330
1F
100
AcDbEntity
  8
Default
  6
Continuous
 62
     7
100
AcDbCircle
 10
553.4291313108
 20
251.2422436139
 30
0.0
 40
1.5
  0
CIRCLE
  5
3AC
330
1F
100
AcDbEntity
  8
Default
  6
Continuous
 62
     7
100
AcDbCircle
 10
562.4291313108
 20
269.2422436139
 30
0.0
 40
1.5
  0
CIRCLE
  5
3AD
330
1F
100
AcDbEntity
  8
Default
  6
Continuous
 62
     7
100
AcDbCircle
 10
562.4291313108
 20
260.2422436139
 30
0.0
 40
1.5
  0
CIRCLE
  5
3AE
330
1F
100
AcDbEntity
  8
Default
  6
Continuous
 62
     7
100
AcDbCircle
 10
562.4291313108
 20
251.2422436139
 30
0.0
 40
1.5
  0
CIRCLE
  5
3AF
330
1F
100
AcDbEntity
  8
Default
  6
Continuous
 62
     7
100
AcDbCircle
 10
571.4291313108
 20
467.2422436139
 30
0.0
 40
1.5
  0
CIRCLE
  5
3B0
330
1F
100
AcDbEntity
  8
Default
  6
Continuous
 62
     7
100
AcDbCircle
 10
571.4291313108
 20
458.2422436139
 30
0.0
 40
1.5
  0
CIRCLE
  5
3B1
330
1F
100
AcDbEntity
  8
Default
  6
Continuous
 62
     7
100
AcDbCircle
 10
571.4291313108
 20
449.2422436139
 30
0.0
 40
1.5
  0
CIRCLE
  5
3B2
330
1F
100
AcDbEntity
  8
Default
  6
Continuous
 62
     7
100
AcDbCircle
 10
571.4291313108
 20
440.2422436139
 30
0.0
 40
1.5
  0
CIRCLE
  5
3B3
330
1F
100
AcDbEntity
  8
Default
  6
Continuous
 62
     7
100
AcDbCircle
 10
571.4291313108
 20
431.2422436139
 30
0.0
 40
1.5
  0
CIRCLE
  5
3B4
330
1F
100
AcDbEntity
  8
Default
  6
Continuous
 62
     7
100
AcDbCircle
 10
571.4291313108
 20
422.2422436139
 30
0.0
 40
1.5
  0
CIRCLE
  5
3B5
330
1F
100
AcDbEntity
  8
Default
  6
Continuous
 62
     7
100
AcDbCircle
 10
571.4291313108
 20
413.2422436139
 30
0.0
 40
1.5
  0
CIRCLE
  5
3B6
330
1F
100
AcDbEntity
  8
Default
  6
Continuous
 62
     7
100
AcDbCircle
 10
571.4291313108
 20
404.2422436139
 30
0.0
 40
1.5
  0
CIRCLE
  5
3B7
330
1F
100
AcDbEntity
  8
Default
  6
Continuous
 62
     7
100
AcDbCircle
 10
571.4291313108
 20
395.2422436139
 30
0.0
 40
1.5
  0
CIRCLE
  5
3B8
330
1F
100
AcDbEntity
  8
Default
  6
Continuous
 62
     7
100
AcDbCircle
 10
571.4291313108
 20
386.2422436139
 30
0.0
 40
1.5
  0
CIRCLE
  5
3B9
330
1F
100
AcDbEntity
  8
Default
  6
Continuous
 62
     7
100
AcDbCircle
 10
571.4291313108
 20
377.2422436139
 30
0.0
 40
1.5
  0
CIRCLE
  5
3BA
330
1F
100
AcDbEntity
  8
Default
  6
Continuous
 62
     7
100
AcDbCircle
 10
571.4291313108
 20
368.2422436139
 30
0.0
 40
1.5
  0
CIRCLE
  5
3BB
330
1F
100
AcDbEntity
  8
Default
  6
Continuous
 62
     7
100
AcDbCircle
 10
571.4291313108
 20
359.2422436139
 30
0.0
 40
1.5
  0
CIRCLE
  5
3BC
330
1F
100
AcDbEntity
  8
Default
  6
Continuous
 62
     7
100
AcDbCircle
 10
571.4291313108
 20
350.2422436139
 30
0.0
 40
1.5
  0
CIRCLE
  5
3BD
330
1F
100
AcDbEntity
  8
Default
  6
Continuous
 62
     7
100
AcDbCircle
 10
571.4291313108
 20
341.2422436139
 30
0.0
 40
1.5
  0
CIRCLE
  5
3BE
330
1F
100
AcDbEntity
  8
Default
  6
Continuous
 62
     7
100
AcDbCircle
 10
571.4291313108
 20
332.2422436139
 30
0.0
 40
1.5
  0
CIRCLE
  5
3BF
330
1F
100
AcDbEntity
  8
Default
  6
Continuous
 62
     7
100
AcDbCircle
 10
571.4291313108
 20
323.2422436139
 30
0.0
 40
1.5
  0
CIRCLE
  5
3C0
330
1F
100
AcDbEntity
  8
Default
  6
Continuous
 62
     7
100
AcDbCircle
 10
571.4291313108
 20
314.2422436139
 30
0.0
 40
1.5
  0
CIRCLE
  5
3C1
330
1F
100
AcDbEntity
  8
Default
  6
Continuous
 62
     7
100
AcDbCircle
 10
571.4291313108
 20
305.2422436139
 30
0.0
 40
1.5
  0
CIRCLE
  5
3C2
330
1F
100
AcDbEntity
  8
Default
  6
Continuous
 62
     7
100
AcDbCircle
 10
580.4291313108
 20
467.2422436139
 30
0.0
 40
1.5
  0
CIRCLE
  5
3C3
330
1F
100
AcDbEntity
  8
Default
  6
Continuous
 62
     7
100
AcDbCircle
 10
580.4291313108
 20
458.2422436139
 30
0.0
 40
1.5
  0
CIRCLE
  5
3C4
330
1F
100
AcDbEntity
  8
Default
  6
Continuous
 62
     7
100
AcDbCircle
 10
580.4291313108
 20
449.2422436139
 30
0.0
 40
1.5
  0
CIRCLE
  5
3C5
330
1F
100
AcDbEntity
  8
Default
  6
Continuous
 62
     7
100
AcDbCircle
 10
580.4291313108
 20
440.2422436139
 30
0.0
 40
1.5
  0
CIRCLE
  5
3C6
330
1F
100
AcDbEntity
  8
Default
  6
Continuous
 62
     7
100
AcDbCircle
 10
580.4291313108
 20
431.2422436139
 30
0.0
 40
1.5
  0
CIRCLE
  5
3C7
330
1F
100
AcDbEntity
  8
Default
  6
Continuous
 62
     7
100
AcDbCircle
 10
580.4291313108
 20
422.2422436139
 30
0.0
 40
1.5
  0
CIRCLE
  5
3C8
330
1F
100
AcDbEntity
  8
Default
  6
Continuous
 62
     7
100
AcDbCircle
 10
580.4291313108
 20
413.2422436139
 30
0.0
 40
1.5
  0
CIRCLE
  5
3C9
330
1F
100
AcDbEntity
  8
Default
  6
Continuous
 62
     7
100
AcDbCircle
 10
580.4291313108
 20
404.2422436139
 30
0.0
 40
1.5
  0
CIRCLE
  5
3CA
330
1F
100
AcDbEntity
  8
Default
  6
Continuous
 62
     7
100
AcDbCircle
 10
580.4291313108
 20
395.2422436139
 30
0.0
 40
1.5
  0
CIRCLE
  5
3CB
330
1F
100
AcDbEntity
  8
Default
  6
Continuous
 62
     7
100
AcDbCircle
 10
580.4291313108
 20
386.2422436139
 30
0.0
 40
1.5
  0
CIRCLE
  5
3CC
330
1F
100
AcDbEntity
  8
Default
  6
Continuous
 62
     7
100
AcDbCircle
 10
580.4291313108
 20
377.2422436139
 30
0.0
 40
1.5
  0
CIRCLE
  5
3CD
330
1F
100
AcDbEntity
  8
Default
  6
Continuous
 62
     7
100
AcDbCircle
 10
580.4291313108
 20
368.2422436139
 30
0.0
 40
1.5
  0
CIRCLE
  5
3CE
330
1F
100
AcDbEntity
  8
Default
  6
Continuous
 62
     7
100
AcDbCircle
 10
580.4291313108
 20
359.2422436139
 30
0.0
 40
1.5
  0
CIRCLE
  5
3CF
330
1F
100
AcDbEntity
  8
Default
  6
Continuous
 62
     7
100
AcDbCircle
 10
580.4291313108
 20
350.2422436139
 30
0.0
 40
1.5
  0
CIRCLE
  5
3D0
330
1F
100
AcDbEntity
  8
Default
  6
Continuous
 62
     7
100
AcDbCircle
 10
580.4291313108
 20
341.2422436139
 30
0.0
 40
1.5
  0
CIRCLE
  5
3D1
330
1F
100
AcDbEntity
  8
Default
  6
Continuous
 62
     7
100
AcDbCircle
 10
580.4291313108
 20
332.2422436139
 30
0.0
 40
1.5
  0
CIRCLE
  5
3D2
330
1F
100
AcDbEntity
  8
Default
  6
Continuous
 62
     7
100
AcDbCircle
 10
580.4291313108
 20
323.2422436139
 30
0.0
 40
1.5
  0
CIRCLE
  5
3D3
330
1F
100
AcDbEntity
  8
Default
  6
Continuous
 62
     7
100
AcDbCircle
 10
580.4291313108
 20
314.2422436139
 30
0.0
 40
1.5
  0
CIRCLE
  5
3D4
330
1F
100
AcDbEntity
  8
Default
  6
Continuous
 62
     7
100
AcDbCircle
 10
580.4291313108
 20
305.2422436139
 30
0.0
 40
1.5
  0
CIRCLE
  5
3D5
330
1F
100
AcDbEntity
  8
Default
  6
Continuous
 62
     7
100
AcDbCircle
 10
571.4291313108
 20
296.2422436139
 30
0.0
 40
1.5
  0
CIRCLE
  5
3D6
330
1F
100
AcDbEntity
  8
Default
  6
Continuous
 62
     7
100
AcDbCircle
 10
571.4291313108
 20
287.2422436139
 30
0.0
 40
1.5
  0
CIRCLE
  5
3D7
330
1F
100
AcDbEntity
  8
Default
  6
Continuous
 62
     7
100
AcDbCircle
 10
571.4291313108
 20
278.2422436139
 30
0.0
 40
1.5
  0
CIRCLE
  5
3D8
330
1F
100
AcDbEntity
  8
Default
  6
Continuous
 62
     7
100
AcDbCircle
 10
580.4291313108
 20
296.2422436139
 30
0.0
 40
1.5
  0
CIRCLE
  5
3D9
330
1F
100
AcDbEntity
  8
Default
  6
Continuous
 62
     7
100
AcDbCircle
 10
580.4291313108
 20
287.2422436139
 30
0.0
 40
1.5
  0
CIRCLE
  5
3DA
330
1F
100
AcDbEntity
  8
Default
  6
Continuous
 62
     7
100
AcDbCircle
 10
580.4291313108
 20
278.2422436139
 30
0.0
 40
1.5
  0
CIRCLE
  5
3DB
330
1F
100
AcDbEntity
  8
Default
  6
Continuous
 62
     7
100
AcDbCircle
 10
571.4291313108
 20
269.2422436139
 30
0.0
 40
1.5
  0
CIRCLE
  5
3DC
330
1F
100
AcDbEntity
  8
Default
  6
Continuous
 62
     7
100
AcDbCircle
 10
571.4291313108
 20
260.2422436139
 30
0.0
 40
1.5
  0
CIRCLE
  5
3DD
330
1F
100
AcDbEntity
  8
Default
  6
Continuous
 62
     7
100
AcDbCircle
 10
571.4291313108
 20
251.2422436139
 30
0.0
 40
1.5
  0
CIRCLE
  5
3DE
330
1F
100
AcDbEntity
  8
Default
  6
Continuous
 62
     7
100
AcDbCircle
 10
580.4291313108
 20
269.2422436139
 30
0.0
 40
1.5
  0
CIRCLE
  5
3DF
330
1F
100
AcDbEntity
  8
Default
  6
Continuous
 62
     7
100
AcDbCircle
 10
580.4291313108
 20
260.2422436139
 30
0.0
 40
1.5
  0
CIRCLE
  5
3E0
330
1F
100
AcDbEntity
  8
Default
  6
Continuous
 62
     7
100
AcDbCircle
 10
580.4291313108
 20
251.2422436139
 30
0.0
 40
1.5
  0
ENDSEC
  0
SECTION
  2
OBJECTS
  0
DICTIONARY
  5
C
330
0
100
AcDbDictionary
281
     1
  3
ACAD_GROUP
350
D
  3
ACAD_LAYOUT
350
1A
  3
ACAD_MLEADERSTYLE
350
3E3
  3
ACAD_MLINESTYLE
350
17
  3
ACAD_PLOTSETTINGS
350
19
  3
ACAD_PLOTSTYLENAME
350
E
  3
ACAD_VISUALSTYLE
350
2A
  3
AcDbVariableDictionary
350
3E1
  0
DICTIONARY
  5
D
102
{ACAD_REACTORS
330
C
102
}
330
C
100
AcDbDictionary
281
     1
  0
DICTIONARY
  5
1A
102
{ACAD_REACTORS
330
C
102
}
330
C
100
AcDbDictionary
281
     1
  3
Layout1
350
1E
  3
Model
350
22
  0
DICTIONARY
  5
3E3
102
{ACAD_REACTORS
330
C
102
}
330
C
100
AcDbDictionary
281
     1
  0
DICTIONARY
  5
17
102
{ACAD_REACTORS
330
C
102
}
330
C
100
AcDbDictionary
281
     1
  3
Standard
350
18
  0
DICTIONARY
  5
19
102
{ACAD_REACTORS
330
C
102
}
330
C
100
AcDbDictionary
281
     1
  0
ACDBDICTIONARYWDFLT
  5
E
102
{ACAD_REACTORS
330
C
102
}
330
C
100
AcDbDictionary
281
     1
  3
Normal
350
F
100
AcDbDictionaryWithDefault
340
F
  0
DICTIONARY
  5
2A
102
{ACAD_REACTORS
330
C
102
}
330
C
100
AcDbDictionary
281
     1
  3
2dWireframe
350
2F
  3
3D Hidden
350
31
  3
3dWireframe
350
30
  3
Basic
350
32
  3
Brighten
350
36
  3
ColorChange
350
3A
  3
Conceptual
350
34
  3
Dim
350
35
  3
Facepattern
350
39
  3
Flat
350
2B
  3
FlatWithEdges
350
2C
  3
Gouraud
350
2D
  3
GouraudWithEdges
350
2E
  3
Linepattern
350
38
  3
Realistic
350
33
  3
Thicken
350
37
  0
DICTIONARY
  5
3E1
102
{ACAD_REACTORS
330
C
102
}
330
C
100
AcDbDictionary
281
     1
  3
PSOLHEIGHT
350
3E5
  3
PSOLWIDTH
350
3E4
  0
LAYOUT
  5
1E
102
{ACAD_REACTORS
330
1A
102
}
330
1A
100
AcDbPlotSettings
  1

  2
none_device
  4

  6

 40
0.0
 41
0.0
 42
0.0
 43
0.0
 44
0.0
 45
0.0
 46
0.0
 47
0.0
 48
0.0
 49
0.0
140
0.0
141
0.0
142
1.0
143
1.0
 70
   688
 72
     0
 73
     0
 74
     5
  7

 75
    16
147
1.0
148
0.0
149
0.0
100
AcDbLayout
  1
Layout1
 70
     1
 71
     1
 10
0.0
 20
0.0
 11
594.0
 21
420.0
 12
0.0
 22
0.0
 32
0.0
 14
0.0
 24
0.0
 34
0.0
 15
594.0
 25
420.0
 35
0.0
146
0.0
 13
0.0
 23
0.0
 33
0.0
 16
1.0
 26
0.0
 36
0.0
 17
0.0
 27
1.0
 37
0.0
 76
     0
330
1B
  0
LAYOUT
  5
22
102
{ACAD_REACTORS
330
1A
102
}
330
1A
100
AcDbPlotSettings
  1

  2
none_device
  4

  6

 40
0.0
 41
0.0
 42
0.0
 43
0.0
 44
0.0
 45
0.0
 46
0.0
 47
0.0
 48
0.0
 49
0.0
140
0.0
141
0.0
142
1.0
143
1.0
 70
  1712
 72
     0
 73
     0
 74
     0
  7

 75
     0
147
1.0
148
0.0
149
0.0
100
AcDbLayout
  1
Model
 70
     1
 71
     0
 10
0.0
 20
0.0
 11
594.0
 21
420.0
 12
0.0
 22
0.0
 32
0.0
 14
0.0
 24
0.0
 34
0.0
 15
594.0
 25
420.0
 35
0.0
146
0.0
 13
0.0
 23
0.0
 33
0.0
 16
1.0
 26
0.0
 36
0.0
 17
0.0
 27
1.0
 37
0.0
 76
     0
330
1F
331
29
  0
MLINESTYLE
  5
18
102
{ACAD_REACTORS
330
17
102
}
330
17
100
AcDbMlineStyle
  2
Standard
 70
     0
  3

 62
   256
 51
90.0
 52
90.0
 71
     2
 49
0.5
 62
   256
  6
BYLAYER
 49
-0.5
 62
   256
  6
BYLAYER
  0
ACDBPLACEHOLDER
  5
F
102
{ACAD_REACTORS
330
E
102
}
330
E
  0
VISUALSTYLE
  5
2F
102
{ACAD_REACTORS
330
2A
102
}
330
2A
100
AcDbVisualStyle
  2
2dWireframe
 70
     4
 71
     0
 72
     2
 73
     0
 90
        0
 40
-0.6
 41
-30.0
 62
     5
 63
     7
 74
     1
 91
        4
 64
     7
 65
   257
 75
     1
175
     1
 42
1.0
 92
        0
 66
   257
 43
1.0
 76
     1
 77
     6
 78
     2
 67
     7
 79
     5
170
     0
171
     0
290
     0
174
     0
 93
        1
 44
0.0
173
     0
291
     0
 45
0.0
1001
ACAD
1000
AcDbSavedByObjectVersion
1070
     0
  0
VISUALSTYLE
  5
31
102
{ACAD_REACTORS
330
2A
102
}
330
2A
100
AcDbVisualStyle
  2
3D Hidden
 70
     6
 71
     1
 72
     2
 73
     2
 90
        0
 40
-0.6
 41
-30.0
 62
     5
 63
     7
 74
     2
 91
        2
 64
     7
 65
   257
 75
     2
175
     1
 42
40.0
 92
        0
 66
   257
 43
1.0
 76
     1
 77
     6
 78
     2
 67
     7
 79
     3
170
     0
171
     0
290
     0
174
     0
 93
        1
 44
0.0
173
     0
291
     0
 45
0.0
1001
ACAD
1000
AcDbSavedByObjectVersion
1070
     0
  0
VISUALSTYLE
  5
30
102
{ACAD_REACTORS
330
2A
102
}
330
2A
100
AcDbVisualStyle
  2
3dWireframe
 70
     5
 71
     0
 72
     2
 73
     0
 90
        0
 40
-0.6
 41
-30.0
 62
     5
 63
     7
 74
     1
 91
        4
 64
     7
 65
   257
 75
     1
175
     1
 42
1.0
 92
        0
 66
   257
 43
1.0
 76
     1
 77
     6
 78
     2
 67
     7
 79
     5
170
     0
171
     0
290
     0
174
     0
 93
        1
 44
0.0
173
     0
291
     0
 45
0.0
1001
ACAD
1000
AcDbSavedByObjectVersion
1070
     0
  0
VISUALSTYLE
  5
32
102
{ACAD_REACTORS
330
2A
102
}
330
2A
100
AcDbVisualStyle
  2
Basic
 70
     7
 71
     1
 72
     0
 73
     1
 90
        0
 40
-0.6
 41
-30.0
 62
     5
 63
     7
 74
     0
 91
        4
 64
     7
 65
   257
 75
     1
175
     1
 42
1.0
 92
        8
 66
     7
 43
1.0
 76
     1
 77
     6
 78
     2
 67
     7
 79
     5
170
     0
171
     0
290
     0
174
     0
 93
        1
 44
0.0
173
     0
291
     1
 45
0.0
1001
ACAD
1000
AcDbSavedByObjectVersion
1070
     0
  0
VISUALSTYLE
  5
36
102
{ACAD_REACTORS
330
2A
102
}
330
2A
100
AcDbVisualStyle
  2
Brighten
 70
    12
 71
     2
 72
     2
 73
     0
 90
        0
 40
-0.6
 41
-30.0
 62
     5
 63
     7
 74
     1
 91
        4
 64
     7
 65
   257
 75
     1
175
     1
 42
1.0
 92
        8
 66
     7
 43
1.0
 76
     1
 77
     6
 78
     2
 67
     7
 79
     5
170
     0
171
     0
290
     0
174
     0
 93
        1
 44
50.0
173
     0
291
     1
 45
0.0
1001
ACAD
1000
AcDbSavedByObjectVersion
1070
     0
  0
VISUALSTYLE
  5
3A
102
{ACAD_REACTORS
330
2A
102
}
330
2A
100
AcDbVisualStyle
  2
ColorChange
 70
    16
 71
     2
 72
     2
 73
     3
 90
        0
 40
-0.6
 41
-30.0
 62
     5
 63
     8
 74
     1
 91
        4
 64
     7
 65
   257
 75
     1
175
     1
 42
1.0
 92
        8
 66
     8
 43
1.0
 76
     1
 77
     6
 78
     2
 67
     7
 79
     5
170
     0
171
     0
290
     0
174
     0
 93
        1
 44
0.0
173
     0
291
     1
 45
0.0
1001
ACAD
1000
AcDbSavedByObjectVersion
1070
     0
  0
VISUALSTYLE
  5
34
102
{ACAD_REACTORS
330
2A
102
}
330
2A
100
AcDbVisualStyle
  2
Conceptual
 70
     9
 71
     3
 72
     2
 73
     0
 90
        0
 40
-0.6
 41
-30.0
 62
     5
 63
     7
 74
     2
 91
        2
 64
     7
 65
   257
 75
     1
175
     1
 42
40.0
 92
        8
 66
     7
 43
1.0
 76
     1
 77
     6
 78
     2
 67
     7
 79
     3
170
     0
171
     0
290
     0
174
     0
 93
        1
 44
0.0
173
     0
291
     0
 45
0.0
1001
ACAD
1000
AcDbSavedByObjectVersion
1070
     0
  0
VISUALSTYLE
  5
35
102
{ACAD_REACTORS
330
2A
102
}
330
2A
100
AcDbVisualStyle
  2
Dim
 70
    11
 71
     2
 72
     2
 73
     0
 90
        0
 40
-0.6
 41
-30.0
 62
     5
 63
     7
 74
     1
 91
        4
 64
     7
 65
   257
 75
     1
175
     1
 42
1.0
 92
        8
 66
     7
 43
1.0
 76
     1
 77
     6
 78
     2
 67
     7
 79
     5
170
     0
171
     0
290
     0
174
     0
 93
        1
 44
-50.0
173
     0
291
     1
 45
0.0
1001
ACAD
1000
AcDbSavedByObjectVersion
1070
     0
  0
VISUALSTYLE
  5
39
102
{ACAD_REACTORS
330
2A
102
}
330
2A
100
AcDbVisualStyle
  2
Facepattern
 70
    15
 71
     2
 72
     2
 73
     0
 90
        0
 40
-0.6
 41
-30.0
 62
     5
 63
     7
 74
     1
 91
        4
 64
     7
 65
   257
 75
     1
175
     1
 42
1.0
 92
        8
 66
     7
 43
1.0
 76
     1
 77
     6
 78
     2
 67
     7
 79
     5
170
     0
171
     0
290
     0
174
     0
 93
        1
 44
0.0
173
     0
291
     1
 45
0.0
1001
ACAD
1000
AcDbSavedByObjectVersion
1070
     0
  0
VISUALSTYLE
  5
2B
102
{ACAD_REACTORS
330
2A
102
}
330
2A
100
AcDbVisualStyle
  2
Flat
 70
     0
 71
     2
 72
     1
 73
     1
 90
        2
 40
-0.6
 41
30.0
 62
     5
 63
     7
 74
     0
 91
        4
 64
     7
 65
   257
 75
     1
175
     1
 42
1.0
 92
        8
 66
     7
 43
1.0
 76
     1
 77
     6
 78
     2
 67
     7
 79
     5
170
     0
171
     0
290
     0
174
     0
 93
       13
 44
0.0
173
     0
291
     1
 45
0.0
1001
ACAD
1000
AcDbSavedByObjectVersion
1070
     0
  0
VISUALSTYLE
  5
2C
102
{ACAD_REACTORS
330
2A
102
}
330
2A
100
AcDbVisualStyle
  2
FlatWithEdges
 70
     1
 71
     2
 72
     1
 73
     1
 90
        2
 40
-0.6
 41
30.0
 62
     5
 63
     7
 74
     1
 91
        4
 64
     7
 65
   257
 75
     1
175
     1
 42
1.0
 92
        0
 66
   257
 43
1.0
 76
     1
 77
     6
 78
     2
 67
     7
 79
     5
170
     0
171
     0
290
     0
174
     0
 93
       13
 44
0.0
173
     0
291
     1
 45
0.0
1001
ACAD
1000
AcDbSavedByObjectVersion
1070
     0
  0
VISUALSTYLE
  5
2D
102
{ACAD_REACTORS
330
2A
102
}
330
2A
100
AcDbVisualStyle
  2
Gouraud
 70
     2
 71
     2
 72
     2
 73
     1
 90
        2
 40
-0.6
 41
30.0
 62
     5
 63
     7
 74
     0
 91
        4
 64
     7
 65
   257
 75
     1
175
     1
 42
1.0
 92
        0
 66
     7
 43
1.0
 76
     1
 77
     6
 78
     2
 67
     7
 79
     5
170
     0
171
     0
290
     0
174
     0
 93
       13
 44
0.0
173
     0
291
     1
 45
0.0
1001
ACAD
1000
AcDbSavedByObjectVersion
1070
     0
  0
VISUALSTYLE
  5
2E
102
{ACAD_REACTORS
330
2A
102
}
330
2A
100
AcDbVisualStyle
  2
GouraudWithEdges
 70
     3
 71
     2
 72
     2
 73
     1
 90
        2
 40
-0.6
 41
30.0
 62
     5
 63
     7
 74
     1
 91
        4
 64
     7
 65
   257
 75
     1
175
     1
 42
1.0
 92
        0
 66
   257
 43
1.0
 76
     1
 77
     6
 78
     2
 67
     7
 79
     5
170
     0
171
     0
290
     0
174
     0
 93
       13
 44
0.0
173
     0
291
     1
 45
0.0
1001
ACAD
1000
AcDbSavedByObjectVersion
1070
     0
  0
VISUALSTYLE
  5
38
102
{ACAD_REACTORS
330
2A
102
}
330
2A
100
AcDbVisualStyle
  2
Linepattern
 70
    14
 71
     2
 72
     2
 73
     0
 90
        0
 40
-0.6
 41
-30.0
 62
     5
 63
     7
 74
     1
 91
        4
 64
     7
 65
   257
 75
     7
175
     7
 42
1.0
 92
        8
 66
     7
 43
1.0
 76
     1
 77
     6
 78
     2
 67
     7
 79
     5
170
     0
171
     0
290
     0
174
     0
 93
        1
 44
0.0
173
     0
291
     1
 45
0.0
1001
ACAD
1000
AcDbSavedByObjectVersion
1070
     0
  0
VISUALSTYLE
  5
33
102
{ACAD_REACTORS
330
2A
102
}
330
2A
100
AcDbVisualStyle
  2
Realistic
 70
     8
 71
     2
 72
     2
 73
     0
 90
        0
 40
-0.6
 41
-30.0
 62
     5
 63
     7
 74
     1
 91
        0
 64
     7
 65
   257
 75
     1
175
     1
 42
1.0
 92
        8
 66
     8
 43
1.0
 76
     1
 77
     6
 78
     2
 67
     7
 79
     5
170
     0
171
     0
290
     0
174
     0
 93
       13
 44
0.0
173
     0
291
     0
 45
0.0
1001
ACAD
1000
AcDbSavedByObjectVersion
1070
     0
  0
VISUALSTYLE
  5
37
102
{ACAD_REACTORS
330
2A
102
}
330
2A
100
AcDbVisualStyle
  2
Thicken
 70
    13
 71
     2
 72
     2
 73
     0
 90
        0
 40
-0.6
 41
-30.0
 62
     5
 63
     7
 74
     1
 91
        4
 64
     7
 65
   257
 75
     1
175
     1
 42
1.0
 92
       12
 66
     7
 43
1.0
 76
     1
 77
     6
 78
     2
 67
     7
 79
     5
170
     0
171
     0
290
     0
174
     0
 93
        1
 44
0.0
173
     0
291
     1
 45
0.0
1001
ACAD
1000
AcDbSavedByObjectVersion
1070
     0
  0
DICTIONARYVAR
  5
3E5
102
{ACAD_REACTORS
330
3E1
102
}
330
3E1
100
DictionaryVariables
280
     0
  1
80.000000
  0
DICTIONARYVAR
  5
3E4
102
{ACAD_REACTORS
330
3E1
102
}
330
3E1
100
DictionaryVariables
280
     0
  1
5.000000
  0
ENDSEC
  0
EOF
