  0
SECTION
  2
HEADER
  9
$ACADVER
  1
AC1015
  9
$ACADMAINTVER
 70
     6
  9
$DWGCODEPAGE
  3
ANSI_1252
  9
$INSBASE
 10
0.0
 20
0.0
 30
0.0
  9
$EXTMIN
 10
0.0
 20
0.0
 30
0.0
  9
$EXTMAX
 10
594.0
 20
420.0
 30
0.0
  9
$LIMMIN
 10
0.0
 20
0.0
  9
$LIMMAX
 10
594.0
 20
420.0
  9
$ORTHOMODE
 70
     0
  9
$REGENMODE
 70
     1
  9
$FILLMODE
 70
     1
  9
$QTEXTMODE
 70
     0
  9
$MIRRTEXT
 70
     1
  9
$LTSCALE
 40
1.0
  9
$ATTMODE
 70
     1
  9
$TEXTSIZE
 40
2.5
  9
$TRACEWID
 40
1.0
  9
$TEXTSTYLE
  7
Standard
  9
$CLAYER
  8
0
  9
$CELTYPE
  6
ByLayer
  9
$CECOLOR
 62
   256
  9
$CELTSCALE
 40
1.0
  9
$DISPSILH
 70
     0
  9
$DIMSCALE
 40
1.0
  9
$DIMASZ
 40
2.5
  9
$DIMEXO
 40
0.625
  9
$DIMDLI
 40
3.75
  9
$DIMRND
 40
0.0
  9
$DIMDLE
 40
0.0
  9
$DIMEXE
 40
1.25
  9
$DIMTP
 40
0.0
  9
$DIMTM
 40
0.0
  9
$DIMTXT
 40
2.5
  9
$DIMCEN
 40
2.5
  9
$DIMTSZ
 40
0.0
  9
$DIMTOL
 70
     0
  9
$DIMLIM
 70
     0
  9
$DIMTIH
 70
     0
  9
$DIMTOH
 70
     0
  9
$DIMSE1
 70
     0
  9
$DIMSE2
 70
     0
  9
$DIMTAD
 70
     1
  9
$DIMZIN
 70
     8
  9
$DIMBLK
  1

  9
$DIMASO
 70
     1
  9
$DIMSHO
 70
     1
  9
$DIMPOST
  1

  9
$DIMAPOST
  1

  9
$DIMALT
 70
     0
  9
$DIMALTD
 70
     3
  9
$DIMALTF
 40
0.0393700787
  9
$DIMLFAC
 40
1.0
  9
$DIMTOFL
 70
     1
  9
$DIMTVP
 40
0.0
  9
$DIMTIX
 70
     0
  9
$DIMSOXD
 70
     0
  9
$DIMSAH
 70
     0
  9
$DIMBLK1
  1

  9
$DIMBLK2
  1

  9
$DIMSTYLE
  2
ISO-25
  9
$DIMCLRD
 70
     0
  9
$DIMCLRE
 70
     0
  9
$DIMCLRT
 70
     0
  9
$DIMTFAC
 40
1.0
  9
$DIMGAP
 40
0.625
  9
$DIMJUST
 70
     0
  9
$DIMSD1
 70
     0
  9
$DIMSD2
 70
     0
  9
$DIMTOLJ
 70
     0
  9
$DIMTZIN
 70
     8
  9
$DIMALTZ
 70
     0
  9
$DIMALTTZ
 70
     0
  9
$DIMUPT
 70
     0
  9
$DIMDEC
 70
     2
  9
$DIMTDEC
 70
     2
  9
$DIMALTU
 70
     2
  9
$DIMALTTD
 70
     3
  9
$DIMTXSTY
  7
Standard
  9
$DIMAUNIT
 70
     0
  9
$DIMADEC
 70
     0
  9
$DIMALTRND
 40
0.0
  9
$DIMAZIN
 70
     0
  9
$DIMDSEP
 70
    44
  9
$DIMATFIT
 70
     3
  9
$DIMFRAC
 70
     0
  9
$DIMLDRBLK
  1

  9
$DIMLUNIT
 70
     2
  9
$DIMLWD
 70
    -2
  9
$DIMLWE
 70
    -2
  9
$DIMTMOVE
 70
     0
  9
$LUNITS
 70
     2
  9
$LUPREC
 70
     4
  9
$SKETCHINC
 40
1.0
  9
$FILLETRAD
 40
10.0
  9
$AUNITS
 70
     0
  9
$AUPREC
 70
     0
  9
$MENU
  1
.
  9
$ELEVATION
 40
0.0
  9
$PELEVATION
 40
0.0
  9
$THICKNESS
 40
0.0
  9
$LIMCHECK
 70
     0
  9
$CHAMFERA
 40
10.0
  9
$CHAMFERB
 40
10.0
  9
$CHAMFERC
 40
20.0
  9
$CHAMFERD
 40
0.0
  9
$SKPOLY
 70
     0
  9
$TDCREATE
 40
2456219.972646528
  9
$TDUCREATE
 40
2456220.097646528
  9
$TDUPDATE
 40
2456219.97264654
  9
$TDUUPDATE
 40
2456220.09764654
  9
$TDINDWG
 40
0.0000000116
  9
$TDUSRTIMER
 40
0.0000000116
  9
$USRTIMER
 70
     1
  9
$ANGBASE
 50
0.0
  9
$ANGDIR
 70
     0
  9
$PDMODE
 70
     0
  9
$PDSIZE
 40
0.0
  9
$PLINEWID
 40
0.0
  9
$SPLFRAME
 70
     0
  9
$SPLINETYPE
 70
     6
  9
$SPLINESEGS
 70
     8
  9
$HANDSEED
  5
BF
  9
$SURFTAB1
 70
     6
  9
$SURFTAB2
 70
     6
  9
$SURFTYPE
 70
     6
  9
$SURFU
 70
     6
  9
$SURFV
 70
     6
  9
$UCSBASE
  2

  9
$UCSNAME
  2

  9
$UCSORG
 10
0.0
 20
0.0
 30
0.0
  9
$UCSXDIR
 10
1.0
 20
0.0
 30
0.0
  9
$UCSYDIR
 10
0.0
 20
1.0
 30
0.0
  9
$UCSORTHOREF
  2

  9
$UCSORTHOVIEW
 70
     0
  9
$UCSORGTOP
 10
0.0
 20
0.0
 30
0.0
  9
$UCSORGBOTTOM
 10
0.0
 20
0.0
 30
0.0
  9
$UCSORGLEFT
 10
0.0
 20
0.0
 30
0.0
  9
$UCSORGRIGHT
 10
0.0
 20
0.0
 30
0.0
  9
$UCSORGFRONT
 10
0.0
 20
0.0
 30
0.0
  9
$UCSORGBACK
 10
0.0
 20
0.0
 30
0.0
  9
$PUCSBASE
  2

  9
$PUCSNAME
  2

  9
$PUCSORG
 10
0.0
 20
0.0
 30
0.0
  9
$PUCSXDIR
 10
1.0
 20
0.0
 30
0.0
  9
$PUCSYDIR
 10
0.0
 20
1.0
 30
0.0
  9
$PUCSORTHOREF
  2

  9
$PUCSORTHOVIEW
 70
     0
  9
$PUCSORGTOP
 10
0.0
 20
0.0
 30
0.0
  9
$PUCSORGBOTTOM
 10
0.0
 20
0.0
 30
0.0
  9
$PUCSORGLEFT
 10
0.0
 20
0.0
 30
0.0
  9
$PUCSORGRIGHT
 10
0.0
 20
0.0
 30
0.0
  9
$PUCSORGFRONT
 10
0.0
 20
0.0
 30
0.0
  9
$PUCSORGBACK
 10
0.0
 20
0.0
 30
0.0
  9
$USERI1
 70
     0
  9
$USERI2
 70
     0
  9
$USERI3
 70
     0
  9
$USERI4
 70
     0
  9
$USERI5
 70
     0
  9
$USERR1
 40
0.0
  9
$USERR2
 40
0.0
  9
$USERR3
 40
0.0
  9
$USERR4
 40
0.0
  9
$USERR5
 40
0.0
  9
$WORLDVIEW
 70
     1
  9
$SHADEDGE
 70
     3
  9
$SHADEDIF
 70
    70
  9
$TILEMODE
 70
     1
  9
$MAXACTVP
 70
    64
  9
$PINSBASE
 10
0.0
 20
0.0
 30
0.0
  9
$PLIMCHECK
 70
     0
  9
$PEXTMIN
 10
0.0
 20
0.0
 30
0.0
  9
$PEXTMAX
 10
594.0
 20
420.0
 30
0.0
  9
$PLIMMIN
 10
0.0
 20
0.0
  9
$PLIMMAX
 10
594.0
 20
420.0
  9
$UNITMODE
 70
     0
  9
$VISRETAIN
 70
     1
  9
$PLINEGEN
 70
     0
  9
$PSLTSCALE
 70
     1
  9
$TREEDEPTH
 70
  3020
  9
$CMLSTYLE
  2
Standard
  9
$CMLJUST
 70
     0
  9
$CMLSCALE
 40
20.0
  9
$PROXYGRAPHICS
 70
     1
  9
$MEASUREMENT
 70
     1
  9
$CELWEIGHT
370
    -1
  9
$ENDCAPS
280
     0
  9
$JOINSTYLE
280
     0
  9
$LWDISPLAY
290
     0
  9
$INSUNITS
 70
     4
  9
$HYPERLINKBASE
  1

  9
$STYLESHEET
  1

  9
$XEDIT
290
     1
  9
$CEPSNTYPE
380
     0
  9
$PSTYLEMODE
290
     1
  9
$FINGERPRINTGUID
  2
{4AA2F949-B715-49B8-9C89-1E69B67C8AF3}
  9
$VERSIONGUID
  2
{FAEB1C32-E019-11D5-929B-00C0DF256EC4}
  9
$EXTNAMES
290
     1
  9
$PSVPSCALE
 40
0.0
  9
$OLESTARTUP
290
     0
  0
ENDSEC
  0
SECTION
  2
CLASSES
  0
CLASS
  1
ACDBDICTIONARYWDFLT
  2
AcDbDictionaryWithDefault
  3
ObjectDBX Classes
 90
        0
280
     0
281
     0
  0
CLASS
  1
VISUALSTYLE
  2
AcDbVisualStyle
  3
ObjectDBX Classes
 90
     4095
280
     0
281
     0
  0
CLASS
  1
DICTIONARYVAR
  2
AcDbDictionaryVar
  3
ObjectDBX Classes
 90
        0
280
     0
281
     0
  0
CLASS
  1
ACDBPLACEHOLDER
  2
AcDbPlaceHolder
  3
ObjectDBX Classes
 90
        0
280
     0
281
     0
  0
CLASS
  1
LAYOUT
  2
AcDbLayout
  3
ObjectDBX Classes
 90
        0
280
     0
281
     0
  0
ENDSEC
  0
SECTION
  2
TABLES
  0
TABLE
  2
VPORT
  5
8
330
0
100
AcDbSymbolTable
 70
     1
  0
VPORT
  5
29
330
8
100
AcDbSymbolTableRecord
100
AcDbViewportTableRecord
  2
*Active
 70
     0
 10
0.0
 20
0.0
 11
1.0
 21
1.0
 12
344.1869158879
 22
148.5
 13
0.0
 23
0.0
 14
10.0
 24
10.0
 15
10.0
 25
10.0
 16
0.0
 26
0.0
 36
1.0
 17
0.0
 27
0.0
 37
0.0
 40
297.0
 41
1.9729729729
 42
50.0
 43
0.0
 44
0.0
 50
0.0
 51
0.0
 71
     0
 72
   100
 73
     1
 74
     3
 75
     0
 76
     0
 77
     0
 78
     0
281
     0
 65
     1
110
0.0
120
0.0
130
0.0
111
1.0
121
0.0
131
0.0
112
0.0
122
1.0
132
0.0
 79
     0
146
0.0
  0
ENDTAB
  0
TABLE
  2
LTYPE
  5
5
330
0
100
AcDbSymbolTable
 70
     1
  0
LTYPE
  5
14
330
5
100
AcDbSymbolTableRecord
100
AcDbLinetypeTableRecord
  2
ByBlock
 70
     0
  3

 72
    65
 73
     0
 40
0.0
  0
LTYPE
  5
15
330
5
100
AcDbSymbolTableRecord
100
AcDbLinetypeTableRecord
  2
ByLayer
 70
     0
  3

 72
    65
 73
     0
 40
0.0
  0
LTYPE
  5
16
330
5
100
AcDbSymbolTableRecord
100
AcDbLinetypeTableRecord
  2
Continuous
 70
     0
  3
Solid line
 72
    65
 73
     0
 40
0.0
  0
ENDTAB
  0
TABLE
  2
LAYER
  5
2
330
0
100
AcDbSymbolTable
 70
     2
  0
LAYER
  5
10
330
2
100
AcDbSymbolTableRecord
100
AcDbLayerTableRecord
  2
0
 70
     0
 62
     7
  6
Continuous
370
    -3
390
F
  0
LAYER
  5
3B
330
2
100
AcDbSymbolTableRecord
100
AcDbLayerTableRecord
  2
Default
 70
     0
 62
     7
  6
Continuous
370
    -3
390
F
  0
ENDTAB
  0
TABLE
  2
STYLE
  5
3
330
0
100
AcDbSymbolTable
 70
     1
  0
STYLE
  5
11
330
3
100
AcDbSymbolTableRecord
100
AcDbTextStyleTableRecord
  2
Standard
 70
     0
 40
0.0
 41
1.0
 50
0.0
 71
     0
 42
2.5
  3
txt
  4

  0
ENDTAB
  0
TABLE
  2
VIEW
  5
6
330
0
100
AcDbSymbolTable
 70
     0
  0
ENDTAB
  0
TABLE
  2
UCS
  5
7
330
0
100
AcDbSymbolTable
 70
     0
  0
ENDTAB
  0
TABLE
  2
APPID
  5
9
330
0
100
AcDbSymbolTable
 70
     1
  0
APPID
  5
12
330
9
100
AcDbSymbolTableRecord
100
AcDbRegAppTableRecord
  2
ACAD
 70
     0
  0
ENDTAB
  0
TABLE
  2
DIMSTYLE
  5
A
330
0
100
AcDbSymbolTable
 70
     1
100
AcDbDimStyleTable
  0
DIMSTYLE
105
27
330
A
100
AcDbSymbolTableRecord
100
AcDbDimStyleTableRecord
  2
ISO-25
 70
     0
 41
2.5
 42
0.625
 43
3.75
 44
1.25
 73
     0
 74
     0
 77
     1
 78
     8
140
2.5
141
2.5
143
0.0393700787
147
0.625
171
     3
172
     1
271
     2
272
     2
274
     3
278
    44
283
     0
284
     8
340
11
  0
ENDTAB
  0
TABLE
  2
BLOCK_RECORD
  5
1
330
0
100
AcDbSymbolTable
 70
     8
  0
BLOCK_RECORD
  5
1F
330
1
100
AcDbSymbolTableRecord
100
AcDbBlockTableRecord
  2
*Model_Space
340
22
  0
BLOCK_RECORD
  5
1B
330
1
100
AcDbSymbolTableRecord
100
AcDbBlockTableRecord
  2
*Paper_Space
340
1E
  0
BLOCK_RECORD
  5
6E
330
1
100
AcDbSymbolTableRecord
100
AcDbBlockTableRecord
  2
SE
340
0
102
{BLKREFS
331
6F
102
}
  0
BLOCK_RECORD
  5
70
330
1
100
AcDbSymbolTableRecord
100
AcDbBlockTableRecord
  2
SE1
340
0
102
{BLKREFS
331
71
102
}
  0
BLOCK_RECORD
  5
7C
330
1
100
AcDbSymbolTableRecord
100
AcDbBlockTableRecord
  2
SE2
340
0
102
{BLKREFS
331
7D
102
}
  0
BLOCK_RECORD
  5
88
330
1
100
AcDbSymbolTableRecord
100
AcDbBlockTableRecord
  2
SE3
340
0
102
{BLKREFS
331
89
102
}
  0
BLOCK_RECORD
  5
94
330
1
100
AcDbSymbolTableRecord
100
AcDbBlockTableRecord
  2
SE4
340
0
102
{BLKREFS
331
95
102
}
  0
BLOCK_RECORD
  5
A0
330
1
100
AcDbSymbolTableRecord
100
AcDbBlockTableRecord
  2
SE5
340
0
102
{BLKREFS
331
A1
102
}
  0
BLOCK_RECORD
  5
AC
330
1
100
AcDbSymbolTableRecord
100
AcDbBlockTableRecord
  2
SE6
340
0
102
{BLKREFS
331
AD
102
}
  0
ENDTAB
  0
ENDSEC
  0
SECTION
  2
BLOCKS
  0
BLOCK
  5
20
330
1F
100
AcDbEntity
  8
0
100
AcDbBlockBegin
  2
*Model_Space
 70
     0
 10
0.0
 20
0.0
 30
0.0
  3
*Model_Space
  1

  0
ENDBLK
  5
21
330
1F
100
AcDbEntity
  8
0
100
AcDbBlockEnd
  0
BLOCK
  5
1C
330
1B
100
AcDbEntity
 67
     1
  8
0
100
AcDbBlockBegin
  2
*Paper_Space
 70
     0
 10
0.0
 20
0.0
 30
0.0
  3
*Paper_Space
  1

  0
ENDBLK
  5
1D
330
1B
100
AcDbEntity
 67
     1
  8
0
100
AcDbBlockEnd
  0
BLOCK
  5
B8
330
6E
100
AcDbEntity
  8
0
100
AcDbBlockBegin
  2
SE
 70
     0
 10
0.0
 20
0.0
 30
0.0
  3
SE
  1

  0
INSERT
  5
71
330
6E
100
AcDbEntity
  8
Default
100
AcDbBlockReference
  2
SE1
 10
0.0
 20
0.0
 30
0.0
  0
INSERT
  5
7D
330
6E
100
AcDbEntity
  8
Default
100
AcDbBlockReference
  2
SE2
 10
0.0
 20
0.0
 30
0.0
  0
INSERT
  5
89
330
6E
100
AcDbEntity
  8
Default
100
AcDbBlockReference
  2
SE3
 10
0.0
 20
0.0
 30
0.0
  0
INSERT
  5
95
330
6E
100
AcDbEntity
  8
Default
100
AcDbBlockReference
  2
SE4
 10
0.0
 20
0.0
 30
0.0
  0
INSERT
  5
A1
330
6E
100
AcDbEntity
  8
Default
100
AcDbBlockReference
  2
SE5
 10
0.0
 20
0.0
 30
0.0
  0
INSERT
  5
AD
330
6E
100
AcDbEntity
  8
Default
100
AcDbBlockReference
  2
SE6
 10
0.0
 20
0.0
 30
0.0
  0
ENDBLK
  5
B9
330
6E
100
AcDbEntity
  8
0
100
AcDbBlockEnd
  0
BLOCK
  5
7A
330
70
100
AcDbEntity
  8
0
100
AcDbBlockBegin
  2
SE1
 70
     0
 10
0.0
 20
0.0
 30
0.0
  3
SE1
  1

  0
LINE
  5
72
330
70
100
AcDbEntity
  8
Default
  6
Continuous
 62
     7
100
AcDbLine
 10
410.4797878416
 20
108.3951382466
 30
0.0
 11
412.0175013269
 21
107.4976884944
 31
0.0
  0
ARC
  5
73
330
70
100
AcDbEntity
  8
Default
  6
Continuous
 62
     7
100
AcDbCircle
 10
406.1205590424
 20
108.5811119136
 30
0.0
 40
1.625
100
AcDbArc
 50
118.2647189392
 51
284.7230855659
  0
ARC
  5
74
330
70
100
AcDbEntity
  8
Default
  6
Continuous
 62
     7
100
AcDbCircle
 10
410.3227572399
 20
110.3684755332
 30
0.0
 40
1.625
100
AcDbArc
 50
59.7230855659
 51
104.7230855659
  0
ARC
  5
75
330
70
100
AcDbEntity
  8
Default
  6
Continuous
 62
     7
100
AcDbCircle
 10
412.8329591514
 20
108.9032679252
 30
0.0
 40
1.625
100
AcDbArc
 50
239.8795033138
 51
61.1284606774
  0
ARC
  5
76
330
70
100
AcDbEntity
  8
Default
  6
Continuous
 62
     7
100
AcDbCircle
 10
410.1356340851
 20
107.6106235984
 30
0.0
 40
0.8566825791219547
100
AcDbArc
 50
66.3137238056
 51
113.0419975732
  0
LINE
  5
77
330
70
100
AcDbEntity
  8
Default
  6
Continuous
 62
     7
100
AcDbLine
 10
411.1420492593
 20
111.7718235253
 30
0.0
 11
413.6763167024
 21
110.2922866585
 31
0.0
  0
LINE
  5
78
330
70
100
AcDbEntity
  8
Default
  6
Continuous
 62
     7
100
AcDbLine
 10
406.5335489812
 20
107.0094680893
 30
0.0
 11
409.8003235979
 21
108.398958501
 31
0.0
  0
LINE
  5
79
330
70
100
AcDbEntity
  8
Default
  6
Continuous
 62
     7
100
AcDbLine
 10
405.3510468784
 20
110.0123617273
 30
0.0
 11
409.909767301
 21
111.9401193575
 31
0.0
  0
ENDBLK
  5
7B
330
70
100
AcDbEntity
  8
0
100
AcDbBlockEnd
  0
BLOCK
  5
86
330
7C
100
AcDbEntity
  8
0
100
AcDbBlockBegin
  2
SE2
 70
     0
 10
0.0
 20
0.0
 30
0.0
  3
SE2
  1

  0
LINE
  5
7E
330
7C
100
AcDbEntity
  8
Default
  6
Continuous
 62
     7
100
AcDbLine
 10
393.018572648
 20
109.6100714021
 30
0.0
 11
394.5646436748
 21
110.493045468
 31
0.0
  0
ARC
  5
7F
330
7C
100
AcDbEntity
  8
Default
  6
Continuous
 62
     7
100
AcDbCircle
 10
390.6779003285
 20
105.9278553545
 30
0.0
 40
1.625
100
AcDbArc
 50
178.2647189392
 51
344.7230855659
  0
ARC
  5
80
330
7C
100
AcDbEntity
  8
Default
  6
Continuous
 62
     7
100
AcDbCircle
 10
391.2310971268
 20
110.4607475551
 30
0.0
 40
1.625
100
AcDbArc
 50
119.7230855659
 51
164.7230855659
  0
ARC
  5
81
330
7C
100
AcDbEntity
  8
Default
  6
Continuous
 62
     7
100
AcDbCircle
 10
393.7551050929
 20
111.9020423751
 30
0.0
 40
1.625
100
AcDbArc
 50
299.8795033137
 51
121.1284606774
  0
ARC
  5
82
330
7C
100
AcDbEntity
  8
Default
  6
Continuous
 62
     7
100
AcDbCircle
 10
393.5259053848
 20
108.919768182
 30
0.0
 40
0.8566825791219547
100
AcDbArc
 50
126.3137238056
 51
173.0419975732
  0
LINE
  5
83
330
7C
100
AcDbEntity
  8
Default
  6
Continuous
 62
     7
100
AcDbLine
 10
390.425408125
 20
111.8719492531
 30
0.0
 11
392.973858359
 21
113.3269208053
 31
0.0
  0
LINE
  5
84
330
7C
100
AcDbEntity
  8
Default
  6
Continuous
 62
     7
100
AcDbLine
 10
392.2454787754
 20
105.4996932209
 30
0.0
 11
392.6755320889
 21
109.0235482332
 31
0.0
  0
LINE
  5
85
330
7C
100
AcDbEntity
  8
Default
  6
Continuous
 62
     7
100
AcDbLine
 10
389.0536455486
 20
105.9770631789
 30
0.0
 11
389.6635186798
 21
110.8889096887
 31
0.0
  0
ENDBLK
  5
87
330
7C
100
AcDbEntity
  8
0
100
AcDbBlockEnd
  0
BLOCK
  5
92
330
88
100
AcDbEntity
  8
0
100
AcDbBlockBegin
  2
SE3
 70
     0
 10
0.0
 20
0.0
 30
0.0
  3
SE3
  1

  0
LINE
  5
8A
330
88
100
AcDbEntity
  8
Default
  6
Continuous
 62
     7
100
AcDbLine
 10
383.2358020748
 20
95.0956820412
 30
0.0
 11
383.2441596162
 21
96.8761058594
 31
0.0
  0
ARC
  5
8B
330
88
100
AcDbEntity
  8
Default
  6
Continuous
 62
     7
100
AcDbCircle
 10
385.2543585543
 20
91.2274923268
 30
0.0
 40
1.625
100
AcDbArc
 50
238.2647189392
 51
44.7230855659
  0
ARC
  5
8C
330
88
100
AcDbEntity
  8
Default
  6
Continuous
 62
     7
100
AcDbCircle
 10
381.6053571552
 20
93.9730209077
 30
0.0
 40
1.625
100
AcDbArc
 50
179.7230855659
 51
224.7230855659
  0
ARC
  5
8D
330
88
100
AcDbEntity
  8
Default
  6
Continuous
 62
     7
100
AcDbCircle
 10
381.6191632098
 20
96.8795233357
 30
0.0
 40
1.625
100
AcDbArc
 50
359.8795033137
 51
181.1284606774
  0
ARC
  5
8E
330
88
100
AcDbEntity
  8
Default
  6
Continuous
 62
     7
100
AcDbCircle
 10
384.087288568
 20
95.1898934694
 30
0.0
 40
0.8566825791219547
100
AcDbArc
 50
186.3137238056
 51
233.0419975732
  0
LINE
  5
8F
330
88
100
AcDbEntity
  8
Default
  6
Continuous
 62
     7
100
AcDbLine
 10
379.980376134
 20
93.9808746136
 30
0.0
 11
379.994558925
 21
96.9153830327
 31
0.0
  0
LINE
  5
90
330
88
100
AcDbEntity
  8
Default
  6
Continuous
 62
     7
100
AcDbLine
 10
386.4089470625
 20
92.3709740175
 30
0.0
 11
383.5722257593
 21
94.5053386181
 31
0.0
  0
LINE
  5
91
330
88
100
AcDbEntity
  8
Default
  6
Continuous
 62
     7
100
AcDbLine
 10
384.3996159384
 20
89.8454503374
 30
0.0
 11
380.4507686471
 21
92.829539217
 31
0.0
  0
ENDBLK
  5
93
330
88
100
AcDbEntity
  8
0
100
AcDbBlockEnd
  0
BLOCK
  5
9E
330
94
100
AcDbEntity
  8
0
100
AcDbBlockBegin
  2
SE4
 70
     0
 10
0.0
 20
0.0
 30
0.0
  3
SE4
  1

  0
LINE
  5
96
330
94
100
AcDbEntity
  8
Default
  6
Continuous
 62
     7
100
AcDbLine
 10
390.914246695
 20
79.366359525
 30
0.0
 11
389.3765332097
 21
80.2638092772
 31
0.0
  0
ARC
  5
97
330
94
100
AcDbEntity
  8
Default
  6
Continuous
 62
     7
100
AcDbCircle
 10
395.2734754942
 20
79.180385858
 30
0.0
 40
1.625
100
AcDbArc
 50
298.2647189392
 51
104.7230855659
  0
ARC
  5
98
330
94
100
AcDbEntity
  8
Default
  6
Continuous
 62
     7
100
AcDbCircle
 10
391.0712772967
 20
77.3930222384
 30
0.0
 40
1.625
100
AcDbArc
 50
239.7230855659
 51
284.7230855659
  0
ARC
  5
99
330
94
100
AcDbEntity
  8
Default
  6
Continuous
 62
     7
100
AcDbCircle
 10
388.5610753852
 20
78.8582298464
 30
0.0
 40
1.625
100
AcDbArc
 50
59.8795033138
 51
241.1284606774
  0
ARC
  5
9A
330
94
100
AcDbEntity
  8
Default
  6
Continuous
 62
     7
100
AcDbCircle
 10
391.2584004515
 20
80.1508741732
 30
0.0
 40
0.8566825791219547
100
AcDbArc
 50
246.3137238056
 51
293.0419975732
  0
LINE
  5
9B
330
94
100
AcDbEntity
  8
Default
  6
Continuous
 62
     7
100
AcDbLine
 10
390.2519852773
 20
75.9896742463
 30
0.0
 11
387.7177178342
 21
77.4692111131
 31
0.0
  0
LINE
  5
9C
330
94
100
AcDbEntity
  8
Default
  6
Continuous
 62
     7
100
AcDbLine
 10
394.8604855554
 20
80.7520296823
 30
0.0
 11
391.5937109387
 21
79.3625392706
 31
0.0
  0
LINE
  5
9D
330
94
100
AcDbEntity
  8
Default
  6
Continuous
 62
     7
100
AcDbLine
 10
396.0429876582
 20
77.7491360442
 30
0.0
 11
391.4842672356
 21
75.8213784141
 31
0.0
  0
ENDBLK
  5
9F
330
94
100
AcDbEntity
  8
0
100
AcDbBlockEnd
  0
BLOCK
  5
AA
330
A0
100
AcDbEntity
  8
0
100
AcDbBlockBegin
  2
SE5
 70
     0
 10
0.0
 20
0.0
 30
0.0
  3
SE5
  1

  0
LINE
  5
A2
330
A0
100
AcDbEntity
  8
Default
  6
Continuous
 62
     7
100
AcDbLine
 10
408.3754618886
 20
78.1514263695
 30
0.0
 11
406.8293908618
 21
77.2684523036
 31
0.0
  0
ARC
  5
A3
330
A0
100
AcDbEntity
  8
Default
  6
Continuous
 62
     7
100
AcDbCircle
 10
410.7161342081
 20
81.833642417
 30
0.0
 40
1.625
100
AcDbArc
 50
358.2647189392
 51
164.7230855659
  0
ARC
  5
A4
330
A0
100
AcDbEntity
  8
Default
  6
Continuous
 62
     7
100
AcDbCircle
 10
410.1629374098
 20
77.3007502165
 30
0.0
 40
1.625
100
AcDbArc
 50
299.7230855659
 51
344.7230855659
  0
ARC
  5
A5
330
A0
100
AcDbEntity
  8
Default
  6
Continuous
 62
     7
100
AcDbCircle
 10
407.6389294437
 20
75.8594553965
 30
0.0
 40
1.625
100
AcDbArc
 50
119.8795033137
 51
301.1284606774
  0
ARC
  5
A6
330
A0
100
AcDbEntity
  8
Default
  6
Continuous
 62
     7
100
AcDbCircle
 10
407.8681291518
 20
78.8417295896
 30
0.0
 40
0.8566825791219547
100
AcDbArc
 50
306.3137238056
 51
353.0419975732
  0
LINE
  5
A7
330
A0
100
AcDbEntity
  8
Default
  6
Continuous
 62
     7
100
AcDbLine
 10
410.9686264116
 20
75.8895485185
 30
0.0
 11
408.4201761776
 21
74.4345769663
 31
0.0
  0
LINE
  5
A8
330
A0
100
AcDbEntity
  8
Default
  6
Continuous
 62
     7
100
AcDbLine
 10
409.1485557612
 20
82.2618045507
 30
0.0
 11
408.7185024477
 21
78.7379495384
 31
0.0
  0
LINE
  5
A9
330
A0
100
AcDbEntity
  8
Default
  6
Continuous
 62
     7
100
AcDbLine
 10
412.340388988
 20
81.7844345927
 30
0.0
 11
411.7305158568
 21
76.8725880829
 31
0.0
  0
ENDBLK
  5
AB
330
A0
100
AcDbEntity
  8
0
100
AcDbBlockEnd
  0
BLOCK
  5
B6
330
AC
100
AcDbEntity
  8
0
100
AcDbBlockBegin
  2
SE6
 70
     0
 10
0.0
 20
0.0
 30
0.0
  3
SE6
  1

  0
LINE
  5
AE
330
AC
100
AcDbEntity
  8
Default
  6
Continuous
 62
     7
100
AcDbLine
 10
418.1582324618
 20
92.6658157304
 30
0.0
 11
418.1498749204
 21
90.8853919122
 31
0.0
  0
ARC
  5
AF
330
AC
100
AcDbEntity
  8
Default
  6
Continuous
 62
     7
100
AcDbCircle
 10
416.1396759822
 20
96.5340054448
 30
0.0
 40
1.625
100
AcDbArc
 50
58.2647189392
 51
224.7230855659
  0
ARC
  5
B0
330
AC
100
AcDbEntity
  8
Default
  6
Continuous
 62
     7
100
AcDbCircle
 10
419.7886773814
 20
93.7884768639
 30
0.0
 40
1.625
100
AcDbArc
 50
359.7230855659
 51
44.7230855659
  0
ARC
  5
B1
330
AC
100
AcDbEntity
  8
Default
  6
Continuous
 62
     7
100
AcDbCircle
 10
419.7748713268
 20
90.8819744359
 30
0.0
 40
1.625
100
AcDbArc
 50
179.8795033137
 51
1.1284606774
  0
ARC
  5
B2
330
AC
100
AcDbEntity
  8
Default
  6
Continuous
 62
     7
100
AcDbCircle
 10
417.3067459686
 20
92.5716043022
 30
0.0
 40
0.8566825791219547
100
AcDbArc
 50
6.3137238056
 51
53.0419975732
  0
LINE
  5
B3
330
AC
100
AcDbEntity
  8
Default
  6
Continuous
 62
     7
100
AcDbLine
 10
421.4136584026
 20
93.780623158
 30
0.0
 11
421.3994756116
 21
90.8461147389
 31
0.0
  0
LINE
  5
B4
330
AC
100
AcDbEntity
  8
Default
  6
Continuous
 62
     7
100
AcDbLine
 10
414.9850874741
 20
95.3905237541
 30
0.0
 11
417.8218087773
 21
93.2561591535
 31
0.0
  0
LINE
  5
B5
330
AC
100
AcDbEntity
  8
Default
  6
Continuous
 62
     7
100
AcDbLine
 10
416.9944185982
 20
97.9160474342
 30
0.0
 11
420.9432658895
 21
94.9319585546
 31
0.0
  0
ENDBLK
  5
B7
330
AC
100
AcDbEntity
  8
0
100
AcDbBlockEnd
  0
ENDSEC
  0
SECTION
  2
ENTITIES
  0
CIRCLE
  5
3C
330
1F
100
AcDbEntity
  8
Default
  6
Continuous
 62
     7
100
AcDbCircle
 10
400.6970172683
 20
114.0053606833
 30
0.0
 40
1.5
  0
CIRCLE
  5
3D
330
1F
100
AcDbEntity
  8
Default
  6
Continuous
 62
     7
100
AcDbCircle
 10
383.2685922104
 20
103.9430547845
 30
0.0
 40
1.5
  0
CIRCLE
  5
3E
330
1F
100
AcDbEntity
  8
Default
  6
Continuous
 62
     7
100
AcDbCircle
 10
383.2685922104
 20
83.818442987
 30
0.0
 40
1.5
  0
CIRCLE
  5
3F
330
1F
100
AcDbEntity
  8
Default
  6
Continuous
 62
     7
100
AcDbCircle
 10
400.6970172683
 20
73.7561370883
 30
0.0
 40
1.5
  0
CIRCLE
  5
40
330
1F
100
AcDbEntity
  8
Default
  6
Continuous
 62
     7
100
AcDbCircle
 10
418.1254423262
 20
83.818442987
 30
0.0
 40
1.5
  0
CIRCLE
  5
41
330
1F
100
AcDbEntity
  8
Default
  6
Continuous
 62
     7
100
AcDbCircle
 10
400.6970172683
 20
93.8807488858
 30
0.0
 40
26.99999999999997
  0
ARC
  5
42
330
1F
100
AcDbEntity
  8
Default
  6
Continuous
 62
     7
100
AcDbCircle
 10
400.6970172683
 20
93.8807488858
 30
0.0
 40
22.0
100
AcDbArc
 50
159.8063664686
 51
200.2054620171
  0
ARC
  5
43
330
1F
100
AcDbEntity
  8
Default
  6
Continuous
 62
     7
100
AcDbCircle
 10
400.6970172683
 20
93.8807488858
 30
0.0
 40
22.0
100
AcDbArc
 50
99.8142483329
 51
140.1861264788
  0
ARC
  5
44
330
1F
100
AcDbEntity
  8
Default
  6
Continuous
 62
     7
100
AcDbCircle
 10
400.6970172683
 20
93.8807488858
 30
0.0
 40
22.0
100
AcDbArc
 50
39.7679467169
 51
80.1857516671
  0
ARC
  5
45
330
1F
100
AcDbEntity
  8
Default
  6
Continuous
 62
     7
100
AcDbCircle
 10
418.1254423262
 20
83.818442987
 30
0.0
 40
3.75
100
AcDbArc
 50
61.9758269193
 51
238.3818368746
  0
ARC
  5
46
330
1F
100
AcDbEntity
  8
Default
  6
Continuous
 62
     7
100
AcDbCircle
 10
400.6970172683
 20
93.8807488858
 30
0.0
 40
22.0
100
AcDbArc
 50
339.8083556987
 51
20.2294520493
  0
ARC
  5
47
330
1F
100
AcDbEntity
  8
Default
  6
Continuous
 62
     7
100
AcDbCircle
 10
400.6970172683
 20
93.8807488858
 30
0.0
 40
22.0
100
AcDbArc
 50
279.8142483329
 51
320.1897041657
  0
ARC
  5
48
330
1F
100
AcDbEntity
  8
Default
  6
Continuous
 62
     7
100
AcDbCircle
 10
400.6970172683
 20
93.8807488858
 30
0.0
 40
22.0
100
AcDbArc
 50
219.8039031256
 51
260.1857516671
  0
ARC
  5
49
330
1F
100
AcDbEntity
  8
Default
  6
Continuous
 62
     7
100
AcDbCircle
 10
400.6970172683
 20
114.0053606833
 30
0.0
 40
3.75
100
AcDbArc
 50
180.0
 51
0.0
  0
ARC
  5
4A
330
1F
100
AcDbEntity
  8
Default
  6
Continuous
 62
     7
100
AcDbCircle
 10
383.2685922104
 20
103.9430547845
 30
0.0
 40
3.75
100
AcDbArc
 50
242.2851596669
 51
59.5017138988
  0
ARC
  5
4B
330
1F
100
AcDbEntity
  8
Default
  6
Continuous
 62
     7
100
AcDbCircle
 10
383.2685922104
 20
83.818442987
 30
0.0
 40
3.75
100
AcDbArc
 50
302.6180713462
 51
116.3859319016
  0
ARC
  5
4C
330
1F
100
AcDbEntity
  8
Default
  6
Continuous
 62
     7
100
AcDbCircle
 10
400.6970172683
 20
73.7561370883
 30
0.0
 40
3.75
100
AcDbArc
 50
0.0
 51
180.0
  0
ARC
  5
4D
330
1F
100
AcDbEntity
  8
Default
  6
Continuous
 62
     7
100
AcDbCircle
 10
418.1254423262
 20
103.9430547845
 30
0.0
 40
3.75
100
AcDbArc
 50
125.5405535938
 51
294.6174591079
  0
LINE
  5
4E
330
1F
100
AcDbEntity
  8
Default
  6
Continuous
 62
     7
100
AcDbLine
 10
396.9470172683
 20
114.0053606833
 30
0.0
 11
396.9470172683
 21
115.5587907715
 31
0.0
  0
LINE
  5
4F
330
1F
100
AcDbEntity
  8
Default
  6
Continuous
 62
     7
100
AcDbLine
 10
404.4470172683
 20
114.0053606833
 30
0.0
 11
404.4470172683
 21
115.5587907715
 31
0.0
  0
LINE
  5
50
330
1F
100
AcDbEntity
  8
Default
  6
Continuous
 62
     7
100
AcDbLine
 10
396.9470172683
 20
73.7561370883
 30
0.0
 11
396.9470172683
 21
72.2027070001
 31
0.0
  0
LINE
  5
51
330
1F
100
AcDbEntity
  8
Default
  6
Continuous
 62
     7
100
AcDbLine
 10
404.4470172683
 20
73.7561370883
 30
0.0
 11
404.4470172683
 21
72.2027070001
 31
0.0
  0
LINE
  5
52
330
1F
100
AcDbEntity
  8
Default
  6
Continuous
 62
     7
100
AcDbLine
 10
421.3449713897
 20
86.2871996102
 30
0.0
 11
419.8873574629
 21
87.1287534032
 31
0.0
  0
LINE
  5
53
330
1F
100
AcDbEntity
  8
Default
  6
Continuous
 62
     7
100
AcDbLine
 10
416.1594827669
 20
80.6250900452
 30
0.0
 11
417.5967239582
 21
79.7952984565
 31
0.0
  0
LINE
  5
54
330
1F
100
AcDbEntity
  8
Default
  6
Continuous
 62
     7
100
AcDbLine
 10
383.7957391162
 20
79.7971841089
 30
0.0
 11
385.2899789784
 21
80.6598838956
 31
0.0
  0
LINE
  5
55
330
1F
100
AcDbEntity
  8
Default
  6
Continuous
 62
     7
100
AcDbLine
 10
380.0508950429
 20
86.2822202747
 30
0.0
 11
381.6020350697
 21
87.1777713867
 31
0.0
  0
LINE
  5
56
330
1F
100
AcDbEntity
  8
Default
  6
Continuous
 62
     7
100
AcDbLine
 10
380.0493267969
 20
101.4750150252
 30
0.0
 11
381.5245746167
 21
100.6232802993
 31
0.0
  0
LINE
  5
57
330
1F
100
AcDbEntity
  8
Default
  6
Continuous
 62
     7
100
AcDbLine
 10
383.7981901409
 20
107.9672545461
 30
0.0
 11
385.1717644179
 21
107.1742210676
 31
0.0
  0
LINE
  5
58
330
1F
100
AcDbEntity
  8
Default
  6
Continuous
 62
     7
100
AcDbLine
 10
415.945645941
 20
106.9944458966
 30
0.0
 11
417.6071303415
 21
107.9537043625
 31
0.0
  0
LINE
  5
59
330
1F
100
AcDbEntity
  8
Default
  6
Continuous
 62
     7
100
AcDbLine
 10
419.6875342051
 20
100.5338952163
 30
0.0
 11
421.3399561417
 21
101.4879214662
 31
0.0
  0
CIRCLE
  5
5A
330
1F
100
AcDbEntity
  8
Default
  6
Continuous
 62
     7
100
AcDbCircle
 10
418.1254423262
 20
103.9430547845
 30
0.0
 40
1.5
  0
ARC
  5
5B
330
1F
100
AcDbEntity
  8
Default
  6
Continuous
 62
     7
100
AcDbCircle
 10
405.3220172683
 20
96.3807488858
 30
0.0
 40
0.75
100
AcDbArc
 50
90.0
 51
180.0
  0
LINE
  5
5C
330
1F
100
AcDbEntity
  8
Default
  6
Continuous
 62
     7
100
AcDbLine
 10
407.0720172683
 20
97.1307488858
 30
0.0
 11
405.3220172683
 21
97.1307488858
 31
0.0
  0
ARC
  5
5D
330
1F
100
AcDbEntity
  8
Default
  6
Continuous
 62
     7
100
AcDbCircle
 10
407.0720172683
 20
96.3807488858
 30
0.0
 40
0.75
100
AcDbArc
 50
0.0
 51
90.0
  0
LINE
  5
5E
330
1F
100
AcDbEntity
  8
Default
  6
Continuous
 62
     7
100
AcDbLine
 10
407.8220172683
 20
91.3807488858
 30
0.0
 11
407.8220172683
 21
96.3807488858
 31
0.0
  0
ARC
  5
5F
330
1F
100
AcDbEntity
  8
Default
  6
Continuous
 62
     7
100
AcDbCircle
 10
407.0720172683
 20
91.3807488858
 30
0.0
 40
0.75
100
AcDbArc
 50
270.0
 51
0.0
  0
LINE
  5
60
330
1F
100
AcDbEntity
  8
Default
  6
Continuous
 62
     7
100
AcDbLine
 10
405.3220172683
 20
90.6307488858
 30
0.0
 11
407.0720172683
 21
90.6307488858
 31
0.0
  0
ARC
  5
61
330
1F
100
AcDbEntity
  8
Default
  6
Continuous
 62
     7
100
AcDbCircle
 10
405.3220172683
 20
91.3807488858
 30
0.0
 40
0.75
100
AcDbArc
 50
180.0
 51
270.0
  0
LINE
  5
62
330
1F
100
AcDbEntity
  8
Default
  6
Continuous
 62
     7
100
AcDbLine
 10
404.5720172683
 20
96.3807488858
 30
0.0
 11
404.5720172683
 21
91.3807488858
 31
0.0
  0
ARC
  5
63
330
1F
100
AcDbEntity
  8
Default
  6
Continuous
 62
     7
100
AcDbCircle
 10
396.0720172683
 20
96.3807488858
 30
0.0
 40
0.75
100
AcDbArc
 50
0.0
 51
90.0
  0
LINE
  5
64
330
1F
100
AcDbEntity
  8
Default
  6
Continuous
 62
     7
100
AcDbLine
 10
394.3220172683
 20
97.1307488858
 30
0.0
 11
396.0720172683
 21
97.1307488858
 31
0.0
  0
ARC
  5
65
330
1F
100
AcDbEntity
  8
Default
  6
Continuous
 62
     7
100
AcDbCircle
 10
394.3220172683
 20
96.3807488858
 30
0.0
 40
0.75
100
AcDbArc
 50
90.0
 51
180.0
  0
LINE
  5
66
330
1F
100
AcDbEntity
  8
Default
  6
Continuous
 62
     7
100
AcDbLine
 10
393.5720172683
 20
91.3807488858
 30
0.0
 11
393.5720172683
 21
96.3807488858
 31
0.0
  0
ARC
  5
67
330
1F
100
AcDbEntity
  8
Default
  6
Continuous
 62
     7
100
AcDbCircle
 10
394.3220172683
 20
91.3807488858
 30
0.0
 40
0.7500000000002274
100
AcDbArc
 50
180.0
 51
270.0
  0
LINE
  5
68
330
1F
100
AcDbEntity
  8
Default
  6
Continuous
 62
     7
100
AcDbLine
 10
396.0720172683
 20
90.6307488858
 30
0.0
 11
394.3220172683
 21
90.6307488858
 31
0.0
  0
ARC
  5
69
330
1F
100
AcDbEntity
  8
Default
  6
Continuous
 62
     7
100
AcDbCircle
 10
396.0720172683
 20
91.3807488858
 30
0.0
 40
0.75
100
AcDbArc
 50
270.0
 51
0.0
  0
LINE
  5
6A
330
1F
100
AcDbEntity
  8
Default
  6
Continuous
 62
     7
100
AcDbLine
 10
396.8220172683
 20
96.3807488858
 30
0.0
 11
396.8220172683
 21
91.3807488858
 31
0.0
  0
CIRCLE
  5
6B
330
1F
100
AcDbEntity
  8
Default
  6
Continuous
 62
     7
100
AcDbCircle
 10
400.6970172683
 20
93.8807488858
 30
0.0
 40
2.0
  0
CIRCLE
  5
6C
330
1F
100
AcDbEntity
  8
Default
  6
Continuous
 62
     7
100
AcDbCircle
 10
400.6970172683
 20
84.8807488858
 30
0.0
 40
1.5
  0
CIRCLE
  5
6D
330
1F
100
AcDbEntity
  8
Default
  6
Continuous
 62
     7
100
AcDbCircle
 10
400.6970172683
 20
102.8807488858
 30
0.0
 40
1.5
  0
INSERT
  5
6F
330
1F
100
AcDbEntity
  8
Default
100
AcDbBlockReference
  2
SE
 10
0.0
 20
0.0
 30
0.0
  0
ENDSEC
  0
SECTION
  2
OBJECTS
  0
DICTIONARY
  5
C
330
0
100
AcDbDictionary
281
     1
  3
ACAD_GROUP
350
D
  3
ACAD_LAYOUT
350
1A
  3
ACAD_MLEADERSTYLE
350
BC
  3
ACAD_MLINESTYLE
350
17
  3
ACAD_PLOTSETTINGS
350
19
  3
ACAD_PLOTSTYLENAME
350
E
  3
ACAD_VISUALSTYLE
350
2A
  3
AcDbVariableDictionary
350
BA
  0
DICTIONARY
  5
D
102
{ACAD_REACTORS
330
C
102
}
330
C
100
AcDbDictionary
281
     1
  0
DICTIONARY
  5
1A
102
{ACAD_REACTORS
330
C
102
}
330
C
100
AcDbDictionary
281
     1
  3
Layout1
350
1E
  3
Model
350
22
  0
DICTIONARY
  5
BC
102
{ACAD_REACTORS
330
C
102
}
330
C
100
AcDbDictionary
281
     1
  0
DICTIONARY
  5
17
102
{ACAD_REACTORS
330
C
102
}
330
C
100
AcDbDictionary
281
     1
  3
Standard
350
18
  0
DICTIONARY
  5
19
102
{ACAD_REACTORS
330
C
102
}
330
C
100
AcDbDictionary
281
     1
  0
ACDBDICTIONARYWDFLT
  5
E
102
{ACAD_REACTORS
330
C
102
}
330
C
100
AcDbDictionary
281
     1
  3
Normal
350
F
100
AcDbDictionaryWithDefault
340
F
  0
DICTIONARY
  5
2A
102
{ACAD_REACTORS
330
C
102
}
330
C
100
AcDbDictionary
281
     1
  3
2dWireframe
350
2F
  3
3D Hidden
350
31
  3
3dWireframe
350
30
  3
Basic
350
32
  3
Brighten
350
36
  3
ColorChange
350
3A
  3
Conceptual
350
34
  3
Dim
350
35
  3
Facepattern
350
39
  3
Flat
350
2B
  3
FlatWithEdges
350
2C
  3
Gouraud
350
2D
  3
GouraudWithEdges
350
2E
  3
Linepattern
350
38
  3
Realistic
350
33
  3
Thicken
350
37
  0
DICTIONARY
  5
BA
102
{ACAD_REACTORS
330
C
102
}
330
C
100
AcDbDictionary
281
     1
  3
PSOLHEIGHT
350
BE
  3
PSOLWIDTH
350
BD
  0
LAYOUT
  5
1E
102
{ACAD_REACTORS
330
1A
102
}
330
1A
100
AcDbPlotSettings
  1

  2
none_device
  4

  6

 40
0.0
 41
0.0
 42
0.0
 43
0.0
 44
0.0
 45
0.0
 46
0.0
 47
0.0
 48
0.0
 49
0.0
140
0.0
141
0.0
142
1.0
143
1.0
 70
   688
 72
     0
 73
     0
 74
     5
  7

 75
    16
147
1.0
148
0.0
149
0.0
100
AcDbLayout
  1
Layout1
 70
     1
 71
     1
 10
0.0
 20
0.0
 11
594.0
 21
420.0
 12
0.0
 22
0.0
 32
0.0
 14
0.0
 24
0.0
 34
0.0
 15
594.0
 25
420.0
 35
0.0
146
0.0
 13
0.0
 23
0.0
 33
0.0
 16
1.0
 26
0.0
 36
0.0
 17
0.0
 27
1.0
 37
0.0
 76
     0
330
1B
  0
LAYOUT
  5
22
102
{ACAD_REACTORS
330
1A
102
}
330
1A
100
AcDbPlotSettings
  1

  2
none_device
  4

  6

 40
0.0
 41
0.0
 42
0.0
 43
0.0
 44
0.0
 45
0.0
 46
0.0
 47
0.0
 48
0.0
 49
0.0
140
0.0
141
0.0
142
1.0
143
1.0
 70
  1712
 72
     0
 73
     0
 74
     0
  7

 75
     0
147
1.0
148
0.0
149
0.0
100
AcDbLayout
  1
Model
 70
     1
 71
     0
 10
0.0
 20
0.0
 11
594.0
 21
420.0
 12
0.0
 22
0.0
 32
0.0
 14
0.0
 24
0.0
 34
0.0
 15
594.0
 25
420.0
 35
0.0
146
0.0
 13
0.0
 23
0.0
 33
0.0
 16
1.0
 26
0.0
 36
0.0
 17
0.0
 27
1.0
 37
0.0
 76
     0
330
1F
331
29
  0
MLINESTYLE
  5
18
102
{ACAD_REACTORS
330
17
102
}
330
17
100
AcDbMlineStyle
  2
Standard
 70
     0
  3

 62
   256
 51
90.0
 52
90.0
 71
     2
 49
0.5
 62
   256
  6
BYLAYER
 49
-0.5
 62
   256
  6
BYLAYER
  0
ACDBPLACEHOLDER
  5
F
102
{ACAD_REACTORS
330
E
102
}
330
E
  0
VISUALSTYLE
  5
2F
102
{ACAD_REACTORS
330
2A
102
}
330
2A
100
AcDbVisualStyle
  2
2dWireframe
 70
     4
 71
     0
 72
     2
 73
     0
 90
        0
 40
-0.6
 41
-30.0
 62
     5
 63
     7
 74
     1
 91
        4
 64
     7
 65
   257
 75
     1
175
     1
 42
1.0
 92
        0
 66
   257
 43
1.0
 76
     1
 77
     6
 78
     2
 67
     7
 79
     5
170
     0
171
     0
290
     0
174
     0
 93
        1
 44
0.0
173
     0
291
     0
 45
0.0
1001
ACAD
1000
AcDbSavedByObjectVersion
1070
     0
  0
VISUALSTYLE
  5
31
102
{ACAD_REACTORS
330
2A
102
}
330
2A
100
AcDbVisualStyle
  2
3D Hidden
 70
     6
 71
     1
 72
     2
 73
     2
 90
        0
 40
-0.6
 41
-30.0
 62
     5
 63
     7
 74
     2
 91
        2
 64
     7
 65
   257
 75
     2
175
     1
 42
40.0
 92
        0
 66
   257
 43
1.0
 76
     1
 77
     6
 78
     2
 67
     7
 79
     3
170
     0
171
     0
290
     0
174
     0
 93
        1
 44
0.0
173
     0
291
     0
 45
0.0
1001
ACAD
1000
AcDbSavedByObjectVersion
1070
     0
  0
VISUALSTYLE
  5
30
102
{ACAD_REACTORS
330
2A
102
}
330
2A
100
AcDbVisualStyle
  2
3dWireframe
 70
     5
 71
     0
 72
     2
 73
     0
 90
        0
 40
-0.6
 41
-30.0
 62
     5
 63
     7
 74
     1
 91
        4
 64
     7
 65
   257
 75
     1
175
     1
 42
1.0
 92
        0
 66
   257
 43
1.0
 76
     1
 77
     6
 78
     2
 67
     7
 79
     5
170
     0
171
     0
290
     0
174
     0
 93
        1
 44
0.0
173
     0
291
     0
 45
0.0
1001
ACAD
1000
AcDbSavedByObjectVersion
1070
     0
  0
VISUALSTYLE
  5
32
102
{ACAD_REACTORS
330
2A
102
}
330
2A
100
AcDbVisualStyle
  2
Basic
 70
     7
 71
     1
 72
     0
 73
     1
 90
        0
 40
-0.6
 41
-30.0
 62
     5
 63
     7
 74
     0
 91
        4
 64
     7
 65
   257
 75
     1
175
     1
 42
1.0
 92
        8
 66
     7
 43
1.0
 76
     1
 77
     6
 78
     2
 67
     7
 79
     5
170
     0
171
     0
290
     0
174
     0
 93
        1
 44
0.0
173
     0
291
     1
 45
0.0
1001
ACAD
1000
AcDbSavedByObjectVersion
1070
     0
  0
VISUALSTYLE
  5
36
102
{ACAD_REACTORS
330
2A
102
}
330
2A
100
AcDbVisualStyle
  2
Brighten
 70
    12
 71
     2
 72
     2
 73
     0
 90
        0
 40
-0.6
 41
-30.0
 62
     5
 63
     7
 74
     1
 91
        4
 64
     7
 65
   257
 75
     1
175
     1
 42
1.0
 92
        8
 66
     7
 43
1.0
 76
     1
 77
     6
 78
     2
 67
     7
 79
     5
170
     0
171
     0
290
     0
174
     0
 93
        1
 44
50.0
173
     0
291
     1
 45
0.0
1001
ACAD
1000
AcDbSavedByObjectVersion
1070
     0
  0
VISUALSTYLE
  5
3A
102
{ACAD_REACTORS
330
2A
102
}
330
2A
100
AcDbVisualStyle
  2
ColorChange
 70
    16
 71
     2
 72
     2
 73
     3
 90
        0
 40
-0.6
 41
-30.0
 62
     5
 63
     8
 74
     1
 91
        4
 64
     7
 65
   257
 75
     1
175
     1
 42
1.0
 92
        8
 66
     8
 43
1.0
 76
     1
 77
     6
 78
     2
 67
     7
 79
     5
170
     0
171
     0
290
     0
174
     0
 93
        1
 44
0.0
173
     0
291
     1
 45
0.0
1001
ACAD
1000
AcDbSavedByObjectVersion
1070
     0
  0
VISUALSTYLE
  5
34
102
{ACAD_REACTORS
330
2A
102
}
330
2A
100
AcDbVisualStyle
  2
Conceptual
 70
     9
 71
     3
 72
     2
 73
     0
 90
        0
 40
-0.6
 41
-30.0
 62
     5
 63
     7
 74
     2
 91
        2
 64
     7
 65
   257
 75
     1
175
     1
 42
40.0
 92
        8
 66
     7
 43
1.0
 76
     1
 77
     6
 78
     2
 67
     7
 79
     3
170
     0
171
     0
290
     0
174
     0
 93
        1
 44
0.0
173
     0
291
     0
 45
0.0
1001
ACAD
1000
AcDbSavedByObjectVersion
1070
     0
  0
VISUALSTYLE
  5
35
102
{ACAD_REACTORS
330
2A
102
}
330
2A
100
AcDbVisualStyle
  2
Dim
 70
    11
 71
     2
 72
     2
 73
     0
 90
        0
 40
-0.6
 41
-30.0
 62
     5
 63
     7
 74
     1
 91
        4
 64
     7
 65
   257
 75
     1
175
     1
 42
1.0
 92
        8
 66
     7
 43
1.0
 76
     1
 77
     6
 78
     2
 67
     7
 79
     5
170
     0
171
     0
290
     0
174
     0
 93
        1
 44
-50.0
173
     0
291
     1
 45
0.0
1001
ACAD
1000
AcDbSavedByObjectVersion
1070
     0
  0
VISUALSTYLE
  5
39
102
{ACAD_REACTORS
330
2A
102
}
330
2A
100
AcDbVisualStyle
  2
Facepattern
 70
    15
 71
     2
 72
     2
 73
     0
 90
        0
 40
-0.6
 41
-30.0
 62
     5
 63
     7
 74
     1
 91
        4
 64
     7
 65
   257
 75
     1
175
     1
 42
1.0
 92
        8
 66
     7
 43
1.0
 76
     1
 77
     6
 78
     2
 67
     7
 79
     5
170
     0
171
     0
290
     0
174
     0
 93
        1
 44
0.0
173
     0
291
     1
 45
0.0
1001
ACAD
1000
AcDbSavedByObjectVersion
1070
     0
  0
VISUALSTYLE
  5
2B
102
{ACAD_REACTORS
330
2A
102
}
330
2A
100
AcDbVisualStyle
  2
Flat
 70
     0
 71
     2
 72
     1
 73
     1
 90
        2
 40
-0.6
 41
30.0
 62
     5
 63
     7
 74
     0
 91
        4
 64
     7
 65
   257
 75
     1
175
     1
 42
1.0
 92
        8
 66
     7
 43
1.0
 76
     1
 77
     6
 78
     2
 67
     7
 79
     5
170
     0
171
     0
290
     0
174
     0
 93
       13
 44
0.0
173
     0
291
     1
 45
0.0
1001
ACAD
1000
AcDbSavedByObjectVersion
1070
     0
  0
VISUALSTYLE
  5
2C
102
{ACAD_REACTORS
330
2A
102
}
330
2A
100
AcDbVisualStyle
  2
FlatWithEdges
 70
     1
 71
     2
 72
     1
 73
     1
 90
        2
 40
-0.6
 41
30.0
 62
     5
 63
     7
 74
     1
 91
        4
 64
     7
 65
   257
 75
     1
175
     1
 42
1.0
 92
        0
 66
   257
 43
1.0
 76
     1
 77
     6
 78
     2
 67
     7
 79
     5
170
     0
171
     0
290
     0
174
     0
 93
       13
 44
0.0
173
     0
291
     1
 45
0.0
1001
ACAD
1000
AcDbSavedByObjectVersion
1070
     0
  0
VISUALSTYLE
  5
2D
102
{ACAD_REACTORS
330
2A
102
}
330
2A
100
AcDbVisualStyle
  2
Gouraud
 70
     2
 71
     2
 72
     2
 73
     1
 90
        2
 40
-0.6
 41
30.0
 62
     5
 63
     7
 74
     0
 91
        4
 64
     7
 65
   257
 75
     1
175
     1
 42
1.0
 92
        0
 66
     7
 43
1.0
 76
     1
 77
     6
 78
     2
 67
     7
 79
     5
170
     0
171
     0
290
     0
174
     0
 93
       13
 44
0.0
173
     0
291
     1
 45
0.0
1001
ACAD
1000
AcDbSavedByObjectVersion
1070
     0
  0
VISUALSTYLE
  5
2E
102
{ACAD_REACTORS
330
2A
102
}
330
2A
100
AcDbVisualStyle
  2
GouraudWithEdges
 70
     3
 71
     2
 72
     2
 73
     1
 90
        2
 40
-0.6
 41
30.0
 62
     5
 63
     7
 74
     1
 91
        4
 64
     7
 65
   257
 75
     1
175
     1
 42
1.0
 92
        0
 66
   257
 43
1.0
 76
     1
 77
     6
 78
     2
 67
     7
 79
     5
170
     0
171
     0
290
     0
174
     0
 93
       13
 44
0.0
173
     0
291
     1
 45
0.0
1001
ACAD
1000
AcDbSavedByObjectVersion
1070
     0
  0
VISUALSTYLE
  5
38
102
{ACAD_REACTORS
330
2A
102
}
330
2A
100
AcDbVisualStyle
  2
Linepattern
 70
    14
 71
     2
 72
     2
 73
     0
 90
        0
 40
-0.6
 41
-30.0
 62
     5
 63
     7
 74
     1
 91
        4
 64
     7
 65
   257
 75
     7
175
     7
 42
1.0
 92
        8
 66
     7
 43
1.0
 76
     1
 77
     6
 78
     2
 67
     7
 79
     5
170
     0
171
     0
290
     0
174
     0
 93
        1
 44
0.0
173
     0
291
     1
 45
0.0
1001
ACAD
1000
AcDbSavedByObjectVersion
1070
     0
  0
VISUALSTYLE
  5
33
102
{ACAD_REACTORS
330
2A
102
}
330
2A
100
AcDbVisualStyle
  2
Realistic
 70
     8
 71
     2
 72
     2
 73
     0
 90
        0
 40
-0.6
 41
-30.0
 62
     5
 63
     7
 74
     1
 91
        0
 64
     7
 65
   257
 75
     1
175
     1
 42
1.0
 92
        8
 66
     8
 43
1.0
 76
     1
 77
     6
 78
     2
 67
     7
 79
     5
170
     0
171
     0
290
     0
174
     0
 93
       13
 44
0.0
173
     0
291
     0
 45
0.0
1001
ACAD
1000
AcDbSavedByObjectVersion
1070
     0
  0
VISUALSTYLE
  5
37
102
{ACAD_REACTORS
330
2A
102
}
330
2A
100
AcDbVisualStyle
  2
Thicken
 70
    13
 71
     2
 72
     2
 73
     0
 90
        0
 40
-0.6
 41
-30.0
 62
     5
 63
     7
 74
     1
 91
        4
 64
     7
 65
   257
 75
     1
175
     1
 42
1.0
 92
       12
 66
     7
 43
1.0
 76
     1
 77
     6
 78
     2
 67
     7
 79
     5
170
     0
171
     0
290
     0
174
     0
 93
        1
 44
0.0
173
     0
291
     1
 45
0.0
1001
ACAD
1000
AcDbSavedByObjectVersion
1070
     0
  0
DICTIONARYVAR
  5
BE
102
{ACAD_REACTORS
330
BA
102
}
330
BA
100
DictionaryVariables
280
     0
  1
80.000000
  0
DICTIONARYVAR
  5
BD
102
{ACAD_REACTORS
330
BA
102
}
330
BA
100
DictionaryVariables
280
     0
  1
5.000000
  0
ENDSEC
  0
EOF
