  0
SECTION
  2
HEADER
  9
$ACADVER
  1
AC1015
  9
$ACADMAINTVER
 70
     6
  9
$DWGCODEPAGE
  3
ANSI_1252
  9
$INSBASE
 10
0.0
 20
0.0
 30
0.0
  9
$EXTMIN
 10
0.0
 20
0.0
 30
0.0
  9
$EXTMAX
 10
594.0
 20
420.0
 30
0.0
  9
$LIMMIN
 10
0.0
 20
0.0
  9
$LIMMAX
 10
594.0
 20
420.0
  9
$ORTHOMODE
 70
     0
  9
$REGENMODE
 70
     1
  9
$FILLMODE
 70
     1
  9
$QTEXTMODE
 70
     0
  9
$MIRRTEXT
 70
     1
  9
$LTSCALE
 40
1.0
  9
$ATTMODE
 70
     1
  9
$TEXTSIZE
 40
2.5
  9
$TRACEWID
 40
1.0
  9
$TEXTSTYLE
  7
Standard
  9
$CLAYER
  8
0
  9
$CELTYPE
  6
ByLayer
  9
$CECOLOR
 62
   256
  9
$CELTSCALE
 40
1.0
  9
$DISPSILH
 70
     0
  9
$DIMSCALE
 40
1.0
  9
$DIMASZ
 40
2.5
  9
$DIMEXO
 40
0.625
  9
$DIMDLI
 40
3.75
  9
$DIMRND
 40
0.0
  9
$DIMDLE
 40
0.0
  9
$DIMEXE
 40
1.25
  9
$DIMTP
 40
0.0
  9
$DIMTM
 40
0.0
  9
$DIMTXT
 40
2.5
  9
$DIMCEN
 40
2.5
  9
$DIMTSZ
 40
0.0
  9
$DIMTOL
 70
     0
  9
$DIMLIM
 70
     0
  9
$DIMTIH
 70
     0
  9
$DIMTOH
 70
     0
  9
$DIMSE1
 70
     0
  9
$DIMSE2
 70
     0
  9
$DIMTAD
 70
     1
  9
$DIMZIN
 70
     8
  9
$DIMBLK
  1

  9
$DIMASO
 70
     1
  9
$DIMSHO
 70
     1
  9
$DIMPOST
  1

  9
$DIMAPOST
  1

  9
$DIMALT
 70
     0
  9
$DIMALTD
 70
     3
  9
$DIMALTF
 40
0.0393700787
  9
$DIMLFAC
 40
1.0
  9
$DIMTOFL
 70
     1
  9
$DIMTVP
 40
0.0
  9
$DIMTIX
 70
     0
  9
$DIMSOXD
 70
     0
  9
$DIMSAH
 70
     0
  9
$DIMBLK1
  1

  9
$DIMBLK2
  1

  9
$DIMSTYLE
  2
ISO-25
  9
$DIMCLRD
 70
     0
  9
$DIMCLRE
 70
     0
  9
$DIMCLRT
 70
     0
  9
$DIMTFAC
 40
1.0
  9
$DIMGAP
 40
0.625
  9
$DIMJUST
 70
     0
  9
$DIMSD1
 70
     0
  9
$DIMSD2
 70
     0
  9
$DIMTOLJ
 70
     0
  9
$DIMTZIN
 70
     8
  9
$DIMALTZ
 70
     0
  9
$DIMALTTZ
 70
     0
  9
$DIMUPT
 70
     0
  9
$DIMDEC
 70
     2
  9
$DIMTDEC
 70
     2
  9
$DIMALTU
 70
     2
  9
$DIMALTTD
 70
     3
  9
$DIMTXSTY
  7
Standard
  9
$DIMAUNIT
 70
     0
  9
$DIMADEC
 70
     0
  9
$DIMALTRND
 40
0.0
  9
$DIMAZIN
 70
     0
  9
$DIMDSEP
 70
    44
  9
$DIMATFIT
 70
     3
  9
$DIMFRAC
 70
     0
  9
$DIMLDRBLK
  1

  9
$DIMLUNIT
 70
     2
  9
$DIMLWD
 70
    -2
  9
$DIMLWE
 70
    -2
  9
$DIMTMOVE
 70
     0
  9
$LUNITS
 70
     2
  9
$LUPREC
 70
     4
  9
$SKETCHINC
 40
1.0
  9
$FILLETRAD
 40
10.0
  9
$AUNITS
 70
     0
  9
$AUPREC
 70
     0
  9
$MENU
  1
.
  9
$ELEVATION
 40
0.0
  9
$PELEVATION
 40
0.0
  9
$THICKNESS
 40
0.0
  9
$LIMCHECK
 70
     0
  9
$CHAMFERA
 40
10.0
  9
$CHAMFERB
 40
10.0
  9
$CHAMFERC
 40
20.0
  9
$CHAMFERD
 40
0.0
  9
$SKPOLY
 70
     0
  9
$TDCREATE
 40
2456219.975147905
  9
$TDUCREATE
 40
2456220.100147905
  9
$TDUPDATE
 40
2456219.975147916
  9
$TDUUPDATE
 40
2456220.100147916
  9
$TDINDWG
 40
0.0000000116
  9
$TDUSRTIMER
 40
0.0000000116
  9
$USRTIMER
 70
     1
  9
$ANGBASE
 50
0.0
  9
$ANGDIR
 70
     0
  9
$PDMODE
 70
     0
  9
$PDSIZE
 40
0.0
  9
$PLINEWID
 40
0.0
  9
$SPLFRAME
 70
     0
  9
$SPLINETYPE
 70
     6
  9
$SPLINESEGS
 70
     8
  9
$HANDSEED
  5
AF
  9
$SURFTAB1
 70
     6
  9
$SURFTAB2
 70
     6
  9
$SURFTYPE
 70
     6
  9
$SURFU
 70
     6
  9
$SURFV
 70
     6
  9
$UCSBASE
  2

  9
$UCSNAME
  2

  9
$UCSORG
 10
0.0
 20
0.0
 30
0.0
  9
$UCSXDIR
 10
1.0
 20
0.0
 30
0.0
  9
$UCSYDIR
 10
0.0
 20
1.0
 30
0.0
  9
$UCSORTHOREF
  2

  9
$UCSORTHOVIEW
 70
     0
  9
$UCSORGTOP
 10
0.0
 20
0.0
 30
0.0
  9
$UCSORGBOTTOM
 10
0.0
 20
0.0
 30
0.0
  9
$UCSORGLEFT
 10
0.0
 20
0.0
 30
0.0
  9
$UCSORGRIGHT
 10
0.0
 20
0.0
 30
0.0
  9
$UCSORGFRONT
 10
0.0
 20
0.0
 30
0.0
  9
$UCSORGBACK
 10
0.0
 20
0.0
 30
0.0
  9
$PUCSBASE
  2

  9
$PUCSNAME
  2

  9
$PUCSORG
 10
0.0
 20
0.0
 30
0.0
  9
$PUCSXDIR
 10
1.0
 20
0.0
 30
0.0
  9
$PUCSYDIR
 10
0.0
 20
1.0
 30
0.0
  9
$PUCSORTHOREF
  2

  9
$PUCSORTHOVIEW
 70
     0
  9
$PUCSORGTOP
 10
0.0
 20
0.0
 30
0.0
  9
$PUCSORGBOTTOM
 10
0.0
 20
0.0
 30
0.0
  9
$PUCSORGLEFT
 10
0.0
 20
0.0
 30
0.0
  9
$PUCSORGRIGHT
 10
0.0
 20
0.0
 30
0.0
  9
$PUCSORGFRONT
 10
0.0
 20
0.0
 30
0.0
  9
$PUCSORGBACK
 10
0.0
 20
0.0
 30
0.0
  9
$USERI1
 70
     0
  9
$USERI2
 70
     0
  9
$USERI3
 70
     0
  9
$USERI4
 70
     0
  9
$USERI5
 70
     0
  9
$USERR1
 40
0.0
  9
$USERR2
 40
0.0
  9
$USERR3
 40
0.0
  9
$USERR4
 40
0.0
  9
$USERR5
 40
0.0
  9
$WORLDVIEW
 70
     1
  9
$SHADEDGE
 70
     3
  9
$SHADEDIF
 70
    70
  9
$TILEMODE
 70
     1
  9
$MAXACTVP
 70
    64
  9
$PINSBASE
 10
0.0
 20
0.0
 30
0.0
  9
$PLIMCHECK
 70
     0
  9
$PEXTMIN
 10
0.0
 20
0.0
 30
0.0
  9
$PEXTMAX
 10
594.0
 20
420.0
 30
0.0
  9
$PLIMMIN
 10
0.0
 20
0.0
  9
$PLIMMAX
 10
594.0
 20
420.0
  9
$UNITMODE
 70
     0
  9
$VISRETAIN
 70
     1
  9
$PLINEGEN
 70
     0
  9
$PSLTSCALE
 70
     1
  9
$TREEDEPTH
 70
  3020
  9
$CMLSTYLE
  2
Standard
  9
$CMLJUST
 70
     0
  9
$CMLSCALE
 40
20.0
  9
$PROXYGRAPHICS
 70
     1
  9
$MEASUREMENT
 70
     1
  9
$CELWEIGHT
370
    -1
  9
$ENDCAPS
280
     0
  9
$JOINSTYLE
280
     0
  9
$LWDISPLAY
290
     0
  9
$INSUNITS
 70
     4
  9
$HYPERLINKBASE
  1

  9
$STYLESHEET
  1

  9
$XEDIT
290
     1
  9
$CEPSNTYPE
380
     0
  9
$PSTYLEMODE
290
     1
  9
$FINGERPRINTGUID
  2
{7FD9608A-CC8F-4106-89FB-4C9D120812B5}
  9
$VERSIONGUID
  2
{FAEB1C32-E019-11D5-929B-00C0DF256EC4}
  9
$EXTNAMES
290
     1
  9
$PSVPSCALE
 40
0.0
  9
$OLESTARTUP
290
     0
  0
ENDSEC
  0
SECTION
  2
CLASSES
  0
CLASS
  1
ACDBDICTIONARYWDFLT
  2
AcDbDictionaryWithDefault
  3
ObjectDBX Classes
 90
        0
280
     0
281
     0
  0
CLASS
  1
VISUALSTYLE
  2
AcDbVisualStyle
  3
ObjectDBX Classes
 90
     4095
280
     0
281
     0
  0
CLASS
  1
DICTIONARYVAR
  2
AcDbDictionaryVar
  3
ObjectDBX Classes
 90
        0
280
     0
281
     0
  0
CLASS
  1
ACDBPLACEHOLDER
  2
AcDbPlaceHolder
  3
ObjectDBX Classes
 90
        0
280
     0
281
     0
  0
CLASS
  1
LAYOUT
  2
AcDbLayout
  3
ObjectDBX Classes
 90
        0
280
     0
281
     0
  0
ENDSEC
  0
SECTION
  2
TABLES
  0
TABLE
  2
VPORT
  5
8
330
0
100
AcDbSymbolTable
 70
     1
  0
VPORT
  5
29
330
8
100
AcDbSymbolTableRecord
100
AcDbViewportTableRecord
  2
*Active
 70
     0
 10
0.0
 20
0.0
 11
1.0
 21
1.0
 12
344.1869158879
 22
148.5
 13
0.0
 23
0.0
 14
10.0
 24
10.0
 15
10.0
 25
10.0
 16
0.0
 26
0.0
 36
1.0
 17
0.0
 27
0.0
 37
0.0
 40
297.0
 41
1.9729729729
 42
50.0
 43
0.0
 44
0.0
 50
0.0
 51
0.0
 71
     0
 72
   100
 73
     1
 74
     3
 75
     0
 76
     0
 77
     0
 78
     0
281
     0
 65
     1
110
0.0
120
0.0
130
0.0
111
1.0
121
0.0
131
0.0
112
0.0
122
1.0
132
0.0
 79
     0
146
0.0
  0
ENDTAB
  0
TABLE
  2
LTYPE
  5
5
330
0
100
AcDbSymbolTable
 70
     1
  0
LTYPE
  5
14
330
5
100
AcDbSymbolTableRecord
100
AcDbLinetypeTableRecord
  2
ByBlock
 70
     0
  3

 72
    65
 73
     0
 40
0.0
  0
LTYPE
  5
15
330
5
100
AcDbSymbolTableRecord
100
AcDbLinetypeTableRecord
  2
ByLayer
 70
     0
  3

 72
    65
 73
     0
 40
0.0
  0
LTYPE
  5
16
330
5
100
AcDbSymbolTableRecord
100
AcDbLinetypeTableRecord
  2
Continuous
 70
     0
  3
Solid line
 72
    65
 73
     0
 40
0.0
  0
ENDTAB
  0
TABLE
  2
LAYER
  5
2
330
0
100
AcDbSymbolTable
 70
     2
  0
LAYER
  5
10
330
2
100
AcDbSymbolTableRecord
100
AcDbLayerTableRecord
  2
0
 70
     0
 62
     7
  6
Continuous
370
    -3
390
F
  0
LAYER
  5
3B
330
2
100
AcDbSymbolTableRecord
100
AcDbLayerTableRecord
  2
Default
 70
     0
 62
     7
  6
Continuous
370
    -3
390
F
  0
ENDTAB
  0
TABLE
  2
STYLE
  5
3
330
0
100
AcDbSymbolTable
 70
     1
  0
STYLE
  5
11
330
3
100
AcDbSymbolTableRecord
100
AcDbTextStyleTableRecord
  2
Standard
 70
     0
 40
0.0
 41
1.0
 50
0.0
 71
     0
 42
2.5
  3
txt
  4

  0
ENDTAB
  0
TABLE
  2
VIEW
  5
6
330
0
100
AcDbSymbolTable
 70
     0
  0
ENDTAB
  0
TABLE
  2
UCS
  5
7
330
0
100
AcDbSymbolTable
 70
     0
  0
ENDTAB
  0
TABLE
  2
APPID
  5
9
330
0
100
AcDbSymbolTable
 70
     1
  0
APPID
  5
12
330
9
100
AcDbSymbolTableRecord
100
AcDbRegAppTableRecord
  2
ACAD
 70
     0
  0
ENDTAB
  0
TABLE
  2
DIMSTYLE
  5
A
330
0
100
AcDbSymbolTable
 70
     1
100
AcDbDimStyleTable
  0
DIMSTYLE
105
27
330
A
100
AcDbSymbolTableRecord
100
AcDbDimStyleTableRecord
  2
ISO-25
 70
     0
 41
2.5
 42
0.625
 43
3.75
 44
1.25
 73
     0
 74
     0
 77
     1
 78
     8
140
2.5
141
2.5
143
0.0393700787
147
0.625
171
     3
172
     1
271
     2
272
     2
274
     3
278
    44
283
     0
284
     8
340
11
  0
ENDTAB
  0
TABLE
  2
BLOCK_RECORD
  5
1
330
0
100
AcDbSymbolTable
 70
     8
  0
BLOCK_RECORD
  5
1F
330
1
100
AcDbSymbolTableRecord
100
AcDbBlockTableRecord
  2
*Model_Space
340
22
  0
BLOCK_RECORD
  5
1B
330
1
100
AcDbSymbolTableRecord
100
AcDbBlockTableRecord
  2
*Paper_Space
340
1E
  0
BLOCK_RECORD
  5
5E
330
1
100
AcDbSymbolTableRecord
100
AcDbBlockTableRecord
  2
SE
340
0
102
{BLKREFS
331
5F
102
}
  0
BLOCK_RECORD
  5
60
330
1
100
AcDbSymbolTableRecord
100
AcDbBlockTableRecord
  2
SE1
340
0
102
{BLKREFS
331
61
102
}
  0
BLOCK_RECORD
  5
6C
330
1
100
AcDbSymbolTableRecord
100
AcDbBlockTableRecord
  2
SE2
340
0
102
{BLKREFS
331
6D
102
}
  0
BLOCK_RECORD
  5
78
330
1
100
AcDbSymbolTableRecord
100
AcDbBlockTableRecord
  2
SE3
340
0
102
{BLKREFS
331
79
102
}
  0
BLOCK_RECORD
  5
84
330
1
100
AcDbSymbolTableRecord
100
AcDbBlockTableRecord
  2
SE4
340
0
102
{BLKREFS
331
85
102
}
  0
BLOCK_RECORD
  5
90
330
1
100
AcDbSymbolTableRecord
100
AcDbBlockTableRecord
  2
SE5
340
0
102
{BLKREFS
331
91
102
}
  0
BLOCK_RECORD
  5
9C
330
1
100
AcDbSymbolTableRecord
100
AcDbBlockTableRecord
  2
SE6
340
0
102
{BLKREFS
331
9D
102
}
  0
ENDTAB
  0
ENDSEC
  0
SECTION
  2
BLOCKS
  0
BLOCK
  5
20
330
1F
100
AcDbEntity
  8
0
100
AcDbBlockBegin
  2
*Model_Space
 70
     0
 10
0.0
 20
0.0
 30
0.0
  3
*Model_Space
  1

  0
ENDBLK
  5
21
330
1F
100
AcDbEntity
  8
0
100
AcDbBlockEnd
  0
BLOCK
  5
1C
330
1B
100
AcDbEntity
 67
     1
  8
0
100
AcDbBlockBegin
  2
*Paper_Space
 70
     0
 10
0.0
 20
0.0
 30
0.0
  3
*Paper_Space
  1

  0
ENDBLK
  5
1D
330
1B
100
AcDbEntity
 67
     1
  8
0
100
AcDbBlockEnd
  0
BLOCK
  5
A8
330
5E
100
AcDbEntity
  8
0
100
AcDbBlockBegin
  2
SE
 70
     0
 10
0.0
 20
0.0
 30
0.0
  3
SE
  1

  0
INSERT
  5
61
330
5E
100
AcDbEntity
  8
Default
100
AcDbBlockReference
  2
SE1
 10
0.0
 20
0.0
 30
0.0
  0
INSERT
  5
6D
330
5E
100
AcDbEntity
  8
Default
100
AcDbBlockReference
  2
SE2
 10
0.0
 20
0.0
 30
0.0
  0
INSERT
  5
79
330
5E
100
AcDbEntity
  8
Default
100
AcDbBlockReference
  2
SE3
 10
0.0
 20
0.0
 30
0.0
  0
INSERT
  5
85
330
5E
100
AcDbEntity
  8
Default
100
AcDbBlockReference
  2
SE4
 10
0.0
 20
0.0
 30
0.0
  0
INSERT
  5
91
330
5E
100
AcDbEntity
  8
Default
100
AcDbBlockReference
  2
SE5
 10
0.0
 20
0.0
 30
0.0
  0
INSERT
  5
9D
330
5E
100
AcDbEntity
  8
Default
100
AcDbBlockReference
  2
SE6
 10
0.0
 20
0.0
 30
0.0
  0
ENDBLK
  5
A9
330
5E
100
AcDbEntity
  8
0
100
AcDbBlockEnd
  0
BLOCK
  5
6A
330
60
100
AcDbEntity
  8
0
100
AcDbBlockBegin
  2
SE1
 70
     0
 10
0.0
 20
0.0
 30
0.0
  3
SE1
  1

  0
LINE
  5
62
330
60
100
AcDbEntity
  8
Default
  6
Continuous
 62
     7
100
AcDbLine
 10
224.6902126927
 20
254.4981072146
 30
0.0
 11
226.227926178
 21
253.6006574623
 31
0.0
  0
ARC
  5
63
330
60
100
AcDbEntity
  8
Default
  6
Continuous
 62
     7
100
AcDbCircle
 10
220.3309838935
 20
254.6840808815
 30
0.0
 40
1.625
100
AcDbArc
 50
118.2647189392
 51
284.7230855659
  0
ARC
  5
64
330
60
100
AcDbEntity
  8
Default
  6
Continuous
 62
     7
100
AcDbCircle
 10
224.533182091
 20
256.4714445011
 30
0.0
 40
1.625
100
AcDbArc
 50
59.7230855659
 51
104.7230855659
  0
ARC
  5
65
330
60
100
AcDbEntity
  8
Default
  6
Continuous
 62
     7
100
AcDbCircle
 10
227.0433840026
 20
255.0062368931
 30
0.0
 40
1.625
100
AcDbArc
 50
239.8795033137
 51
61.1284606774
  0
ARC
  5
66
330
60
100
AcDbEntity
  8
Default
  6
Continuous
 62
     7
100
AcDbCircle
 10
224.3460589362
 20
253.7135925664
 30
0.0
 40
0.8566825791219547
100
AcDbArc
 50
66.3137238056
 51
113.0419975732
  0
LINE
  5
67
330
60
100
AcDbEntity
  8
Default
  6
Continuous
 62
     7
100
AcDbLine
 10
225.3524741104
 20
257.8747924932
 30
0.0
 11
227.8867415535
 21
256.3952556264
 31
0.0
  0
LINE
  5
68
330
60
100
AcDbEntity
  8
Default
  6
Continuous
 62
     7
100
AcDbLine
 10
220.7439738324
 20
253.1124370572
 30
0.0
 11
224.010748449
 21
254.5019274689
 31
0.0
  0
LINE
  5
69
330
60
100
AcDbEntity
  8
Default
  6
Continuous
 62
     7
100
AcDbLine
 10
219.5614717296
 20
256.1153306953
 30
0.0
 11
224.1201921522
 21
258.0430883254
 31
0.0
  0
ENDBLK
  5
6B
330
60
100
AcDbEntity
  8
0
100
AcDbBlockEnd
  0
BLOCK
  5
76
330
6C
100
AcDbEntity
  8
0
100
AcDbBlockBegin
  2
SE2
 70
     0
 10
0.0
 20
0.0
 30
0.0
  3
SE2
  1

  0
LINE
  5
6E
330
6C
100
AcDbEntity
  8
Default
  6
Continuous
 62
     7
100
AcDbLine
 10
207.2289974992
 20
255.71304037
 30
0.0
 11
208.7750685259
 21
256.5960144359
 31
0.0
  0
ARC
  5
6F
330
6C
100
AcDbEntity
  8
Default
  6
Continuous
 62
     7
100
AcDbCircle
 10
204.8883251796
 20
252.0308243225
 30
0.0
 40
1.625
100
AcDbArc
 50
178.2647189392
 51
344.7230855659
  0
ARC
  5
70
330
6C
100
AcDbEntity
  8
Default
  6
Continuous
 62
     7
100
AcDbCircle
 10
205.4415219779
 20
256.563716523
 30
0.0
 40
1.625
100
AcDbArc
 50
119.7230855659
 51
164.7230855659
  0
ARC
  5
71
330
6C
100
AcDbEntity
  8
Default
  6
Continuous
 62
     7
100
AcDbCircle
 10
207.965529944
 20
258.0050113431
 30
0.0
 40
1.625
100
AcDbArc
 50
299.8795033138
 51
121.1284606774
  0
ARC
  5
72
330
6C
100
AcDbEntity
  8
Default
  6
Continuous
 62
     7
100
AcDbCircle
 10
207.7363302359
 20
255.0227371499
 30
0.0
 40
0.8566825791219547
100
AcDbArc
 50
126.3137238056
 51
173.0419975732
  0
LINE
  5
73
330
6C
100
AcDbEntity
  8
Default
  6
Continuous
 62
     7
100
AcDbLine
 10
204.6358329761
 20
257.974918221
 30
0.0
 11
207.1842832102
 21
259.4298897733
 31
0.0
  0
LINE
  5
74
330
6C
100
AcDbEntity
  8
Default
  6
Continuous
 62
     7
100
AcDbLine
 10
206.4559036265
 20
251.6026621889
 30
0.0
 11
206.88595694
 21
255.1265172011
 31
0.0
  0
LINE
  5
75
330
6C
100
AcDbEntity
  8
Default
  6
Continuous
 62
     7
100
AcDbLine
 10
203.2640703997
 20
252.0800321468
 30
0.0
 11
203.8739435309
 21
256.9918786566
 31
0.0
  0
ENDBLK
  5
77
330
6C
100
AcDbEntity
  8
0
100
AcDbBlockEnd
  0
BLOCK
  5
82
330
78
100
AcDbEntity
  8
0
100
AcDbBlockBegin
  2
SE3
 70
     0
 10
0.0
 20
0.0
 30
0.0
  3
SE3
  1

  0
LINE
  5
7A
330
78
100
AcDbEntity
  8
Default
  6
Continuous
 62
     7
100
AcDbLine
 10
197.4462269259
 20
241.1986510092
 30
0.0
 11
197.4545844673
 21
242.9790748273
 31
0.0
  0
ARC
  5
7B
330
78
100
AcDbEntity
  8
Default
  6
Continuous
 62
     7
100
AcDbCircle
 10
199.4647834055
 20
237.3304612947
 30
0.0
 40
1.625
100
AcDbArc
 50
238.2647189392
 51
44.7230855659
  0
ARC
  5
7C
330
78
100
AcDbEntity
  8
Default
  6
Continuous
 62
     7
100
AcDbCircle
 10
195.8157820063
 20
240.0759898756
 30
0.0
 40
1.625
100
AcDbArc
 50
179.7230855659
 51
224.7230855659
  0
ARC
  5
7D
330
78
100
AcDbEntity
  8
Default
  6
Continuous
 62
     7
100
AcDbCircle
 10
195.8295880609
 20
242.9824923036
 30
0.0
 40
1.625
100
AcDbArc
 50
359.8795033137
 51
181.1284606774
  0
ARC
  5
7E
330
78
100
AcDbEntity
  8
Default
  6
Continuous
 62
     7
100
AcDbCircle
 10
198.2977134191
 20
241.2928624373
 30
0.0
 40
0.8566825791219547
100
AcDbArc
 50
186.3137238056
 51
233.0419975732
  0
LINE
  5
7F
330
78
100
AcDbEntity
  8
Default
  6
Continuous
 62
     7
100
AcDbLine
 10
194.1908009851
 20
240.0838435815
 30
0.0
 11
194.2049837761
 21
243.0183520006
 31
0.0
  0
LINE
  5
80
330
78
100
AcDbEntity
  8
Default
  6
Continuous
 62
     7
100
AcDbLine
 10
200.6193719136
 20
238.4739429854
 30
0.0
 11
197.7826506104
 21
240.608307586
 31
0.0
  0
LINE
  5
81
330
78
100
AcDbEntity
  8
Default
  6
Continuous
 62
     7
100
AcDbLine
 10
198.6100407896
 20
235.9484193053
 30
0.0
 11
194.6611934982
 21
238.9325081849
 31
0.0
  0
ENDBLK
  5
83
330
78
100
AcDbEntity
  8
0
100
AcDbBlockEnd
  0
BLOCK
  5
8E
330
84
100
AcDbEntity
  8
0
100
AcDbBlockBegin
  2
SE4
 70
     0
 10
0.0
 20
0.0
 30
0.0
  3
SE4
  1

  0
LINE
  5
86
330
84
100
AcDbEntity
  8
Default
  6
Continuous
 62
     7
100
AcDbLine
 10
205.1246715462
 20
225.4693284929
 30
0.0
 11
203.5869580608
 21
226.3667782451
 31
0.0
  0
ARC
  5
87
330
84
100
AcDbEntity
  8
Default
  6
Continuous
 62
     7
100
AcDbCircle
 10
209.4839003453
 20
225.283354826
 30
0.0
 40
1.625
100
AcDbArc
 50
298.2647189392
 51
104.7230855659
  0
ARC
  5
88
330
84
100
AcDbEntity
  8
Default
  6
Continuous
 62
     7
100
AcDbCircle
 10
205.2817021479
 20
223.4959912063
 30
0.0
 40
1.625
100
AcDbArc
 50
239.7230855659
 51
284.7230855659
  0
ARC
  5
89
330
84
100
AcDbEntity
  8
Default
  6
Continuous
 62
     7
100
AcDbCircle
 10
202.7715002363
 20
224.9611988143
 30
0.0
 40
1.625
100
AcDbArc
 50
59.8795033137
 51
241.1284606774
  0
ARC
  5
8A
330
84
100
AcDbEntity
  8
Default
  6
Continuous
 62
     7
100
AcDbCircle
 10
205.4688253027
 20
226.2538431411
 30
0.0
 40
0.8566825791219547
100
AcDbArc
 50
246.3137238056
 51
293.0419975732
  0
LINE
  5
8B
330
84
100
AcDbEntity
  8
Default
  6
Continuous
 62
     7
100
AcDbLine
 10
204.4624101284
 20
222.0926432142
 30
0.0
 11
201.9281426854
 21
223.5721800811
 31
0.0
  0
LINE
  5
8C
330
84
100
AcDbEntity
  8
Default
  6
Continuous
 62
     7
100
AcDbLine
 10
209.0709104065
 20
226.8549986503
 30
0.0
 11
205.8041357899
 21
225.4655082386
 31
0.0
  0
LINE
  5
8D
330
84
100
AcDbEntity
  8
Default
  6
Continuous
 62
     7
100
AcDbLine
 10
210.2534125093
 20
223.8521050122
 30
0.0
 11
205.6946920867
 21
221.924347382
 31
0.0
  0
ENDBLK
  5
8F
330
84
100
AcDbEntity
  8
0
100
AcDbBlockEnd
  0
BLOCK
  5
9A
330
90
100
AcDbEntity
  8
0
100
AcDbBlockBegin
  2
SE5
 70
     0
 10
0.0
 20
0.0
 30
0.0
  3
SE5
  1

  0
LINE
  5
92
330
90
100
AcDbEntity
  8
Default
  6
Continuous
 62
     7
100
AcDbLine
 10
222.5858867397
 20
224.2543953374
 30
0.0
 11
221.039815713
 21
223.3714212716
 31
0.0
  0
ARC
  5
93
330
90
100
AcDbEntity
  8
Default
  6
Continuous
 62
     7
100
AcDbCircle
 10
224.9265590593
 20
227.936611385
 30
0.0
 40
1.625
100
AcDbArc
 50
358.2647189392
 51
164.7230855659
  0
ARC
  5
94
330
90
100
AcDbEntity
  8
Default
  6
Continuous
 62
     7
100
AcDbCircle
 10
224.373362261
 20
223.4037191844
 30
0.0
 40
1.625
100
AcDbArc
 50
299.7230855659
 51
344.7230855659
  0
ARC
  5
95
330
90
100
AcDbEntity
  8
Default
  6
Continuous
 62
     7
100
AcDbCircle
 10
221.8493542948
 20
221.9624243644
 30
0.0
 40
1.625
100
AcDbArc
 50
119.8795033137
 51
301.1284606774
  0
ARC
  5
96
330
90
100
AcDbEntity
  8
Default
  6
Continuous
 62
     7
100
AcDbCircle
 10
222.078554003
 20
224.9446985575
 30
0.0
 40
0.8566825791219547
100
AcDbArc
 50
306.3137238056
 51
353.0419975732
  0
LINE
  5
97
330
90
100
AcDbEntity
  8
Default
  6
Continuous
 62
     7
100
AcDbLine
 10
225.1790512627
 20
221.9925174864
 30
0.0
 11
222.6306010287
 21
220.5375459342
 31
0.0
  0
LINE
  5
98
330
90
100
AcDbEntity
  8
Default
  6
Continuous
 62
     7
100
AcDbLine
 10
223.3589806123
 20
228.3647735186
 30
0.0
 11
222.9289272988
 21
224.8409185063
 31
0.0
  0
LINE
  5
99
330
90
100
AcDbEntity
  8
Default
  6
Continuous
 62
     7
100
AcDbLine
 10
226.5508138392
 20
227.8874035606
 30
0.0
 11
225.9409407079
 21
222.9755570508
 31
0.0
  0
ENDBLK
  5
9B
330
90
100
AcDbEntity
  8
0
100
AcDbBlockEnd
  0
BLOCK
  5
A6
330
9C
100
AcDbEntity
  8
0
100
AcDbBlockBegin
  2
SE6
 70
     0
 10
0.0
 20
0.0
 30
0.0
  3
SE6
  1

  0
LINE
  5
9E
330
9C
100
AcDbEntity
  8
Default
  6
Continuous
 62
     7
100
AcDbLine
 10
232.368657313
 20
238.7687846983
 30
0.0
 11
232.3602997716
 21
236.9883608801
 31
0.0
  0
ARC
  5
9F
330
9C
100
AcDbEntity
  8
Default
  6
Continuous
 62
     7
100
AcDbCircle
 10
230.3501008334
 20
242.6369744127
 30
0.0
 40
1.625
100
AcDbArc
 50
58.2647189392
 51
224.7230855659
  0
ARC
  5
A0
330
9C
100
AcDbEntity
  8
Default
  6
Continuous
 62
     7
100
AcDbCircle
 10
233.9991022325
 20
239.8914458318
 30
0.0
 40
1.625
100
AcDbArc
 50
359.7230855659
 51
44.7230855659
  0
ARC
  5
A1
330
9C
100
AcDbEntity
  8
Default
  6
Continuous
 62
     7
100
AcDbCircle
 10
233.985296178
 20
236.9849434038
 30
0.0
 40
1.625
100
AcDbArc
 50
179.8795033137
 51
1.1284606774
  0
ARC
  5
A2
330
9C
100
AcDbEntity
  8
Default
  6
Continuous
 62
     7
100
AcDbCircle
 10
231.5171708197
 20
238.6745732701
 30
0.0
 40
0.8566825791219547
100
AcDbArc
 50
6.3137238056
 51
53.0419975732
  0
LINE
  5
A3
330
9C
100
AcDbEntity
  8
Default
  6
Continuous
 62
     7
100
AcDbLine
 10
235.6240832537
 20
239.8835921259
 30
0.0
 11
235.6099004627
 21
236.9490837068
 31
0.0
  0
LINE
  5
A4
330
9C
100
AcDbEntity
  8
Default
  6
Continuous
 62
     7
100
AcDbLine
 10
229.1955123253
 20
241.493492722
 30
0.0
 11
232.0322336284
 21
239.3591281215
 31
0.0
  0
LINE
  5
A5
330
9C
100
AcDbEntity
  8
Default
  6
Continuous
 62
     7
100
AcDbLine
 10
231.2048434493
 20
244.0190164022
 30
0.0
 11
235.1536907406
 21
241.0349275225
 31
0.0
  0
ENDBLK
  5
A7
330
9C
100
AcDbEntity
  8
0
100
AcDbBlockEnd
  0
ENDSEC
  0
SECTION
  2
ENTITIES
  0
CIRCLE
  5
3C
330
1F
100
AcDbEntity
  8
Default
  6
Continuous
 62
     7
100
AcDbCircle
 10
214.9074421194
 20
260.1083296512
 30
0.0
 40
1.5
  0
CIRCLE
  5
3D
330
1F
100
AcDbEntity
  8
Default
  6
Continuous
 62
     7
100
AcDbCircle
 10
197.4790170615
 20
250.0460237525
 30
0.0
 40
1.5
  0
CIRCLE
  5
3E
330
1F
100
AcDbEntity
  8
Default
  6
Continuous
 62
     7
100
AcDbCircle
 10
197.4790170615
 20
229.921411955
 30
0.0
 40
1.5
  0
CIRCLE
  5
3F
330
1F
100
AcDbEntity
  8
Default
  6
Continuous
 62
     7
100
AcDbCircle
 10
214.9074421194
 20
219.8591060562
 30
0.0
 40
1.5
  0
CIRCLE
  5
40
330
1F
100
AcDbEntity
  8
Default
  6
Continuous
 62
     7
100
AcDbCircle
 10
232.3358671774
 20
229.921411955
 30
0.0
 40
1.5
  0
CIRCLE
  5
41
330
1F
100
AcDbEntity
  8
Default
  6
Continuous
 62
     7
100
AcDbCircle
 10
214.9074421194
 20
239.9837178537
 30
0.0
 40
25.0
  0
CIRCLE
  5
42
330
1F
100
AcDbEntity
  8
Default
  6
Continuous
 62
     7
100
AcDbCircle
 10
232.3358671774
 20
250.0460237525
 30
0.0
 40
1.5
  0
ARC
  5
43
330
1F
100
AcDbEntity
  8
Default
  6
Continuous
 62
     7
100
AcDbCircle
 10
219.5324421194
 20
242.4837178537
 30
0.0
 40
0.75
100
AcDbArc
 50
90.0
 51
180.0
  0
LINE
  5
44
330
1F
100
AcDbEntity
  8
Default
  6
Continuous
 62
     7
100
AcDbLine
 10
221.2824421194
 20
243.2337178537
 30
0.0
 11
219.5324421194
 21
243.2337178537
 31
0.0
  0
ARC
  5
45
330
1F
100
AcDbEntity
  8
Default
  6
Continuous
 62
     7
100
AcDbCircle
 10
221.2824421194
 20
242.4837178537
 30
0.0
 40
0.75
100
AcDbArc
 50
0.0
 51
90.0
  0
LINE
  5
46
330
1F
100
AcDbEntity
  8
Default
  6
Continuous
 62
     7
100
AcDbLine
 10
222.0324421194
 20
237.4837178537
 30
0.0
 11
222.0324421194
 21
242.4837178537
 31
0.0
  0
ARC
  5
47
330
1F
100
AcDbEntity
  8
Default
  6
Continuous
 62
     7
100
AcDbCircle
 10
221.2824421194
 20
237.4837178537
 30
0.0
 40
0.75
100
AcDbArc
 50
270.0
 51
0.0
  0
LINE
  5
48
330
1F
100
AcDbEntity
  8
Default
  6
Continuous
 62
     7
100
AcDbLine
 10
219.5324421194
 20
236.7337178537
 30
0.0
 11
221.2824421194
 21
236.7337178537
 31
0.0
  0
ARC
  5
49
330
1F
100
AcDbEntity
  8
Default
  6
Continuous
 62
     7
100
AcDbCircle
 10
219.5324421194
 20
237.4837178537
 30
0.0
 40
0.75
100
AcDbArc
 50
180.0
 51
270.0
  0
LINE
  5
4A
330
1F
100
AcDbEntity
  8
Default
  6
Continuous
 62
     7
100
AcDbLine
 10
218.7824421194
 20
242.4837178537
 30
0.0
 11
218.7824421194
 21
237.4837178537
 31
0.0
  0
ARC
  5
4B
330
1F
100
AcDbEntity
  8
Default
  6
Continuous
 62
     7
100
AcDbCircle
 10
210.2824421194
 20
242.4837178537
 30
0.0
 40
0.75
100
AcDbArc
 50
0.0
 51
90.0
  0
LINE
  5
4C
330
1F
100
AcDbEntity
  8
Default
  6
Continuous
 62
     7
100
AcDbLine
 10
208.5324421194
 20
243.2337178537
 30
0.0
 11
210.2824421194
 21
243.2337178537
 31
0.0
  0
ARC
  5
4D
330
1F
100
AcDbEntity
  8
Default
  6
Continuous
 62
     7
100
AcDbCircle
 10
208.5324421194
 20
242.4837178537
 30
0.0
 40
0.75
100
AcDbArc
 50
90.0
 51
180.0
  0
LINE
  5
4E
330
1F
100
AcDbEntity
  8
Default
  6
Continuous
 62
     7
100
AcDbLine
 10
207.7824421194
 20
237.4837178537
 30
0.0
 11
207.7824421194
 21
242.4837178537
 31
0.0
  0
ARC
  5
4F
330
1F
100
AcDbEntity
  8
Default
  6
Continuous
 62
     7
100
AcDbCircle
 10
208.5324421194
 20
237.4837178537
 30
0.0
 40
0.7500000000002274
100
AcDbArc
 50
180.0
 51
270.0
  0
LINE
  5
50
330
1F
100
AcDbEntity
  8
Default
  6
Continuous
 62
     7
100
AcDbLine
 10
210.2824421194
 20
236.7337178537
 30
0.0
 11
208.5324421194
 21
236.7337178537
 31
0.0
  0
ARC
  5
51
330
1F
100
AcDbEntity
  8
Default
  6
Continuous
 62
     7
100
AcDbCircle
 10
210.2824421194
 20
237.4837178537
 30
0.0
 40
0.75
100
AcDbArc
 50
270.0
 51
0.0
  0
LINE
  5
52
330
1F
100
AcDbEntity
  8
Default
  6
Continuous
 62
     7
100
AcDbLine
 10
211.0324421194
 20
242.4837178537
 30
0.0
 11
211.0324421194
 21
237.4837178537
 31
0.0
  0
CIRCLE
  5
53
330
1F
100
AcDbEntity
  8
Default
  6
Continuous
 62
     7
100
AcDbCircle
 10
214.9074421194
 20
239.9837178537
 30
0.0
 40
1.5
  0
LINE
  5
54
330
1F
100
AcDbEntity
  8
Default
  6
Continuous
 62
     7
100
AcDbLine
 10
218.1574421194
 20
252.2337178537
 30
0.0
 11
211.6574421194
 21
252.2337178537
 31
0.0
  0
LINE
  5
55
330
1F
100
AcDbEntity
  8
Default
  6
Continuous
 62
     7
100
AcDbLine
 10
211.6574421194
 20
252.2337178537
 30
0.0
 11
211.6574421194
 21
245.7337178537
 31
0.0
  0
LINE
  5
56
330
1F
100
AcDbEntity
  8
Default
  6
Continuous
 62
     7
100
AcDbLine
 10
211.6574421194
 20
245.7337178537
 30
0.0
 11
218.1574421194
 21
245.7337178537
 31
0.0
  0
LINE
  5
57
330
1F
100
AcDbEntity
  8
Default
  6
Continuous
 62
     7
100
AcDbLine
 10
218.1574421194
 20
245.7337178537
 30
0.0
 11
218.1574421194
 21
252.2337178537
 31
0.0
  0
CIRCLE
  5
58
330
1F
100
AcDbEntity
  8
Default
  6
Continuous
 62
     7
100
AcDbCircle
 10
214.9074421194
 20
248.9837178537
 30
0.0
 40
1.5
  0
LINE
  5
59
330
1F
100
AcDbEntity
  8
Default
  6
Continuous
 62
     7
100
AcDbLine
 10
218.1574421194
 20
234.2337178537
 30
0.0
 11
211.6574421194
 21
234.2337178537
 31
0.0
  0
LINE
  5
5A
330
1F
100
AcDbEntity
  8
Default
  6
Continuous
 62
     7
100
AcDbLine
 10
211.6574421194
 20
234.2337178537
 30
0.0
 11
211.6574421194
 21
227.7337178537
 31
0.0
  0
LINE
  5
5B
330
1F
100
AcDbEntity
  8
Default
  6
Continuous
 62
     7
100
AcDbLine
 10
211.6574421194
 20
227.7337178537
 30
0.0
 11
218.1574421194
 21
227.7337178537
 31
0.0
  0
LINE
  5
5C
330
1F
100
AcDbEntity
  8
Default
  6
Continuous
 62
     7
100
AcDbLine
 10
218.1574421194
 20
227.7337178537
 30
0.0
 11
218.1574421194
 21
234.2337178537
 31
0.0
  0
CIRCLE
  5
5D
330
1F
100
AcDbEntity
  8
Default
  6
Continuous
 62
     7
100
AcDbCircle
 10
214.9074421194
 20
230.9837178537
 30
0.0
 40
1.5
  0
INSERT
  5
5F
330
1F
100
AcDbEntity
  8
Default
100
AcDbBlockReference
  2
SE
 10
0.0
 20
0.0
 30
0.0
  0
ENDSEC
  0
SECTION
  2
OBJECTS
  0
DICTIONARY
  5
C
330
0
100
AcDbDictionary
281
     1
  3
ACAD_GROUP
350
D
  3
ACAD_LAYOUT
350
1A
  3
ACAD_MLEADERSTYLE
350
AC
  3
ACAD_MLINESTYLE
350
17
  3
ACAD_PLOTSETTINGS
350
19
  3
ACAD_PLOTSTYLENAME
350
E
  3
ACAD_VISUALSTYLE
350
2A
  3
AcDbVariableDictionary
350
AA
  0
DICTIONARY
  5
D
102
{ACAD_REACTORS
330
C
102
}
330
C
100
AcDbDictionary
281
     1
  0
DICTIONARY
  5
1A
102
{ACAD_REACTORS
330
C
102
}
330
C
100
AcDbDictionary
281
     1
  3
Layout1
350
1E
  3
Model
350
22
  0
DICTIONARY
  5
AC
102
{ACAD_REACTORS
330
C
102
}
330
C
100
AcDbDictionary
281
     1
  0
DICTIONARY
  5
17
102
{ACAD_REACTORS
330
C
102
}
330
C
100
AcDbDictionary
281
     1
  3
Standard
350
18
  0
DICTIONARY
  5
19
102
{ACAD_REACTORS
330
C
102
}
330
C
100
AcDbDictionary
281
     1
  0
ACDBDICTIONARYWDFLT
  5
E
102
{ACAD_REACTORS
330
C
102
}
330
C
100
AcDbDictionary
281
     1
  3
Normal
350
F
100
AcDbDictionaryWithDefault
340
F
  0
DICTIONARY
  5
2A
102
{ACAD_REACTORS
330
C
102
}
330
C
100
AcDbDictionary
281
     1
  3
2dWireframe
350
2F
  3
3D Hidden
350
31
  3
3dWireframe
350
30
  3
Basic
350
32
  3
Brighten
350
36
  3
ColorChange
350
3A
  3
Conceptual
350
34
  3
Dim
350
35
  3
Facepattern
350
39
  3
Flat
350
2B
  3
FlatWithEdges
350
2C
  3
Gouraud
350
2D
  3
GouraudWithEdges
350
2E
  3
Linepattern
350
38
  3
Realistic
350
33
  3
Thicken
350
37
  0
DICTIONARY
  5
AA
102
{ACAD_REACTORS
330
C
102
}
330
C
100
AcDbDictionary
281
     1
  3
PSOLHEIGHT
350
AE
  3
PSOLWIDTH
350
AD
  0
LAYOUT
  5
1E
102
{ACAD_REACTORS
330
1A
102
}
330
1A
100
AcDbPlotSettings
  1

  2
none_device
  4

  6

 40
0.0
 41
0.0
 42
0.0
 43
0.0
 44
0.0
 45
0.0
 46
0.0
 47
0.0
 48
0.0
 49
0.0
140
0.0
141
0.0
142
1.0
143
1.0
 70
   688
 72
     0
 73
     0
 74
     5
  7

 75
    16
147
1.0
148
0.0
149
0.0
100
AcDbLayout
  1
Layout1
 70
     1
 71
     1
 10
0.0
 20
0.0
 11
594.0
 21
420.0
 12
0.0
 22
0.0
 32
0.0
 14
0.0
 24
0.0
 34
0.0
 15
594.0
 25
420.0
 35
0.0
146
0.0
 13
0.0
 23
0.0
 33
0.0
 16
1.0
 26
0.0
 36
0.0
 17
0.0
 27
1.0
 37
0.0
 76
     0
330
1B
  0
LAYOUT
  5
22
102
{ACAD_REACTORS
330
1A
102
}
330
1A
100
AcDbPlotSettings
  1

  2
none_device
  4

  6

 40
0.0
 41
0.0
 42
0.0
 43
0.0
 44
0.0
 45
0.0
 46
0.0
 47
0.0
 48
0.0
 49
0.0
140
0.0
141
0.0
142
1.0
143
1.0
 70
  1712
 72
     0
 73
     0
 74
     0
  7

 75
     0
147
1.0
148
0.0
149
0.0
100
AcDbLayout
  1
Model
 70
     1
 71
     0
 10
0.0
 20
0.0
 11
594.0
 21
420.0
 12
0.0
 22
0.0
 32
0.0
 14
0.0
 24
0.0
 34
0.0
 15
594.0
 25
420.0
 35
0.0
146
0.0
 13
0.0
 23
0.0
 33
0.0
 16
1.0
 26
0.0
 36
0.0
 17
0.0
 27
1.0
 37
0.0
 76
     0
330
1F
331
29
  0
MLINESTYLE
  5
18
102
{ACAD_REACTORS
330
17
102
}
330
17
100
AcDbMlineStyle
  2
Standard
 70
     0
  3

 62
   256
 51
90.0
 52
90.0
 71
     2
 49
0.5
 62
   256
  6
BYLAYER
 49
-0.5
 62
   256
  6
BYLAYER
  0
ACDBPLACEHOLDER
  5
F
102
{ACAD_REACTORS
330
E
102
}
330
E
  0
VISUALSTYLE
  5
2F
102
{ACAD_REACTORS
330
2A
102
}
330
2A
100
AcDbVisualStyle
  2
2dWireframe
 70
     4
 71
     0
 72
     2
 73
     0
 90
        0
 40
-0.6
 41
-30.0
 62
     5
 63
     7
 74
     1
 91
        4
 64
     7
 65
   257
 75
     1
175
     1
 42
1.0
 92
        0
 66
   257
 43
1.0
 76
     1
 77
     6
 78
     2
 67
     7
 79
     5
170
     0
171
     0
290
     0
174
     0
 93
        1
 44
0.0
173
     0
291
     0
 45
0.0
1001
ACAD
1000
AcDbSavedByObjectVersion
1070
     0
  0
VISUALSTYLE
  5
31
102
{ACAD_REACTORS
330
2A
102
}
330
2A
100
AcDbVisualStyle
  2
3D Hidden
 70
     6
 71
     1
 72
     2
 73
     2
 90
        0
 40
-0.6
 41
-30.0
 62
     5
 63
     7
 74
     2
 91
        2
 64
     7
 65
   257
 75
     2
175
     1
 42
40.0
 92
        0
 66
   257
 43
1.0
 76
     1
 77
     6
 78
     2
 67
     7
 79
     3
170
     0
171
     0
290
     0
174
     0
 93
        1
 44
0.0
173
     0
291
     0
 45
0.0
1001
ACAD
1000
AcDbSavedByObjectVersion
1070
     0
  0
VISUALSTYLE
  5
30
102
{ACAD_REACTORS
330
2A
102
}
330
2A
100
AcDbVisualStyle
  2
3dWireframe
 70
     5
 71
     0
 72
     2
 73
     0
 90
        0
 40
-0.6
 41
-30.0
 62
     5
 63
     7
 74
     1
 91
        4
 64
     7
 65
   257
 75
     1
175
     1
 42
1.0
 92
        0
 66
   257
 43
1.0
 76
     1
 77
     6
 78
     2
 67
     7
 79
     5
170
     0
171
     0
290
     0
174
     0
 93
        1
 44
0.0
173
     0
291
     0
 45
0.0
1001
ACAD
1000
AcDbSavedByObjectVersion
1070
     0
  0
VISUALSTYLE
  5
32
102
{ACAD_REACTORS
330
2A
102
}
330
2A
100
AcDbVisualStyle
  2
Basic
 70
     7
 71
     1
 72
     0
 73
     1
 90
        0
 40
-0.6
 41
-30.0
 62
     5
 63
     7
 74
     0
 91
        4
 64
     7
 65
   257
 75
     1
175
     1
 42
1.0
 92
        8
 66
     7
 43
1.0
 76
     1
 77
     6
 78
     2
 67
     7
 79
     5
170
     0
171
     0
290
     0
174
     0
 93
        1
 44
0.0
173
     0
291
     1
 45
0.0
1001
ACAD
1000
AcDbSavedByObjectVersion
1070
     0
  0
VISUALSTYLE
  5
36
102
{ACAD_REACTORS
330
2A
102
}
330
2A
100
AcDbVisualStyle
  2
Brighten
 70
    12
 71
     2
 72
     2
 73
     0
 90
        0
 40
-0.6
 41
-30.0
 62
     5
 63
     7
 74
     1
 91
        4
 64
     7
 65
   257
 75
     1
175
     1
 42
1.0
 92
        8
 66
     7
 43
1.0
 76
     1
 77
     6
 78
     2
 67
     7
 79
     5
170
     0
171
     0
290
     0
174
     0
 93
        1
 44
50.0
173
     0
291
     1
 45
0.0
1001
ACAD
1000
AcDbSavedByObjectVersion
1070
     0
  0
VISUALSTYLE
  5
3A
102
{ACAD_REACTORS
330
2A
102
}
330
2A
100
AcDbVisualStyle
  2
ColorChange
 70
    16
 71
     2
 72
     2
 73
     3
 90
        0
 40
-0.6
 41
-30.0
 62
     5
 63
     8
 74
     1
 91
        4
 64
     7
 65
   257
 75
     1
175
     1
 42
1.0
 92
        8
 66
     8
 43
1.0
 76
     1
 77
     6
 78
     2
 67
     7
 79
     5
170
     0
171
     0
290
     0
174
     0
 93
        1
 44
0.0
173
     0
291
     1
 45
0.0
1001
ACAD
1000
AcDbSavedByObjectVersion
1070
     0
  0
VISUALSTYLE
  5
34
102
{ACAD_REACTORS
330
2A
102
}
330
2A
100
AcDbVisualStyle
  2
Conceptual
 70
     9
 71
     3
 72
     2
 73
     0
 90
        0
 40
-0.6
 41
-30.0
 62
     5
 63
     7
 74
     2
 91
        2
 64
     7
 65
   257
 75
     1
175
     1
 42
40.0
 92
        8
 66
     7
 43
1.0
 76
     1
 77
     6
 78
     2
 67
     7
 79
     3
170
     0
171
     0
290
     0
174
     0
 93
        1
 44
0.0
173
     0
291
     0
 45
0.0
1001
ACAD
1000
AcDbSavedByObjectVersion
1070
     0
  0
VISUALSTYLE
  5
35
102
{ACAD_REACTORS
330
2A
102
}
330
2A
100
AcDbVisualStyle
  2
Dim
 70
    11
 71
     2
 72
     2
 73
     0
 90
        0
 40
-0.6
 41
-30.0
 62
     5
 63
     7
 74
     1
 91
        4
 64
     7
 65
   257
 75
     1
175
     1
 42
1.0
 92
        8
 66
     7
 43
1.0
 76
     1
 77
     6
 78
     2
 67
     7
 79
     5
170
     0
171
     0
290
     0
174
     0
 93
        1
 44
-50.0
173
     0
291
     1
 45
0.0
1001
ACAD
1000
AcDbSavedByObjectVersion
1070
     0
  0
VISUALSTYLE
  5
39
102
{ACAD_REACTORS
330
2A
102
}
330
2A
100
AcDbVisualStyle
  2
Facepattern
 70
    15
 71
     2
 72
     2
 73
     0
 90
        0
 40
-0.6
 41
-30.0
 62
     5
 63
     7
 74
     1
 91
        4
 64
     7
 65
   257
 75
     1
175
     1
 42
1.0
 92
        8
 66
     7
 43
1.0
 76
     1
 77
     6
 78
     2
 67
     7
 79
     5
170
     0
171
     0
290
     0
174
     0
 93
        1
 44
0.0
173
     0
291
     1
 45
0.0
1001
ACAD
1000
AcDbSavedByObjectVersion
1070
     0
  0
VISUALSTYLE
  5
2B
102
{ACAD_REACTORS
330
2A
102
}
330
2A
100
AcDbVisualStyle
  2
Flat
 70
     0
 71
     2
 72
     1
 73
     1
 90
        2
 40
-0.6
 41
30.0
 62
     5
 63
     7
 74
     0
 91
        4
 64
     7
 65
   257
 75
     1
175
     1
 42
1.0
 92
        8
 66
     7
 43
1.0
 76
     1
 77
     6
 78
     2
 67
     7
 79
     5
170
     0
171
     0
290
     0
174
     0
 93
       13
 44
0.0
173
     0
291
     1
 45
0.0
1001
ACAD
1000
AcDbSavedByObjectVersion
1070
     0
  0
VISUALSTYLE
  5
2C
102
{ACAD_REACTORS
330
2A
102
}
330
2A
100
AcDbVisualStyle
  2
FlatWithEdges
 70
     1
 71
     2
 72
     1
 73
     1
 90
        2
 40
-0.6
 41
30.0
 62
     5
 63
     7
 74
     1
 91
        4
 64
     7
 65
   257
 75
     1
175
     1
 42
1.0
 92
        0
 66
   257
 43
1.0
 76
     1
 77
     6
 78
     2
 67
     7
 79
     5
170
     0
171
     0
290
     0
174
     0
 93
       13
 44
0.0
173
     0
291
     1
 45
0.0
1001
ACAD
1000
AcDbSavedByObjectVersion
1070
     0
  0
VISUALSTYLE
  5
2D
102
{ACAD_REACTORS
330
2A
102
}
330
2A
100
AcDbVisualStyle
  2
Gouraud
 70
     2
 71
     2
 72
     2
 73
     1
 90
        2
 40
-0.6
 41
30.0
 62
     5
 63
     7
 74
     0
 91
        4
 64
     7
 65
   257
 75
     1
175
     1
 42
1.0
 92
        0
 66
     7
 43
1.0
 76
     1
 77
     6
 78
     2
 67
     7
 79
     5
170
     0
171
     0
290
     0
174
     0
 93
       13
 44
0.0
173
     0
291
     1
 45
0.0
1001
ACAD
1000
AcDbSavedByObjectVersion
1070
     0
  0
VISUALSTYLE
  5
2E
102
{ACAD_REACTORS
330
2A
102
}
330
2A
100
AcDbVisualStyle
  2
GouraudWithEdges
 70
     3
 71
     2
 72
     2
 73
     1
 90
        2
 40
-0.6
 41
30.0
 62
     5
 63
     7
 74
     1
 91
        4
 64
     7
 65
   257
 75
     1
175
     1
 42
1.0
 92
        0
 66
   257
 43
1.0
 76
     1
 77
     6
 78
     2
 67
     7
 79
     5
170
     0
171
     0
290
     0
174
     0
 93
       13
 44
0.0
173
     0
291
     1
 45
0.0
1001
ACAD
1000
AcDbSavedByObjectVersion
1070
     0
  0
VISUALSTYLE
  5
38
102
{ACAD_REACTORS
330
2A
102
}
330
2A
100
AcDbVisualStyle
  2
Linepattern
 70
    14
 71
     2
 72
     2
 73
     0
 90
        0
 40
-0.6
 41
-30.0
 62
     5
 63
     7
 74
     1
 91
        4
 64
     7
 65
   257
 75
     7
175
     7
 42
1.0
 92
        8
 66
     7
 43
1.0
 76
     1
 77
     6
 78
     2
 67
     7
 79
     5
170
     0
171
     0
290
     0
174
     0
 93
        1
 44
0.0
173
     0
291
     1
 45
0.0
1001
ACAD
1000
AcDbSavedByObjectVersion
1070
     0
  0
VISUALSTYLE
  5
33
102
{ACAD_REACTORS
330
2A
102
}
330
2A
100
AcDbVisualStyle
  2
Realistic
 70
     8
 71
     2
 72
     2
 73
     0
 90
        0
 40
-0.6
 41
-30.0
 62
     5
 63
     7
 74
     1
 91
        0
 64
     7
 65
   257
 75
     1
175
     1
 42
1.0
 92
        8
 66
     8
 43
1.0
 76
     1
 77
     6
 78
     2
 67
     7
 79
     5
170
     0
171
     0
290
     0
174
     0
 93
       13
 44
0.0
173
     0
291
     0
 45
0.0
1001
ACAD
1000
AcDbSavedByObjectVersion
1070
     0
  0
VISUALSTYLE
  5
37
102
{ACAD_REACTORS
330
2A
102
}
330
2A
100
AcDbVisualStyle
  2
Thicken
 70
    13
 71
     2
 72
     2
 73
     0
 90
        0
 40
-0.6
 41
-30.0
 62
     5
 63
     7
 74
     1
 91
        4
 64
     7
 65
   257
 75
     1
175
     1
 42
1.0
 92
       12
 66
     7
 43
1.0
 76
     1
 77
     6
 78
     2
 67
     7
 79
     5
170
     0
171
     0
290
     0
174
     0
 93
        1
 44
0.0
173
     0
291
     1
 45
0.0
1001
ACAD
1000
AcDbSavedByObjectVersion
1070
     0
  0
DICTIONARYVAR
  5
AE
102
{ACAD_REACTORS
330
AA
102
}
330
AA
100
DictionaryVariables
280
     0
  1
80.000000
  0
DICTIONARYVAR
  5
AD
102
{ACAD_REACTORS
330
AA
102
}
330
AA
100
DictionaryVariables
280
     0
  1
5.000000
  0
ENDSEC
  0
EOF
