  0
SECTION
  2
HEADER
  9
$ACADVER
  1
AC1015
  9
$ACADMAINTVER
 70
     6
  9
$DWGCODEPAGE
  3
ANSI_1252
  9
$INSBASE
 10
0.0
 20
0.0
 30
0.0
  9
$EXTMIN
 10
0.0
 20
0.0
 30
0.0
  9
$EXTMAX
 10
450.0
 20
300.0
 30
0.0
  9
$LIMMIN
 10
0.0
 20
0.0
  9
$LIMMAX
 10
450.0
 20
300.0
  9
$ORTHOMODE
 70
     0
  9
$REGENMODE
 70
     1
  9
$FILLMODE
 70
     1
  9
$QTEXTMODE
 70
     0
  9
$MIRRTEXT
 70
     1
  9
$LTSCALE
 40
1.0
  9
$ATTMODE
 70
     1
  9
$TEXTSIZE
 40
2.5
  9
$TRACEWID
 40
1.0
  9
$TEXTSTYLE
  7
Standard
  9
$CLAYER
  8
0
  9
$CELTYPE
  6
ByLayer
  9
$CECOLOR
 62
   256
  9
$CELTSCALE
 40
1.0
  9
$DISPSILH
 70
     0
  9
$DIMSCALE
 40
1.0
  9
$DIMASZ
 40
2.5
  9
$DIMEXO
 40
0.625
  9
$DIMDLI
 40
3.75
  9
$DIMRND
 40
0.0
  9
$DIMDLE
 40
0.0
  9
$DIMEXE
 40
1.25
  9
$DIMTP
 40
0.0
  9
$DIMTM
 40
0.0
  9
$DIMTXT
 40
2.5
  9
$DIMCEN
 40
2.5
  9
$DIMTSZ
 40
0.0
  9
$DIMTOL
 70
     0
  9
$DIMLIM
 70
     0
  9
$DIMTIH
 70
     0
  9
$DIMTOH
 70
     0
  9
$DIMSE1
 70
     0
  9
$DIMSE2
 70
     0
  9
$DIMTAD
 70
     1
  9
$DIMZIN
 70
     8
  9
$DIMBLK
  1

  9
$DIMASO
 70
     1
  9
$DIMSHO
 70
     1
  9
$DIMPOST
  1

  9
$DIMAPOST
  1

  9
$DIMALT
 70
     0
  9
$DIMALTD
 70
     3
  9
$DIMALTF
 40
0.0393700787
  9
$DIMLFAC
 40
1.0
  9
$DIMTOFL
 70
     1
  9
$DIMTVP
 40
0.0
  9
$DIMTIX
 70
     0
  9
$DIMSOXD
 70
     0
  9
$DIMSAH
 70
     0
  9
$DIMBLK1
  1

  9
$DIMBLK2
  1

  9
$DIMSTYLE
  2
ISO-25
  9
$DIMCLRD
 70
     0
  9
$DIMCLRE
 70
     0
  9
$DIMCLRT
 70
     0
  9
$DIMTFAC
 40
1.0
  9
$DIMGAP
 40
0.625
  9
$DIMJUST
 70
     0
  9
$DIMSD1
 70
     0
  9
$DIMSD2
 70
     0
  9
$DIMTOLJ
 70
     0
  9
$DIMTZIN
 70
     8
  9
$DIMALTZ
 70
     0
  9
$DIMALTTZ
 70
     0
  9
$DIMUPT
 70
     0
  9
$DIMDEC
 70
     2
  9
$DIMTDEC
 70
     2
  9
$DIMALTU
 70
     2
  9
$DIMALTTD
 70
     3
  9
$DIMTXSTY
  7
Standard
  9
$DIMAUNIT
 70
     0
  9
$DIMADEC
 70
     0
  9
$DIMALTRND
 40
0.0
  9
$DIMAZIN
 70
     0
  9
$DIMDSEP
 70
    44
  9
$DIMATFIT
 70
     3
  9
$DIMFRAC
 70
     0
  9
$DIMLDRBLK
  1

  9
$DIMLUNIT
 70
     2
  9
$DIMLWD
 70
    -2
  9
$DIMLWE
 70
    -2
  9
$DIMTMOVE
 70
     0
  9
$LUNITS
 70
     2
  9
$LUPREC
 70
     4
  9
$SKETCHINC
 40
1.0
  9
$FILLETRAD
 40
10.0
  9
$AUNITS
 70
     0
  9
$AUPREC
 70
     0
  9
$MENU
  1
.
  9
$ELEVATION
 40
0.0
  9
$PELEVATION
 40
0.0
  9
$THICKNESS
 40
0.0
  9
$LIMCHECK
 70
     0
  9
$CHAMFERA
 40
10.0
  9
$CHAMFERB
 40
10.0
  9
$CHAMFERC
 40
20.0
  9
$CHAMFERD
 40
0.0
  9
$SKPOLY
 70
     0
  9
$TDCREATE
 40
2456254.732761215
  9
$TDUCREATE
 40
2456254.857761215
  9
$TDUPDATE
 40
2456254.732761227
  9
$TDUUPDATE
 40
2456254.857761227
  9
$TDINDWG
 40
0.0000000116
  9
$TDUSRTIMER
 40
0.0000000116
  9
$USRTIMER
 70
     1
  9
$ANGBASE
 50
0.0
  9
$ANGDIR
 70
     0
  9
$PDMODE
 70
     0
  9
$PDSIZE
 40
0.0
  9
$PLINEWID
 40
0.0
  9
$SPLFRAME
 70
     0
  9
$SPLINETYPE
 70
     6
  9
$SPLINESEGS
 70
     8
  9
$HANDSEED
  5
1F2
  9
$SURFTAB1
 70
     6
  9
$SURFTAB2
 70
     6
  9
$SURFTYPE
 70
     6
  9
$SURFU
 70
     6
  9
$SURFV
 70
     6
  9
$UCSBASE
  2

  9
$UCSNAME
  2

  9
$UCSORG
 10
0.0
 20
0.0
 30
0.0
  9
$UCSXDIR
 10
1.0
 20
0.0
 30
0.0
  9
$UCSYDIR
 10
0.0
 20
1.0
 30
0.0
  9
$UCSORTHOREF
  2

  9
$UCSORTHOVIEW
 70
     0
  9
$UCSORGTOP
 10
0.0
 20
0.0
 30
0.0
  9
$UCSORGBOTTOM
 10
0.0
 20
0.0
 30
0.0
  9
$UCSORGLEFT
 10
0.0
 20
0.0
 30
0.0
  9
$UCSORGRIGHT
 10
0.0
 20
0.0
 30
0.0
  9
$UCSORGFRONT
 10
0.0
 20
0.0
 30
0.0
  9
$UCSORGBACK
 10
0.0
 20
0.0
 30
0.0
  9
$PUCSBASE
  2

  9
$PUCSNAME
  2

  9
$PUCSORG
 10
0.0
 20
0.0
 30
0.0
  9
$PUCSXDIR
 10
1.0
 20
0.0
 30
0.0
  9
$PUCSYDIR
 10
0.0
 20
1.0
 30
0.0
  9
$PUCSORTHOREF
  2

  9
$PUCSORTHOVIEW
 70
     0
  9
$PUCSORGTOP
 10
0.0
 20
0.0
 30
0.0
  9
$PUCSORGBOTTOM
 10
0.0
 20
0.0
 30
0.0
  9
$PUCSORGLEFT
 10
0.0
 20
0.0
 30
0.0
  9
$PUCSORGRIGHT
 10
0.0
 20
0.0
 30
0.0
  9
$PUCSORGFRONT
 10
0.0
 20
0.0
 30
0.0
  9
$PUCSORGBACK
 10
0.0
 20
0.0
 30
0.0
  9
$USERI1
 70
     0
  9
$USERI2
 70
     0
  9
$USERI3
 70
     0
  9
$USERI4
 70
     0
  9
$USERI5
 70
     0
  9
$USERR1
 40
0.0
  9
$USERR2
 40
0.0
  9
$USERR3
 40
0.0
  9
$USERR4
 40
0.0
  9
$USERR5
 40
0.0
  9
$WORLDVIEW
 70
     1
  9
$SHADEDGE
 70
     3
  9
$SHADEDIF
 70
    70
  9
$TILEMODE
 70
     1
  9
$MAXACTVP
 70
    64
  9
$PINSBASE
 10
0.0
 20
0.0
 30
0.0
  9
$PLIMCHECK
 70
     0
  9
$PEXTMIN
 10
0.0
 20
0.0
 30
0.0
  9
$PEXTMAX
 10
450.0
 20
300.0
 30
0.0
  9
$PLIMMIN
 10
0.0
 20
0.0
  9
$PLIMMAX
 10
450.0
 20
300.0
  9
$UNITMODE
 70
     0
  9
$VISRETAIN
 70
     1
  9
$PLINEGEN
 70
     0
  9
$PSLTSCALE
 70
     1
  9
$TREEDEPTH
 70
  3020
  9
$CMLSTYLE
  2
Standard
  9
$CMLJUST
 70
     0
  9
$CMLSCALE
 40
20.0
  9
$PROXYGRAPHICS
 70
     1
  9
$MEASUREMENT
 70
     1
  9
$CELWEIGHT
370
    -1
  9
$ENDCAPS
280
     0
  9
$JOINSTYLE
280
     0
  9
$LWDISPLAY
290
     0
  9
$INSUNITS
 70
     4
  9
$HYPERLINKBASE
  1

  9
$STYLESHEET
  1

  9
$XEDIT
290
     1
  9
$CEPSNTYPE
380
     0
  9
$PSTYLEMODE
290
     1
  9
$FINGERPRINTGUID
  2
{25F5E898-3805-45EF-9FA5-2D6CA17F6A80}
  9
$VERSIONGUID
  2
{FAEB1C32-E019-11D5-929B-00C0DF256EC4}
  9
$EXTNAMES
290
     1
  9
$PSVPSCALE
 40
0.0
  9
$OLESTARTUP
290
     0
  0
ENDSEC
  0
SECTION
  2
CLASSES
  0
CLASS
  1
ACDBDICTIONARYWDFLT
  2
AcDbDictionaryWithDefault
  3
ObjectDBX Classes
 90
        0
280
     0
281
     0
  0
CLASS
  1
VISUALSTYLE
  2
AcDbVisualStyle
  3
ObjectDBX Classes
 90
     4095
280
     0
281
     0
  0
CLASS
  1
DICTIONARYVAR
  2
AcDbDictionaryVar
  3
ObjectDBX Classes
 90
        0
280
     0
281
     0
  0
CLASS
  1
ACDBPLACEHOLDER
  2
AcDbPlaceHolder
  3
ObjectDBX Classes
 90
        0
280
     0
281
     0
  0
CLASS
  1
LAYOUT
  2
AcDbLayout
  3
ObjectDBX Classes
 90
        0
280
     0
281
     0
  0
ENDSEC
  0
SECTION
  2
TABLES
  0
TABLE
  2
VPORT
  5
8
330
0
100
AcDbSymbolTable
 70
     1
  0
VPORT
  5
29
330
8
100
AcDbSymbolTableRecord
100
AcDbViewportTableRecord
  2
*Active
 70
     0
 10
0.0
 20
0.0
 11
1.0
 21
1.0
 12
344.1869158879
 22
148.5
 13
0.0
 23
0.0
 14
10.0
 24
10.0
 15
10.0
 25
10.0
 16
0.0
 26
0.0
 36
1.0
 17
0.0
 27
0.0
 37
0.0
 40
297.0
 41
1.9729729729
 42
50.0
 43
0.0
 44
0.0
 50
0.0
 51
0.0
 71
     0
 72
   100
 73
     1
 74
     3
 75
     0
 76
     0
 77
     0
 78
     0
281
     0
 65
     1
110
0.0
120
0.0
130
0.0
111
1.0
121
0.0
131
0.0
112
0.0
122
1.0
132
0.0
 79
     0
146
0.0
  0
ENDTAB
  0
TABLE
  2
LTYPE
  5
5
330
0
100
AcDbSymbolTable
 70
     1
  0
LTYPE
  5
14
330
5
100
AcDbSymbolTableRecord
100
AcDbLinetypeTableRecord
  2
ByBlock
 70
     0
  3

 72
    65
 73
     0
 40
0.0
  0
LTYPE
  5
15
330
5
100
AcDbSymbolTableRecord
100
AcDbLinetypeTableRecord
  2
ByLayer
 70
     0
  3

 72
    65
 73
     0
 40
0.0
  0
LTYPE
  5
16
330
5
100
AcDbSymbolTableRecord
100
AcDbLinetypeTableRecord
  2
Continuous
 70
     0
  3
Solid line
 72
    65
 73
     0
 40
0.0
  0
ENDTAB
  0
TABLE
  2
LAYER
  5
2
330
0
100
AcDbSymbolTable
 70
     2
  0
LAYER
  5
10
330
2
100
AcDbSymbolTableRecord
100
AcDbLayerTableRecord
  2
0
 70
     0
 62
     7
  6
Continuous
370
    -3
390
F
  0
LAYER
  5
3C
330
2
100
AcDbSymbolTableRecord
100
AcDbLayerTableRecord
  2
Default
 70
     0
 62
     7
  6
Continuous
370
    -3
390
F
  0
ENDTAB
  0
TABLE
  2
STYLE
  5
3
330
0
100
AcDbSymbolTable
 70
     1
  0
STYLE
  5
11
330
3
100
AcDbSymbolTableRecord
100
AcDbTextStyleTableRecord
  2
Standard
 70
     0
 40
0.0
 41
1.0
 50
0.0
 71
     0
 42
2.5
  3
txt
  4

  0
ENDTAB
  0
TABLE
  2
VIEW
  5
6
330
0
100
AcDbSymbolTable
 70
     0
  0
ENDTAB
  0
TABLE
  2
UCS
  5
7
330
0
100
AcDbSymbolTable
 70
     0
  0
ENDTAB
  0
TABLE
  2
APPID
  5
9
330
0
100
AcDbSymbolTable
 70
     1
  0
APPID
  5
12
330
9
100
AcDbSymbolTableRecord
100
AcDbRegAppTableRecord
  2
ACAD
 70
     0
  0
ENDTAB
  0
TABLE
  2
DIMSTYLE
  5
A
330
0
100
AcDbSymbolTable
 70
     1
100
AcDbDimStyleTable
  0
DIMSTYLE
105
27
330
A
100
AcDbSymbolTableRecord
100
AcDbDimStyleTableRecord
  2
ISO-25
 70
     0
 41
2.5
 42
0.625
 43
3.75
 44
1.25
 73
     0
 74
     0
 77
     1
 78
     8
140
2.5
141
2.5
143
0.0393700787
147
0.625
171
     3
172
     1
271
     2
272
     2
274
     3
278
    44
283
     0
284
     8
340
11
  0
ENDTAB
  0
TABLE
  2
BLOCK_RECORD
  5
1
330
0
100
AcDbSymbolTable
 70
     8
  0
BLOCK_RECORD
  5
1F
330
1
100
AcDbSymbolTableRecord
100
AcDbBlockTableRecord
  2
*Model_Space
340
22
  0
BLOCK_RECORD
  5
1B
330
1
100
AcDbSymbolTableRecord
100
AcDbBlockTableRecord
  2
*Paper_Space
340
1E
  0
BLOCK_RECORD
  5
51
330
1
100
AcDbSymbolTableRecord
100
AcDbBlockTableRecord
  2
SE
340
0
102
{BLKREFS
331
52
102
}
  0
BLOCK_RECORD
  5
59
330
1
100
AcDbSymbolTableRecord
100
AcDbBlockTableRecord
  2
SE1
340
0
102
{BLKREFS
331
5A
102
}
  0
BLOCK_RECORD
  5
61
330
1
100
AcDbSymbolTableRecord
100
AcDbBlockTableRecord
  2
SE2
340
0
102
{BLKREFS
331
62
102
}
  0
BLOCK_RECORD
  5
69
330
1
100
AcDbSymbolTableRecord
100
AcDbBlockTableRecord
  2
SE3
340
0
102
{BLKREFS
331
6A
102
}
  0
BLOCK_RECORD
  5
71
330
1
100
AcDbSymbolTableRecord
100
AcDbBlockTableRecord
  2
SE4
340
0
102
{BLKREFS
331
72
102
}
  0
BLOCK_RECORD
  5
79
330
1
100
AcDbSymbolTableRecord
100
AcDbBlockTableRecord
  2
SE5
340
0
102
{BLKREFS
331
7A
102
}
  0
BLOCK_RECORD
  5
81
330
1
100
AcDbSymbolTableRecord
100
AcDbBlockTableRecord
  2
SE6
340
0
102
{BLKREFS
331
82
102
}
  0
ENDTAB
  0
ENDSEC
  0
SECTION
  2
BLOCKS
  0
BLOCK
  5
20
330
1F
100
AcDbEntity
  8
0
100
AcDbBlockBegin
  2
*Model_Space
 70
     0
 10
0.0
 20
0.0
 30
0.0
  3
*Model_Space
  1

  0
ENDBLK
  5
21
330
1F
100
AcDbEntity
  8
0
100
AcDbBlockEnd
  0
BLOCK
  5
1C
330
1B
100
AcDbEntity
 67
     1
  8
0
100
AcDbBlockBegin
  2
*Paper_Space
 70
     0
 10
0.0
 20
0.0
 30
0.0
  3
*Paper_Space
  1

  0
ENDBLK
  5
1D
330
1B
100
AcDbEntity
 67
     1
  8
0
100
AcDbBlockEnd
  0
BLOCK
  5
57
330
51
100
AcDbEntity
  8
0
100
AcDbBlockBegin
  2
SE
 70
     0
 10
0.0
 20
0.0
 30
0.0
  3
SE
  1

  0
LINE
  5
53
330
51
100
AcDbEntity
  8
Default
  6
Continuous
 62
     7
100
AcDbLine
 10
33.2181564355
 20
284.4471832329
 30
0.0
 11
33.2181564355
 21
281.4471832329
 31
0.0
  0
LINE
  5
54
330
51
100
AcDbEntity
  8
Default
  6
Continuous
 62
     7
100
AcDbLine
 10
36.2181564355
 20
284.4471832329
 30
0.0
 11
33.2181564355
 21
284.4471832329
 31
0.0
  0
LINE
  5
55
330
51
100
AcDbEntity
  8
Default
  6
Continuous
 62
     7
100
AcDbLine
 10
36.2181564355
 20
281.4471832329
 30
0.0
 11
36.2181564355
 21
284.4471832329
 31
0.0
  0
LINE
  5
56
330
51
100
AcDbEntity
  8
Default
  6
Continuous
 62
     7
100
AcDbLine
 10
33.2181564355
 20
281.4471832329
 30
0.0
 11
36.2181564355
 21
281.4471832329
 31
0.0
  0
ENDBLK
  5
58
330
51
100
AcDbEntity
  8
0
100
AcDbBlockEnd
  0
BLOCK
  5
5F
330
59
100
AcDbEntity
  8
0
100
AcDbBlockBegin
  2
SE1
 70
     0
 10
0.0
 20
0.0
 30
0.0
  3
SE1
  1

  0
LINE
  5
5B
330
59
100
AcDbEntity
  8
Default
  6
Continuous
 62
     7
100
AcDbLine
 10
15.2181564355
 20
284.4471832329
 30
0.0
 11
15.2181564355
 21
281.4471832329
 31
0.0
  0
LINE
  5
5C
330
59
100
AcDbEntity
  8
Default
  6
Continuous
 62
     7
100
AcDbLine
 10
18.2181564355
 20
284.4471832329
 30
0.0
 11
15.2181564355
 21
284.4471832329
 31
0.0
  0
LINE
  5
5D
330
59
100
AcDbEntity
  8
Default
  6
Continuous
 62
     7
100
AcDbLine
 10
18.2181564355
 20
281.4471832329
 30
0.0
 11
18.2181564355
 21
284.4471832329
 31
0.0
  0
LINE
  5
5E
330
59
100
AcDbEntity
  8
Default
  6
Continuous
 62
     7
100
AcDbLine
 10
15.2181564355
 20
281.4471832329
 30
0.0
 11
18.2181564355
 21
281.4471832329
 31
0.0
  0
ENDBLK
  5
60
330
59
100
AcDbEntity
  8
0
100
AcDbBlockEnd
  0
BLOCK
  5
67
330
61
100
AcDbEntity
  8
0
100
AcDbBlockBegin
  2
SE2
 70
     0
 10
0.0
 20
0.0
 30
0.0
  3
SE2
  1

  0
LINE
  5
63
330
61
100
AcDbEntity
  8
Default
  6
Continuous
 62
     7
100
AcDbLine
 10
24.2181564355
 20
284.4471832329
 30
0.0
 11
24.2181564355
 21
281.4471832329
 31
0.0
  0
LINE
  5
64
330
61
100
AcDbEntity
  8
Default
  6
Continuous
 62
     7
100
AcDbLine
 10
27.2181564355
 20
284.4471832329
 30
0.0
 11
24.2181564355
 21
284.4471832329
 31
0.0
  0
LINE
  5
65
330
61
100
AcDbEntity
  8
Default
  6
Continuous
 62
     7
100
AcDbLine
 10
27.2181564355
 20
281.4471832329
 30
0.0
 11
27.2181564355
 21
284.4471832329
 31
0.0
  0
LINE
  5
66
330
61
100
AcDbEntity
  8
Default
  6
Continuous
 62
     7
100
AcDbLine
 10
24.2181564355
 20
281.4471832329
 30
0.0
 11
27.2181564355
 21
281.4471832329
 31
0.0
  0
ENDBLK
  5
68
330
61
100
AcDbEntity
  8
0
100
AcDbBlockEnd
  0
BLOCK
  5
6F
330
69
100
AcDbEntity
  8
0
100
AcDbBlockBegin
  2
SE3
 70
     0
 10
0.0
 20
0.0
 30
0.0
  3
SE3
  1

  0
LINE
  5
6B
330
69
100
AcDbEntity
  8
Default
  6
Continuous
 62
     7
100
AcDbLine
 10
33.2181564355
 20
266.4471832329
 30
0.0
 11
33.2181564355
 21
263.4471832329
 31
0.0
  0
LINE
  5
6C
330
69
100
AcDbEntity
  8
Default
  6
Continuous
 62
     7
100
AcDbLine
 10
36.2181564355
 20
266.4471832329
 30
0.0
 11
33.2181564355
 21
266.4471832329
 31
0.0
  0
LINE
  5
6D
330
69
100
AcDbEntity
  8
Default
  6
Continuous
 62
     7
100
AcDbLine
 10
36.2181564355
 20
263.4471832329
 30
0.0
 11
36.2181564355
 21
266.4471832329
 31
0.0
  0
LINE
  5
6E
330
69
100
AcDbEntity
  8
Default
  6
Continuous
 62
     7
100
AcDbLine
 10
33.2181564355
 20
263.4471832329
 30
0.0
 11
36.2181564355
 21
263.4471832329
 31
0.0
  0
ENDBLK
  5
70
330
69
100
AcDbEntity
  8
0
100
AcDbBlockEnd
  0
BLOCK
  5
77
330
71
100
AcDbEntity
  8
0
100
AcDbBlockBegin
  2
SE4
 70
     0
 10
0.0
 20
0.0
 30
0.0
  3
SE4
  1

  0
LINE
  5
73
330
71
100
AcDbEntity
  8
Default
  6
Continuous
 62
     7
100
AcDbLine
 10
15.2181564355
 20
266.4471832329
 30
0.0
 11
15.2181564355
 21
263.4471832329
 31
0.0
  0
LINE
  5
74
330
71
100
AcDbEntity
  8
Default
  6
Continuous
 62
     7
100
AcDbLine
 10
18.2181564355
 20
266.4471832329
 30
0.0
 11
15.2181564355
 21
266.4471832329
 31
0.0
  0
LINE
  5
75
330
71
100
AcDbEntity
  8
Default
  6
Continuous
 62
     7
100
AcDbLine
 10
18.2181564355
 20
263.4471832329
 30
0.0
 11
18.2181564355
 21
266.4471832329
 31
0.0
  0
LINE
  5
76
330
71
100
AcDbEntity
  8
Default
  6
Continuous
 62
     7
100
AcDbLine
 10
15.2181564355
 20
263.4471832329
 30
0.0
 11
18.2181564355
 21
263.4471832329
 31
0.0
  0
ENDBLK
  5
78
330
71
100
AcDbEntity
  8
0
100
AcDbBlockEnd
  0
BLOCK
  5
7F
330
79
100
AcDbEntity
  8
0
100
AcDbBlockBegin
  2
SE5
 70
     0
 10
0.0
 20
0.0
 30
0.0
  3
SE5
  1

  0
LINE
  5
7B
330
79
100
AcDbEntity
  8
Default
  6
Continuous
 62
     7
100
AcDbLine
 10
24.2181564355
 20
266.4471832329
 30
0.0
 11
24.2181564355
 21
263.4471832329
 31
0.0
  0
LINE
  5
7C
330
79
100
AcDbEntity
  8
Default
  6
Continuous
 62
     7
100
AcDbLine
 10
27.2181564355
 20
266.4471832329
 30
0.0
 11
24.2181564355
 21
266.4471832329
 31
0.0
  0
LINE
  5
7D
330
79
100
AcDbEntity
  8
Default
  6
Continuous
 62
     7
100
AcDbLine
 10
27.2181564355
 20
263.4471832329
 30
0.0
 11
27.2181564355
 21
266.4471832329
 31
0.0
  0
LINE
  5
7E
330
79
100
AcDbEntity
  8
Default
  6
Continuous
 62
     7
100
AcDbLine
 10
24.2181564355
 20
263.4471832329
 30
0.0
 11
27.2181564355
 21
263.4471832329
 31
0.0
  0
ENDBLK
  5
80
330
79
100
AcDbEntity
  8
0
100
AcDbBlockEnd
  0
BLOCK
  5
1EB
330
81
100
AcDbEntity
  8
0
100
AcDbBlockBegin
  2
SE6
 70
     0
 10
0.0
 20
0.0
 30
0.0
  3
SE6
  1

  0
ARC
  5
83
330
81
100
AcDbEntity
  8
0
  6
Continuous
 62
     7
100
AcDbCircle
 10
30.4355845101
 20
290.4233375553
 30
0.0
 40
0.2997396630319989
100
AcDbArc
 50
244.1218174429
 51
316.121817443
  0
ARC
  5
84
330
81
100
AcDbEntity
  8
0
  6
Continuous
 62
     7
100
AcDbCircle
 10
33.4432239463
 20
289.0428980666
 30
0.0
 40
3.027889628741085
100
AcDbArc
 50
143.6931852119
 51
157.2138077289
  0
LINE
  5
85
330
81
100
AcDbEntity
  8
0
  6
Continuous
 62
     7
100
AcDbLine
 10
31.0031752831
 20
290.835738864
 30
0.0
 11
31.240405981
 21
291.156201018
 31
0.0
  0
ARC
  5
86
330
81
100
AcDbEntity
  8
0
  6
Continuous
 62
     7
100
AcDbCircle
 10
37.0183484902
 20
286.5478030397
 30
0.0
 40
7.390666516963978
100
AcDbArc
 50
134.2890967699
 51
141.4246766515
  0
LINE
  5
87
330
81
100
AcDbEntity
  8
0
  6
Continuous
 62
     7
100
AcDbLine
 10
31.8576006858
 20
291.8382315351
 30
0.0
 11
32.5152134567
 21
291.5988800609
 31
0.0
  0
ARC
  5
88
330
81
100
AcDbEntity
  8
0
  6
Continuous
 62
     7
100
AcDbCircle
 10
25.161229392
 20
290.8634414556
 30
0.0
 40
7.390666516963504
100
AcDbArc
 50
358.5753233485
 51
5.7109032301
  0
LINE
  5
89
330
81
100
AcDbEntity
  8
0
  6
Continuous
 62
     7
100
AcDbLine
 10
32.5496112647
 20
290.6796892642
 30
0.0
 11
32.5253514206
 21
290.2817120586
 31
0.0
  0
ARC
  5
8A
330
81
100
AcDbEntity
  8
0
  6
Continuous
 62
     7
100
AcDbCircle
 10
29.5037498505
 20
290.4767493761
 30
0.0
 40
3.02788962874471
100
AcDbArc
 50
342.7861922711
 51
356.3068147881
  0
ARC
  5
8B
330
81
100
AcDbEntity
  8
0
  6
Continuous
 62
     7
100
AcDbCircle
 10
32.6950647268
 20
289.6009540116
 30
0.0
 40
0.2997396630319913
100
AcDbArc
 50
183.8781825571
 51
255.8781825571
  0
LINE
  5
8C
330
81
100
AcDbEntity
  8
0
  6
Continuous
 62
     7
100
AcDbLine
 10
32.6219329526
 20
289.310272727
 30
0.0
 11
33.0493037664
 21
289.1109864437
 31
0.0
  0
ARC
  5
8D
330
81
100
AcDbEntity
  8
0
  6
Continuous
 62
     7
100
AcDbCircle
 10
33.2249703507
 20
289.353854961
 30
0.0
 40
0.2997396630320062
100
AcDbArc
 50
234.121817443
 51
306.1218174429
  0
ARC
  5
8E
330
81
100
AcDbEntity
  8
0
  6
Continuous
 62
     7
100
AcDbCircle
 10
35.9472061842
 20
287.4721163427
 30
0.0
 40
3.02788962873992
100
AcDbArc
 50
133.6931852119
 51
147.2138077289
  0
LINE
  5
8F
330
81
100
AcDbEntity
  8
0
  6
Continuous
 62
     7
100
AcDbLine
 10
33.8555508802
 20
289.6614298637
 30
0.0
 11
34.1448251798
 21
289.9358287992
 31
0.0
  0
ARC
  5
90
330
81
100
AcDbEntity
  8
0
  6
Continuous
 62
     7
100
AcDbCircle
 10
39.0347478484
 20
284.3941135539
 30
0.0
 40
7.390666516963106
100
AcDbArc
 50
124.2890967699
 51
131.4246766515
  0
LINE
  5
91
330
81
100
AcDbEntity
  8
0
  6
Continuous
 62
     7
100
AcDbLine
 10
34.8710766666
 20
290.5003230045
 30
0.0
 11
35.4771358745
 21
290.1504145577
 31
0.0
  0
ARC
  5
92
330
81
100
AcDbEntity
  8
0
  6
Continuous
 62
     7
100
AcDbCircle
 10
28.1071677785
 20
290.7031548488
 30
0.0
 40
7.390666516960589
100
AcDbArc
 50
348.5753233485
 51
355.7109032301
  0
LINE
  5
93
330
81
100
AcDbEntity
  8
0
  6
Continuous
 62
     7
100
AcDbLine
 10
35.3513952958
 20
289.2392152179
 30
0.0
 11
35.2583959968
 21
288.8514968581
 31
0.0
  0
ARC
  5
94
330
81
100
AcDbEntity
  8
0
  6
Continuous
 62
     7
100
AcDbCircle
 10
32.3165672187
 20
289.5682667268
 30
0.0
 40
3.027889628743885
100
AcDbArc
 50
332.7861922711
 51
346.3068147881
  0
ARC
  5
95
330
81
100
AcDbEntity
  8
0
  6
Continuous
 62
     7
100
AcDbCircle
 10
35.3073185822
 20
288.1516106491
 30
0.0
 40
0.29973966303198
100
AcDbArc
 50
173.8781825571
 51
245.8781825571
  0
LINE
  5
96
330
81
100
AcDbEntity
  8
0
  6
Continuous
 62
     7
100
AcDbLine
 10
35.1848215685
 20
287.8780446657
 30
0.0
 11
35.5710939594
 21
287.6075738258
 31
0.0
  0
ARC
  5
97
330
81
100
AcDbEntity
  8
0
  6
Continuous
 62
     7
100
AcDbCircle
 10
35.7862654491
 20
287.8162484424
 30
0.0
 40
0.2997396630320009
100
AcDbArc
 50
224.1218174429
 51
296.1218174429
  0
ARC
  5
98
330
81
100
AcDbEntity
  8
0
  6
Continuous
 62
     7
100
AcDbCircle
 10
38.1403839215
 20
285.4903863703
 30
0.0
 40
3.027889628743137
100
AcDbArc
 50
123.6931852119
 51
137.2138077289
  0
LINE
  5
99
330
81
100
AcDbEntity
  8
0
  6
Continuous
 62
     7
100
AcDbLine
 10
36.4606758648
 20
288.0096514314
 30
0.0
 11
36.7932043129
 21
288.2296496755
 31
0.0
  0
ARC
  5
9A
330
81
100
AcDbEntity
  8
0
  6
Continuous
 62
     7
100
AcDbCircle
 10
40.646529315
 20
281.9229993766
 30
0.0
 40
7.390666516962984
100
AcDbArc
 50
114.2890967699
 51
121.4246766515
  0
LINE
  5
9B
330
81
100
AcDbEntity
  8
0
  6
Continuous
 62
     7
100
AcDbLine
 10
37.6064457978
 20
288.6594556982
 30
0.0
 11
38.1425366404
 21
288.2096220699
 31
0.0
  0
ARC
  5
9C
330
81
100
AcDbEntity
  8
0
  6
Continuous
 62
     7
100
AcDbCircle
 10
30.9805172643
 20
290.0337465233
 30
0.0
 40
7.390666516963403
100
AcDbArc
 50
338.5753233485
 51
345.7109032301
  0
LINE
  5
9D
330
81
100
AcDbEntity
  8
0
  6
Continuous
 62
     7
100
AcDbLine
 10
37.8604782388
 20
287.334100518
 30
0.0
 11
37.7015652214
 21
286.96842163
 31
0.0
  0
ARC
  5
9E
330
81
100
AcDbEntity
  8
0
  6
Continuous
 62
     7
100
AcDbCircle
 10
34.9288952143
 20
288.1851453601
 30
0.0
 40
3.027889628745918
100
AcDbArc
 50
322.7861922711
 51
336.3068147881
  0
ARC
  5
9F
330
81
100
AcDbEntity
  8
0
  6
Continuous
 62
     7
100
AcDbCircle
 10
37.628210598
 20
286.2706729473
 30
0.0
 40
0.2997396630319922
100
AcDbArc
 50
163.8781825571
 51
235.8781825571
  0
LINE
  5
A0
330
81
100
AcDbEntity
  8
0
  6
Continuous
 62
     7
100
AcDbLine
 10
37.4600703548
 20
286.0225344291
 30
0.0
 11
37.7935076317
 21
285.6890971523
 31
0.0
  0
ARC
  5
A1
330
81
100
AcDbEntity
  8
0
  6
Continuous
 62
     7
100
AcDbCircle
 10
38.0416461499
 20
285.8572373955
 30
0.0
 40
0.2997396630320046
100
AcDbArc
 50
214.1218174429
 51
286.1218174429
  0
ARC
  5
A2
330
81
100
AcDbEntity
  8
0
  6
Continuous
 62
     7
100
AcDbCircle
 10
39.9561185626
 20
283.1579220117
 30
0.0
 40
3.027889628738894
100
AcDbArc
 50
113.6931852119
 51
127.2138077289
  0
LINE
  5
A3
330
81
100
AcDbEntity
  8
0
  6
Continuous
 62
     7
100
AcDbLine
 10
38.7393948325
 20
285.9305920188
 30
0.0
 11
39.1050737205
 21
286.0895050362
 31
0.0
  0
ARC
  5
A4
330
81
100
AcDbEntity
  8
0
  6
Continuous
 62
     7
100
AcDbCircle
 10
41.8047197259
 20
279.2095440617
 30
0.0
 40
7.390666516961013
100
AcDbArc
 50
104.2890967699
 51
111.4246766515
  0
LINE
  5
A5
330
81
100
AcDbEntity
  8
0
  6
Continuous
 62
     7
100
AcDbLine
 10
39.9805952725
 20
286.3715634378
 30
0.0
 11
40.4304289008
 21
285.8354725953
 31
0.0
  0
ARC
  5
A6
330
81
100
AcDbEntity
  8
0
  6
Continuous
 62
     7
100
AcDbCircle
 10
33.6939725791
 20
288.8755561125
 30
0.0
 40
7.390666516961039
100
AcDbArc
 50
328.5753233485
 51
335.7109032301
  0
LINE
  5
A7
330
81
100
AcDbEntity
  8
0
  6
Continuous
 62
     7
100
AcDbLine
 10
40.0006228781
 20
285.0222311104
 30
0.0
 11
39.780624634
 21
284.6897026623
 31
0.0
  0
ARC
  5
A8
330
81
100
AcDbEntity
  8
0
  6
Continuous
 62
     7
100
AcDbCircle
 10
37.2613595729
 20
286.369410719
 30
0.0
 40
3.027889628748079
100
AcDbArc
 50
312.7861922711
 51
326.3068147881
  0
ARC
  5
A9
330
81
100
AcDbEntity
  8
0
  6
Continuous
 62
     7
100
AcDbCircle
 10
39.587221645
 20
284.0152922466
 30
0.0
 40
0.2997396630319862
100
AcDbArc
 50
153.8781825571
 51
225.8781825571
  0
LINE
  5
AA
330
81
100
AcDbEntity
  8
0
  6
Continuous
 62
     7
100
AcDbLine
 10
39.3785470284
 20
283.8001207569
 30
0.0
 11
39.6490178683
 21
283.413848366
 31
0.0
  0
ARC
  5
AB
330
81
100
AcDbEntity
  8
0
  6
Continuous
 62
     7
100
AcDbCircle
 10
39.9225838516
 20
283.5363453796
 30
0.0
 40
0.2997396630319987
100
AcDbArc
 50
204.1218174429
 51
276.1218174429
  0
ARC
  5
AC
330
81
100
AcDbEntity
  8
0
  6
Continuous
 62
     7
100
AcDbCircle
 10
41.3392399293
 20
280.5455940162
 30
0.0
 40
3.027889628741045
100
AcDbArc
 50
103.6931852119
 51
117.2138077289
  0
LINE
  5
AD
330
81
100
AcDbEntity
  8
0
  6
Continuous
 62
     7
100
AcDbLine
 10
40.6224700606
 20
283.4874227942
 30
0.0
 11
41.0101884205
 21
283.5804220933
 31
0.0
  0
ARC
  5
AE
330
81
100
AcDbEntity
  8
0
  6
Continuous
 62
     7
100
AcDbCircle
 10
42.4741280513
 20
276.336194576
 30
0.0
 40
7.390666516962816
100
AcDbArc
 50
94.2890967699
 51
101.4246766515
  0
LINE
  5
AF
330
81
100
AcDbEntity
  8
0
  6
Continuous
 62
     7
100
AcDbLine
 10
41.9213877603
 20
283.7061626719
 30
0.0
 11
42.2712962071
 21
283.1001034641
 31
0.0
  0
ARC
  5
B0
330
81
100
AcDbEntity
  8
0
  6
Continuous
 62
     7
100
AcDbCircle
 10
36.1650867564
 20
287.2637746458
 30
0.0
 40
7.390666516959583
100
AcDbArc
 50
318.5753233485
 51
325.7109032301
  0
LINE
  5
B1
330
81
100
AcDbEntity
  8
0
  6
Continuous
 62
     7
100
AcDbLine
 10
41.7068020018
 20
282.3738519773
 30
0.0
 11
41.4324030663
 21
282.0845776777
 31
0.0
  0
ARC
  5
B2
330
81
100
AcDbEntity
  8
0
  6
Continuous
 62
     7
100
AcDbCircle
 10
39.2430895453
 20
284.1762329816
 30
0.0
 40
3.027889628744338
100
AcDbArc
 50
302.7861922711
 51
316.3068147881
  0
ARC
  5
B3
330
81
100
AcDbEntity
  8
0
  6
Continuous
 62
     7
100
AcDbCircle
 10
41.1248281636
 20
281.4539971482
 30
0.0
 40
0.2997396630319969
100
AcDbArc
 50
143.8781825571
 51
215.8781825571
  0
LINE
  5
B4
330
81
100
AcDbEntity
  8
0
  6
Continuous
 62
     7
100
AcDbLine
 10
40.8819596462
 20
281.2783305638
 30
0.0
 11
41.0812459296
 21
280.85095975
 31
0.0
  0
ARC
  5
B5
330
81
100
AcDbEntity
  8
0
  6
Continuous
 62
     7
100
AcDbCircle
 10
41.3719272141
 20
280.9240915243
 30
0.0
 40
0.2997396630320068
100
AcDbArc
 50
194.121817443
 51
266.1218174429
  0
ARC
  5
B6
330
81
100
AcDbEntity
  8
0
  6
Continuous
 62
     7
100
AcDbCircle
 10
42.2477225787
 20
277.7327766479
 30
0.0
 40
3.027889628739028
100
AcDbArc
 50
93.6931852119
 51
107.2138077289
  0
LINE
  5
B7
330
81
100
AcDbEntity
  8
0
  6
Continuous
 62
     7
100
AcDbLine
 10
42.0526852612
 20
280.7543782181
 30
0.0
 11
42.4506624668
 21
280.7786380622
 31
0.0
  0
ARC
  5
B8
330
81
100
AcDbEntity
  8
0
  6
Continuous
 62
     7
100
AcDbCircle
 10
42.6344146582
 20
273.3902561895
 30
0.0
 40
7.390666516963514
100
AcDbArc
 50
84.2890967699
 51
91.4246766515
  0
LINE
  5
B9
330
81
100
AcDbEntity
  8
0
  6
Continuous
 62
     7
100
AcDbLine
 10
43.3698532634
 20
280.7442402541
 30
0.0
 11
43.6092047377
 21
280.0866274833
 31
0.0
  0
ARC
  5
BA
330
81
100
AcDbEntity
  8
0
  6
Continuous
 62
     7
100
AcDbCircle
 10
38.3187762423
 20
285.2473752876
 30
0.0
 40
7.390666516962384
100
AcDbArc
 50
308.5753233485
 51
315.7109032301
  0
LINE
  5
BB
330
81
100
AcDbEntity
  8
0
  6
Continuous
 62
     7
100
AcDbLine
 10
42.9271742206
 20
279.4694327785
 30
0.0
 11
42.6067120665
 21
279.2322020806
 31
0.0
  0
ARC
  5
BC
330
81
100
AcDbEntity
  8
0
  6
Continuous
 62
     7
100
AcDbCircle
 10
40.8138712691
 20
281.6722507438
 30
0.0
 40
3.027889628736579
100
AcDbArc
 50
292.7861922711
 51
306.3068147881
  0
ARC
  5
BD
330
81
100
AcDbEntity
  8
0
  6
Continuous
 62
     7
100
AcDbCircle
 10
42.1943107579
 20
278.6646113076
 30
0.0
 40
0.2997396630319971
100
AcDbArc
 50
133.878182557
 51
205.8781825571
  0
LINE
  5
BE
330
81
100
AcDbEntity
  8
0
  6
Continuous
 62
     7
100
AcDbLine
 10
41.9246277768
 20
278.5337871688
 30
0.0
 11
42.0466742907
 21
278.078303378
 31
0.0
  0
ARC
  5
BF
330
81
100
AcDbEntity
  8
0
  6
Continuous
 62
     7
100
AcDbCircle
 10
42.3456386727
 20
278.099847841
 30
0.0
 40
0.2997396630320019
100
AcDbArc
 50
184.1218174429
 51
256.1218174429
  0
ARC
  5
C0
330
81
100
AcDbEntity
  8
0
  6
Continuous
 62
     7
100
AcDbCircle
 10
42.6539627251
 20
274.8049359394
 30
0.0
 40
3.02788962874593
100
AcDbArc
 50
83.6931852119
 51
97.2138077289
  0
LINE
  5
C1
330
81
100
AcDbEntity
  8
0
  6
Continuous
 62
     7
100
AcDbLine
 10
42.986584069
 20
277.8145004669
 30
0.0
 11
43.3827277843
 21
277.769283733
 31
0.0
  0
ARC
  5
C2
330
81
100
AcDbEntity
  8
0
  6
Continuous
 62
     7
100
AcDbCircle
 10
42.280709319
 20
270.4612397494
 30
0.0
 40
7.390666516961629
100
AcDbArc
 50
74.2890967699
 51
81.4246766515
  0
LINE
  5
C3
330
81
100
AcDbEntity
  8
0
  6
Continuous
 62
     7
100
AcDbLine
 10
44.2819808907
 20
277.5757926981
 30
0.0
 11
44.403502819
 21
276.8866075956
 31
0.0
  0
ARC
  5
C4
330
81
100
AcDbEntity
  8
0
  6
Continuous
 62
     7
100
AcDbCircle
 10
40.0896022716
 20
282.887625312
 30
0.0
 40
7.390666516961345
100
AcDbArc
 50
298.5753233485
 51
305.7109032301
  0
LINE
  5
C5
330
81
100
AcDbEntity
  8
0
  6
Continuous
 62
     7
100
AcDbLine
 10
43.6246591422
 20
276.3972228216
 30
0.0
 11
43.26787085
 21
276.2192438601
 31
0.0
  0
ARC
  5
C6
330
81
100
AcDbEntity
  8
0
  6
Continuous
 62
     7
100
AcDbCircle
 10
41.9259773365
 20
278.9335462387
 30
0.0
 40
3.027889628734985
100
AcDbArc
 50
282.7861922711
 51
296.3068147881
  0
ARC
  5
C7
330
81
100
AcDbEntity
  8
0
  6
Continuous
 62
     7
100
AcDbCircle
 10
42.7631737405
 20
275.7318888021
 30
0.0
 40
0.299739663031994
100
AcDbArc
 50
123.8781825571
 51
195.8781825571
  0
LINE
  5
C8
330
81
100
AcDbEntity
  8
0
  6
Continuous
 62
     7
100
AcDbLine
 10
42.4748704765
 20
275.6498821342
 30
0.0
 11
42.5159688994
 21
275.1801250109
 31
0.0
  0
ARC
  5
C9
330
81
100
AcDbEntity
  8
0
  6
Continuous
 62
     7
100
AcDbCircle
 10
42.8141324974
 20
275.1494275449
 30
0.0
 40
0.2997396630320029
100
AcDbArc
 50
174.1218174429
 51
246.1218174429
  0
ARC
  5
CA
330
81
100
AcDbEntity
  8
0
  6
Continuous
 62
     7
100
AcDbCircle
 10
42.5456169674
 20
271.8510328489
 30
0.0
 40
3.027889628736706
100
AcDbArc
 50
73.6931852119
 51
87.2138077289
  0
LINE
  5
CB
330
81
100
AcDbEntity
  8
0
  6
Continuous
 62
     7
100
AcDbLine
 10
43.3957904415
 20
274.7571162386
 30
0.0
 11
43.7780640402
 21
274.6437968142
 31
0.0
  0
ARC
  5
CC
330
81
100
AcDbEntity
  8
0
  6
Continuous
 62
     7
100
AcDbCircle
 10
41.4237591914
 20
267.638141938
 30
0.0
 40
7.390666516961941
100
AcDbArc
 50
64.2890967699
 51
71.4246766515
  0
LINE
  5
CD
330
81
100
AcDbEntity
  8
0
  6
Continuous
 62
     7
100
AcDbLine
 10
44.6300561056
 20
274.2970916797
 30
0.0
 11
44.6300561056
 21
273.5972747861
 31
0.0
  0
ARC
  5
CE
330
81
100
AcDbEntity
  8
0
  6
Continuous
 62
     7
100
AcDbCircle
 10
41.4237591914
 20
280.2562245279
 30
0.0
 40
7.39066651696438
100
AcDbArc
 50
288.5753233485
 51
295.7109032301
  0
LINE
  5
CF
330
81
100
AcDbEntity
  8
0
  6
Continuous
 62
     7
100
AcDbLine
 10
43.7780640402
 20
273.2505696517
 30
0.0
 11
43.3957904415
 21
273.1372502273
 31
0.0
  0
ARC
  5
D0
330
81
100
AcDbEntity
  8
0
  6
Continuous
 62
     7
100
AcDbCircle
 10
42.5456169674
 20
276.043333617
 30
0.0
 40
3.027889628737873
100
AcDbArc
 50
272.7861922711
 51
286.3068147881
  0
ARC
  5
D1
330
81
100
AcDbEntity
  8
0
  6
Continuous
 62
     7
100
AcDbCircle
 10
42.8141324974
 20
272.744938921
 30
0.0
 40
0.2997396630320051
100
AcDbArc
 50
113.8781825571
 51
185.8781825571
  0
LINE
  5
D2
330
81
100
AcDbEntity
  8
0
  6
Continuous
 62
     7
100
AcDbLine
 10
42.5159688994
 20
272.714241455
 30
0.0
 11
42.4748704765
 21
272.2444843317
 31
0.0
  0
ARC
  5
D3
330
81
100
AcDbEntity
  8
0
  6
Continuous
 62
     7
100
AcDbCircle
 10
42.7631737405
 20
272.1624776638
 30
0.0
 40
0.2997396630320051
100
AcDbArc
 50
164.121817443
 51
236.1218174429
  0
ARC
  5
D4
330
81
100
AcDbEntity
  8
0
  6
Continuous
 62
     7
100
AcDbCircle
 10
41.9259773365
 20
268.9608202272
 30
0.0
 40
3.027889628737122
100
AcDbArc
 50
63.6931852119
 51
77.2138077289
  0
LINE
  5
D5
330
81
100
AcDbEntity
  8
0
  6
Continuous
 62
     7
100
AcDbLine
 10
43.26787085
 20
271.6751226057
 30
0.0
 11
43.6246591422
 21
271.4971436442
 31
0.0
  0
ARC
  5
D6
330
81
100
AcDbEntity
  8
0
  6
Continuous
 62
     7
100
AcDbCircle
 10
40.0896022716
 20
265.0067411539
 30
0.0
 40
7.390666516965091
100
AcDbArc
 50
54.2890967699
 51
61.4246766515
  0
LINE
  5
D7
330
81
100
AcDbEntity
  8
0
  6
Continuous
 62
     7
100
AcDbLine
 10
44.403502819
 20
271.0077588703
 30
0.0
 11
44.2819808907
 21
270.3185737677
 31
0.0
  0
ARC
  5
D8
330
81
100
AcDbEntity
  8
0
  6
Continuous
 62
     7
100
AcDbCircle
 10
42.280709319
 20
277.4331267165
 30
0.0
 40
7.390666516962295
100
AcDbArc
 50
278.5753233485
 51
285.7109032301
  0
LINE
  5
D9
330
81
100
AcDbEntity
  8
0
  6
Continuous
 62
     7
100
AcDbLine
 10
43.3827277843
 20
270.1250827329
 30
0.0
 11
42.986584069
 21
270.0798659989
 31
0.0
  0
ARC
  5
DA
330
81
100
AcDbEntity
  8
0
  6
Continuous
 62
     7
100
AcDbCircle
 10
42.6539627251
 20
273.0894305265
 30
0.0
 40
3.02788962874117
100
AcDbArc
 50
262.7861922711
 51
276.3068147881
  0
ARC
  5
DB
330
81
100
AcDbEntity
  8
0
  6
Continuous
 62
     7
100
AcDbCircle
 10
42.3456386727
 20
269.7945186249
 30
0.0
 40
0.299739663031973
100
AcDbArc
 50
103.8781825571
 51
175.8781825571
  0
LINE
  5
DC
330
81
100
AcDbEntity
  8
0
  6
Continuous
 62
     7
100
AcDbLine
 10
42.0466742907
 20
269.8160630879
 30
0.0
 11
41.9246277768
 21
269.3605792971
 31
0.0
  0
ARC
  5
DD
330
81
100
AcDbEntity
  8
0
  6
Continuous
 62
     7
100
AcDbCircle
 10
42.1943107579
 20
269.2297551583
 30
0.0
 40
0.2997396630320052
100
AcDbArc
 50
154.1218174429
 51
226.1218174429
  0
ARC
  5
DE
330
81
100
AcDbEntity
  8
0
  6
Continuous
 62
     7
100
AcDbCircle
 10
40.8138712691
 20
266.2221157221
 30
0.0
 40
3.027889628741754
100
AcDbArc
 50
53.6931852119
 51
67.2138077289
  0
LINE
  5
DF
330
81
100
AcDbEntity
  8
0
  6
Continuous
 62
     7
100
AcDbLine
 10
42.6067120665
 20
268.6621643853
 30
0.0
 11
42.9271742206
 21
268.4249336874
 31
0.0
  0
ARC
  5
E0
330
81
100
AcDbEntity
  8
0
  6
Continuous
 62
     7
100
AcDbCircle
 10
38.3187762423
 20
262.6469911783
 30
0.0
 40
7.390666516963306
100
AcDbArc
 50
44.2890967699
 51
51.4246766515
  0
LINE
  5
E1
330
81
100
AcDbEntity
  8
0
  6
Continuous
 62
     7
100
AcDbLine
 10
43.6092047377
 20
267.8077389826
 30
0.0
 11
43.3698532634
 21
267.1501262118
 31
0.0
  0
ARC
  5
E2
330
81
100
AcDbEntity
  8
0
  6
Continuous
 62
     7
100
AcDbCircle
 10
42.6344146582
 20
274.5041102764
 30
0.0
 40
7.390666516963504
100
AcDbArc
 50
268.5753233485
 51
275.7109032301
  0
LINE
  5
E3
330
81
100
AcDbEntity
  8
0
  6
Continuous
 62
     7
100
AcDbLine
 10
42.4506624668
 20
267.1157284037
 30
0.0
 11
42.0526852612
 21
267.1399882478
 31
0.0
  0
ARC
  5
E4
330
81
100
AcDbEntity
  8
0
  6
Continuous
 62
     7
100
AcDbCircle
 10
42.2477225787
 20
270.1615898179
 30
0.0
 40
3.02788962874399
100
AcDbArc
 50
252.7861922711
 51
266.3068147881
  0
ARC
  5
E5
330
81
100
AcDbEntity
  8
0
  6
Continuous
 62
     7
100
AcDbCircle
 10
41.3719272141
 20
266.9702749416
 30
0.0
 40
0.2997396630319948
100
AcDbArc
 50
93.8781825571
 51
165.8781825571
  0
LINE
  5
E6
330
81
100
AcDbEntity
  8
0
  6
Continuous
 62
     7
100
AcDbLine
 10
41.0812459296
 20
267.0434067159
 30
0.0
 11
40.8819596462
 21
266.6160359021
 31
0.0
  0
ARC
  5
E7
330
81
100
AcDbEntity
  8
0
  6
Continuous
 62
     7
100
AcDbCircle
 10
41.1248281636
 20
266.4403693177
 30
0.0
 40
0.2997396630319972
100
AcDbArc
 50
144.121817443
 51
216.121817443
  0
ARC
  5
E8
330
81
100
AcDbEntity
  8
0
  6
Continuous
 62
     7
100
AcDbCircle
 10
39.2430895453
 20
263.7181334843
 30
0.0
 40
3.027889628741837
100
AcDbArc
 50
43.6931852119
 51
57.2138077289
  0
LINE
  5
E9
330
81
100
AcDbEntity
  8
0
  6
Continuous
 62
     7
100
AcDbLine
 10
41.4324030663
 20
265.8097887882
 30
0.0
 11
41.7068020018
 21
265.5205144886
 31
0.0
  0
ARC
  5
EA
330
81
100
AcDbEntity
  8
0
  6
Continuous
 62
     7
100
AcDbCircle
 10
36.1650867564
 20
260.6305918201
 30
0.0
 40
7.390666516962929
100
AcDbArc
 50
34.2890967699
 51
41.4246766515
  0
LINE
  5
EB
330
81
100
AcDbEntity
  8
0
  6
Continuous
 62
     7
100
AcDbLine
 10
42.2712962071
 20
264.7942630018
 30
0.0
 11
41.9213877603
 21
264.1882037939
 31
0.0
  0
ARC
  5
EC
330
81
100
AcDbEntity
  8
0
  6
Continuous
 62
     7
100
AcDbCircle
 10
42.4741280513
 20
271.5581718899
 30
0.0
 40
7.390666516961446
100
AcDbArc
 50
258.5753233485
 51
265.7109032301
  0
LINE
  5
ED
330
81
100
AcDbEntity
  8
0
  6
Continuous
 62
     7
100
AcDbLine
 10
41.0101884205
 20
264.3139443726
 30
0.0
 11
40.6224700606
 21
264.4069436717
 31
0.0
  0
ARC
  5
EE
330
81
100
AcDbEntity
  8
0
  6
Continuous
 62
     7
100
AcDbCircle
 10
41.3392399293
 20
267.3487724497
 30
0.0
 40
3.027889628741006
100
AcDbArc
 50
242.7861922711
 51
256.3068147881
  0
ARC
  5
EF
330
81
100
AcDbEntity
  8
0
  6
Continuous
 62
     7
100
AcDbCircle
 10
39.9225838516
 20
264.3580210863
 30
0.0
 40
0.2997396630319987
100
AcDbArc
 50
83.8781825571
 51
155.878182557
  0
LINE
  5
F0
330
81
100
AcDbEntity
  8
0
  6
Continuous
 62
     7
100
AcDbLine
 10
39.6490178683
 20
264.4805180999
 30
0.0
 11
39.3785470283
 21
264.094245709
 31
0.0
  0
ARC
  5
F1
330
81
100
AcDbEntity
  8
0
  6
Continuous
 62
     7
100
AcDbCircle
 10
39.587221645
 20
263.8790742193
 30
0.0
 40
0.2997396630319982
100
AcDbArc
 50
134.1218174429
 51
206.1218174429
  0
ARC
  5
F2
330
81
100
AcDbEntity
  8
0
  6
Continuous
 62
     7
100
AcDbCircle
 10
37.2613595729
 20
261.5249557469
 30
0.0
 40
3.027889628743216
100
AcDbArc
 50
33.6931852119
 51
47.2138077289
  0
LINE
  5
F3
330
81
100
AcDbEntity
  8
0
  6
Continuous
 62
     7
100
AcDbLine
 10
39.780624634
 20
263.2046638036
 30
0.0
 11
40.0006228781
 21
262.8721353555
 31
0.0
  0
ARC
  5
F4
330
81
100
AcDbEntity
  8
0
  6
Continuous
 62
     7
100
AcDbCircle
 10
33.6939725791
 20
259.0188103534
 30
0.0
 40
7.390666516963313
100
AcDbArc
 50
24.2890967699
 51
31.4246766515
  0
LINE
  5
F5
330
81
100
AcDbEntity
  8
0
  6
Continuous
 62
     7
100
AcDbLine
 10
40.4304289008
 20
262.0588938706
 30
0.0
 11
39.9805952725
 21
261.5228030281
 31
0.0
  0
ARC
  5
F6
330
81
100
AcDbEntity
  8
0
  6
Continuous
 62
     7
100
AcDbCircle
 10
41.8047197259
 20
268.6848224042
 30
0.0
 40
7.390666516961749
100
AcDbArc
 50
248.5753233485
 51
255.7109032301
  0
LINE
  5
F7
330
81
100
AcDbEntity
  8
0
  6
Continuous
 62
     7
100
AcDbLine
 10
39.1050737205
 20
261.8048614297
 30
0.0
 11
38.7393948325
 21
261.963774447
 31
0.0
  0
ARC
  5
F8
330
81
100
AcDbEntity
  8
0
  6
Continuous
 62
     7
100
AcDbCircle
 10
39.9561185626
 20
264.7364444542
 30
0.0
 40
3.027889628738019
100
AcDbArc
 50
232.7861922711
 51
246.3068147881
  0
ARC
  5
F9
330
81
100
AcDbEntity
  8
0
  6
Continuous
 62
     7
100
AcDbCircle
 10
38.0416461499
 20
262.0371290704
 30
0.0
 40
0.2997396630319956
100
AcDbArc
 50
73.8781825571
 51
145.8781825571
  0
LINE
  5
FA
330
81
100
AcDbEntity
  8
0
  6
Continuous
 62
     7
100
AcDbLine
 10
37.7935076317
 20
262.2052693136
 30
0.0
 11
37.4600703548
 21
261.8718320367
 31
0.0
  0
ARC
  5
FB
330
81
100
AcDbEntity
  8
0
  6
Continuous
 62
     7
100
AcDbCircle
 10
37.628210598
 20
261.6236935186
 30
0.0
 40
0.2997396630320101
100
AcDbArc
 50
124.1218174429
 51
196.1218174429
  0
ARC
  5
FC
330
81
100
AcDbEntity
  8
0
  6
Continuous
 62
     7
100
AcDbCircle
 10
34.9288952143
 20
259.7092211058
 30
0.0
 40
3.027889628744056
100
AcDbArc
 50
23.6931852119
 51
37.2138077289
  0
LINE
  5
FD
330
81
100
AcDbEntity
  8
0
  6
Continuous
 62
     7
100
AcDbLine
 10
37.7015652214
 20
260.9259448359
 30
0.0
 11
37.8604782388
 21
260.5602659479
 31
0.0
  0
ARC
  5
FE
330
81
100
AcDbEntity
  8
0
  6
Continuous
 62
     7
100
AcDbCircle
 10
30.9805172643
 20
257.8606199426
 30
0.0
 40
7.390666516963713
100
AcDbArc
 50
14.2890967699
 51
21.4246766515
  0
LINE
  5
FF
330
81
100
AcDbEntity
  8
0
  6
Continuous
 62
     7
100
AcDbLine
 10
38.1425366404
 20
259.6847443959
 30
0.0
 11
37.6064457978
 21
259.2349107677
 31
0.0
  0
ARC
  5
100
330
81
100
AcDbEntity
  8
0
  6
Continuous
 62
     7
100
AcDbCircle
 10
40.646529315
 20
265.9713670893
 30
0.0
 40
7.390666516961207
100
AcDbArc
 50
238.5753233485
 51
245.7109032301
  0
LINE
  5
101
330
81
100
AcDbEntity
  8
0
  6
Continuous
 62
     7
100
AcDbLine
 10
36.7932043129
 20
259.6647167904
 30
0.0
 11
36.4606758648
 21
259.8847150345
 31
0.0
  0
ARC
  5
102
330
81
100
AcDbEntity
  8
0
  6
Continuous
 62
     7
100
AcDbCircle
 10
38.1403839215
 20
262.4039800956
 30
0.0
 40
3.027889628746248
100
AcDbArc
 50
222.7861922711
 51
236.3068147881
  0
ARC
  5
103
330
81
100
AcDbEntity
  8
0
  6
Continuous
 62
     7
100
AcDbCircle
 10
35.7862654491
 20
260.0781180235
 30
0.0
 40
0.2997396630320058
100
AcDbArc
 50
63.8781825571
 51
135.8781825571
  0
LINE
  5
104
330
81
100
AcDbEntity
  8
0
  6
Continuous
 62
     7
100
AcDbLine
 10
35.5710939594
 20
260.2867926401
 30
0.0
 11
35.1848215685
 21
260.0163218002
 31
0.0
  0
ARC
  5
105
330
81
100
AcDbEntity
  8
0
  6
Continuous
 62
     7
100
AcDbCircle
 10
35.3073185822
 20
259.7427558168
 30
0.0
 40
0.2997396630320019
100
AcDbArc
 50
114.1218174429
 51
186.1218174429
  0
ARC
  5
106
330
81
100
AcDbEntity
  8
0
  6
Continuous
 62
     7
100
AcDbCircle
 10
32.3165672187
 20
258.3260997391
 30
0.0
 40
3.027889628741979
100
AcDbArc
 50
13.6931852119
 51
27.2138077289
  0
LINE
  5
107
330
81
100
AcDbEntity
  8
0
  6
Continuous
 62
     7
100
AcDbLine
 10
35.2583959968
 20
259.0428696078
 30
0.0
 11
35.3513952958
 21
258.6551512479
 31
0.0
  0
ARC
  5
108
330
81
100
AcDbEntity
  8
0
  6
Continuous
 62
     7
100
AcDbCircle
 10
28.1071677785
 20
257.1912116171
 30
0.0
 40
7.390666516962389
100
AcDbArc
 50
4.2890967699
 51
11.4246766515
  0
LINE
  5
109
330
81
100
AcDbEntity
  8
0
  6
Continuous
 62
     7
100
AcDbLine
 10
35.4771358745
 20
257.7439519082
 30
0.0
 11
34.8710766666
 21
257.3940434614
 31
0.0
  0
ARC
  5
10A
330
81
100
AcDbEntity
  8
0
  6
Continuous
 62
     7
100
AcDbCircle
 10
39.0347478484
 20
263.500252912
 30
0.0
 40
7.39066651696062
100
AcDbArc
 50
228.5753233485
 51
235.7109032301
  0
LINE
  5
10B
330
81
100
AcDbEntity
  8
0
  6
Continuous
 62
     7
100
AcDbLine
 10
34.1448251798
 20
257.9585376667
 30
0.0
 11
33.8555508802
 21
258.2329366021
 31
0.0
  0
ARC
  5
10C
330
81
100
AcDbEntity
  8
0
  6
Continuous
 62
     7
100
AcDbCircle
 10
35.9472061842
 20
260.4222501232
 30
0.0
 40
3.027889628743845
100
AcDbArc
 50
212.7861922711
 51
226.3068147881
  0
ARC
  5
10D
330
81
100
AcDbEntity
  8
0
  6
Continuous
 62
     7
100
AcDbCircle
 10
33.2249703507
 20
258.5405115049
 30
0.0
 40
0.2997396630320032
100
AcDbArc
 50
53.8781825571
 51
125.8781825571
  0
LINE
  5
10E
330
81
100
AcDbEntity
  8
0
  6
Continuous
 62
     7
100
AcDbLine
 10
33.0493037664
 20
258.7833800222
 30
0.0
 11
32.6219329526
 21
258.5840937389
 31
0.0
  0
ARC
  5
10F
330
81
100
AcDbEntity
  8
0
  6
Continuous
 62
     7
100
AcDbCircle
 10
32.6950647268
 20
258.2934124543
 30
0.0
 40
0.2997396630320006
100
AcDbArc
 50
104.1218174429
 51
176.1218174429
  0
ARC
  5
110
330
81
100
AcDbEntity
  8
0
  6
Continuous
 62
     7
100
AcDbCircle
 10
29.5037498505
 20
257.4176170898
 30
0.0
 40
3.027889628740821
100
AcDbArc
 50
3.6931852119
 51
17.2138077289
  0
LINE
  5
111
330
81
100
AcDbEntity
  8
0
  6
Continuous
 62
     7
100
AcDbLine
 10
32.5253514206
 20
257.6126544073
 30
0.0
 11
32.5496112647
 21
257.2146772017
 31
0.0
  0
ARC
  5
112
330
81
100
AcDbEntity
  8
0
  6
Continuous
 62
     7
100
AcDbCircle
 10
25.161229392
 20
257.0309250103
 30
0.0
 40
7.390666516963358
100
AcDbArc
 50
354.2890967699
 51
1.4246766515
  0
LINE
  5
113
330
81
100
AcDbEntity
  8
0
  6
Continuous
 62
     7
100
AcDbLine
 10
32.5152134567
 20
256.295486405
 30
0.0
 11
31.8576006858
 21
256.0561349307
 31
0.0
  0
ARC
  5
114
330
81
100
AcDbEntity
  8
0
  6
Continuous
 62
     7
100
AcDbCircle
 10
37.0183484902
 20
261.3465634261
 30
0.0
 40
7.390666516961959
100
AcDbArc
 50
218.5753233485
 51
225.7109032301
  0
LINE
  5
115
330
81
100
AcDbEntity
  8
0
  6
Continuous
 62
     7
100
AcDbLine
 10
31.240405981
 20
256.7381654479
 30
0.0
 11
31.0031752831
 21
257.0586276019
 31
0.0
  0
ARC
  5
116
330
81
100
AcDbEntity
  8
0
  6
Continuous
 62
     7
100
AcDbCircle
 10
33.4432239463
 20
258.8514683993
 30
0.0
 40
3.027889628737081
100
AcDbArc
 50
202.7861922711
 51
216.3068147881
  0
ARC
  5
117
330
81
100
AcDbEntity
  8
0
  6
Continuous
 62
     7
100
AcDbCircle
 10
30.4355845101
 20
257.4710289105
 30
0.0
 40
0.2997396630320049
100
AcDbArc
 50
43.8781825571
 51
115.8781825571
  0
LINE
  5
118
330
81
100
AcDbEntity
  8
0
  6
Continuous
 62
     7
100
AcDbLine
 10
30.3047603714
 20
257.7407118917
 30
0.0
 11
29.8492765806
 21
257.6186653778
 31
0.0
  0
ARC
  5
119
330
81
100
AcDbEntity
  8
0
  6
Continuous
 62
     7
100
AcDbCircle
 10
29.8708210435
 20
257.3197009957
 30
0.0
 40
0.2997396630319948
100
AcDbArc
 50
94.1218174429
 51
166.1218174429
  0
ARC
  5
11A
330
81
100
AcDbEntity
  8
0
  6
Continuous
 62
     7
100
AcDbCircle
 10
26.575909142
 20
257.0113769433
 30
0.0
 40
3.027889628745065
100
AcDbArc
 50
353.6931852119
 51
7.2138077289
  0
LINE
  5
11B
330
81
100
AcDbEntity
  8
0
  6
Continuous
 62
     7
100
AcDbLine
 10
29.5854736695
 20
256.6787555994
 30
0.0
 11
29.5402569356
 21
256.2826118841
 31
0.0
  0
ARC
  5
11C
330
81
100
AcDbEntity
  8
0
  6
Continuous
 62
     7
100
AcDbCircle
 10
22.2322129519
 20
257.3846303495
 30
0.0
 40
7.390666516963333
100
AcDbArc
 50
344.2890967699
 51
351.4246766515
  0
LINE
  5
11D
330
81
100
AcDbEntity
  8
0
  6
Continuous
 62
     7
100
AcDbLine
 10
29.3467659007
 20
255.3833587777
 30
0.0
 11
28.6575807982
 21
255.2618368495
 31
0.0
  0
ARC
  5
11E
330
81
100
AcDbEntity
  8
0
  6
Continuous
 62
     7
100
AcDbCircle
 10
34.6585985145
 20
259.5757373969
 30
0.0
 40
7.390666516961956
100
AcDbArc
 50
208.5753233485
 51
215.7109032301
  0
LINE
  5
11F
330
81
100
AcDbEntity
  8
0
  6
Continuous
 62
     7
100
AcDbLine
 10
28.1681960242
 20
256.0406805263
 30
0.0
 11
27.9902170627
 21
256.3974688185
 31
0.0
  0
ARC
  5
120
330
81
100
AcDbEntity
  8
0
  6
Continuous
 62
     7
100
AcDbCircle
 10
30.7045194413
 20
257.7393623319
 30
0.0
 40
3.027889628735861
100
AcDbArc
 50
192.7861922711
 51
206.3068147881
  0
ARC
  5
121
330
81
100
AcDbEntity
  8
0
  6
Continuous
 62
     7
100
AcDbCircle
 10
27.5028620046
 20
256.902165928
 30
0.0
 40
0.2997396630319976
100
AcDbArc
 50
33.8781825571
 51
105.8781825571
  0
LINE
  5
122
330
81
100
AcDbEntity
  8
0
  6
Continuous
 62
     7
100
AcDbLine
 10
27.4208553367
 20
257.1904691919
 30
0.0
 11
26.9510982134
 21
257.149370769
 31
0.0
  0
ARC
  5
123
330
81
100
AcDbEntity
  8
0
  6
Continuous
 62
     7
100
AcDbCircle
 10
26.9204007475
 20
256.851207171
 30
0.0
 40
0.2997396630319959
100
AcDbArc
 50
84.1218174429
 51
156.1218174429
  0
ARC
  5
124
330
81
100
AcDbEntity
  8
0
  6
Continuous
 62
     7
100
AcDbCircle
 10
23.6220060515
 20
257.119722701
 30
0.0
 40
3.02788962873799
100
AcDbArc
 50
343.6931852119
 51
357.2138077289
  0
LINE
  5
125
330
81
100
AcDbEntity
  8
0
  6
Continuous
 62
     7
100
AcDbLine
 10
26.5280894412
 20
256.269549227
 30
0.0
 11
26.4147700168
 21
255.8872756283
 31
0.0
  0
ARC
  5
126
330
81
100
AcDbEntity
  8
0
  6
Continuous
 62
     7
100
AcDbCircle
 10
19.4091151406
 20
258.241580477
 30
0.0
 40
7.39066651696349
100
AcDbArc
 50
334.2890967699
 51
341.4246766515
  0
LINE
  5
127
330
81
100
AcDbEntity
  8
0
  6
Continuous
 62
     7
100
AcDbLine
 10
26.0680648823
 20
255.0352835628
 30
0.0
 11
25.3682479887
 21
255.0352835628
 31
0.0
  0
ARC
  5
128
330
81
100
AcDbEntity
  8
0
  6
Continuous
 62
     7
100
AcDbCircle
 10
32.0271977304
 20
258.241580477
 30
0.0
 40
7.390666516960605
100
AcDbArc
 50
198.5753233485
 51
205.7109032301
  0
LINE
  5
129
330
81
100
AcDbEntity
  8
0
  6
Continuous
 62
     7
100
AcDbLine
 10
25.0215428542
 20
255.8872756283
 30
0.0
 11
24.9082234298
 21
256.269549227
 31
0.0
  0
ARC
  5
12A
330
81
100
AcDbEntity
  8
0
  6
Continuous
 62
     7
100
AcDbCircle
 10
27.8143068195
 20
257.119722701
 30
0.0
 40
3.027889628738285
100
AcDbArc
 50
182.7861922711
 51
196.3068147881
  0
ARC
  5
12B
330
81
100
AcDbEntity
  8
0
  6
Continuous
 62
     7
100
AcDbCircle
 10
24.5159121235
 20
256.851207171
 30
0.0
 40
0.2997396630320092
100
AcDbArc
 50
23.878182557
 51
95.8781825571
  0
LINE
  5
12C
330
81
100
AcDbEntity
  8
0
  6
Continuous
 62
     7
100
AcDbLine
 10
24.4852146576
 20
257.149370769
 30
0.0
 11
24.0154575343
 21
257.1904691919
 31
0.0
  0
ARC
  5
12D
330
81
100
AcDbEntity
  8
0
  6
Continuous
 62
     7
100
AcDbCircle
 10
23.9334508664
 20
256.902165928
 30
0.0
 40
0.2997396630319996
100
AcDbArc
 50
74.1218174429
 51
146.121817443
  0
ARC
  5
12E
330
81
100
AcDbEntity
  8
0
  6
Continuous
 62
     7
100
AcDbCircle
 10
20.7317934297
 20
257.7393623319
 30
0.0
 40
3.027889628736844
100
AcDbArc
 50
333.6931852119
 51
347.2138077289
  0
LINE
  5
12F
330
81
100
AcDbEntity
  8
0
  6
Continuous
 62
     7
100
AcDbLine
 10
23.4460958083
 20
256.3974688185
 30
0.0
 11
23.2681168468
 21
256.0406805263
 31
0.0
  0
ARC
  5
130
330
81
100
AcDbEntity
  8
0
  6
Continuous
 62
     7
100
AcDbCircle
 10
16.7777143565
 20
259.5757373969
 30
0.0
 40
7.390666516962194
100
AcDbArc
 50
324.2890967699
 51
331.4246766515
  0
LINE
  5
131
330
81
100
AcDbEntity
  8
0
  6
Continuous
 62
     7
100
AcDbLine
 10
22.7787320728
 20
255.2618368495
 30
0.0
 11
22.0895469703
 21
255.3833587777
 31
0.0
  0
ARC
  5
132
330
81
100
AcDbEntity
  8
0
  6
Continuous
 62
     7
100
AcDbCircle
 10
29.2040999191
 20
257.3846303495
 30
0.0
 40
7.390666516960848
100
AcDbArc
 50
188.5753233485
 51
195.7109032301
  0
LINE
  5
133
330
81
100
AcDbEntity
  8
0
  6
Continuous
 62
     7
100
AcDbLine
 10
21.8960559354
 20
256.2826118841
 30
0.0
 11
21.8508392015
 21
256.6787555994
 31
0.0
  0
ARC
  5
134
330
81
100
AcDbEntity
  8
0
  6
Continuous
 62
     7
100
AcDbCircle
 10
24.860403729
 20
257.0113769433
 30
0.0
 40
3.027889628740855
100
AcDbArc
 50
172.7861922711
 51
186.3068147881
  0
ARC
  5
135
330
81
100
AcDbEntity
  8
0
  6
Continuous
 62
     7
100
AcDbCircle
 10
21.5654918275
 20
257.3197009957
 30
0.0
 40
0.2997396630320041
100
AcDbArc
 50
13.8781825571
 51
85.878182557
  0
LINE
  5
136
330
81
100
AcDbEntity
  8
0
  6
Continuous
 62
     7
100
AcDbLine
 10
21.5870362904
 20
257.6186653778
 30
0.0
 11
21.1315524996
 21
257.7407118917
 31
0.0
  0
ARC
  5
137
330
81
100
AcDbEntity
  8
0
  6
Continuous
 62
     7
100
AcDbCircle
 10
21.0007283609
 20
257.4710289105
 30
0.0
 40
0.2997396630320021
100
AcDbArc
 50
64.1218174429
 51
136.1218174429
  0
ARC
  5
138
330
81
100
AcDbEntity
  8
0
  6
Continuous
 62
     7
100
AcDbCircle
 10
17.9930889247
 20
258.8514683993
 30
0.0
 40
3.027889628740843
100
AcDbArc
 50
323.6931852119
 51
337.2138077289
  0
LINE
  5
139
330
81
100
AcDbEntity
  8
0
  6
Continuous
 62
     7
100
AcDbLine
 10
20.4331375879
 20
257.0586276019
 30
0.0
 11
20.19590689
 21
256.7381654479
 31
0.0
  0
ARC
  5
13A
330
81
100
AcDbEntity
  8
0
  6
Continuous
 62
     7
100
AcDbCircle
 10
14.4179643808
 20
261.3465634261
 30
0.0
 40
7.390666516963624
100
AcDbArc
 50
314.2890967699
 51
321.4246766515
  0
LINE
  5
13B
330
81
100
AcDbEntity
  8
0
  6
Continuous
 62
     7
100
AcDbLine
 10
19.5787121852
 20
256.0561349307
 30
0.0
 11
18.9210994143
 21
256.295486405
 31
0.0
  0
ARC
  5
13C
330
81
100
AcDbEntity
  8
0
  6
Continuous
 62
     7
100
AcDbCircle
 10
26.275083479
 20
257.0309250103
 30
0.0
 40
7.390666516962326
100
AcDbArc
 50
178.5753233485
 51
185.7109032301
  0
LINE
  5
13D
330
81
100
AcDbEntity
  8
0
  6
Continuous
 62
     7
100
AcDbLine
 10
18.8867016063
 20
257.2146772017
 30
0.0
 11
18.9109614504
 21
257.6126544073
 31
0.0
  0
ARC
  5
13E
330
81
100
AcDbEntity
  8
0
  6
Continuous
 62
     7
100
AcDbCircle
 10
21.9325630205
 20
257.4176170898
 30
0.0
 40
3.027889628743927
100
AcDbArc
 50
162.7861922711
 51
176.3068147881
  0
ARC
  5
13F
330
81
100
AcDbEntity
  8
0
  6
Continuous
 62
     7
100
AcDbCircle
 10
18.7412481442
 20
258.2934124543
 30
0.0
 40
0.2997396630319984
100
AcDbArc
 50
3.8781825571
 51
75.8781825571
  0
LINE
  5
140
330
81
100
AcDbEntity
  8
0
  6
Continuous
 62
     7
100
AcDbLine
 10
18.8143799184
 20
258.5840937389
 30
0.0
 11
18.3870091046
 21
258.7833800222
 31
0.0
  0
ARC
  5
141
330
81
100
AcDbEntity
  8
0
  6
Continuous
 62
     7
100
AcDbCircle
 10
18.2113425203
 20
258.5405115049
 30
0.0
 40
0.2997396630319929
100
AcDbArc
 50
54.121817443
 51
126.1218174429
  0
ARC
  5
142
330
81
100
AcDbEntity
  8
0
  6
Continuous
 62
     7
100
AcDbCircle
 10
15.4891066868
 20
260.4222501232
 30
0.0
 40
3.027889628741953
100
AcDbArc
 50
313.6931852119
 51
327.2138077289
  0
LINE
  5
143
330
81
100
AcDbEntity
  8
0
  6
Continuous
 62
     7
100
AcDbLine
 10
17.5807619908
 20
258.2329366021
 30
0.0
 11
17.2914876912
 21
257.9585376667
 31
0.0
  0
ARC
  5
144
330
81
100
AcDbEntity
  8
0
  6
Continuous
 62
     7
100
AcDbCircle
 10
12.4015650226
 20
263.500252912
 30
0.0
 40
7.390666516962537
100
AcDbArc
 50
304.2890967699
 51
311.4246766515
  0
LINE
  5
145
330
81
100
AcDbEntity
  8
0
  6
Continuous
 62
     7
100
AcDbLine
 10
16.5652362044
 20
257.3940434614
 30
0.0
 11
15.9591769965
 21
257.7439519082
 31
0.0
  0
ARC
  5
146
330
81
100
AcDbEntity
  8
0
  6
Continuous
 62
     7
100
AcDbCircle
 10
23.3291450925
 20
257.1912116171
 30
0.0
 40
7.39066651696124
100
AcDbArc
 50
168.5753233485
 51
175.7109032301
  0
LINE
  5
147
330
81
100
AcDbEntity
  8
0
  6
Continuous
 62
     7
100
AcDbLine
 10
16.0849175752
 20
258.6551512479
 30
0.0
 11
16.1779168742
 21
259.0428696078
 31
0.0
  0
ARC
  5
148
330
81
100
AcDbEntity
  8
0
  6
Continuous
 62
     7
100
AcDbCircle
 10
19.1197456523
 20
258.3260997391
 30
0.0
 40
3.027889628740926
100
AcDbArc
 50
152.7861922711
 51
166.3068147881
  0
ARC
  5
149
330
81
100
AcDbEntity
  8
0
  6
Continuous
 62
     7
100
AcDbCircle
 10
16.1289942888
 20
259.7427558168
 30
0.0
 40
0.299739663032001
100
AcDbArc
 50
353.8781825571
 51
65.8781825571
  0
LINE
  5
14A
330
81
100
AcDbEntity
  8
0
  6
Continuous
 62
     7
100
AcDbLine
 10
16.2514913025
 20
260.0163218002
 30
0.0
 11
15.8652189116
 21
260.2867926401
 31
0.0
  0
ARC
  5
14B
330
81
100
AcDbEntity
  8
0
  6
Continuous
 62
     7
100
AcDbCircle
 10
15.6500474219
 20
260.0781180235
 30
0.0
 40
0.2997396630319932
100
AcDbArc
 50
44.1218174429
 51
116.1218174429
  0
ARC
  5
14C
330
81
100
AcDbEntity
  8
0
  6
Continuous
 62
     7
100
AcDbCircle
 10
13.2959289495
 20
262.4039800956
 30
0.0
 40
3.02788962874212
100
AcDbArc
 50
303.6931852119
 51
317.2138077289
  0
LINE
  5
14D
330
81
100
AcDbEntity
  8
0
  6
Continuous
 62
     7
100
AcDbLine
 10
14.9756370062
 20
259.8847150345
 30
0.0
 11
14.6431085581
 21
259.6647167904
 31
0.0
  0
ARC
  5
14E
330
81
100
AcDbEntity
  8
0
  6
Continuous
 62
     7
100
AcDbCircle
 10
10.789783556
 20
265.9713670893
 30
0.0
 40
7.390666516964359
100
AcDbArc
 50
294.2890967699
 51
301.4246766515
  0
LINE
  5
14F
330
81
100
AcDbEntity
  8
0
  6
Continuous
 62
     7
100
AcDbLine
 10
13.8298670732
 20
259.2349107677
 30
0.0
 11
13.2937762306
 21
259.6847443959
 31
0.0
  0
ARC
  5
150
330
81
100
AcDbEntity
  8
0
  6
Continuous
 62
     7
100
AcDbCircle
 10
20.4557956067
 20
257.8606199426
 30
0.0
 40
7.390666516961626
100
AcDbArc
 50
158.5753233485
 51
165.7109032301
  0
LINE
  5
151
330
81
100
AcDbEntity
  8
0
  6
Continuous
 62
     7
100
AcDbLine
 10
13.5758346322
 20
260.5602659479
 30
0.0
 11
13.7347476496
 21
260.9259448359
 31
0.0
  0
ARC
  5
152
330
81
100
AcDbEntity
  8
0
  6
Continuous
 62
     7
100
AcDbCircle
 10
16.5074176567
 20
259.7092211058
 30
0.0
 40
3.027889628742049
100
AcDbArc
 50
142.7861922711
 51
156.3068147881
  0
ARC
  5
153
330
81
100
AcDbEntity
  8
0
  6
Continuous
 62
     7
100
AcDbCircle
 10
13.808102273
 20
261.6236935186
 30
0.0
 40
0.2997396630319945
100
AcDbArc
 50
343.8781825571
 51
55.8781825571
  0
LINE
  5
154
330
81
100
AcDbEntity
  8
0
  6
Continuous
 62
     7
100
AcDbLine
 10
13.9762425162
 20
261.8718320367
 30
0.0
 11
13.6428052393
 21
262.2052693136
 31
0.0
  0
ARC
  5
155
330
81
100
AcDbEntity
  8
0
  6
Continuous
 62
     7
100
AcDbCircle
 10
13.3946667211
 20
262.0371290704
 30
0.0
 40
0.2997396630320034
100
AcDbArc
 50
34.1218174429
 51
106.1218174429
  0
ARC
  5
156
330
81
100
AcDbEntity
  8
0
  6
Continuous
 62
     7
100
AcDbCircle
 10
11.4801943084
 20
264.7364444542
 30
0.0
 40
3.027889628741927
100
AcDbArc
 50
293.6931852119
 51
307.2138077289
  0
LINE
  5
157
330
81
100
AcDbEntity
  8
0
  6
Continuous
 62
     7
100
AcDbLine
 10
12.6969180385
 20
261.963774447
 30
0.0
 11
12.3312391505
 21
261.8048614297
 31
0.0
  0
ARC
  5
158
330
81
100
AcDbEntity
  8
0
  6
Continuous
 62
     7
100
AcDbCircle
 10
9.6315931451
 20
268.6848224042
 30
0.0
 40
7.390666516963452
100
AcDbArc
 50
284.2890967699
 51
291.4246766515
  0
LINE
  5
159
330
81
100
AcDbEntity
  8
0
  6
Continuous
 62
     7
100
AcDbLine
 10
11.4557175985
 20
261.5228030281
 30
0.0
 11
11.0058839702
 21
262.0588938706
 31
0.0
  0
ARC
  5
15A
330
81
100
AcDbEntity
  8
0
  6
Continuous
 62
     7
100
AcDbCircle
 10
17.7423402919
 20
259.0188103534
 30
0.0
 40
7.390666516960942
100
AcDbArc
 50
148.5753233485
 51
155.7109032301
  0
LINE
  5
15B
330
81
100
AcDbEntity
  8
0
  6
Continuous
 62
     7
100
AcDbLine
 10
11.4356899929
 20
262.8721353555
 30
0.0
 11
11.655688237
 21
263.2046638036
 31
0.0
  0
ARC
  5
15C
330
81
100
AcDbEntity
  8
0
  6
Continuous
 62
     7
100
AcDbCircle
 10
14.1749532981
 20
261.5249557469
 30
0.0
 40
3.027889628745905
100
AcDbArc
 50
132.7861922711
 51
146.3068147881
  0
ARC
  5
15D
330
81
100
AcDbEntity
  8
0
  6
Continuous
 62
     7
100
AcDbCircle
 10
11.849091226
 20
263.8790742193
 30
0.0
 40
0.2997396630320041
100
AcDbArc
 50
333.8781825571
 51
45.8781825571
  0
LINE
  5
15E
330
81
100
AcDbEntity
  8
0
  6
Continuous
 62
     7
100
AcDbLine
 10
12.0577658427
 20
264.094245709
 30
0.0
 11
11.7872950027
 21
264.4805180999
 31
0.0
  0
ARC
  5
15F
330
81
100
AcDbEntity
  8
0
  6
Continuous
 62
     7
100
AcDbCircle
 10
11.5137290194
 20
264.3580210863
 30
0.0
 40
0.2997396630320027
100
AcDbArc
 50
24.1218174429
 51
96.1218174429
  0
ARC
  5
160
330
81
100
AcDbEntity
  8
0
  6
Continuous
 62
     7
100
AcDbCircle
 10
10.0970729417
 20
267.3487724497
 30
0.0
 40
3.02788962874098
100
AcDbArc
 50
283.6931852119
 51
297.2138077289
  0
LINE
  5
161
330
81
100
AcDbEntity
  8
0
  6
Continuous
 62
     7
100
AcDbLine
 10
10.8138428104
 20
264.4069436717
 30
0.0
 11
10.4261244505
 21
264.3139443726
 31
0.0
  0
ARC
  5
162
330
81
100
AcDbEntity
  8
0
  6
Continuous
 62
     7
100
AcDbCircle
 10
8.9621848197
 20
271.5581718899
 30
0.0
 40
7.390666516963606
100
AcDbArc
 50
274.2890967699
 51
281.4246766515
  0
LINE
  5
163
330
81
100
AcDbEntity
  8
0
  6
Continuous
 62
     7
100
AcDbLine
 10
9.5149251107
 20
264.1882037939
 30
0.0
 11
9.1650166639
 21
264.7942630018
 31
0.0
  0
ARC
  5
164
330
81
100
AcDbEntity
  8
0
  6
Continuous
 62
     7
100
AcDbCircle
 10
15.2712261146
 20
260.6305918201
 30
0.0
 40
7.39066651696152
100
AcDbArc
 50
138.5753233485
 51
145.7109032301
  0
LINE
  5
165
330
81
100
AcDbEntity
  8
0
  6
Continuous
 62
     7
100
AcDbLine
 10
9.7295108692
 20
265.5205144886
 30
0.0
 11
10.0039098047
 21
265.8097887882
 31
0.0
  0
ARC
  5
166
330
81
100
AcDbEntity
  8
0
  6
Continuous
 62
     7
100
AcDbCircle
 10
12.1932233257
 20
263.7181334843
 30
0.0
 40
3.027889628739987
100
AcDbArc
 50
122.7861922711
 51
136.3068147881
  0
ARC
  5
167
330
81
100
AcDbEntity
  8
0
  6
Continuous
 62
     7
100
AcDbCircle
 10
10.3114847074
 20
266.4403693177
 30
0.0
 40
0.2997396630319997
100
AcDbArc
 50
323.8781825571
 51
35.8781825571
  0
LINE
  5
168
330
81
100
AcDbEntity
  8
0
  6
Continuous
 62
     7
100
AcDbLine
 10
10.5543532248
 20
266.6160359021
 30
0.0
 11
10.3550669414
 21
267.0434067159
 31
0.0
  0
ARC
  5
169
330
81
100
AcDbEntity
  8
0
  6
Continuous
 62
     7
100
AcDbCircle
 10
10.0643856569
 20
266.9702749416
 30
0.0
 40
0.2997396630320019
100
AcDbArc
 50
14.1218174429
 51
86.1218174429
  0
ARC
  5
16A
330
81
100
AcDbEntity
  8
0
  6
Continuous
 62
     7
100
AcDbCircle
 10
9.1885902923
 20
270.1615898179
 30
0.0
 40
3.027889628740749
100
AcDbArc
 50
273.6931852119
 51
287.2138077289
  0
LINE
  5
16B
330
81
100
AcDbEntity
  8
0
  6
Continuous
 62
     7
100
AcDbLine
 10
9.3836276098
 20
267.1399882478
 30
0.0
 11
8.9856504042
 21
267.1157284037
 31
0.0
  0
ARC
  5
16C
330
81
100
AcDbEntity
  8
0
  6
Continuous
 62
     7
100
AcDbCircle
 10
8.8018982128
 20
274.5041102764
 30
0.0
 40
7.390666516963472
100
AcDbArc
 50
264.2890967699
 51
271.4246766515
  0
LINE
  5
16D
330
81
100
AcDbEntity
  8
0
  6
Continuous
 62
     7
100
AcDbLine
 10
8.0664596076
 20
267.1501262118
 30
0.0
 11
7.8271081333
 21
267.8077389826
 31
0.0
  0
ARC
  5
16E
330
81
100
AcDbEntity
  8
0
  6
Continuous
 62
     7
100
AcDbCircle
 10
13.1175366287
 20
262.6469911783
 30
0.0
 40
7.390666516960311
100
AcDbArc
 50
128.5753233485
 51
135.7109032301
  0
LINE
  5
16F
330
81
100
AcDbEntity
  8
0
  6
Continuous
 62
     7
100
AcDbLine
 10
8.5091386504
 20
268.4249336874
 30
0.0
 11
8.8296008045
 21
268.6621643853
 31
0.0
  0
ARC
  5
170
330
81
100
AcDbEntity
  8
0
  6
Continuous
 62
     7
100
AcDbCircle
 10
10.6224416019
 20
266.2221157221
 30
0.0
 40
3.027889628729142
100
AcDbArc
 50
112.786192271
 51
126.3068147881
  0
ARC
  5
171
330
81
100
AcDbEntity
  8
0
  6
Continuous
 62
     7
100
AcDbCircle
 10
9.2420021131
 20
269.2297551583
 30
0.0
 40
0.2997396630319956
100
AcDbArc
 50
313.878182557
 51
25.8781825571
  0
LINE
  5
172
330
81
100
AcDbEntity
  8
0
  6
Continuous
 62
     7
100
AcDbLine
 10
9.5116850942
 20
269.3605792971
 30
0.0
 11
9.3896385803
 21
269.8160630879
 31
0.0
  0
ARC
  5
173
330
81
100
AcDbEntity
  8
0
  6
Continuous
 62
     7
100
AcDbCircle
 10
9.0906741983
 20
269.7945186249
 30
0.0
 40
0.2997396630319948
100
AcDbArc
 50
4.1218174429
 51
76.1218174429
  0
ARC
  5
174
330
81
100
AcDbEntity
  8
0
  6
Continuous
 62
     7
100
AcDbCircle
 10
8.7823501459
 20
273.0894305265
 30
0.0
 40
3.027889628744901
100
AcDbArc
 50
263.6931852119
 51
277.2138077289
  0
LINE
  5
175
330
81
100
AcDbEntity
  8
0
  6
Continuous
 62
     7
100
AcDbLine
 10
8.449728802
 20
270.0798659989
 30
0.0
 11
8.0535850867
 21
270.1250827329
 31
0.0
  0
ARC
  5
176
330
81
100
AcDbEntity
  8
0
  6
Continuous
 62
     7
100
AcDbCircle
 10
9.155603552
 20
277.4331267165
 30
0.0
 40
7.390666516963199
100
AcDbArc
 50
254.2890967699
 51
261.4246766515
  0
LINE
  5
177
330
81
100
AcDbEntity
  8
0
  6
Continuous
 62
     7
100
AcDbLine
 10
7.1543319803
 20
270.3185737677
 30
0.0
 11
7.032810052
 21
271.0077588703
 31
0.0
  0
ARC
  5
178
330
81
100
AcDbEntity
  8
0
  6
Continuous
 62
     7
100
AcDbCircle
 10
11.3467105994
 20
265.0067411539
 30
0.0
 40
7.390666516959466
100
AcDbArc
 50
118.5753233485
 51
125.7109032301
  0
LINE
  5
179
330
81
100
AcDbEntity
  8
0
  6
Continuous
 62
     7
100
AcDbLine
 10
7.8116537288
 20
271.4971436442
 30
0.0
 11
8.168442021
 21
271.6751226057
 31
0.0
  0
ARC
  5
17A
330
81
100
AcDbEntity
  8
0
  6
Continuous
 62
     7
100
AcDbCircle
 10
9.5103355345
 20
268.9608202272
 30
0.0
 40
3.027889628728234
100
AcDbArc
 50
102.786192271
 51
116.3068147881
  0
ARC
  5
17B
330
81
100
AcDbEntity
  8
0
  6
Continuous
 62
     7
100
AcDbCircle
 10
8.6731391305
 20
272.1624776638
 30
0.0
 40
0.2997396630319969
100
AcDbArc
 50
303.8781825571
 51
15.8781825571
  0
LINE
  5
17C
330
81
100
AcDbEntity
  8
0
  6
Continuous
 62
     7
100
AcDbLine
 10
8.9614423945
 20
272.2444843317
 30
0.0
 11
8.9203439716
 21
272.714241455
 31
0.0
  0
ARC
  5
17D
330
81
100
AcDbEntity
  8
0
  6
Continuous
 62
     7
100
AcDbCircle
 10
8.6221803736
 20
272.744938921
 30
0.0
 40
0.2997396630320018
100
AcDbArc
 50
354.1218174429
 51
66.121817443
  0
ARC
  5
17E
330
81
100
AcDbEntity
  8
0
  6
Continuous
 62
     7
100
AcDbCircle
 10
8.8906959036
 20
276.043333617
 30
0.0
 40
3.027889628737972
100
AcDbArc
 50
253.6931852119
 51
267.2138077289
  0
LINE
  5
17F
330
81
100
AcDbEntity
  8
0
  6
Continuous
 62
     7
100
AcDbLine
 10
8.0405224295
 20
273.1372502273
 30
0.0
 11
7.6582488308
 21
273.2505696517
 31
0.0
  0
ARC
  5
180
330
81
100
AcDbEntity
  8
0
  6
Continuous
 62
     7
100
AcDbCircle
 10
10.0125536796
 20
280.2562245279
 30
0.0
 40
7.390666516962138
100
AcDbArc
 50
244.2890967699
 51
251.4246766515
  0
LINE
  5
181
330
81
100
AcDbEntity
  8
0
  6
Continuous
 62
     7
100
AcDbLine
 10
6.8062567654
 20
273.5972747861
 30
0.0
 11
6.8062567654
 21
274.2970916797
 31
0.0
  0
ARC
  5
182
330
81
100
AcDbEntity
  8
0
  6
Continuous
 62
     7
100
AcDbCircle
 10
10.0125536796
 20
267.638141938
 30
0.0
 40
7.390666516960797
100
AcDbArc
 50
108.5753233485
 51
115.7109032301
  0
LINE
  5
183
330
81
100
AcDbEntity
  8
0
  6
Continuous
 62
     7
100
AcDbLine
 10
7.6582488308
 20
274.6437968142
 30
0.0
 11
8.0405224295
 21
274.7571162386
 31
0.0
  0
ARC
  5
184
330
81
100
AcDbEntity
  8
0
  6
Continuous
 62
     7
100
AcDbCircle
 10
8.8906959036
 20
271.8510328489
 30
0.0
 40
3.027889628729793
100
AcDbArc
 50
92.786192271
 51
106.3068147881
  0
ARC
  5
185
330
81
100
AcDbEntity
  8
0
  6
Continuous
 62
     7
100
AcDbCircle
 10
8.6221803736
 20
275.1494275449
 30
0.0
 40
0.2997396630320092
100
AcDbArc
 50
293.8781825571
 51
5.8781825571
  0
LINE
  5
186
330
81
100
AcDbEntity
  8
0
  6
Continuous
 62
     7
100
AcDbLine
 10
8.9203439716
 20
275.1801250109
 30
0.0
 11
8.9614423945
 21
275.6498821342
 31
0.0
  0
ARC
  5
187
330
81
100
AcDbEntity
  8
0
  6
Continuous
 62
     7
100
AcDbCircle
 10
8.6731391305
 20
275.7318888021
 30
0.0
 40
0.2997396630320087
100
AcDbArc
 50
344.1218174429
 51
56.1218174429
  0
ARC
  5
188
330
81
100
AcDbEntity
  8
0
  6
Continuous
 62
     7
100
AcDbCircle
 10
9.5103355345
 20
278.9335462387
 30
0.0
 40
3.0278896287371
100
AcDbArc
 50
243.6931852119
 51
257.2138077289
  0
LINE
  5
189
330
81
100
AcDbEntity
  8
0
  6
Continuous
 62
     7
100
AcDbLine
 10
8.168442021
 20
276.2192438601
 30
0.0
 11
7.8116537288
 21
276.3972228216
 31
0.0
  0
ARC
  5
18A
330
81
100
AcDbEntity
  8
0
  6
Continuous
 62
     7
100
AcDbCircle
 10
11.3467105994
 20
282.887625312
 30
0.0
 40
7.390666516963746
100
AcDbArc
 50
234.2890967699
 51
241.4246766515
  0
LINE
  5
18B
330
81
100
AcDbEntity
  8
0
  6
Continuous
 62
     7
100
AcDbLine
 10
7.032810052
 20
276.8866075956
 30
0.0
 11
7.1543319803
 21
277.5757926981
 31
0.0
  0
ARC
  5
18C
330
81
100
AcDbEntity
  8
0
  6
Continuous
 62
     7
100
AcDbCircle
 10
9.155603552
 20
270.4612397494
 30
0.0
 40
7.39066651695981
100
AcDbArc
 50
98.5753233485
 51
105.7109032301
  0
LINE
  5
18D
330
81
100
AcDbEntity
  8
0
  6
Continuous
 62
     7
100
AcDbLine
 10
8.0535850867
 20
277.769283733
 30
0.0
 11
8.449728802
 21
277.8145004669
 31
0.0
  0
ARC
  5
18E
330
81
100
AcDbEntity
  8
0
  6
Continuous
 62
     7
100
AcDbCircle
 10
8.7823501459
 20
274.8049359394
 30
0.0
 40
3.027889628732892
100
AcDbArc
 50
82.786192271
 51
96.3068147881
  0
ARC
  5
18F
330
81
100
AcDbEntity
  8
0
  6
Continuous
 62
     7
100
AcDbCircle
 10
9.0906741983
 20
278.099847841
 30
0.0
 40
0.2997396630320048
100
AcDbArc
 50
283.8781825571
 51
355.8781825571
  0
LINE
  5
190
330
81
100
AcDbEntity
  8
0
  6
Continuous
 62
     7
100
AcDbLine
 10
9.3896385803
 20
278.078303378
 30
0.0
 11
9.5116850942
 21
278.5337871688
 31
0.0
  0
ARC
  5
191
330
81
100
AcDbEntity
  8
0
  6
Continuous
 62
     7
100
AcDbCircle
 10
9.2420021131
 20
278.6646113076
 30
0.0
 40
0.2997396630320021
100
AcDbArc
 50
334.1218174429
 51
46.121817443
  0
ARC
  5
192
330
81
100
AcDbEntity
  8
0
  6
Continuous
 62
     7
100
AcDbCircle
 10
10.6224416019
 20
281.6722507438
 30
0.0
 40
3.027889628741871
100
AcDbArc
 50
233.6931852119
 51
247.2138077289
  0
LINE
  5
193
330
81
100
AcDbEntity
  8
0
  6
Continuous
 62
     7
100
AcDbLine
 10
8.8296008045
 20
279.2322020806
 30
0.0
 11
8.5091386504
 21
279.4694327785
 31
0.0
  0
ARC
  5
194
330
81
100
AcDbEntity
  8
0
  6
Continuous
 62
     7
100
AcDbCircle
 10
13.1175366287
 20
285.2473752876
 30
0.0
 40
7.39066651696158
100
AcDbArc
 50
224.2890967699
 51
231.4246766515
  0
LINE
  5
195
330
81
100
AcDbEntity
  8
0
  6
Continuous
 62
     7
100
AcDbLine
 10
7.8271081333
 20
280.0866274833
 30
0.0
 11
8.0664596076
 21
280.7442402541
 31
0.0
  0
ARC
  5
196
330
81
100
AcDbEntity
  8
0
  6
Continuous
 62
     7
100
AcDbCircle
 10
8.8018982128
 20
273.3902561895
 30
0.0
 40
7.390666516959988
100
AcDbArc
 50
88.5753233485
 51
95.7109032301
  0
LINE
  5
197
330
81
100
AcDbEntity
  8
0
  6
Continuous
 62
     7
100
AcDbLine
 10
8.9856504042
 20
280.7786380622
 30
0.0
 11
9.3836276098
 21
280.7543782181
 31
0.0
  0
ARC
  5
198
330
81
100
AcDbEntity
  8
0
  6
Continuous
 62
     7
100
AcDbCircle
 10
9.1885902923
 20
277.7327766479
 30
0.0
 40
3.027889628737849
100
AcDbArc
 50
72.7861922711
 51
86.3068147881
  0
ARC
  5
199
330
81
100
AcDbEntity
  8
0
  6
Continuous
 62
     7
100
AcDbCircle
 10
10.0643856569
 20
280.9240915243
 30
0.0
 40
0.2997396630319985
100
AcDbArc
 50
273.8781825571
 51
345.8781825571
  0
LINE
  5
19A
330
81
100
AcDbEntity
  8
0
  6
Continuous
 62
     7
100
AcDbLine
 10
10.3550669414
 20
280.85095975
 30
0.0
 11
10.5543532248
 21
281.2783305638
 31
0.0
  0
ARC
  5
19B
330
81
100
AcDbEntity
  8
0
  6
Continuous
 62
     7
100
AcDbCircle
 10
10.3114847074
 20
281.4539971482
 30
0.0
 40
0.2997396630319968
100
AcDbArc
 50
324.1218174429
 51
36.1218174429
  0
ARC
  5
19C
330
81
100
AcDbEntity
  8
0
  6
Continuous
 62
     7
100
AcDbCircle
 10
12.1932233257
 20
284.1762329816
 30
0.0
 40
3.027889628739722
100
AcDbArc
 50
223.6931852119
 51
237.2138077289
  0
LINE
  5
19D
330
81
100
AcDbEntity
  8
0
  6
Continuous
 62
     7
100
AcDbLine
 10
10.0039098047
 20
282.0845776777
 30
0.0
 11
9.7295108692
 21
282.3738519773
 31
0.0
  0
ARC
  5
19E
330
81
100
AcDbEntity
  8
0
  6
Continuous
 62
     7
100
AcDbCircle
 10
15.2712261146
 20
287.2637746458
 30
0.0
 40
7.390666516964381
100
AcDbArc
 50
214.2890967699
 51
221.4246766515
  0
LINE
  5
19F
330
81
100
AcDbEntity
  8
0
  6
Continuous
 62
     7
100
AcDbLine
 10
9.1650166639
 20
283.1001034641
 30
0.0
 11
9.5149251107
 21
283.7061626719
 31
0.0
  0
ARC
  5
1A0
330
81
100
AcDbEntity
  8
0
  6
Continuous
 62
     7
100
AcDbCircle
 10
8.9621848197
 20
276.336194576
 30
0.0
 40
7.390666516958595
100
AcDbArc
 50
78.5753233485
 51
85.7109032301
  0
LINE
  5
1A1
330
81
100
AcDbEntity
  8
0
  6
Continuous
 62
     7
100
AcDbLine
 10
10.4261244505
 20
283.5804220933
 30
0.0
 11
10.8138428104
 21
283.4874227942
 31
0.0
  0
ARC
  5
1A2
330
81
100
AcDbEntity
  8
0
  6
Continuous
 62
     7
100
AcDbCircle
 10
10.0970729417
 20
280.5455940162
 30
0.0
 40
3.027889628731093
100
AcDbArc
 50
62.786192271
 51
76.3068147881
  0
ARC
  5
1A3
330
81
100
AcDbEntity
  8
0
  6
Continuous
 62
     7
100
AcDbCircle
 10
11.5137290194
 20
283.5363453796
 30
0.0
 40
0.2997396630320004
100
AcDbArc
 50
263.8781825571
 51
335.8781825571
  0
LINE
  5
1A4
330
81
100
AcDbEntity
  8
0
  6
Continuous
 62
     7
100
AcDbLine
 10
11.7872950027
 20
283.413848366
 30
0.0
 11
12.0577658427
 21
283.8001207569
 31
0.0
  0
ARC
  5
1A5
330
81
100
AcDbEntity
  8
0
  6
Continuous
 62
     7
100
AcDbCircle
 10
11.849091226
 20
284.0152922466
 30
0.0
 40
0.2997396630320009
100
AcDbArc
 50
314.1218174429
 51
26.1218174429
  0
ARC
  5
1A6
330
81
100
AcDbEntity
  8
0
  6
Continuous
 62
     7
100
AcDbCircle
 10
14.1749532981
 20
286.369410719
 30
0.0
 40
3.027889628742095
100
AcDbArc
 50
213.6931852119
 51
227.2138077289
  0
LINE
  5
1A7
330
81
100
AcDbEntity
  8
0
  6
Continuous
 62
     7
100
AcDbLine
 10
11.655688237
 20
284.6897026623
 30
0.0
 11
11.4356899929
 21
285.0222311104
 31
0.0
  0
ARC
  5
1A8
330
81
100
AcDbEntity
  8
0
  6
Continuous
 62
     7
100
AcDbCircle
 10
17.7423402919
 20
288.8755561125
 30
0.0
 40
7.390666516963947
100
AcDbArc
 50
204.2890967699
 51
211.4246766515
  0
LINE
  5
1A9
330
81
100
AcDbEntity
  8
0
  6
Continuous
 62
     7
100
AcDbLine
 10
11.0058839702
 20
285.8354725953
 30
0.0
 11
11.4557175985
 21
286.3715634378
 31
0.0
  0
ARC
  5
1AA
330
81
100
AcDbEntity
  8
0
  6
Continuous
 62
     7
100
AcDbCircle
 10
9.6315931451
 20
279.2095440617
 30
0.0
 40
7.390666516959287
100
AcDbArc
 50
68.5753233485
 51
75.7109032301
  0
LINE
  5
1AB
330
81
100
AcDbEntity
  8
0
  6
Continuous
 62
     7
100
AcDbLine
 10
12.3312391505
 20
286.0895050362
 30
0.0
 11
12.6969180385
 21
285.9305920188
 31
0.0
  0
ARC
  5
1AC
330
81
100
AcDbEntity
  8
0
  6
Continuous
 62
     7
100
AcDbCircle
 10
11.4801943084
 20
283.1579220117
 30
0.0
 40
3.027889628739044
100
AcDbArc
 50
52.7861922711
 51
66.3068147881
  0
ARC
  5
1AD
330
81
100
AcDbEntity
  8
0
  6
Continuous
 62
     7
100
AcDbCircle
 10
13.3946667211
 20
285.8572373955
 30
0.0
 40
0.2997396630320046
100
AcDbArc
 50
253.8781825571
 51
325.8781825571
  0
LINE
  5
1AE
330
81
100
AcDbEntity
  8
0
  6
Continuous
 62
     7
100
AcDbLine
 10
13.6428052393
 20
285.6890971523
 30
0.0
 11
13.9762425162
 21
286.0225344291
 31
0.0
  0
ARC
  5
1AF
330
81
100
AcDbEntity
  8
0
  6
Continuous
 62
     7
100
AcDbCircle
 10
13.808102273
 20
286.2706729473
 30
0.0
 40
0.2997396630319936
100
AcDbArc
 50
304.1218174429
 51
16.1218174429
  0
ARC
  5
1B0
330
81
100
AcDbEntity
  8
0
  6
Continuous
 62
     7
100
AcDbCircle
 10
16.5074176567
 20
288.1851453601
 30
0.0
 40
3.027889628743934
100
AcDbArc
 50
203.6931852119
 51
217.2138077289
  0
LINE
  5
1B1
330
81
100
AcDbEntity
  8
0
  6
Continuous
 62
     7
100
AcDbLine
 10
13.7347476496
 20
286.96842163
 30
0.0
 11
13.5758346322
 21
287.334100518
 31
0.0
  0
ARC
  5
1B2
330
81
100
AcDbEntity
  8
0
  6
Continuous
 62
     7
100
AcDbCircle
 10
20.4557956067
 20
290.0337465233
 30
0.0
 40
7.390666516963337
100
AcDbArc
 50
194.2890967699
 51
201.4246766515
  0
LINE
  5
1B3
330
81
100
AcDbEntity
  8
0
  6
Continuous
 62
     7
100
AcDbLine
 10
13.2937762306
 20
288.2096220699
 30
0.0
 11
13.8298670732
 21
288.6594556982
 31
0.0
  0
ARC
  5
1B4
330
81
100
AcDbEntity
  8
0
  6
Continuous
 62
     7
100
AcDbCircle
 10
10.789783556
 20
281.9229993766
 30
0.0
 40
7.390666516959378
100
AcDbArc
 50
58.5753233485
 51
65.7109032301
  0
LINE
  5
1B5
330
81
100
AcDbEntity
  8
0
  6
Continuous
 62
     7
100
AcDbLine
 10
14.6431085581
 20
288.2296496755
 30
0.0
 11
14.9756370062
 21
288.0096514314
 31
0.0
  0
ARC
  5
1B6
330
81
100
AcDbEntity
  8
0
  6
Continuous
 62
     7
100
AcDbCircle
 10
13.2959289495
 20
285.4903863703
 30
0.0
 40
3.027889628729735
100
AcDbArc
 50
42.786192271
 51
56.3068147881
  0
ARC
  5
1B7
330
81
100
AcDbEntity
  8
0
  6
Continuous
 62
     7
100
AcDbCircle
 10
15.6500474219
 20
287.8162484424
 30
0.0
 40
0.2997396630319993
100
AcDbArc
 50
243.8781825571
 51
315.8781825571
  0
LINE
  5
1B8
330
81
100
AcDbEntity
  8
0
  6
Continuous
 62
     7
100
AcDbLine
 10
15.8652189116
 20
287.6075738258
 30
0.0
 11
16.2514913025
 21
287.8780446657
 31
0.0
  0
ARC
  5
1B9
330
81
100
AcDbEntity
  8
0
  6
Continuous
 62
     7
100
AcDbCircle
 10
16.1289942888
 20
288.1516106491
 30
0.0
 40
0.2997396630320027
100
AcDbArc
 50
294.1218174429
 51
6.1218174429
  0
ARC
  5
1BA
330
81
100
AcDbEntity
  8
0
  6
Continuous
 62
     7
100
AcDbCircle
 10
19.1197456523
 20
289.5682667268
 30
0.0
 40
3.027889628740801
100
AcDbArc
 50
193.6931852119
 51
207.2138077289
  0
LINE
  5
1BB
330
81
100
AcDbEntity
  8
0
  6
Continuous
 62
     7
100
AcDbLine
 10
16.1779168742
 20
288.8514968581
 30
0.0
 11
16.0849175752
 21
289.2392152179
 31
0.0
  0
ARC
  5
1BC
330
81
100
AcDbEntity
  8
0
  6
Continuous
 62
     7
100
AcDbCircle
 10
23.3291450925
 20
290.7031548488
 30
0.0
 40
7.390666516962843
100
AcDbArc
 50
184.2890967699
 51
191.4246766515
  0
LINE
  5
1BD
330
81
100
AcDbEntity
  8
0
  6
Continuous
 62
     7
100
AcDbLine
 10
15.9591769965
 20
290.1504145577
 30
0.0
 11
16.5652362044
 21
290.5003230045
 31
0.0
  0
ARC
  5
1BE
330
81
100
AcDbEntity
  8
0
  6
Continuous
 62
     7
100
AcDbCircle
 10
12.4015650226
 20
284.3941135539
 30
0.0
 40
7.390666516959909
100
AcDbArc
 50
48.5753233485
 51
55.7109032301
  0
LINE
  5
1BF
330
81
100
AcDbEntity
  8
0
  6
Continuous
 62
     7
100
AcDbLine
 10
17.2914876912
 20
289.9358287992
 30
0.0
 11
17.5807619908
 21
289.6614298637
 31
0.0
  0
ARC
  5
1C0
330
81
100
AcDbEntity
  8
0
  6
Continuous
 62
     7
100
AcDbCircle
 10
15.4891066868
 20
287.4721163427
 30
0.0
 40
3.027889628734866
100
AcDbArc
 50
32.7861922711
 51
46.3068147881
  0
ARC
  5
1C1
330
81
100
AcDbEntity
  8
0
  6
Continuous
 62
     7
100
AcDbCircle
 10
18.2113425203
 20
289.353854961
 30
0.0
 40
0.2997396630319915
100
AcDbArc
 50
233.8781825571
 51
305.8781825571
  0
LINE
  5
1C2
330
81
100
AcDbEntity
  8
0
  6
Continuous
 62
     7
100
AcDbLine
 10
18.3870091046
 20
289.1109864437
 30
0.0
 11
18.8143799184
 21
289.310272727
 31
0.0
  0
ARC
  5
1C3
330
81
100
AcDbEntity
  8
0
  6
Continuous
 62
     7
100
AcDbCircle
 10
18.7412481442
 20
289.6009540116
 30
0.0
 40
0.2997396630319984
100
AcDbArc
 50
284.1218174429
 51
356.1218174429
  0
ARC
  5
1C4
330
81
100
AcDbEntity
  8
0
  6
Continuous
 62
     7
100
AcDbCircle
 10
21.9325630205
 20
290.4767493761
 30
0.0
 40
3.027889628740821
100
AcDbArc
 50
183.6931852119
 51
197.2138077289
  0
LINE
  5
1C5
330
81
100
AcDbEntity
  8
0
  6
Continuous
 62
     7
100
AcDbLine
 10
18.9109614504
 20
290.2817120586
 30
0.0
 11
18.8867016063
 21
290.6796892642
 31
0.0
  0
ARC
  5
1C6
330
81
100
AcDbEntity
  8
0
  6
Continuous
 62
     7
100
AcDbCircle
 10
26.275083479
 20
290.8634414556
 30
0.0
 40
7.390666516963295
100
AcDbArc
 50
174.2890967699
 51
181.4246766515
  0
LINE
  5
1C7
330
81
100
AcDbEntity
  8
0
  6
Continuous
 62
     7
100
AcDbLine
 10
18.9210994143
 20
291.5988800609
 30
0.0
 11
19.5787121852
 21
291.8382315351
 31
0.0
  0
ARC
  5
1C8
330
81
100
AcDbEntity
  8
0
  6
Continuous
 62
     7
100
AcDbCircle
 10
14.4179643808
 20
286.5478030397
 30
0.0
 40
7.39066651695851
100
AcDbArc
 50
38.5753233485
 51
45.7109032301
  0
LINE
  5
1C9
330
81
100
AcDbEntity
  8
0
  6
Continuous
 62
     7
100
AcDbLine
 10
20.19590689
 20
291.156201018
 30
0.0
 11
20.4331375879
 21
290.835738864
 31
0.0
  0
ARC
  5
1CA
330
81
100
AcDbEntity
  8
0
  6
Continuous
 62
     7
100
AcDbCircle
 10
17.9930889247
 20
289.0428980666
 30
0.0
 40
3.027889628728972
100
AcDbArc
 50
22.786192271
 51
36.3068147881
  0
ARC
  5
1CB
330
81
100
AcDbEntity
  8
0
  6
Continuous
 62
     7
100
AcDbCircle
 10
21.0007283609
 20
290.4233375553
 30
0.0
 40
0.2997396630319925
100
AcDbArc
 50
223.878182557
 51
295.8781825571
  0
LINE
  5
1CC
330
81
100
AcDbEntity
  8
0
  6
Continuous
 62
     7
100
AcDbLine
 10
21.1315524996
 20
290.1536545742
 30
0.0
 11
21.5870362904
 21
290.2757010881
 31
0.0
  0
ARC
  5
1CD
330
81
100
AcDbEntity
  8
0
  6
Continuous
 62
     7
100
AcDbCircle
 10
21.5654918275
 20
290.5746654701
 30
0.0
 40
0.2997396630319948
100
AcDbArc
 50
274.1218174429
 51
346.1218174429
  0
ARC
  5
1CE
330
81
100
AcDbEntity
  8
0
  6
Continuous
 62
     7
100
AcDbCircle
 10
24.860403729
 20
290.8829895226
 30
0.0
 40
3.027889628744985
100
AcDbArc
 50
173.6931852119
 51
187.2138077289
  0
LINE
  5
1CF
330
81
100
AcDbEntity
  8
0
  6
Continuous
 62
     7
100
AcDbLine
 10
21.8508392015
 20
291.2156108665
 30
0.0
 11
21.8960559354
 21
291.6117545818
 31
0.0
  0
ARC
  5
1D0
330
81
100
AcDbEntity
  8
0
  6
Continuous
 62
     7
100
AcDbCircle
 10
29.2040999191
 20
290.5097361164
 30
0.0
 40
7.390666516963464
100
AcDbArc
 50
164.2890967699
 51
171.4246766515
  0
LINE
  5
1D1
330
81
100
AcDbEntity
  8
0
  6
Continuous
 62
     7
100
AcDbLine
 10
22.0895469703
 20
292.5110076881
 30
0.0
 11
22.7787320728
 21
292.6325296164
 31
0.0
  0
ARC
  5
1D2
330
81
100
AcDbEntity
  8
0
  6
Continuous
 62
     7
100
AcDbCircle
 10
16.7777143565
 20
288.318629069
 30
0.0
 40
7.3906665169595
100
AcDbArc
 50
28.5753233485
 51
35.7109032301
  0
LINE
  5
1D3
330
81
100
AcDbEntity
  8
0
  6
Continuous
 62
     7
100
AcDbLine
 10
23.2681168468
 20
291.8536859396
 30
0.0
 11
23.4460958083
 21
291.4968976474
 31
0.0
  0
ARC
  5
1D4
330
81
100
AcDbEntity
  8
0
  6
Continuous
 62
     7
100
AcDbCircle
 10
20.7317934297
 20
290.155004134
 30
0.0
 40
3.027889628728187
100
AcDbArc
 50
12.786192271
 51
26.3068147881
  0
ARC
  5
1D5
330
81
100
AcDbEntity
  8
0
  6
Continuous
 62
     7
100
AcDbCircle
 10
23.9334508664
 20
290.9922005379
 30
0.0
 40
0.299739663031994
100
AcDbArc
 50
213.8781825571
 51
285.878182557
  0
LINE
  5
1D6
330
81
100
AcDbEntity
  8
0
  6
Continuous
 62
     7
100
AcDbLine
 10
24.0154575343
 20
290.7038972739
 30
0.0
 11
24.4852146576
 21
290.7449956968
 31
0.0
  0
ARC
  5
1D7
330
81
100
AcDbEntity
  8
0
  6
Continuous
 62
     7
100
AcDbCircle
 10
24.5159121235
 20
291.0431592948
 30
0.0
 40
0.2997396630320088
100
AcDbArc
 50
264.1218174429
 51
336.1218174429
  0
ARC
  5
1D8
330
81
100
AcDbEntity
  8
0
  6
Continuous
 62
     7
100
AcDbCircle
 10
27.8143068195
 20
290.7746437648
 30
0.0
 40
3.02788962873779
100
AcDbArc
 50
163.6931852119
 51
177.2138077289
  0
LINE
  5
1D9
330
81
100
AcDbEntity
  8
0
  6
Continuous
 62
     7
100
AcDbLine
 10
24.9082234298
 20
291.6248172389
 30
0.0
 11
25.0215428542
 21
292.0070908376
 31
0.0
  0
ARC
  5
1DA
330
81
100
AcDbEntity
  8
0
  6
Continuous
 62
     7
100
AcDbCircle
 10
32.0271977304
 20
289.6527859889
 30
0.0
 40
7.390666516962896
100
AcDbArc
 50
154.2890967699
 51
161.4246766515
  0
LINE
  5
1DB
330
81
100
AcDbEntity
  8
0
  6
Continuous
 62
     7
100
AcDbLine
 10
25.3682479887
 20
292.8590829031
 30
0.0
 11
26.0680648823
 21
292.8590829031
 31
0.0
  0
ARC
  5
1DC
330
81
100
AcDbEntity
  8
0
  6
Continuous
 62
     7
100
AcDbCircle
 10
19.4091151406
 20
289.6527859889
 30
0.0
 40
7.390666516961091
100
AcDbArc
 50
18.5753233485
 51
25.7109032301
  0
LINE
  5
1DD
330
81
100
AcDbEntity
  8
0
  6
Continuous
 62
     7
100
AcDbLine
 10
26.4147700168
 20
292.0070908376
 30
0.0
 11
26.5280894412
 21
291.6248172389
 31
0.0
  0
ARC
  5
1DE
330
81
100
AcDbEntity
  8
0
  6
Continuous
 62
     7
100
AcDbCircle
 10
23.6220060515
 20
290.7746437648
 30
0.0
 40
3.027889628730958
100
AcDbArc
 50
2.786192271
 51
16.3068147881
  0
ARC
  5
1DF
330
81
100
AcDbEntity
  8
0
  6
Continuous
 62
     7
100
AcDbCircle
 10
26.9204007475
 20
291.0431592948
 30
0.0
 40
0.2997396630320026
100
AcDbArc
 50
203.8781825571
 51
275.8781825571
  0
LINE
  5
1E0
330
81
100
AcDbEntity
  8
0
  6
Continuous
 62
     7
100
AcDbLine
 10
26.9510982134
 20
290.7449956968
 30
0.0
 11
27.4208553367
 21
290.7038972739
 31
0.0
  0
ARC
  5
1E1
330
81
100
AcDbEntity
  8
0
  6
Continuous
 62
     7
100
AcDbCircle
 10
27.5028620046
 20
290.9922005379
 30
0.0
 40
0.2997396630320077
100
AcDbArc
 50
254.1218174429
 51
326.121817443
  0
ARC
  5
1E2
330
81
100
AcDbEntity
  8
0
  6
Continuous
 62
     7
100
AcDbCircle
 10
30.7045194413
 20
290.155004134
 30
0.0
 40
3.027889628737081
100
AcDbArc
 50
153.6931852119
 51
167.2138077289
  0
LINE
  5
1E3
330
81
100
AcDbEntity
  8
0
  6
Continuous
 62
     7
100
AcDbLine
 10
27.9902170627
 20
291.4968976474
 30
0.0
 11
28.1681960242
 21
291.8536859396
 31
0.0
  0
ARC
  5
1E4
330
81
100
AcDbEntity
  8
0
  6
Continuous
 62
     7
100
AcDbCircle
 10
34.6585985145
 20
288.318629069
 30
0.0
 40
7.390666516963364
100
AcDbArc
 50
144.2890967699
 51
151.4246766515
  0
LINE
  5
1E5
330
81
100
AcDbEntity
  8
0
  6
Continuous
 62
     7
100
AcDbLine
 10
28.6575807982
 20
292.6325296164
 30
0.0
 11
29.3467659007
 21
292.5110076881
 31
0.0
  0
ARC
  5
1E6
330
81
100
AcDbEntity
  8
0
  6
Continuous
 62
     7
100
AcDbCircle
 10
22.2322129519
 20
290.5097361164
 30
0.0
 40
7.39066651695825
100
AcDbArc
 50
8.5753233485
 51
15.7109032301
  0
LINE
  5
1E7
330
81
100
AcDbEntity
  8
0
  6
Continuous
 62
     7
100
AcDbLine
 10
29.5402569356
 20
291.6117545818
 30
0.0
 11
29.5854736695
 21
291.2156108665
 31
0.0
  0
ARC
  5
1E8
330
81
100
AcDbEntity
  8
0
  6
Continuous
 62
     7
100
AcDbCircle
 10
26.575909142
 20
290.8829895226
 30
0.0
 40
3.02788962873297
100
AcDbArc
 50
352.786192271
 51
6.3068147881
  0
ARC
  5
1E9
330
81
100
AcDbEntity
  8
0
  6
Continuous
 62
     7
100
AcDbCircle
 10
29.8708210435
 20
290.5746654701
 30
0.0
 40
0.2997396630319895
100
AcDbArc
 50
193.8781825571
 51
265.8781825571
  0
LINE
  5
1EA
330
81
100
AcDbEntity
  8
0
  6
Continuous
 62
     7
100
AcDbLine
 10
29.8492765806
 20
290.2757010881
 30
0.0
 11
30.3047603714
 21
290.1536545742
 31
0.0
  0
ENDBLK
  5
1EC
330
81
100
AcDbEntity
  8
0
100
AcDbBlockEnd
  0
ENDSEC
  0
SECTION
  2
ENTITIES
  0
CIRCLE
  5
3B
330
1F
100
AcDbEntity
  8
0
  6
Continuous
 62
     7
100
AcDbCircle
 10
39.2181564355
 20
273.9471832329
 30
0.0
 40
1.5
  0
ARC
  5
3D
330
1F
100
AcDbEntity
  8
Default
  6
Continuous
 62
     7
100
AcDbCircle
 10
30.3431564355
 20
276.4471832329
 30
0.0
 40
0.75
100
AcDbArc
 50
90.0
 51
180.0
  0
LINE
  5
3E
330
1F
100
AcDbEntity
  8
Default
  6
Continuous
 62
     7
100
AcDbLine
 10
32.0931564355
 20
277.1971832329
 30
0.0
 11
30.3431564355
 21
277.1971832329
 31
0.0
  0
ARC
  5
3F
330
1F
100
AcDbEntity
  8
Default
  6
Continuous
 62
     7
100
AcDbCircle
 10
32.0931564355
 20
276.4471832329
 30
0.0
 40
0.75
100
AcDbArc
 50
0.0
 51
90.0
  0
LINE
  5
40
330
1F
100
AcDbEntity
  8
Default
  6
Continuous
 62
     7
100
AcDbLine
 10
32.8431564355
 20
271.4471832329
 30
0.0
 11
32.8431564355
 21
276.4471832329
 31
0.0
  0
ARC
  5
41
330
1F
100
AcDbEntity
  8
Default
  6
Continuous
 62
     7
100
AcDbCircle
 10
32.0931564355
 20
271.4471832329
 30
0.0
 40
0.75
100
AcDbArc
 50
270.0
 51
0.0
  0
LINE
  5
42
330
1F
100
AcDbEntity
  8
Default
  6
Continuous
 62
     7
100
AcDbLine
 10
30.3431564355
 20
270.6971832329
 30
0.0
 11
32.0931564355
 21
270.6971832329
 31
0.0
  0
ARC
  5
43
330
1F
100
AcDbEntity
  8
Default
  6
Continuous
 62
     7
100
AcDbCircle
 10
30.3431564355
 20
271.4471832329
 30
0.0
 40
0.75
100
AcDbArc
 50
180.0
 51
270.0
  0
LINE
  5
44
330
1F
100
AcDbEntity
  8
Default
  6
Continuous
 62
     7
100
AcDbLine
 10
29.5931564355
 20
276.4471832329
 30
0.0
 11
29.5931564355
 21
271.4471832329
 31
0.0
  0
ARC
  5
45
330
1F
100
AcDbEntity
  8
Default
  6
Continuous
 62
     7
100
AcDbCircle
 10
21.0931564355
 20
276.4471832329
 30
0.0
 40
0.75
100
AcDbArc
 50
0.0
 51
90.0
  0
LINE
  5
46
330
1F
100
AcDbEntity
  8
Default
  6
Continuous
 62
     7
100
AcDbLine
 10
19.3431564355
 20
277.1971832329
 30
0.0
 11
21.0931564355
 21
277.1971832329
 31
0.0
  0
ARC
  5
47
330
1F
100
AcDbEntity
  8
Default
  6
Continuous
 62
     7
100
AcDbCircle
 10
19.3431564355
 20
276.4471832329
 30
0.0
 40
0.75
100
AcDbArc
 50
90.0
 51
180.0
  0
LINE
  5
48
330
1F
100
AcDbEntity
  8
Default
  6
Continuous
 62
     7
100
AcDbLine
 10
18.5931564355
 20
271.4471832329
 30
0.0
 11
18.5931564355
 21
276.4471832329
 31
0.0
  0
ARC
  5
49
330
1F
100
AcDbEntity
  8
Default
  6
Continuous
 62
     7
100
AcDbCircle
 10
19.3431564355
 20
271.4471832329
 30
0.0
 40
0.7500000000002274
100
AcDbArc
 50
180.0
 51
270.0
  0
LINE
  5
4A
330
1F
100
AcDbEntity
  8
Default
  6
Continuous
 62
     7
100
AcDbLine
 10
21.0931564355
 20
270.6971832329
 30
0.0
 11
19.3431564355
 21
270.6971832329
 31
0.0
  0
ARC
  5
4B
330
1F
100
AcDbEntity
  8
Default
  6
Continuous
 62
     7
100
AcDbCircle
 10
21.0931564355
 20
271.4471832329
 30
0.0
 40
0.75
100
AcDbArc
 50
270.0
 51
0.0
  0
LINE
  5
4C
330
1F
100
AcDbEntity
  8
Default
  6
Continuous
 62
     7
100
AcDbLine
 10
21.8431564355
 20
276.4471832329
 30
0.0
 11
21.8431564355
 21
271.4471832329
 31
0.0
  0
CIRCLE
  5
4D
330
1F
100
AcDbEntity
  8
0
  6
Continuous
 62
     7
100
AcDbCircle
 10
25.7181564355
 20
273.9471832329
 30
0.0
 40
1.5
  0
CIRCLE
  5
4E
330
1F
100
AcDbEntity
  8
0
  6
Continuous
 62
     7
100
AcDbCircle
 10
12.2181564355
 20
273.9471832329
 30
0.0
 40
1.5
  0
CIRCLE
  5
4F
330
1F
100
AcDbEntity
  8
0
  6
Continuous
 62
     7
100
AcDbCircle
 10
25.7181564355
 20
260.4471832329
 30
0.0
 40
1.5
  0
CIRCLE
  5
50
330
1F
100
AcDbEntity
  8
0
  6
Continuous
 62
     7
100
AcDbCircle
 10
25.7181564355
 20
287.4471832329
 30
0.0
 40
1.5
  0
INSERT
  5
52
330
1F
100
AcDbEntity
  8
Default
100
AcDbBlockReference
  2
SE
 10
0.0
 20
0.0
 30
0.0
  0
INSERT
  5
5A
330
1F
100
AcDbEntity
  8
Default
100
AcDbBlockReference
  2
SE1
 10
0.0
 20
0.0
 30
0.0
  0
INSERT
  5
62
330
1F
100
AcDbEntity
  8
Default
100
AcDbBlockReference
  2
SE2
 10
0.0
 20
0.0
 30
0.0
  0
INSERT
  5
6A
330
1F
100
AcDbEntity
  8
Default
100
AcDbBlockReference
  2
SE3
 10
0.0
 20
0.0
 30
0.0
  0
INSERT
  5
72
330
1F
100
AcDbEntity
  8
Default
100
AcDbBlockReference
  2
SE4
 10
0.0
 20
0.0
 30
0.0
  0
INSERT
  5
7A
330
1F
100
AcDbEntity
  8
Default
100
AcDbBlockReference
  2
SE5
 10
0.0
 20
0.0
 30
0.0
  0
INSERT
  5
82
330
1F
100
AcDbEntity
  8
Default
100
AcDbBlockReference
  2
SE6
 10
0.0
 20
0.0
 30
0.0
  0
ENDSEC
  0
SECTION
  2
OBJECTS
  0
DICTIONARY
  5
C
330
0
100
AcDbDictionary
281
     1
  3
ACAD_GROUP
350
D
  3
ACAD_LAYOUT
350
1A
  3
ACAD_MLEADERSTYLE
350
1EF
  3
ACAD_MLINESTYLE
350
17
  3
ACAD_PLOTSETTINGS
350
19
  3
ACAD_PLOTSTYLENAME
350
E
  3
ACAD_VISUALSTYLE
350
2A
  3
AcDbVariableDictionary
350
1ED
  0
DICTIONARY
  5
D
102
{ACAD_REACTORS
330
C
102
}
330
C
100
AcDbDictionary
281
     1
  0
DICTIONARY
  5
1A
102
{ACAD_REACTORS
330
C
102
}
330
C
100
AcDbDictionary
281
     1
  3
Layout1
350
1E
  3
Model
350
22
  0
DICTIONARY
  5
1EF
102
{ACAD_REACTORS
330
C
102
}
330
C
100
AcDbDictionary
281
     1
  0
DICTIONARY
  5
17
102
{ACAD_REACTORS
330
C
102
}
330
C
100
AcDbDictionary
281
     1
  3
Standard
350
18
  0
DICTIONARY
  5
19
102
{ACAD_REACTORS
330
C
102
}
330
C
100
AcDbDictionary
281
     1
  0
ACDBDICTIONARYWDFLT
  5
E
102
{ACAD_REACTORS
330
C
102
}
330
C
100
AcDbDictionary
281
     1
  3
Normal
350
F
100
AcDbDictionaryWithDefault
340
F
  0
DICTIONARY
  5
2A
102
{ACAD_REACTORS
330
C
102
}
330
C
100
AcDbDictionary
281
     1
  3
2dWireframe
350
2F
  3
3D Hidden
350
31
  3
3dWireframe
350
30
  3
Basic
350
32
  3
Brighten
350
36
  3
ColorChange
350
3A
  3
Conceptual
350
34
  3
Dim
350
35
  3
Facepattern
350
39
  3
Flat
350
2B
  3
FlatWithEdges
350
2C
  3
Gouraud
350
2D
  3
GouraudWithEdges
350
2E
  3
Linepattern
350
38
  3
Realistic
350
33
  3
Thicken
350
37
  0
DICTIONARY
  5
1ED
102
{ACAD_REACTORS
330
C
102
}
330
C
100
AcDbDictionary
281
     1
  3
PSOLHEIGHT
350
1F1
  3
PSOLWIDTH
350
1F0
  0
LAYOUT
  5
1E
102
{ACAD_REACTORS
330
1A
102
}
330
1A
100
AcDbPlotSettings
  1

  2
none_device
  4

  6

 40
0.0
 41
0.0
 42
0.0
 43
0.0
 44
0.0
 45
0.0
 46
0.0
 47
0.0
 48
0.0
 49
0.0
140
0.0
141
0.0
142
1.0
143
1.0
 70
   688
 72
     0
 73
     0
 74
     5
  7

 75
    16
147
1.0
148
0.0
149
0.0
100
AcDbLayout
  1
Layout1
 70
     1
 71
     1
 10
0.0
 20
0.0
 11
450.0
 21
300.0
 12
0.0
 22
0.0
 32
0.0
 14
0.0
 24
0.0
 34
0.0
 15
450.0
 25
300.0
 35
0.0
146
0.0
 13
0.0
 23
0.0
 33
0.0
 16
1.0
 26
0.0
 36
0.0
 17
0.0
 27
1.0
 37
0.0
 76
     0
330
1B
  0
LAYOUT
  5
22
102
{ACAD_REACTORS
330
1A
102
}
330
1A
100
AcDbPlotSettings
  1

  2
none_device
  4

  6

 40
0.0
 41
0.0
 42
0.0
 43
0.0
 44
0.0
 45
0.0
 46
0.0
 47
0.0
 48
0.0
 49
0.0
140
0.0
141
0.0
142
1.0
143
1.0
 70
  1712
 72
     0
 73
     0
 74
     0
  7

 75
     0
147
1.0
148
0.0
149
0.0
100
AcDbLayout
  1
Model
 70
     1
 71
     0
 10
0.0
 20
0.0
 11
450.0
 21
300.0
 12
0.0
 22
0.0
 32
0.0
 14
0.0
 24
0.0
 34
0.0
 15
450.0
 25
300.0
 35
0.0
146
0.0
 13
0.0
 23
0.0
 33
0.0
 16
1.0
 26
0.0
 36
0.0
 17
0.0
 27
1.0
 37
0.0
 76
     0
330
1F
331
29
  0
MLINESTYLE
  5
18
102
{ACAD_REACTORS
330
17
102
}
330
17
100
AcDbMlineStyle
  2
Standard
 70
     0
  3

 62
   256
 51
90.0
 52
90.0
 71
     2
 49
0.5
 62
   256
  6
BYLAYER
 49
-0.5
 62
   256
  6
BYLAYER
  0
ACDBPLACEHOLDER
  5
F
102
{ACAD_REACTORS
330
E
102
}
330
E
  0
VISUALSTYLE
  5
2F
102
{ACAD_REACTORS
330
2A
102
}
330
2A
100
AcDbVisualStyle
  2
2dWireframe
 70
     4
 71
     0
 72
     2
 73
     0
 90
        0
 40
-0.6
 41
-30.0
 62
     5
 63
     7
 74
     1
 91
        4
 64
     7
 65
   257
 75
     1
175
     1
 42
1.0
 92
        0
 66
   257
 43
1.0
 76
     1
 77
     6
 78
     2
 67
     7
 79
     5
170
     0
171
     0
290
     0
174
     0
 93
        1
 44
0.0
173
     0
291
     0
 45
0.0
1001
ACAD
1000
AcDbSavedByObjectVersion
1070
     0
  0
VISUALSTYLE
  5
31
102
{ACAD_REACTORS
330
2A
102
}
330
2A
100
AcDbVisualStyle
  2
3D Hidden
 70
     6
 71
     1
 72
     2
 73
     2
 90
        0
 40
-0.6
 41
-30.0
 62
     5
 63
     7
 74
     2
 91
        2
 64
     7
 65
   257
 75
     2
175
     1
 42
40.0
 92
        0
 66
   257
 43
1.0
 76
     1
 77
     6
 78
     2
 67
     7
 79
     3
170
     0
171
     0
290
     0
174
     0
 93
        1
 44
0.0
173
     0
291
     0
 45
0.0
1001
ACAD
1000
AcDbSavedByObjectVersion
1070
     0
  0
VISUALSTYLE
  5
30
102
{ACAD_REACTORS
330
2A
102
}
330
2A
100
AcDbVisualStyle
  2
3dWireframe
 70
     5
 71
     0
 72
     2
 73
     0
 90
        0
 40
-0.6
 41
-30.0
 62
     5
 63
     7
 74
     1
 91
        4
 64
     7
 65
   257
 75
     1
175
     1
 42
1.0
 92
        0
 66
   257
 43
1.0
 76
     1
 77
     6
 78
     2
 67
     7
 79
     5
170
     0
171
     0
290
     0
174
     0
 93
        1
 44
0.0
173
     0
291
     0
 45
0.0
1001
ACAD
1000
AcDbSavedByObjectVersion
1070
     0
  0
VISUALSTYLE
  5
32
102
{ACAD_REACTORS
330
2A
102
}
330
2A
100
AcDbVisualStyle
  2
Basic
 70
     7
 71
     1
 72
     0
 73
     1
 90
        0
 40
-0.6
 41
-30.0
 62
     5
 63
     7
 74
     0
 91
        4
 64
     7
 65
   257
 75
     1
175
     1
 42
1.0
 92
        8
 66
     7
 43
1.0
 76
     1
 77
     6
 78
     2
 67
     7
 79
     5
170
     0
171
     0
290
     0
174
     0
 93
        1
 44
0.0
173
     0
291
     1
 45
0.0
1001
ACAD
1000
AcDbSavedByObjectVersion
1070
     0
  0
VISUALSTYLE
  5
36
102
{ACAD_REACTORS
330
2A
102
}
330
2A
100
AcDbVisualStyle
  2
Brighten
 70
    12
 71
     2
 72
     2
 73
     0
 90
        0
 40
-0.6
 41
-30.0
 62
     5
 63
     7
 74
     1
 91
        4
 64
     7
 65
   257
 75
     1
175
     1
 42
1.0
 92
        8
 66
     7
 43
1.0
 76
     1
 77
     6
 78
     2
 67
     7
 79
     5
170
     0
171
     0
290
     0
174
     0
 93
        1
 44
50.0
173
     0
291
     1
 45
0.0
1001
ACAD
1000
AcDbSavedByObjectVersion
1070
     0
  0
VISUALSTYLE
  5
3A
102
{ACAD_REACTORS
330
2A
102
}
330
2A
100
AcDbVisualStyle
  2
ColorChange
 70
    16
 71
     2
 72
     2
 73
     3
 90
        0
 40
-0.6
 41
-30.0
 62
     5
 63
     8
 74
     1
 91
        4
 64
     7
 65
   257
 75
     1
175
     1
 42
1.0
 92
        8
 66
     8
 43
1.0
 76
     1
 77
     6
 78
     2
 67
     7
 79
     5
170
     0
171
     0
290
     0
174
     0
 93
        1
 44
0.0
173
     0
291
     1
 45
0.0
1001
ACAD
1000
AcDbSavedByObjectVersion
1070
     0
  0
VISUALSTYLE
  5
34
102
{ACAD_REACTORS
330
2A
102
}
330
2A
100
AcDbVisualStyle
  2
Conceptual
 70
     9
 71
     3
 72
     2
 73
     0
 90
        0
 40
-0.6
 41
-30.0
 62
     5
 63
     7
 74
     2
 91
        2
 64
     7
 65
   257
 75
     1
175
     1
 42
40.0
 92
        8
 66
     7
 43
1.0
 76
     1
 77
     6
 78
     2
 67
     7
 79
     3
170
     0
171
     0
290
     0
174
     0
 93
        1
 44
0.0
173
     0
291
     0
 45
0.0
1001
ACAD
1000
AcDbSavedByObjectVersion
1070
     0
  0
VISUALSTYLE
  5
35
102
{ACAD_REACTORS
330
2A
102
}
330
2A
100
AcDbVisualStyle
  2
Dim
 70
    11
 71
     2
 72
     2
 73
     0
 90
        0
 40
-0.6
 41
-30.0
 62
     5
 63
     7
 74
     1
 91
        4
 64
     7
 65
   257
 75
     1
175
     1
 42
1.0
 92
        8
 66
     7
 43
1.0
 76
     1
 77
     6
 78
     2
 67
     7
 79
     5
170
     0
171
     0
290
     0
174
     0
 93
        1
 44
-50.0
173
     0
291
     1
 45
0.0
1001
ACAD
1000
AcDbSavedByObjectVersion
1070
     0
  0
VISUALSTYLE
  5
39
102
{ACAD_REACTORS
330
2A
102
}
330
2A
100
AcDbVisualStyle
  2
Facepattern
 70
    15
 71
     2
 72
     2
 73
     0
 90
        0
 40
-0.6
 41
-30.0
 62
     5
 63
     7
 74
     1
 91
        4
 64
     7
 65
   257
 75
     1
175
     1
 42
1.0
 92
        8
 66
     7
 43
1.0
 76
     1
 77
     6
 78
     2
 67
     7
 79
     5
170
     0
171
     0
290
     0
174
     0
 93
        1
 44
0.0
173
     0
291
     1
 45
0.0
1001
ACAD
1000
AcDbSavedByObjectVersion
1070
     0
  0
VISUALSTYLE
  5
2B
102
{ACAD_REACTORS
330
2A
102
}
330
2A
100
AcDbVisualStyle
  2
Flat
 70
     0
 71
     2
 72
     1
 73
     1
 90
        2
 40
-0.6
 41
30.0
 62
     5
 63
     7
 74
     0
 91
        4
 64
     7
 65
   257
 75
     1
175
     1
 42
1.0
 92
        8
 66
     7
 43
1.0
 76
     1
 77
     6
 78
     2
 67
     7
 79
     5
170
     0
171
     0
290
     0
174
     0
 93
       13
 44
0.0
173
     0
291
     1
 45
0.0
1001
ACAD
1000
AcDbSavedByObjectVersion
1070
     0
  0
VISUALSTYLE
  5
2C
102
{ACAD_REACTORS
330
2A
102
}
330
2A
100
AcDbVisualStyle
  2
FlatWithEdges
 70
     1
 71
     2
 72
     1
 73
     1
 90
        2
 40
-0.6
 41
30.0
 62
     5
 63
     7
 74
     1
 91
        4
 64
     7
 65
   257
 75
     1
175
     1
 42
1.0
 92
        0
 66
   257
 43
1.0
 76
     1
 77
     6
 78
     2
 67
     7
 79
     5
170
     0
171
     0
290
     0
174
     0
 93
       13
 44
0.0
173
     0
291
     1
 45
0.0
1001
ACAD
1000
AcDbSavedByObjectVersion
1070
     0
  0
VISUALSTYLE
  5
2D
102
{ACAD_REACTORS
330
2A
102
}
330
2A
100
AcDbVisualStyle
  2
Gouraud
 70
     2
 71
     2
 72
     2
 73
     1
 90
        2
 40
-0.6
 41
30.0
 62
     5
 63
     7
 74
     0
 91
        4
 64
     7
 65
   257
 75
     1
175
     1
 42
1.0
 92
        0
 66
     7
 43
1.0
 76
     1
 77
     6
 78
     2
 67
     7
 79
     5
170
     0
171
     0
290
     0
174
     0
 93
       13
 44
0.0
173
     0
291
     1
 45
0.0
1001
ACAD
1000
AcDbSavedByObjectVersion
1070
     0
  0
VISUALSTYLE
  5
2E
102
{ACAD_REACTORS
330
2A
102
}
330
2A
100
AcDbVisualStyle
  2
GouraudWithEdges
 70
     3
 71
     2
 72
     2
 73
     1
 90
        2
 40
-0.6
 41
30.0
 62
     5
 63
     7
 74
     1
 91
        4
 64
     7
 65
   257
 75
     1
175
     1
 42
1.0
 92
        0
 66
   257
 43
1.0
 76
     1
 77
     6
 78
     2
 67
     7
 79
     5
170
     0
171
     0
290
     0
174
     0
 93
       13
 44
0.0
173
     0
291
     1
 45
0.0
1001
ACAD
1000
AcDbSavedByObjectVersion
1070
     0
  0
VISUALSTYLE
  5
38
102
{ACAD_REACTORS
330
2A
102
}
330
2A
100
AcDbVisualStyle
  2
Linepattern
 70
    14
 71
     2
 72
     2
 73
     0
 90
        0
 40
-0.6
 41
-30.0
 62
     5
 63
     7
 74
     1
 91
        4
 64
     7
 65
   257
 75
     7
175
     7
 42
1.0
 92
        8
 66
     7
 43
1.0
 76
     1
 77
     6
 78
     2
 67
     7
 79
     5
170
     0
171
     0
290
     0
174
     0
 93
        1
 44
0.0
173
     0
291
     1
 45
0.0
1001
ACAD
1000
AcDbSavedByObjectVersion
1070
     0
  0
VISUALSTYLE
  5
33
102
{ACAD_REACTORS
330
2A
102
}
330
2A
100
AcDbVisualStyle
  2
Realistic
 70
     8
 71
     2
 72
     2
 73
     0
 90
        0
 40
-0.6
 41
-30.0
 62
     5
 63
     7
 74
     1
 91
        0
 64
     7
 65
   257
 75
     1
175
     1
 42
1.0
 92
        8
 66
     8
 43
1.0
 76
     1
 77
     6
 78
     2
 67
     7
 79
     5
170
     0
171
     0
290
     0
174
     0
 93
       13
 44
0.0
173
     0
291
     0
 45
0.0
1001
ACAD
1000
AcDbSavedByObjectVersion
1070
     0
  0
VISUALSTYLE
  5
37
102
{ACAD_REACTORS
330
2A
102
}
330
2A
100
AcDbVisualStyle
  2
Thicken
 70
    13
 71
     2
 72
     2
 73
     0
 90
        0
 40
-0.6
 41
-30.0
 62
     5
 63
     7
 74
     1
 91
        4
 64
     7
 65
   257
 75
     1
175
     1
 42
1.0
 92
       12
 66
     7
 43
1.0
 76
     1
 77
     6
 78
     2
 67
     7
 79
     5
170
     0
171
     0
290
     0
174
     0
 93
        1
 44
0.0
173
     0
291
     1
 45
0.0
1001
ACAD
1000
AcDbSavedByObjectVersion
1070
     0
  0
DICTIONARYVAR
  5
1F1
102
{ACAD_REACTORS
330
1ED
102
}
330
1ED
100
DictionaryVariables
280
     0
  1
80.000000
  0
DICTIONARYVAR
  5
1F0
102
{ACAD_REACTORS
330
1ED
102
}
330
1ED
100
DictionaryVariables
280
     0
  1
5.000000
  0
ENDSEC
  0
EOF
