  0
SECTION
  2
HEADER
  9
$ACADVER
  1
AC1015
  9
$ACADMAINTVER
 70
     6
  9
$DWGCODEPAGE
  3
ANSI_1252
  9
$INSBASE
 10
0.0
 20
0.0
 30
0.0
  9
$EXTMIN
 10
0.0
 20
0.0
 30
0.0
  9
$EXTMAX
 10
450.0
 20
300.0
 30
0.0
  9
$LIMMIN
 10
0.0
 20
0.0
  9
$LIMMAX
 10
450.0
 20
300.0
  9
$ORTHOMODE
 70
     0
  9
$REGENMODE
 70
     1
  9
$FILLMODE
 70
     1
  9
$QTEXTMODE
 70
     0
  9
$MIRRTEXT
 70
     1
  9
$LTSCALE
 40
1.0
  9
$ATTMODE
 70
     1
  9
$TEXTSIZE
 40
2.5
  9
$TRACEWID
 40
1.0
  9
$TEXTSTYLE
  7
Standard
  9
$CLAYER
  8
0
  9
$CELTYPE
  6
ByLayer
  9
$CECOLOR
 62
   256
  9
$CELTSCALE
 40
1.0
  9
$DISPSILH
 70
     0
  9
$DIMSCALE
 40
1.0
  9
$DIMASZ
 40
2.5
  9
$DIMEXO
 40
0.625
  9
$DIMDLI
 40
3.75
  9
$DIMRND
 40
0.0
  9
$DIMDLE
 40
0.0
  9
$DIMEXE
 40
1.25
  9
$DIMTP
 40
0.0
  9
$DIMTM
 40
0.0
  9
$DIMTXT
 40
2.5
  9
$DIMCEN
 40
2.5
  9
$DIMTSZ
 40
0.0
  9
$DIMTOL
 70
     0
  9
$DIMLIM
 70
     0
  9
$DIMTIH
 70
     0
  9
$DIMTOH
 70
     0
  9
$DIMSE1
 70
     0
  9
$DIMSE2
 70
     0
  9
$DIMTAD
 70
     1
  9
$DIMZIN
 70
     8
  9
$DIMBLK
  1

  9
$DIMASO
 70
     1
  9
$DIMSHO
 70
     1
  9
$DIMPOST
  1

  9
$DIMAPOST
  1

  9
$DIMALT
 70
     0
  9
$DIMALTD
 70
     3
  9
$DIMALTF
 40
0.0393700787
  9
$DIMLFAC
 40
1.0
  9
$DIMTOFL
 70
     1
  9
$DIMTVP
 40
0.0
  9
$DIMTIX
 70
     0
  9
$DIMSOXD
 70
     0
  9
$DIMSAH
 70
     0
  9
$DIMBLK1
  1

  9
$DIMBLK2
  1

  9
$DIMSTYLE
  2
ISO-25
  9
$DIMCLRD
 70
     0
  9
$DIMCLRE
 70
     0
  9
$DIMCLRT
 70
     0
  9
$DIMTFAC
 40
1.0
  9
$DIMGAP
 40
0.625
  9
$DIMJUST
 70
     0
  9
$DIMSD1
 70
     0
  9
$DIMSD2
 70
     0
  9
$DIMTOLJ
 70
     0
  9
$DIMTZIN
 70
     8
  9
$DIMALTZ
 70
     0
  9
$DIMALTTZ
 70
     0
  9
$DIMUPT
 70
     0
  9
$DIMDEC
 70
     2
  9
$DIMTDEC
 70
     2
  9
$DIMALTU
 70
     2
  9
$DIMALTTD
 70
     3
  9
$DIMTXSTY
  7
Standard
  9
$DIMAUNIT
 70
     0
  9
$DIMADEC
 70
     0
  9
$DIMALTRND
 40
0.0
  9
$DIMAZIN
 70
     0
  9
$DIMDSEP
 70
    44
  9
$DIMATFIT
 70
     3
  9
$DIMFRAC
 70
     0
  9
$DIMLDRBLK
  1

  9
$DIMLUNIT
 70
     2
  9
$DIMLWD
 70
    -2
  9
$DIMLWE
 70
    -2
  9
$DIMTMOVE
 70
     0
  9
$LUNITS
 70
     2
  9
$LUPREC
 70
     4
  9
$SKETCHINC
 40
1.0
  9
$FILLETRAD
 40
10.0
  9
$AUNITS
 70
     0
  9
$AUPREC
 70
     0
  9
$MENU
  1
.
  9
$ELEVATION
 40
0.0
  9
$PELEVATION
 40
0.0
  9
$THICKNESS
 40
0.0
  9
$LIMCHECK
 70
     0
  9
$CHAMFERA
 40
10.0
  9
$CHAMFERB
 40
10.0
  9
$CHAMFERC
 40
20.0
  9
$CHAMFERD
 40
0.0
  9
$SKPOLY
 70
     0
  9
$TDCREATE
 40
2456254.732944873
  9
$TDUCREATE
 40
2456254.857944873
  9
$TDUPDATE
 40
2456254.732944884
  9
$TDUUPDATE
 40
2456254.857944884
  9
$TDINDWG
 40
0.0000000116
  9
$TDUSRTIMER
 40
0.0000000116
  9
$USRTIMER
 70
     1
  9
$ANGBASE
 50
0.0
  9
$ANGDIR
 70
     0
  9
$PDMODE
 70
     0
  9
$PDSIZE
 40
0.0
  9
$PLINEWID
 40
0.0
  9
$SPLFRAME
 70
     0
  9
$SPLINETYPE
 70
     6
  9
$SPLINESEGS
 70
     8
  9
$HANDSEED
  5
3BE
  9
$SURFTAB1
 70
     6
  9
$SURFTAB2
 70
     6
  9
$SURFTYPE
 70
     6
  9
$SURFU
 70
     6
  9
$SURFV
 70
     6
  9
$UCSBASE
  2

  9
$UCSNAME
  2

  9
$UCSORG
 10
0.0
 20
0.0
 30
0.0
  9
$UCSXDIR
 10
1.0
 20
0.0
 30
0.0
  9
$UCSYDIR
 10
0.0
 20
1.0
 30
0.0
  9
$UCSORTHOREF
  2

  9
$UCSORTHOVIEW
 70
     0
  9
$UCSORGTOP
 10
0.0
 20
0.0
 30
0.0
  9
$UCSORGBOTTOM
 10
0.0
 20
0.0
 30
0.0
  9
$UCSORGLEFT
 10
0.0
 20
0.0
 30
0.0
  9
$UCSORGRIGHT
 10
0.0
 20
0.0
 30
0.0
  9
$UCSORGFRONT
 10
0.0
 20
0.0
 30
0.0
  9
$UCSORGBACK
 10
0.0
 20
0.0
 30
0.0
  9
$PUCSBASE
  2

  9
$PUCSNAME
  2

  9
$PUCSORG
 10
0.0
 20
0.0
 30
0.0
  9
$PUCSXDIR
 10
1.0
 20
0.0
 30
0.0
  9
$PUCSYDIR
 10
0.0
 20
1.0
 30
0.0
  9
$PUCSORTHOREF
  2

  9
$PUCSORTHOVIEW
 70
     0
  9
$PUCSORGTOP
 10
0.0
 20
0.0
 30
0.0
  9
$PUCSORGBOTTOM
 10
0.0
 20
0.0
 30
0.0
  9
$PUCSORGLEFT
 10
0.0
 20
0.0
 30
0.0
  9
$PUCSORGRIGHT
 10
0.0
 20
0.0
 30
0.0
  9
$PUCSORGFRONT
 10
0.0
 20
0.0
 30
0.0
  9
$PUCSORGBACK
 10
0.0
 20
0.0
 30
0.0
  9
$USERI1
 70
     0
  9
$USERI2
 70
     0
  9
$USERI3
 70
     0
  9
$USERI4
 70
     0
  9
$USERI5
 70
     0
  9
$USERR1
 40
0.0
  9
$USERR2
 40
0.0
  9
$USERR3
 40
0.0
  9
$USERR4
 40
0.0
  9
$USERR5
 40
0.0
  9
$WORLDVIEW
 70
     1
  9
$SHADEDGE
 70
     3
  9
$SHADEDIF
 70
    70
  9
$TILEMODE
 70
     1
  9
$MAXACTVP
 70
    64
  9
$PINSBASE
 10
0.0
 20
0.0
 30
0.0
  9
$PLIMCHECK
 70
     0
  9
$PEXTMIN
 10
0.0
 20
0.0
 30
0.0
  9
$PEXTMAX
 10
450.0
 20
300.0
 30
0.0
  9
$PLIMMIN
 10
0.0
 20
0.0
  9
$PLIMMAX
 10
450.0
 20
300.0
  9
$UNITMODE
 70
     0
  9
$VISRETAIN
 70
     1
  9
$PLINEGEN
 70
     0
  9
$PSLTSCALE
 70
     1
  9
$TREEDEPTH
 70
  3020
  9
$CMLSTYLE
  2
Standard
  9
$CMLJUST
 70
     0
  9
$CMLSCALE
 40
20.0
  9
$PROXYGRAPHICS
 70
     1
  9
$MEASUREMENT
 70
     1
  9
$CELWEIGHT
370
    -1
  9
$ENDCAPS
280
     0
  9
$JOINSTYLE
280
     0
  9
$LWDISPLAY
290
     0
  9
$INSUNITS
 70
     4
  9
$HYPERLINKBASE
  1

  9
$STYLESHEET
  1

  9
$XEDIT
290
     1
  9
$CEPSNTYPE
380
     0
  9
$PSTYLEMODE
290
     1
  9
$FINGERPRINTGUID
  2
{213602AA-BF1B-42AD-8AC4-7A800575C94E}
  9
$VERSIONGUID
  2
{FAEB1C32-E019-11D5-929B-00C0DF256EC4}
  9
$EXTNAMES
290
     1
  9
$PSVPSCALE
 40
0.0
  9
$OLESTARTUP
290
     0
  0
ENDSEC
  0
SECTION
  2
CLASSES
  0
CLASS
  1
ACDBDICTIONARYWDFLT
  2
AcDbDictionaryWithDefault
  3
ObjectDBX Classes
 90
        0
280
     0
281
     0
  0
CLASS
  1
VISUALSTYLE
  2
AcDbVisualStyle
  3
ObjectDBX Classes
 90
     4095
280
     0
281
     0
  0
CLASS
  1
DICTIONARYVAR
  2
AcDbDictionaryVar
  3
ObjectDBX Classes
 90
        0
280
     0
281
     0
  0
CLASS
  1
ACDBPLACEHOLDER
  2
AcDbPlaceHolder
  3
ObjectDBX Classes
 90
        0
280
     0
281
     0
  0
CLASS
  1
LAYOUT
  2
AcDbLayout
  3
ObjectDBX Classes
 90
        0
280
     0
281
     0
  0
ENDSEC
  0
SECTION
  2
TABLES
  0
TABLE
  2
VPORT
  5
8
330
0
100
AcDbSymbolTable
 70
     1
  0
VPORT
  5
29
330
8
100
AcDbSymbolTableRecord
100
AcDbViewportTableRecord
  2
*Active
 70
     0
 10
0.0
 20
0.0
 11
1.0
 21
1.0
 12
344.1869158879
 22
148.5
 13
0.0
 23
0.0
 14
10.0
 24
10.0
 15
10.0
 25
10.0
 16
0.0
 26
0.0
 36
1.0
 17
0.0
 27
0.0
 37
0.0
 40
297.0
 41
1.9729729729
 42
50.0
 43
0.0
 44
0.0
 50
0.0
 51
0.0
 71
     0
 72
   100
 73
     1
 74
     3
 75
     0
 76
     0
 77
     0
 78
     0
281
     0
 65
     1
110
0.0
120
0.0
130
0.0
111
1.0
121
0.0
131
0.0
112
0.0
122
1.0
132
0.0
 79
     0
146
0.0
  0
ENDTAB
  0
TABLE
  2
LTYPE
  5
5
330
0
100
AcDbSymbolTable
 70
     1
  0
LTYPE
  5
14
330
5
100
AcDbSymbolTableRecord
100
AcDbLinetypeTableRecord
  2
ByBlock
 70
     0
  3

 72
    65
 73
     0
 40
0.0
  0
LTYPE
  5
15
330
5
100
AcDbSymbolTableRecord
100
AcDbLinetypeTableRecord
  2
ByLayer
 70
     0
  3

 72
    65
 73
     0
 40
0.0
  0
LTYPE
  5
16
330
5
100
AcDbSymbolTableRecord
100
AcDbLinetypeTableRecord
  2
Continuous
 70
     0
  3
Solid line
 72
    65
 73
     0
 40
0.0
  0
ENDTAB
  0
TABLE
  2
LAYER
  5
2
330
0
100
AcDbSymbolTable
 70
     2
  0
LAYER
  5
10
330
2
100
AcDbSymbolTableRecord
100
AcDbLayerTableRecord
  2
0
 70
     0
 62
     7
  6
Continuous
370
    -3
390
F
  0
LAYER
  5
3C
330
2
100
AcDbSymbolTableRecord
100
AcDbLayerTableRecord
  2
Default
 70
     0
 62
     7
  6
Continuous
370
    -3
390
F
  0
ENDTAB
  0
TABLE
  2
STYLE
  5
3
330
0
100
AcDbSymbolTable
 70
     1
  0
STYLE
  5
11
330
3
100
AcDbSymbolTableRecord
100
AcDbTextStyleTableRecord
  2
Standard
 70
     0
 40
0.0
 41
1.0
 50
0.0
 71
     0
 42
2.5
  3
txt
  4

  0
ENDTAB
  0
TABLE
  2
VIEW
  5
6
330
0
100
AcDbSymbolTable
 70
     0
  0
ENDTAB
  0
TABLE
  2
UCS
  5
7
330
0
100
AcDbSymbolTable
 70
     0
  0
ENDTAB
  0
TABLE
  2
APPID
  5
9
330
0
100
AcDbSymbolTable
 70
     1
  0
APPID
  5
12
330
9
100
AcDbSymbolTableRecord
100
AcDbRegAppTableRecord
  2
ACAD
 70
     0
  0
ENDTAB
  0
TABLE
  2
DIMSTYLE
  5
A
330
0
100
AcDbSymbolTable
 70
     1
100
AcDbDimStyleTable
  0
DIMSTYLE
105
27
330
A
100
AcDbSymbolTableRecord
100
AcDbDimStyleTableRecord
  2
ISO-25
 70
     0
 41
2.5
 42
0.625
 43
3.75
 44
1.25
 73
     0
 74
     0
 77
     1
 78
     8
140
2.5
141
2.5
143
0.0393700787
147
0.625
171
     3
172
     1
271
     2
272
     2
274
     3
278
    44
283
     0
284
     8
340
11
  0
ENDTAB
  0
TABLE
  2
BLOCK_RECORD
  5
1
330
0
100
AcDbSymbolTable
 70
    42
  0
BLOCK_RECORD
  5
1F
330
1
100
AcDbSymbolTableRecord
100
AcDbBlockTableRecord
  2
*Model_Space
340
22
  0
BLOCK_RECORD
  5
1B
330
1
100
AcDbSymbolTableRecord
100
AcDbBlockTableRecord
  2
*Paper_Space
340
1E
  0
BLOCK_RECORD
  5
28D
330
1
100
AcDbSymbolTableRecord
100
AcDbBlockTableRecord
  2
SE
340
0
102
{BLKREFS
331
28E
102
}
  0
BLOCK_RECORD
  5
295
330
1
100
AcDbSymbolTableRecord
100
AcDbBlockTableRecord
  2
SE1
340
0
102
{BLKREFS
331
296
102
}
  0
BLOCK_RECORD
  5
29D
330
1
100
AcDbSymbolTableRecord
100
AcDbBlockTableRecord
  2
SE2
340
0
102
{BLKREFS
331
29E
102
}
  0
BLOCK_RECORD
  5
2A5
330
1
100
AcDbSymbolTableRecord
100
AcDbBlockTableRecord
  2
SE3
340
0
102
{BLKREFS
331
2A6
102
}
  0
BLOCK_RECORD
  5
2AD
330
1
100
AcDbSymbolTableRecord
100
AcDbBlockTableRecord
  2
SE4
340
0
102
{BLKREFS
331
2AE
102
}
  0
BLOCK_RECORD
  5
2B5
330
1
100
AcDbSymbolTableRecord
100
AcDbBlockTableRecord
  2
SE5
340
0
102
{BLKREFS
331
2B6
102
}
  0
BLOCK_RECORD
  5
2BD
330
1
100
AcDbSymbolTableRecord
100
AcDbBlockTableRecord
  2
SE6
340
0
102
{BLKREFS
331
2BE
102
}
  0
BLOCK_RECORD
  5
2C5
330
1
100
AcDbSymbolTableRecord
100
AcDbBlockTableRecord
  2
SE7
340
0
102
{BLKREFS
331
2C6
102
}
  0
BLOCK_RECORD
  5
2CD
330
1
100
AcDbSymbolTableRecord
100
AcDbBlockTableRecord
  2
SE8
340
0
102
{BLKREFS
331
2CE
102
}
  0
BLOCK_RECORD
  5
2D5
330
1
100
AcDbSymbolTableRecord
100
AcDbBlockTableRecord
  2
SE9
340
0
102
{BLKREFS
331
2D6
102
}
  0
BLOCK_RECORD
  5
2DD
330
1
100
AcDbSymbolTableRecord
100
AcDbBlockTableRecord
  2
SE10
340
0
102
{BLKREFS
331
2DE
102
}
  0
BLOCK_RECORD
  5
2E5
330
1
100
AcDbSymbolTableRecord
100
AcDbBlockTableRecord
  2
SE11
340
0
102
{BLKREFS
331
2E6
102
}
  0
BLOCK_RECORD
  5
2ED
330
1
100
AcDbSymbolTableRecord
100
AcDbBlockTableRecord
  2
SE12
340
0
102
{BLKREFS
331
2EE
102
}
  0
BLOCK_RECORD
  5
2F5
330
1
100
AcDbSymbolTableRecord
100
AcDbBlockTableRecord
  2
SE13
340
0
102
{BLKREFS
331
2F6
102
}
  0
BLOCK_RECORD
  5
2FD
330
1
100
AcDbSymbolTableRecord
100
AcDbBlockTableRecord
  2
SE14
340
0
102
{BLKREFS
331
2FE
102
}
  0
BLOCK_RECORD
  5
302
330
1
100
AcDbSymbolTableRecord
100
AcDbBlockTableRecord
  2
SE15
340
0
102
{BLKREFS
331
303
102
}
  0
BLOCK_RECORD
  5
309
330
1
100
AcDbSymbolTableRecord
100
AcDbBlockTableRecord
  2
SE16
340
0
102
{BLKREFS
331
30A
102
}
  0
BLOCK_RECORD
  5
30B
330
1
100
AcDbSymbolTableRecord
100
AcDbBlockTableRecord
  2
SE17
340
0
102
{BLKREFS
331
30C
102
}
  0
BLOCK_RECORD
  5
30D
330
1
100
AcDbSymbolTableRecord
100
AcDbBlockTableRecord
  2
SE18
340
0
102
{BLKREFS
331
30E
102
}
  0
BLOCK_RECORD
  5
315
330
1
100
AcDbSymbolTableRecord
100
AcDbBlockTableRecord
  2
SE19
340
0
102
{BLKREFS
331
316
102
}
  0
BLOCK_RECORD
  5
31D
330
1
100
AcDbSymbolTableRecord
100
AcDbBlockTableRecord
  2
SE20
340
0
102
{BLKREFS
331
31E
102
}
  0
BLOCK_RECORD
  5
327
330
1
100
AcDbSymbolTableRecord
100
AcDbBlockTableRecord
  2
SE21
340
0
102
{BLKREFS
331
328
102
}
  0
BLOCK_RECORD
  5
329
330
1
100
AcDbSymbolTableRecord
100
AcDbBlockTableRecord
  2
SE22
340
0
102
{BLKREFS
331
32A
102
}
  0
BLOCK_RECORD
  5
331
330
1
100
AcDbSymbolTableRecord
100
AcDbBlockTableRecord
  2
SE23
340
0
102
{BLKREFS
331
332
102
}
  0
BLOCK_RECORD
  5
339
330
1
100
AcDbSymbolTableRecord
100
AcDbBlockTableRecord
  2
SE24
340
0
102
{BLKREFS
331
33A
102
}
  0
BLOCK_RECORD
  5
343
330
1
100
AcDbSymbolTableRecord
100
AcDbBlockTableRecord
  2
SE25
340
0
102
{BLKREFS
331
344
102
}
  0
BLOCK_RECORD
  5
345
330
1
100
AcDbSymbolTableRecord
100
AcDbBlockTableRecord
  2
SE26
340
0
102
{BLKREFS
331
346
102
}
  0
BLOCK_RECORD
  5
34D
330
1
100
AcDbSymbolTableRecord
100
AcDbBlockTableRecord
  2
SE27
340
0
102
{BLKREFS
331
34E
102
}
  0
BLOCK_RECORD
  5
355
330
1
100
AcDbSymbolTableRecord
100
AcDbBlockTableRecord
  2
SE28
340
0
102
{BLKREFS
331
356
102
}
  0
BLOCK_RECORD
  5
35F
330
1
100
AcDbSymbolTableRecord
100
AcDbBlockTableRecord
  2
SE29
340
0
102
{BLKREFS
331
360
102
}
  0
BLOCK_RECORD
  5
361
330
1
100
AcDbSymbolTableRecord
100
AcDbBlockTableRecord
  2
SE30
340
0
102
{BLKREFS
331
362
102
}
  0
BLOCK_RECORD
  5
369
330
1
100
AcDbSymbolTableRecord
100
AcDbBlockTableRecord
  2
SE31
340
0
102
{BLKREFS
331
36A
102
}
  0
BLOCK_RECORD
  5
371
330
1
100
AcDbSymbolTableRecord
100
AcDbBlockTableRecord
  2
SE32
340
0
102
{BLKREFS
331
372
102
}
  0
BLOCK_RECORD
  5
37D
330
1
100
AcDbSymbolTableRecord
100
AcDbBlockTableRecord
  2
SE33
340
0
102
{BLKREFS
331
37E
102
}
  0
BLOCK_RECORD
  5
385
330
1
100
AcDbSymbolTableRecord
100
AcDbBlockTableRecord
  2
SE34
340
0
102
{BLKREFS
331
386
102
}
  0
BLOCK_RECORD
  5
38D
330
1
100
AcDbSymbolTableRecord
100
AcDbBlockTableRecord
  2
SE35
340
0
102
{BLKREFS
331
38E
102
}
  0
BLOCK_RECORD
  5
395
330
1
100
AcDbSymbolTableRecord
100
AcDbBlockTableRecord
  2
SE36
340
0
102
{BLKREFS
331
396
102
}
  0
BLOCK_RECORD
  5
39D
330
1
100
AcDbSymbolTableRecord
100
AcDbBlockTableRecord
  2
SE37
340
0
102
{BLKREFS
331
39E
102
}
  0
BLOCK_RECORD
  5
3A5
330
1
100
AcDbSymbolTableRecord
100
AcDbBlockTableRecord
  2
SE38
340
0
102
{BLKREFS
331
3A6
102
}
  0
BLOCK_RECORD
  5
3AA
330
1
100
AcDbSymbolTableRecord
100
AcDbBlockTableRecord
  2
SE39
340
0
102
{BLKREFS
331
3AB
102
}
  0
BLOCK_RECORD
  5
3B1
330
1
100
AcDbSymbolTableRecord
100
AcDbBlockTableRecord
  2
SE40
340
0
102
{BLKREFS
331
3B2
102
}
  0
ENDTAB
  0
ENDSEC
  0
SECTION
  2
BLOCKS
  0
BLOCK
  5
20
330
1F
100
AcDbEntity
  8
0
100
AcDbBlockBegin
  2
*Model_Space
 70
     0
 10
0.0
 20
0.0
 30
0.0
  3
*Model_Space
  1

  0
ENDBLK
  5
21
330
1F
100
AcDbEntity
  8
0
100
AcDbBlockEnd
  0
BLOCK
  5
1C
330
1B
100
AcDbEntity
 67
     1
  8
0
100
AcDbBlockBegin
  2
*Paper_Space
 70
     0
 10
0.0
 20
0.0
 30
0.0
  3
*Paper_Space
  1

  0
ENDBLK
  5
1D
330
1B
100
AcDbEntity
 67
     1
  8
0
100
AcDbBlockEnd
  0
BLOCK
  5
293
330
28D
100
AcDbEntity
  8
0
100
AcDbBlockBegin
  2
SE
 70
     0
 10
0.0
 20
0.0
 30
0.0
  3
SE
  1

  0
LINE
  5
28F
330
28D
100
AcDbEntity
  8
Default
  6
Continuous
 62
     7
100
AcDbLine
 10
42.6187431573
 20
265.9479228825
 30
0.0
 11
42.6187431573
 21
262.9479228825
 31
0.0
  0
LINE
  5
290
330
28D
100
AcDbEntity
  8
Default
  6
Continuous
 62
     7
100
AcDbLine
 10
45.6187431573
 20
265.9479228825
 30
0.0
 11
42.6187431573
 21
265.9479228825
 31
0.0
  0
LINE
  5
291
330
28D
100
AcDbEntity
  8
Default
  6
Continuous
 62
     7
100
AcDbLine
 10
45.6187431573
 20
262.9479228825
 30
0.0
 11
45.6187431573
 21
265.9479228825
 31
0.0
  0
LINE
  5
292
330
28D
100
AcDbEntity
  8
Default
  6
Continuous
 62
     7
100
AcDbLine
 10
42.6187431573
 20
262.9479228825
 30
0.0
 11
45.6187431573
 21
262.9479228825
 31
0.0
  0
ENDBLK
  5
294
330
28D
100
AcDbEntity
  8
0
100
AcDbBlockEnd
  0
BLOCK
  5
29B
330
295
100
AcDbEntity
  8
0
100
AcDbBlockBegin
  2
SE1
 70
     0
 10
0.0
 20
0.0
 30
0.0
  3
SE1
  1

  0
LINE
  5
297
330
295
100
AcDbEntity
  8
Default
  6
Continuous
 62
     7
100
AcDbLine
 10
72.6187431573
 20
238.9479228825
 30
0.0
 11
69.6187431573
 21
238.9479228825
 31
0.0
  0
LINE
  5
298
330
295
100
AcDbEntity
  8
Default
  6
Continuous
 62
     7
100
AcDbLine
 10
72.6187431573
 20
235.9479228825
 30
0.0
 11
72.6187431573
 21
238.9479228825
 31
0.0
  0
LINE
  5
299
330
295
100
AcDbEntity
  8
Default
  6
Continuous
 62
     7
100
AcDbLine
 10
69.6187431573
 20
235.9479228825
 30
0.0
 11
72.6187431573
 21
235.9479228825
 31
0.0
  0
LINE
  5
29A
330
295
100
AcDbEntity
  8
Default
  6
Continuous
 62
     7
100
AcDbLine
 10
69.6187431573
 20
238.9479228825
 30
0.0
 11
69.6187431573
 21
235.9479228825
 31
0.0
  0
ENDBLK
  5
29C
330
295
100
AcDbEntity
  8
0
100
AcDbBlockEnd
  0
BLOCK
  5
2A3
330
29D
100
AcDbEntity
  8
0
100
AcDbBlockBegin
  2
SE2
 70
     0
 10
0.0
 20
0.0
 30
0.0
  3
SE2
  1

  0
LINE
  5
29F
330
29D
100
AcDbEntity
  8
Default
  6
Continuous
 62
     7
100
AcDbLine
 10
72.6187431573
 20
256.9479228825
 30
0.0
 11
69.6187431573
 21
256.9479228825
 31
0.0
  0
LINE
  5
2A0
330
29D
100
AcDbEntity
  8
Default
  6
Continuous
 62
     7
100
AcDbLine
 10
72.6187431573
 20
253.9479228825
 30
0.0
 11
72.6187431573
 21
256.9479228825
 31
0.0
  0
LINE
  5
2A1
330
29D
100
AcDbEntity
  8
Default
  6
Continuous
 62
     7
100
AcDbLine
 10
69.6187431573
 20
253.9479228825
 30
0.0
 11
72.6187431573
 21
253.9479228825
 31
0.0
  0
LINE
  5
2A2
330
29D
100
AcDbEntity
  8
Default
  6
Continuous
 62
     7
100
AcDbLine
 10
69.6187431573
 20
256.9479228825
 30
0.0
 11
69.6187431573
 21
253.9479228825
 31
0.0
  0
ENDBLK
  5
2A4
330
29D
100
AcDbEntity
  8
0
100
AcDbBlockEnd
  0
BLOCK
  5
2AB
330
2A5
100
AcDbEntity
  8
0
100
AcDbBlockBegin
  2
SE3
 70
     0
 10
0.0
 20
0.0
 30
0.0
  3
SE3
  1

  0
LINE
  5
2A7
330
2A5
100
AcDbEntity
  8
Default
  6
Continuous
 62
     7
100
AcDbLine
 10
42.6187431573
 20
256.9479228825
 30
0.0
 11
42.6187431573
 21
253.9479228825
 31
0.0
  0
LINE
  5
2A8
330
2A5
100
AcDbEntity
  8
Default
  6
Continuous
 62
     7
100
AcDbLine
 10
45.6187431573
 20
256.9479228825
 30
0.0
 11
42.6187431573
 21
256.9479228825
 31
0.0
  0
LINE
  5
2A9
330
2A5
100
AcDbEntity
  8
Default
  6
Continuous
 62
     7
100
AcDbLine
 10
45.6187431573
 20
253.9479228825
 30
0.0
 11
45.6187431573
 21
256.9479228825
 31
0.0
  0
LINE
  5
2AA
330
2A5
100
AcDbEntity
  8
Default
  6
Continuous
 62
     7
100
AcDbLine
 10
42.6187431573
 20
253.9479228825
 30
0.0
 11
45.6187431573
 21
253.9479228825
 31
0.0
  0
ENDBLK
  5
2AC
330
2A5
100
AcDbEntity
  8
0
100
AcDbBlockEnd
  0
BLOCK
  5
2B3
330
2AD
100
AcDbEntity
  8
0
100
AcDbBlockBegin
  2
SE4
 70
     0
 10
0.0
 20
0.0
 30
0.0
  3
SE4
  1

  0
LINE
  5
2AF
330
2AD
100
AcDbEntity
  8
Default
  6
Continuous
 62
     7
100
AcDbLine
 10
51.6187431573
 20
256.9479228825
 30
0.0
 11
51.6187431573
 21
253.9479228825
 31
0.0
  0
LINE
  5
2B0
330
2AD
100
AcDbEntity
  8
Default
  6
Continuous
 62
     7
100
AcDbLine
 10
54.6187431573
 20
256.9479228825
 30
0.0
 11
51.6187431573
 21
256.9479228825
 31
0.0
  0
LINE
  5
2B1
330
2AD
100
AcDbEntity
  8
Default
  6
Continuous
 62
     7
100
AcDbLine
 10
54.6187431573
 20
253.9479228825
 30
0.0
 11
54.6187431573
 21
256.9479228825
 31
0.0
  0
LINE
  5
2B2
330
2AD
100
AcDbEntity
  8
Default
  6
Continuous
 62
     7
100
AcDbLine
 10
51.6187431573
 20
253.9479228825
 30
0.0
 11
54.6187431573
 21
253.9479228825
 31
0.0
  0
ENDBLK
  5
2B4
330
2AD
100
AcDbEntity
  8
0
100
AcDbBlockEnd
  0
BLOCK
  5
2BB
330
2B5
100
AcDbEntity
  8
0
100
AcDbBlockBegin
  2
SE5
 70
     0
 10
0.0
 20
0.0
 30
0.0
  3
SE5
  1

  0
LINE
  5
2B7
330
2B5
100
AcDbEntity
  8
Default
  6
Continuous
 62
     7
100
AcDbLine
 10
60.6187431573
 20
256.9479228825
 30
0.0
 11
60.6187431573
 21
253.9479228825
 31
0.0
  0
LINE
  5
2B8
330
2B5
100
AcDbEntity
  8
Default
  6
Continuous
 62
     7
100
AcDbLine
 10
63.6187431573
 20
256.9479228825
 30
0.0
 11
60.6187431573
 21
256.9479228825
 31
0.0
  0
LINE
  5
2B9
330
2B5
100
AcDbEntity
  8
Default
  6
Continuous
 62
     7
100
AcDbLine
 10
63.6187431573
 20
253.9479228825
 30
0.0
 11
63.6187431573
 21
256.9479228825
 31
0.0
  0
LINE
  5
2BA
330
2B5
100
AcDbEntity
  8
Default
  6
Continuous
 62
     7
100
AcDbLine
 10
60.6187431573
 20
253.9479228825
 30
0.0
 11
63.6187431573
 21
253.9479228825
 31
0.0
  0
ENDBLK
  5
2BC
330
2B5
100
AcDbEntity
  8
0
100
AcDbBlockEnd
  0
BLOCK
  5
2C3
330
2BD
100
AcDbEntity
  8
0
100
AcDbBlockBegin
  2
SE6
 70
     0
 10
0.0
 20
0.0
 30
0.0
  3
SE6
  1

  0
LINE
  5
2BF
330
2BD
100
AcDbEntity
  8
Default
  6
Continuous
 62
     7
100
AcDbLine
 10
42.6187431573
 20
238.9479228825
 30
0.0
 11
42.6187431573
 21
235.9479228825
 31
0.0
  0
LINE
  5
2C0
330
2BD
100
AcDbEntity
  8
Default
  6
Continuous
 62
     7
100
AcDbLine
 10
45.6187431573
 20
238.9479228825
 30
0.0
 11
42.6187431573
 21
238.9479228825
 31
0.0
  0
LINE
  5
2C1
330
2BD
100
AcDbEntity
  8
Default
  6
Continuous
 62
     7
100
AcDbLine
 10
45.6187431573
 20
235.9479228825
 30
0.0
 11
45.6187431573
 21
238.9479228825
 31
0.0
  0
LINE
  5
2C2
330
2BD
100
AcDbEntity
  8
Default
  6
Continuous
 62
     7
100
AcDbLine
 10
42.6187431573
 20
235.9479228825
 30
0.0
 11
45.6187431573
 21
235.9479228825
 31
0.0
  0
ENDBLK
  5
2C4
330
2BD
100
AcDbEntity
  8
0
100
AcDbBlockEnd
  0
BLOCK
  5
2CB
330
2C5
100
AcDbEntity
  8
0
100
AcDbBlockBegin
  2
SE7
 70
     0
 10
0.0
 20
0.0
 30
0.0
  3
SE7
  1

  0
LINE
  5
2C7
330
2C5
100
AcDbEntity
  8
Default
  6
Continuous
 62
     7
100
AcDbLine
 10
51.6187431573
 20
238.9479228825
 30
0.0
 11
51.6187431573
 21
235.9479228825
 31
0.0
  0
LINE
  5
2C8
330
2C5
100
AcDbEntity
  8
Default
  6
Continuous
 62
     7
100
AcDbLine
 10
54.6187431573
 20
238.9479228825
 30
0.0
 11
51.6187431573
 21
238.9479228825
 31
0.0
  0
LINE
  5
2C9
330
2C5
100
AcDbEntity
  8
Default
  6
Continuous
 62
     7
100
AcDbLine
 10
54.6187431573
 20
235.9479228825
 30
0.0
 11
54.6187431573
 21
238.9479228825
 31
0.0
  0
LINE
  5
2CA
330
2C5
100
AcDbEntity
  8
Default
  6
Continuous
 62
     7
100
AcDbLine
 10
51.6187431573
 20
235.9479228825
 30
0.0
 11
54.6187431573
 21
235.9479228825
 31
0.0
  0
ENDBLK
  5
2CC
330
2C5
100
AcDbEntity
  8
0
100
AcDbBlockEnd
  0
BLOCK
  5
2D3
330
2CD
100
AcDbEntity
  8
0
100
AcDbBlockBegin
  2
SE8
 70
     0
 10
0.0
 20
0.0
 30
0.0
  3
SE8
  1

  0
LINE
  5
2CF
330
2CD
100
AcDbEntity
  8
Default
  6
Continuous
 62
     7
100
AcDbLine
 10
60.6187431573
 20
238.9479228825
 30
0.0
 11
60.6187431573
 21
235.9479228825
 31
0.0
  0
LINE
  5
2D0
330
2CD
100
AcDbEntity
  8
Default
  6
Continuous
 62
     7
100
AcDbLine
 10
63.6187431573
 20
238.9479228825
 30
0.0
 11
60.6187431573
 21
238.9479228825
 31
0.0
  0
LINE
  5
2D1
330
2CD
100
AcDbEntity
  8
Default
  6
Continuous
 62
     7
100
AcDbLine
 10
63.6187431573
 20
235.9479228825
 30
0.0
 11
63.6187431573
 21
238.9479228825
 31
0.0
  0
LINE
  5
2D2
330
2CD
100
AcDbEntity
  8
Default
  6
Continuous
 62
     7
100
AcDbLine
 10
60.6187431573
 20
235.9479228825
 30
0.0
 11
63.6187431573
 21
235.9479228825
 31
0.0
  0
ENDBLK
  5
2D4
330
2CD
100
AcDbEntity
  8
0
100
AcDbBlockEnd
  0
BLOCK
  5
2DB
330
2D5
100
AcDbEntity
  8
0
100
AcDbBlockBegin
  2
SE9
 70
     0
 10
0.0
 20
0.0
 30
0.0
  3
SE9
  1

  0
LINE
  5
2D7
330
2D5
100
AcDbEntity
  8
Default
  6
Continuous
 62
     7
100
AcDbLine
 10
42.6187431573
 20
229.9479228825
 30
0.0
 11
42.6187431573
 21
226.9479228825
 31
0.0
  0
LINE
  5
2D8
330
2D5
100
AcDbEntity
  8
Default
  6
Continuous
 62
     7
100
AcDbLine
 10
45.6187431573
 20
229.9479228825
 30
0.0
 11
42.6187431573
 21
229.9479228825
 31
0.0
  0
LINE
  5
2D9
330
2D5
100
AcDbEntity
  8
Default
  6
Continuous
 62
     7
100
AcDbLine
 10
45.6187431573
 20
226.9479228825
 30
0.0
 11
45.6187431573
 21
229.9479228825
 31
0.0
  0
LINE
  5
2DA
330
2D5
100
AcDbEntity
  8
Default
  6
Continuous
 62
     7
100
AcDbLine
 10
42.6187431573
 20
226.9479228825
 30
0.0
 11
45.6187431573
 21
226.9479228825
 31
0.0
  0
ENDBLK
  5
2DC
330
2D5
100
AcDbEntity
  8
0
100
AcDbBlockEnd
  0
BLOCK
  5
2E3
330
2DD
100
AcDbEntity
  8
0
100
AcDbBlockBegin
  2
SE10
 70
     0
 10
0.0
 20
0.0
 30
0.0
  3
SE10
  1

  0
LINE
  5
2DF
330
2DD
100
AcDbEntity
  8
Default
  6
Continuous
 62
     7
100
AcDbLine
 10
51.6187431573
 20
229.9479228825
 30
0.0
 11
51.6187431573
 21
226.9479228825
 31
0.0
  0
LINE
  5
2E0
330
2DD
100
AcDbEntity
  8
Default
  6
Continuous
 62
     7
100
AcDbLine
 10
54.6187431573
 20
229.9479228825
 30
0.0
 11
51.6187431573
 21
229.9479228825
 31
0.0
  0
LINE
  5
2E1
330
2DD
100
AcDbEntity
  8
Default
  6
Continuous
 62
     7
100
AcDbLine
 10
54.6187431573
 20
226.9479228825
 30
0.0
 11
54.6187431573
 21
229.9479228825
 31
0.0
  0
LINE
  5
2E2
330
2DD
100
AcDbEntity
  8
Default
  6
Continuous
 62
     7
100
AcDbLine
 10
51.6187431573
 20
226.9479228825
 30
0.0
 11
54.6187431573
 21
226.9479228825
 31
0.0
  0
ENDBLK
  5
2E4
330
2DD
100
AcDbEntity
  8
0
100
AcDbBlockEnd
  0
BLOCK
  5
2EB
330
2E5
100
AcDbEntity
  8
0
100
AcDbBlockBegin
  2
SE11
 70
     0
 10
0.0
 20
0.0
 30
0.0
  3
SE11
  1

  0
LINE
  5
2E7
330
2E5
100
AcDbEntity
  8
Default
  6
Continuous
 62
     7
100
AcDbLine
 10
60.6187431573
 20
229.9479228825
 30
0.0
 11
60.6187431573
 21
226.9479228825
 31
0.0
  0
LINE
  5
2E8
330
2E5
100
AcDbEntity
  8
Default
  6
Continuous
 62
     7
100
AcDbLine
 10
63.6187431573
 20
229.9479228825
 30
0.0
 11
60.6187431573
 21
229.9479228825
 31
0.0
  0
LINE
  5
2E9
330
2E5
100
AcDbEntity
  8
Default
  6
Continuous
 62
     7
100
AcDbLine
 10
63.6187431573
 20
226.9479228825
 30
0.0
 11
63.6187431573
 21
229.9479228825
 31
0.0
  0
LINE
  5
2EA
330
2E5
100
AcDbEntity
  8
Default
  6
Continuous
 62
     7
100
AcDbLine
 10
60.6187431573
 20
226.9479228825
 30
0.0
 11
63.6187431573
 21
226.9479228825
 31
0.0
  0
ENDBLK
  5
2EC
330
2E5
100
AcDbEntity
  8
0
100
AcDbBlockEnd
  0
BLOCK
  5
2F3
330
2ED
100
AcDbEntity
  8
0
100
AcDbBlockBegin
  2
SE12
 70
     0
 10
0.0
 20
0.0
 30
0.0
  3
SE12
  1

  0
LINE
  5
2EF
330
2ED
100
AcDbEntity
  8
Default
  6
Continuous
 62
     7
100
AcDbLine
 10
36.6187431573
 20
238.9479228825
 30
0.0
 11
33.6187431573
 21
238.9479228825
 31
0.0
  0
LINE
  5
2F0
330
2ED
100
AcDbEntity
  8
Default
  6
Continuous
 62
     7
100
AcDbLine
 10
36.6187431573
 20
235.9479228825
 30
0.0
 11
36.6187431573
 21
238.9479228825
 31
0.0
  0
LINE
  5
2F1
330
2ED
100
AcDbEntity
  8
Default
  6
Continuous
 62
     7
100
AcDbLine
 10
33.6187431573
 20
235.9479228825
 30
0.0
 11
36.6187431573
 21
235.9479228825
 31
0.0
  0
LINE
  5
2F2
330
2ED
100
AcDbEntity
  8
Default
  6
Continuous
 62
     7
100
AcDbLine
 10
33.6187431573
 20
238.9479228825
 30
0.0
 11
33.6187431573
 21
235.9479228825
 31
0.0
  0
ENDBLK
  5
2F4
330
2ED
100
AcDbEntity
  8
0
100
AcDbBlockEnd
  0
BLOCK
  5
2FB
330
2F5
100
AcDbEntity
  8
0
100
AcDbBlockBegin
  2
SE13
 70
     0
 10
0.0
 20
0.0
 30
0.0
  3
SE13
  1

  0
LINE
  5
2F7
330
2F5
100
AcDbEntity
  8
Default
  6
Continuous
 62
     7
100
AcDbLine
 10
36.6187431573
 20
256.9479228825
 30
0.0
 11
33.6187431573
 21
256.9479228825
 31
0.0
  0
LINE
  5
2F8
330
2F5
100
AcDbEntity
  8
Default
  6
Continuous
 62
     7
100
AcDbLine
 10
36.6187431573
 20
253.9479228825
 30
0.0
 11
36.6187431573
 21
256.9479228825
 31
0.0
  0
LINE
  5
2F9
330
2F5
100
AcDbEntity
  8
Default
  6
Continuous
 62
     7
100
AcDbLine
 10
33.6187431573
 20
253.9479228825
 30
0.0
 11
36.6187431573
 21
253.9479228825
 31
0.0
  0
LINE
  5
2FA
330
2F5
100
AcDbEntity
  8
Default
  6
Continuous
 62
     7
100
AcDbLine
 10
33.6187431573
 20
256.9479228825
 30
0.0
 11
33.6187431573
 21
253.9479228825
 31
0.0
  0
ENDBLK
  5
2FC
330
2F5
100
AcDbEntity
  8
0
100
AcDbBlockEnd
  0
BLOCK
  5
300
330
2FD
100
AcDbEntity
  8
0
100
AcDbBlockBegin
  2
SE14
 70
     0
 10
0.0
 20
0.0
 30
0.0
  3
SE14
  1

  0
LINE
  5
2FF
330
2FD
100
AcDbEntity
  8
Default
  6
Continuous
 62
     7
100
AcDbLine
 10
33.6187431573
 20
247.9479228825
 30
0.0
 11
33.6187431573
 21
244.9479228825
 31
0.0
  0
ENDBLK
  5
301
330
2FD
100
AcDbEntity
  8
0
100
AcDbBlockEnd
  0
BLOCK
  5
307
330
302
100
AcDbEntity
  8
0
100
AcDbBlockBegin
  2
SE15
 70
     0
 10
0.0
 20
0.0
 30
0.0
  3
SE15
  1

  0
LINE
  5
304
330
302
100
AcDbEntity
  8
Default
  6
Continuous
 62
     7
100
AcDbLine
 10
42.6187431573
 20
247.9479228825
 30
0.0
 11
33.6187431573
 21
247.9479228825
 31
0.0
  0
LINE
  5
305
330
302
100
AcDbEntity
  8
Default
  6
Continuous
 62
     7
100
AcDbLine
 10
42.6187431573
 20
244.9479228825
 30
0.0
 11
42.6187431573
 21
247.9479228825
 31
0.0
  0
LINE
  5
306
330
302
100
AcDbEntity
  8
Default
  6
Continuous
 62
     7
100
AcDbLine
 10
33.6187431573
 20
244.9479228825
 30
0.0
 11
42.6187431573
 21
244.9479228825
 31
0.0
  0
ENDBLK
  5
308
330
302
100
AcDbEntity
  8
0
100
AcDbBlockEnd
  0
BLOCK
  5
37B
330
309
100
AcDbEntity
  8
0
100
AcDbBlockBegin
  2
SE16
 70
     0
 10
0.0
 20
0.0
 30
0.0
  3
SE16
  1

  0
INSERT
  5
30C
330
309
100
AcDbEntity
  8
Default
100
AcDbBlockReference
  2
SE17
 10
0.0
 20
0.0
 30
0.0
  0
INSERT
  5
328
330
309
100
AcDbEntity
  8
Default
100
AcDbBlockReference
  2
SE21
 10
0.0
 20
0.0
 30
0.0
  0
INSERT
  5
344
330
309
100
AcDbEntity
  8
Default
100
AcDbBlockReference
  2
SE25
 10
0.0
 20
0.0
 30
0.0
  0
INSERT
  5
360
330
309
100
AcDbEntity
  8
Default
100
AcDbBlockReference
  2
SE29
 10
0.0
 20
0.0
 30
0.0
  0
ENDBLK
  5
37C
330
309
100
AcDbEntity
  8
0
100
AcDbBlockEnd
  0
BLOCK
  5
325
330
30B
100
AcDbEntity
  8
0
100
AcDbBlockBegin
  2
SE17
 70
     0
 10
0.0
 20
0.0
 30
0.0
  3
SE17
  1

  0
INSERT
  5
30E
330
30B
100
AcDbEntity
  8
Default
100
AcDbBlockReference
  2
SE18
 10
0.0
 20
0.0
 30
0.0
  0
INSERT
  5
316
330
30B
100
AcDbEntity
  8
Default
100
AcDbBlockReference
  2
SE19
 10
0.0
 20
0.0
 30
0.0
  0
INSERT
  5
31E
330
30B
100
AcDbEntity
  8
Default
100
AcDbBlockReference
  2
SE20
 10
0.0
 20
0.0
 30
0.0
  0
ENDBLK
  5
326
330
30B
100
AcDbEntity
  8
0
100
AcDbBlockEnd
  0
BLOCK
  5
313
330
30D
100
AcDbEntity
  8
0
100
AcDbBlockBegin
  2
SE18
 70
     0
 10
0.0
 20
0.0
 30
0.0
  3
SE18
  1

  0
LINE
  5
30F
330
30D
100
AcDbEntity
  8
Default
  6
Continuous
 62
     7
100
AcDbLine
 10
60.6187431573
 20
274.9479228825
 30
0.0
 11
60.6187431573
 21
271.9479228825
 31
0.0
  0
LINE
  5
310
330
30D
100
AcDbEntity
  8
Default
  6
Continuous
 62
     7
100
AcDbLine
 10
63.6187431573
 20
274.9479228825
 30
0.0
 11
60.6187431573
 21
274.9479228825
 31
0.0
  0
LINE
  5
311
330
30D
100
AcDbEntity
  8
Default
  6
Continuous
 62
     7
100
AcDbLine
 10
63.6187431573
 20
271.9479228825
 30
0.0
 11
63.6187431573
 21
274.9479228825
 31
0.0
  0
LINE
  5
312
330
30D
100
AcDbEntity
  8
Default
  6
Continuous
 62
     7
100
AcDbLine
 10
60.6187431573
 20
271.9479228825
 30
0.0
 11
63.6187431573
 21
271.9479228825
 31
0.0
  0
ENDBLK
  5
314
330
30D
100
AcDbEntity
  8
0
100
AcDbBlockEnd
  0
BLOCK
  5
31B
330
315
100
AcDbEntity
  8
0
100
AcDbBlockBegin
  2
SE19
 70
     0
 10
0.0
 20
0.0
 30
0.0
  3
SE19
  1

  0
LINE
  5
317
330
315
100
AcDbEntity
  8
Default
  6
Continuous
 62
     7
100
AcDbLine
 10
51.6187431573
 20
274.9479228825
 30
0.0
 11
51.6187431573
 21
271.9479228825
 31
0.0
  0
LINE
  5
318
330
315
100
AcDbEntity
  8
Default
  6
Continuous
 62
     7
100
AcDbLine
 10
54.6187431573
 20
274.9479228825
 30
0.0
 11
51.6187431573
 21
274.9479228825
 31
0.0
  0
LINE
  5
319
330
315
100
AcDbEntity
  8
Default
  6
Continuous
 62
     7
100
AcDbLine
 10
54.6187431573
 20
271.9479228825
 30
0.0
 11
54.6187431573
 21
274.9479228825
 31
0.0
  0
LINE
  5
31A
330
315
100
AcDbEntity
  8
Default
  6
Continuous
 62
     7
100
AcDbLine
 10
51.6187431573
 20
271.9479228825
 30
0.0
 11
54.6187431573
 21
271.9479228825
 31
0.0
  0
ENDBLK
  5
31C
330
315
100
AcDbEntity
  8
0
100
AcDbBlockEnd
  0
BLOCK
  5
323
330
31D
100
AcDbEntity
  8
0
100
AcDbBlockBegin
  2
SE20
 70
     0
 10
0.0
 20
0.0
 30
0.0
  3
SE20
  1

  0
LINE
  5
31F
330
31D
100
AcDbEntity
  8
Default
  6
Continuous
 62
     7
100
AcDbLine
 10
42.6187431573
 20
274.9479228825
 30
0.0
 11
42.6187431573
 21
271.9479228825
 31
0.0
  0
LINE
  5
320
330
31D
100
AcDbEntity
  8
Default
  6
Continuous
 62
     7
100
AcDbLine
 10
45.6187431573
 20
274.9479228825
 30
0.0
 11
42.6187431573
 21
274.9479228825
 31
0.0
  0
LINE
  5
321
330
31D
100
AcDbEntity
  8
Default
  6
Continuous
 62
     7
100
AcDbLine
 10
45.6187431573
 20
271.9479228825
 30
0.0
 11
45.6187431573
 21
274.9479228825
 31
0.0
  0
LINE
  5
322
330
31D
100
AcDbEntity
  8
Default
  6
Continuous
 62
     7
100
AcDbLine
 10
42.6187431573
 20
271.9479228825
 30
0.0
 11
45.6187431573
 21
271.9479228825
 31
0.0
  0
ENDBLK
  5
324
330
31D
100
AcDbEntity
  8
0
100
AcDbBlockEnd
  0
BLOCK
  5
341
330
327
100
AcDbEntity
  8
0
100
AcDbBlockBegin
  2
SE21
 70
     0
 10
0.0
 20
0.0
 30
0.0
  3
SE21
  1

  0
INSERT
  5
32A
330
327
100
AcDbEntity
  8
Default
100
AcDbBlockReference
  2
SE22
 10
0.0
 20
0.0
 30
0.0
  0
INSERT
  5
332
330
327
100
AcDbEntity
  8
Default
100
AcDbBlockReference
  2
SE23
 10
0.0
 20
0.0
 30
0.0
  0
INSERT
  5
33A
330
327
100
AcDbEntity
  8
Default
100
AcDbBlockReference
  2
SE24
 10
0.0
 20
0.0
 30
0.0
  0
ENDBLK
  5
342
330
327
100
AcDbEntity
  8
0
100
AcDbBlockEnd
  0
BLOCK
  5
32F
330
329
100
AcDbEntity
  8
0
100
AcDbBlockBegin
  2
SE22
 70
     0
 10
0.0
 20
0.0
 30
0.0
  3
SE22
  1

  0
LINE
  5
32B
330
329
100
AcDbEntity
  8
Default
  6
Continuous
 62
     7
100
AcDbLine
 10
24.6187431573
 20
253.9479228825
 30
0.0
 11
27.6187431573
 21
253.9479228825
 31
0.0
  0
LINE
  5
32C
330
329
100
AcDbEntity
  8
Default
  6
Continuous
 62
     7
100
AcDbLine
 10
24.6187431573
 20
256.9479228825
 30
0.0
 11
24.6187431573
 21
253.9479228825
 31
0.0
  0
LINE
  5
32D
330
329
100
AcDbEntity
  8
Default
  6
Continuous
 62
     7
100
AcDbLine
 10
27.6187431573
 20
256.9479228825
 30
0.0
 11
24.6187431573
 21
256.9479228825
 31
0.0
  0
LINE
  5
32E
330
329
100
AcDbEntity
  8
Default
  6
Continuous
 62
     7
100
AcDbLine
 10
27.6187431573
 20
253.9479228825
 30
0.0
 11
27.6187431573
 21
256.9479228825
 31
0.0
  0
ENDBLK
  5
330
330
329
100
AcDbEntity
  8
0
100
AcDbBlockEnd
  0
BLOCK
  5
337
330
331
100
AcDbEntity
  8
0
100
AcDbBlockBegin
  2
SE23
 70
     0
 10
0.0
 20
0.0
 30
0.0
  3
SE23
  1

  0
LINE
  5
333
330
331
100
AcDbEntity
  8
Default
  6
Continuous
 62
     7
100
AcDbLine
 10
24.6187431573
 20
244.9479228825
 30
0.0
 11
27.6187431573
 21
244.9479228825
 31
0.0
  0
LINE
  5
334
330
331
100
AcDbEntity
  8
Default
  6
Continuous
 62
     7
100
AcDbLine
 10
24.6187431573
 20
247.9479228825
 30
0.0
 11
24.6187431573
 21
244.9479228825
 31
0.0
  0
LINE
  5
335
330
331
100
AcDbEntity
  8
Default
  6
Continuous
 62
     7
100
AcDbLine
 10
27.6187431573
 20
247.9479228825
 30
0.0
 11
24.6187431573
 21
247.9479228825
 31
0.0
  0
LINE
  5
336
330
331
100
AcDbEntity
  8
Default
  6
Continuous
 62
     7
100
AcDbLine
 10
27.6187431573
 20
244.9479228825
 30
0.0
 11
27.6187431573
 21
247.9479228825
 31
0.0
  0
ENDBLK
  5
338
330
331
100
AcDbEntity
  8
0
100
AcDbBlockEnd
  0
BLOCK
  5
33F
330
339
100
AcDbEntity
  8
0
100
AcDbBlockBegin
  2
SE24
 70
     0
 10
0.0
 20
0.0
 30
0.0
  3
SE24
  1

  0
LINE
  5
33B
330
339
100
AcDbEntity
  8
Default
  6
Continuous
 62
     7
100
AcDbLine
 10
24.6187431573
 20
235.9479228825
 30
0.0
 11
27.6187431573
 21
235.9479228825
 31
0.0
  0
LINE
  5
33C
330
339
100
AcDbEntity
  8
Default
  6
Continuous
 62
     7
100
AcDbLine
 10
24.6187431573
 20
238.9479228825
 30
0.0
 11
24.6187431573
 21
235.9479228825
 31
0.0
  0
LINE
  5
33D
330
339
100
AcDbEntity
  8
Default
  6
Continuous
 62
     7
100
AcDbLine
 10
27.6187431573
 20
238.9479228825
 30
0.0
 11
24.6187431573
 21
238.9479228825
 31
0.0
  0
LINE
  5
33E
330
339
100
AcDbEntity
  8
Default
  6
Continuous
 62
     7
100
AcDbLine
 10
27.6187431573
 20
235.9479228825
 30
0.0
 11
27.6187431573
 21
238.9479228825
 31
0.0
  0
ENDBLK
  5
340
330
339
100
AcDbEntity
  8
0
100
AcDbBlockEnd
  0
BLOCK
  5
35D
330
343
100
AcDbEntity
  8
0
100
AcDbBlockBegin
  2
SE25
 70
     0
 10
0.0
 20
0.0
 30
0.0
  3
SE25
  1

  0
INSERT
  5
346
330
343
100
AcDbEntity
  8
Default
100
AcDbBlockReference
  2
SE26
 10
0.0
 20
0.0
 30
0.0
  0
INSERT
  5
34E
330
343
100
AcDbEntity
  8
Default
100
AcDbBlockReference
  2
SE27
 10
0.0
 20
0.0
 30
0.0
  0
INSERT
  5
356
330
343
100
AcDbEntity
  8
Default
100
AcDbBlockReference
  2
SE28
 10
0.0
 20
0.0
 30
0.0
  0
ENDBLK
  5
35E
330
343
100
AcDbEntity
  8
0
100
AcDbBlockEnd
  0
BLOCK
  5
34B
330
345
100
AcDbEntity
  8
0
100
AcDbBlockBegin
  2
SE26
 70
     0
 10
0.0
 20
0.0
 30
0.0
  3
SE26
  1

  0
LINE
  5
347
330
345
100
AcDbEntity
  8
Default
  6
Continuous
 62
     7
100
AcDbLine
 10
45.6187431573
 20
217.9479228825
 30
0.0
 11
45.6187431573
 21
220.9479228825
 31
0.0
  0
LINE
  5
348
330
345
100
AcDbEntity
  8
Default
  6
Continuous
 62
     7
100
AcDbLine
 10
42.6187431573
 20
217.9479228825
 30
0.0
 11
45.6187431573
 21
217.9479228825
 31
0.0
  0
LINE
  5
349
330
345
100
AcDbEntity
  8
Default
  6
Continuous
 62
     7
100
AcDbLine
 10
42.6187431573
 20
220.9479228825
 30
0.0
 11
42.6187431573
 21
217.9479228825
 31
0.0
  0
LINE
  5
34A
330
345
100
AcDbEntity
  8
Default
  6
Continuous
 62
     7
100
AcDbLine
 10
45.6187431573
 20
220.9479228825
 30
0.0
 11
42.6187431573
 21
220.9479228825
 31
0.0
  0
ENDBLK
  5
34C
330
345
100
AcDbEntity
  8
0
100
AcDbBlockEnd
  0
BLOCK
  5
353
330
34D
100
AcDbEntity
  8
0
100
AcDbBlockBegin
  2
SE27
 70
     0
 10
0.0
 20
0.0
 30
0.0
  3
SE27
  1

  0
LINE
  5
34F
330
34D
100
AcDbEntity
  8
Default
  6
Continuous
 62
     7
100
AcDbLine
 10
54.6187431573
 20
217.9479228825
 30
0.0
 11
54.6187431573
 21
220.9479228825
 31
0.0
  0
LINE
  5
350
330
34D
100
AcDbEntity
  8
Default
  6
Continuous
 62
     7
100
AcDbLine
 10
51.6187431573
 20
217.9479228825
 30
0.0
 11
54.6187431573
 21
217.9479228825
 31
0.0
  0
LINE
  5
351
330
34D
100
AcDbEntity
  8
Default
  6
Continuous
 62
     7
100
AcDbLine
 10
51.6187431573
 20
220.9479228825
 30
0.0
 11
51.6187431573
 21
217.9479228825
 31
0.0
  0
LINE
  5
352
330
34D
100
AcDbEntity
  8
Default
  6
Continuous
 62
     7
100
AcDbLine
 10
54.6187431573
 20
220.9479228825
 30
0.0
 11
51.6187431573
 21
220.9479228825
 31
0.0
  0
ENDBLK
  5
354
330
34D
100
AcDbEntity
  8
0
100
AcDbBlockEnd
  0
BLOCK
  5
35B
330
355
100
AcDbEntity
  8
0
100
AcDbBlockBegin
  2
SE28
 70
     0
 10
0.0
 20
0.0
 30
0.0
  3
SE28
  1

  0
LINE
  5
357
330
355
100
AcDbEntity
  8
Default
  6
Continuous
 62
     7
100
AcDbLine
 10
63.6187431573
 20
217.9479228825
 30
0.0
 11
63.6187431573
 21
220.9479228825
 31
0.0
  0
LINE
  5
358
330
355
100
AcDbEntity
  8
Default
  6
Continuous
 62
     7
100
AcDbLine
 10
60.6187431573
 20
217.9479228825
 30
0.0
 11
63.6187431573
 21
217.9479228825
 31
0.0
  0
LINE
  5
359
330
355
100
AcDbEntity
  8
Default
  6
Continuous
 62
     7
100
AcDbLine
 10
60.6187431573
 20
220.9479228825
 30
0.0
 11
60.6187431573
 21
217.9479228825
 31
0.0
  0
LINE
  5
35A
330
355
100
AcDbEntity
  8
Default
  6
Continuous
 62
     7
100
AcDbLine
 10
63.6187431573
 20
220.9479228825
 30
0.0
 11
60.6187431573
 21
220.9479228825
 31
0.0
  0
ENDBLK
  5
35C
330
355
100
AcDbEntity
  8
0
100
AcDbBlockEnd
  0
BLOCK
  5
379
330
35F
100
AcDbEntity
  8
0
100
AcDbBlockBegin
  2
SE29
 70
     0
 10
0.0
 20
0.0
 30
0.0
  3
SE29
  1

  0
INSERT
  5
362
330
35F
100
AcDbEntity
  8
Default
100
AcDbBlockReference
  2
SE30
 10
0.0
 20
0.0
 30
0.0
  0
INSERT
  5
36A
330
35F
100
AcDbEntity
  8
Default
100
AcDbBlockReference
  2
SE31
 10
0.0
 20
0.0
 30
0.0
  0
INSERT
  5
372
330
35F
100
AcDbEntity
  8
Default
100
AcDbBlockReference
  2
SE32
 10
0.0
 20
0.0
 30
0.0
  0
ENDBLK
  5
37A
330
35F
100
AcDbEntity
  8
0
100
AcDbBlockEnd
  0
BLOCK
  5
367
330
361
100
AcDbEntity
  8
0
100
AcDbBlockBegin
  2
SE30
 70
     0
 10
0.0
 20
0.0
 30
0.0
  3
SE30
  1

  0
LINE
  5
363
330
361
100
AcDbEntity
  8
Default
  6
Continuous
 62
     7
100
AcDbLine
 10
81.6187431573
 20
238.9479228825
 30
0.0
 11
78.6187431573
 21
238.9479228825
 31
0.0
  0
LINE
  5
364
330
361
100
AcDbEntity
  8
Default
  6
Continuous
 62
     7
100
AcDbLine
 10
81.6187431573
 20
235.9479228825
 30
0.0
 11
81.6187431573
 21
238.9479228825
 31
0.0
  0
LINE
  5
365
330
361
100
AcDbEntity
  8
Default
  6
Continuous
 62
     7
100
AcDbLine
 10
78.6187431573
 20
235.9479228825
 30
0.0
 11
81.6187431573
 21
235.9479228825
 31
0.0
  0
LINE
  5
366
330
361
100
AcDbEntity
  8
Default
  6
Continuous
 62
     7
100
AcDbLine
 10
78.6187431573
 20
238.9479228825
 30
0.0
 11
78.6187431573
 21
235.9479228825
 31
0.0
  0
ENDBLK
  5
368
330
361
100
AcDbEntity
  8
0
100
AcDbBlockEnd
  0
BLOCK
  5
36F
330
369
100
AcDbEntity
  8
0
100
AcDbBlockBegin
  2
SE31
 70
     0
 10
0.0
 20
0.0
 30
0.0
  3
SE31
  1

  0
LINE
  5
36B
330
369
100
AcDbEntity
  8
Default
  6
Continuous
 62
     7
100
AcDbLine
 10
81.6187431573
 20
247.9479228825
 30
0.0
 11
78.6187431573
 21
247.9479228825
 31
0.0
  0
LINE
  5
36C
330
369
100
AcDbEntity
  8
Default
  6
Continuous
 62
     7
100
AcDbLine
 10
81.6187431573
 20
244.9479228825
 30
0.0
 11
81.6187431573
 21
247.9479228825
 31
0.0
  0
LINE
  5
36D
330
369
100
AcDbEntity
  8
Default
  6
Continuous
 62
     7
100
AcDbLine
 10
78.6187431573
 20
244.9479228825
 30
0.0
 11
81.6187431573
 21
244.9479228825
 31
0.0
  0
LINE
  5
36E
330
369
100
AcDbEntity
  8
Default
  6
Continuous
 62
     7
100
AcDbLine
 10
78.6187431573
 20
247.9479228825
 30
0.0
 11
78.6187431573
 21
244.9479228825
 31
0.0
  0
ENDBLK
  5
370
330
369
100
AcDbEntity
  8
0
100
AcDbBlockEnd
  0
BLOCK
  5
377
330
371
100
AcDbEntity
  8
0
100
AcDbBlockBegin
  2
SE32
 70
     0
 10
0.0
 20
0.0
 30
0.0
  3
SE32
  1

  0
LINE
  5
373
330
371
100
AcDbEntity
  8
Default
  6
Continuous
 62
     7
100
AcDbLine
 10
81.6187431573
 20
256.9479228825
 30
0.0
 11
78.6187431573
 21
256.9479228825
 31
0.0
  0
LINE
  5
374
330
371
100
AcDbEntity
  8
Default
  6
Continuous
 62
     7
100
AcDbLine
 10
81.6187431573
 20
253.9479228825
 30
0.0
 11
81.6187431573
 21
256.9479228825
 31
0.0
  0
LINE
  5
375
330
371
100
AcDbEntity
  8
Default
  6
Continuous
 62
     7
100
AcDbLine
 10
78.6187431573
 20
253.9479228825
 30
0.0
 11
81.6187431573
 21
253.9479228825
 31
0.0
  0
LINE
  5
376
330
371
100
AcDbEntity
  8
Default
  6
Continuous
 62
     7
100
AcDbLine
 10
78.6187431573
 20
256.9479228825
 30
0.0
 11
78.6187431573
 21
253.9479228825
 31
0.0
  0
ENDBLK
  5
378
330
371
100
AcDbEntity
  8
0
100
AcDbBlockEnd
  0
BLOCK
  5
383
330
37D
100
AcDbEntity
  8
0
100
AcDbBlockBegin
  2
SE33
 70
     0
 10
0.0
 20
0.0
 30
0.0
  3
SE33
  1

  0
LINE
  5
37F
330
37D
100
AcDbEntity
  8
Default
  6
Continuous
 62
     7
100
AcDbLine
 10
33.6187431573
 20
265.9479228825
 30
0.0
 11
33.6187431573
 21
262.9479228825
 31
0.0
  0
LINE
  5
380
330
37D
100
AcDbEntity
  8
Default
  6
Continuous
 62
     7
100
AcDbLine
 10
36.6187431573
 20
265.9479228825
 30
0.0
 11
33.6187431573
 21
265.9479228825
 31
0.0
  0
LINE
  5
381
330
37D
100
AcDbEntity
  8
Default
  6
Continuous
 62
     7
100
AcDbLine
 10
36.6187431573
 20
262.9479228825
 30
0.0
 11
36.6187431573
 21
265.9479228825
 31
0.0
  0
LINE
  5
382
330
37D
100
AcDbEntity
  8
Default
  6
Continuous
 62
     7
100
AcDbLine
 10
33.6187431573
 20
262.9479228825
 30
0.0
 11
36.6187431573
 21
262.9479228825
 31
0.0
  0
ENDBLK
  5
384
330
37D
100
AcDbEntity
  8
0
100
AcDbBlockEnd
  0
BLOCK
  5
38B
330
385
100
AcDbEntity
  8
0
100
AcDbBlockBegin
  2
SE34
 70
     0
 10
0.0
 20
0.0
 30
0.0
  3
SE34
  1

  0
LINE
  5
387
330
385
100
AcDbEntity
  8
Default
  6
Continuous
 62
     7
100
AcDbLine
 10
33.6187431573
 20
229.9479228825
 30
0.0
 11
33.6187431573
 21
226.9479228825
 31
0.0
  0
LINE
  5
388
330
385
100
AcDbEntity
  8
Default
  6
Continuous
 62
     7
100
AcDbLine
 10
36.6187431573
 20
229.9479228825
 30
0.0
 11
33.6187431573
 21
229.9479228825
 31
0.0
  0
LINE
  5
389
330
385
100
AcDbEntity
  8
Default
  6
Continuous
 62
     7
100
AcDbLine
 10
36.6187431573
 20
226.9479228825
 30
0.0
 11
36.6187431573
 21
229.9479228825
 31
0.0
  0
LINE
  5
38A
330
385
100
AcDbEntity
  8
Default
  6
Continuous
 62
     7
100
AcDbLine
 10
33.6187431573
 20
226.9479228825
 30
0.0
 11
36.6187431573
 21
226.9479228825
 31
0.0
  0
ENDBLK
  5
38C
330
385
100
AcDbEntity
  8
0
100
AcDbBlockEnd
  0
BLOCK
  5
393
330
38D
100
AcDbEntity
  8
0
100
AcDbBlockBegin
  2
SE35
 70
     0
 10
0.0
 20
0.0
 30
0.0
  3
SE35
  1

  0
LINE
  5
38F
330
38D
100
AcDbEntity
  8
Default
  6
Continuous
 62
     7
100
AcDbLine
 10
69.6187431573
 20
265.9479228825
 30
0.0
 11
69.6187431573
 21
262.9479228825
 31
0.0
  0
LINE
  5
390
330
38D
100
AcDbEntity
  8
Default
  6
Continuous
 62
     7
100
AcDbLine
 10
72.6187431573
 20
265.9479228825
 30
0.0
 11
69.6187431573
 21
265.9479228825
 31
0.0
  0
LINE
  5
391
330
38D
100
AcDbEntity
  8
Default
  6
Continuous
 62
     7
100
AcDbLine
 10
72.6187431573
 20
262.9479228825
 30
0.0
 11
72.6187431573
 21
265.9479228825
 31
0.0
  0
LINE
  5
392
330
38D
100
AcDbEntity
  8
Default
  6
Continuous
 62
     7
100
AcDbLine
 10
69.6187431573
 20
262.9479228825
 30
0.0
 11
72.6187431573
 21
262.9479228825
 31
0.0
  0
ENDBLK
  5
394
330
38D
100
AcDbEntity
  8
0
100
AcDbBlockEnd
  0
BLOCK
  5
39B
330
395
100
AcDbEntity
  8
0
100
AcDbBlockBegin
  2
SE36
 70
     0
 10
0.0
 20
0.0
 30
0.0
  3
SE36
  1

  0
LINE
  5
397
330
395
100
AcDbEntity
  8
Default
  6
Continuous
 62
     7
100
AcDbLine
 10
69.6187431573
 20
229.9479228825
 30
0.0
 11
69.6187431573
 21
226.9479228825
 31
0.0
  0
LINE
  5
398
330
395
100
AcDbEntity
  8
Default
  6
Continuous
 62
     7
100
AcDbLine
 10
72.6187431573
 20
229.9479228825
 30
0.0
 11
69.6187431573
 21
229.9479228825
 31
0.0
  0
LINE
  5
399
330
395
100
AcDbEntity
  8
Default
  6
Continuous
 62
     7
100
AcDbLine
 10
72.6187431573
 20
226.9479228825
 30
0.0
 11
72.6187431573
 21
229.9479228825
 31
0.0
  0
LINE
  5
39A
330
395
100
AcDbEntity
  8
Default
  6
Continuous
 62
     7
100
AcDbLine
 10
69.6187431573
 20
226.9479228825
 30
0.0
 11
72.6187431573
 21
226.9479228825
 31
0.0
  0
ENDBLK
  5
39C
330
395
100
AcDbEntity
  8
0
100
AcDbBlockEnd
  0
BLOCK
  5
3A3
330
39D
100
AcDbEntity
  8
0
100
AcDbBlockBegin
  2
SE37
 70
     0
 10
0.0
 20
0.0
 30
0.0
  3
SE37
  1

  0
LINE
  5
39F
330
39D
100
AcDbEntity
  8
Default
  6
Continuous
 62
     7
100
AcDbLine
 10
51.6187431573
 20
265.9479228825
 30
0.0
 11
51.6187431573
 21
262.9479228825
 31
0.0
  0
LINE
  5
3A0
330
39D
100
AcDbEntity
  8
Default
  6
Continuous
 62
     7
100
AcDbLine
 10
54.6187431573
 20
265.9479228825
 30
0.0
 11
51.6187431573
 21
265.9479228825
 31
0.0
  0
LINE
  5
3A1
330
39D
100
AcDbEntity
  8
Default
  6
Continuous
 62
     7
100
AcDbLine
 10
54.6187431573
 20
262.9479228825
 30
0.0
 11
54.6187431573
 21
265.9479228825
 31
0.0
  0
LINE
  5
3A2
330
39D
100
AcDbEntity
  8
Default
  6
Continuous
 62
     7
100
AcDbLine
 10
51.6187431573
 20
262.9479228825
 30
0.0
 11
54.6187431573
 21
262.9479228825
 31
0.0
  0
ENDBLK
  5
3A4
330
39D
100
AcDbEntity
  8
0
100
AcDbBlockEnd
  0
BLOCK
  5
3A8
330
3A5
100
AcDbEntity
  8
0
100
AcDbBlockBegin
  2
SE38
 70
     0
 10
0.0
 20
0.0
 30
0.0
  3
SE38
  1

  0
LINE
  5
3A7
330
3A5
100
AcDbEntity
  8
Default
  6
Continuous
 62
     7
100
AcDbLine
 10
63.6187431573
 20
247.9479228825
 30
0.0
 11
63.6187431573
 21
244.9479228825
 31
0.0
  0
ENDBLK
  5
3A9
330
3A5
100
AcDbEntity
  8
0
100
AcDbBlockEnd
  0
BLOCK
  5
3AF
330
3AA
100
AcDbEntity
  8
0
100
AcDbBlockBegin
  2
SE39
 70
     0
 10
0.0
 20
0.0
 30
0.0
  3
SE39
  1

  0
LINE
  5
3AC
330
3AA
100
AcDbEntity
  8
Default
  6
Continuous
 62
     7
100
AcDbLine
 10
72.6187431573
 20
247.9479228825
 30
0.0
 11
63.6187431573
 21
247.9479228825
 31
0.0
  0
LINE
  5
3AD
330
3AA
100
AcDbEntity
  8
Default
  6
Continuous
 62
     7
100
AcDbLine
 10
72.6187431573
 20
244.9479228825
 30
0.0
 11
72.6187431573
 21
247.9479228825
 31
0.0
  0
LINE
  5
3AE
330
3AA
100
AcDbEntity
  8
Default
  6
Continuous
 62
     7
100
AcDbLine
 10
63.6187431573
 20
244.9479228825
 30
0.0
 11
72.6187431573
 21
244.9479228825
 31
0.0
  0
ENDBLK
  5
3B0
330
3AA
100
AcDbEntity
  8
0
100
AcDbBlockEnd
  0
BLOCK
  5
3B7
330
3B1
100
AcDbEntity
  8
0
100
AcDbBlockBegin
  2
SE40
 70
     0
 10
0.0
 20
0.0
 30
0.0
  3
SE40
  1

  0
LINE
  5
3B3
330
3B1
100
AcDbEntity
  8
Default
  6
Continuous
 62
     7
100
AcDbLine
 10
60.6187431573
 20
265.9479228825
 30
0.0
 11
60.6187431573
 21
262.9479228825
 31
0.0
  0
LINE
  5
3B4
330
3B1
100
AcDbEntity
  8
Default
  6
Continuous
 62
     7
100
AcDbLine
 10
63.6187431573
 20
265.9479228825
 30
0.0
 11
60.6187431573
 21
265.9479228825
 31
0.0
  0
LINE
  5
3B5
330
3B1
100
AcDbEntity
  8
Default
  6
Continuous
 62
     7
100
AcDbLine
 10
63.6187431573
 20
262.9479228825
 30
0.0
 11
63.6187431573
 21
265.9479228825
 31
0.0
  0
LINE
  5
3B6
330
3B1
100
AcDbEntity
  8
Default
  6
Continuous
 62
     7
100
AcDbLine
 10
60.6187431573
 20
262.9479228825
 30
0.0
 11
63.6187431573
 21
262.9479228825
 31
0.0
  0
ENDBLK
  5
3B8
330
3B1
100
AcDbEntity
  8
0
100
AcDbBlockEnd
  0
ENDSEC
  0
SECTION
  2
ENTITIES
  0
CIRCLE
  5
3B
330
1F
100
AcDbEntity
  8
0
  6
Continuous
 62
     7
100
AcDbCircle
 10
53.1187431573
 20
246.4479228825
 30
0.0
 40
1.5
  0
ARC
  5
3D
330
1F
100
AcDbEntity
  8
Default
  6
Continuous
 62
     7
100
AcDbCircle
 10
57.7437431573
 20
248.9479228825
 30
0.0
 40
0.75
100
AcDbArc
 50
90.0
 51
180.0
  0
LINE
  5
3E
330
1F
100
AcDbEntity
  8
Default
  6
Continuous
 62
     7
100
AcDbLine
 10
59.4937431573
 20
249.6979228825
 30
0.0
 11
57.7437431573
 21
249.6979228825
 31
0.0
  0
ARC
  5
3F
330
1F
100
AcDbEntity
  8
Default
  6
Continuous
 62
     7
100
AcDbCircle
 10
59.4937431573
 20
248.9479228825
 30
0.0
 40
0.75
100
AcDbArc
 50
0.0
 51
90.0
  0
LINE
  5
40
330
1F
100
AcDbEntity
  8
Default
  6
Continuous
 62
     7
100
AcDbLine
 10
60.2437431573
 20
243.9479228825
 30
0.0
 11
60.2437431573
 21
248.9479228825
 31
0.0
  0
ARC
  5
41
330
1F
100
AcDbEntity
  8
Default
  6
Continuous
 62
     7
100
AcDbCircle
 10
59.4937431573
 20
243.9479228825
 30
0.0
 40
0.75
100
AcDbArc
 50
270.0
 51
0.0
  0
LINE
  5
42
330
1F
100
AcDbEntity
  8
Default
  6
Continuous
 62
     7
100
AcDbLine
 10
57.7437431573
 20
243.1979228825
 30
0.0
 11
59.4937431573
 21
243.1979228825
 31
0.0
  0
ARC
  5
43
330
1F
100
AcDbEntity
  8
Default
  6
Continuous
 62
     7
100
AcDbCircle
 10
57.7437431573
 20
243.9479228825
 30
0.0
 40
0.75
100
AcDbArc
 50
180.0
 51
270.0
  0
LINE
  5
44
330
1F
100
AcDbEntity
  8
Default
  6
Continuous
 62
     7
100
AcDbLine
 10
56.9937431573
 20
248.9479228825
 30
0.0
 11
56.9937431573
 21
243.9479228825
 31
0.0
  0
ARC
  5
45
330
1F
100
AcDbEntity
  8
Default
  6
Continuous
 62
     7
100
AcDbCircle
 10
48.4937431573
 20
248.9479228825
 30
0.0
 40
0.75
100
AcDbArc
 50
0.0
 51
90.0
  0
LINE
  5
46
330
1F
100
AcDbEntity
  8
Default
  6
Continuous
 62
     7
100
AcDbLine
 10
46.7437431573
 20
249.6979228825
 30
0.0
 11
48.4937431573
 21
249.6979228825
 31
0.0
  0
ARC
  5
47
330
1F
100
AcDbEntity
  8
Default
  6
Continuous
 62
     7
100
AcDbCircle
 10
46.7437431573
 20
248.9479228825
 30
0.0
 40
0.75
100
AcDbArc
 50
90.0
 51
180.0
  0
LINE
  5
48
330
1F
100
AcDbEntity
  8
Default
  6
Continuous
 62
     7
100
AcDbLine
 10
45.9937431573
 20
243.9479228825
 30
0.0
 11
45.9937431573
 21
248.9479228825
 31
0.0
  0
ARC
  5
49
330
1F
100
AcDbEntity
  8
Default
  6
Continuous
 62
     7
100
AcDbCircle
 10
46.7437431573
 20
243.9479228825
 30
0.0
 40
0.7500000000002274
100
AcDbArc
 50
180.0
 51
270.0
  0
LINE
  5
4A
330
1F
100
AcDbEntity
  8
Default
  6
Continuous
 62
     7
100
AcDbLine
 10
48.4937431573
 20
243.1979228825
 30
0.0
 11
46.7437431573
 21
243.1979228825
 31
0.0
  0
ARC
  5
4B
330
1F
100
AcDbEntity
  8
Default
  6
Continuous
 62
     7
100
AcDbCircle
 10
48.4937431573
 20
243.9479228825
 30
0.0
 40
0.75
100
AcDbArc
 50
270.0
 51
0.0
  0
LINE
  5
4C
330
1F
100
AcDbEntity
  8
Default
  6
Continuous
 62
     7
100
AcDbLine
 10
49.2437431573
 20
248.9479228825
 30
0.0
 11
49.2437431573
 21
243.9479228825
 31
0.0
  0
ARC
  5
4D
330
1F
100
AcDbEntity
  8
0
  6
Continuous
 62
     7
100
AcDbCircle
 10
65.0725273513
 20
279.5882510412
 30
0.0
 40
0.3873361838989853
100
AcDbArc
 50
249.4288953456
 51
303.4288953456
  0
ARC
  5
4E
330
1F
100
AcDbEntity
  8
0
  6
Continuous
 62
     7
100
AcDbCircle
 10
74.0921910347
 20
273.0451458329
 30
0.0
 40
10.78132845306229
100
AcDbArc
 50
135.6617152556
 51
144.7665656942
  0
LINE
  5
4F
330
1F
100
AcDbEntity
  8
0
  6
Continuous
 62
     7
100
AcDbLine
 10
66.3811057266
 20
280.580144611
 30
0.0
 11
66.6217530705
 21
280.8256172893
 31
0.0
  0
LINE
  5
50
330
1F
100
AcDbEntity
  8
0
  6
Continuous
 62
     7
100
AcDbLine
 10
66.6217530705
 20
280.8256172893
 30
0.0
 11
67.3121108531
 21
280.5463900459
 31
0.0
  0
LINE
  5
51
330
1F
100
AcDbEntity
  8
0
  6
Continuous
 62
     7
100
AcDbLine
 10
67.3121108531
 20
280.5463900459
 30
0.0
 11
67.3144376907
 21
280.202642223
 31
0.0
  0
ARC
  5
52
330
1F
100
AcDbEntity
  8
0
  6
Continuous
 62
     7
100
AcDbCircle
 10
56.5332519729
 20
280.1471649227
 30
0.0
 40
10.78132845305977
100
AcDbArc
 50
351.1899767904
 51
0.294827229
  0
ARC
  5
53
330
1F
100
AcDbEntity
  8
0
  6
Continuous
 62
     7
100
AcDbCircle
 10
67.5654923083
 20
278.579927893
 30
0.0
 40
0.3873361838990289
100
AcDbArc
 50
192.527647139
 51
246.527647139
  0
LINE
  5
54
330
1F
100
AcDbEntity
  8
0
  6
Continuous
 62
     7
100
AcDbLine
 10
67.4112137847
 20
278.2246428574
 30
0.0
 11
67.7482232502
 21
278.0709044182
 31
0.0
  0
ARC
  5
55
330
1F
100
AcDbEntity
  8
0
  6
Continuous
 62
     7
100
AcDbCircle
 10
67.9154095091
 20
278.4203011472
 30
0.0
 40
0.3873361838990038
100
AcDbArc
 50
244.4288953456
 51
298.4288953456
  0
ARC
  5
56
330
1F
100
AcDbEntity
  8
0
  6
Continuous
 62
     7
100
AcDbCircle
 10
76.3304814547
 20
271.115978942
 30
0.0
 40
10.78132845304966
100
AcDbArc
 50
130.6617152556
 51
139.7665656942
  0
LINE
  5
57
330
1F
100
AcDbEntity
  8
0
  6
Continuous
 62
     7
100
AcDbLine
 10
69.3054575694
 20
279.2943701422
 30
0.0
 11
69.5665835311
 21
279.5179349248
 31
0.0
  0
LINE
  5
58
330
1F
100
AcDbEntity
  8
0
  6
Continuous
 62
     7
100
AcDbLine
 10
69.5665835311
 20
279.5179349248
 30
0.0
 11
70.2299780361
 21
279.1796015801
 31
0.0
  0
LINE
  5
59
330
1F
100
AcDbEntity
  8
0
  6
Continuous
 62
     7
100
AcDbLine
 10
70.2299780361
 20
279.1796015801
 30
0.0
 11
70.2023364226
 21
278.8369590242
 31
0.0
  0
ARC
  5
5A
330
1F
100
AcDbEntity
  8
0
  6
Continuous
 62
     7
100
AcDbCircle
 10
59.457341206
 20
279.7213350807
 30
0.0
 40
10.78132845305243
100
AcDbArc
 50
346.1899767904
 51
355.294827229
  0
ARC
  5
5B
330
1F
100
AcDbEntity
  8
0
  6
Continuous
 62
     7
100
AcDbCircle
 10
70.3110068289
 20
277.1985387604
 30
0.0
 40
0.3873361838990206
100
AcDbArc
 50
187.527647139
 51
241.527647139
  0
LINE
  5
5C
330
1F
100
AcDbEntity
  8
0
  6
Continuous
 62
     7
100
AcDbLine
 10
70.1263502504
 20
276.858051951
 30
0.0
 11
70.4486781053
 21
276.6755262227
 31
0.0
  0
ARC
  5
5D
330
1F
100
AcDbEntity
  8
0
  6
Continuous
 62
     7
100
AcDbCircle
 10
70.6456801015
 20
277.0090221491
 30
0.0
 40
0.3873361838989988
100
AcDbArc
 50
239.4288953456
 51
293.4288953456
  0
ARC
  5
5E
330
1F
100
AcDbEntity
  8
0
  6
Continuous
 62
     7
100
AcDbCircle
 10
78.3921165306
 20
268.9990732494
 30
0.0
 40
10.78132845303611
100
AcDbArc
 50
125.6617152556
 51
134.7665656942
  0
LINE
  5
5F
330
1F
100
AcDbEntity
  8
0
  6
Continuous
 62
     7
100
AcDbLine
 10
72.1066187417
 20
277.7586143765
 30
0.0
 11
72.386235995
 21
277.9585698005
 31
0.0
  0
LINE
  5
60
330
1F
100
AcDbEntity
  8
0
  6
Continuous
 62
     7
100
AcDbLine
 10
72.386235995
 20
277.9585698005
 30
0.0
 11
73.0176183897
 21
277.5637052755
 31
0.0
  0
LINE
  5
61
330
1F
100
AcDbEntity
  8
0
  6
Continuous
 62
     7
100
AcDbLine
 10
73.0176183897
 20
277.5637052755
 30
0.0
 11
72.9602186943
 21
277.2247757033
 31
0.0
  0
ARC
  5
62
330
1F
100
AcDbEntity
  8
0
  6
Continuous
 62
     7
100
AcDbCircle
 10
62.3331898807
 20
279.0422744809
 30
0.0
 40
10.78132845305576
100
AcDbArc
 50
341.1899767904
 51
350.294827229
  0
ARC
  5
63
330
1F
100
AcDbEntity
  8
0
  6
Continuous
 62
     7
100
AcDbCircle
 10
72.9256778419
 20
275.5831188733
 30
0.0
 40
0.3873361838989969
100
AcDbArc
 50
182.527647139
 51
236.527647139
  0
LINE
  5
64
330
1F
100
AcDbEntity
  8
0
  6
Continuous
 62
     7
100
AcDbLine
 10
72.7120485567
 20
275.2600216003
 30
0.0
 11
73.0172416914
 21
275.0500977139
 31
0.0
  0
ARC
  5
65
330
1F
100
AcDbEntity
  8
0
  6
Continuous
 62
     7
100
AcDbCircle
 10
73.2425601206
 20
275.3651547322
 30
0.0
 40
0.3873361838990015
100
AcDbArc
 50
234.4288953456
 51
288.4288953456
  0
ARC
  5
66
330
1F
100
AcDbEntity
  8
0
  6
Continuous
 62
     7
100
AcDbCircle
 10
80.2614059748
 20
266.7105396858
 30
0.0
 40
10.78132845305347
100
AcDbArc
 50
120.6617152556
 51
129.7665656942
  0
LINE
  5
67
330
1F
100
AcDbEntity
  8
0
  6
Continuous
 62
     7
100
AcDbLine
 10
74.7632707156
 20
275.9845653427
 30
0.0
 11
75.0592512043
 21
276.1593896265
 31
0.0
  0
LINE
  5
68
330
1F
100
AcDbEntity
  8
0
  6
Continuous
 62
     7
100
AcDbLine
 10
75.0592512043
 20
276.1593896265
 30
0.0
 11
75.6538162874
 21
275.7109990787
 31
0.0
  0
LINE
  5
69
330
1F
100
AcDbEntity
  8
0
  6
Continuous
 62
     7
100
AcDbLine
 10
75.6538162874
 20
275.7109990787
 30
0.0
 11
75.5670953566
 21
275.3783619489
 31
0.0
  0
ARC
  5
6A
330
1F
100
AcDbEntity
  8
0
  6
Continuous
 62
     7
100
AcDbCircle
 10
65.1389110519
 20
278.1151511844
 30
0.0
 40
10.7813284530468
100
AcDbArc
 50
336.1899767904
 51
345.294827229
  0
ARC
  5
6B
330
1F
100
AcDbEntity
  8
0
  6
Continuous
 62
     7
100
AcDbCircle
 10
75.3896061223
 20
273.7459625524
 30
0.0
 40
0.3873361838990262
100
AcDbArc
 50
177.527647139
 51
231.527647139
  0
LINE
  5
6C
330
1F
100
AcDbEntity
  8
0
  6
Continuous
 62
     7
100
AcDbLine
 10
75.1486299781
 20
273.4427137811
 30
0.0
 11
75.4343656886
 21
273.2069893841
 31
0.0
  0
ARC
  5
6D
330
1F
100
AcDbEntity
  8
0
  6
Continuous
 62
     7
100
AcDbCircle
 10
75.6862857416
 20
273.5012097203
 30
0.0
 40
0.3873361838990009
100
AcDbArc
 50
229.4288953456
 51
283.4288953456
  0
ARC
  5
6E
330
1F
100
AcDbEntity
  8
0
  6
Continuous
 62
     7
100
AcDbCircle
 10
81.9241233657
 20
264.2677953734
 30
0.0
 40
10.7813284530263
100
AcDbArc
 50
115.6617152556
 51
124.7665656942
  0
LINE
  5
6F
330
1F
100
AcDbEntity
  8
0
  6
Continuous
 62
     7
100
AcDbLine
 10
77.2551947655
 20
273.985724625
 30
0.0
 11
77.5652858994
 21
274.1340872503
 31
0.0
  0
LINE
  5
70
330
1F
100
AcDbEntity
  8
0
  6
Continuous
 62
     7
100
AcDbLine
 10
77.5652858994
 20
274.1340872503
 30
0.0
 11
78.1185086716
 21
273.6355832024
 31
0.0
  0
LINE
  5
71
330
1F
100
AcDbEntity
  8
0
  6
Continuous
 62
     7
100
AcDbLine
 10
78.1185086716
 20
273.6355832024
 30
0.0
 11
78.003126504
 21
273.3117700846
 31
0.0
  0
ARC
  5
72
330
1F
100
AcDbEntity
  8
0
  6
Continuous
 62
     7
100
AcDbCircle
 10
67.8531514875
 20
276.9470211593
 30
0.0
 40
10.78132845305521
100
AcDbArc
 50
331.1899767904
 51
340.294827229
  0
ARC
  5
73
330
1F
100
AcDbEntity
  8
0
  6
Continuous
 62
     7
100
AcDbCircle
 10
77.6840396879
 20
271.7010516666
 30
0.0
 40
0.3873361838990176
100
AcDbArc
 50
172.527647139
 51
226.527647139
  0
LINE
  5
74
330
1F
100
AcDbEntity
  8
0
  6
Continuous
 62
     7
100
AcDbLine
 10
77.4175506589
 20
271.4199593032
 30
0.0
 11
77.6816543238
 21
271.1602284007
 31
0.0
  0
ARC
  5
75
330
1F
100
AcDbEntity
  8
0
  6
Continuous
 62
     7
100
AcDbCircle
 10
77.9582587369
 20
271.4313728604
 30
0.0
 40
0.3873361838989616
100
AcDbArc
 50
224.4288953456
 51
278.4288953456
  0
ARC
  5
76
330
1F
100
AcDbEntity
  8
0
  6
Continuous
 62
     7
100
AcDbCircle
 10
83.36761442
 20
261.6894310714
 30
0.0
 40
10.78132845304993
100
AcDbArc
 50
110.6617152556
 51
119.7665656942
  0
LINE
  5
77
330
1F
100
AcDbEntity
  8
0
  6
Continuous
 62
     7
100
AcDbLine
 10
79.5634258446
 20
271.7773046082
 30
0.0
 11
79.8852676429
 21
271.8980764459
 31
0.0
  0
LINE
  5
78
330
1F
100
AcDbEntity
  8
0
  6
Continuous
 62
     7
100
AcDbLine
 10
79.8852676429
 20
271.8980764459
 30
0.0
 11
80.3929377449
 21
271.3532528148
 31
0.0
  0
LINE
  5
79
330
1F
100
AcDbEntity
  8
0
  6
Continuous
 62
     7
100
AcDbLine
 10
80.3929377449
 20
271.3532528148
 30
0.0
 11
80.2497724686
 21
271.0407281221
 31
0.0
  0
ARC
  5
7A
330
1F
100
AcDbEntity
  8
0
  6
Continuous
 62
     7
100
AcDbCircle
 10
70.4552541788
 20
275.5467745804
 30
0.0
 40
10.7813284530576
100
AcDbArc
 50
326.1899767904
 51
335.294827229
  0
ARC
  5
7B
330
1F
100
AcDbEntity
  8
0
  6
Continuous
 62
     7
100
AcDbCircle
 10
79.791516514
 20
269.4639492225
 30
0.0
 40
0.3873361838990145
100
AcDbArc
 50
167.527647139
 51
221.527647139
  0
LINE
  5
7C
330
1F
100
AcDbEntity
  8
0
  6
Continuous
 62
     7
100
AcDbLine
 10
79.5015427425
 20
269.2071525497
 30
0.0
 11
79.7420043735
 21
268.9253918506
 31
0.0
  0
ARC
  5
7D
330
1F
100
AcDbEntity
  8
0
  6
Continuous
 62
     7
100
AcDbCircle
 10
80.0411880201
 20
269.1713968607
 30
0.0
 40
0.3873361838990028
100
AcDbArc
 50
219.4288953456
 51
273.4288953456
  0
ARC
  5
7E
330
1F
100
AcDbEntity
  8
0
  6
Continuous
 62
     7
100
AcDbCircle
 10
84.5808932993
 20
258.995069689
 30
0.0
 40
10.78132845303578
100
AcDbArc
 50
105.6617152556
 51
114.7665656942
  0
LINE
  5
7F
330
1F
100
AcDbEntity
  8
0
  6
Continuous
 62
     7
100
AcDbLine
 10
81.6703969208
 20
269.3761127023
 30
0.0
 11
82.0015399731
 21
269.4683746057
 31
0.0
  0
LINE
  5
80
330
1F
100
AcDbEntity
  8
0
  6
Continuous
 62
     7
100
AcDbLine
 10
82.0015399731
 20
269.4683746057
 30
0.0
 11
82.4597937289
 21
268.8813778282
 31
0.0
  0
LINE
  5
81
330
1F
100
AcDbEntity
  8
0
  6
Continuous
 62
     7
100
AcDbLine
 10
82.4597937289
 20
268.8813778282
 30
0.0
 11
82.2899349179
 21
268.5825200623
 31
0.0
  0
ARC
  5
82
330
1F
100
AcDbEntity
  8
0
  6
Continuous
 62
     7
100
AcDbCircle
 10
72.9254155532
 20
273.9250681698
 30
0.0
 40
10.78132845305587
100
AcDbArc
 50
321.1899767904
 51
330.294827229
  0
ARC
  5
83
330
1F
100
AcDbEntity
  8
0
  6
Continuous
 62
     7
100
AcDbCircle
 10
81.6959974295
 20
267.0516809206
 30
0.0
 40
0.3873361838989833
100
AcDbArc
 50
162.527647139
 51
216.527647139
  0
LINE
  5
84
330
1F
100
AcDbEntity
  8
0
  6
Continuous
 62
     7
100
AcDbLine
 10
81.3847457909
 20
266.821134316
 30
0.0
 11
81.5997353298
 21
266.5194881894
 31
0.0
  0
ARC
  5
85
330
1F
100
AcDbEntity
  8
0
  6
Continuous
 62
     7
100
AcDbCircle
 10
81.9192212416
 20
266.7384815032
 30
0.0
 40
0.3873361838990179
100
AcDbArc
 50
214.4288953456
 51
268.4288953456
  0
ARC
  5
86
330
1F
100
AcDbEntity
  8
0
  6
Continuous
 62
     7
100
AcDbCircle
 10
85.5547262186
 20
256.2052169433
 30
0.0
 40
10.7813284530493
100
AcDbArc
 50
100.6617152556
 51
109.7665656942
  0
LINE
  5
87
330
1F
100
AcDbEntity
  8
0
  6
Continuous
 62
     7
100
AcDbLine
 10
83.5600726719
 20
266.8004234274
 30
0.0
 11
83.8979967796
 21
266.8634732277
 31
0.0
  0
LINE
  5
88
330
1F
100
AcDbEntity
  8
0
  6
Continuous
 62
     7
100
AcDbLine
 10
83.8979967796
 20
266.8634732277
 30
0.0
 11
84.3033466013
 21
266.2387707037
 31
0.0
  0
LINE
  5
89
330
1F
100
AcDbEntity
  8
0
  6
Continuous
 62
     7
100
AcDbLine
 10
84.3033466013
 20
266.2387707037
 30
0.0
 11
84.1080869838
 21
265.9558543527
 31
0.0
  0
ARC
  5
8A
330
1F
100
AcDbEntity
  8
0
  6
Continuous
 62
     7
100
AcDbCircle
 10
75.244836191
 20
272.0942440924
 30
0.0
 40
10.78132845306003
100
AcDbArc
 50
316.1899767904
 51
325.294827229
  0
ARC
  5
8B
330
1F
100
AcDbEntity
  8
0
  6
Continuous
 62
     7
100
AcDbCircle
 10
83.3829881844
 20
264.482605579
 30
0.0
 40
0.3873361838989892
100
AcDbArc
 50
157.527647139
 51
211.527647139
  0
LINE
  5
8C
330
1F
100
AcDbEntity
  8
0
  6
Continuous
 62
     7
100
AcDbLine
 10
83.0528274918
 20
264.2800636416
 30
0.0
 11
83.2407087383
 21
263.9608277967
 31
0.0
  0
ARC
  5
8D
330
1F
100
AcDbEntity
  8
0
  6
Continuous
 62
     7
100
AcDbCircle
 10
83.5780654348
 20
264.1511427428
 30
0.0
 40
0.3873361838989433
100
AcDbArc
 50
209.4288953456
 51
263.4288953456
  0
ARC
  5
8E
330
1F
100
AcDbEntity
  8
0
  6
Continuous
 62
     7
100
AcDbCircle
 10
86.2817017214
 20
253.3411052981
 30
0.0
 40
10.78132845305523
100
AcDbArc
 50
95.6617152556
 51
104.7665656942
  0
LINE
  5
8F
330
1F
100
AcDbEntity
  8
0
  6
Continuous
 62
     7
100
AcDbLine
 10
85.2180715243
 20
264.0698393342
 30
0.0
 11
85.560204881
 21
264.1031971843
 31
0.0
  0
LINE
  5
90
330
1F
100
AcDbEntity
  8
0
  6
Continuous
 62
     7
100
AcDbLine
 10
85.560204881
 20
264.1031971843
 30
0.0
 11
85.9095658118
 21
263.4455432773
 31
0.0
  0
LINE
  5
91
330
1F
100
AcDbEntity
  8
0
  6
Continuous
 62
     7
100
AcDbLine
 10
85.9095658118
 20
263.4455432773
 30
0.0
 11
85.6903914314
 21
263.1807215054
 31
0.0
  0
ARC
  5
92
330
1F
100
AcDbEntity
  8
0
  6
Continuous
 62
     7
100
AcDbCircle
 10
77.3958639008
 20
270.0682360249
 30
0.0
 40
10.78132845305259
100
AcDbArc
 50
311.1899767904
 51
320.294827229
  0
ARC
  5
93
330
1F
100
AcDbEntity
  8
0
  6
Continuous
 62
     7
100
AcDbCircle
 10
84.8396497607
 20
261.7762754125
 30
0.0
 40
0.3873361838990111
100
AcDbArc
 50
152.527647139
 51
206.527647139
  0
LINE
  5
94
330
1F
100
AcDbEntity
  8
0
  6
Continuous
 62
     7
100
AcDbLine
 10
84.4930927362
 20
261.6032796087
 30
0.0
 11
84.6524358007
 21
261.2688836229
 31
0.0
  0
ARC
  5
95
330
1F
100
AcDbEntity
  8
0
  6
Continuous
 62
     7
100
AcDbCircle
 10
85.0050957935
 20
261.4290717898
 30
0.0
 40
0.3873361838989947
100
AcDbArc
 50
204.4288953456
 51
258.4288953456
  0
ARC
  5
96
330
1F
100
AcDbEntity
  8
0
  6
Continuous
 62
     7
100
AcDbCircle
 10
86.7562870852
 20
250.4245323725
 30
0.0
 40
10.78132845304997
100
AcDbArc
 50
90.6617152556
 51
99.7665656942
  0
LINE
  5
97
330
1F
100
AcDbEntity
  8
0
  6
Continuous
 62
     7
100
AcDbLine
 10
86.6317751058
 20
261.2051418163
 30
0.0
 11
86.97551387
 21
261.208553843
 31
0.0
  0
LINE
  5
98
330
1F
100
AcDbEntity
  8
0
  6
Continuous
 62
     7
100
AcDbLine
 10
86.97551387
 20
261.208553843
 30
0.0
 11
87.2662270622
 21
260.5229536962
 31
0.0
  0
LINE
  5
99
330
1F
100
AcDbEntity
  8
0
  6
Continuous
 62
     7
100
AcDbLine
 10
87.2662270622
 20
260.5229536962
 30
0.0
 11
87.0248059683
 21
260.278241957
 31
0.0
  0
ARC
  5
9A
330
1F
100
AcDbEntity
  8
0
  6
Continuous
 62
     7
100
AcDbCircle
 10
79.3621280628
 20
267.862463112
 30
0.0
 40
10.7813284530459
100
AcDbArc
 50
306.1899767904
 51
315.294827229
  0
ARC
  5
9B
330
1F
100
AcDbEntity
  8
0
  6
Continuous
 62
     7
100
AcDbCircle
 10
86.0548960841
 20
258.9532872277
 30
0.0
 40
0.3873361838990028
100
AcDbArc
 50
147.527647139
 51
201.527647139
  0
LINE
  5
9C
330
1F
100
AcDbEntity
  8
0
  6
Continuous
 62
     7
100
AcDbLine
 10
85.694580236
 20
258.8111541601
 30
0.0
 11
85.8241724215
 21
258.4641429888
 31
0.0
  0
ARC
  5
9D
330
1F
100
AcDbEntity
  8
0
  6
Continuous
 62
     7
100
AcDbCircle
 10
86.1894517552
 20
258.5929852478
 30
0.0
 40
0.3873361838990191
100
AcDbArc
 50
199.4288953456
 51
253.4288953456
  0
ARC
  5
9E
330
1F
100
AcDbEntity
  8
0
  6
Continuous
 62
     7
100
AcDbCircle
 10
86.9748704289
 20
247.4776950476
 30
0.0
 40
10.7813284530425
100
AcDbArc
 50
85.6617152556
 51
94.7665656942
  0
LINE
  5
9F
330
1F
100
AcDbEntity
  8
0
  6
Continuous
 62
     7
100
AcDbLine
 10
87.7904242785
 20
258.2281329518
 30
0.0
 11
88.1331523906
 21
258.2015731873
 31
0.0
  0
LINE
  5
A0
330
1F
100
AcDbEntity
  8
0
  6
Continuous
 62
     7
100
AcDbLine
 10
88.1331523906
 20
258.2015731873
 30
0.0
 11
88.3630053413
 21
257.4932446319
 31
0.0
  0
LINE
  5
A1
330
1F
100
AcDbEntity
  8
0
  6
Continuous
 62
     7
100
AcDbLine
 10
88.3630053413
 20
257.4932446319
 30
0.0
 11
88.1011748941
 21
257.2705053295
 31
0.0
  0
ARC
  5
A2
330
1F
100
AcDbEntity
  8
0
  6
Continuous
 62
     7
100
AcDbCircle
 10
81.1286642194
 20
265.4937126176
 30
0.0
 40
10.7813284530288
100
AcDbArc
 50
301.1899767904
 51
310.294827229
  0
ARC
  5
A3
330
1F
100
AcDbEntity
  8
0
  6
Continuous
 62
     7
100
AcDbCircle
 10
87.0194783964
 20
256.0351256693
 30
0.0
 40
0.387336183898987
100
AcDbArc
 50
142.527647139
 51
196.527647139
  0
LINE
  5
A4
330
1F
100
AcDbEntity
  8
0
  6
Continuous
 62
     7
100
AcDbLine
 10
86.6481459457
 20
255.9249370563
 30
0.0
 11
86.7470009775
 21
255.5679516641
 31
0.0
  0
ARC
  5
A5
330
1F
100
AcDbEntity
  8
0
  6
Continuous
 62
     7
100
AcDbCircle
 10
87.1221196559
 20
255.6644674477
 30
0.0
 40
0.3873361838989971
100
AcDbArc
 50
194.4288953456
 51
248.4288953456
  0
ARC
  5
A6
330
1F
100
AcDbEntity
  8
0
  6
Continuous
 62
     7
100
AcDbCircle
 10
86.9357882011
 20
244.5230205347
 30
0.0
 40
10.78132845304446
100
AcDbArc
 50
80.6617152556
 51
89.7665656942
  0
LINE
  5
A7
330
1F
100
AcDbEntity
  8
0
  6
Continuous
 62
     7
100
AcDbLine
 10
88.6852010225
 20
255.1614695755
 30
0.0
 11
89.0243101146
 21
255.1051401558
 31
0.0
  0
LINE
  5
A8
330
1F
100
AcDbEntity
  8
0
  6
Continuous
 62
     7
100
AcDbLine
 10
89.0243101146
 20
255.1051401558
 30
0.0
 11
89.1915535041
 21
254.3794739997
 31
0.0
  0
LINE
  5
A9
330
1F
100
AcDbEntity
  8
0
  6
Continuous
 62
     7
100
AcDbLine
 10
89.1915535041
 20
254.3794739997
 30
0.0
 11
88.9113063915
 21
254.1804023147
 31
0.0
  0
ARC
  5
AA
330
1F
100
AcDbEntity
  8
0
  6
Continuous
 62
     7
100
AcDbCircle
 10
82.6820279639
 20
262.9800121631
 30
0.0
 40
10.78132845305418
100
AcDbArc
 50
296.1899767904
 51
305.294827229
  0
ARC
  5
AB
330
1F
100
AcDbEntity
  8
0
  6
Continuous
 62
     7
100
AcDbCircle
 10
87.7260556437
 20
253.0439997088
 30
0.0
 40
0.3873361838990166
100
AcDbArc
 50
137.527647139
 51
191.527647139
  0
LINE
  5
AC
330
1F
100
AcDbEntity
  8
0
  6
Continuous
 62
     7
100
AcDbLine
 10
87.3465326547
 20
252.9665941523
 30
0.0
 11
87.4138981862
 21
252.6023514136
 31
0.0
  0
ARC
  5
AD
330
1F
100
AcDbEntity
  8
0
  6
Continuous
 62
     7
100
AcDbCircle
 10
87.7960013296
 20
252.6658061784
 30
0.0
 40
0.3873361838989935
100
AcDbArc
 50
189.4288953456
 51
243.4288953456
  0
ARC
  5
AE
330
1F
100
AcDbEntity
  8
0
  6
Continuous
 62
     7
100
AcDbCircle
 10
86.6393378412
 20
241.582995691
 30
0.0
 40
10.78132845303283
100
AcDbArc
 50
75.6617152556
 51
84.7665656942
  0
LINE
  5
AF
330
1F
100
AcDbEntity
  8
0
  6
Continuous
 62
     7
100
AcDbLine
 10
89.3092955465
 20
252.0284908475
 30
0.0
 11
89.6422047937
 21
251.9428204735
 31
0.0
  0
LINE
  5
B0
330
1F
100
AcDbEntity
  8
0
  6
Continuous
 62
     7
100
AcDbLine
 10
89.6422047937
 20
251.9428204735
 30
0.0
 11
89.7455657989
 21
251.2053394743
 31
0.0
  0
LINE
  5
B1
330
1F
100
AcDbEntity
  8
0
  6
Continuous
 62
     7
100
AcDbLine
 10
89.7455657989
 20
251.2053394743
 30
0.0
 11
89.4490348705
 21
251.0314504624
 31
0.0
  0
ARC
  5
B2
330
1F
100
AcDbEntity
  8
0
  6
Continuous
 62
     7
100
AcDbCircle
 10
84.0103972603
 20
260.3404925268
 30
0.0
 40
10.78132845305431
100
AcDbArc
 50
291.1899767904
 51
300.294827229
  0
ARC
  5
B3
330
1F
100
AcDbEntity
  8
0
  6
Continuous
 62
     7
100
AcDbCircle
 10
88.1692503464
 20
250.0026736208
 30
0.0
 40
0.3873361838989575
100
AcDbArc
 50
132.527647139
 51
186.527647139
  0
LINE
  5
B4
330
1F
100
AcDbEntity
  8
0
  6
Continuous
 62
     7
100
AcDbLine
 10
87.7844252182
 20
249.9586402238
 30
0.0
 11
87.8197885571
 21
249.5899122458
 31
0.0
  0
ARC
  5
B5
330
1F
100
AcDbEntity
  8
0
  6
Continuous
 62
     7
100
AcDbCircle
 10
88.2059681298
 20
249.6198230628
 30
0.0
 40
0.3873361838989953
100
AcDbArc
 50
184.4288953456
 51
238.4288953456
  0
ARC
  5
B6
330
1F
100
AcDbEntity
  8
0
  6
Continuous
 62
     7
100
AcDbCircle
 10
86.0877755155
 20
238.6799958807
 30
0.0
 40
10.78132845304015
100
AcDbArc
 50
70.6617152556
 51
79.7665656942
  0
LINE
  5
B7
330
1F
100
AcDbEntity
  8
0
  6
Continuous
 62
     7
100
AcDbLine
 10
89.6579581143
 20
248.8530406276
 30
0.0
 11
89.9821338763
 21
248.7386813025
 31
0.0
  0
LINE
  5
B8
330
1F
100
AcDbEntity
  8
0
  6
Continuous
 62
     7
100
AcDbLine
 10
89.9821338763
 20
248.7386813025
 30
0.0
 11
90.0208258574
 21
247.9949981361
 31
0.0
  0
LINE
  5
B9
330
1F
100
AcDbEntity
  8
0
  6
Continuous
 62
     7
100
AcDbLine
 10
90.0208258574
 20
247.9949981361
 30
0.0
 11
89.7102678928
 21
247.8476151977
 31
0.0
  0
ARC
  5
BA
330
1F
100
AcDbEntity
  8
0
  6
Continuous
 62
     7
100
AcDbCircle
 10
85.103662416
 20
257.595242047
 30
0.0
 40
10.78132845302963
100
AcDbArc
 50
286.1899767904
 51
295.294827229
  0
ARC
  5
BB
330
1F
100
AcDbEntity
  8
0
  6
Continuous
 62
     7
100
AcDbCircle
 10
88.3456895254
 20
246.9342937333
 30
0.0
 40
0.3873361838990261
100
AcDbArc
 50
127.527647139
 51
181.527647139
  0
LINE
  5
BC
330
1F
100
AcDbEntity
  8
0
  6
Continuous
 62
     7
100
AcDbLine
 10
87.9584910096
 20
246.9239676165
 30
0.0
 11
87.9615830195
 21
246.5535606417
 31
0.0
  0
ARC
  5
BD
330
1F
100
AcDbEntity
  8
0
  6
Continuous
 62
     7
100
AcDbCircle
 10
88.3488999618
 20
246.5496998716
 30
0.0
 40
0.3873361838990076
100
AcDbArc
 50
179.4288953456
 51
233.4288953456
  0
ARC
  5
BE
330
1F
100
AcDbEntity
  8
0
  6
Continuous
 62
     7
100
AcDbCircle
 10
85.2852989463
 20
235.8361146853
 30
0.0
 40
10.78132845301749
100
AcDbArc
 50
65.6617152556
 51
74.7665656942
  0
LINE
  5
BF
330
1F
100
AcDbEntity
  8
0
  6
Continuous
 62
     7
100
AcDbLine
 10
89.7285351934
 20
245.6592860095
 30
0.0
 11
90.0415102969
 21
245.5171080768
 31
0.0
  0
LINE
  5
C0
330
1F
100
AcDbEntity
  8
0
  6
Continuous
 62
     7
100
AcDbLine
 10
90.0415102969
 20
245.5171080768
 30
0.0
 11
90.0152387845
 21
244.772882621
 31
0.0
  0
LINE
  5
C1
330
1F
100
AcDbEntity
  8
0
  6
Continuous
 62
     7
100
AcDbLine
 10
90.0152387845
 20
244.772882621
 30
0.0
 11
89.6930173172
 21
244.6531274293
 31
0.0
  0
ARC
  5
C2
330
1F
100
AcDbEntity
  8
0
  6
Continuous
 62
     7
100
AcDbCircle
 10
85.9535030231
 20
254.7651537374
 30
0.0
 40
10.78132845305226
100
AcDbArc
 50
281.1899767904
 51
290.294827229
  0
ARC
  5
C3
330
1F
100
AcDbEntity
  8
0
  6
Continuous
 62
     7
100
AcDbCircle
 10
88.2540303719
 20
243.8622122699
 30
0.0
 40
0.3873361838990085
100
AcDbArc
 50
122.527647139
 51
176.527647139
  0
LINE
  5
C4
330
1F
100
AcDbEntity
  8
0
  6
Continuous
 62
     7
100
AcDbLine
 10
87.867405283
 20
243.8856720214
 30
0.0
 11
87.8382024319
 21
243.5164050705
 31
0.0
  0
ARC
  5
C5
330
1F
100
AcDbEntity
  8
0
  6
Continuous
 62
     7
100
AcDbCircle
 10
88.223709028
 20
243.478802096
 30
0.0
 40
0.387336183899004
100
AcDbArc
 50
174.4288953456
 51
228.4288953456
  0
ARC
  5
C6
330
1F
100
AcDbEntity
  8
0
  6
Continuous
 62
     7
100
AcDbCircle
 10
84.2380154649
 20
233.0729957578
 30
0.0
 40
10.78132845304329
100
AcDbArc
 50
60.6617152556
 51
69.7665656942
  0
LINE
  5
C7
330
1F
100
AcDbEntity
  8
0
  6
Continuous
 62
     7
100
AcDbLine
 10
89.5204896495
 20
242.4715333941
 30
0.0
 11
89.8198821649
 21
242.3026189138
 31
0.0
  0
LINE
  5
C8
330
1F
100
AcDbEntity
  8
0
  6
Continuous
 62
     7
100
AcDbLine
 10
89.8198821649
 20
242.3026189138
 30
0.0
 11
89.7288471011
 21
241.5635151737
 31
0.0
  0
LINE
  5
C9
330
1F
100
AcDbEntity
  8
0
  6
Continuous
 62
     7
100
AcDbLine
 10
89.7288471011
 20
241.5635151737
 30
0.0
 11
89.3974144312
 21
241.472299138
 31
0.0
  0
ARC
  5
CA
330
1F
100
AcDbEntity
  8
0
  6
Continuous
 62
     7
100
AcDbCircle
 10
86.5534512815
 20
251.8717662789
 30
0.0
 40
10.78132845306676
100
AcDbArc
 50
276.1899767904
 51
285.2948272289
  0
ARC
  5
CB
330
1F
100
AcDbEntity
  8
0
  6
Continuous
 62
     7
100
AcDbCircle
 10
87.8949704675
 20
240.8098096256
 30
0.0
 40
0.387336183898996
100
AcDbArc
 50
117.527647139
 51
171.527647139
  0
LINE
  5
CC
330
1F
100
AcDbEntity
  8
0
  6
Continuous
 62
     7
100
AcDbLine
 10
87.5118612558
 20
240.8668767024
 30
0.0
 11
87.450585795
 21
240.50156012
 31
0.0
  0
ARC
  5
CD
330
1F
100
AcDbEntity
  8
0
  6
Continuous
 62
     7
100
AcDbCircle
 10
87.8313481069
 20
240.4305011224
 30
0.0
 40
0.3873361838990085
100
AcDbArc
 50
169.4288953456
 51
223.4288953456
  0
ARC
  5
CE
330
1F
100
AcDbEntity
  8
0
  6
Continuous
 62
     7
100
AcDbCircle
 10
82.9538955308
 20
230.4116681018
 30
0.0
 40
10.7813284530401
100
AcDbArc
 50
55.6617152556
 51
64.7665656942
  0
LINE
  5
CF
330
1F
100
AcDbEntity
  8
0
  6
Continuous
 62
     7
100
AcDbLine
 10
89.0354048348
 20
239.3140435038
 30
0.0
 11
89.3189362043
 21
239.1196780171
 31
0.0
  0
LINE
  5
D0
330
1F
100
AcDbEntity
  8
0
  6
Continuous
 62
     7
100
AcDbLine
 10
89.3189362043
 20
239.1196780171
 30
0.0
 11
89.163830421
 21
238.3913210184
 31
0.0
  0
LINE
  5
D1
330
1F
100
AcDbEntity
  8
0
  6
Continuous
 62
     7
100
AcDbLine
 10
89.163830421
 20
238.3913210184
 30
0.0
 11
88.8257089511
 21
238.3293383477
 31
0.0
  0
ARC
  5
D2
330
1F
100
AcDbEntity
  8
0
  6
Continuous
 62
     7
100
AcDbCircle
 10
86.8989412227
 20
248.9371000972
 30
0.0
 40
10.78132845305348
100
AcDbArc
 50
271.1899767904
 51
280.294827229
  0
ARC
  5
D3
330
1F
100
AcDbEntity
  8
0
  6
Continuous
 62
     7
100
AcDbCircle
 10
87.2712424748
 20
237.8003164275
 30
0.0
 40
0.3873361838990029
100
AcDbArc
 50
112.527647139
 51
166.527647139
  0
LINE
  5
D4
330
1F
100
AcDbEntity
  8
0
  6
Continuous
 62
     7
100
AcDbLine
 10
86.8945648327
 20
237.8905565148
 30
0.0
 11
86.8016831054
 21
237.5319705805
 31
0.0
  0
ARC
  5
D5
330
1F
100
AcDbEntity
  8
0
  6
Continuous
 62
     7
100
AcDbCircle
 10
87.1748033021
 20
237.4279963618
 30
0.0
 40
0.3873361838990017
100
AcDbArc
 50
164.4288953456
 51
218.4288953456
  0
ARC
  5
D6
330
1F
100
AcDbEntity
  8
0
  6
Continuous
 62
     7
100
AcDbCircle
 10
81.4427120723
 20
227.8723860276
 30
0.0
 40
10.78132845304369
100
AcDbArc
 50
50.6617152556
 51
59.7665656942
  0
LINE
  5
D7
330
1F
100
AcDbEntity
  8
0
  6
Continuous
 62
     7
100
AcDbLine
 10
88.2769725377
 20
236.2108467431
 30
0.0
 11
88.5424849163
 21
235.9925094886
 31
0.0
  0
LINE
  5
D8
330
1F
100
AcDbEntity
  8
0
  6
Continuous
 62
     7
100
AcDbLine
 10
88.5424849163
 20
235.9925094886
 30
0.0
 11
88.3244888622
 21
235.280442468
 31
0.0
  0
LINE
  5
D9
330
1F
100
AcDbEntity
  8
0
  6
Continuous
 62
     7
100
AcDbLine
 10
88.3244888622
 20
235.280442468
 30
0.0
 11
87.9822519008
 21
235.2481648879
 31
0.0
  0
ARC
  5
DA
330
1F
100
AcDbEntity
  8
0
  6
Continuous
 62
     7
100
AcDbCircle
 10
86.9873434595
 20
245.9834897738
 30
0.0
 40
10.7813284530359
100
AcDbArc
 50
266.1899767904
 51
275.294827229
  0
ARC
  5
DB
330
1F
100
AcDbEntity
  8
0
  6
Continuous
 62
     7
100
AcDbCircle
 10
86.3875933404
 20
234.8566367362
 30
0.0
 40
0.3873361838990592
100
AcDbArc
 50
107.527647139
 51
161.527647139
  0
LINE
  5
DC
330
1F
100
AcDbEntity
  8
0
  6
Continuous
 62
     7
100
AcDbLine
 10
86.0202140123
 20
234.9793630524
 30
0.0
 11
85.8964329046
 21
234.6302368217
 31
0.0
  0
ARC
  5
DD
330
1F
100
AcDbEntity
  8
0
  6
Continuous
 62
     7
100
AcDbCircle
 10
86.2590713161
 20
234.4941386884
 30
0.0
 40
0.3873361838990035
100
AcDbArc
 50
159.4288953456
 51
213.4288953456
  0
ARC
  5
DE
330
1F
100
AcDbEntity
  8
0
  6
Continuous
 62
     7
100
AcDbCircle
 10
79.7159661078
 20
225.4744750051
 30
0.0
 40
10.78132845305842
100
AcDbArc
 50
45.6617152556
 51
54.7665656942
  0
LINE
  5
DF
330
1F
100
AcDbEntity
  8
0
  6
Continuous
 62
     7
100
AcDbLine
 10
87.2509648858
 20
233.1855603131
 30
0.0
 11
87.4964375641
 21
232.9449129692
 31
0.0
  0
LINE
  5
E0
330
1F
100
AcDbEntity
  8
0
  6
Continuous
 62
     7
100
AcDbLine
 10
87.4964375641
 20
232.9449129692
 30
0.0
 11
87.2172103207
 21
232.2545551866
 31
0.0
  0
LINE
  5
E1
330
1F
100
AcDbEntity
  8
0
  6
Continuous
 62
     7
100
AcDbLine
 10
87.2172103207
 20
232.2545551866
 30
0.0
 11
86.8734624979
 21
232.2522283491
 31
0.0
  0
ARC
  5
E2
330
1F
100
AcDbEntity
  8
0
  6
Continuous
 62
     7
100
AcDbCircle
 10
86.8179851976
 20
243.0334140669
 30
0.0
 40
10.78132845306605
100
AcDbArc
 50
261.1899767904
 51
270.2948272289
  0
ARC
  5
E3
330
1F
100
AcDbEntity
  8
0
  6
Continuous
 62
     7
100
AcDbCircle
 10
85.2507481678
 20
232.0011737314
 30
0.0
 40
0.3873361838990013
100
AcDbArc
 50
102.527647139
 51
156.527647139
  0
LINE
  5
E4
330
1F
100
AcDbEntity
  8
0
  6
Continuous
 62
     7
100
AcDbLine
 10
84.8954631322
 20
232.1554522551
 30
0.0
 11
84.7417246931
 21
231.8184427896
 31
0.0
  0
ARC
  5
E5
330
1F
100
AcDbEntity
  8
0
  6
Continuous
 62
     7
100
AcDbCircle
 10
85.091121422
 20
231.6512565306
 30
0.0
 40
0.3873361838989752
100
AcDbArc
 50
154.4288953456
 51
208.4288953456
  0
ARC
  5
E6
330
1F
100
AcDbEntity
  8
0
  6
Continuous
 62
     7
100
AcDbCircle
 10
77.7867992168
 20
223.2361845851
 30
0.0
 40
10.78132845304599
100
AcDbArc
 50
40.6617152556
 51
49.7665656942
  0
LINE
  5
E7
330
1F
100
AcDbEntity
  8
0
  6
Continuous
 62
     7
100
AcDbLine
 10
85.965190417
 20
230.2612084703
 30
0.0
 11
86.1887551997
 21
230.0000825087
 31
0.0
  0
LINE
  5
E8
330
1F
100
AcDbEntity
  8
0
  6
Continuous
 62
     7
100
AcDbLine
 10
86.1887551997
 20
230.0000825087
 30
0.0
 11
85.8504218549
 21
229.3366880036
 31
0.0
  0
LINE
  5
E9
330
1F
100
AcDbEntity
  8
0
  6
Continuous
 62
     7
100
AcDbLine
 10
85.8504218549
 20
229.3366880036
 30
0.0
 11
85.5077792991
 21
229.3643296172
 31
0.0
  0
ARC
  5
EA
330
1F
100
AcDbEntity
  8
0
  6
Continuous
 62
     7
100
AcDbCircle
 10
86.3921553556
 20
240.1093248337
 30
0.0
 40
10.78132845305171
100
AcDbArc
 50
256.1899767904
 51
265.294827229
  0
ARC
  5
EB
330
1F
100
AcDbEntity
  8
0
  6
Continuous
 62
     7
100
AcDbCircle
 10
83.8693590353
 20
229.2556592109
 30
0.0
 40
0.3873361838990169
100
AcDbArc
 50
97.527647139
 51
151.527647139
  0
LINE
  5
EC
330
1F
100
AcDbEntity
  8
0
  6
Continuous
 62
     7
100
AcDbLine
 10
83.5288722259
 20
229.4403157894
 30
0.0
 11
83.3463464976
 21
229.1179879345
 31
0.0
  0
ARC
  5
ED
330
1F
100
AcDbEntity
  8
0
  6
Continuous
 62
     7
100
AcDbCircle
 10
83.6798424239
 20
228.9209859383
 30
0.0
 40
0.3873361838989988
100
AcDbArc
 50
149.4288953456
 51
203.4288953456
  0
ARC
  5
EE
330
1F
100
AcDbEntity
  8
0
  6
Continuous
 62
     7
100
AcDbCircle
 10
75.6698935242
 20
221.1745495091
 30
0.0
 40
10.78132845303651
100
AcDbArc
 50
35.6617152556
 51
44.7665656942
  0
LINE
  5
EF
330
1F
100
AcDbEntity
  8
0
  6
Continuous
 62
     7
100
AcDbLine
 10
84.4294346513
 20
227.460047298
 30
0.0
 11
84.6293900754
 21
227.1804300448
 31
0.0
  0
LINE
  5
F0
330
1F
100
AcDbEntity
  8
0
  6
Continuous
 62
     7
100
AcDbLine
 10
84.6293900754
 20
227.1804300448
 30
0.0
 11
84.2345255503
 21
226.5490476501
 31
0.0
  0
LINE
  5
F1
330
1F
100
AcDbEntity
  8
0
  6
Continuous
 62
     7
100
AcDbLine
 10
84.2345255503
 20
226.5490476501
 30
0.0
 11
83.8955959782
 21
226.6064473454
 31
0.0
  0
ARC
  5
F2
330
1F
100
AcDbEntity
  8
0
  6
Continuous
 62
     7
100
AcDbCircle
 10
85.7130947557
 20
237.2334761591
 30
0.0
 40
10.78132845304991
100
AcDbArc
 50
251.1899767904
 51
260.294827229
  0
ARC
  5
F3
330
1F
100
AcDbEntity
  8
0
  6
Continuous
 62
     7
100
AcDbCircle
 10
82.2539391482
 20
226.6409881978
 30
0.0
 40
0.3873361838989912
100
AcDbArc
 50
92.527647139
 51
146.527647139
  0
LINE
  5
F4
330
1F
100
AcDbEntity
  8
0
  6
Continuous
 62
     7
100
AcDbLine
 10
81.9308418751
 20
226.8546174831
 30
0.0
 11
81.7209179888
 21
226.5494243484
 31
0.0
  0
ARC
  5
F5
330
1F
100
AcDbEntity
  8
0
  6
Continuous
 62
     7
100
AcDbCircle
 10
82.0359750071
 20
226.3241059191
 30
0.0
 40
0.3873361838990065
100
AcDbArc
 50
144.4288953456
 51
198.4288953456
  0
ARC
  5
F6
330
1F
100
AcDbEntity
  8
0
  6
Continuous
 62
     7
100
AcDbCircle
 10
73.3813599606
 20
219.305260065
 30
0.0
 40
10.78132845305259
100
AcDbArc
 50
30.6617152556
 51
39.7665656942
  0
LINE
  5
F7
330
1F
100
AcDbEntity
  8
0
  6
Continuous
 62
     7
100
AcDbLine
 10
82.6553856175
 20
224.8033953241
 30
0.0
 11
82.8302099014
 21
224.5074148354
 31
0.0
  0
LINE
  5
F8
330
1F
100
AcDbEntity
  8
0
  6
Continuous
 62
     7
100
AcDbLine
 10
82.8302099014
 20
224.5074148354
 30
0.0
 11
82.3818193535
 21
223.9128497523
 31
0.0
  0
LINE
  5
F9
330
1F
100
AcDbEntity
  8
0
  6
Continuous
 62
     7
100
AcDbLine
 10
82.3818193535
 20
223.9128497523
 30
0.0
 11
82.0491822238
 21
223.9995706831
 31
0.0
  0
ARC
  5
FA
330
1F
100
AcDbEntity
  8
0
  6
Continuous
 62
     7
100
AcDbCircle
 10
84.7859714592
 20
234.4277549878
 30
0.0
 40
10.7813284530432
100
AcDbArc
 50
246.1899767904
 51
255.294827229
  0
ARC
  5
FB
330
1F
100
AcDbEntity
  8
0
  6
Continuous
 62
     7
100
AcDbCircle
 10
80.4167828273
 20
224.1770599175
 30
0.0
 40
0.3873361838990055
100
AcDbArc
 50
87.527647139
 51
141.527647139
  0
LINE
  5
FC
330
1F
100
AcDbEntity
  8
0
  6
Continuous
 62
     7
100
AcDbLine
 10
80.1135340559
 20
224.4180360616
 30
0.0
 11
79.877809659
 21
224.1323003512
 31
0.0
  0
ARC
  5
FD
330
1F
100
AcDbEntity
  8
0
  6
Continuous
 62
     7
100
AcDbCircle
 10
80.1720299952
 20
223.8803802981
 30
0.0
 40
0.3873361838989963
100
AcDbArc
 50
139.4288953456
 51
193.4288953456
  0
ARC
  5
FE
330
1F
100
AcDbEntity
  8
0
  6
Continuous
 62
     7
100
AcDbCircle
 10
70.9386156482
 20
217.6425426741
 30
0.0
 40
10.78132845302575
100
AcDbArc
 50
25.6617152556
 51
34.7665656942
  0
LINE
  5
FF
330
1F
100
AcDbEntity
  8
0
  6
Continuous
 62
     7
100
AcDbLine
 10
80.6565448998
 20
222.3114712743
 30
0.0
 11
80.8049075252
 21
222.0013801404
 31
0.0
  0
LINE
  5
100
330
1F
100
AcDbEntity
  8
0
  6
Continuous
 62
     7
100
AcDbLine
 10
80.8049075252
 20
222.0013801404
 30
0.0
 11
80.3064034773
 21
221.4481573682
 31
0.0
  0
LINE
  5
101
330
1F
100
AcDbEntity
  8
0
  6
Continuous
 62
     7
100
AcDbLine
 10
80.3064034773
 20
221.4481573682
 30
0.0
 11
79.9825903594
 21
221.5635395357
 31
0.0
  0
ARC
  5
102
330
1F
100
AcDbEntity
  8
0
  6
Continuous
 62
     7
100
AcDbCircle
 10
83.6178414341
 20
231.7135145523
 30
0.0
 40
10.78132845305575
100
AcDbArc
 50
241.1899767904
 51
250.294827229
  0
ARC
  5
103
330
1F
100
AcDbEntity
  8
0
  6
Continuous
 62
     7
100
AcDbCircle
 10
78.3718719415
 20
221.8826263518
 30
0.0
 40
0.3873361838989721
100
AcDbArc
 50
82.527647139
 51
136.527647139
  0
LINE
  5
104
330
1F
100
AcDbEntity
  8
0
  6
Continuous
 62
     7
100
AcDbLine
 10
78.0907795781
 20
222.1491153809
 30
0.0
 11
77.8310486756
 21
221.885011716
 31
0.0
  0
ARC
  5
105
330
1F
100
AcDbEntity
  8
0
  6
Continuous
 62
     7
100
AcDbCircle
 10
78.1021931352
 20
221.6084073029
 30
0.0
 40
0.3873361838990014
100
AcDbArc
 50
134.4288953456
 51
188.4288953456
  0
ARC
  5
106
330
1F
100
AcDbEntity
  8
0
  6
Continuous
 62
     7
100
AcDbCircle
 10
68.3602513462
 20
216.1990516198
 30
0.0
 40
10.78132845305126
100
AcDbArc
 50
20.6617152556
 51
29.7665656942
  0
LINE
  5
107
330
1F
100
AcDbEntity
  8
0
  6
Continuous
 62
     7
100
AcDbLine
 10
78.4481248831
 20
220.0032401951
 30
0.0
 11
78.5688967208
 21
219.6813983968
 31
0.0
  0
LINE
  5
108
330
1F
100
AcDbEntity
  8
0
  6
Continuous
 62
     7
100
AcDbLine
 10
78.5688967208
 20
219.6813983968
 30
0.0
 11
78.0240730897
 21
219.1737282948
 31
0.0
  0
LINE
  5
109
330
1F
100
AcDbEntity
  8
0
  6
Continuous
 62
     7
100
AcDbLine
 10
78.0240730897
 20
219.1737282948
 30
0.0
 11
77.711548397
 21
219.3168935712
 31
0.0
  0
ARC
  5
10A
330
1F
100
AcDbEntity
  8
0
  6
Continuous
 62
     7
100
AcDbCircle
 10
82.2175948553
 20
229.1114118609
 30
0.0
 40
10.78132845304585
100
AcDbArc
 50
236.1899767904
 51
245.294827229
  0
ARC
  5
10B
330
1F
100
AcDbEntity
  8
0
  6
Continuous
 62
     7
100
AcDbCircle
 10
76.1347694974
 20
219.7751495257
 30
0.0
 40
0.3873361838990075
100
AcDbArc
 50
77.527647139
 51
131.527647139
  0
LINE
  5
10C
330
1F
100
AcDbEntity
  8
0
  6
Continuous
 62
     7
100
AcDbLine
 10
75.8779728246
 20
220.0651232973
 30
0.0
 11
75.5962121255
 21
219.8246616663
 31
0.0
  0
ARC
  5
10D
330
1F
100
AcDbEntity
  8
0
  6
Continuous
 62
     7
100
AcDbCircle
 10
75.8422171355
 20
219.5254780197
 30
0.0
 40
0.3873361838990346
100
AcDbArc
 50
129.4288953456
 51
183.4288953456
  0
ARC
  5
10E
330
1F
100
AcDbEntity
  8
0
  6
Continuous
 62
     7
100
AcDbCircle
 10
65.6658899639
 20
214.9857727405
 30
0.0
 40
10.78132845304787
100
AcDbArc
 50
15.6617152556
 51
24.7665656942
  0
LINE
  5
10F
330
1F
100
AcDbEntity
  8
0
  6
Continuous
 62
     7
100
AcDbLine
 10
76.0469329771
 20
217.896269119
 30
0.0
 11
76.1391948805
 21
217.5651260667
 31
0.0
  0
LINE
  5
110
330
1F
100
AcDbEntity
  8
0
  6
Continuous
 62
     7
100
AcDbLine
 10
76.1391948805
 20
217.5651260667
 30
0.0
 11
75.552198103
 21
217.1068723109
 31
0.0
  0
LINE
  5
111
330
1F
100
AcDbEntity
  8
0
  6
Continuous
 62
     7
100
AcDbLine
 10
75.552198103
 20
217.1068723109
 30
0.0
 11
75.2533403371
 21
217.2767311219
 31
0.0
  0
ARC
  5
112
330
1F
100
AcDbEntity
  8
0
  6
Continuous
 62
     7
100
AcDbCircle
 10
80.5958884447
 20
226.6412504866
 30
0.0
 40
10.78132845305268
100
AcDbArc
 50
231.1899767904
 51
240.294827229
  0
ARC
  5
113
330
1F
100
AcDbEntity
  8
0
  6
Continuous
 62
     7
100
AcDbCircle
 10
73.7225011954
 20
217.8706686103
 30
0.0
 40
0.3873361838989859
100
AcDbArc
 50
72.527647139
 51
126.527647139
  0
LINE
  5
114
330
1F
100
AcDbEntity
  8
0
  6
Continuous
 62
     7
100
AcDbLine
 10
73.4919545909
 20
218.1819202488
 30
0.0
 11
73.1903084643
 21
217.96693071
 31
0.0
  0
ARC
  5
115
330
1F
100
AcDbEntity
  8
0
  6
Continuous
 62
     7
100
AcDbCircle
 10
73.409301778
 20
217.6474447981
 30
0.0
 40
0.3873361838989894
100
AcDbArc
 50
124.4288953456
 51
178.4288953456
  0
ARC
  5
116
330
1F
100
AcDbEntity
  8
0
  6
Continuous
 62
     7
100
AcDbCircle
 10
62.8760372181
 20
214.0119398212
 30
0.0
 40
10.78132845304247
100
AcDbArc
 50
10.6617152556
 51
19.7665656942
  0
LINE
  5
117
330
1F
100
AcDbEntity
  8
0
  6
Continuous
 62
     7
100
AcDbLine
 10
73.4712437022
 20
216.0065933679
 30
0.0
 11
73.5342935025
 21
215.6686692602
 31
0.0
  0
LINE
  5
118
330
1F
100
AcDbEntity
  8
0
  6
Continuous
 62
     7
100
AcDbLine
 10
73.5342935025
 20
215.6686692602
 30
0.0
 11
72.9095909786
 21
215.2633194384
 31
0.0
  0
LINE
  5
119
330
1F
100
AcDbEntity
  8
0
  6
Continuous
 62
     7
100
AcDbLine
 10
72.9095909786
 20
215.2633194384
 30
0.0
 11
72.6266746275
 21
215.4585790559
 31
0.0
  0
ARC
  5
11A
330
1F
100
AcDbEntity
  8
0
  6
Continuous
 62
     7
100
AcDbCircle
 10
78.7650643672
 20
224.3218298487
 30
0.0
 40
10.78132845304382
100
AcDbArc
 50
226.1899767904
 51
235.294827229
  0
ARC
  5
11B
330
1F
100
AcDbEntity
  8
0
  6
Continuous
 62
     7
100
AcDbCircle
 10
71.1534258538
 20
216.1836778553
 30
0.0
 40
0.3873361838989891
100
AcDbArc
 50
67.527647139
 51
121.527647139
  0
LINE
  5
11C
330
1F
100
AcDbEntity
  8
0
  6
Continuous
 62
     7
100
AcDbLine
 10
70.9508839165
 20
216.513838548
 30
0.0
 11
70.6316480715
 21
216.3259573014
 31
0.0
  0
ARC
  5
11D
330
1F
100
AcDbEntity
  8
0
  6
Continuous
 62
     7
100
AcDbCircle
 10
70.8219630177
 20
215.988600605
 30
0.0
 40
0.3873361838990246
100
AcDbArc
 50
119.4288953456
 51
173.4288953456
  0
ARC
  5
11E
330
1F
100
AcDbEntity
  8
0
  6
Continuous
 62
     7
100
AcDbCircle
 10
60.011925573
 20
213.2849643183
 30
0.0
 40
10.781328453033
100
AcDbArc
 50
5.6617152556
 51
14.7665656942
  0
LINE
  5
11F
330
1F
100
AcDbEntity
  8
0
  6
Continuous
 62
     7
100
AcDbLine
 10
70.740659609
 20
214.3485945154
 30
0.0
 11
70.7740174592
 21
214.0064611588
 31
0.0
  0
LINE
  5
120
330
1F
100
AcDbEntity
  8
0
  6
Continuous
 62
     7
100
AcDbLine
 10
70.7740174592
 20
214.0064611588
 30
0.0
 11
70.1163635521
 21
213.657100228
 31
0.0
  0
LINE
  5
121
330
1F
100
AcDbEntity
  8
0
  6
Continuous
 62
     7
100
AcDbLine
 10
70.1163635521
 20
213.657100228
 30
0.0
 11
69.8515417802
 21
213.8762746084
 31
0.0
  0
ARC
  5
122
330
1F
100
AcDbEntity
  8
0
  6
Continuous
 62
     7
100
AcDbCircle
 10
76.7390562997
 20
222.170802139
 30
0.0
 40
10.7813284530526
100
AcDbArc
 50
221.1899767904
 51
230.294827229
  0
ARC
  5
123
330
1F
100
AcDbEntity
  8
0
  6
Continuous
 62
     7
100
AcDbCircle
 10
68.4470956873
 20
214.727016279
 30
0.0
 40
0.3873361838990111
100
AcDbArc
 50
62.527647139
 51
116.527647139
  0
LINE
  5
124
330
1F
100
AcDbEntity
  8
0
  6
Continuous
 62
     7
100
AcDbLine
 10
68.2740998836
 20
215.0735733036
 30
0.0
 11
67.9397038978
 21
214.914230239
 31
0.0
  0
ARC
  5
125
330
1F
100
AcDbEntity
  8
0
  6
Continuous
 62
     7
100
AcDbCircle
 10
68.0998920647
 20
214.5615702462
 30
0.0
 40
0.3873361838989856
100
AcDbArc
 50
114.4288953456
 51
168.4288953456
  0
ARC
  5
126
330
1F
100
AcDbEntity
  8
0
  6
Continuous
 62
     7
100
AcDbCircle
 10
57.0953526474
 20
212.8103789545
 30
0.0
 40
10.78132845304989
100
AcDbArc
 50
0.6617152556
 51
9.7665656942
  0
LINE
  5
127
330
1F
100
AcDbEntity
  8
0
  6
Continuous
 62
     7
100
AcDbLine
 10
67.8759620912
 20
212.9348909339
 30
0.0
 11
67.8793741179
 21
212.5911521698
 31
0.0
  0
LINE
  5
128
330
1F
100
AcDbEntity
  8
0
  6
Continuous
 62
     7
100
AcDbLine
 10
67.8793741179
 20
212.5911521698
 30
0.0
 11
67.193773971
 21
212.3004389775
 31
0.0
  0
LINE
  5
129
330
1F
100
AcDbEntity
  8
0
  6
Continuous
 62
     7
100
AcDbLine
 10
67.193773971
 20
212.3004389775
 30
0.0
 11
66.9490622318
 21
212.5418600715
 31
0.0
  0
ARC
  5
12A
330
1F
100
AcDbEntity
  8
0
  6
Continuous
 62
     7
100
AcDbCircle
 10
74.5332833869
 20
220.204537977
 30
0.0
 40
10.78132845305348
100
AcDbArc
 50
216.1899767904
 51
225.294827229
  0
ARC
  5
12B
330
1F
100
AcDbEntity
  8
0
  6
Continuous
 62
     7
100
AcDbCircle
 10
65.6241075025
 20
213.5117699556
 30
0.0
 40
0.3873361838989802
100
AcDbArc
 50
57.527647139
 51
111.527647139
  0
LINE
  5
12C
330
1F
100
AcDbEntity
  8
0
  6
Continuous
 62
     7
100
AcDbLine
 10
65.4819744349
 20
213.8720858038
 30
0.0
 11
65.1349632637
 21
213.7424936183
 31
0.0
  0
ARC
  5
12D
330
1F
100
AcDbEntity
  8
0
  6
Continuous
 62
     7
100
AcDbCircle
 10
65.2638055226
 20
213.3772142845
 30
0.0
 40
0.3873361838989894
100
AcDbArc
 50
109.4288953456
 51
163.4288953456
  0
ARC
  5
12E
330
1F
100
AcDbEntity
  8
0
  6
Continuous
 62
     7
100
AcDbCircle
 10
54.1485153225
 20
212.5917956109
 30
0.0
 40
10.78132845303837
100
AcDbArc
 50
355.6617152556
 51
4.7665656942
  0
LINE
  5
12F
330
1F
100
AcDbEntity
  8
0
  6
Continuous
 62
     7
100
AcDbLine
 10
64.8989532266
 20
211.7762417613
 30
0.0
 11
64.8723934622
 21
211.4335136492
 31
0.0
  0
LINE
  5
130
330
1F
100
AcDbEntity
  8
0
  6
Continuous
 62
     7
100
AcDbLine
 10
64.8723934622
 20
211.4335136492
 30
0.0
 11
64.1640649067
 21
211.2036606984
 31
0.0
  0
LINE
  5
131
330
1F
100
AcDbEntity
  8
0
  6
Continuous
 62
     7
100
AcDbLine
 10
64.1640649067
 20
211.2036606984
 30
0.0
 11
63.9413256043
 21
211.4654911456
 31
0.0
  0
ARC
  5
132
330
1F
100
AcDbEntity
  8
0
  6
Continuous
 62
     7
100
AcDbCircle
 10
72.1645328924
 20
218.4380018203
 30
0.0
 40
10.78132845302526
100
AcDbArc
 50
211.1899767904
 51
220.294827229
  0
ARC
  5
133
330
1F
100
AcDbEntity
  8
0
  6
Continuous
 62
     7
100
AcDbCircle
 10
62.7059459441
 20
212.5471876434
 30
0.0
 40
0.3873361838990038
100
AcDbArc
 50
52.527647139
 51
106.527647139
  0
LINE
  5
134
330
1F
100
AcDbEntity
  8
0
  6
Continuous
 62
     7
100
AcDbLine
 10
62.5957573311
 20
212.918520094
 30
0.0
 11
62.238771939
 21
212.8196650623
 31
0.0
  0
ARC
  5
135
330
1F
100
AcDbEntity
  8
0
  6
Continuous
 62
     7
100
AcDbCircle
 10
62.3352877226
 20
212.4445463839
 30
0.0
 40
0.387336183898997
100
AcDbArc
 50
104.4288953456
 51
158.4288953456
  0
ARC
  5
136
330
1F
100
AcDbEntity
  8
0
  6
Continuous
 62
     7
100
AcDbCircle
 10
51.1938408096
 20
212.6308778387
 30
0.0
 40
10.78132845304136
100
AcDbArc
 50
350.6617152556
 51
359.7665656942
  0
LINE
  5
137
330
1F
100
AcDbEntity
  8
0
  6
Continuous
 62
     7
100
AcDbLine
 10
61.8322898503
 20
210.8814650173
 30
0.0
 11
61.7759604307
 21
210.5423559251
 31
0.0
  0
LINE
  5
138
330
1F
100
AcDbEntity
  8
0
  6
Continuous
 62
     7
100
AcDbLine
 10
61.7759604307
 20
210.5423559251
 30
0.0
 11
61.0502942746
 21
210.3751125356
 31
0.0
  0
LINE
  5
139
330
1F
100
AcDbEntity
  8
0
  6
Continuous
 62
     7
100
AcDbLine
 10
61.0502942746
 20
210.3751125356
 30
0.0
 11
60.8512225896
 21
210.6553596482
 31
0.0
  0
ARC
  5
13A
330
1F
100
AcDbEntity
  8
0
  6
Continuous
 62
     7
100
AcDbCircle
 10
69.650832438
 20
216.8846380758
 30
0.0
 40
10.78132845305159
100
AcDbArc
 50
206.1899767904
 51
215.294827229
  0
ARC
  5
13B
330
1F
100
AcDbEntity
  8
0
  6
Continuous
 62
     7
100
AcDbCircle
 10
59.7148199836
 20
211.8406103961
 30
0.0
 40
0.3873361838990118
100
AcDbArc
 50
47.527647139
 51
101.527647139
  0
LINE
  5
13C
330
1F
100
AcDbEntity
  8
0
  6
Continuous
 62
     7
100
AcDbLine
 10
59.6374144271
 20
212.2201333851
 30
0.0
 11
59.2731716884
 21
212.1527678536
 31
0.0
  0
ARC
  5
13D
330
1F
100
AcDbEntity
  8
0
  6
Continuous
 62
     7
100
AcDbCircle
 10
59.3366264533
 20
211.7706647102
 30
0.0
 40
0.3873361838989748
100
AcDbArc
 50
99.4288953456
 51
153.4288953456
  0
ARC
  5
13E
330
1F
100
AcDbEntity
  8
0
  6
Continuous
 62
     7
100
AcDbCircle
 10
48.2538159658
 20
212.9273281986
 30
0.0
 40
10.78132845303127
100
AcDbArc
 50
345.6617152556
 51
354.7665656942
  0
LINE
  5
13F
330
1F
100
AcDbEntity
  8
0
  6
Continuous
 62
     7
100
AcDbLine
 10
58.6993111223
 20
210.2573704933
 30
0.0
 11
58.6136407483
 21
209.924461246
 31
0.0
  0
LINE
  5
140
330
1F
100
AcDbEntity
  8
0
  6
Continuous
 62
     7
100
AcDbLine
 10
58.6136407483
 20
209.924461246
 30
0.0
 11
57.8761597492
 21
209.8211002409
 31
0.0
  0
LINE
  5
141
330
1F
100
AcDbEntity
  8
0
  6
Continuous
 62
     7
100
AcDbLine
 10
57.8761597492
 20
209.8211002409
 30
0.0
 11
57.7022707373
 21
210.1176311692
 31
0.0
  0
ARC
  5
142
330
1F
100
AcDbEntity
  8
0
  6
Continuous
 62
     7
100
AcDbCircle
 10
67.0113128017
 20
215.5562687795
 30
0.0
 40
10.78132845305386
100
AcDbArc
 50
201.1899767904
 51
210.294827229
  0
ARC
  5
143
330
1F
100
AcDbEntity
  8
0
  6
Continuous
 62
     7
100
AcDbCircle
 10
56.6734938956
 20
211.3974156933
 30
0.0
 40
0.3873361838990044
100
AcDbArc
 50
42.527647139
 51
96.527647139
  0
LINE
  5
144
330
1F
100
AcDbEntity
  8
0
  6
Continuous
 62
     7
100
AcDbLine
 10
56.6294604986
 20
211.7822408215
 30
0.0
 11
56.2607325206
 21
211.7468774826
 31
0.0
  0
ARC
  5
145
330
1F
100
AcDbEntity
  8
0
  6
Continuous
 62
     7
100
AcDbCircle
 10
56.2906433377
 20
211.3606979099
 30
0.0
 40
0.3873361838990064
100
AcDbArc
 50
94.4288953456
 51
148.4288953456
  0
ARC
  5
146
330
1F
100
AcDbEntity
  8
0
  6
Continuous
 62
     7
100
AcDbCircle
 10
45.3508161555
 20
213.4788905243
 30
0.0
 40
10.78132845304012
100
AcDbArc
 50
340.6617152556
 51
349.7665656942
  0
LINE
  5
147
330
1F
100
AcDbEntity
  8
0
  6
Continuous
 62
     7
100
AcDbLine
 10
55.5238609025
 20
209.9087079254
 30
0.0
 11
55.4095015774
 21
209.5845321634
 31
0.0
  0
LINE
  5
148
330
1F
100
AcDbEntity
  8
0
  6
Continuous
 62
     7
100
AcDbLine
 10
55.4095015774
 20
209.5845321634
 30
0.0
 11
54.6658184109
 21
209.5458401824
 31
0.0
  0
LINE
  5
149
330
1F
100
AcDbEntity
  8
0
  6
Continuous
 62
     7
100
AcDbLine
 10
54.6658184109
 20
209.5458401824
 30
0.0
 11
54.5184354725
 21
209.856398147
 31
0.0
  0
ARC
  5
14A
330
1F
100
AcDbEntity
  8
0
  6
Continuous
 62
     7
100
AcDbCircle
 10
64.2660623218
 20
214.4630036238
 30
0.0
 40
10.78132845303452
100
AcDbArc
 50
196.1899767904
 51
205.294827229
  0
ARC
  5
14B
330
1F
100
AcDbEntity
  8
0
  6
Continuous
 62
     7
100
AcDbCircle
 10
53.6051140081
 20
211.2209765143
 30
0.0
 40
0.3873361838990019
100
AcDbArc
 50
37.527647139
 51
91.527647139
  0
LINE
  5
14C
330
1F
100
AcDbEntity
  8
0
  6
Continuous
 62
     7
100
AcDbLine
 10
53.5947878914
 20
211.6081750302
 30
0.0
 11
53.2243809165
 21
211.6050830202
 31
0.0
  0
ARC
  5
14D
330
1F
100
AcDbEntity
  8
0
  6
Continuous
 62
     7
100
AcDbCircle
 10
53.2205201464
 20
211.2177660779
 30
0.0
 40
0.387336183899004
100
AcDbArc
 50
89.4288953456
 51
143.4288953456
  0
ARC
  5
14E
330
1F
100
AcDbEntity
  8
0
  6
Continuous
 62
     7
100
AcDbCircle
 10
42.5069349601
 20
214.2813670935
 30
0.0
 40
10.78132845304357
100
AcDbArc
 50
335.6617152556
 51
344.7665656942
  0
LINE
  5
14F
330
1F
100
AcDbEntity
  8
0
  6
Continuous
 62
     7
100
AcDbLine
 10
52.3301062843
 20
209.8381308463
 30
0.0
 11
52.1879283517
 21
209.5251557429
 31
0.0
  0
LINE
  5
150
330
1F
100
AcDbEntity
  8
0
  6
Continuous
 62
     7
100
AcDbLine
 10
52.1879283517
 20
209.5251557429
 30
0.0
 11
51.4437028959
 21
209.5514272553
 31
0.0
  0
LINE
  5
151
330
1F
100
AcDbEntity
  8
0
  6
Continuous
 62
     7
100
AcDbLine
 10
51.4437028959
 20
209.5514272553
 30
0.0
 11
51.3239477041
 21
209.8736487225
 31
0.0
  0
ARC
  5
152
330
1F
100
AcDbEntity
  8
0
  6
Continuous
 62
     7
100
AcDbCircle
 10
61.4359740123
 20
213.6131630166
 30
0.0
 40
10.78132845304861
100
AcDbArc
 50
191.1899767904
 51
200.294827229
  0
ARC
  5
153
330
1F
100
AcDbEntity
  8
0
  6
Continuous
 62
     7
100
AcDbCircle
 10
50.5330325447
 20
211.3126356678
 30
0.0
 40
0.3873361838989948
100
AcDbArc
 50
32.527647139
 51
86.527647139
  0
LINE
  5
154
330
1F
100
AcDbEntity
  8
0
  6
Continuous
 62
     7
100
AcDbLine
 10
50.5564922962
 20
211.6992607568
 30
0.0
 11
50.1872253454
 21
211.7284636079
 31
0.0
  0
ARC
  5
155
330
1F
100
AcDbEntity
  8
0
  6
Continuous
 62
     7
100
AcDbCircle
 10
50.1496223708
 20
211.3429570118
 30
0.0
 40
0.3873361838989773
100
AcDbArc
 50
84.4288953456
 51
138.4288953456
  0
ARC
  5
156
330
1F
100
AcDbEntity
  8
0
  6
Continuous
 62
     7
100
AcDbCircle
 10
39.7438160327
 20
215.3286505749
 30
0.0
 40
10.78132845304268
100
AcDbArc
 50
330.6617152556
 51
339.7665656942
  0
LINE
  5
157
330
1F
100
AcDbEntity
  8
0
  6
Continuous
 62
     7
100
AcDbLine
 10
49.142353669
 20
210.0461763903
 30
0.0
 11
48.9734391887
 21
209.7467838749
 31
0.0
  0
LINE
  5
158
330
1F
100
AcDbEntity
  8
0
  6
Continuous
 62
     7
100
AcDbLine
 10
48.9734391887
 20
209.7467838749
 30
0.0
 11
48.2343354486
 21
209.8378189386
 31
0.0
  0
LINE
  5
159
330
1F
100
AcDbEntity
  8
0
  6
Continuous
 62
     7
100
AcDbLine
 10
48.2343354486
 20
209.8378189386
 30
0.0
 11
48.1431194128
 21
210.1692516086
 31
0.0
  0
ARC
  5
15A
330
1F
100
AcDbEntity
  8
0
  6
Continuous
 62
     7
100
AcDbCircle
 10
58.5425865538
 20
213.0132147582
 30
0.0
 40
10.78132845306703
100
AcDbArc
 50
186.1899767904
 51
195.2948272289
  0
ARC
  5
15B
330
1F
100
AcDbEntity
  8
0
  6
Continuous
 62
     7
100
AcDbCircle
 10
47.4806299004
 20
211.6716955723
 30
0.0
 40
0.3873361838989972
100
AcDbArc
 50
27.527647139
 51
81.527647139
  0
LINE
  5
15C
330
1F
100
AcDbEntity
  8
0
  6
Continuous
 62
     7
100
AcDbLine
 10
47.5376969773
 20
212.054804784
 30
0.0
 11
47.1723803948
 21
212.1160802448
 31
0.0
  0
ARC
  5
15D
330
1F
100
AcDbEntity
  8
0
  6
Continuous
 62
     7
100
AcDbCircle
 10
47.1013213972
 20
211.7353179328
 30
0.0
 40
0.3873361838989938
100
AcDbArc
 50
79.4288953456
 51
133.4288953456
  0
ARC
  5
15E
330
1F
100
AcDbEntity
  8
0
  6
Continuous
 62
     7
100
AcDbCircle
 10
37.0824883767
 20
216.6127705089
 30
0.0
 40
10.78132845303929
100
AcDbArc
 50
325.6617152556
 51
334.7665656942
  0
LINE
  5
15F
330
1F
100
AcDbEntity
  8
0
  6
Continuous
 62
     7
100
AcDbLine
 10
45.9848637786
 20
210.531261205
 30
0.0
 11
45.7904982919
 21
210.2477298355
 31
0.0
  0
LINE
  5
160
330
1F
100
AcDbEntity
  8
0
  6
Continuous
 62
     7
100
AcDbLine
 10
45.7904982919
 20
210.2477298355
 30
0.0
 11
45.0621412933
 21
210.4028356187
 31
0.0
  0
LINE
  5
161
330
1F
100
AcDbEntity
  8
0
  6
Continuous
 62
     7
100
AcDbLine
 10
45.0621412933
 20
210.4028356187
 30
0.0
 11
45.0001586226
 21
210.7409570887
 31
0.0
  0
ARC
  5
162
330
1F
100
AcDbEntity
  8
0
  6
Continuous
 62
     7
100
AcDbCircle
 10
55.607920372
 20
212.6677248171
 30
0.0
 40
10.78132845305472
100
AcDbArc
 50
181.1899767904
 51
190.294827229
  0
ARC
  5
163
330
1F
100
AcDbEntity
  8
0
  6
Continuous
 62
     7
100
AcDbCircle
 10
44.4711367024
 20
212.295423565
 30
0.0
 40
0.3873361838989973
100
AcDbArc
 50
22.527647139
 51
76.527647139
  0
LINE
  5
164
330
1F
100
AcDbEntity
  8
0
  6
Continuous
 62
     7
100
AcDbLine
 10
44.5613767897
 20
212.672101207
 30
0.0
 11
44.2027908554
 21
212.7649829343
 31
0.0
  0
ARC
  5
165
330
1F
100
AcDbEntity
  8
0
  6
Continuous
 62
     7
100
AcDbCircle
 10
44.0988166366
 20
212.3918627376
 30
0.0
 40
0.3873361838989934
100
AcDbArc
 50
74.4288953456
 51
128.4288953456
  0
ARC
  5
166
330
1F
100
AcDbEntity
  8
0
  6
Continuous
 62
     7
100
AcDbCircle
 10
34.5432063025
 20
218.1239539675
 30
0.0
 40
10.78132845304844
100
AcDbArc
 50
320.6617152556
 51
329.7665656942
  0
LINE
  5
167
330
1F
100
AcDbEntity
  8
0
  6
Continuous
 62
     7
100
AcDbLine
 10
42.8816670179
 20
211.2896935021
 30
0.0
 11
42.6633297635
 21
211.0241811235
 31
0.0
  0
LINE
  5
168
330
1F
100
AcDbEntity
  8
0
  6
Continuous
 62
     7
100
AcDbLine
 10
42.6633297635
 20
211.0241811235
 30
0.0
 11
41.9512627428
 21
211.2421771776
 31
0.0
  0
LINE
  5
169
330
1F
100
AcDbEntity
  8
0
  6
Continuous
 62
     7
100
AcDbLine
 10
41.9512627428
 20
211.2421771776
 30
0.0
 11
41.9189851628
 21
211.5844141389
 31
0.0
  0
ARC
  5
16A
330
1F
100
AcDbEntity
  8
0
  6
Continuous
 62
     7
100
AcDbCircle
 10
52.6543100487
 20
212.5793225803
 30
0.0
 40
10.78132845303846
100
AcDbArc
 50
176.1899767904
 51
185.294827229
  0
ARC
  5
16B
330
1F
100
AcDbEntity
  8
0
  6
Continuous
 62
     7
100
AcDbCircle
 10
41.527457011
 20
213.1790726994
 30
0.0
 40
0.3873361838990109
100
AcDbArc
 50
17.527647139
 51
71.527647139
  0
LINE
  5
16C
330
1F
100
AcDbEntity
  8
0
  6
Continuous
 62
     7
100
AcDbLine
 10
41.6501833272
 20
213.5464520274
 30
0.0
 11
41.3010570966
 21
213.6702331351
 31
0.0
  0
ARC
  5
16D
330
1F
100
AcDbEntity
  8
0
  6
Continuous
 62
     7
100
AcDbCircle
 10
41.1649589633
 20
213.3075947237
 30
0.0
 40
0.3873361838990019
100
AcDbArc
 50
69.4288953456
 51
123.4288953456
  0
ARC
  5
16E
330
1F
100
AcDbEntity
  8
0
  6
Continuous
 62
     7
100
AcDbCircle
 10
32.1452952799
 20
219.850699932
 30
0.0
 40
10.78132845306204
100
AcDbArc
 50
315.6617152556
 51
324.7665656942
  0
LINE
  5
16F
330
1F
100
AcDbEntity
  8
0
  6
Continuous
 62
     7
100
AcDbLine
 10
39.856380588
 20
212.3157011539
 30
0.0
 11
39.6157332441
 21
212.0702284756
 31
0.0
  0
LINE
  5
170
330
1F
100
AcDbEntity
  8
0
  6
Continuous
 62
     7
100
AcDbLine
 10
39.6157332441
 20
212.0702284756
 30
0.0
 11
38.9253754615
 21
212.349455719
 31
0.0
  0
LINE
  5
171
330
1F
100
AcDbEntity
  8
0
  6
Continuous
 62
     7
100
AcDbLine
 10
38.9253754615
 20
212.349455719
 30
0.0
 11
38.9230486239
 21
212.6932035419
 31
0.0
  0
ARC
  5
172
330
1F
100
AcDbEntity
  8
0
  6
Continuous
 62
     7
100
AcDbCircle
 10
49.7042343417
 20
212.7486808422
 30
0.0
 40
10.78132845305761
100
AcDbArc
 50
171.1899767904
 51
180.294827229
  0
ARC
  5
173
330
1F
100
AcDbEntity
  8
0
  6
Continuous
 62
     7
100
AcDbCircle
 10
38.6719940063
 20
214.315917872
 30
0.0
 40
0.387336183898982
100
AcDbArc
 50
12.527647139
 51
66.527647139
  0
LINE
  5
174
330
1F
100
AcDbEntity
  8
0
  6
Continuous
 62
     7
100
AcDbLine
 10
38.8262725299
 20
214.6712029075
 30
0.0
 11
38.4892630644
 21
214.8249413467
 31
0.0
  0
ARC
  5
175
330
1F
100
AcDbEntity
  8
0
  6
Continuous
 62
     7
100
AcDbCircle
 10
38.3220768055
 20
214.4755446178
 30
0.0
 40
0.3873361838990071
100
AcDbArc
 50
64.4288953456
 51
118.4288953456
  0
ARC
  5
176
330
1F
100
AcDbEntity
  8
0
  6
Continuous
 62
     7
100
AcDbCircle
 10
29.9070048599
 20
221.779866823
 30
0.0
 40
10.78132845304351
100
AcDbArc
 50
310.6617152556
 51
319.7665656942
  0
LINE
  5
177
330
1F
100
AcDbEntity
  8
0
  6
Continuous
 62
     7
100
AcDbLine
 10
36.9320287452
 20
213.6014756227
 30
0.0
 11
36.6709027835
 21
213.3779108401
 31
0.0
  0
LINE
  5
178
330
1F
100
AcDbEntity
  8
0
  6
Continuous
 62
     7
100
AcDbLine
 10
36.6709027835
 20
213.3779108401
 30
0.0
 11
36.0075082785
 21
213.7162441848
 31
0.0
  0
LINE
  5
179
330
1F
100
AcDbEntity
  8
0
  6
Continuous
 62
     7
100
AcDbLine
 10
36.0075082785
 20
213.7162441848
 30
0.0
 11
36.035149892
 21
214.0588867407
 31
0.0
  0
ARC
  5
17A
330
1F
100
AcDbEntity
  8
0
  6
Continuous
 62
     7
100
AcDbCircle
 10
46.7801451086
 20
213.1745106842
 30
0.0
 40
10.78132845305189
100
AcDbArc
 50
166.1899767904
 51
175.294827229
  0
ARC
  5
17B
330
1F
100
AcDbEntity
  8
0
  6
Continuous
 62
     7
100
AcDbCircle
 10
35.9264794857
 20
215.6973070045
 30
0.0
 40
0.3873361838989949
100
AcDbArc
 50
7.527647139
 51
61.527647139
  0
LINE
  5
17C
330
1F
100
AcDbEntity
  8
0
  6
Continuous
 62
     7
100
AcDbLine
 10
36.1111360642
 20
216.0377938139
 30
0.0
 11
35.7888082093
 21
216.2203195422
 31
0.0
  0
ARC
  5
17D
330
1F
100
AcDbEntity
  8
0
  6
Continuous
 62
     7
100
AcDbCircle
 10
35.5918062131
 20
215.8868236159
 30
0.0
 40
0.3873361838990056
100
AcDbArc
 50
59.4288953456
 51
113.4288953456
  0
ARC
  5
17E
330
1F
100
AcDbEntity
  8
0
  6
Continuous
 62
     7
100
AcDbCircle
 10
27.8453697839
 20
223.8967725155
 30
0.0
 40
10.78132845305708
100
AcDbArc
 50
305.6617152556
 51
314.7665656942
  0
LINE
  5
17F
330
1F
100
AcDbEntity
  8
0
  6
Continuous
 62
     7
100
AcDbLine
 10
34.1308675729
 20
215.1372313884
 30
0.0
 11
33.8512503196
 21
214.9372759644
 31
0.0
  0
LINE
  5
180
330
1F
100
AcDbEntity
  8
0
  6
Continuous
 62
     7
100
AcDbLine
 10
33.8512503196
 20
214.9372759644
 30
0.0
 11
33.2198679249
 21
215.3321404894
 31
0.0
  0
LINE
  5
181
330
1F
100
AcDbEntity
  8
0
  6
Continuous
 62
     7
100
AcDbLine
 10
33.2198679249
 20
215.3321404894
 30
0.0
 11
33.2772676203
 21
215.6710700616
 31
0.0
  0
ARC
  5
182
330
1F
100
AcDbEntity
  8
0
  6
Continuous
 62
     7
100
AcDbCircle
 10
43.9042964339
 20
213.853571284
 30
0.0
 40
10.78132845305605
100
AcDbArc
 50
161.1899767904
 51
170.294827229
  0
ARC
  5
183
330
1F
100
AcDbEntity
  8
0
  6
Continuous
 62
     7
100
AcDbCircle
 10
33.3118084727
 20
217.3127268916
 30
0.0
 40
0.3873361838989903
100
AcDbArc
 50
2.527647139
 51
56.527647139
  0
LINE
  5
184
330
1F
100
AcDbEntity
  8
0
  6
Continuous
 62
     7
100
AcDbLine
 10
33.5254377579
 20
217.6358241646
 30
0.0
 11
33.2202446232
 21
217.845748051
 31
0.0
  0
ARC
  5
185
330
1F
100
AcDbEntity
  8
0
  6
Continuous
 62
     7
100
AcDbCircle
 10
32.994926194
 20
217.5306910327
 30
0.0
 40
0.3873361838989953
100
AcDbArc
 50
54.4288953456
 51
108.4288953456
  0
ARC
  5
186
330
1F
100
AcDbEntity
  8
0
  6
Continuous
 62
     7
100
AcDbCircle
 10
25.9760803398
 20
226.1853060792
 30
0.0
 40
10.78132845305331
100
AcDbArc
 50
300.6617152556
 51
309.7665656942
  0
LINE
  5
187
330
1F
100
AcDbEntity
  8
0
  6
Continuous
 62
     7
100
AcDbLine
 10
31.474215599
 20
216.9112804223
 30
0.0
 11
31.1782351103
 21
216.7364561384
 31
0.0
  0
LINE
  5
188
330
1F
100
AcDbEntity
  8
0
  6
Continuous
 62
     7
100
AcDbLine
 10
31.1782351103
 20
216.7364561384
 30
0.0
 11
30.5836700272
 21
217.1848466862
 31
0.0
  0
LINE
  5
189
330
1F
100
AcDbEntity
  8
0
  6
Continuous
 62
     7
100
AcDbLine
 10
30.5836700272
 20
217.1848466862
 30
0.0
 11
30.670390958
 21
217.517483816
 31
0.0
  0
ARC
  5
18A
330
1F
100
AcDbEntity
  8
0
  6
Continuous
 62
     7
100
AcDbCircle
 10
41.0985752627
 20
214.7806945805
 30
0.0
 40
10.78132845305429
100
AcDbArc
 50
156.1899767904
 51
165.294827229
  0
ARC
  5
18B
330
1F
100
AcDbEntity
  8
0
  6
Continuous
 62
     7
100
AcDbCircle
 10
30.8478801923
 20
219.1498832125
 30
0.0
 40
0.3873361838989976
100
AcDbArc
 50
357.527647139
 51
51.527647139
  0
LINE
  5
18C
330
1F
100
AcDbEntity
  8
0
  6
Continuous
 62
     7
100
AcDbLine
 10
31.0888563365
 20
219.4531319838
 30
0.0
 11
30.803120626
 21
219.6888563808
 31
0.0
  0
ARC
  5
18D
330
1F
100
AcDbEntity
  8
0
  6
Continuous
 62
     7
100
AcDbCircle
 10
30.551200573
 20
219.3946360446
 30
0.0
 40
0.3873361838989936
100
AcDbArc
 50
49.4288953456
 51
103.4288953456
  0
ARC
  5
18E
330
1F
100
AcDbEntity
  8
0
  6
Continuous
 62
     7
100
AcDbCircle
 10
24.3133629489
 20
228.6280503915
 30
0.0
 40
10.78132845304083
100
AcDbArc
 50
295.6617152556
 51
304.7665656942
  0
LINE
  5
18F
330
1F
100
AcDbEntity
  8
0
  6
Continuous
 62
     7
100
AcDbLine
 10
28.9822915491
 20
218.9101211399
 30
0.0
 11
28.6722004152
 21
218.7617585146
 31
0.0
  0
LINE
  5
190
330
1F
100
AcDbEntity
  8
0
  6
Continuous
 62
     7
100
AcDbLine
 10
28.6722004152
 20
218.7617585146
 30
0.0
 11
28.118977643
 21
219.2602625625
 31
0.0
  0
LINE
  5
191
330
1F
100
AcDbEntity
  8
0
  6
Continuous
 62
     7
100
AcDbLine
 10
28.118977643
 20
219.2602625625
 30
0.0
 11
28.2343598106
 21
219.5840756804
 31
0.0
  0
ARC
  5
192
330
1F
100
AcDbEntity
  8
0
  6
Continuous
 62
     7
100
AcDbCircle
 10
38.3843348271
 20
215.9488246056
 30
0.0
 40
10.78132845302677
100
AcDbArc
 50
151.1899767904
 51
160.294827229
  0
ARC
  5
193
330
1F
100
AcDbEntity
  8
0
  6
Continuous
 62
     7
100
AcDbCircle
 10
28.5534466267
 20
221.1947940983
 30
0.0
 40
0.3873361838989989
100
AcDbArc
 50
352.527647139
 51
46.527647139
  0
LINE
  5
194
330
1F
100
AcDbEntity
  8
0
  6
Continuous
 62
     7
100
AcDbLine
 10
28.8199356557
 20
221.4758864617
 30
0.0
 11
28.5558319908
 21
221.7356173642
 31
0.0
  0
ARC
  5
195
330
1F
100
AcDbEntity
  8
0
  6
Continuous
 62
     7
100
AcDbCircle
 10
28.2792275777
 20
221.4644729045
 30
0.0
 40
0.3873361838990216
100
AcDbArc
 50
44.4288953456
 51
98.4288953456
  0
ARC
  5
196
330
1F
100
AcDbEntity
  8
0
  6
Continuous
 62
     7
100
AcDbCircle
 10
22.8698718946
 20
231.2064146935
 30
0.0
 40
10.78132845305104
100
AcDbArc
 50
290.6617152556
 51
299.7665656942
  0
LINE
  5
197
330
1F
100
AcDbEntity
  8
0
  6
Continuous
 62
     7
100
AcDbLine
 10
26.67406047
 20
221.1185411567
 30
0.0
 11
26.3522186717
 21
220.997769319
 31
0.0
  0
LINE
  5
198
330
1F
100
AcDbEntity
  8
0
  6
Continuous
 62
     7
100
AcDbLine
 10
26.3522186717
 20
220.997769319
 30
0.0
 11
25.8445485697
 21
221.5425929501
 31
0.0
  0
LINE
  5
199
330
1F
100
AcDbEntity
  8
0
  6
Continuous
 62
     7
100
AcDbLine
 10
25.8445485697
 20
221.5425929501
 30
0.0
 11
25.987713846
 21
221.8551176428
 31
0.0
  0
ARC
  5
19A
330
1F
100
AcDbEntity
  8
0
  6
Continuous
 62
     7
100
AcDbCircle
 10
35.7822321358
 20
217.3490711845
 30
0.0
 40
10.78132845305684
100
AcDbArc
 50
146.1899767904
 51
155.294827229
  0
ARC
  5
19B
330
1F
100
AcDbEntity
  8
0
  6
Continuous
 62
     7
100
AcDbCircle
 10
26.4459698006
 20
223.4318965424
 30
0.0
 40
0.3873361838989987
100
AcDbArc
 50
347.527647139
 51
41.527647139
  0
LINE
  5
19C
330
1F
100
AcDbEntity
  8
0
  6
Continuous
 62
     7
100
AcDbLine
 10
26.7359435721
 20
223.6886932152
 30
0.0
 11
26.4954819411
 21
223.9704539143
 31
0.0
  0
ARC
  5
19D
330
1F
100
AcDbEntity
  8
0
  6
Continuous
 62
     7
100
AcDbCircle
 10
26.1962982945
 20
223.7244489042
 30
0.0
 40
0.3873361838989973
100
AcDbArc
 50
39.4288953456
 51
93.4288953456
  0
ARC
  5
19E
330
1F
100
AcDbEntity
  8
0
  6
Continuous
 62
     7
100
AcDbCircle
 10
21.6565930153
 20
233.9007760759
 30
0.0
 40
10.78132845304809
100
AcDbArc
 50
285.6617152556
 51
294.7665656942
  0
LINE
  5
19F
330
1F
100
AcDbEntity
  8
0
  6
Continuous
 62
     7
100
AcDbLine
 10
24.5670893938
 20
223.5197330626
 30
0.0
 11
24.2359463415
 21
223.4274711592
 31
0.0
  0
LINE
  5
1A0
330
1F
100
AcDbEntity
  8
0
  6
Continuous
 62
     7
100
AcDbLine
 10
24.2359463415
 20
223.4274711592
 30
0.0
 11
23.7776925857
 21
224.0144679367
 31
0.0
  0
LINE
  5
1A1
330
1F
100
AcDbEntity
  8
0
  6
Continuous
 62
     7
100
AcDbLine
 10
23.7776925857
 20
224.0144679367
 30
0.0
 11
23.9475513967
 21
224.3133257026
 31
0.0
  0
ARC
  5
1A2
330
1F
100
AcDbEntity
  8
0
  6
Continuous
 62
     7
100
AcDbCircle
 10
33.3120707614
 20
218.9707775951
 30
0.0
 40
10.78132845304284
100
AcDbArc
 50
141.1899767904
 51
150.294827229
  0
ARC
  5
1A3
330
1F
100
AcDbEntity
  8
0
  6
Continuous
 62
     7
100
AcDbCircle
 10
24.5414888851
 20
225.8441648444
 30
0.0
 40
0.3873361838990083
100
AcDbArc
 50
342.527647139
 51
36.527647139
  0
LINE
  5
1A4
330
1F
100
AcDbEntity
  8
0
  6
Continuous
 62
     7
100
AcDbLine
 10
24.8527405237
 20
226.0747114489
 30
0.0
 11
24.6377509848
 21
226.3763575755
 31
0.0
  0
ARC
  5
1A5
330
1F
100
AcDbEntity
  8
0
  6
Continuous
 62
     7
100
AcDbCircle
 10
24.318265073
 20
226.1573642617
 30
0.0
 40
0.3873361838990014
100
AcDbArc
 50
34.4288953456
 51
88.4288953456
  0
ARC
  5
1A6
330
1F
100
AcDbEntity
  8
0
  6
Continuous
 62
     7
100
AcDbCircle
 10
20.682760096
 20
236.6906288216
 30
0.0
 40
10.78132845304336
100
AcDbArc
 50
280.6617152556
 51
289.7665656942
  0
LINE
  5
1A7
330
1F
100
AcDbEntity
  8
0
  6
Continuous
 62
     7
100
AcDbLine
 10
22.6774136427
 20
226.0954223375
 30
0.0
 11
22.339489535
 21
226.0323725372
 31
0.0
  0
LINE
  5
1A8
330
1F
100
AcDbEntity
  8
0
  6
Continuous
 62
     7
100
AcDbLine
 10
22.339489535
 20
226.0323725372
 30
0.0
 11
21.9341397133
 21
226.6570750612
 31
0.0
  0
LINE
  5
1A9
330
1F
100
AcDbEntity
  8
0
  6
Continuous
 62
     7
100
AcDbLine
 10
21.9341397133
 20
226.6570750612
 30
0.0
 11
22.1293993308
 21
226.9399914122
 31
0.0
  0
ARC
  5
1AA
330
1F
100
AcDbEntity
  8
0
  6
Continuous
 62
     7
100
AcDbCircle
 10
30.9926501236
 20
220.8016016725
 30
0.0
 40
10.78132845304453
100
AcDbArc
 50
136.1899767904
 51
145.294827229
  0
ARC
  5
1AB
330
1F
100
AcDbEntity
  8
0
  6
Continuous
 62
     7
100
AcDbCircle
 10
22.8544981302
 20
228.4132401859
 30
0.0
 40
0.3873361838989918
100
AcDbArc
 50
337.527647139
 51
31.527647139
  0
LINE
  5
1AC
330
1F
100
AcDbEntity
  8
0
  6
Continuous
 62
     7
100
AcDbLine
 10
23.1846588228
 20
228.6157821233
 30
0.0
 11
22.9967775763
 21
228.9350179682
 31
0.0
  0
ARC
  5
1AD
330
1F
100
AcDbEntity
  8
0
  6
Continuous
 62
     7
100
AcDbCircle
 10
22.6594208798
 20
228.7447030221
 30
0.0
 40
0.3873361838990053
100
AcDbArc
 50
29.4288953456
 51
83.4288953456
  0
ARC
  5
1AE
330
1F
100
AcDbEntity
  8
0
  6
Continuous
 62
     7
100
AcDbCircle
 10
19.9557845932
 20
239.5547404668
 30
0.0
 40
10.78132845305526
100
AcDbArc
 50
275.6617152556
 51
284.7665656942
  0
LINE
  5
1AF
330
1F
100
AcDbEntity
  8
0
  6
Continuous
 62
     7
100
AcDbLine
 10
21.0194147903
 20
228.8260064308
 30
0.0
 11
20.6772814336
 21
228.7926485806
 31
0.0
  0
LINE
  5
1B0
330
1F
100
AcDbEntity
  8
0
  6
Continuous
 62
     7
100
AcDbLine
 10
20.6772814336
 20
228.7926485806
 30
0.0
 11
20.3279205028
 21
229.4503024876
 31
0.0
  0
LINE
  5
1B1
330
1F
100
AcDbEntity
  8
0
  6
Continuous
 62
     7
100
AcDbLine
 10
20.3279205028
 20
229.4503024876
 30
0.0
 11
20.5470948832
 21
229.7151242595
 31
0.0
  0
ARC
  5
1B2
330
1F
100
AcDbEntity
  8
0
  6
Continuous
 62
     7
100
AcDbCircle
 10
28.8416224138
 20
222.82760974
 30
0.0
 40
10.78132845305954
100
AcDbArc
 50
131.1899767904
 51
140.294827229
  0
ARC
  5
1B3
330
1F
100
AcDbEntity
  8
0
  6
Continuous
 62
     7
100
AcDbCircle
 10
21.3978365539
 20
231.1195703524
 30
0.0
 40
0.3873361838990044
100
AcDbArc
 50
332.527647139
 51
26.527647139
  0
LINE
  5
1B4
330
1F
100
AcDbEntity
  8
0
  6
Continuous
 62
     7
100
AcDbLine
 10
21.7443935784
 20
231.2925661562
 30
0.0
 11
21.5850505139
 21
231.626962142
 31
0.0
  0
ARC
  5
1B5
330
1F
100
AcDbEntity
  8
0
  6
Continuous
 62
     7
100
AcDbCircle
 10
21.232390521
 20
231.4667739751
 30
0.0
 40
0.3873361838989979
100
AcDbArc
 50
24.4288953456
 51
78.4288953456
  0
ARC
  5
1B6
330
1F
100
AcDbEntity
  8
0
  6
Continuous
 62
     7
100
AcDbCircle
 10
19.4811992294
 20
242.4713133924
 30
0.0
 40
10.78132845305194
100
AcDbArc
 50
270.6617152556
 51
279.7665656942
  0
LINE
  5
1B7
330
1F
100
AcDbEntity
  8
0
  6
Continuous
 62
     7
100
AcDbLine
 10
19.6057112088
 20
231.6907039486
 30
0.0
 11
19.2619724446
 21
231.6872919219
 31
0.0
  0
LINE
  5
1B8
330
1F
100
AcDbEntity
  8
0
  6
Continuous
 62
     7
100
AcDbLine
 10
19.2619724446
 20
231.6872919219
 30
0.0
 11
18.9712592524
 21
232.3728920687
 31
0.0
  0
LINE
  5
1B9
330
1F
100
AcDbEntity
  8
0
  6
Continuous
 62
     7
100
AcDbLine
 10
18.9712592524
 20
232.3728920687
 30
0.0
 11
19.2126803463
 21
232.6176038079
 31
0.0
  0
ARC
  5
1BA
330
1F
100
AcDbEntity
  8
0
  6
Continuous
 62
     7
100
AcDbCircle
 10
26.8753582519
 20
225.0333826528
 30
0.0
 40
10.78132845306405
100
AcDbArc
 50
126.1899767904
 51
135.2948272289
  0
ARC
  5
1BB
330
1F
100
AcDbEntity
  8
0
  6
Continuous
 62
     7
100
AcDbCircle
 10
20.1825902305
 20
233.9425585372
 30
0.0
 40
0.3873361838989773
100
AcDbArc
 50
327.527647139
 51
21.527647139
  0
LINE
  5
1BC
330
1F
100
AcDbEntity
  8
0
  6
Continuous
 62
     7
100
AcDbLine
 10
20.5429060786
 20
234.0846916048
 30
0.0
 11
20.4133138931
 21
234.4317027761
 31
0.0
  0
ARC
  5
1BD
330
1F
100
AcDbEntity
  8
0
  6
Continuous
 62
     7
100
AcDbCircle
 10
20.0480345593
 20
234.3028605171
 30
0.0
 40
0.3873361838990191
100
AcDbArc
 50
19.4288953456
 51
73.4288953456
  0
ARC
  5
1BE
330
1F
100
AcDbEntity
  8
0
  6
Continuous
 62
     7
100
AcDbCircle
 10
19.2626158857
 20
245.4181507173
 30
0.0
 40
10.78132845303739
100
AcDbArc
 50
265.6617152556
 51
274.7665656942
  0
LINE
  5
1BF
330
1F
100
AcDbEntity
  8
0
  6
Continuous
 62
     7
100
AcDbLine
 10
18.4470620361
 20
234.6677128132
 30
0.0
 11
18.104333924
 21
234.6942725776
 31
0.0
  0
LINE
  5
1C0
330
1F
100
AcDbEntity
  8
0
  6
Continuous
 62
     7
100
AcDbLine
 10
18.104333924
 20
234.6942725776
 30
0.0
 11
17.8744809733
 21
235.402601133
 31
0.0
  0
LINE
  5
1C1
330
1F
100
AcDbEntity
  8
0
  6
Continuous
 62
     7
100
AcDbLine
 10
17.8744809733
 20
235.402601133
 30
0.0
 11
18.1363114205
 21
235.6253404354
 31
0.0
  0
ARC
  5
1C2
330
1F
100
AcDbEntity
  8
0
  6
Continuous
 62
     7
100
AcDbCircle
 10
25.1088220952
 20
227.4021331473
 30
0.0
 40
10.78132845302716
100
AcDbArc
 50
121.1899767904
 51
130.294827229
  0
ARC
  5
1C3
330
1F
100
AcDbEntity
  8
0
  6
Continuous
 62
     7
100
AcDbCircle
 10
19.2180079182
 20
236.8607200956
 30
0.0
 40
0.3873361838989967
100
AcDbArc
 50
322.527647139
 51
16.527647139
  0
LINE
  5
1C4
330
1F
100
AcDbEntity
  8
0
  6
Continuous
 62
     7
100
AcDbLine
 10
19.5893403689
 20
236.9709087086
 30
0.0
 11
19.4904853371
 21
237.3278941008
 31
0.0
  0
ARC
  5
1C5
330
1F
100
AcDbEntity
  8
0
  6
Continuous
 62
     7
100
AcDbCircle
 10
19.1153666587
 20
237.2313783172
 30
0.0
 40
0.3873361838989904
100
AcDbArc
 50
14.4288953456
 51
68.4288953456
  0
ARC
  5
1C6
330
1F
100
AcDbEntity
  8
0
  6
Continuous
 62
     7
100
AcDbCircle
 10
19.3016981135
 20
248.3728252302
 30
0.0
 40
10.78132845304139
100
AcDbArc
 50
260.6617152556
 51
269.7665656942
  0
LINE
  5
1C7
330
1F
100
AcDbEntity
  8
0
  6
Continuous
 62
     7
100
AcDbLine
 10
17.5522852921
 20
237.7343761894
 30
0.0
 11
17.2131762
 21
237.7907056091
 31
0.0
  0
LINE
  5
1C8
330
1F
100
AcDbEntity
  8
0
  6
Continuous
 62
     7
100
AcDbLine
 10
17.2131762
 20
237.7907056091
 30
0.0
 11
17.0459328105
 21
238.5163717652
 31
0.0
  0
LINE
  5
1C9
330
1F
100
AcDbEntity
  8
0
  6
Continuous
 62
     7
100
AcDbLine
 10
17.0459328105
 20
238.5163717652
 30
0.0
 11
17.3261799231
 21
238.7154434502
 31
0.0
  0
ARC
  5
1CA
330
1F
100
AcDbEntity
  8
0
  6
Continuous
 62
     7
100
AcDbCircle
 10
23.5554583507
 20
229.9158336018
 30
0.0
 40
10.78132845305371
100
AcDbArc
 50
116.1899767904
 51
125.294827229
  0
ARC
  5
1CB
330
1F
100
AcDbEntity
  8
0
  6
Continuous
 62
     7
100
AcDbCircle
 10
18.5114306709
 20
239.8518460561
 30
0.0
 40
0.3873361838990039
100
AcDbArc
 50
317.527647139
 51
11.527647139
  0
LINE
  5
1CC
330
1F
100
AcDbEntity
  8
0
  6
Continuous
 62
     7
100
AcDbLine
 10
18.8909536599
 20
239.9292516126
 30
0.0
 11
18.8235881284
 21
240.2934943513
 31
0.0
  0
ARC
  5
1CD
330
1F
100
AcDbEntity
  8
0
  6
Continuous
 62
     7
100
AcDbCircle
 10
18.441484985
 20
240.2300395865
 30
0.0
 40
0.3873361838989982
100
AcDbArc
 50
9.4288953456
 51
63.4288953456
  0
ARC
  5
1CE
330
1F
100
AcDbEntity
  8
0
  6
Continuous
 62
     7
100
AcDbCircle
 10
19.5981484734
 20
251.3128500739
 30
0.0
 40
10.78132845302973
100
AcDbArc
 50
255.6617152556
 51
264.7665656942
  0
LINE
  5
1CF
330
1F
100
AcDbEntity
  8
0
  6
Continuous
 62
     7
100
AcDbLine
 10
16.9281907681
 20
240.8673549174
 30
0.0
 11
16.5952815209
 21
240.9530252914
 31
0.0
  0
LINE
  5
1D0
330
1F
100
AcDbEntity
  8
0
  6
Continuous
 62
     7
100
AcDbLine
 10
16.5952815209
 20
240.9530252914
 30
0.0
 11
16.4919205157
 21
241.6905062906
 31
0.0
  0
LINE
  5
1D1
330
1F
100
AcDbEntity
  8
0
  6
Continuous
 62
     7
100
AcDbLine
 10
16.4919205157
 20
241.6905062906
 30
0.0
 11
16.7884514441
 21
241.8643953025
 31
0.0
  0
ARC
  5
1D2
330
1F
100
AcDbEntity
  8
0
  6
Continuous
 62
     7
100
AcDbCircle
 10
22.2270890543
 20
232.5553532381
 30
0.0
 40
10.78132845305574
100
AcDbArc
 50
111.1899767904
 51
120.294827229
  0
ARC
  5
1D3
330
1F
100
AcDbEntity
  8
0
  6
Continuous
 62
     7
100
AcDbCircle
 10
18.0682359682
 20
242.8931721441
 30
0.0
 40
0.3873361838990096
100
AcDbArc
 50
312.527647139
 51
6.527647139
  0
LINE
  5
1D4
330
1F
100
AcDbEntity
  8
0
  6
Continuous
 62
     7
100
AcDbLine
 10
18.4530610964
 20
242.9372055411
 30
0.0
 11
18.4176977575
 21
243.3059335191
 31
0.0
  0
ARC
  5
1D5
330
1F
100
AcDbEntity
  8
0
  6
Continuous
 62
     7
100
AcDbCircle
 10
18.0315181848
 20
243.2760227021
 30
0.0
 40
0.3873361838990064
100
AcDbArc
 50
4.4288953456
 51
58.4288953456
  0
ARC
  5
1D6
330
1F
100
AcDbEntity
  8
0
  6
Continuous
 62
     7
100
AcDbCircle
 10
20.1497107991
 20
254.2158498842
 30
0.0
 40
10.78132845304027
100
AcDbArc
 50
250.6617152556
 51
259.7665656942
  0
LINE
  5
1D7
330
1F
100
AcDbEntity
  8
0
  6
Continuous
 62
     7
100
AcDbLine
 10
16.5795282003
 20
244.0428051373
 30
0.0
 11
16.2553524382
 21
244.1571644624
 31
0.0
  0
LINE
  5
1D8
330
1F
100
AcDbEntity
  8
0
  6
Continuous
 62
     7
100
AcDbLine
 10
16.2553524382
 20
244.1571644624
 30
0.0
 11
16.2166604572
 21
244.9008476288
 31
0.0
  0
LINE
  5
1D9
330
1F
100
AcDbEntity
  8
0
  6
Continuous
 62
     7
100
AcDbLine
 10
16.2166604572
 20
244.9008476288
 30
0.0
 11
16.5272184218
 21
245.0482305672
 31
0.0
  0
ARC
  5
1DA
330
1F
100
AcDbEntity
  8
0
  6
Continuous
 62
     7
100
AcDbCircle
 10
21.1338238986
 20
235.3006037179
 30
0.0
 40
10.78132845303095
100
AcDbArc
 50
106.1899767904
 51
115.294827229
  0
ARC
  5
1DB
330
1F
100
AcDbEntity
  8
0
  6
Continuous
 62
     7
100
AcDbCircle
 10
17.8917967892
 20
245.9615520316
 30
0.0
 40
0.3873361838989941
100
AcDbArc
 50
307.527647139
 51
1.527647139
  0
LINE
  5
1DC
330
1F
100
AcDbEntity
  8
0
  6
Continuous
 62
     7
100
AcDbLine
 10
18.278995305
 20
245.9718781484
 30
0.0
 11
18.2759032951
 21
246.3422851232
 31
0.0
  0
ARC
  5
1DD
330
1F
100
AcDbEntity
  8
0
  6
Continuous
 62
     7
100
AcDbCircle
 10
17.8885863528
 20
246.3461458933
 30
0.0
 40
0.387336183899004
100
AcDbArc
 50
359.4288953456
 51
53.4288953456
  0
ARC
  5
1DE
330
1F
100
AcDbEntity
  8
0
  6
Continuous
 62
     7
100
AcDbCircle
 10
20.9521873683
 20
257.0597310796
 30
0.0
 40
10.78132845304462
100
AcDbArc
 50
245.6617152556
 51
254.7665656942
  0
LINE
  5
1DF
330
1F
100
AcDbEntity
  8
0
  6
Continuous
 62
     7
100
AcDbLine
 10
16.5089511212
 20
247.2365597554
 30
0.0
 11
16.1959760177
 21
247.3787376881
 31
0.0
  0
LINE
  5
1E0
330
1F
100
AcDbEntity
  8
0
  6
Continuous
 62
     7
100
AcDbLine
 10
16.1959760177
 20
247.3787376881
 30
0.0
 11
16.2222475301
 21
248.1229631439
 31
0.0
  0
LINE
  5
1E1
330
1F
100
AcDbEntity
  8
0
  6
Continuous
 62
     7
100
AcDbLine
 10
16.2222475301
 20
248.1229631439
 30
0.0
 11
16.5444689974
 21
248.2427183356
 31
0.0
  0
ARC
  5
1E2
330
1F
100
AcDbEntity
  8
0
  6
Continuous
 62
     7
100
AcDbCircle
 10
20.2839832915
 20
238.1306920275
 30
0.0
 40
10.78132845305572
100
AcDbArc
 50
101.1899767904
 51
110.294827229
  0
ARC
  5
1E3
330
1F
100
AcDbEntity
  8
0
  6
Continuous
 62
     7
100
AcDbCircle
 10
17.9834559426
 20
249.033633495
 30
0.0
 40
0.3873361838990104
100
AcDbArc
 50
302.527647139
 51
356.527647139
  0
LINE
  5
1E4
330
1F
100
AcDbEntity
  8
0
  6
Continuous
 62
     7
100
AcDbLine
 10
18.3700810316
 20
249.0101737435
 30
0.0
 11
18.3992838827
 21
249.3794406944
 31
0.0
  0
ARC
  5
1E5
330
1F
100
AcDbEntity
  8
0
  6
Continuous
 62
     7
100
AcDbCircle
 10
18.0137772866
 20
249.4170436689
 30
0.0
 40
0.3873361838989958
100
AcDbArc
 50
354.4288953456
 51
48.4288953456
  0
ARC
  5
1E6
330
1F
100
AcDbEntity
  8
0
  6
Continuous
 62
     7
100
AcDbCircle
 10
21.9994708497
 20
259.8228500071
 30
0.0
 40
10.78132845304251
100
AcDbArc
 50
240.6617152556
 51
249.7665656942
  0
LINE
  5
1E7
330
1F
100
AcDbEntity
  8
0
  6
Continuous
 62
     7
100
AcDbLine
 10
16.7169966651
 20
250.4243123708
 30
0.0
 11
16.4176041497
 21
250.5932268511
 31
0.0
  0
LINE
  5
1E8
330
1F
100
AcDbEntity
  8
0
  6
Continuous
 62
     7
100
AcDbLine
 10
16.4176041497
 20
250.5932268511
 30
0.0
 11
16.5086392134
 21
251.3323305912
 31
0.0
  0
LINE
  5
1E9
330
1F
100
AcDbEntity
  8
0
  6
Continuous
 62
     7
100
AcDbLine
 10
16.5086392134
 20
251.3323305912
 30
0.0
 11
16.8400718834
 21
251.4235466269
 31
0.0
  0
ARC
  5
1EA
330
1F
100
AcDbEntity
  8
0
  6
Continuous
 62
     7
100
AcDbCircle
 10
19.6840350331
 20
241.024079486
 30
0.0
 40
10.78132845306797
100
AcDbArc
 50
96.1899767904
 51
105.2948272289
  0
ARC
  5
1EB
330
1F
100
AcDbEntity
  8
0
  6
Continuous
 62
     7
100
AcDbCircle
 10
18.3425158471
 20
252.0860361393
 30
0.0
 40
0.3873361838989941
100
AcDbArc
 50
297.527647139
 51
351.527647139
  0
LINE
  5
1EC
330
1F
100
AcDbEntity
  8
0
  6
Continuous
 62
     7
100
AcDbLine
 10
18.7256250588
 20
252.0289690625
 30
0.0
 11
18.7869005196
 21
252.3942856449
 31
0.0
  0
ARC
  5
1ED
330
1F
100
AcDbEntity
  8
0
  6
Continuous
 62
     7
100
AcDbCircle
 10
18.4061382077
 20
252.4653446425
 30
0.0
 40
0.3873361838990029
100
AcDbArc
 50
349.4288953456
 51
43.4288953456
  0
ARC
  5
1EE
330
1F
100
AcDbEntity
  8
0
  6
Continuous
 62
     7
100
AcDbCircle
 10
23.2835907838
 20
262.4841776631
 30
0.0
 40
10.78132845303731
100
AcDbArc
 50
235.6617152556
 51
244.7665656942
  0
LINE
  5
1EF
330
1F
100
AcDbEntity
  8
0
  6
Continuous
 62
     7
100
AcDbLine
 10
17.2020814798
 20
253.5818022611
 30
0.0
 11
16.9185501103
 21
253.7761677479
 31
0.0
  0
LINE
  5
1F0
330
1F
100
AcDbEntity
  8
0
  6
Continuous
 62
     7
100
AcDbLine
 10
16.9185501103
 20
253.7761677479
 30
0.0
 11
17.0736558936
 21
254.5045247465
 31
0.0
  0
LINE
  5
1F1
330
1F
100
AcDbEntity
  8
0
  6
Continuous
 62
     7
100
AcDbLine
 10
17.0736558936
 20
254.5045247465
 30
0.0
 11
17.4117773635
 21
254.5665074172
 31
0.0
  0
ARC
  5
1F2
330
1F
100
AcDbEntity
  8
0
  6
Continuous
 62
     7
100
AcDbCircle
 10
19.3385450919
 20
243.9587456677
 30
0.0
 40
10.78132845305458
100
AcDbArc
 50
91.1899767904
 51
100.294827229
  0
ARC
  5
1F3
330
1F
100
AcDbEntity
  8
0
  6
Continuous
 62
     7
100
AcDbCircle
 10
18.9662438398
 20
255.0955293374
 30
0.0
 40
0.3873361838989802
100
AcDbArc
 50
292.527647139
 51
346.527647139
  0
LINE
  5
1F4
330
1F
100
AcDbEntity
  8
0
  6
Continuous
 62
     7
100
AcDbLine
 10
19.3429214819
 20
255.0052892501
 30
0.0
 11
19.4358032092
 21
255.3638751844
 31
0.0
  0
ARC
  5
1F5
330
1F
100
AcDbEntity
  8
0
  6
Continuous
 62
     7
100
AcDbCircle
 10
19.0626830124
 20
255.4678494031
 30
0.0
 40
0.3873361838990034
100
AcDbArc
 50
344.4288953456
 51
38.4288953456
  0
ARC
  5
1F6
330
1F
100
AcDbEntity
  8
0
  6
Continuous
 62
     7
100
AcDbCircle
 10
24.7947742423
 20
265.0234597373
 30
0.0
 40
10.7813284530478
100
AcDbArc
 50
230.6617152556
 51
239.7665656942
  0
LINE
  5
1F7
330
1F
100
AcDbEntity
  8
0
  6
Continuous
 62
     7
100
AcDbLine
 10
17.9605137769
 20
256.6849990218
 30
0.0
 11
17.6950013983
 21
256.9033362763
 31
0.0
  0
LINE
  5
1F8
330
1F
100
AcDbEntity
  8
0
  6
Continuous
 62
     7
100
AcDbLine
 10
17.6950013983
 20
256.9033362763
 30
0.0
 11
17.9129974524
 21
257.6154032969
 31
0.0
  0
LINE
  5
1F9
330
1F
100
AcDbEntity
  8
0
  6
Continuous
 62
     7
100
AcDbLine
 10
17.9129974524
 20
257.6154032969
 30
0.0
 11
18.2552344138
 21
257.647680877
 31
0.0
  0
ARC
  5
1FA
330
1F
100
AcDbEntity
  8
0
  6
Continuous
 62
     7
100
AcDbCircle
 10
19.2501428551
 20
246.9123559911
 30
0.0
 40
10.7813284530446
100
AcDbArc
 50
86.1899767904
 51
95.294827229
  0
ARC
  5
1FB
330
1F
100
AcDbEntity
  8
0
  6
Continuous
 62
     7
100
AcDbCircle
 10
19.8498929742
 20
258.0392090287
 30
0.0
 40
0.3873361838989864
100
AcDbArc
 50
287.527647139
 51
341.527647139
  0
LINE
  5
1FC
330
1F
100
AcDbEntity
  8
0
  6
Continuous
 62
     7
100
AcDbLine
 10
20.2172723023
 20
257.9164827126
 30
0.0
 11
20.34105341
 21
258.2656089432
 31
0.0
  0
ARC
  5
1FD
330
1F
100
AcDbEntity
  8
0
  6
Continuous
 62
     7
100
AcDbCircle
 10
19.9784149985
 20
258.4017070765
 30
0.0
 40
0.3873361838989902
100
AcDbArc
 50
339.4288953456
 51
33.4288953456
  0
ARC
  5
1FE
330
1F
100
AcDbEntity
  8
0
  6
Continuous
 62
     7
100
AcDbCircle
 10
26.5215202068
 20
267.4213707598
 30
0.0
 40
10.78132845306267
100
AcDbArc
 50
225.6617152556
 51
234.7665656942
  0
LINE
  5
1FF
330
1F
100
AcDbEntity
  8
0
  6
Continuous
 62
     7
100
AcDbLine
 10
18.9865214288
 20
259.7102854518
 30
0.0
 11
18.7410487505
 21
259.9509327957
 31
0.0
  0
LINE
  5
200
330
1F
100
AcDbEntity
  8
0
  6
Continuous
 62
     7
100
AcDbLine
 10
18.7410487505
 20
259.9509327957
 30
0.0
 11
19.0202759939
 21
260.6412905783
 31
0.0
  0
LINE
  5
201
330
1F
100
AcDbEntity
  8
0
  6
Continuous
 62
     7
100
AcDbLine
 10
19.0202759939
 20
260.6412905783
 30
0.0
 11
19.3640238167
 21
260.6436174158
 31
0.0
  0
ARC
  5
202
330
1F
100
AcDbEntity
  8
0
  6
Continuous
 62
     7
100
AcDbCircle
 10
19.419501117
 20
249.862431698
 30
0.0
 40
10.78132845306066
100
AcDbArc
 50
81.1899767904
 51
90.294827229
  0
ARC
  5
203
330
1F
100
AcDbEntity
  8
0
  6
Continuous
 62
     7
100
AcDbCircle
 10
20.9867381468
 20
260.8946720335
 30
0.0
 40
0.3873361838989989
100
AcDbArc
 50
282.527647139
 51
336.527647139
  0
LINE
  5
204
330
1F
100
AcDbEntity
  8
0
  6
Continuous
 62
     7
100
AcDbLine
 10
21.3420231824
 20
260.7403935098
 30
0.0
 11
21.4957616215
 21
261.0774029753
 31
0.0
  0
ARC
  5
205
330
1F
100
AcDbEntity
  8
0
  6
Continuous
 62
     7
100
AcDbCircle
 10
21.1463648926
 20
261.2445892343
 30
0.0
 40
0.3873361838989941
100
AcDbArc
 50
334.4288953456
 51
28.4288953456
  0
ARC
  5
206
330
1F
100
AcDbEntity
  8
0
  6
Continuous
 62
     7
100
AcDbCircle
 10
28.4506870978
 20
269.6596611798
 30
0.0
 40
10.78132845304311
100
AcDbArc
 50
220.6617152556
 51
229.7665656942
  0
LINE
  5
207
330
1F
100
AcDbEntity
  8
0
  6
Continuous
 62
     7
100
AcDbLine
 10
20.2722958976
 20
262.6346372946
 30
0.0
 11
20.0487311149
 21
262.8957632563
 31
0.0
  0
LINE
  5
208
330
1F
100
AcDbEntity
  8
0
  6
Continuous
 62
     7
100
AcDbLine
 10
20.0487311149
 20
262.8957632563
 30
0.0
 11
20.3870644597
 21
263.5591577613
 31
0.0
  0
LINE
  5
209
330
1F
100
AcDbEntity
  8
0
  6
Continuous
 62
     7
100
AcDbLine
 10
20.3870644597
 20
263.5591577613
 30
0.0
 11
20.7297070155
 21
263.5315161477
 31
0.0
  0
ARC
  5
20A
330
1F
100
AcDbEntity
  8
0
  6
Continuous
 62
     7
100
AcDbCircle
 10
19.845330959
 20
252.7865209312
 30
0.0
 40
10.78132845305443
100
AcDbArc
 50
76.1899767904
 51
85.294827229
  0
ARC
  5
20B
330
1F
100
AcDbEntity
  8
0
  6
Continuous
 62
     7
100
AcDbCircle
 10
22.3681272793
 20
263.640186554
 30
0.0
 40
0.3873361838989878
100
AcDbArc
 50
277.527647139
 51
331.527647139
  0
LINE
  5
20C
330
1F
100
AcDbEntity
  8
0
  6
Continuous
 62
     7
100
AcDbLine
 10
22.7086140887
 20
263.4555299756
 30
0.0
 11
22.891139817
 21
263.7778578305
 31
0.0
  0
ARC
  5
20D
330
1F
100
AcDbEntity
  8
0
  6
Continuous
 62
     7
100
AcDbCircle
 10
22.5576438907
 20
263.9748598266
 30
0.0
 40
0.387336183899
100
AcDbArc
 50
329.4288953456
 51
23.4288953456
  0
ARC
  5
20E
330
1F
100
AcDbEntity
  8
0
  6
Continuous
 62
     7
100
AcDbCircle
 10
30.5675927904
 20
271.7212962558
 30
0.0
 40
10.78132845304944
100
AcDbArc
 50
215.6617152556
 51
224.7665656942
  0
LINE
  5
20F
330
1F
100
AcDbEntity
  8
0
  6
Continuous
 62
     7
100
AcDbLine
 10
21.8080516632
 20
265.4357984669
 30
0.0
 11
21.6080962392
 21
265.7154157201
 31
0.0
  0
LINE
  5
210
330
1F
100
AcDbEntity
  8
0
  6
Continuous
 62
     7
100
AcDbLine
 10
21.6080962392
 20
265.7154157201
 30
0.0
 11
22.0029607643
 21
266.3467981148
 31
0.0
  0
LINE
  5
211
330
1F
100
AcDbEntity
  8
0
  6
Continuous
 62
     7
100
AcDbLine
 10
22.0029607643
 20
266.3467981148
 30
0.0
 11
22.3418903364
 21
266.2893984195
 31
0.0
  0
ARC
  5
212
330
1F
100
AcDbEntity
  8
0
  6
Continuous
 62
     7
100
AcDbCircle
 10
20.5243915589
 20
255.6623696058
 30
0.0
 40
10.78132845305733
100
AcDbArc
 50
71.1899767904
 51
80.294827229
  0
ARC
  5
213
330
1F
100
AcDbEntity
  8
0
  6
Continuous
 62
     7
100
AcDbCircle
 10
23.9835471664
 20
266.2548575671
 30
0.0
 40
0.3873361838989974
100
AcDbArc
 50
272.527647139
 51
326.527647139
  0
LINE
  5
214
330
1F
100
AcDbEntity
  8
0
  6
Continuous
 62
     7
100
AcDbLine
 10
24.3066444395
 20
266.0412282819
 30
0.0
 11
24.5165683258
 21
266.3464214165
 31
0.0
  0
ARC
  5
215
330
1F
100
AcDbEntity
  8
0
  6
Continuous
 62
     7
100
AcDbCircle
 10
24.2015113075
 20
266.5717398458
 30
0.0
 40
0.3873361838990126
100
AcDbArc
 50
324.4288953456
 51
18.4288953456
  0
ARC
  5
216
330
1F
100
AcDbEntity
  8
0
  6
Continuous
 62
     7
100
AcDbCircle
 10
32.856126354
 20
273.5905856999
 30
0.0
 40
10.78132845303995
100
AcDbArc
 50
210.6617152556
 51
219.7665656942
  0
LINE
  5
217
330
1F
100
AcDbEntity
  8
0
  6
Continuous
 62
     7
100
AcDbLine
 10
23.5821006971
 20
268.0924504408
 30
0.0
 11
23.4072764132
 21
268.3884309295
 31
0.0
  0
LINE
  5
218
330
1F
100
AcDbEntity
  8
0
  6
Continuous
 62
     7
100
AcDbLine
 10
23.4072764132
 20
268.3884309295
 30
0.0
 11
23.8556669611
 21
268.9829960126
 31
0.0
  0
LINE
  5
219
330
1F
100
AcDbEntity
  8
0
  6
Continuous
 62
     7
100
AcDbLine
 10
23.8556669611
 20
268.9829960126
 30
0.0
 11
24.1883040908
 21
268.8962750818
 31
0.0
  0
ARC
  5
21A
330
1F
100
AcDbEntity
  8
0
  6
Continuous
 62
     7
100
AcDbCircle
 10
21.4515148554
 20
258.4680907771
 30
0.0
 40
10.7813284530447
100
AcDbArc
 50
66.1899767904
 51
75.294827229
  0
ARC
  5
21B
330
1F
100
AcDbEntity
  8
0
  6
Continuous
 62
     7
100
AcDbCircle
 10
25.8207034873
 20
268.7187858474
 30
0.0
 40
0.3873361838989976
100
AcDbArc
 50
267.527647139
 51
321.527647139
  0
LINE
  5
21C
330
1F
100
AcDbEntity
  8
0
  6
Continuous
 62
     7
100
AcDbLine
 10
26.1239522587
 20
268.4778097033
 30
0.0
 11
26.3596766556
 21
268.7635454137
 31
0.0
  0
ARC
  5
21D
330
1F
100
AcDbEntity
  8
0
  6
Continuous
 62
     7
100
AcDbCircle
 10
26.0654563194
 20
269.0154654668
 30
0.0
 40
0.3873361838989821
100
AcDbArc
 50
319.4288953456
 51
13.4288953456
  0
ARC
  5
21E
330
1F
100
AcDbEntity
  8
0
  6
Continuous
 62
     7
100
AcDbCircle
 10
35.2988706664
 20
275.2533030908
 30
0.0
 40
10.7813284530254
100
AcDbArc
 50
205.6617152556
 51
214.7665656942
  0
LINE
  5
21F
330
1F
100
AcDbEntity
  8
0
  6
Continuous
 62
     7
100
AcDbLine
 10
25.5809414148
 20
270.5843744907
 30
0.0
 11
25.4325787894
 21
270.8944656245
 31
0.0
  0
LINE
  5
220
330
1F
100
AcDbEntity
  8
0
  6
Continuous
 62
     7
100
AcDbLine
 10
25.4325787894
 20
270.8944656245
 30
0.0
 11
25.9310828373
 21
271.4476883967
 31
0.0
  0
LINE
  5
221
330
1F
100
AcDbEntity
  8
0
  6
Continuous
 62
     7
100
AcDbLine
 10
25.9310828373
 20
271.4476883967
 30
0.0
 11
26.2548959552
 21
271.3323062292
 31
0.0
  0
ARC
  5
222
330
1F
100
AcDbEntity
  8
0
  6
Continuous
 62
     7
100
AcDbCircle
 10
22.6196448805
 20
261.1823312127
 30
0.0
 40
10.78132845304486
100
AcDbArc
 50
61.1899767904
 51
70.294827229
  0
ARC
  5
223
330
1F
100
AcDbEntity
  8
0
  6
Continuous
 62
     7
100
AcDbCircle
 10
27.8656143731
 20
271.0132194131
 30
0.0
 40
0.3873361838990169
100
AcDbArc
 50
262.527647139
 51
316.527647139
  0
LINE
  5
224
330
1F
100
AcDbEntity
  8
0
  6
Continuous
 62
     7
100
AcDbLine
 10
28.1467067365
 20
270.746730384
 30
0.0
 11
28.406437639
 21
271.0108340489
 31
0.0
  0
ARC
  5
225
330
1F
100
AcDbEntity
  8
0
  6
Continuous
 62
     7
100
AcDbCircle
 10
28.1352931794
 20
271.287438462
 30
0.0
 40
0.3873361838990239
100
AcDbArc
 50
314.4288953456
 51
8.4288953456
  0
ARC
  5
226
330
1F
100
AcDbEntity
  8
0
  6
Continuous
 62
     7
100
AcDbCircle
 10
37.8772349683
 20
276.6967941451
 30
0.0
 40
10.78132845302394
100
AcDbArc
 50
200.6617152556
 51
209.7665656942
  0
LINE
  5
227
330
1F
100
AcDbEntity
  8
0
  6
Continuous
 62
     7
100
AcDbLine
 10
27.7893614315
 20
272.8926055698
 30
0.0
 11
27.6685895938
 21
273.2144473681
 31
0.0
  0
LINE
  5
228
330
1F
100
AcDbEntity
  8
0
  6
Continuous
 62
     7
100
AcDbLine
 10
27.6685895938
 20
273.2144473681
 30
0.0
 11
28.2134132249
 21
273.7221174701
 31
0.0
  0
LINE
  5
229
330
1F
100
AcDbEntity
  8
0
  6
Continuous
 62
     7
100
AcDbLine
 10
28.2134132249
 20
273.7221174701
 30
0.0
 11
28.5259379176
 21
273.5789521937
 31
0.0
  0
ARC
  5
22A
330
1F
100
AcDbEntity
  8
0
  6
Continuous
 62
     7
100
AcDbCircle
 10
24.0198914593
 20
263.784433904
 30
0.0
 40
10.78132845304889
100
AcDbArc
 50
56.1899767904
 51
65.294827229
  0
ARC
  5
22B
330
1F
100
AcDbEntity
  8
0
  6
Continuous
 62
     7
100
AcDbCircle
 10
30.1027168172
 20
273.1206962392
 30
0.0
 40
0.3873361838990129
100
AcDbArc
 50
257.527647139
 51
311.527647139
  0
LINE
  5
22C
330
1F
100
AcDbEntity
  8
0
  6
Continuous
 62
     7
100
AcDbLine
 10
30.35951349
 20
272.8307224677
 30
0.0
 11
30.6412741891
 21
273.0711840986
 31
0.0
  0
ARC
  5
22D
330
1F
100
AcDbEntity
  8
0
  6
Continuous
 62
     7
100
AcDbCircle
 10
30.3952691791
 20
273.3703677452
 30
0.0
 40
0.3873361838989763
100
AcDbArc
 50
309.4288953456
 51
3.4288953456
  0
ARC
  5
22E
330
1F
100
AcDbEntity
  8
0
  6
Continuous
 62
     7
100
AcDbCircle
 10
40.5715963507
 20
277.9100730244
 30
0.0
 40
10.78132845305744
100
AcDbArc
 50
195.6617152556
 51
204.7665656942
  0
LINE
  5
22F
330
1F
100
AcDbEntity
  8
0
  6
Continuous
 62
     7
100
AcDbLine
 10
30.1905533375
 20
274.999576646
 30
0.0
 11
30.0982914341
 21
275.3307196983
 31
0.0
  0
LINE
  5
230
330
1F
100
AcDbEntity
  8
0
  6
Continuous
 62
     7
100
AcDbLine
 10
30.0982914341
 20
275.3307196983
 30
0.0
 11
30.6852882116
 21
275.788973454
 31
0.0
  0
LINE
  5
231
330
1F
100
AcDbEntity
  8
0
  6
Continuous
 62
     7
100
AcDbLine
 10
30.6852882116
 20
275.788973454
 30
0.0
 11
30.9841459775
 21
275.619114643
 31
0.0
  0
ARC
  5
232
330
1F
100
AcDbEntity
  8
0
  6
Continuous
 62
     7
100
AcDbCircle
 10
25.6415978699
 20
266.2545952783
 30
0.0
 40
10.78132845305375
100
AcDbArc
 50
51.1899767904
 51
60.294827229
  0
ARC
  5
233
330
1F
100
AcDbEntity
  8
0
  6
Continuous
 62
     7
100
AcDbCircle
 10
32.5149851192
 20
275.0251771546
 30
0.0
 40
0.3873361838989884
100
AcDbArc
 50
252.527647139
 51
306.527647139
  0
LINE
  5
234
330
1F
100
AcDbEntity
  8
0
  6
Continuous
 62
     7
100
AcDbLine
 10
32.7455317237
 20
274.7139255161
 30
0.0
 11
33.0471778503
 21
274.9289150549
 31
0.0
  0
ARC
  5
235
330
1F
100
AcDbEntity
  8
0
  6
Continuous
 62
     7
100
AcDbCircle
 10
32.8281845366
 20
275.2484009668
 30
0.0
 40
0.3873361838989865
100
AcDbArc
 50
304.4288953456
 51
358.4288953456
  0
ARC
  5
236
330
1F
100
AcDbEntity
  8
0
  6
Continuous
 62
     7
100
AcDbCircle
 10
43.3614490965
 20
278.8839059437
 30
0.0
 40
10.78132845304817
100
AcDbArc
 50
190.6617152556
 51
199.7665656942
  0
LINE
  5
237
330
1F
100
AcDbEntity
  8
0
  6
Continuous
 62
     7
100
AcDbLine
 10
32.7662426124
 20
276.889252397
 30
0.0
 11
32.703192812
 21
277.2271765047
 31
0.0
  0
LINE
  5
238
330
1F
100
AcDbEntity
  8
0
  6
Continuous
 62
     7
100
AcDbLine
 10
32.703192812
 20
277.2271765047
 30
0.0
 11
33.327895336
 21
277.6325263265
 31
0.0
  0
LINE
  5
239
330
1F
100
AcDbEntity
  8
0
  6
Continuous
 62
     7
100
AcDbLine
 10
33.327895336
 20
277.6325263265
 30
0.0
 11
33.6108116871
 21
277.437266709
 31
0.0
  0
ARC
  5
23A
330
1F
100
AcDbEntity
  8
0
  6
Continuous
 62
     7
100
AcDbCircle
 10
27.4724219474
 20
268.5740159162
 30
0.0
 40
10.78132845304537
100
AcDbArc
 50
46.1899767904
 51
55.294827229
  0
ARC
  5
23B
330
1F
100
AcDbEntity
  8
0
  6
Continuous
 62
     7
100
AcDbCircle
 10
35.0840604608
 20
276.7121679096
 30
0.0
 40
0.3873361838990022
100
AcDbArc
 50
247.527647139
 51
301.527647139
  0
LINE
  5
23C
330
1F
100
AcDbEntity
  8
0
  6
Continuous
 62
     7
100
AcDbLine
 10
35.2866023981
 20
276.3820072169
 30
0.0
 11
35.6058382431
 21
276.5698884635
 31
0.0
  0
ARC
  5
23D
330
1F
100
AcDbEntity
  8
0
  6
Continuous
 62
     7
100
AcDbCircle
 10
35.4155232969
 20
276.9072451599
 30
0.0
 40
0.3873361838989784
100
AcDbArc
 50
299.4288953456
 51
353.4288953456
  0
ARC
  5
23E
330
1F
100
AcDbEntity
  8
0
  6
Continuous
 62
     7
100
AcDbCircle
 10
46.2255607417
 20
279.6108814466
 30
0.0
 40
10.78132845305526
100
AcDbArc
 50
185.6617152556
 51
194.7665656942
  0
LINE
  5
23F
330
1F
100
AcDbEntity
  8
0
  6
Continuous
 62
     7
100
AcDbLine
 10
35.4968267056
 20
278.5472512495
 30
0.0
 11
35.4634688554
 21
278.8893846061
 31
0.0
  0
LINE
  5
240
330
1F
100
AcDbEntity
  8
0
  6
Continuous
 62
     7
100
AcDbLine
 10
35.4634688554
 20
278.8893846061
 30
0.0
 11
36.1211227625
 21
279.2387455369
 31
0.0
  0
LINE
  5
241
330
1F
100
AcDbEntity
  8
0
  6
Continuous
 62
     7
100
AcDbLine
 10
36.1211227625
 20
279.2387455369
 30
0.0
 11
36.3859445344
 21
279.0195711565
 31
0.0
  0
ARC
  5
242
330
1F
100
AcDbEntity
  8
0
  6
Continuous
 62
     7
100
AcDbCircle
 10
29.4984300148
 20
270.7250436259
 30
0.0
 40
10.78132845305957
100
AcDbArc
 50
41.1899767904
 51
50.294827229
  0
ARC
  5
243
330
1F
100
AcDbEntity
  8
0
  6
Continuous
 62
     7
100
AcDbCircle
 10
37.7903906273
 20
278.1688294859
 30
0.0
 40
0.3873361838990173
100
AcDbArc
 50
242.527647139
 51
296.527647139
  0
LINE
  5
244
330
1F
100
AcDbEntity
  8
0
  6
Continuous
 62
     7
100
AcDbLine
 10
37.963386431
 20
277.8222724614
 30
0.0
 11
38.2977824168
 21
277.9816155259
 31
0.0
  0
ARC
  5
245
330
1F
100
AcDbEntity
  8
0
  6
Continuous
 62
     7
100
AcDbCircle
 10
38.1375942499
 20
278.3342755187
 30
0.0
 40
0.3873361838989817
100
AcDbArc
 50
294.4288953456
 51
348.4288953456
  0
ARC
  5
246
330
1F
100
AcDbEntity
  8
0
  6
Continuous
 62
     7
100
AcDbCircle
 10
49.1421336672
 20
280.0854668104
 30
0.0
 40
10.78132845305191
100
AcDbArc
 50
180.6617152556
 51
189.7665656942
  0
LINE
  5
247
330
1F
100
AcDbEntity
  8
0
  6
Continuous
 62
     7
100
AcDbLine
 10
38.3615242234
 20
279.960954831
 30
0.0
 11
38.3581121967
 21
280.3046935951
 31
0.0
  0
LINE
  5
248
330
1F
100
AcDbEntity
  8
0
  6
Continuous
 62
     7
100
AcDbLine
 10
38.3581121967
 20
280.3046935951
 30
0.0
 11
39.0437123436
 21
280.5954067874
 31
0.0
  0
LINE
  5
249
330
1F
100
AcDbEntity
  8
0
  6
Continuous
 62
     7
100
AcDbLine
 10
39.0437123436
 20
280.5954067874
 30
0.0
 11
39.2884240828
 21
280.3539856934
 31
0.0
  0
ARC
  5
24A
330
1F
100
AcDbEntity
  8
0
  6
Continuous
 62
     7
100
AcDbCircle
 10
31.7042029277
 20
272.6913077879
 30
0.0
 40
10.78132845306149
100
AcDbArc
 50
36.1899767904
 51
45.2948272289
  0
ARC
  5
24B
330
1F
100
AcDbEntity
  8
0
  6
Continuous
 62
     7
100
AcDbCircle
 10
40.6133788121
 20
279.3840758093
 30
0.0
 40
0.3873361838990066
100
AcDbArc
 50
237.527647139
 51
291.527647139
  0
LINE
  5
24C
330
1F
100
AcDbEntity
  8
0
  6
Continuous
 62
     7
100
AcDbLine
 10
40.7555118797
 20
279.0237599611
 30
0.0
 11
41.1025230509
 21
279.1533521466
 31
0.0
  0
ARC
  5
24D
330
1F
100
AcDbEntity
  8
0
  6
Continuous
 62
     7
100
AcDbCircle
 10
40.973680792
 20
279.5186314804
 30
0.0
 40
0.3873361838990215
100
AcDbArc
 50
289.4288953456
 51
343.4288953456
  0
ARC
  5
24E
330
1F
100
AcDbEntity
  8
0
  6
Continuous
 62
     7
100
AcDbCircle
 10
52.0889709921
 20
280.304050154
 30
0.0
 40
10.78132845304446
100
AcDbArc
 50
175.6617152556
 51
184.7665656942
  0
LINE
  5
24F
330
1F
100
AcDbEntity
  8
0
  6
Continuous
 62
     7
100
AcDbLine
 10
41.338533088
 20
281.1196040036
 30
0.0
 11
41.3650928524
 21
281.4623321157
 31
0.0
  0
LINE
  5
250
330
1F
100
AcDbEntity
  8
0
  6
Continuous
 62
     7
100
AcDbLine
 10
41.3650928524
 20
281.4623321157
 30
0.0
 11
42.0734214079
 21
281.6921850665
 31
0.0
  0
LINE
  5
251
330
1F
100
AcDbEntity
  8
0
  6
Continuous
 62
     7
100
AcDbLine
 10
42.0734214079
 20
281.6921850665
 30
0.0
 11
42.2961607103
 21
281.4303546193
 31
0.0
  0
ARC
  5
252
330
1F
100
AcDbEntity
  8
0
  6
Continuous
 62
     7
100
AcDbCircle
 10
34.0729534222
 20
274.4578439446
 30
0.0
 40
10.78132845302924
100
AcDbArc
 50
31.1899767904
 51
40.294827229
  0
ARC
  5
253
330
1F
100
AcDbEntity
  8
0
  6
Continuous
 62
     7
100
AcDbCircle
 10
43.5315403705
 20
280.3486581216
 30
0.0
 40
0.3873361838989984
100
AcDbArc
 50
232.527647139
 51
286.527647139
  0
LINE
  5
254
330
1F
100
AcDbEntity
  8
0
  6
Continuous
 62
     7
100
AcDbLine
 10
43.6417289835
 20
279.9773256709
 30
0.0
 11
43.9987143756
 21
280.0761807026
 31
0.0
  0
ARC
  5
255
330
1F
100
AcDbEntity
  8
0
  6
Continuous
 62
     7
100
AcDbCircle
 10
43.902198592
 20
280.451299381
 30
0.0
 40
0.387336183898997
100
AcDbArc
 50
284.4288953456
 51
338.4288953456
  0
ARC
  5
256
330
1F
100
AcDbEntity
  8
0
  6
Continuous
 62
     7
100
AcDbCircle
 10
55.043645505
 20
280.2649679262
 30
0.0
 40
10.78132845304239
100
AcDbArc
 50
170.6617152556
 51
179.7665656942
  0
LINE
  5
257
330
1F
100
AcDbEntity
  8
0
  6
Continuous
 62
     7
100
AcDbLine
 10
44.4051964643
 20
282.0143807476
 30
0.0
 11
44.4615258839
 21
282.3534898398
 31
0.0
  0
LINE
  5
258
330
1F
100
AcDbEntity
  8
0
  6
Continuous
 62
     7
100
AcDbLine
 10
44.4615258839
 20
282.3534898398
 30
0.0
 11
45.18719204
 21
282.5207332293
 31
0.0
  0
LINE
  5
259
330
1F
100
AcDbEntity
  8
0
  6
Continuous
 62
     7
100
AcDbLine
 10
45.18719204
 20
282.5207332293
 30
0.0
 11
45.386263725
 21
282.2404861167
 31
0.0
  0
ARC
  5
25A
330
1F
100
AcDbEntity
  8
0
  6
Continuous
 62
     7
100
AcDbCircle
 10
36.5866538766
 20
276.0112076891
 30
0.0
 40
10.78132845305592
100
AcDbArc
 50
26.1899767904
 51
35.294827229
  0
ARC
  5
25B
330
1F
100
AcDbEntity
  8
0
  6
Continuous
 62
     7
100
AcDbCircle
 10
46.522666331
 20
281.0552353688
 30
0.0
 40
0.387336183899006
100
AcDbArc
 50
227.527647139
 51
281.527647139
  0
LINE
  5
25C
330
1F
100
AcDbEntity
  8
0
  6
Continuous
 62
     7
100
AcDbLine
 10
46.6000718875
 20
280.6757123798
 30
0.0
 11
46.9643146262
 21
280.7430779113
 31
0.0
  0
ARC
  5
25D
330
1F
100
AcDbEntity
  8
0
  6
Continuous
 62
     7
100
AcDbCircle
 10
46.9008598613
 20
281.1251810547
 30
0.0
 40
0.3873361838989935
100
AcDbArc
 50
279.4288953456
 51
333.4288953456
  0
ARC
  5
25E
330
1F
100
AcDbEntity
  8
0
  6
Continuous
 62
     7
100
AcDbCircle
 10
57.9836703488
 20
279.9685175664
 30
0.0
 40
10.78132845302918
100
AcDbArc
 50
165.6617152556
 51
174.7665656942
  0
LINE
  5
25F
330
1F
100
AcDbEntity
  8
0
  6
Continuous
 62
     7
100
AcDbLine
 10
47.5381751923
 20
282.6384752716
 30
0.0
 11
47.6238455663
 21
282.9713845189
 31
0.0
  0
LINE
  5
260
330
1F
100
AcDbEntity
  8
0
  6
Continuous
 62
     7
100
AcDbLine
 10
47.6238455663
 20
282.9713845189
 30
0.0
 11
48.3613265654
 21
283.074745524
 31
0.0
  0
LINE
  5
261
330
1F
100
AcDbEntity
  8
0
  6
Continuous
 62
     7
100
AcDbLine
 10
48.3613265654
 20
283.074745524
 30
0.0
 11
48.5352155773
 21
282.7782145957
 31
0.0
  0
ARC
  5
262
330
1F
100
AcDbEntity
  8
0
  6
Continuous
 62
     7
100
AcDbCircle
 10
39.2261735129
 20
277.3395769854
 30
0.0
 40
10.78132845306226
100
AcDbArc
 50
21.1899767904
 51
30.294827229
  0
ARC
  5
263
330
1F
100
AcDbEntity
  8
0
  6
Continuous
 62
     7
100
AcDbCircle
 10
49.563992419
 20
281.4984300716
 30
0.0
 40
0.3873361838989723
100
AcDbArc
 50
222.527647139
 51
276.527647139
  0
LINE
  5
264
330
1F
100
AcDbEntity
  8
0
  6
Continuous
 62
     7
100
AcDbLine
 10
49.608025816
 20
281.1136049434
 30
0.0
 11
49.976753794
 21
281.1489682823
 31
0.0
  0
ARC
  5
265
330
1F
100
AcDbEntity
  8
0
  6
Continuous
 62
     7
100
AcDbCircle
 10
49.9468429769
 20
281.535147855
 30
0.0
 40
0.38733618389904
100
AcDbArc
 50
274.4288953456
 51
328.4288953456
  0
ARC
  5
266
330
1F
100
AcDbEntity
  8
0
  6
Continuous
 62
     7
100
AcDbCircle
 10
60.8866701591
 20
279.4169552407
 30
0.0
 40
10.78132845304016
100
AcDbArc
 50
160.6617152556
 51
169.7665656942
  0
LINE
  5
267
330
1F
100
AcDbEntity
  8
0
  6
Continuous
 62
     7
100
AcDbLine
 10
50.7136254121
 20
282.9871378395
 30
0.0
 11
50.8279847372
 21
283.3113136015
 31
0.0
  0
LINE
  5
268
330
1F
100
AcDbEntity
  8
0
  6
Continuous
 62
     7
100
AcDbLine
 10
50.8279847372
 20
283.3113136015
 30
0.0
 11
51.5716679037
 21
283.3500055825
 31
0.0
  0
LINE
  5
269
330
1F
100
AcDbEntity
  8
0
  6
Continuous
 62
     7
100
AcDbLine
 10
51.5716679037
 20
283.3500055825
 30
0.0
 11
51.7190508421
 21
283.0394476179
 31
0.0
  0
ARC
  5
26A
330
1F
100
AcDbEntity
  8
0
  6
Continuous
 62
     7
100
AcDbCircle
 10
41.9714239928
 20
278.4328421411
 30
0.0
 40
10.78132845303053
100
AcDbArc
 50
16.1899767904
 51
25.294827229
  0
ARC
  5
26B
330
1F
100
AcDbEntity
  8
0
  6
Continuous
 62
     7
100
AcDbCircle
 10
52.6323723065
 20
281.6748692506
 30
0.0
 40
0.3873361838989975
100
AcDbArc
 50
217.527647139
 51
271.527647139
  0
LINE
  5
26C
330
1F
100
AcDbEntity
  8
0
  6
Continuous
 62
     7
100
AcDbLine
 10
52.6426984232
 20
281.2876707347
 30
0.0
 11
53.013105398
 21
281.2907627447
 31
0.0
  0
ARC
  5
26D
330
1F
100
AcDbEntity
  8
0
  6
Continuous
 62
     7
100
AcDbCircle
 10
53.0169661682
 20
281.678079687
 30
0.0
 40
0.3873361838989934
100
AcDbArc
 50
269.4288953456
 51
323.4288953456
  0
ARC
  5
26E
330
1F
100
AcDbEntity
  8
0
  6
Continuous
 62
     7
100
AcDbCircle
 10
63.7305513545
 20
278.6144786715
 30
0.0
 40
10.78132845304382
100
AcDbArc
 50
155.6617152556
 51
164.7665656942
  0
LINE
  5
26F
330
1F
100
AcDbEntity
  8
0
  6
Continuous
 62
     7
100
AcDbLine
 10
53.9073800303
 20
283.0577149186
 30
0.0
 11
54.0495579629
 21
283.370690022
 31
0.0
  0
LINE
  5
270
330
1F
100
AcDbEntity
  8
0
  6
Continuous
 62
     7
100
AcDbLine
 10
54.0495579629
 20
283.370690022
 30
0.0
 11
54.7937834187
 21
283.3444185096
 31
0.0
  0
LINE
  5
271
330
1F
100
AcDbEntity
  8
0
  6
Continuous
 62
     7
100
AcDbLine
 10
54.7937834187
 20
283.3444185096
 30
0.0
 11
54.9135386105
 21
283.0221970424
 31
0.0
  0
ARC
  5
272
330
1F
100
AcDbEntity
  8
0
  6
Continuous
 62
     7
100
AcDbCircle
 10
44.8015123023
 20
279.2826827483
 30
0.0
 40
10.78132845305765
100
AcDbArc
 50
11.1899767904
 51
20.294827229
  0
ARC
  5
273
330
1F
100
AcDbEntity
  8
0
  6
Continuous
 62
     7
100
AcDbCircle
 10
55.7044537698
 20
281.5832100971
 30
0.0
 40
0.3873361838990085
100
AcDbArc
 50
212.527647139
 51
266.527647139
  0
LINE
  5
274
330
1F
100
AcDbEntity
  8
0
  6
Continuous
 62
     7
100
AcDbLine
 10
55.6809940184
 20
281.1965850081
 30
0.0
 11
56.0502609692
 21
281.167382157
 31
0.0
  0
ARC
  5
275
330
1F
100
AcDbEntity
  8
0
  6
Continuous
 62
     7
100
AcDbCircle
 10
56.0878639438
 20
281.5528887532
 30
0.0
 40
0.3873361838990183
100
AcDbArc
 50
264.4288953456
 51
318.4288953456
  0
ARC
  5
276
330
1F
100
AcDbEntity
  8
0
  6
Continuous
 62
     7
100
AcDbCircle
 10
66.4936702819
 20
277.56719519
 30
0.0
 40
10.78132845304299
100
AcDbArc
 50
150.6617152556
 51
159.7665656942
  0
LINE
  5
277
330
1F
100
AcDbEntity
  8
0
  6
Continuous
 62
     7
100
AcDbLine
 10
57.0951326456
 20
282.8496693747
 30
0.0
 11
57.2640471259
 21
283.14906189
 31
0.0
  0
LINE
  5
278
330
1F
100
AcDbEntity
  8
0
  6
Continuous
 62
     7
100
AcDbLine
 10
57.2640471259
 20
283.14906189
 30
0.0
 11
58.003150866
 21
283.0580268263
 31
0.0
  0
LINE
  5
279
330
1F
100
AcDbEntity
  8
0
  6
Continuous
 62
     7
100
AcDbLine
 10
58.003150866
 20
283.0580268263
 30
0.0
 11
58.0943669018
 21
282.7265941563
 31
0.0
  0
ARC
  5
27A
330
1F
100
AcDbEntity
  8
0
  6
Continuous
 62
     7
100
AcDbCircle
 10
47.6948997608
 20
279.8826310067
 30
0.0
 40
10.78132845306927
100
AcDbArc
 50
6.1899767904
 51
15.2948272289
  0
ARC
  5
27B
330
1F
100
AcDbEntity
  8
0
  6
Continuous
 62
     7
100
AcDbCircle
 10
58.7568564142
 20
281.2241501927
 30
0.0
 40
0.3873361838989829
100
AcDbArc
 50
207.527647139
 51
261.527647139
  0
LINE
  5
27C
330
1F
100
AcDbEntity
  8
0
  6
Continuous
 62
     7
100
AcDbLine
 10
58.6997893373
 20
280.8410409809
 30
0.0
 11
59.0651059198
 21
280.7797655201
 31
0.0
  0
ARC
  5
27D
330
1F
100
AcDbEntity
  8
0
  6
Continuous
 62
     7
100
AcDbCircle
 10
59.1361649174
 20
281.1605278321
 30
0.0
 40
0.3873361838989452
100
AcDbArc
 50
259.4288953456
 51
313.4288953456
  0
ARC
  5
27E
330
1F
100
AcDbEntity
  8
0
  6
Continuous
 62
     7
100
AcDbCircle
 10
69.1549979379
 20
276.283075256
 30
0.0
 40
10.78132845303794
100
AcDbArc
 50
145.6617152556
 51
154.7665656942
  0
LINE
  5
27F
330
1F
100
AcDbEntity
  8
0
  6
Continuous
 62
     7
100
AcDbLine
 10
60.252622536
 20
282.36458456
 30
0.0
 11
60.4469880227
 21
282.6481159294
 31
0.0
  0
LINE
  5
280
330
1F
100
AcDbEntity
  8
0
  6
Continuous
 62
     7
100
AcDbLine
 10
60.4469880227
 20
282.6481159294
 30
0.0
 11
61.1753450213
 21
282.4930101462
 31
0.0
  0
LINE
  5
281
330
1F
100
AcDbEntity
  8
0
  6
Continuous
 62
     7
100
AcDbLine
 10
61.1753450213
 20
282.4930101462
 30
0.0
 11
61.237327692
 21
282.1548886762
 31
0.0
  0
ARC
  5
282
330
1F
100
AcDbEntity
  8
0
  6
Continuous
 62
     7
100
AcDbCircle
 10
50.6295659426
 20
280.2281209478
 30
0.0
 40
10.78132845305842
100
AcDbArc
 50
1.1899767904
 51
10.294827229
  0
ARC
  5
283
330
1F
100
AcDbEntity
  8
0
  6
Continuous
 62
     7
100
AcDbCircle
 10
61.7663496122
 20
280.6004221999
 30
0.0
 40
0.387336183899016
100
AcDbArc
 50
202.527647139
 51
256.527647139
  0
LINE
  5
284
330
1F
100
AcDbEntity
  8
0
  6
Continuous
 62
     7
100
AcDbLine
 10
61.6761095249
 20
280.2237445579
 30
0.0
 11
62.0346954592
 21
280.1308628306
 31
0.0
  0
ARC
  5
285
330
1F
100
AcDbEntity
  8
0
  6
Continuous
 62
     7
100
AcDbCircle
 10
62.138669678
 20
280.5039830273
 30
0.0
 40
0.3873361838989725
100
AcDbArc
 50
254.4288953456
 51
308.4288953456
  0
ARC
  5
286
330
1F
100
AcDbEntity
  8
0
  6
Continuous
 62
     7
100
AcDbCircle
 10
71.6942800121
 20
274.7718917974
 30
0.0
 40
10.78132845304311
100
AcDbArc
 50
140.6617152556
 51
149.7665656942
  0
LINE
  5
287
330
1F
100
AcDbEntity
  8
0
  6
Continuous
 62
     7
100
AcDbLine
 10
63.3558192967
 20
281.6061522628
 30
0.0
 11
63.5741565511
 21
281.8716646415
 31
0.0
  0
LINE
  5
288
330
1F
100
AcDbEntity
  8
0
  6
Continuous
 62
     7
100
AcDbLine
 10
63.5741565511
 20
281.8716646415
 30
0.0
 11
64.2862235718
 21
281.6536685873
 31
0.0
  0
LINE
  5
289
330
1F
100
AcDbEntity
  8
0
  6
Continuous
 62
     7
100
AcDbLine
 10
64.2862235718
 20
281.6536685873
 30
0.0
 11
64.3185011518
 21
281.311431626
 31
0.0
  0
ARC
  5
28A
330
1F
100
AcDbEntity
  8
0
  6
Continuous
 62
     7
100
AcDbCircle
 10
53.5831762659
 20
280.3165231846
 30
0.0
 40
10.78132845304077
100
AcDbArc
 50
356.1899767904
 51
5.294827229
  0
ARC
  5
28B
330
1F
100
AcDbEntity
  8
0
  6
Continuous
 62
     7
100
AcDbCircle
 10
64.7100293036
 20
279.7167730655
 30
0.0
 40
0.387336183899021
100
AcDbArc
 50
197.527647139
 51
251.527647139
  0
LINE
  5
28C
330
1F
100
AcDbEntity
  8
0
  6
Continuous
 62
     7
100
AcDbLine
 10
64.5873029874
 20
279.3493937375
 30
0.0
 11
64.936429218
 21
279.2256126298
 31
0.0
  0
INSERT
  5
28E
330
1F
100
AcDbEntity
  8
Default
100
AcDbBlockReference
  2
SE
 10
0.0
 20
0.0
 30
0.0
  0
INSERT
  5
296
330
1F
100
AcDbEntity
  8
Default
100
AcDbBlockReference
  2
SE1
 10
0.0
 20
0.0
 30
0.0
  0
INSERT
  5
29E
330
1F
100
AcDbEntity
  8
Default
100
AcDbBlockReference
  2
SE2
 10
0.0
 20
0.0
 30
0.0
  0
INSERT
  5
2A6
330
1F
100
AcDbEntity
  8
Default
100
AcDbBlockReference
  2
SE3
 10
0.0
 20
0.0
 30
0.0
  0
INSERT
  5
2AE
330
1F
100
AcDbEntity
  8
Default
100
AcDbBlockReference
  2
SE4
 10
0.0
 20
0.0
 30
0.0
  0
INSERT
  5
2B6
330
1F
100
AcDbEntity
  8
Default
100
AcDbBlockReference
  2
SE5
 10
0.0
 20
0.0
 30
0.0
  0
INSERT
  5
2BE
330
1F
100
AcDbEntity
  8
Default
100
AcDbBlockReference
  2
SE6
 10
0.0
 20
0.0
 30
0.0
  0
INSERT
  5
2C6
330
1F
100
AcDbEntity
  8
Default
100
AcDbBlockReference
  2
SE7
 10
0.0
 20
0.0
 30
0.0
  0
INSERT
  5
2CE
330
1F
100
AcDbEntity
  8
Default
100
AcDbBlockReference
  2
SE8
 10
0.0
 20
0.0
 30
0.0
  0
INSERT
  5
2D6
330
1F
100
AcDbEntity
  8
Default
100
AcDbBlockReference
  2
SE9
 10
0.0
 20
0.0
 30
0.0
  0
INSERT
  5
2DE
330
1F
100
AcDbEntity
  8
Default
100
AcDbBlockReference
  2
SE10
 10
0.0
 20
0.0
 30
0.0
  0
INSERT
  5
2E6
330
1F
100
AcDbEntity
  8
Default
100
AcDbBlockReference
  2
SE11
 10
0.0
 20
0.0
 30
0.0
  0
INSERT
  5
2EE
330
1F
100
AcDbEntity
  8
Default
100
AcDbBlockReference
  2
SE12
 10
0.0
 20
0.0
 30
0.0
  0
INSERT
  5
2F6
330
1F
100
AcDbEntity
  8
Default
100
AcDbBlockReference
  2
SE13
 10
0.0
 20
0.0
 30
0.0
  0
INSERT
  5
2FE
330
1F
100
AcDbEntity
  8
Default
100
AcDbBlockReference
  2
SE14
 10
0.0
 20
0.0
 30
0.0
  0
INSERT
  5
303
330
1F
100
AcDbEntity
  8
Default
100
AcDbBlockReference
  2
SE15
 10
0.0
 20
0.0
 30
0.0
  0
INSERT
  5
30A
330
1F
100
AcDbEntity
  8
Default
100
AcDbBlockReference
  2
SE16
 10
0.0
 20
0.0
 30
0.0
  0
INSERT
  5
37E
330
1F
100
AcDbEntity
  8
Default
100
AcDbBlockReference
  2
SE33
 10
0.0
 20
0.0
 30
0.0
  0
INSERT
  5
386
330
1F
100
AcDbEntity
  8
Default
100
AcDbBlockReference
  2
SE34
 10
0.0
 20
0.0
 30
0.0
  0
INSERT
  5
38E
330
1F
100
AcDbEntity
  8
Default
100
AcDbBlockReference
  2
SE35
 10
0.0
 20
0.0
 30
0.0
  0
INSERT
  5
396
330
1F
100
AcDbEntity
  8
Default
100
AcDbBlockReference
  2
SE36
 10
0.0
 20
0.0
 30
0.0
  0
INSERT
  5
39E
330
1F
100
AcDbEntity
  8
Default
100
AcDbBlockReference
  2
SE37
 10
0.0
 20
0.0
 30
0.0
  0
INSERT
  5
3A6
330
1F
100
AcDbEntity
  8
Default
100
AcDbBlockReference
  2
SE38
 10
0.0
 20
0.0
 30
0.0
  0
INSERT
  5
3AB
330
1F
100
AcDbEntity
  8
Default
100
AcDbBlockReference
  2
SE39
 10
0.0
 20
0.0
 30
0.0
  0
INSERT
  5
3B2
330
1F
100
AcDbEntity
  8
Default
100
AcDbBlockReference
  2
SE40
 10
0.0
 20
0.0
 30
0.0
  0
ENDSEC
  0
SECTION
  2
OBJECTS
  0
DICTIONARY
  5
C
330
0
100
AcDbDictionary
281
     1
  3
ACAD_GROUP
350
D
  3
ACAD_LAYOUT
350
1A
  3
ACAD_MLEADERSTYLE
350
3BB
  3
ACAD_MLINESTYLE
350
17
  3
ACAD_PLOTSETTINGS
350
19
  3
ACAD_PLOTSTYLENAME
350
E
  3
ACAD_VISUALSTYLE
350
2A
  3
AcDbVariableDictionary
350
3B9
  0
DICTIONARY
  5
D
102
{ACAD_REACTORS
330
C
102
}
330
C
100
AcDbDictionary
281
     1
  0
DICTIONARY
  5
1A
102
{ACAD_REACTORS
330
C
102
}
330
C
100
AcDbDictionary
281
     1
  3
Layout1
350
1E
  3
Model
350
22
  0
DICTIONARY
  5
3BB
102
{ACAD_REACTORS
330
C
102
}
330
C
100
AcDbDictionary
281
     1
  0
DICTIONARY
  5
17
102
{ACAD_REACTORS
330
C
102
}
330
C
100
AcDbDictionary
281
     1
  3
Standard
350
18
  0
DICTIONARY
  5
19
102
{ACAD_REACTORS
330
C
102
}
330
C
100
AcDbDictionary
281
     1
  0
ACDBDICTIONARYWDFLT
  5
E
102
{ACAD_REACTORS
330
C
102
}
330
C
100
AcDbDictionary
281
     1
  3
Normal
350
F
100
AcDbDictionaryWithDefault
340
F
  0
DICTIONARY
  5
2A
102
{ACAD_REACTORS
330
C
102
}
330
C
100
AcDbDictionary
281
     1
  3
2dWireframe
350
2F
  3
3D Hidden
350
31
  3
3dWireframe
350
30
  3
Basic
350
32
  3
Brighten
350
36
  3
ColorChange
350
3A
  3
Conceptual
350
34
  3
Dim
350
35
  3
Facepattern
350
39
  3
Flat
350
2B
  3
FlatWithEdges
350
2C
  3
Gouraud
350
2D
  3
GouraudWithEdges
350
2E
  3
Linepattern
350
38
  3
Realistic
350
33
  3
Thicken
350
37
  0
DICTIONARY
  5
3B9
102
{ACAD_REACTORS
330
C
102
}
330
C
100
AcDbDictionary
281
     1
  3
PSOLHEIGHT
350
3BD
  3
PSOLWIDTH
350
3BC
  0
LAYOUT
  5
1E
102
{ACAD_REACTORS
330
1A
102
}
330
1A
100
AcDbPlotSettings
  1

  2
none_device
  4

  6

 40
0.0
 41
0.0
 42
0.0
 43
0.0
 44
0.0
 45
0.0
 46
0.0
 47
0.0
 48
0.0
 49
0.0
140
0.0
141
0.0
142
1.0
143
1.0
 70
   688
 72
     0
 73
     0
 74
     5
  7

 75
    16
147
1.0
148
0.0
149
0.0
100
AcDbLayout
  1
Layout1
 70
     1
 71
     1
 10
0.0
 20
0.0
 11
450.0
 21
300.0
 12
0.0
 22
0.0
 32
0.0
 14
0.0
 24
0.0
 34
0.0
 15
450.0
 25
300.0
 35
0.0
146
0.0
 13
0.0
 23
0.0
 33
0.0
 16
1.0
 26
0.0
 36
0.0
 17
0.0
 27
1.0
 37
0.0
 76
     0
330
1B
  0
LAYOUT
  5
22
102
{ACAD_REACTORS
330
1A
102
}
330
1A
100
AcDbPlotSettings
  1

  2
none_device
  4

  6

 40
0.0
 41
0.0
 42
0.0
 43
0.0
 44
0.0
 45
0.0
 46
0.0
 47
0.0
 48
0.0
 49
0.0
140
0.0
141
0.0
142
1.0
143
1.0
 70
  1712
 72
     0
 73
     0
 74
     0
  7

 75
     0
147
1.0
148
0.0
149
0.0
100
AcDbLayout
  1
Model
 70
     1
 71
     0
 10
0.0
 20
0.0
 11
450.0
 21
300.0
 12
0.0
 22
0.0
 32
0.0
 14
0.0
 24
0.0
 34
0.0
 15
450.0
 25
300.0
 35
0.0
146
0.0
 13
0.0
 23
0.0
 33
0.0
 16
1.0
 26
0.0
 36
0.0
 17
0.0
 27
1.0
 37
0.0
 76
     0
330
1F
331
29
  0
MLINESTYLE
  5
18
102
{ACAD_REACTORS
330
17
102
}
330
17
100
AcDbMlineStyle
  2
Standard
 70
     0
  3

 62
   256
 51
90.0
 52
90.0
 71
     2
 49
0.5
 62
   256
  6
BYLAYER
 49
-0.5
 62
   256
  6
BYLAYER
  0
ACDBPLACEHOLDER
  5
F
102
{ACAD_REACTORS
330
E
102
}
330
E
  0
VISUALSTYLE
  5
2F
102
{ACAD_REACTORS
330
2A
102
}
330
2A
100
AcDbVisualStyle
  2
2dWireframe
 70
     4
 71
     0
 72
     2
 73
     0
 90
        0
 40
-0.6
 41
-30.0
 62
     5
 63
     7
 74
     1
 91
        4
 64
     7
 65
   257
 75
     1
175
     1
 42
1.0
 92
        0
 66
   257
 43
1.0
 76
     1
 77
     6
 78
     2
 67
     7
 79
     5
170
     0
171
     0
290
     0
174
     0
 93
        1
 44
0.0
173
     0
291
     0
 45
0.0
1001
ACAD
1000
AcDbSavedByObjectVersion
1070
     0
  0
VISUALSTYLE
  5
31
102
{ACAD_REACTORS
330
2A
102
}
330
2A
100
AcDbVisualStyle
  2
3D Hidden
 70
     6
 71
     1
 72
     2
 73
     2
 90
        0
 40
-0.6
 41
-30.0
 62
     5
 63
     7
 74
     2
 91
        2
 64
     7
 65
   257
 75
     2
175
     1
 42
40.0
 92
        0
 66
   257
 43
1.0
 76
     1
 77
     6
 78
     2
 67
     7
 79
     3
170
     0
171
     0
290
     0
174
     0
 93
        1
 44
0.0
173
     0
291
     0
 45
0.0
1001
ACAD
1000
AcDbSavedByObjectVersion
1070
     0
  0
VISUALSTYLE
  5
30
102
{ACAD_REACTORS
330
2A
102
}
330
2A
100
AcDbVisualStyle
  2
3dWireframe
 70
     5
 71
     0
 72
     2
 73
     0
 90
        0
 40
-0.6
 41
-30.0
 62
     5
 63
     7
 74
     1
 91
        4
 64
     7
 65
   257
 75
     1
175
     1
 42
1.0
 92
        0
 66
   257
 43
1.0
 76
     1
 77
     6
 78
     2
 67
     7
 79
     5
170
     0
171
     0
290
     0
174
     0
 93
        1
 44
0.0
173
     0
291
     0
 45
0.0
1001
ACAD
1000
AcDbSavedByObjectVersion
1070
     0
  0
VISUALSTYLE
  5
32
102
{ACAD_REACTORS
330
2A
102
}
330
2A
100
AcDbVisualStyle
  2
Basic
 70
     7
 71
     1
 72
     0
 73
     1
 90
        0
 40
-0.6
 41
-30.0
 62
     5
 63
     7
 74
     0
 91
        4
 64
     7
 65
   257
 75
     1
175
     1
 42
1.0
 92
        8
 66
     7
 43
1.0
 76
     1
 77
     6
 78
     2
 67
     7
 79
     5
170
     0
171
     0
290
     0
174
     0
 93
        1
 44
0.0
173
     0
291
     1
 45
0.0
1001
ACAD
1000
AcDbSavedByObjectVersion
1070
     0
  0
VISUALSTYLE
  5
36
102
{ACAD_REACTORS
330
2A
102
}
330
2A
100
AcDbVisualStyle
  2
Brighten
 70
    12
 71
     2
 72
     2
 73
     0
 90
        0
 40
-0.6
 41
-30.0
 62
     5
 63
     7
 74
     1
 91
        4
 64
     7
 65
   257
 75
     1
175
     1
 42
1.0
 92
        8
 66
     7
 43
1.0
 76
     1
 77
     6
 78
     2
 67
     7
 79
     5
170
     0
171
     0
290
     0
174
     0
 93
        1
 44
50.0
173
     0
291
     1
 45
0.0
1001
ACAD
1000
AcDbSavedByObjectVersion
1070
     0
  0
VISUALSTYLE
  5
3A
102
{ACAD_REACTORS
330
2A
102
}
330
2A
100
AcDbVisualStyle
  2
ColorChange
 70
    16
 71
     2
 72
     2
 73
     3
 90
        0
 40
-0.6
 41
-30.0
 62
     5
 63
     8
 74
     1
 91
        4
 64
     7
 65
   257
 75
     1
175
     1
 42
1.0
 92
        8
 66
     8
 43
1.0
 76
     1
 77
     6
 78
     2
 67
     7
 79
     5
170
     0
171
     0
290
     0
174
     0
 93
        1
 44
0.0
173
     0
291
     1
 45
0.0
1001
ACAD
1000
AcDbSavedByObjectVersion
1070
     0
  0
VISUALSTYLE
  5
34
102
{ACAD_REACTORS
330
2A
102
}
330
2A
100
AcDbVisualStyle
  2
Conceptual
 70
     9
 71
     3
 72
     2
 73
     0
 90
        0
 40
-0.6
 41
-30.0
 62
     5
 63
     7
 74
     2
 91
        2
 64
     7
 65
   257
 75
     1
175
     1
 42
40.0
 92
        8
 66
     7
 43
1.0
 76
     1
 77
     6
 78
     2
 67
     7
 79
     3
170
     0
171
     0
290
     0
174
     0
 93
        1
 44
0.0
173
     0
291
     0
 45
0.0
1001
ACAD
1000
AcDbSavedByObjectVersion
1070
     0
  0
VISUALSTYLE
  5
35
102
{ACAD_REACTORS
330
2A
102
}
330
2A
100
AcDbVisualStyle
  2
Dim
 70
    11
 71
     2
 72
     2
 73
     0
 90
        0
 40
-0.6
 41
-30.0
 62
     5
 63
     7
 74
     1
 91
        4
 64
     7
 65
   257
 75
     1
175
     1
 42
1.0
 92
        8
 66
     7
 43
1.0
 76
     1
 77
     6
 78
     2
 67
     7
 79
     5
170
     0
171
     0
290
     0
174
     0
 93
        1
 44
-50.0
173
     0
291
     1
 45
0.0
1001
ACAD
1000
AcDbSavedByObjectVersion
1070
     0
  0
VISUALSTYLE
  5
39
102
{ACAD_REACTORS
330
2A
102
}
330
2A
100
AcDbVisualStyle
  2
Facepattern
 70
    15
 71
     2
 72
     2
 73
     0
 90
        0
 40
-0.6
 41
-30.0
 62
     5
 63
     7
 74
     1
 91
        4
 64
     7
 65
   257
 75
     1
175
     1
 42
1.0
 92
        8
 66
     7
 43
1.0
 76
     1
 77
     6
 78
     2
 67
     7
 79
     5
170
     0
171
     0
290
     0
174
     0
 93
        1
 44
0.0
173
     0
291
     1
 45
0.0
1001
ACAD
1000
AcDbSavedByObjectVersion
1070
     0
  0
VISUALSTYLE
  5
2B
102
{ACAD_REACTORS
330
2A
102
}
330
2A
100
AcDbVisualStyle
  2
Flat
 70
     0
 71
     2
 72
     1
 73
     1
 90
        2
 40
-0.6
 41
30.0
 62
     5
 63
     7
 74
     0
 91
        4
 64
     7
 65
   257
 75
     1
175
     1
 42
1.0
 92
        8
 66
     7
 43
1.0
 76
     1
 77
     6
 78
     2
 67
     7
 79
     5
170
     0
171
     0
290
     0
174
     0
 93
       13
 44
0.0
173
     0
291
     1
 45
0.0
1001
ACAD
1000
AcDbSavedByObjectVersion
1070
     0
  0
VISUALSTYLE
  5
2C
102
{ACAD_REACTORS
330
2A
102
}
330
2A
100
AcDbVisualStyle
  2
FlatWithEdges
 70
     1
 71
     2
 72
     1
 73
     1
 90
        2
 40
-0.6
 41
30.0
 62
     5
 63
     7
 74
     1
 91
        4
 64
     7
 65
   257
 75
     1
175
     1
 42
1.0
 92
        0
 66
   257
 43
1.0
 76
     1
 77
     6
 78
     2
 67
     7
 79
     5
170
     0
171
     0
290
     0
174
     0
 93
       13
 44
0.0
173
     0
291
     1
 45
0.0
1001
ACAD
1000
AcDbSavedByObjectVersion
1070
     0
  0
VISUALSTYLE
  5
2D
102
{ACAD_REACTORS
330
2A
102
}
330
2A
100
AcDbVisualStyle
  2
Gouraud
 70
     2
 71
     2
 72
     2
 73
     1
 90
        2
 40
-0.6
 41
30.0
 62
     5
 63
     7
 74
     0
 91
        4
 64
     7
 65
   257
 75
     1
175
     1
 42
1.0
 92
        0
 66
     7
 43
1.0
 76
     1
 77
     6
 78
     2
 67
     7
 79
     5
170
     0
171
     0
290
     0
174
     0
 93
       13
 44
0.0
173
     0
291
     1
 45
0.0
1001
ACAD
1000
AcDbSavedByObjectVersion
1070
     0
  0
VISUALSTYLE
  5
2E
102
{ACAD_REACTORS
330
2A
102
}
330
2A
100
AcDbVisualStyle
  2
GouraudWithEdges
 70
     3
 71
     2
 72
     2
 73
     1
 90
        2
 40
-0.6
 41
30.0
 62
     5
 63
     7
 74
     1
 91
        4
 64
     7
 65
   257
 75
     1
175
     1
 42
1.0
 92
        0
 66
   257
 43
1.0
 76
     1
 77
     6
 78
     2
 67
     7
 79
     5
170
     0
171
     0
290
     0
174
     0
 93
       13
 44
0.0
173
     0
291
     1
 45
0.0
1001
ACAD
1000
AcDbSavedByObjectVersion
1070
     0
  0
VISUALSTYLE
  5
38
102
{ACAD_REACTORS
330
2A
102
}
330
2A
100
AcDbVisualStyle
  2
Linepattern
 70
    14
 71
     2
 72
     2
 73
     0
 90
        0
 40
-0.6
 41
-30.0
 62
     5
 63
     7
 74
     1
 91
        4
 64
     7
 65
   257
 75
     7
175
     7
 42
1.0
 92
        8
 66
     7
 43
1.0
 76
     1
 77
     6
 78
     2
 67
     7
 79
     5
170
     0
171
     0
290
     0
174
     0
 93
        1
 44
0.0
173
     0
291
     1
 45
0.0
1001
ACAD
1000
AcDbSavedByObjectVersion
1070
     0
  0
VISUALSTYLE
  5
33
102
{ACAD_REACTORS
330
2A
102
}
330
2A
100
AcDbVisualStyle
  2
Realistic
 70
     8
 71
     2
 72
     2
 73
     0
 90
        0
 40
-0.6
 41
-30.0
 62
     5
 63
     7
 74
     1
 91
        0
 64
     7
 65
   257
 75
     1
175
     1
 42
1.0
 92
        8
 66
     8
 43
1.0
 76
     1
 77
     6
 78
     2
 67
     7
 79
     5
170
     0
171
     0
290
     0
174
     0
 93
       13
 44
0.0
173
     0
291
     0
 45
0.0
1001
ACAD
1000
AcDbSavedByObjectVersion
1070
     0
  0
VISUALSTYLE
  5
37
102
{ACAD_REACTORS
330
2A
102
}
330
2A
100
AcDbVisualStyle
  2
Thicken
 70
    13
 71
     2
 72
     2
 73
     0
 90
        0
 40
-0.6
 41
-30.0
 62
     5
 63
     7
 74
     1
 91
        4
 64
     7
 65
   257
 75
     1
175
     1
 42
1.0
 92
       12
 66
     7
 43
1.0
 76
     1
 77
     6
 78
     2
 67
     7
 79
     5
170
     0
171
     0
290
     0
174
     0
 93
        1
 44
0.0
173
     0
291
     1
 45
0.0
1001
ACAD
1000
AcDbSavedByObjectVersion
1070
     0
  0
DICTIONARYVAR
  5
3BD
102
{ACAD_REACTORS
330
3B9
102
}
330
3B9
100
DictionaryVariables
280
     0
  1
80.000000
  0
DICTIONARYVAR
  5
3BC
102
{ACAD_REACTORS
330
3B9
102
}
330
3B9
100
DictionaryVariables
280
     0
  1
5.000000
  0
ENDSEC
  0
EOF
