  0
SECTION
  2
HEADER
  9
$ACADVER
  1
AC1015
  9
$ACADMAINTVER
 70
     6
  9
$DWGCODEPAGE
  3
ANSI_1252
  9
$INSBASE
 10
0.0
 20
0.0
 30
0.0
  9
$EXTMIN
 10
0.0
 20
0.0
 30
0.0
  9
$EXTMAX
 10
450.0
 20
300.0
 30
0.0
  9
$LIMMIN
 10
0.0
 20
0.0
  9
$LIMMAX
 10
450.0
 20
300.0
  9
$ORTHOMODE
 70
     0
  9
$REGENMODE
 70
     1
  9
$FILLMODE
 70
     1
  9
$QTEXTMODE
 70
     0
  9
$MIRRTEXT
 70
     1
  9
$LTSCALE
 40
1.0
  9
$ATTMODE
 70
     1
  9
$TEXTSIZE
 40
2.5
  9
$TRACEWID
 40
1.0
  9
$TEXTSTYLE
  7
Standard
  9
$CLAYER
  8
0
  9
$CELTYPE
  6
ByLayer
  9
$CECOLOR
 62
   256
  9
$CELTSCALE
 40
1.0
  9
$DISPSILH
 70
     0
  9
$DIMSCALE
 40
1.0
  9
$DIMASZ
 40
2.5
  9
$DIMEXO
 40
0.625
  9
$DIMDLI
 40
3.75
  9
$DIMRND
 40
0.0
  9
$DIMDLE
 40
0.0
  9
$DIMEXE
 40
1.25
  9
$DIMTP
 40
0.0
  9
$DIMTM
 40
0.0
  9
$DIMTXT
 40
2.5
  9
$DIMCEN
 40
2.5
  9
$DIMTSZ
 40
0.0
  9
$DIMTOL
 70
     0
  9
$DIMLIM
 70
     0
  9
$DIMTIH
 70
     0
  9
$DIMTOH
 70
     0
  9
$DIMSE1
 70
     0
  9
$DIMSE2
 70
     0
  9
$DIMTAD
 70
     1
  9
$DIMZIN
 70
     8
  9
$DIMBLK
  1

  9
$DIMASO
 70
     1
  9
$DIMSHO
 70
     1
  9
$DIMPOST
  1

  9
$DIMAPOST
  1

  9
$DIMALT
 70
     0
  9
$DIMALTD
 70
     3
  9
$DIMALTF
 40
0.0393700787
  9
$DIMLFAC
 40
1.0
  9
$DIMTOFL
 70
     1
  9
$DIMTVP
 40
0.0
  9
$DIMTIX
 70
     0
  9
$DIMSOXD
 70
     0
  9
$DIMSAH
 70
     0
  9
$DIMBLK1
  1

  9
$DIMBLK2
  1

  9
$DIMSTYLE
  2
ISO-25
  9
$DIMCLRD
 70
     0
  9
$DIMCLRE
 70
     0
  9
$DIMCLRT
 70
     0
  9
$DIMTFAC
 40
1.0
  9
$DIMGAP
 40
0.625
  9
$DIMJUST
 70
     0
  9
$DIMSD1
 70
     0
  9
$DIMSD2
 70
     0
  9
$DIMTOLJ
 70
     0
  9
$DIMTZIN
 70
     8
  9
$DIMALTZ
 70
     0
  9
$DIMALTTZ
 70
     0
  9
$DIMUPT
 70
     0
  9
$DIMDEC
 70
     2
  9
$DIMTDEC
 70
     2
  9
$DIMALTU
 70
     2
  9
$DIMALTTD
 70
     3
  9
$DIMTXSTY
  7
Standard
  9
$DIMAUNIT
 70
     0
  9
$DIMADEC
 70
     0
  9
$DIMALTRND
 40
0.0
  9
$DIMAZIN
 70
     0
  9
$DIMDSEP
 70
    44
  9
$DIMATFIT
 70
     3
  9
$DIMFRAC
 70
     0
  9
$DIMLDRBLK
  1

  9
$DIMLUNIT
 70
     2
  9
$DIMLWD
 70
    -2
  9
$DIMLWE
 70
    -2
  9
$DIMTMOVE
 70
     0
  9
$LUNITS
 70
     2
  9
$LUPREC
 70
     4
  9
$SKETCHINC
 40
1.0
  9
$FILLETRAD
 40
10.0
  9
$AUNITS
 70
     0
  9
$AUPREC
 70
     0
  9
$MENU
  1
.
  9
$ELEVATION
 40
0.0
  9
$PELEVATION
 40
0.0
  9
$THICKNESS
 40
0.0
  9
$LIMCHECK
 70
     0
  9
$CHAMFERA
 40
10.0
  9
$CHAMFERB
 40
10.0
  9
$CHAMFERC
 40
20.0
  9
$CHAMFERD
 40
0.0
  9
$SKPOLY
 70
     0
  9
$TDCREATE
 40
2456428.496565127
  9
$TDUCREATE
 40
2456428.621565127
  9
$TDUPDATE
 40
2456428.496565139
  9
$TDUUPDATE
 40
2456428.621565139
  9
$TDINDWG
 40
0.0000000116
  9
$TDUSRTIMER
 40
0.0000000116
  9
$USRTIMER
 70
     1
  9
$ANGBASE
 50
0.0
  9
$ANGDIR
 70
     0
  9
$PDMODE
 70
     0
  9
$PDSIZE
 40
0.0
  9
$PLINEWID
 40
0.0
  9
$SPLFRAME
 70
     0
  9
$SPLINETYPE
 70
     6
  9
$SPLINESEGS
 70
     8
  9
$HANDSEED
  5
2B2
  9
$SURFTAB1
 70
     6
  9
$SURFTAB2
 70
     6
  9
$SURFTYPE
 70
     6
  9
$SURFU
 70
     6
  9
$SURFV
 70
     6
  9
$UCSBASE
  2

  9
$UCSNAME
  2

  9
$UCSORG
 10
0.0
 20
0.0
 30
0.0
  9
$UCSXDIR
 10
1.0
 20
0.0
 30
0.0
  9
$UCSYDIR
 10
0.0
 20
1.0
 30
0.0
  9
$UCSORTHOREF
  2

  9
$UCSORTHOVIEW
 70
     0
  9
$UCSORGTOP
 10
0.0
 20
0.0
 30
0.0
  9
$UCSORGBOTTOM
 10
0.0
 20
0.0
 30
0.0
  9
$UCSORGLEFT
 10
0.0
 20
0.0
 30
0.0
  9
$UCSORGRIGHT
 10
0.0
 20
0.0
 30
0.0
  9
$UCSORGFRONT
 10
0.0
 20
0.0
 30
0.0
  9
$UCSORGBACK
 10
0.0
 20
0.0
 30
0.0
  9
$PUCSBASE
  2

  9
$PUCSNAME
  2

  9
$PUCSORG
 10
0.0
 20
0.0
 30
0.0
  9
$PUCSXDIR
 10
1.0
 20
0.0
 30
0.0
  9
$PUCSYDIR
 10
0.0
 20
1.0
 30
0.0
  9
$PUCSORTHOREF
  2

  9
$PUCSORTHOVIEW
 70
     0
  9
$PUCSORGTOP
 10
0.0
 20
0.0
 30
0.0
  9
$PUCSORGBOTTOM
 10
0.0
 20
0.0
 30
0.0
  9
$PUCSORGLEFT
 10
0.0
 20
0.0
 30
0.0
  9
$PUCSORGRIGHT
 10
0.0
 20
0.0
 30
0.0
  9
$PUCSORGFRONT
 10
0.0
 20
0.0
 30
0.0
  9
$PUCSORGBACK
 10
0.0
 20
0.0
 30
0.0
  9
$USERI1
 70
     0
  9
$USERI2
 70
     0
  9
$USERI3
 70
     0
  9
$USERI4
 70
     0
  9
$USERI5
 70
     0
  9
$USERR1
 40
0.0
  9
$USERR2
 40
0.0
  9
$USERR3
 40
0.0
  9
$USERR4
 40
0.0
  9
$USERR5
 40
0.0
  9
$WORLDVIEW
 70
     1
  9
$SHADEDGE
 70
     3
  9
$SHADEDIF
 70
    70
  9
$TILEMODE
 70
     1
  9
$MAXACTVP
 70
    64
  9
$PINSBASE
 10
0.0
 20
0.0
 30
0.0
  9
$PLIMCHECK
 70
     0
  9
$PEXTMIN
 10
0.0
 20
0.0
 30
0.0
  9
$PEXTMAX
 10
450.0
 20
300.0
 30
0.0
  9
$PLIMMIN
 10
0.0
 20
0.0
  9
$PLIMMAX
 10
450.0
 20
300.0
  9
$UNITMODE
 70
     0
  9
$VISRETAIN
 70
     1
  9
$PLINEGEN
 70
     0
  9
$PSLTSCALE
 70
     1
  9
$TREEDEPTH
 70
  3020
  9
$CMLSTYLE
  2
Standard
  9
$CMLJUST
 70
     0
  9
$CMLSCALE
 40
20.0
  9
$PROXYGRAPHICS
 70
     1
  9
$MEASUREMENT
 70
     1
  9
$CELWEIGHT
370
    -1
  9
$ENDCAPS
280
     0
  9
$JOINSTYLE
280
     0
  9
$LWDISPLAY
290
     0
  9
$INSUNITS
 70
     4
  9
$HYPERLINKBASE
  1

  9
$STYLESHEET
  1

  9
$XEDIT
290
     1
  9
$CEPSNTYPE
380
     0
  9
$PSTYLEMODE
290
     1
  9
$FINGERPRINTGUID
  2
{16F442E7-157E-45F8-903D-3C3AFB1FEE1F}
  9
$VERSIONGUID
  2
{FAEB1C32-E019-11D5-929B-00C0DF256EC4}
  9
$EXTNAMES
290
     1
  9
$PSVPSCALE
 40
0.0
  9
$OLESTARTUP
290
     0
  0
ENDSEC
  0
SECTION
  2
CLASSES
  0
CLASS
  1
ACDBDICTIONARYWDFLT
  2
AcDbDictionaryWithDefault
  3
ObjectDBX Classes
 90
        0
280
     0
281
     0
  0
CLASS
  1
VISUALSTYLE
  2
AcDbVisualStyle
  3
ObjectDBX Classes
 90
     4095
280
     0
281
     0
  0
CLASS
  1
DICTIONARYVAR
  2
AcDbDictionaryVar
  3
ObjectDBX Classes
 90
        0
280
     0
281
     0
  0
CLASS
  1
ACDBPLACEHOLDER
  2
AcDbPlaceHolder
  3
ObjectDBX Classes
 90
        0
280
     0
281
     0
  0
CLASS
  1
LAYOUT
  2
AcDbLayout
  3
ObjectDBX Classes
 90
        0
280
     0
281
     0
  0
ENDSEC
  0
SECTION
  2
TABLES
  0
TABLE
  2
VPORT
  5
8
330
0
100
AcDbSymbolTable
 70
     1
  0
VPORT
  5
29
330
8
100
AcDbSymbolTableRecord
100
AcDbViewportTableRecord
  2
*Active
 70
     0
 10
0.0
 20
0.0
 11
1.0
 21
1.0
 12
344.1869158879
 22
148.5
 13
0.0
 23
0.0
 14
10.0
 24
10.0
 15
10.0
 25
10.0
 16
0.0
 26
0.0
 36
1.0
 17
0.0
 27
0.0
 37
0.0
 40
297.0
 41
1.9729729729
 42
50.0
 43
0.0
 44
0.0
 50
0.0
 51
0.0
 71
     0
 72
   100
 73
     1
 74
     3
 75
     0
 76
     0
 77
     0
 78
     0
281
     0
 65
     1
110
0.0
120
0.0
130
0.0
111
1.0
121
0.0
131
0.0
112
0.0
122
1.0
132
0.0
 79
     0
146
0.0
  0
ENDTAB
  0
TABLE
  2
LTYPE
  5
5
330
0
100
AcDbSymbolTable
 70
     1
  0
LTYPE
  5
14
330
5
100
AcDbSymbolTableRecord
100
AcDbLinetypeTableRecord
  2
ByBlock
 70
     0
  3

 72
    65
 73
     0
 40
0.0
  0
LTYPE
  5
15
330
5
100
AcDbSymbolTableRecord
100
AcDbLinetypeTableRecord
  2
ByLayer
 70
     0
  3

 72
    65
 73
     0
 40
0.0
  0
LTYPE
  5
16
330
5
100
AcDbSymbolTableRecord
100
AcDbLinetypeTableRecord
  2
Continuous
 70
     0
  3
Solid line
 72
    65
 73
     0
 40
0.0
  0
ENDTAB
  0
TABLE
  2
LAYER
  5
2
330
0
100
AcDbSymbolTable
 70
     2
  0
LAYER
  5
10
330
2
100
AcDbSymbolTableRecord
100
AcDbLayerTableRecord
  2
0
 70
     0
 62
     7
  6
Continuous
370
    -3
390
F
  0
LAYER
  5
3C
330
2
100
AcDbSymbolTableRecord
100
AcDbLayerTableRecord
  2
Default
 70
     0
 62
     7
  6
Continuous
370
    -3
390
F
  0
ENDTAB
  0
TABLE
  2
STYLE
  5
3
330
0
100
AcDbSymbolTable
 70
     1
  0
STYLE
  5
11
330
3
100
AcDbSymbolTableRecord
100
AcDbTextStyleTableRecord
  2
Standard
 70
     0
 40
0.0
 41
1.0
 50
0.0
 71
     0
 42
2.5
  3
txt
  4

  0
ENDTAB
  0
TABLE
  2
VIEW
  5
6
330
0
100
AcDbSymbolTable
 70
     0
  0
ENDTAB
  0
TABLE
  2
UCS
  5
7
330
0
100
AcDbSymbolTable
 70
     0
  0
ENDTAB
  0
TABLE
  2
APPID
  5
9
330
0
100
AcDbSymbolTable
 70
     1
  0
APPID
  5
12
330
9
100
AcDbSymbolTableRecord
100
AcDbRegAppTableRecord
  2
ACAD
 70
     0
  0
ENDTAB
  0
TABLE
  2
DIMSTYLE
  5
A
330
0
100
AcDbSymbolTable
 70
     1
100
AcDbDimStyleTable
  0
DIMSTYLE
105
27
330
A
100
AcDbSymbolTableRecord
100
AcDbDimStyleTableRecord
  2
ISO-25
 70
     0
 41
2.5
 42
0.625
 43
3.75
 44
1.25
 73
     0
 74
     0
 77
     1
 78
     8
140
2.5
141
2.5
143
0.0393700787
147
0.625
171
     3
172
     1
271
     2
272
     2
274
     3
278
    44
283
     0
284
     8
340
11
  0
ENDTAB
  0
TABLE
  2
BLOCK_RECORD
  5
1
330
0
100
AcDbSymbolTable
 70
    23
  0
BLOCK_RECORD
  5
1F
330
1
100
AcDbSymbolTableRecord
100
AcDbBlockTableRecord
  2
*Model_Space
340
22
  0
BLOCK_RECORD
  5
1B
330
1
100
AcDbSymbolTableRecord
100
AcDbBlockTableRecord
  2
*Paper_Space
340
1E
  0
BLOCK_RECORD
  5
205
330
1
100
AcDbSymbolTableRecord
100
AcDbBlockTableRecord
  2
SE
340
0
102
{BLKREFS
331
206
102
}
  0
BLOCK_RECORD
  5
20D
330
1
100
AcDbSymbolTableRecord
100
AcDbBlockTableRecord
  2
SE1
340
0
102
{BLKREFS
331
20E
102
}
  0
BLOCK_RECORD
  5
215
330
1
100
AcDbSymbolTableRecord
100
AcDbBlockTableRecord
  2
SE2
340
0
102
{BLKREFS
331
216
102
}
  0
BLOCK_RECORD
  5
21D
330
1
100
AcDbSymbolTableRecord
100
AcDbBlockTableRecord
  2
SE3
340
0
102
{BLKREFS
331
21E
102
}
  0
BLOCK_RECORD
  5
225
330
1
100
AcDbSymbolTableRecord
100
AcDbBlockTableRecord
  2
SE4
340
0
102
{BLKREFS
331
226
102
}
  0
BLOCK_RECORD
  5
22D
330
1
100
AcDbSymbolTableRecord
100
AcDbBlockTableRecord
  2
SE5
340
0
102
{BLKREFS
331
22E
102
}
  0
BLOCK_RECORD
  5
232
330
1
100
AcDbSymbolTableRecord
100
AcDbBlockTableRecord
  2
SE6
340
0
102
{BLKREFS
331
233
102
}
  0
BLOCK_RECORD
  5
23A
330
1
100
AcDbSymbolTableRecord
100
AcDbBlockTableRecord
  2
SE7
340
0
102
{BLKREFS
331
23B
102
}
  0
BLOCK_RECORD
  5
242
330
1
100
AcDbSymbolTableRecord
100
AcDbBlockTableRecord
  2
SE8
340
0
102
{BLKREFS
331
243
102
}
  0
BLOCK_RECORD
  5
24A
330
1
100
AcDbSymbolTableRecord
100
AcDbBlockTableRecord
  2
SE9
340
0
102
{BLKREFS
331
24B
102
}
  0
BLOCK_RECORD
  5
252
330
1
100
AcDbSymbolTableRecord
100
AcDbBlockTableRecord
  2
SE10
340
0
102
{BLKREFS
331
253
102
}
  0
BLOCK_RECORD
  5
25A
330
1
100
AcDbSymbolTableRecord
100
AcDbBlockTableRecord
  2
SE11
340
0
102
{BLKREFS
331
25B
102
}
  0
BLOCK_RECORD
  5
262
330
1
100
AcDbSymbolTableRecord
100
AcDbBlockTableRecord
  2
SE12
340
0
102
{BLKREFS
331
263
102
}
  0
BLOCK_RECORD
  5
26A
330
1
100
AcDbSymbolTableRecord
100
AcDbBlockTableRecord
  2
SE13
340
0
102
{BLKREFS
331
26B
102
}
  0
BLOCK_RECORD
  5
272
330
1
100
AcDbSymbolTableRecord
100
AcDbBlockTableRecord
  2
SE14
340
0
102
{BLKREFS
331
273
102
}
  0
BLOCK_RECORD
  5
27A
330
1
100
AcDbSymbolTableRecord
100
AcDbBlockTableRecord
  2
SE15
340
0
102
{BLKREFS
331
27B
102
}
  0
BLOCK_RECORD
  5
282
330
1
100
AcDbSymbolTableRecord
100
AcDbBlockTableRecord
  2
SE16
340
0
102
{BLKREFS
331
283
102
}
  0
BLOCK_RECORD
  5
28A
330
1
100
AcDbSymbolTableRecord
100
AcDbBlockTableRecord
  2
SE17
340
0
102
{BLKREFS
331
28B
102
}
  0
BLOCK_RECORD
  5
292
330
1
100
AcDbSymbolTableRecord
100
AcDbBlockTableRecord
  2
SE18
340
0
102
{BLKREFS
331
293
102
}
  0
BLOCK_RECORD
  5
29A
330
1
100
AcDbSymbolTableRecord
100
AcDbBlockTableRecord
  2
SE19
340
0
102
{BLKREFS
331
29B
102
}
  0
BLOCK_RECORD
  5
2A1
330
1
100
AcDbSymbolTableRecord
100
AcDbBlockTableRecord
  2
SE20
340
0
102
{BLKREFS
331
2A2
102
}
  0
BLOCK_RECORD
  5
2A6
330
1
100
AcDbSymbolTableRecord
100
AcDbBlockTableRecord
  2
SE21
340
0
102
{BLKREFS
331
2A7
102
}
  0
ENDTAB
  0
ENDSEC
  0
SECTION
  2
BLOCKS
  0
BLOCK
  5
20
330
1F
100
AcDbEntity
  8
0
100
AcDbBlockBegin
  2
*Model_Space
 70
     0
 10
0.0
 20
0.0
 30
0.0
  3
*Model_Space
  1

  0
ENDBLK
  5
21
330
1F
100
AcDbEntity
  8
0
100
AcDbBlockEnd
  0
BLOCK
  5
1C
330
1B
100
AcDbEntity
 67
     1
  8
0
100
AcDbBlockBegin
  2
*Paper_Space
 70
     0
 10
0.0
 20
0.0
 30
0.0
  3
*Paper_Space
  1

  0
ENDBLK
  5
1D
330
1B
100
AcDbEntity
 67
     1
  8
0
100
AcDbBlockEnd
  0
BLOCK
  5
20B
330
205
100
AcDbEntity
  8
0
100
AcDbBlockBegin
  2
SE
 70
     0
 10
0.0
 20
0.0
 30
0.0
  3
SE
  1

  0
LINE
  5
207
330
205
100
AcDbEntity
  8
Default
  6
Continuous
 62
     7
100
AcDbLine
 10
26.2460639193
 20
285.5829109356
 30
0.0
 11
26.2460639193
 21
282.5829109356
 31
0.0
  0
LINE
  5
208
330
205
100
AcDbEntity
  8
Default
  6
Continuous
 62
     7
100
AcDbLine
 10
29.2460639193
 20
285.5829109356
 30
0.0
 11
26.2460639193
 21
285.5829109356
 31
0.0
  0
LINE
  5
209
330
205
100
AcDbEntity
  8
Default
  6
Continuous
 62
     7
100
AcDbLine
 10
29.2460639193
 20
282.5829109356
 30
0.0
 11
29.2460639193
 21
285.5829109356
 31
0.0
  0
LINE
  5
20A
330
205
100
AcDbEntity
  8
Default
  6
Continuous
 62
     7
100
AcDbLine
 10
26.2460639193
 20
282.5829109356
 30
0.0
 11
29.2460639193
 21
282.5829109356
 31
0.0
  0
ENDBLK
  5
20C
330
205
100
AcDbEntity
  8
0
100
AcDbBlockEnd
  0
BLOCK
  5
213
330
20D
100
AcDbEntity
  8
0
100
AcDbBlockBegin
  2
SE1
 70
     0
 10
0.0
 20
0.0
 30
0.0
  3
SE1
  1

  0
LINE
  5
20F
330
20D
100
AcDbEntity
  8
Default
  6
Continuous
 62
     7
100
AcDbLine
 10
35.2460639193
 20
285.5829109356
 30
0.0
 11
35.2460639193
 21
282.5829109356
 31
0.0
  0
LINE
  5
210
330
20D
100
AcDbEntity
  8
Default
  6
Continuous
 62
     7
100
AcDbLine
 10
38.2460639193
 20
285.5829109356
 30
0.0
 11
35.2460639193
 21
285.5829109356
 31
0.0
  0
LINE
  5
211
330
20D
100
AcDbEntity
  8
Default
  6
Continuous
 62
     7
100
AcDbLine
 10
38.2460639193
 20
282.5829109356
 30
0.0
 11
38.2460639193
 21
285.5829109356
 31
0.0
  0
LINE
  5
212
330
20D
100
AcDbEntity
  8
Default
  6
Continuous
 62
     7
100
AcDbLine
 10
35.2460639193
 20
282.5829109356
 30
0.0
 11
38.2460639193
 21
282.5829109356
 31
0.0
  0
ENDBLK
  5
214
330
20D
100
AcDbEntity
  8
0
100
AcDbBlockEnd
  0
BLOCK
  5
21B
330
215
100
AcDbEntity
  8
0
100
AcDbBlockBegin
  2
SE2
 70
     0
 10
0.0
 20
0.0
 30
0.0
  3
SE2
  1

  0
LINE
  5
217
330
215
100
AcDbEntity
  8
Default
  6
Continuous
 62
     7
100
AcDbLine
 10
44.2460639193
 20
285.5829109356
 30
0.0
 11
44.2460639193
 21
282.5829109356
 31
0.0
  0
LINE
  5
218
330
215
100
AcDbEntity
  8
Default
  6
Continuous
 62
     7
100
AcDbLine
 10
47.2460639193
 20
285.5829109356
 30
0.0
 11
44.2460639193
 21
285.5829109356
 31
0.0
  0
LINE
  5
219
330
215
100
AcDbEntity
  8
Default
  6
Continuous
 62
     7
100
AcDbLine
 10
47.2460639193
 20
282.5829109356
 30
0.0
 11
47.2460639193
 21
285.5829109356
 31
0.0
  0
LINE
  5
21A
330
215
100
AcDbEntity
  8
Default
  6
Continuous
 62
     7
100
AcDbLine
 10
44.2460639193
 20
282.5829109356
 30
0.0
 11
47.2460639193
 21
282.5829109356
 31
0.0
  0
ENDBLK
  5
21C
330
215
100
AcDbEntity
  8
0
100
AcDbBlockEnd
  0
BLOCK
  5
223
330
21D
100
AcDbEntity
  8
0
100
AcDbBlockBegin
  2
SE3
 70
     0
 10
0.0
 20
0.0
 30
0.0
  3
SE3
  1

  0
LINE
  5
21F
330
21D
100
AcDbEntity
  8
Default
  6
Continuous
 62
     7
100
AcDbLine
 10
56.2460639193
 20
258.5829109356
 30
0.0
 11
53.2460639193
 21
258.5829109356
 31
0.0
  0
LINE
  5
220
330
21D
100
AcDbEntity
  8
Default
  6
Continuous
 62
     7
100
AcDbLine
 10
56.2460639193
 20
255.5829109356
 30
0.0
 11
56.2460639193
 21
258.5829109356
 31
0.0
  0
LINE
  5
221
330
21D
100
AcDbEntity
  8
Default
  6
Continuous
 62
     7
100
AcDbLine
 10
53.2460639193
 20
255.5829109356
 30
0.0
 11
56.2460639193
 21
255.5829109356
 31
0.0
  0
LINE
  5
222
330
21D
100
AcDbEntity
  8
Default
  6
Continuous
 62
     7
100
AcDbLine
 10
53.2460639193
 20
258.5829109356
 30
0.0
 11
53.2460639193
 21
255.5829109356
 31
0.0
  0
ENDBLK
  5
224
330
21D
100
AcDbEntity
  8
0
100
AcDbBlockEnd
  0
BLOCK
  5
22B
330
225
100
AcDbEntity
  8
0
100
AcDbBlockBegin
  2
SE4
 70
     0
 10
0.0
 20
0.0
 30
0.0
  3
SE4
  1

  0
LINE
  5
227
330
225
100
AcDbEntity
  8
Default
  6
Continuous
 62
     7
100
AcDbLine
 10
56.2460639193
 20
276.5829109356
 30
0.0
 11
53.2460639193
 21
276.5829109356
 31
0.0
  0
LINE
  5
228
330
225
100
AcDbEntity
  8
Default
  6
Continuous
 62
     7
100
AcDbLine
 10
56.2460639193
 20
273.5829109356
 30
0.0
 11
56.2460639193
 21
276.5829109356
 31
0.0
  0
LINE
  5
229
330
225
100
AcDbEntity
  8
Default
  6
Continuous
 62
     7
100
AcDbLine
 10
53.2460639193
 20
273.5829109356
 30
0.0
 11
56.2460639193
 21
273.5829109356
 31
0.0
  0
LINE
  5
22A
330
225
100
AcDbEntity
  8
Default
  6
Continuous
 62
     7
100
AcDbLine
 10
53.2460639193
 20
276.5829109356
 30
0.0
 11
53.2460639193
 21
273.5829109356
 31
0.0
  0
ENDBLK
  5
22C
330
225
100
AcDbEntity
  8
0
100
AcDbBlockEnd
  0
BLOCK
  5
230
330
22D
100
AcDbEntity
  8
0
100
AcDbBlockBegin
  2
SE5
 70
     0
 10
0.0
 20
0.0
 30
0.0
  3
SE5
  1

  0
LINE
  5
22F
330
22D
100
AcDbEntity
  8
Default
  6
Continuous
 62
     7
100
AcDbLine
 10
47.2460639193
 20
267.5829109356
 30
0.0
 11
47.2460639193
 21
264.5829109356
 31
0.0
  0
ENDBLK
  5
231
330
22D
100
AcDbEntity
  8
0
100
AcDbBlockEnd
  0
BLOCK
  5
238
330
232
100
AcDbEntity
  8
0
100
AcDbBlockBegin
  2
SE6
 70
     0
 10
0.0
 20
0.0
 30
0.0
  3
SE6
  1

  0
LINE
  5
234
330
232
100
AcDbEntity
  8
Default
  6
Continuous
 62
     7
100
AcDbLine
 10
26.2460639193
 20
276.5829109356
 30
0.0
 11
26.2460639193
 21
273.5829109356
 31
0.0
  0
LINE
  5
235
330
232
100
AcDbEntity
  8
Default
  6
Continuous
 62
     7
100
AcDbLine
 10
29.2460639193
 20
276.5829109356
 30
0.0
 11
26.2460639193
 21
276.5829109356
 31
0.0
  0
LINE
  5
236
330
232
100
AcDbEntity
  8
Default
  6
Continuous
 62
     7
100
AcDbLine
 10
29.2460639193
 20
273.5829109356
 30
0.0
 11
29.2460639193
 21
276.5829109356
 31
0.0
  0
LINE
  5
237
330
232
100
AcDbEntity
  8
Default
  6
Continuous
 62
     7
100
AcDbLine
 10
26.2460639193
 20
273.5829109356
 30
0.0
 11
29.2460639193
 21
273.5829109356
 31
0.0
  0
ENDBLK
  5
239
330
232
100
AcDbEntity
  8
0
100
AcDbBlockEnd
  0
BLOCK
  5
240
330
23A
100
AcDbEntity
  8
0
100
AcDbBlockBegin
  2
SE7
 70
     0
 10
0.0
 20
0.0
 30
0.0
  3
SE7
  1

  0
LINE
  5
23C
330
23A
100
AcDbEntity
  8
Default
  6
Continuous
 62
     7
100
AcDbLine
 10
35.2460639193
 20
276.5829109356
 30
0.0
 11
35.2460639193
 21
273.5829109356
 31
0.0
  0
LINE
  5
23D
330
23A
100
AcDbEntity
  8
Default
  6
Continuous
 62
     7
100
AcDbLine
 10
38.2460639193
 20
276.5829109356
 30
0.0
 11
35.2460639193
 21
276.5829109356
 31
0.0
  0
LINE
  5
23E
330
23A
100
AcDbEntity
  8
Default
  6
Continuous
 62
     7
100
AcDbLine
 10
38.2460639193
 20
273.5829109356
 30
0.0
 11
38.2460639193
 21
276.5829109356
 31
0.0
  0
LINE
  5
23F
330
23A
100
AcDbEntity
  8
Default
  6
Continuous
 62
     7
100
AcDbLine
 10
35.2460639193
 20
273.5829109356
 30
0.0
 11
38.2460639193
 21
273.5829109356
 31
0.0
  0
ENDBLK
  5
241
330
23A
100
AcDbEntity
  8
0
100
AcDbBlockEnd
  0
BLOCK
  5
248
330
242
100
AcDbEntity
  8
0
100
AcDbBlockBegin
  2
SE8
 70
     0
 10
0.0
 20
0.0
 30
0.0
  3
SE8
  1

  0
LINE
  5
244
330
242
100
AcDbEntity
  8
Default
  6
Continuous
 62
     7
100
AcDbLine
 10
44.2460639193
 20
276.5829109356
 30
0.0
 11
44.2460639193
 21
273.5829109356
 31
0.0
  0
LINE
  5
245
330
242
100
AcDbEntity
  8
Default
  6
Continuous
 62
     7
100
AcDbLine
 10
47.2460639193
 20
276.5829109356
 30
0.0
 11
44.2460639193
 21
276.5829109356
 31
0.0
  0
LINE
  5
246
330
242
100
AcDbEntity
  8
Default
  6
Continuous
 62
     7
100
AcDbLine
 10
47.2460639193
 20
273.5829109356
 30
0.0
 11
47.2460639193
 21
276.5829109356
 31
0.0
  0
LINE
  5
247
330
242
100
AcDbEntity
  8
Default
  6
Continuous
 62
     7
100
AcDbLine
 10
44.2460639193
 20
273.5829109356
 30
0.0
 11
47.2460639193
 21
273.5829109356
 31
0.0
  0
ENDBLK
  5
249
330
242
100
AcDbEntity
  8
0
100
AcDbBlockEnd
  0
BLOCK
  5
250
330
24A
100
AcDbEntity
  8
0
100
AcDbBlockBegin
  2
SE9
 70
     0
 10
0.0
 20
0.0
 30
0.0
  3
SE9
  1

  0
LINE
  5
24C
330
24A
100
AcDbEntity
  8
Default
  6
Continuous
 62
     7
100
AcDbLine
 10
26.2460639193
 20
258.5829109356
 30
0.0
 11
26.2460639193
 21
255.5829109356
 31
0.0
  0
LINE
  5
24D
330
24A
100
AcDbEntity
  8
Default
  6
Continuous
 62
     7
100
AcDbLine
 10
29.2460639193
 20
258.5829109356
 30
0.0
 11
26.2460639193
 21
258.5829109356
 31
0.0
  0
LINE
  5
24E
330
24A
100
AcDbEntity
  8
Default
  6
Continuous
 62
     7
100
AcDbLine
 10
29.2460639193
 20
255.5829109356
 30
0.0
 11
29.2460639193
 21
258.5829109356
 31
0.0
  0
LINE
  5
24F
330
24A
100
AcDbEntity
  8
Default
  6
Continuous
 62
     7
100
AcDbLine
 10
26.2460639193
 20
255.5829109356
 30
0.0
 11
29.2460639193
 21
255.5829109356
 31
0.0
  0
ENDBLK
  5
251
330
24A
100
AcDbEntity
  8
0
100
AcDbBlockEnd
  0
BLOCK
  5
258
330
252
100
AcDbEntity
  8
0
100
AcDbBlockBegin
  2
SE10
 70
     0
 10
0.0
 20
0.0
 30
0.0
  3
SE10
  1

  0
LINE
  5
254
330
252
100
AcDbEntity
  8
Default
  6
Continuous
 62
     7
100
AcDbLine
 10
35.2460639193
 20
258.5829109356
 30
0.0
 11
35.2460639193
 21
255.5829109356
 31
0.0
  0
LINE
  5
255
330
252
100
AcDbEntity
  8
Default
  6
Continuous
 62
     7
100
AcDbLine
 10
38.2460639193
 20
258.5829109356
 30
0.0
 11
35.2460639193
 21
258.5829109356
 31
0.0
  0
LINE
  5
256
330
252
100
AcDbEntity
  8
Default
  6
Continuous
 62
     7
100
AcDbLine
 10
38.2460639193
 20
255.5829109356
 30
0.0
 11
38.2460639193
 21
258.5829109356
 31
0.0
  0
LINE
  5
257
330
252
100
AcDbEntity
  8
Default
  6
Continuous
 62
     7
100
AcDbLine
 10
35.2460639193
 20
255.5829109356
 30
0.0
 11
38.2460639193
 21
255.5829109356
 31
0.0
  0
ENDBLK
  5
259
330
252
100
AcDbEntity
  8
0
100
AcDbBlockEnd
  0
BLOCK
  5
260
330
25A
100
AcDbEntity
  8
0
100
AcDbBlockBegin
  2
SE11
 70
     0
 10
0.0
 20
0.0
 30
0.0
  3
SE11
  1

  0
LINE
  5
25C
330
25A
100
AcDbEntity
  8
Default
  6
Continuous
 62
     7
100
AcDbLine
 10
44.2460639193
 20
258.5829109356
 30
0.0
 11
44.2460639193
 21
255.5829109356
 31
0.0
  0
LINE
  5
25D
330
25A
100
AcDbEntity
  8
Default
  6
Continuous
 62
     7
100
AcDbLine
 10
47.2460639193
 20
258.5829109356
 30
0.0
 11
44.2460639193
 21
258.5829109356
 31
0.0
  0
LINE
  5
25E
330
25A
100
AcDbEntity
  8
Default
  6
Continuous
 62
     7
100
AcDbLine
 10
47.2460639193
 20
255.5829109356
 30
0.0
 11
47.2460639193
 21
258.5829109356
 31
0.0
  0
LINE
  5
25F
330
25A
100
AcDbEntity
  8
Default
  6
Continuous
 62
     7
100
AcDbLine
 10
44.2460639193
 20
255.5829109356
 30
0.0
 11
47.2460639193
 21
255.5829109356
 31
0.0
  0
ENDBLK
  5
261
330
25A
100
AcDbEntity
  8
0
100
AcDbBlockEnd
  0
BLOCK
  5
268
330
262
100
AcDbEntity
  8
0
100
AcDbBlockBegin
  2
SE12
 70
     0
 10
0.0
 20
0.0
 30
0.0
  3
SE12
  1

  0
LINE
  5
264
330
262
100
AcDbEntity
  8
Default
  6
Continuous
 62
     7
100
AcDbLine
 10
26.2460639193
 20
249.5829109356
 30
0.0
 11
26.2460639193
 21
246.5829109356
 31
0.0
  0
LINE
  5
265
330
262
100
AcDbEntity
  8
Default
  6
Continuous
 62
     7
100
AcDbLine
 10
29.2460639193
 20
249.5829109356
 30
0.0
 11
26.2460639193
 21
249.5829109356
 31
0.0
  0
LINE
  5
266
330
262
100
AcDbEntity
  8
Default
  6
Continuous
 62
     7
100
AcDbLine
 10
29.2460639193
 20
246.5829109356
 30
0.0
 11
29.2460639193
 21
249.5829109356
 31
0.0
  0
LINE
  5
267
330
262
100
AcDbEntity
  8
Default
  6
Continuous
 62
     7
100
AcDbLine
 10
26.2460639193
 20
246.5829109356
 30
0.0
 11
29.2460639193
 21
246.5829109356
 31
0.0
  0
ENDBLK
  5
269
330
262
100
AcDbEntity
  8
0
100
AcDbBlockEnd
  0
BLOCK
  5
270
330
26A
100
AcDbEntity
  8
0
100
AcDbBlockBegin
  2
SE13
 70
     0
 10
0.0
 20
0.0
 30
0.0
  3
SE13
  1

  0
LINE
  5
26C
330
26A
100
AcDbEntity
  8
Default
  6
Continuous
 62
     7
100
AcDbLine
 10
35.2460639193
 20
249.5829109356
 30
0.0
 11
35.2460639193
 21
246.5829109356
 31
0.0
  0
LINE
  5
26D
330
26A
100
AcDbEntity
  8
Default
  6
Continuous
 62
     7
100
AcDbLine
 10
38.2460639193
 20
249.5829109356
 30
0.0
 11
35.2460639193
 21
249.5829109356
 31
0.0
  0
LINE
  5
26E
330
26A
100
AcDbEntity
  8
Default
  6
Continuous
 62
     7
100
AcDbLine
 10
38.2460639193
 20
246.5829109356
 30
0.0
 11
38.2460639193
 21
249.5829109356
 31
0.0
  0
LINE
  5
26F
330
26A
100
AcDbEntity
  8
Default
  6
Continuous
 62
     7
100
AcDbLine
 10
35.2460639193
 20
246.5829109356
 30
0.0
 11
38.2460639193
 21
246.5829109356
 31
0.0
  0
ENDBLK
  5
271
330
26A
100
AcDbEntity
  8
0
100
AcDbBlockEnd
  0
BLOCK
  5
278
330
272
100
AcDbEntity
  8
0
100
AcDbBlockBegin
  2
SE14
 70
     0
 10
0.0
 20
0.0
 30
0.0
  3
SE14
  1

  0
LINE
  5
274
330
272
100
AcDbEntity
  8
Default
  6
Continuous
 62
     7
100
AcDbLine
 10
44.2460639193
 20
249.5829109356
 30
0.0
 11
44.2460639193
 21
246.5829109356
 31
0.0
  0
LINE
  5
275
330
272
100
AcDbEntity
  8
Default
  6
Continuous
 62
     7
100
AcDbLine
 10
47.2460639193
 20
249.5829109356
 30
0.0
 11
44.2460639193
 21
249.5829109356
 31
0.0
  0
LINE
  5
276
330
272
100
AcDbEntity
  8
Default
  6
Continuous
 62
     7
100
AcDbLine
 10
47.2460639193
 20
246.5829109356
 30
0.0
 11
47.2460639193
 21
249.5829109356
 31
0.0
  0
LINE
  5
277
330
272
100
AcDbEntity
  8
Default
  6
Continuous
 62
     7
100
AcDbLine
 10
44.2460639193
 20
246.5829109356
 30
0.0
 11
47.2460639193
 21
246.5829109356
 31
0.0
  0
ENDBLK
  5
279
330
272
100
AcDbEntity
  8
0
100
AcDbBlockEnd
  0
BLOCK
  5
280
330
27A
100
AcDbEntity
  8
0
100
AcDbBlockBegin
  2
SE15
 70
     0
 10
0.0
 20
0.0
 30
0.0
  3
SE15
  1

  0
LINE
  5
27C
330
27A
100
AcDbEntity
  8
Default
  6
Continuous
 62
     7
100
AcDbLine
 10
20.2460639193
 20
258.5829109356
 30
0.0
 11
17.2460639193
 21
258.5829109356
 31
0.0
  0
LINE
  5
27D
330
27A
100
AcDbEntity
  8
Default
  6
Continuous
 62
     7
100
AcDbLine
 10
20.2460639193
 20
255.5829109356
 30
0.0
 11
20.2460639193
 21
258.5829109356
 31
0.0
  0
LINE
  5
27E
330
27A
100
AcDbEntity
  8
Default
  6
Continuous
 62
     7
100
AcDbLine
 10
17.2460639193
 20
255.5829109356
 30
0.0
 11
20.2460639193
 21
255.5829109356
 31
0.0
  0
LINE
  5
27F
330
27A
100
AcDbEntity
  8
Default
  6
Continuous
 62
     7
100
AcDbLine
 10
17.2460639193
 20
258.5829109356
 30
0.0
 11
17.2460639193
 21
255.5829109356
 31
0.0
  0
ENDBLK
  5
281
330
27A
100
AcDbEntity
  8
0
100
AcDbBlockEnd
  0
BLOCK
  5
288
330
282
100
AcDbEntity
  8
0
100
AcDbBlockBegin
  2
SE16
 70
     0
 10
0.0
 20
0.0
 30
0.0
  3
SE16
  1

  0
LINE
  5
284
330
282
100
AcDbEntity
  8
Default
  6
Continuous
 62
     7
100
AcDbLine
 10
20.2460639193
 20
276.5829109356
 30
0.0
 11
17.2460639193
 21
276.5829109356
 31
0.0
  0
LINE
  5
285
330
282
100
AcDbEntity
  8
Default
  6
Continuous
 62
     7
100
AcDbLine
 10
20.2460639193
 20
273.5829109356
 30
0.0
 11
20.2460639193
 21
276.5829109356
 31
0.0
  0
LINE
  5
286
330
282
100
AcDbEntity
  8
Default
  6
Continuous
 62
     7
100
AcDbLine
 10
17.2460639193
 20
273.5829109356
 30
0.0
 11
20.2460639193
 21
273.5829109356
 31
0.0
  0
LINE
  5
287
330
282
100
AcDbEntity
  8
Default
  6
Continuous
 62
     7
100
AcDbLine
 10
17.2460639193
 20
276.5829109356
 30
0.0
 11
17.2460639193
 21
273.5829109356
 31
0.0
  0
ENDBLK
  5
289
330
282
100
AcDbEntity
  8
0
100
AcDbBlockEnd
  0
BLOCK
  5
290
330
28A
100
AcDbEntity
  8
0
100
AcDbBlockBegin
  2
SE17
 70
     0
 10
0.0
 20
0.0
 30
0.0
  3
SE17
  1

  0
LINE
  5
28C
330
28A
100
AcDbEntity
  8
Default
  6
Continuous
 62
     7
100
AcDbLine
 10
56.2460639193
 20
258.5829109356
 30
0.0
 11
53.2460639193
 21
258.5829109356
 31
0.0
  0
LINE
  5
28D
330
28A
100
AcDbEntity
  8
Default
  6
Continuous
 62
     7
100
AcDbLine
 10
56.2460639193
 20
255.5829109356
 30
0.0
 11
56.2460639193
 21
258.5829109356
 31
0.0
  0
LINE
  5
28E
330
28A
100
AcDbEntity
  8
Default
  6
Continuous
 62
     7
100
AcDbLine
 10
53.2460639193
 20
255.5829109356
 30
0.0
 11
56.2460639193
 21
255.5829109356
 31
0.0
  0
LINE
  5
28F
330
28A
100
AcDbEntity
  8
Default
  6
Continuous
 62
     7
100
AcDbLine
 10
53.2460639193
 20
258.5829109356
 30
0.0
 11
53.2460639193
 21
255.5829109356
 31
0.0
  0
ENDBLK
  5
291
330
28A
100
AcDbEntity
  8
0
100
AcDbBlockEnd
  0
BLOCK
  5
298
330
292
100
AcDbEntity
  8
0
100
AcDbBlockBegin
  2
SE18
 70
     0
 10
0.0
 20
0.0
 30
0.0
  3
SE18
  1

  0
LINE
  5
294
330
292
100
AcDbEntity
  8
Default
  6
Continuous
 62
     7
100
AcDbLine
 10
56.2460639193
 20
276.5829109356
 30
0.0
 11
53.2460639193
 21
276.5829109356
 31
0.0
  0
LINE
  5
295
330
292
100
AcDbEntity
  8
Default
  6
Continuous
 62
     7
100
AcDbLine
 10
56.2460639193
 20
273.5829109356
 30
0.0
 11
56.2460639193
 21
276.5829109356
 31
0.0
  0
LINE
  5
296
330
292
100
AcDbEntity
  8
Default
  6
Continuous
 62
     7
100
AcDbLine
 10
53.2460639193
 20
273.5829109356
 30
0.0
 11
56.2460639193
 21
273.5829109356
 31
0.0
  0
LINE
  5
297
330
292
100
AcDbEntity
  8
Default
  6
Continuous
 62
     7
100
AcDbLine
 10
53.2460639193
 20
276.5829109356
 30
0.0
 11
53.2460639193
 21
273.5829109356
 31
0.0
  0
ENDBLK
  5
299
330
292
100
AcDbEntity
  8
0
100
AcDbBlockEnd
  0
BLOCK
  5
29F
330
29A
100
AcDbEntity
  8
0
100
AcDbBlockBegin
  2
SE19
 70
     0
 10
0.0
 20
0.0
 30
0.0
  3
SE19
  1

  0
LINE
  5
29C
330
29A
100
AcDbEntity
  8
Default
  6
Continuous
 62
     7
100
AcDbLine
 10
56.2460639193
 20
267.5829109356
 30
0.0
 11
47.2460639193
 21
267.5829109356
 31
0.0
  0
LINE
  5
29D
330
29A
100
AcDbEntity
  8
Default
  6
Continuous
 62
     7
100
AcDbLine
 10
56.2460639193
 20
264.5829109356
 30
0.0
 11
56.2460639193
 21
267.5829109356
 31
0.0
  0
LINE
  5
29E
330
29A
100
AcDbEntity
  8
Default
  6
Continuous
 62
     7
100
AcDbLine
 10
47.2460639193
 20
264.5829109356
 30
0.0
 11
56.2460639193
 21
264.5829109356
 31
0.0
  0
ENDBLK
  5
2A0
330
29A
100
AcDbEntity
  8
0
100
AcDbBlockEnd
  0
BLOCK
  5
2A4
330
2A1
100
AcDbEntity
  8
0
100
AcDbBlockBegin
  2
SE20
 70
     0
 10
0.0
 20
0.0
 30
0.0
  3
SE20
  1

  0
LINE
  5
2A3
330
2A1
100
AcDbEntity
  8
Default
  6
Continuous
 62
     7
100
AcDbLine
 10
17.2460639193
 20
267.5829109356
 30
0.0
 11
17.2460639193
 21
264.5829109356
 31
0.0
  0
ENDBLK
  5
2A5
330
2A1
100
AcDbEntity
  8
0
100
AcDbBlockEnd
  0
BLOCK
  5
2AB
330
2A6
100
AcDbEntity
  8
0
100
AcDbBlockBegin
  2
SE21
 70
     0
 10
0.0
 20
0.0
 30
0.0
  3
SE21
  1

  0
LINE
  5
2A8
330
2A6
100
AcDbEntity
  8
Default
  6
Continuous
 62
     7
100
AcDbLine
 10
26.2460639193
 20
267.5829109356
 30
0.0
 11
17.2460639193
 21
267.5829109356
 31
0.0
  0
LINE
  5
2A9
330
2A6
100
AcDbEntity
  8
Default
  6
Continuous
 62
     7
100
AcDbLine
 10
26.2460639193
 20
264.5829109356
 30
0.0
 11
26.2460639193
 21
267.5829109356
 31
0.0
  0
LINE
  5
2AA
330
2A6
100
AcDbEntity
  8
Default
  6
Continuous
 62
     7
100
AcDbLine
 10
17.2460639193
 20
264.5829109356
 30
0.0
 11
26.2460639193
 21
264.5829109356
 31
0.0
  0
ENDBLK
  5
2AC
330
2A6
100
AcDbEntity
  8
0
100
AcDbBlockEnd
  0
ENDSEC
  0
SECTION
  2
ENTITIES
  0
CIRCLE
  5
3B
330
1F
100
AcDbEntity
  8
0
  6
Continuous
 62
     7
100
AcDbCircle
 10
36.7460639193
 20
288.5829109356
 30
0.0
 40
1.5
  0
ARC
  5
3D
330
1F
100
AcDbEntity
  8
Default
  6
Continuous
 62
     7
100
AcDbCircle
 10
41.3710639193
 20
268.5829109356
 30
0.0
 40
0.75
100
AcDbArc
 50
90.0
 51
180.0
  0
LINE
  5
3E
330
1F
100
AcDbEntity
  8
Default
  6
Continuous
 62
     7
100
AcDbLine
 10
43.1210639193
 20
269.3329109356
 30
0.0
 11
41.3710639193
 21
269.3329109356
 31
0.0
  0
ARC
  5
3F
330
1F
100
AcDbEntity
  8
Default
  6
Continuous
 62
     7
100
AcDbCircle
 10
43.1210639193
 20
268.5829109356
 30
0.0
 40
0.75
100
AcDbArc
 50
0.0
 51
90.0
  0
LINE
  5
40
330
1F
100
AcDbEntity
  8
Default
  6
Continuous
 62
     7
100
AcDbLine
 10
43.8710639193
 20
263.5829109356
 30
0.0
 11
43.8710639193
 21
268.5829109356
 31
0.0
  0
ARC
  5
41
330
1F
100
AcDbEntity
  8
Default
  6
Continuous
 62
     7
100
AcDbCircle
 10
43.1210639193
 20
263.5829109356
 30
0.0
 40
0.75
100
AcDbArc
 50
270.0
 51
0.0
  0
LINE
  5
42
330
1F
100
AcDbEntity
  8
Default
  6
Continuous
 62
     7
100
AcDbLine
 10
41.3710639193
 20
262.8329109356
 30
0.0
 11
43.1210639193
 21
262.8329109356
 31
0.0
  0
ARC
  5
43
330
1F
100
AcDbEntity
  8
Default
  6
Continuous
 62
     7
100
AcDbCircle
 10
41.3710639193
 20
263.5829109356
 30
0.0
 40
0.75
100
AcDbArc
 50
180.0
 51
270.0
  0
LINE
  5
44
330
1F
100
AcDbEntity
  8
Default
  6
Continuous
 62
     7
100
AcDbLine
 10
40.6210639193
 20
268.5829109356
 30
0.0
 11
40.6210639193
 21
263.5829109356
 31
0.0
  0
ARC
  5
45
330
1F
100
AcDbEntity
  8
Default
  6
Continuous
 62
     7
100
AcDbCircle
 10
32.1210639193
 20
268.5829109356
 30
0.0
 40
0.75
100
AcDbArc
 50
0.0
 51
90.0
  0
LINE
  5
46
330
1F
100
AcDbEntity
  8
Default
  6
Continuous
 62
     7
100
AcDbLine
 10
30.3710639193
 20
269.3329109356
 30
0.0
 11
32.1210639193
 21
269.3329109356
 31
0.0
  0
ARC
  5
47
330
1F
100
AcDbEntity
  8
Default
  6
Continuous
 62
     7
100
AcDbCircle
 10
30.3710639193
 20
268.5829109356
 30
0.0
 40
0.75
100
AcDbArc
 50
90.0
 51
180.0
  0
LINE
  5
48
330
1F
100
AcDbEntity
  8
Default
  6
Continuous
 62
     7
100
AcDbLine
 10
29.6210639193
 20
263.5829109356
 30
0.0
 11
29.6210639193
 21
268.5829109356
 31
0.0
  0
ARC
  5
49
330
1F
100
AcDbEntity
  8
Default
  6
Continuous
 62
     7
100
AcDbCircle
 10
30.3710639193
 20
263.5829109356
 30
0.0
 40
0.7500000000002274
100
AcDbArc
 50
180.0
 51
270.0
  0
LINE
  5
4A
330
1F
100
AcDbEntity
  8
Default
  6
Continuous
 62
     7
100
AcDbLine
 10
32.1210639193
 20
262.8329109356
 30
0.0
 11
30.3710639193
 21
262.8329109356
 31
0.0
  0
ARC
  5
4B
330
1F
100
AcDbEntity
  8
Default
  6
Continuous
 62
     7
100
AcDbCircle
 10
32.1210639193
 20
263.5829109356
 30
0.0
 40
0.75
100
AcDbArc
 50
270.0
 51
0.0
  0
LINE
  5
4C
330
1F
100
AcDbEntity
  8
Default
  6
Continuous
 62
     7
100
AcDbLine
 10
32.8710639193
 20
268.5829109356
 30
0.0
 11
32.8710639193
 21
263.5829109356
 31
0.0
  0
CIRCLE
  5
4D
330
1F
100
AcDbEntity
  8
0
  6
Continuous
 62
     7
100
AcDbCircle
 10
50.2460639193
 20
279.5829109356
 30
0.0
 40
1.5
  0
CIRCLE
  5
4E
330
1F
100
AcDbEntity
  8
0
  6
Continuous
 62
     7
100
AcDbCircle
 10
50.2460639193
 20
252.5829109356
 30
0.0
 40
1.5
  0
CIRCLE
  5
4F
330
1F
100
AcDbEntity
  8
0
  6
Continuous
 62
     7
100
AcDbCircle
 10
23.2460639193
 20
279.5829109356
 30
0.0
 40
1.5
  0
CIRCLE
  5
50
330
1F
100
AcDbEntity
  8
0
  6
Continuous
 62
     7
100
AcDbCircle
 10
23.2460639193
 20
252.5829109356
 30
0.0
 40
1.5
  0
CIRCLE
  5
51
330
1F
100
AcDbEntity
  8
0
  6
Continuous
 62
     7
100
AcDbCircle
 10
36.7460639193
 20
266.0829109356
 30
0.0
 40
1.5
  0
CIRCLE
  5
52
330
1F
100
AcDbEntity
  8
0
  6
Continuous
 62
     7
100
AcDbCircle
 10
14.2460639193
 20
266.0829109356
 30
0.0
 40
1.5
  0
CIRCLE
  5
53
330
1F
100
AcDbEntity
  8
0
  6
Continuous
 62
     7
100
AcDbCircle
 10
59.2460639193
 20
266.0829109356
 30
0.0
 40
1.5
  0
CIRCLE
  5
54
330
1F
100
AcDbEntity
  8
0
  6
Continuous
 62
     7
100
AcDbCircle
 10
36.7460639193
 20
243.5829109356
 30
0.0
 40
1.5
  0
ARC
  5
55
330
1F
100
AcDbEntity
  8
0
  6
Continuous
 62
     7
100
AcDbCircle
 10
41.5054412801
 20
291.8780520383
 30
0.0
 40
0.3875775017150164
100
AcDbArc
 50
258.7059527823
 51
312.7059527823
  0
ARC
  5
56
330
1F
100
AcDbEntity
  8
0
  6
Continuous
 62
     7
100
AcDbCircle
 10
49.3335434136
 20
288.1676144601
 30
0.0
 40
8.304678369070828
100
AcDbArc
 50
143.4033553924
 51
155.6384106028
  0
LINE
  5
57
330
1F
100
AcDbEntity
  8
0
  6
Continuous
 62
     7
100
AcDbLine
 10
42.6661125341
 20
293.1186798285
 30
0.0
 11
42.8318185535
 21
293.3417588757
 31
0.0
  0
LINE
  5
58
330
1F
100
AcDbEntity
  8
0
  6
Continuous
 62
     7
100
AcDbLine
 10
42.8318185535
 20
293.3417588757
 30
0.0
 11
43.5413835459
 21
293.1735888832
 31
0.0
  0
LINE
  5
59
330
1F
100
AcDbEntity
  8
0
  6
Continuous
 62
     7
100
AcDbLine
 10
43.5413835459
 20
293.1735888832
 30
0.0
 11
43.58934616
 21
292.8998694396
 31
0.0
  0
ARC
  5
5A
330
1F
100
AcDbEntity
  8
0
  6
Continuous
 62
     7
100
AcDbCircle
 10
35.4090782206
 20
291.4677733348
 30
0.0
 40
8.304678369070203
100
AcDbArc
 50
357.6949227305
 51
9.929977941
  0
ARC
  5
5B
330
1F
100
AcDbEntity
  8
0
  6
Continuous
 62
     7
100
AcDbCircle
 10
44.0697671421
 20
291.2702956445
 30
0.0
 40
0.3875775017149708
100
AcDbArc
 50
200.6273805511
 51
254.6273805511
  0
LINE
  5
5C
330
1F
100
AcDbEntity
  8
0
  6
Continuous
 62
     7
100
AcDbLine
 10
43.967022143
 20
290.8965848138
 30
0.0
 11
44.3483779117
 21
290.7824143914
 31
0.0
  0
ARC
  5
5D
330
1F
100
AcDbEntity
  8
0
  6
Continuous
 62
     7
100
AcDbCircle
 10
44.4678931739
 20
291.1511045349
 30
0.0
 40
0.3875775017150047
100
AcDbArc
 50
252.0392861156
 51
306.0392861156
  0
ARC
  5
5E
330
1F
100
AcDbEntity
  8
0
  6
Continuous
 62
     7
100
AcDbCircle
 10
51.81230897
 20
286.5569684195
 30
0.0
 40
8.304678369070357
100
AcDbArc
 50
136.7366887257
 51
148.9717439361
  0
LINE
  5
5F
330
1F
100
AcDbEntity
  8
0
  6
Continuous
 62
     7
100
AcDbLine
 10
45.7647444796
 20
292.2485979356
 30
0.0
 11
45.9552279508
 21
292.4509313074
 31
0.0
  0
LINE
  5
60
330
1F
100
AcDbEntity
  8
0
  6
Continuous
 62
     7
100
AcDbLine
 10
45.9552279508
 20
292.4509313074
 30
0.0
 11
46.6404717741
 21
292.2015229525
 31
0.0
  0
LINE
  5
61
330
1F
100
AcDbEntity
  8
0
  6
Continuous
 62
     7
100
AcDbLine
 10
46.6404717741
 20
292.2015229525
 30
0.0
 11
46.6563331943
 21
291.9240861822
 31
0.0
  0
ARC
  5
62
330
1F
100
AcDbEntity
  8
0
  6
Continuous
 62
     7
100
AcDbCircle
 10
38.3651210902
 20
291.4513445424
 30
0.0
 40
8.304678369070242
100
AcDbArc
 50
351.0282560639
 51
3.2633112743
  0
ARC
  5
63
330
1F
100
AcDbEntity
  8
0
  6
Continuous
 62
     7
100
AcDbCircle
 10
46.944323771
 20
290.2497575104
 30
0.0
 40
0.3875775017150121
100
AcDbArc
 50
193.9607138844
 51
247.9607138844
  0
LINE
  5
64
330
1F
100
AcDbEntity
  8
0
  6
Continuous
 62
     7
100
AcDbLine
 10
46.7988883174
 20
289.890501545
 30
0.0
 11
47.1644111177
 21
289.7328303996
 31
0.0
  0
ARC
  5
65
330
1F
100
AcDbEntity
  8
0
  6
Continuous
 62
     7
100
AcDbCircle
 10
47.3259205737
 20
290.0851527172
 30
0.0
 40
0.3875775017150141
100
AcDbArc
 50
245.372619449
 51
299.3726194489
  0
ARC
  5
66
330
1F
100
AcDbEntity
  8
0
  6
Continuous
 62
     7
100
AcDbCircle
 10
54.0873294081
 20
284.6694458744
 30
0.0
 40
8.304678369069304
100
AcDbArc
 50
130.070022059
 51
142.3050772695
  0
LINE
  5
67
330
1F
100
AcDbEntity
  8
0
  6
Continuous
 62
     7
100
AcDbLine
 10
48.7414142419
 20
291.0246700128
 30
0.0
 11
48.9540992028
 21
291.2035214975
 31
0.0
  0
LINE
  5
68
330
1F
100
AcDbEntity
  8
0
  6
Continuous
 62
     7
100
AcDbLine
 10
48.9540992028
 20
291.2035214975
 30
0.0
 11
49.6057551098
 21
290.8762476004
 31
0.0
  0
LINE
  5
69
330
1F
100
AcDbEntity
  8
0
  6
Continuous
 62
     7
100
AcDbLine
 10
49.6057551098
 20
290.8762476004
 30
0.0
 11
49.5893008376
 21
290.5988453598
 31
0.0
  0
ARC
  5
6A
330
1F
100
AcDbEntity
  8
0
  6
Continuous
 62
     7
100
AcDbCircle
 10
41.299268989
 20
291.0918512046
 30
0.0
 40
8.304678369069993
100
AcDbArc
 50
344.3615893972
 51
356.5966446076
  0
ARC
  5
6B
330
1F
100
AcDbEntity
  8
0
  6
Continuous
 62
     7
100
AcDbCircle
 10
49.6809664303
 20
288.9024042342
 30
0.0
 40
0.3875775017150151
100
AcDbArc
 50
187.2940472177
 51
241.2940472177
  0
LINE
  5
6C
330
1F
100
AcDbEntity
  8
0
  6
Continuous
 62
     7
100
AcDbLine
 10
49.4948072873
 20
288.5624614547
 30
0.0
 11
49.8395540505
 21
288.3634218181
 31
0.0
  0
ARC
  5
6D
330
1F
100
AcDbEntity
  8
0
  6
Continuous
 62
     7
100
AcDbCircle
 10
50.0408735618
 20
288.6946117549
 30
0.0
 40
0.3875775017150076
100
AcDbArc
 50
238.7059527823
 51
292.7059527823
  0
ARC
  5
6E
330
1F
100
AcDbEntity
  8
0
  6
Continuous
 62
     7
100
AcDbCircle
 10
56.1278389791
 20
282.5305723291
 30
0.0
 40
8.304678369069798
100
AcDbArc
 50
123.4033553924
 51
135.6384106028
  0
LINE
  5
6F
330
1F
100
AcDbEntity
  8
0
  6
Continuous
 62
     7
100
AcDbLine
 10
51.555867469
 20
289.4634475858
 30
0.0
 11
51.7878777203
 21
289.6163985238
 31
0.0
  0
LINE
  5
70
330
1F
100
AcDbEntity
  8
0
  6
Continuous
 62
     7
100
AcDbLine
 10
51.7878777203
 20
289.6163985238
 30
0.0
 11
52.3971331827
 21
289.2156849024
 31
0.0
  0
LINE
  5
71
330
1F
100
AcDbEntity
  8
0
  6
Continuous
 62
     7
100
AcDbLine
 10
52.3971331827
 20
289.2156849024
 30
0.0
 11
52.3485857339
 21
288.9420685809
 31
0.0
  0
ARC
  5
72
330
1F
100
AcDbEntity
  8
0
  6
Continuous
 62
     7
100
AcDbCircle
 10
44.1718426002
 20
290.3941548521
 30
0.0
 40
8.304678369071077
100
AcDbArc
 50
337.6949227305
 51
349.929977941
  0
ARC
  5
73
330
1F
100
AcDbEntity
  8
0
  6
Continuous
 62
     7
100
AcDbCircle
 10
52.2426867227
 20
287.2464564575
 30
0.0
 40
0.3875775017150037
100
AcDbArc
 50
180.627380551
 51
234.6273805511
  0
LINE
  5
74
330
1F
100
AcDbEntity
  8
0
  6
Continuous
 62
     7
100
AcDbLine
 10
52.0183213734
 20
286.9304240069
 30
0.0
 11
52.3376299908
 21
286.6927075488
 31
0.0
  0
ARC
  5
75
330
1F
100
AcDbEntity
  8
0
  6
Continuous
 62
     7
100
AcDbCircle
 10
52.5760370566
 20
286.9982863289
 30
0.0
 40
0.3875775017150004
100
AcDbArc
 50
232.0392861156
 51
286.0392861156
  0
ARC
  5
76
330
1F
100
AcDbEntity
  8
0
  6
Continuous
 62
     7
100
AcDbCircle
 10
57.9062432915
 20
280.1692723792
 30
0.0
 40
8.304678369070999
100
AcDbArc
 50
116.7366887257
 51
128.9717439361
  0
LINE
  5
77
330
1F
100
AcDbEntity
  8
0
  6
Continuous
 62
     7
100
AcDbLine
 10
54.170043509
 20
287.5860435094
 30
0.0
 11
54.4182415101
 21
287.7110255018
 31
0.0
  0
LINE
  5
78
330
1F
100
AcDbEntity
  8
0
  6
Continuous
 62
     7
100
AcDbLine
 10
54.4182415101
 20
287.7110255018
 30
0.0
 11
54.976857393
 21
287.2422911205
 31
0.0
  0
LINE
  5
79
330
1F
100
AcDbEntity
  8
0
  6
Continuous
 62
     7
100
AcDbLine
 10
54.976857393
 20
287.2422911205
 30
0.0
 11
54.8968732886
 21
286.9761609095
 31
0.0
  0
ARC
  5
7A
330
1F
100
AcDbEntity
  8
0
  6
Continuous
 62
     7
100
AcDbCircle
 10
46.9439952935
 20
289.3676906312
 30
0.0
 40
8.304678369069935
100
AcDbArc
 50
331.0282560639
 51
343.2633112743
  0
ARC
  5
7B
330
1F
100
AcDbEntity
  8
0
  6
Continuous
 62
     7
100
AcDbCircle
 10
54.594841776
 20
285.3043080335
 30
0.0
 40
0.3875775017149887
100
AcDbArc
 50
173.9607138844
 51
227.9607138844
  0
LINE
  5
7C
330
1F
100
AcDbEntity
  8
0
  6
Continuous
 62
     7
100
AcDbLine
 10
54.3353043767
 20
285.0164597085
 30
0.0
 11
54.6248567472
 21
284.7432811361
 31
0.0
  0
ARC
  5
7D
330
1F
100
AcDbEntity
  8
0
  6
Continuous
 62
     7
100
AcDbCircle
 10
54.8971273207
 20
285.0191163308
 30
0.0
 40
0.3875775017150464
100
AcDbArc
 50
225.372619449
 51
279.3726194489
  0
ARC
  5
7E
330
1F
100
AcDbEntity
  8
0
  6
Continuous
 62
     7
100
AcDbCircle
 10
59.3984924779
 20
277.6174785556
 30
0.0
 40
8.304678369070267
100
AcDbArc
 50
110.070022059
 51
122.3050772695
  0
LINE
  5
7F
330
1F
100
AcDbEntity
  8
0
  6
Continuous
 62
     7
100
AcDbLine
 10
56.5485901156
 20
285.4178464533
 30
0.0
 11
56.8096194143
 21
285.5131693329
 31
0.0
  0
LINE
  5
80
330
1F
100
AcDbEntity
  8
0
  6
Continuous
 62
     7
100
AcDbLine
 10
56.8096194143
 20
285.5131693329
 30
0.0
 11
57.3100413962
 21
284.9827530201
 31
0.0
  0
LINE
  5
81
330
1F
100
AcDbEntity
  8
0
  6
Continuous
 62
     7
100
AcDbLine
 10
57.3100413962
 20
284.9827530201
 30
0.0
 11
57.1997022839
 21
284.7277078741
 31
0.0
  0
ARC
  5
82
330
1F
100
AcDbEntity
  8
0
  6
Continuous
 62
     7
100
AcDbCircle
 10
49.5782384594
 20
288.0263397095
 30
0.0
 40
8.304678369070531
100
AcDbArc
 50
324.3615893972
 51
336.5966446076
  0
ARC
  5
83
330
1F
100
AcDbEntity
  8
0
  6
Continuous
 62
     7
100
AcDbCircle
 10
56.705622728
 20
283.1022231876
 30
0.0
 40
0.387577501714999
100
AcDbArc
 50
167.2940472177
 51
221.2940472177
  0
LINE
  5
84
330
1F
100
AcDbEntity
  8
0
  6
Continuous
 62
     7
100
AcDbLine
 10
56.4144230769
 20
282.846451643
 30
0.0
 11
56.6703035013
 21
282.541505228
 31
0.0
  0
ARC
  5
85
330
1F
100
AcDbEntity
  8
0
  6
Continuous
 62
     7
100
AcDbCircle
 10
56.9727555902
 20
282.7838666395
 30
0.0
 40
0.3875775017149981
100
AcDbArc
 50
218.7059527823
 51
272.7059527823
  0
ARC
  5
86
330
1F
100
AcDbEntity
  8
0
  6
Continuous
 62
     7
100
AcDbCircle
 10
60.5844064279
 20
274.9096994924
 30
0.0
 40
8.304678369069745
100
AcDbArc
 50
103.4033553924
 51
115.6384106028
  0
LINE
  5
87
330
1F
100
AcDbEntity
  8
0
  6
Continuous
 62
     7
100
AcDbLine
 10
58.6593415263
 20
282.9881775631
 30
0.0
 11
58.9296721492
 21
283.0525522515
 31
0.0
  0
LINE
  5
88
330
1F
100
AcDbEntity
  8
0
  6
Continuous
 62
     7
100
AcDbLine
 10
58.9296721492
 20
283.0525522515
 30
0.0
 11
59.3651328812
 21
282.4676269779
 31
0.0
  0
LINE
  5
89
330
1F
100
AcDbEntity
  8
0
  6
Continuous
 62
     7
100
AcDbLine
 10
59.3651328812
 20
282.4676269779
 30
0.0
 11
59.2259309083
 21
282.227115945
 31
0.0
  0
ARC
  5
8A
330
1F
100
AcDbEntity
  8
0
  6
Continuous
 62
     7
100
AcDbCircle
 10
52.0389484781
 20
286.3882415573
 30
0.0
 40
8.304678369071523
100
AcDbArc
 50
317.6949227305
 51
329.929977941
  0
ARC
  5
8B
330
1F
100
AcDbEntity
  8
0
  6
Continuous
 62
     7
100
AcDbCircle
 10
58.5464848875
 20
280.6699813399
 30
0.0
 40
0.3875775017149864
100
AcDbArc
 50
160.627380551
 51
214.6273805511
  0
LINE
  5
8C
330
1F
100
AcDbEntity
  8
0
  6
Continuous
 62
     7
100
AcDbLine
 10
58.2275609602
 20
280.4497454471
 30
0.0
 11
58.4463090948
 21
280.1171550665
 31
0.0
  0
ARC
  5
8D
330
1F
100
AcDbEntity
  8
0
  6
Continuous
 62
     7
100
AcDbCircle
 10
58.7748525534
 20
280.3227651724
 30
0.0
 40
0.3875775017149914
100
AcDbArc
 50
212.0392861156
 51
266.0392861156
  0
ARC
  5
8E
330
1F
100
AcDbEntity
  8
0
  6
Continuous
 62
     7
100
AcDbCircle
 10
61.4479476897
 20
272.0825532562
 30
0.0
 40
8.304678369069274
100
AcDbArc
 50
96.7366887257
 51
108.9717439361
  0
LINE
  5
8F
330
1F
100
AcDbEntity
  8
0
  6
Continuous
 62
     7
100
AcDbLine
 10
60.4737534493
 20
280.3298939424
 30
0.0
 11
60.7497296384
 21
280.3624498825
 31
0.0
  0
LINE
  5
90
330
1F
100
AcDbEntity
  8
0
  6
Continuous
 62
     7
100
AcDbLine
 10
60.7497296384
 20
280.3624498825
 30
0.0
 11
61.1143402611
 21
279.7309257589
 31
0.0
  0
LINE
  5
91
330
1F
100
AcDbEntity
  8
0
  6
Continuous
 62
     7
100
AcDbLine
 10
61.1143402611
 20
279.7309257589
 30
0.0
 11
60.9481578955
 21
279.5082013383
 31
0.0
  0
ARC
  5
92
330
1F
100
AcDbEntity
  8
0
  6
Continuous
 62
     7
100
AcDbCircle
 10
54.2928484677
 20
284.4755486419
 30
0.0
 40
8.304678369069716
100
AcDbArc
 50
311.0282560639
 51
323.2633112743
  0
ARC
  5
93
330
1F
100
AcDbEntity
  8
0
  6
Continuous
 62
     7
100
AcDbCircle
 10
60.0925337516
 20
278.0404743889
 30
0.0
 40
0.3875775017149852
100
AcDbArc
 50
153.9607138844
 51
207.9607138844
  0
LINE
  5
94
330
1F
100
AcDbEntity
  8
0
  6
Continuous
 62
     7
100
AcDbLine
 10
59.7501984473
 20
277.8587524605
 30
0.0
 11
59.9288560987
 21
277.5030158287
 31
0.0
  0
ARC
  5
95
330
1F
100
AcDbEntity
  8
0
  6
Continuous
 62
     7
100
AcDbCircle
 10
60.2790479403
 20
277.6690941051
 30
0.0
 40
0.387577501715019
100
AcDbArc
 50
205.372619449
 51
259.372619449
  0
ARC
  5
96
330
1F
100
AcDbEntity
  8
0
  6
Continuous
 62
     7
100
AcDbCircle
 10
61.9774383493
 20
269.1742721498
 30
0.0
 40
8.304678369069983
100
AcDbArc
 50
90.070022059
 51
102.3050772695
  0
LINE
  5
97
330
1F
100
AcDbEntity
  8
0
  6
Continuous
 62
     7
100
AcDbLine
 10
61.9672890758
 20
277.4789443171
 30
0.0
 11
62.2451787266
 21
277.4792412455
 31
0.0
  0
LINE
  5
98
330
1F
100
AcDbEntity
  8
0
  6
Continuous
 62
     7
100
AcDbLine
 10
62.2451787266
 20
277.4792412455
 30
0.0
 11
62.5340085069
 21
276.8096585524
 31
0.0
  0
LINE
  5
99
330
1F
100
AcDbEntity
  8
0
  6
Continuous
 62
     7
100
AcDbLine
 10
62.5340085069
 20
276.8096585524
 30
0.0
 11
62.3430930799
 21
276.6077327098
 31
0.0
  0
ARC
  5
9A
330
1F
100
AcDbEntity
  8
0
  6
Continuous
 62
     7
100
AcDbCircle
 10
56.3094582976
 20
282.3141268538
 30
0.0
 40
8.304678369070785
100
AcDbArc
 50
304.3615893972
 51
316.5966446076
  0
ARC
  5
9B
330
1F
100
AcDbEntity
  8
0
  6
Continuous
 62
     7
100
AcDbCircle
 10
61.3228616617
 20
275.2492619052
 30
0.0
 40
0.3875775017149872
100
AcDbArc
 50
147.2940472177
 51
201.2940472177
  0
LINE
  5
9C
330
1F
100
AcDbEntity
  8
0
  6
Continuous
 62
     7
100
AcDbLine
 10
60.961744478
 20
275.1085114186
 30
0.0
 11
61.0978956081
 21
274.7344392632
 31
0.0
  0
ARC
  5
9D
330
1F
100
AcDbEntity
  8
0
  6
Continuous
 62
     7
100
AcDbCircle
 10
61.4650000888
 20
274.8587397863
 30
0.0
 40
0.3875775017149962
100
AcDbArc
 50
198.7059527823
 51
252.7059527823
  0
ARC
  5
9E
330
1F
100
AcDbEntity
  8
0
  6
Continuous
 62
     7
100
AcDbCircle
 10
62.1657179537
 20
266.2241856862
 30
0.0
 40
8.304678369071283
100
AcDbArc
 50
83.4033553924
 51
95.6384106028
  0
LINE
  5
9F
330
1F
100
AcDbEntity
  8
0
  6
Continuous
 62
     7
100
AcDbLine
 10
63.1197508987
 20
274.47388289
 30
0.0
 11
63.3957960304
 21
274.4419167913
 31
0.0
  0
LINE
  5
A0
330
1F
100
AcDbEntity
  8
0
  6
Continuous
 62
     7
100
AcDbLine
 10
63.3957960304
 20
274.4419167913
 30
0.0
 11
63.6049390409
 21
273.7433304859
 31
0.0
  0
LINE
  5
A1
330
1F
100
AcDbEntity
  8
0
  6
Continuous
 62
     7
100
AcDbLine
 10
63.6049390409
 20
273.7433304859
 30
0.0
 11
63.3918723563
 21
273.5649339219
 31
0.0
  0
ARC
  5
A2
330
1F
100
AcDbEntity
  8
0
  6
Continuous
 62
     7
100
AcDbCircle
 10
58.0615067792
 20
279.9332057148
 30
0.0
 40
8.304678369070423
100
AcDbArc
 50
297.6949227305
 51
309.929977941
  0
ARC
  5
A3
330
1F
100
AcDbEntity
  8
0
  6
Continuous
 62
     7
100
AcDbCircle
 10
62.2208305435
 20
272.3340902494
 30
0.0
 40
0.3875775017149775
100
AcDbArc
 50
140.6273805511
 51
194.6273805511
  0
LINE
  5
A4
330
1F
100
AcDbEntity
  8
0
  6
Continuous
 62
     7
100
AcDbLine
 10
61.8458149709
 20
272.2362146133
 30
0.0
 11
61.937618369
 21
271.8488656186
 31
0.0
  0
ARC
  5
A5
330
1F
100
AcDbEntity
  8
0
  6
Continuous
 62
     7
100
AcDbCircle
 10
62.3166710306
 20
271.9297074371
 30
0.0
 40
0.3875775017149724
100
AcDbArc
 50
192.0392861156
 51
246.0392861156
  0
ARC
  5
A6
330
1F
100
AcDbEntity
  8
0
  6
Continuous
 62
     7
100
AcDbCircle
 10
62.0102403443
 20
263.272188724
 30
0.0
 40
8.304678369070912
100
AcDbArc
 50
76.7366887257
 51
88.9717439361
  0
LINE
  5
A7
330
1F
100
AcDbEntity
  8
0
  6
Continuous
 62
     7
100
AcDbLine
 10
63.9155538489
 20
271.3553479618
 30
0.0
 11
64.1860214245
 21
271.2915511226
 31
0.0
  0
LINE
  5
A8
330
1F
100
AcDbEntity
  8
0
  6
Continuous
 62
     7
100
AcDbLine
 10
64.1860214245
 20
271.2915511226
 30
0.0
 11
64.3126493649
 21
270.5734083864
 31
0.0
  0
LINE
  5
A9
330
1F
100
AcDbEntity
  8
0
  6
Continuous
 62
     7
100
AcDbLine
 10
64.3126493649
 20
270.5734083864
 30
0.0
 11
64.080312784
 21
270.4209536084
 31
0.0
  0
ARC
  5
AA
330
1F
100
AcDbEntity
  8
0
  6
Continuous
 62
     7
100
AcDbCircle
 10
59.5253004624
 20
277.3649830989
 30
0.0
 40
8.304678369069975
100
AcDbArc
 50
291.0282560639
 51
303.2633112743
  0
ARC
  5
AB
330
1F
100
AcDbEntity
  8
0
  6
Continuous
 62
     7
100
AcDbCircle
 10
62.7742969082
 20
269.3343821171
 30
0.0
 40
0.3875775017150054
100
AcDbArc
 50
133.9607138844
 51
187.9607138844
  0
LINE
  5
AC
330
1F
100
AcDbEntity
  8
0
  6
Continuous
 62
     7
100
AcDbLine
 10
62.3904543889
 20
269.2807049318
 30
0.0
 11
62.4366685718
 21
268.8853173283
 31
0.0
  0
ARC
  5
AD
330
1F
100
AcDbEntity
  8
0
  6
Continuous
 62
     7
100
AcDbCircle
 10
62.8225433771
 20
268.9216071953
 30
0.0
 40
0.3875775017149862
100
AcDbArc
 50
185.3726194489
 51
239.3726194489
  0
ARC
  5
AE
330
1F
100
AcDbEntity
  8
0
  6
Continuous
 62
     7
100
AcDbCircle
 10
61.513108089
 20
260.358201958
 30
0.0
 40
8.304678369070613
100
AcDbArc
 50
70.070022059
 51
82.3050772695
  0
LINE
  5
AF
330
1F
100
AcDbEntity
  8
0
  6
Continuous
 62
     7
100
AcDbLine
 10
64.3439360565
 20
268.1655123676
 30
0.0
 11
64.6051684663
 21
268.0707475308
 31
0.0
  0
LINE
  5
B0
330
1F
100
AcDbEntity
  8
0
  6
Continuous
 62
     7
100
AcDbLine
 10
64.6051684663
 20
268.0707475308
 30
0.0
 11
64.6475689108
 21
267.3427600122
 31
0.0
  0
LINE
  5
B1
330
1F
100
AcDbEntity
  8
0
  6
Continuous
 62
     7
100
AcDbLine
 10
64.6475689108
 20
267.3427600122
 30
0.0
 11
64.3991043873
 21
267.2183087097
 31
0.0
  0
ARC
  5
B2
330
1F
100
AcDbEntity
  8
0
  6
Continuous
 62
     7
100
AcDbCircle
 10
60.6810440488
 20
274.6441898111
 30
0.0
 40
8.304678369070944
100
AcDbArc
 50
284.3615893972
 51
296.5966446076
  0
ARC
  5
B3
330
1F
100
AcDbEntity
  8
0
  6
Continuous
 62
     7
100
AcDbCircle
 10
62.9757760728
 20
266.2907034149
 30
0.0
 40
0.3875775017150168
100
AcDbArc
 50
127.2940472177
 51
181.2940472177
  0
LINE
  5
B4
330
1F
100
AcDbEntity
  8
0
  6
Continuous
 62
     7
100
AcDbLine
 10
62.5882974184
 20
266.2819505722
 30
0.0
 11
62.5882974184
 21
265.8838712991
 31
0.0
  0
ARC
  5
B5
330
1F
100
AcDbEntity
  8
0
  6
Continuous
 62
     7
100
AcDbCircle
 10
62.9757760728
 20
265.8751184563
 30
0.0
 40
0.3875775017150109
100
AcDbArc
 50
178.7059527823
 51
232.7059527823
  0
ARC
  5
B6
330
1F
100
AcDbEntity
  8
0
  6
Continuous
 62
     7
100
AcDbCircle
 10
60.6810440488
 20
257.5216320602
 30
0.0
 40
8.304678369071095
100
AcDbArc
 50
63.4033553924
 51
75.6384106028
  0
LINE
  5
B7
330
1F
100
AcDbEntity
  8
0
  6
Continuous
 62
     7
100
AcDbLine
 10
64.3991043873
 20
264.9475131616
 30
0.0
 11
64.6475689108
 21
264.8230618591
 31
0.0
  0
LINE
  5
B8
330
1F
100
AcDbEntity
  8
0
  6
Continuous
 62
     7
100
AcDbLine
 10
64.6475689108
 20
264.8230618591
 30
0.0
 11
64.6051684663
 21
264.0950743405
 31
0.0
  0
LINE
  5
B9
330
1F
100
AcDbEntity
  8
0
  6
Continuous
 62
     7
100
AcDbLine
 10
64.6051684663
 20
264.0950743405
 30
0.0
 11
64.3439360565
 21
264.0003095037
 31
0.0
  0
ARC
  5
BA
330
1F
100
AcDbEntity
  8
0
  6
Continuous
 62
     7
100
AcDbCircle
 10
61.513108089
 20
271.8076199133
 30
0.0
 40
8.304678369070828
100
AcDbArc
 50
277.6949227305
 51
289.929977941
  0
ARC
  5
BB
330
1F
100
AcDbEntity
  8
0
  6
Continuous
 62
     7
100
AcDbCircle
 10
62.8225433771
 20
263.244214676
 30
0.0
 40
0.3875775017150023
100
AcDbArc
 50
120.6273805511
 51
174.6273805511
  0
LINE
  5
BC
330
1F
100
AcDbEntity
  8
0
  6
Continuous
 62
     7
100
AcDbLine
 10
62.4366685718
 20
263.2805045429
 30
0.0
 11
62.3904543889
 21
262.8851169395
 31
0.0
  0
ARC
  5
BD
330
1F
100
AcDbEntity
  8
0
  6
Continuous
 62
     7
100
AcDbCircle
 10
62.7742969082
 20
262.8314397542
 30
0.0
 40
0.3875775017150238
100
AcDbArc
 50
172.0392861156
 51
226.0392861156
  0
ARC
  5
BE
330
1F
100
AcDbEntity
  8
0
  6
Continuous
 62
     7
100
AcDbCircle
 10
59.5253004624
 20
254.8008387724
 30
0.0
 40
8.304678369070272
100
AcDbArc
 50
56.7366887257
 51
68.9717439361
  0
LINE
  5
BF
330
1F
100
AcDbEntity
  8
0
  6
Continuous
 62
     7
100
AcDbLine
 10
64.080312784
 20
261.7448682629
 30
0.0
 11
64.3126493649
 21
261.5924134849
 31
0.0
  0
LINE
  5
C0
330
1F
100
AcDbEntity
  8
0
  6
Continuous
 62
     7
100
AcDbLine
 10
64.3126493649
 20
261.5924134849
 30
0.0
 11
64.1860214245
 21
260.8742707487
 31
0.0
  0
LINE
  5
C1
330
1F
100
AcDbEntity
  8
0
  6
Continuous
 62
     7
100
AcDbLine
 10
64.1860214245
 20
260.8742707487
 30
0.0
 11
63.9155538489
 21
260.8104739095
 31
0.0
  0
ARC
  5
C2
330
1F
100
AcDbEntity
  8
0
  6
Continuous
 62
     7
100
AcDbCircle
 10
62.0102403443
 20
268.8936331473
 30
0.0
 40
8.304678369069933
100
AcDbArc
 50
271.0282560639
 51
283.2633112743
  0
ARC
  5
C3
330
1F
100
AcDbEntity
  8
0
  6
Continuous
 62
     7
100
AcDbCircle
 10
62.3166710306
 20
260.2361144342
 30
0.0
 40
0.387577501715014
100
AcDbArc
 50
113.9607138844
 51
167.9607138844
  0
LINE
  5
C4
330
1F
100
AcDbEntity
  8
0
  6
Continuous
 62
     7
100
AcDbLine
 10
61.937618369
 20
260.3169562527
 30
0.0
 11
61.8458149709
 21
259.9296072579
 31
0.0
  0
ARC
  5
C5
330
1F
100
AcDbEntity
  8
0
  6
Continuous
 62
     7
100
AcDbCircle
 10
62.2208305435
 20
259.8317316219
 30
0.0
 40
0.3875775017149951
100
AcDbArc
 50
165.372619449
 51
219.372619449
  0
ARC
  5
C6
330
1F
100
AcDbEntity
  8
0
  6
Continuous
 62
     7
100
AcDbCircle
 10
58.0615067792
 20
252.2326161565
 30
0.0
 40
8.304678369071217
100
AcDbArc
 50
50.070022059
 51
62.3050772695
  0
LINE
  5
C7
330
1F
100
AcDbEntity
  8
0
  6
Continuous
 62
     7
100
AcDbLine
 10
63.3918723563
 20
258.6008879494
 30
0.0
 11
63.6049390409
 21
258.4224913853
 31
0.0
  0
LINE
  5
C8
330
1F
100
AcDbEntity
  8
0
  6
Continuous
 62
     7
100
AcDbLine
 10
63.6049390409
 20
258.4224913853
 30
0.0
 11
63.3957960304
 21
257.72390508
 31
0.0
  0
LINE
  5
C9
330
1F
100
AcDbEntity
  8
0
  6
Continuous
 62
     7
100
AcDbLine
 10
63.3957960304
 20
257.72390508
 30
0.0
 11
63.1197508987
 21
257.6919389813
 31
0.0
  0
ARC
  5
CA
330
1F
100
AcDbEntity
  8
0
  6
Continuous
 62
     7
100
AcDbCircle
 10
62.1657179537
 20
265.941636185
 30
0.0
 40
8.30467836906975
100
AcDbArc
 50
264.3615893972
 51
276.5966446076
  0
ARC
  5
CB
330
1F
100
AcDbEntity
  8
0
  6
Continuous
 62
     7
100
AcDbCircle
 10
61.4650000888
 20
257.307082085
 30
0.0
 40
0.3875775017149897
100
AcDbArc
 50
107.2940472177
 51
161.2940472177
  0
LINE
  5
CC
330
1F
100
AcDbEntity
  8
0
  6
Continuous
 62
     7
100
AcDbLine
 10
61.0978956081
 20
257.4313826081
 30
0.0
 11
60.961744478
 21
257.0573104527
 31
0.0
  0
ARC
  5
CD
330
1F
100
AcDbEntity
  8
0
  6
Continuous
 62
     7
100
AcDbCircle
 10
61.3228616617
 20
256.9165599661
 30
0.0
 40
0.3875775017149889
100
AcDbArc
 50
158.7059527823
 51
212.7059527823
  0
ARC
  5
CE
330
1F
100
AcDbEntity
  8
0
  6
Continuous
 62
     7
100
AcDbCircle
 10
56.3094582976
 20
249.8516950175
 30
0.0
 40
8.304678369070128
100
AcDbArc
 50
43.4033553924
 51
55.6384106028
  0
LINE
  5
CF
330
1F
100
AcDbEntity
  8
0
  6
Continuous
 62
     7
100
AcDbLine
 10
62.3430930799
 20
255.5580891615
 30
0.0
 11
62.5340085069
 21
255.3561633189
 31
0.0
  0
LINE
  5
D0
330
1F
100
AcDbEntity
  8
0
  6
Continuous
 62
     7
100
AcDbLine
 10
62.5340085069
 20
255.3561633189
 30
0.0
 11
62.2451787266
 21
254.6865806258
 31
0.0
  0
LINE
  5
D1
330
1F
100
AcDbEntity
  8
0
  6
Continuous
 62
     7
100
AcDbLine
 10
62.2451787266
 20
254.6865806258
 30
0.0
 11
61.9672890758
 21
254.6868775542
 31
0.0
  0
ARC
  5
D2
330
1F
100
AcDbEntity
  8
0
  6
Continuous
 62
     7
100
AcDbCircle
 10
61.9774383493
 20
262.9915497215
 30
0.0
 40
8.304678369070261
100
AcDbArc
 50
257.6949227305
 51
269.929977941
  0
ARC
  5
D3
330
1F
100
AcDbEntity
  8
0
  6
Continuous
 62
     7
100
AcDbCircle
 10
60.2790479403
 20
254.4967277662
 30
0.0
 40
0.3875775017149825
100
AcDbArc
 50
100.6273805511
 51
154.6273805511
  0
LINE
  5
D4
330
1F
100
AcDbEntity
  8
0
  6
Continuous
 62
     7
100
AcDbLine
 10
59.9288560987
 20
254.6628060426
 30
0.0
 11
59.7501984473
 21
254.3070694108
 31
0.0
  0
ARC
  5
D5
330
1F
100
AcDbEntity
  8
0
  6
Continuous
 62
     7
100
AcDbCircle
 10
60.0925337516
 20
254.1253474824
 30
0.0
 40
0.3875775017149996
100
AcDbArc
 50
152.0392861156
 51
206.0392861156
  0
ARC
  5
D6
330
1F
100
AcDbEntity
  8
0
  6
Continuous
 62
     7
100
AcDbCircle
 10
54.2928484677
 20
247.6902732294
 30
0.0
 40
8.304678369069334
100
AcDbArc
 50
36.7366887257
 51
48.9717439361
  0
LINE
  5
D7
330
1F
100
AcDbEntity
  8
0
  6
Continuous
 62
     7
100
AcDbLine
 10
60.9481578955
 20
252.657620533
 30
0.0
 11
61.1143402611
 21
252.4348961124
 31
0.0
  0
LINE
  5
D8
330
1F
100
AcDbEntity
  8
0
  6
Continuous
 62
     7
100
AcDbLine
 10
61.1143402611
 20
252.4348961124
 30
0.0
 11
60.7497296384
 21
251.8033719888
 31
0.0
  0
LINE
  5
D9
330
1F
100
AcDbEntity
  8
0
  6
Continuous
 62
     7
100
AcDbLine
 10
60.7497296384
 20
251.8033719888
 30
0.0
 11
60.4737534493
 21
251.8359279288
 31
0.0
  0
ARC
  5
DA
330
1F
100
AcDbEntity
  8
0
  6
Continuous
 62
     7
100
AcDbCircle
 10
61.4479476897
 20
260.0832686151
 30
0.0
 40
8.304678369070047
100
AcDbArc
 50
251.0282560639
 51
263.2633112743
  0
ARC
  5
DB
330
1F
100
AcDbEntity
  8
0
  6
Continuous
 62
     7
100
AcDbCircle
 10
58.7748525534
 20
251.8430566989
 30
0.0
 40
0.3875775017149895
100
AcDbArc
 50
93.9607138844
 51
147.9607138844
  0
LINE
  5
DC
330
1F
100
AcDbEntity
  8
0
  6
Continuous
 62
     7
100
AcDbLine
 10
58.4463090948
 20
252.0486668048
 30
0.0
 11
58.2275609602
 21
251.7160764242
 31
0.0
  0
ARC
  5
DD
330
1F
100
AcDbEntity
  8
0
  6
Continuous
 62
     7
100
AcDbCircle
 10
58.5464848875
 20
251.4958405313
 30
0.0
 40
0.3875775017149853
100
AcDbArc
 50
145.3726194489
 51
199.372619449
  0
ARC
  5
DE
330
1F
100
AcDbEntity
  8
0
  6
Continuous
 62
     7
100
AcDbCircle
 10
52.0389484781
 20
245.777580314
 30
0.0
 40
8.304678369070215
100
AcDbArc
 50
30.070022059
 51
42.3050772695
  0
LINE
  5
DF
330
1F
100
AcDbEntity
  8
0
  6
Continuous
 62
     7
100
AcDbLine
 10
59.2259309083
 20
249.9387059263
 30
0.0
 11
59.3651328812
 21
249.6981948934
 31
0.0
  0
LINE
  5
E0
330
1F
100
AcDbEntity
  8
0
  6
Continuous
 62
     7
100
AcDbLine
 10
59.3651328812
 20
249.6981948934
 30
0.0
 11
58.9296721492
 21
249.1132696198
 31
0.0
  0
LINE
  5
E1
330
1F
100
AcDbEntity
  8
0
  6
Continuous
 62
     7
100
AcDbLine
 10
58.9296721492
 20
249.1132696198
 30
0.0
 11
58.6593415263
 21
249.1776443082
 31
0.0
  0
ARC
  5
E2
330
1F
100
AcDbEntity
  8
0
  6
Continuous
 62
     7
100
AcDbCircle
 10
60.5844064279
 20
257.2561223789
 30
0.0
 40
8.304678369070166
100
AcDbArc
 50
244.3615893972
 51
256.5966446076
  0
ARC
  5
E3
330
1F
100
AcDbEntity
  8
0
  6
Continuous
 62
     7
100
AcDbCircle
 10
56.9727555902
 20
249.3819552318
 30
0.0
 40
0.3875775017150005
100
AcDbArc
 50
87.2940472177
 51
141.2940472177
  0
LINE
  5
E4
330
1F
100
AcDbEntity
  8
0
  6
Continuous
 62
     7
100
AcDbLine
 10
56.6703035013
 20
249.6243166433
 30
0.0
 11
56.4144230769
 21
249.3193702283
 31
0.0
  0
ARC
  5
E5
330
1F
100
AcDbEntity
  8
0
  6
Continuous
 62
     7
100
AcDbCircle
 10
56.705622728
 20
249.0635986837
 30
0.0
 40
0.3875775017149761
100
AcDbArc
 50
138.7059527823
 51
192.7059527823
  0
ARC
  5
E6
330
1F
100
AcDbEntity
  8
0
  6
Continuous
 62
     7
100
AcDbCircle
 10
49.5782384594
 20
244.1394821618
 30
0.0
 40
8.304678369070952
100
AcDbArc
 50
23.4033553924
 51
35.6384106028
  0
LINE
  5
E7
330
1F
100
AcDbEntity
  8
0
  6
Continuous
 62
     7
100
AcDbLine
 10
57.1997022839
 20
247.4381139972
 30
0.0
 11
57.3100413962
 21
247.1830688512
 31
0.0
  0
LINE
  5
E8
330
1F
100
AcDbEntity
  8
0
  6
Continuous
 62
     7
100
AcDbLine
 10
57.3100413962
 20
247.1830688512
 30
0.0
 11
56.8096194143
 21
246.6526525384
 31
0.0
  0
LINE
  5
E9
330
1F
100
AcDbEntity
  8
0
  6
Continuous
 62
     7
100
AcDbLine
 10
56.8096194143
 20
246.6526525384
 30
0.0
 11
56.5485901156
 21
246.747975418
 31
0.0
  0
ARC
  5
EA
330
1F
100
AcDbEntity
  8
0
  6
Continuous
 62
     7
100
AcDbCircle
 10
59.3984924779
 20
254.5483433156
 30
0.0
 40
8.304678369070787
100
AcDbArc
 50
237.6949227305
 51
249.929977941
  0
ARC
  5
EB
330
1F
100
AcDbEntity
  8
0
  6
Continuous
 62
     7
100
AcDbCircle
 10
54.8971273207
 20
247.1467055405
 30
0.0
 40
0.3875775017150045
100
AcDbArc
 50
80.6273805511
 51
134.6273805511
  0
LINE
  5
EC
330
1F
100
AcDbEntity
  8
0
  6
Continuous
 62
     7
100
AcDbLine
 10
54.6248567472
 20
247.4225407352
 30
0.0
 11
54.3353043767
 21
247.1493621628
 31
0.0
  0
ARC
  5
ED
330
1F
100
AcDbEntity
  8
0
  6
Continuous
 62
     7
100
AcDbCircle
 10
54.594841776
 20
246.8615138378
 30
0.0
 40
0.3875775017149938
100
AcDbArc
 50
132.0392861156
 51
186.0392861156
  0
ARC
  5
EE
330
1F
100
AcDbEntity
  8
0
  6
Continuous
 62
     7
100
AcDbCircle
 10
46.9439952935
 20
242.7981312401
 30
0.0
 40
8.304678369069574
100
AcDbArc
 50
16.7366887257
 51
28.9717439361
  0
LINE
  5
EF
330
1F
100
AcDbEntity
  8
0
  6
Continuous
 62
     7
100
AcDbLine
 10
54.8968732886
 20
245.1896609618
 30
0.0
 11
54.976857393
 21
244.9235307508
 31
0.0
  0
LINE
  5
F0
330
1F
100
AcDbEntity
  8
0
  6
Continuous
 62
     7
100
AcDbLine
 10
54.976857393
 20
244.9235307508
 30
0.0
 11
54.4182415101
 21
244.4547963695
 31
0.0
  0
LINE
  5
F1
330
1F
100
AcDbEntity
  8
0
  6
Continuous
 62
     7
100
AcDbLine
 10
54.4182415101
 20
244.4547963695
 30
0.0
 11
54.170043509
 21
244.5797783619
 31
0.0
  0
ARC
  5
F2
330
1F
100
AcDbEntity
  8
0
  6
Continuous
 62
     7
100
AcDbCircle
 10
57.9062432915
 20
251.9965494921
 30
0.0
 40
8.30467836906912
100
AcDbArc
 50
231.0282560639
 51
243.2633112743
  0
ARC
  5
F3
330
1F
100
AcDbEntity
  8
0
  6
Continuous
 62
     7
100
AcDbCircle
 10
52.5760370566
 20
245.1675355424
 30
0.0
 40
0.3875775017150026
100
AcDbArc
 50
73.9607138844
 51
127.9607138844
  0
LINE
  5
F4
330
1F
100
AcDbEntity
  8
0
  6
Continuous
 62
     7
100
AcDbLine
 10
52.3376299908
 20
245.4731143225
 30
0.0
 11
52.0183213734
 21
245.2353978644
 31
0.0
  0
ARC
  5
F5
330
1F
100
AcDbEntity
  8
0
  6
Continuous
 62
     7
100
AcDbCircle
 10
52.2426867227
 20
244.9193654137
 30
0.0
 40
0.387577501715003
100
AcDbArc
 50
125.3726194489
 51
179.3726194489
  0
ARC
  5
F6
330
1F
100
AcDbEntity
  8
0
  6
Continuous
 62
     7
100
AcDbCircle
 10
44.1718426002
 20
241.7716670192
 30
0.0
 40
8.304678369070317
100
AcDbArc
 50
10.070022059
 51
22.3050772695
  0
LINE
  5
F7
330
1F
100
AcDbEntity
  8
0
  6
Continuous
 62
     7
100
AcDbLine
 10
52.3485857339
 20
243.2237532904
 30
0.0
 11
52.3971331827
 21
242.9501369689
 31
0.0
  0
LINE
  5
F8
330
1F
100
AcDbEntity
  8
0
  6
Continuous
 62
     7
100
AcDbLine
 10
52.3971331827
 20
242.9501369689
 30
0.0
 11
51.7878777203
 21
242.5494233475
 31
0.0
  0
LINE
  5
F9
330
1F
100
AcDbEntity
  8
0
  6
Continuous
 62
     7
100
AcDbLine
 10
51.7878777203
 20
242.5494233475
 30
0.0
 11
51.555867469
 21
242.7023742855
 31
0.0
  0
ARC
  5
FA
330
1F
100
AcDbEntity
  8
0
  6
Continuous
 62
     7
100
AcDbCircle
 10
56.1278389791
 20
249.6352495422
 30
0.0
 40
8.304678369069974
100
AcDbArc
 50
224.3615893972
 51
236.5966446076
  0
ARC
  5
FB
330
1F
100
AcDbEntity
  8
0
  6
Continuous
 62
     7
100
AcDbCircle
 10
50.0408735618
 20
243.4712101164
 30
0.0
 40
0.3875775017150038
100
AcDbArc
 50
67.2940472177
 51
121.2940472177
  0
LINE
  5
FC
330
1F
100
AcDbEntity
  8
0
  6
Continuous
 62
     7
100
AcDbLine
 10
49.8395540505
 20
243.8024000531
 30
0.0
 11
49.4948072873
 21
243.6033604166
 31
0.0
  0
ARC
  5
FD
330
1F
100
AcDbEntity
  8
0
  6
Continuous
 62
     7
100
AcDbCircle
 10
49.6809664303
 20
243.2634176371
 30
0.0
 40
0.3875775017150003
100
AcDbArc
 50
118.7059527823
 51
172.7059527823
  0
ARC
  5
FE
330
1F
100
AcDbEntity
  8
0
  6
Continuous
 62
     7
100
AcDbCircle
 10
41.299268989
 20
241.0739706667
 30
0.0
 40
8.304678369069903
100
AcDbArc
 50
3.4033553924
 51
15.6384106028
  0
LINE
  5
FF
330
1F
100
AcDbEntity
  8
0
  6
Continuous
 62
     7
100
AcDbLine
 10
49.5893008376
 20
241.5669765115
 30
0.0
 11
49.6057551098
 21
241.2895742709
 31
0.0
  0
LINE
  5
100
330
1F
100
AcDbEntity
  8
0
  6
Continuous
 62
     7
100
AcDbLine
 10
49.6057551098
 20
241.2895742709
 30
0.0
 11
48.9540992028
 21
240.9623003737
 31
0.0
  0
LINE
  5
101
330
1F
100
AcDbEntity
  8
0
  6
Continuous
 62
     7
100
AcDbLine
 10
48.9540992028
 20
240.9623003737
 30
0.0
 11
48.7414142419
 21
241.1411518584
 31
0.0
  0
ARC
  5
102
330
1F
100
AcDbEntity
  8
0
  6
Continuous
 62
     7
100
AcDbCircle
 10
54.0873294081
 20
247.4963759969
 30
0.0
 40
8.304678369070173
100
AcDbArc
 50
217.6949227305
 51
229.929977941
  0
ARC
  5
103
330
1F
100
AcDbEntity
  8
0
  6
Continuous
 62
     7
100
AcDbCircle
 10
47.3259205737
 20
242.0806691541
 30
0.0
 40
0.3875775017150017
100
AcDbArc
 50
60.6273805511
 51
114.6273805511
  0
LINE
  5
104
330
1F
100
AcDbEntity
  8
0
  6
Continuous
 62
     7
100
AcDbLine
 10
47.1644111177
 20
242.4329914717
 30
0.0
 11
46.7988883174
 21
242.2753203263
 31
0.0
  0
ARC
  5
105
330
1F
100
AcDbEntity
  8
0
  6
Continuous
 62
     7
100
AcDbCircle
 10
46.944323771
 20
241.9160643609
 30
0.0
 40
0.387577501715013
100
AcDbArc
 50
112.0392861156
 51
166.0392861156
  0
ARC
  5
106
330
1F
100
AcDbEntity
  8
0
  6
Continuous
 62
     7
100
AcDbCircle
 10
38.3651210902
 20
240.7144773289
 30
0.0
 40
8.304678369071066
100
AcDbArc
 50
356.7366887257
 51
8.9717439361
  0
LINE
  5
107
330
1F
100
AcDbEntity
  8
0
  6
Continuous
 62
     7
100
AcDbLine
 10
46.6563331943
 20
240.2417356891
 30
0.0
 11
46.6404717741
 21
239.9642989188
 31
0.0
  0
LINE
  5
108
330
1F
100
AcDbEntity
  8
0
  6
Continuous
 62
     7
100
AcDbLine
 10
46.6404717741
 20
239.9642989188
 30
0.0
 11
45.9552279508
 21
239.7148905639
 31
0.0
  0
LINE
  5
109
330
1F
100
AcDbEntity
  8
0
  6
Continuous
 62
     7
100
AcDbLine
 10
45.9552279508
 20
239.7148905639
 30
0.0
 11
45.7647444796
 21
239.9172239357
 31
0.0
  0
ARC
  5
10A
330
1F
100
AcDbEntity
  8
0
  6
Continuous
 62
     7
100
AcDbCircle
 10
51.81230897
 20
245.6088534517
 30
0.0
 40
8.304678369071082
100
AcDbArc
 50
211.0282560639
 51
223.2633112743
  0
ARC
  5
10B
330
1F
100
AcDbEntity
  8
0
  6
Continuous
 62
     7
100
AcDbCircle
 10
44.4678931739
 20
241.0147173364
 30
0.0
 40
0.3875775017150033
100
AcDbArc
 50
53.9607138844
 51
107.9607138844
  0
LINE
  5
10C
330
1F
100
AcDbEntity
  8
0
  6
Continuous
 62
     7
100
AcDbLine
 10
44.3483779117
 20
241.3834074799
 30
0.0
 11
43.967022143
 21
241.2692370575
 31
0.0
  0
ARC
  5
10D
330
1F
100
AcDbEntity
  8
0
  6
Continuous
 62
     7
100
AcDbCircle
 10
44.0697671421
 20
240.8955262268
 30
0.0
 40
0.3875775017150124
100
AcDbArc
 50
105.3726194489
 51
159.3726194489
  0
ARC
  5
10E
330
1F
100
AcDbEntity
  8
0
  6
Continuous
 62
     7
100
AcDbCircle
 10
35.4090782206
 20
240.6980485365
 30
0.0
 40
8.304678369070215
100
AcDbArc
 50
350.070022059
 51
2.3050772695
  0
LINE
  5
10F
330
1F
100
AcDbEntity
  8
0
  6
Continuous
 62
     7
100
AcDbLine
 10
43.58934616
 20
239.2659524317
 30
0.0
 11
43.5413835459
 21
238.9922329881
 31
0.0
  0
LINE
  5
110
330
1F
100
AcDbEntity
  8
0
  6
Continuous
 62
     7
100
AcDbLine
 10
43.5413835459
 20
238.9922329881
 30
0.0
 11
42.8318185535
 21
238.8240629956
 31
0.0
  0
LINE
  5
111
330
1F
100
AcDbEntity
  8
0
  6
Continuous
 62
     7
100
AcDbLine
 10
42.8318185535
 20
238.8240629956
 30
0.0
 11
42.6661125341
 21
239.0471420428
 31
0.0
  0
ARC
  5
112
330
1F
100
AcDbEntity
  8
0
  6
Continuous
 62
     7
100
AcDbCircle
 10
49.3335434136
 20
243.9982074112
 30
0.0
 40
8.304678369070555
100
AcDbArc
 50
204.3615893972
 51
216.5966446076
  0
ARC
  5
113
330
1F
100
AcDbEntity
  8
0
  6
Continuous
 62
     7
100
AcDbCircle
 10
41.5054412801
 20
240.287769833
 30
0.0
 40
0.3875775017150092
100
AcDbArc
 50
47.2940472177
 51
101.2940472177
  0
LINE
  5
114
330
1F
100
AcDbEntity
  8
0
  6
Continuous
 62
     7
100
AcDbLine
 10
41.4295364505
 20
240.6678419007
 30
0.0
 11
41.0375048961
 21
240.5987161604
 31
0.0
  0
ARC
  5
115
330
1F
100
AcDbEntity
  8
0
  6
Continuous
 62
     7
100
AcDbCircle
 10
41.0961699909
 20
240.2156042623
 30
0.0
 40
0.3875775017149984
100
AcDbArc
 50
98.7059527823
 51
152.7059527823
  0
ARC
  5
116
330
1F
100
AcDbEntity
  8
0
  6
Continuous
 62
     7
100
AcDbCircle
 10
32.471115789
 20
241.0249064607
 30
0.0
 40
8.304678369069814
100
AcDbArc
 50
343.4033553924
 51
355.6384106028
  0
LINE
  5
117
330
1F
100
AcDbEntity
  8
0
  6
Continuous
 62
     7
100
AcDbLine
 10
40.4298154729
 20
238.6528225341
 30
0.0
 11
40.350400277
 21
238.386522003
 31
0.0
  0
LINE
  5
118
330
1F
100
AcDbEntity
  8
0
  6
Continuous
 62
     7
100
AcDbLine
 10
40.350400277
 20
238.386522003
 30
0.0
 11
39.6261097647
 21
238.3018645836
 31
0.0
  0
LINE
  5
119
330
1F
100
AcDbEntity
  8
0
  6
Continuous
 62
     7
100
AcDbLine
 10
39.6261097647
 20
238.3018645836
 30
0.0
 11
39.4874220868
 21
238.5426725448
 31
0.0
  0
ARC
  5
11A
330
1F
100
AcDbEntity
  8
0
  6
Continuous
 62
     7
100
AcDbCircle
 10
46.6845537905
 20
242.6862190998
 30
0.0
 40
8.304678369071004
100
AcDbArc
 50
197.6949227305
 51
209.929977941
  0
ARC
  5
11B
330
1F
100
AcDbEntity
  8
0
  6
Continuous
 62
     7
100
AcDbCircle
 10
38.4786269722
 20
239.9096573619
 30
0.0
 40
0.3875775017150069
100
AcDbArc
 50
40.6273805511
 51
94.6273805511
  0
LINE
  5
11C
330
1F
100
AcDbEntity
  8
0
  6
Continuous
 62
     7
100
AcDbLine
 10
38.4473590577
 20
240.2959715311
 30
0.0
 11
38.0499532718
 21
240.2728252799
 31
0.0
  0
ARC
  5
11D
330
1F
100
AcDbEntity
  8
0
  6
Continuous
 62
     7
100
AcDbCircle
 10
38.0637451175
 20
239.8854932456
 30
0.0
 40
0.3875775017150004
100
AcDbArc
 50
92.0392861156
 51
146.0392861156
  0
ARC
  5
11E
330
1F
100
AcDbEntity
  8
0
  6
Continuous
 62
     7
100
AcDbCircle
 10
29.5909646973
 20
241.6906309088
 30
0.0
 40
8.30467836906961
100
AcDbArc
 50
336.7366887257
 51
348.9717439361
  0
LINE
  5
11F
330
1F
100
AcDbEntity
  8
0
  6
Continuous
 62
     7
100
AcDbLine
 10
37.2204683655
 20
238.4106375262
 30
0.0
 11
37.1106745421
 21
238.1553571656
 31
0.0
  0
LINE
  5
120
330
1F
100
AcDbEntity
  8
0
  6
Continuous
 62
     7
100
AcDbLine
 10
37.1106745421
 20
238.1553571656
 30
0.0
 11
36.3814532966
 21
238.1553571656
 31
0.0
  0
LINE
  5
121
330
1F
100
AcDbEntity
  8
0
  6
Continuous
 62
     7
100
AcDbLine
 10
36.3814532966
 20
238.1553571656
 30
0.0
 11
36.2716594731
 21
238.4106375262
 31
0.0
  0
ARC
  5
122
330
1F
100
AcDbEntity
  8
0
  6
Continuous
 62
     7
100
AcDbCircle
 10
43.9011631413
 20
241.6906309088
 30
0.0
 40
8.30467836906942
100
AcDbArc
 50
191.0282560639
 51
203.2633112743
  0
ARC
  5
123
330
1F
100
AcDbEntity
  8
0
  6
Continuous
 62
     7
100
AcDbCircle
 10
35.4283827211
 20
239.8854932456
 30
0.0
 40
0.3875775017150209
100
AcDbArc
 50
33.9607138844
 51
87.9607138844
  0
LINE
  5
124
330
1F
100
AcDbEntity
  8
0
  6
Continuous
 62
     7
100
AcDbLine
 10
35.4421745668
 20
240.2728252799
 30
0.0
 11
35.0447687809
 21
240.2959715311
 31
0.0
  0
ARC
  5
125
330
1F
100
AcDbEntity
  8
0
  6
Continuous
 62
     7
100
AcDbCircle
 10
35.0135008665
 20
239.9096573619
 30
0.0
 40
0.3875775017149994
100
AcDbArc
 50
85.3726194489
 51
139.3726194489
  0
ARC
  5
126
330
1F
100
AcDbEntity
  8
0
  6
Continuous
 62
     7
100
AcDbCircle
 10
26.8075740481
 20
242.6862190998
 30
0.0
 40
8.304678369070302
100
AcDbArc
 50
330.070022059
 51
342.3050772695
  0
LINE
  5
127
330
1F
100
AcDbEntity
  8
0
  6
Continuous
 62
     7
100
AcDbLine
 10
34.0047057518
 20
238.5426725448
 30
0.0
 11
33.8660180739
 21
238.3018645836
 31
0.0
  0
LINE
  5
128
330
1F
100
AcDbEntity
  8
0
  6
Continuous
 62
     7
100
AcDbLine
 10
33.8660180739
 20
238.3018645836
 30
0.0
 11
33.1417275616
 21
238.386522003
 31
0.0
  0
LINE
  5
129
330
1F
100
AcDbEntity
  8
0
  6
Continuous
 62
     7
100
AcDbLine
 10
33.1417275616
 20
238.386522003
 30
0.0
 11
33.0623123657
 21
238.6528225341
 31
0.0
  0
ARC
  5
12A
330
1F
100
AcDbEntity
  8
0
  6
Continuous
 62
     7
100
AcDbCircle
 10
41.0210120496
 20
241.0249064607
 30
0.0
 40
8.304678369070054
100
AcDbArc
 50
184.3615893972
 51
196.5966446076
  0
ARC
  5
12B
330
1F
100
AcDbEntity
  8
0
  6
Continuous
 62
     7
100
AcDbCircle
 10
32.3959578478
 20
240.2156042623
 30
0.0
 40
0.3875775017149879
100
AcDbArc
 50
27.2940472177
 51
81.2940472177
  0
LINE
  5
12C
330
1F
100
AcDbEntity
  8
0
  6
Continuous
 62
     7
100
AcDbLine
 10
32.4546229426
 20
240.5987161604
 30
0.0
 11
32.0625913881
 21
240.6678419007
 31
0.0
  0
ARC
  5
12D
330
1F
100
AcDbEntity
  8
0
  6
Continuous
 62
     7
100
AcDbCircle
 10
31.9866865585
 20
240.287769833
 30
0.0
 40
0.3875775017149823
100
AcDbArc
 50
78.7059527823
 51
132.7059527823
  0
ARC
  5
12E
330
1F
100
AcDbEntity
  8
0
  6
Continuous
 62
     7
100
AcDbCircle
 10
24.1585844251
 20
243.9982074112
 30
0.0
 40
8.304678369070915
100
AcDbArc
 50
323.4033553924
 51
335.6384106028
  0
LINE
  5
12F
330
1F
100
AcDbEntity
  8
0
  6
Continuous
 62
     7
100
AcDbLine
 10
30.8260153045
 20
239.0471420428
 30
0.0
 11
30.6603092851
 21
238.8240629956
 31
0.0
  0
LINE
  5
130
330
1F
100
AcDbEntity
  8
0
  6
Continuous
 62
     7
100
AcDbLine
 10
30.6603092851
 20
238.8240629956
 30
0.0
 11
29.9507442927
 21
238.9922329881
 31
0.0
  0
LINE
  5
131
330
1F
100
AcDbEntity
  8
0
  6
Continuous
 62
     7
100
AcDbLine
 10
29.9507442927
 20
238.9922329881
 30
0.0
 11
29.9027816786
 21
239.2659524317
 31
0.0
  0
ARC
  5
132
330
1F
100
AcDbEntity
  8
0
  6
Continuous
 62
     7
100
AcDbCircle
 10
38.083049618
 20
240.6980485365
 30
0.0
 40
8.304678369070778
100
AcDbArc
 50
177.6949227305
 51
189.929977941
  0
ARC
  5
133
330
1F
100
AcDbEntity
  8
0
  6
Continuous
 62
     7
100
AcDbCircle
 10
29.4223606965
 20
240.8955262268
 30
0.0
 40
0.387577501715023
100
AcDbArc
 50
20.6273805511
 51
74.627380551
  0
LINE
  5
134
330
1F
100
AcDbEntity
  8
0
  6
Continuous
 62
     7
100
AcDbLine
 10
29.5251056956
 20
241.2692370575
 30
0.0
 11
29.143749927
 21
241.3834074799
 31
0.0
  0
ARC
  5
135
330
1F
100
AcDbEntity
  8
0
  6
Continuous
 62
     7
100
AcDbCircle
 10
29.0242346647
 20
241.0147173364
 30
0.0
 40
0.3875775017149984
100
AcDbArc
 50
72.0392861156
 51
126.0392861156
  0
ARC
  5
136
330
1F
100
AcDbEntity
  8
0
  6
Continuous
 62
     7
100
AcDbCircle
 10
21.6798188686
 20
245.6088534517
 30
0.0
 40
8.30467836907002
100
AcDbArc
 50
316.7366887257
 51
328.9717439361
  0
LINE
  5
137
330
1F
100
AcDbEntity
  8
0
  6
Continuous
 62
     7
100
AcDbLine
 10
27.727383359
 20
239.9172239357
 30
0.0
 11
27.5368998878
 21
239.7148905639
 31
0.0
  0
LINE
  5
138
330
1F
100
AcDbEntity
  8
0
  6
Continuous
 62
     7
100
AcDbLine
 10
27.5368998878
 20
239.7148905639
 30
0.0
 11
26.8516560645
 21
239.9642989188
 31
0.0
  0
LINE
  5
139
330
1F
100
AcDbEntity
  8
0
  6
Continuous
 62
     7
100
AcDbLine
 10
26.8516560645
 20
239.9642989188
 30
0.0
 11
26.8357946443
 21
240.2417356891
 31
0.0
  0
ARC
  5
13A
330
1F
100
AcDbEntity
  8
0
  6
Continuous
 62
     7
100
AcDbCircle
 10
35.1270067484
 20
240.7144773289
 30
0.0
 40
8.304678369069954
100
AcDbArc
 50
171.0282560639
 51
183.2633112743
  0
ARC
  5
13B
330
1F
100
AcDbEntity
  8
0
  6
Continuous
 62
     7
100
AcDbCircle
 10
26.5478040677
 20
241.9160643609
 30
0.0
 40
0.3875775017149963
100
AcDbArc
 50
13.9607138844
 51
67.9607138844
  0
LINE
  5
13C
330
1F
100
AcDbEntity
  8
0
  6
Continuous
 62
     7
100
AcDbLine
 10
26.6932395212
 20
242.2753203263
 30
0.0
 11
26.3277167209
 21
242.4329914717
 31
0.0
  0
ARC
  5
13D
330
1F
100
AcDbEntity
  8
0
  6
Continuous
 62
     7
100
AcDbCircle
 10
26.1662072649
 20
242.0806691541
 30
0.0
 40
0.3875775017149964
100
AcDbArc
 50
65.3726194489
 51
119.3726194489
  0
ARC
  5
13E
330
1F
100
AcDbEntity
  8
0
  6
Continuous
 62
     7
100
AcDbCircle
 10
19.4047984305
 20
247.4963759969
 30
0.0
 40
8.304678369069995
100
AcDbArc
 50
310.070022059
 51
322.3050772695
  0
LINE
  5
13F
330
1F
100
AcDbEntity
  8
0
  6
Continuous
 62
     7
100
AcDbLine
 10
24.7507135967
 20
241.1411518584
 30
0.0
 11
24.5380286358
 21
240.9623003737
 31
0.0
  0
LINE
  5
140
330
1F
100
AcDbEntity
  8
0
  6
Continuous
 62
     7
100
AcDbLine
 10
24.5380286358
 20
240.9623003737
 30
0.0
 11
23.8863727288
 21
241.2895742709
 31
0.0
  0
LINE
  5
141
330
1F
100
AcDbEntity
  8
0
  6
Continuous
 62
     7
100
AcDbLine
 10
23.8863727288
 20
241.2895742709
 30
0.0
 11
23.902827001
 21
241.5669765115
 31
0.0
  0
ARC
  5
142
330
1F
100
AcDbEntity
  8
0
  6
Continuous
 62
     7
100
AcDbCircle
 10
32.1928588496
 20
241.0739706667
 30
0.0
 40
8.304678369069954
100
AcDbArc
 50
164.3615893972
 51
176.5966446076
  0
ARC
  5
143
330
1F
100
AcDbEntity
  8
0
  6
Continuous
 62
     7
100
AcDbCircle
 10
23.8111614084
 20
243.2634176371
 30
0.0
 40
0.3875775017150218
100
AcDbArc
 50
7.2940472177
 51
61.2940472177
  0
LINE
  5
144
330
1F
100
AcDbEntity
  8
0
  6
Continuous
 62
     7
100
AcDbLine
 10
23.9973205513
 20
243.6033604166
 30
0.0
 11
23.6525737882
 21
243.8024000531
 31
0.0
  0
ARC
  5
145
330
1F
100
AcDbEntity
  8
0
  6
Continuous
 62
     7
100
AcDbCircle
 10
23.4512542768
 20
243.4712101164
 30
0.0
 40
0.3875775017149799
100
AcDbArc
 50
58.7059527823
 51
112.7059527823
  0
ARC
  5
146
330
1F
100
AcDbEntity
  8
0
  6
Continuous
 62
     7
100
AcDbCircle
 10
17.3642888595
 20
249.6352495422
 30
0.0
 40
8.304678369070041
100
AcDbArc
 50
303.4033553924
 51
315.6384106028
  0
LINE
  5
147
330
1F
100
AcDbEntity
  8
0
  6
Continuous
 62
     7
100
AcDbLine
 10
21.9362603696
 20
242.7023742855
 30
0.0
 11
21.7042501183
 21
242.5494233475
 31
0.0
  0
LINE
  5
148
330
1F
100
AcDbEntity
  8
0
  6
Continuous
 62
     7
100
AcDbLine
 10
21.7042501183
 20
242.5494233475
 30
0.0
 11
21.0949946559
 21
242.9501369689
 31
0.0
  0
LINE
  5
149
330
1F
100
AcDbEntity
  8
0
  6
Continuous
 62
     7
100
AcDbLine
 10
21.0949946559
 20
242.9501369689
 30
0.0
 11
21.1435421047
 21
243.2237532904
 31
0.0
  0
ARC
  5
14A
330
1F
100
AcDbEntity
  8
0
  6
Continuous
 62
     7
100
AcDbCircle
 10
29.3202852384
 20
241.7716670192
 30
0.0
 40
8.304678369069828
100
AcDbArc
 50
157.6949227305
 51
169.929977941
  0
ARC
  5
14B
330
1F
100
AcDbEntity
  8
0
  6
Continuous
 62
     7
100
AcDbCircle
 10
21.2494411159
 20
244.9193654137
 30
0.0
 40
0.3875775017150037
100
AcDbArc
 50
0.6273805511
 51
54.6273805511
  0
ARC
  5
14C
330
1F
100
AcDbEntity
  8
0
  6
Continuous
 62
     7
100
AcDbCircle
 10
15.5858845471
 20
251.9965494921
 30
0.0
 40
8.304678369069832
100
AcDbArc
 50
296.7366887257
 51
308.9717439361
  0
LINE
  5
14D
330
1F
100
AcDbEntity
  8
0
  6
Continuous
 62
     7
100
AcDbLine
 10
19.3220843296
 20
244.5797783619
 30
0.0
 11
19.0738863285
 21
244.4547963695
 31
0.0
  0
LINE
  5
14E
330
1F
100
AcDbEntity
  8
0
  6
Continuous
 62
     7
100
AcDbLine
 10
19.0738863285
 20
244.4547963695
 30
0.0
 11
18.5152704456
 21
244.9235307508
 31
0.0
  0
LINE
  5
14F
330
1F
100
AcDbEntity
  8
0
  6
Continuous
 62
     7
100
AcDbLine
 10
18.5152704456
 20
244.9235307508
 30
0.0
 11
18.59525455
 21
245.1896609618
 31
0.0
  0
ARC
  5
150
330
1F
100
AcDbEntity
  8
0
  6
Continuous
 62
     7
100
AcDbCircle
 10
26.5481325451
 20
242.7981312401
 30
0.0
 40
8.30467836907093
100
AcDbArc
 50
151.0282560639
 51
163.2633112743
  0
LINE
  5
151
330
1F
100
AcDbEntity
  8
0
  6
Continuous
 62
     7
100
AcDbLine
 10
19.1568234619
 20
247.1493621628
 30
0.0
 11
18.8672710914
 21
247.4225407352
 31
0.0
  0
ARC
  5
152
330
1F
100
AcDbEntity
  8
0
  6
Continuous
 62
     7
100
AcDbCircle
 10
18.5950005179
 20
247.1467055405
 30
0.0
 40
0.3875775017150055
100
AcDbArc
 50
45.3726194489
 51
99.372619449
  0
ARC
  5
153
330
1F
100
AcDbEntity
  8
0
  6
Continuous
 62
     7
100
AcDbCircle
 10
14.0936353607
 20
254.5483433156
 30
0.0
 40
8.304678369070452
100
AcDbArc
 50
290.070022059
 51
302.3050772695
  0
LINE
  5
154
330
1F
100
AcDbEntity
  8
0
  6
Continuous
 62
     7
100
AcDbLine
 10
16.943537723
 20
246.747975418
 30
0.0
 11
16.6825084243
 21
246.6526525384
 31
0.0
  0
LINE
  5
155
330
1F
100
AcDbEntity
  8
0
  6
Continuous
 62
     7
100
AcDbLine
 10
16.6825084243
 20
246.6526525384
 30
0.0
 11
16.1820864424
 21
247.1830688512
 31
0.0
  0
LINE
  5
156
330
1F
100
AcDbEntity
  8
0
  6
Continuous
 62
     7
100
AcDbLine
 10
16.1820864424
 20
247.1830688512
 30
0.0
 11
16.2924255547
 21
247.4381139972
 31
0.0
  0
ARC
  5
157
330
1F
100
AcDbEntity
  8
0
  6
Continuous
 62
     7
100
AcDbCircle
 10
23.9138893792
 20
244.1394821618
 30
0.0
 40
8.30467836907005
100
AcDbArc
 50
144.3615893972
 51
156.5966446076
  0
ARC
  5
158
330
1F
100
AcDbEntity
  8
0
  6
Continuous
 62
     7
100
AcDbCircle
 10
16.7865051106
 20
249.0635986837
 30
0.0
 40
0.3875775017149957
100
AcDbArc
 50
347.2940472177
 51
41.2940472177
  0
LINE
  5
159
330
1F
100
AcDbEntity
  8
0
  6
Continuous
 62
     7
100
AcDbLine
 10
17.0777047617
 20
249.3193702283
 30
0.0
 11
16.8218243373
 21
249.6243166433
 31
0.0
  0
ARC
  5
15A
330
1F
100
AcDbEntity
  8
0
  6
Continuous
 62
     7
100
AcDbCircle
 10
16.5193722485
 20
249.3819552318
 30
0.0
 40
0.3875775017149884
100
AcDbArc
 50
38.7059527823
 51
92.7059527823
  0
ARC
  5
15B
330
1F
100
AcDbEntity
  8
0
  6
Continuous
 62
     7
100
AcDbCircle
 10
12.9077214107
 20
257.2561223789
 30
0.0
 40
8.304678369069707
100
AcDbArc
 50
283.4033553924
 51
295.6384106028
  0
LINE
  5
15C
330
1F
100
AcDbEntity
  8
0
  6
Continuous
 62
     7
100
AcDbLine
 10
14.8327863123
 20
249.1776443082
 30
0.0
 11
14.5624556894
 21
249.1132696198
 31
0.0
  0
LINE
  5
15D
330
1F
100
AcDbEntity
  8
0
  6
Continuous
 62
     7
100
AcDbLine
 10
14.5624556894
 20
249.1132696198
 30
0.0
 11
14.1269949574
 21
249.6981948934
 31
0.0
  0
LINE
  5
15E
330
1F
100
AcDbEntity
  8
0
  6
Continuous
 62
     7
100
AcDbLine
 10
14.1269949574
 20
249.6981948934
 30
0.0
 11
14.2661969303
 21
249.9387059263
 31
0.0
  0
ARC
  5
15F
330
1F
100
AcDbEntity
  8
0
  6
Continuous
 62
     7
100
AcDbCircle
 10
21.4531793606
 20
245.777580314
 30
0.0
 40
8.304678369070695
100
AcDbArc
 50
137.6949227305
 51
149.929977941
  0
ARC
  5
160
330
1F
100
AcDbEntity
  8
0
  6
Continuous
 62
     7
100
AcDbCircle
 10
14.9456429512
 20
251.4958405313
 30
0.0
 40
0.3875775017149987
100
AcDbArc
 50
340.627380551
 51
34.6273805511
  0
LINE
  5
161
330
1F
100
AcDbEntity
  8
0
  6
Continuous
 62
     7
100
AcDbLine
 10
15.2645668784
 20
251.7160764242
 30
0.0
 11
15.0458187438
 21
252.0486668048
 31
0.0
  0
ARC
  5
162
330
1F
100
AcDbEntity
  8
0
  6
Continuous
 62
     7
100
AcDbCircle
 10
14.7172752853
 20
251.8430566989
 30
0.0
 40
0.3875775017150319
100
AcDbArc
 50
32.0392861156
 51
86.0392861156
  0
ARC
  5
163
330
1F
100
AcDbEntity
  8
0
  6
Continuous
 62
     7
100
AcDbCircle
 10
12.0441801489
 20
260.0832686151
 30
0.0
 40
8.304678369069112
100
AcDbArc
 50
276.7366887257
 51
288.9717439361
  0
LINE
  5
164
330
1F
100
AcDbEntity
  8
0
  6
Continuous
 62
     7
100
AcDbLine
 10
13.0183743893
 20
251.8359279288
 30
0.0
 11
12.7423982002
 21
251.8033719888
 31
0.0
  0
LINE
  5
165
330
1F
100
AcDbEntity
  8
0
  6
Continuous
 62
     7
100
AcDbLine
 10
12.7423982002
 20
251.8033719888
 30
0.0
 11
12.3777875775
 21
252.4348961124
 31
0.0
  0
LINE
  5
166
330
1F
100
AcDbEntity
  8
0
  6
Continuous
 62
     7
100
AcDbLine
 10
12.3777875775
 20
252.4348961124
 30
0.0
 11
12.5439699431
 21
252.657620533
 31
0.0
  0
ARC
  5
167
330
1F
100
AcDbEntity
  8
0
  6
Continuous
 62
     7
100
AcDbCircle
 10
19.1992793709
 20
247.6902732294
 30
0.0
 40
8.304678369069057
100
AcDbArc
 50
131.0282560639
 51
143.2633112743
  0
ARC
  5
168
330
1F
100
AcDbEntity
  8
0
  6
Continuous
 62
     7
100
AcDbCircle
 10
13.399594087
 20
254.1253474824
 30
0.0
 40
0.3875775017150032
100
AcDbArc
 50
333.9607138844
 51
27.9607138844
  0
LINE
  5
169
330
1F
100
AcDbEntity
  8
0
  6
Continuous
 62
     7
100
AcDbLine
 10
13.7419293913
 20
254.3070694108
 30
0.0
 11
13.5632717399
 21
254.6628060426
 31
0.0
  0
ARC
  5
16A
330
1F
100
AcDbEntity
  8
0
  6
Continuous
 62
     7
100
AcDbCircle
 10
13.2130798983
 20
254.4967277662
 30
0.0
 40
0.3875775017150014
100
AcDbArc
 50
25.3726194489
 51
79.3726194489
  0
ARC
  5
16B
330
1F
100
AcDbEntity
  8
0
  6
Continuous
 62
     7
100
AcDbCircle
 10
11.5146894893
 20
262.9915497215
 30
0.0
 40
8.304678369069682
100
AcDbArc
 50
270.070022059
 51
282.3050772695
  0
LINE
  5
16C
330
1F
100
AcDbEntity
  8
0
  6
Continuous
 62
     7
100
AcDbLine
 10
11.5248387628
 20
254.6868775542
 30
0.0
 11
11.246949112
 21
254.6865806258
 31
0.0
  0
LINE
  5
16D
330
1F
100
AcDbEntity
  8
0
  6
Continuous
 62
     7
100
AcDbLine
 10
11.246949112
 20
254.6865806258
 30
0.0
 11
10.9581193317
 21
255.3561633189
 31
0.0
  0
LINE
  5
16E
330
1F
100
AcDbEntity
  8
0
  6
Continuous
 62
     7
100
AcDbLine
 10
10.9581193317
 20
255.3561633189
 30
0.0
 11
11.1490347587
 21
255.5580891615
 31
0.0
  0
ARC
  5
16F
330
1F
100
AcDbEntity
  8
0
  6
Continuous
 62
     7
100
AcDbCircle
 10
17.182669541
 20
249.8516950175
 30
0.0
 40
8.304678369072167
100
AcDbArc
 50
124.3615893972
 51
136.5966446076
  0
ARC
  5
170
330
1F
100
AcDbEntity
  8
0
  6
Continuous
 62
     7
100
AcDbCircle
 10
12.1692661769
 20
256.9165599661
 30
0.0
 40
0.3875775017150025
100
AcDbArc
 50
327.2940472177
 51
21.2940472177
  0
LINE
  5
171
330
1F
100
AcDbEntity
  8
0
  6
Continuous
 62
     7
100
AcDbLine
 10
12.5303833606
 20
257.0573104527
 30
0.0
 11
12.3942322305
 21
257.4313826081
 31
0.0
  0
ARC
  5
172
330
1F
100
AcDbEntity
  8
0
  6
Continuous
 62
     7
100
AcDbCircle
 10
12.0271277498
 20
257.307082085
 30
0.0
 40
0.3875775017150149
100
AcDbArc
 50
18.7059527823
 51
72.7059527823
  0
ARC
  5
173
330
1F
100
AcDbEntity
  8
0
  6
Continuous
 62
     7
100
AcDbCircle
 10
11.3264098849
 20
265.941636185
 30
0.0
 40
8.304678369070029
100
AcDbArc
 50
263.4033553924
 51
275.6384106028
  0
LINE
  5
174
330
1F
100
AcDbEntity
  8
0
  6
Continuous
 62
     7
100
AcDbLine
 10
10.3723769399
 20
257.6919389813
 30
0.0
 11
10.0963318082
 21
257.72390508
 31
0.0
  0
LINE
  5
175
330
1F
100
AcDbEntity
  8
0
  6
Continuous
 62
     7
100
AcDbLine
 10
10.0963318082
 20
257.72390508
 30
0.0
 11
9.8871887977
 21
258.4224913853
 31
0.0
  0
LINE
  5
176
330
1F
100
AcDbEntity
  8
0
  6
Continuous
 62
     7
100
AcDbLine
 10
9.8871887977
 20
258.4224913853
 30
0.0
 11
10.1002554823
 21
258.6008879494
 31
0.0
  0
ARC
  5
177
330
1F
100
AcDbEntity
  8
0
  6
Continuous
 62
     7
100
AcDbCircle
 10
15.4306210594
 20
252.2326161565
 30
0.0
 40
8.304678369071823
100
AcDbArc
 50
117.6949227305
 51
129.929977941
  0
ARC
  5
178
330
1F
100
AcDbEntity
  8
0
  6
Continuous
 62
     7
100
AcDbCircle
 10
11.2712972951
 20
259.8317316219
 30
0.0
 40
0.3875775017150129
100
AcDbArc
 50
320.6273805511
 51
14.627380551
  0
LINE
  5
179
330
1F
100
AcDbEntity
  8
0
  6
Continuous
 62
     7
100
AcDbLine
 10
11.6463128678
 20
259.9296072579
 30
0.0
 11
11.5545094696
 21
260.3169562527
 31
0.0
  0
ARC
  5
17A
330
1F
100
AcDbEntity
  8
0
  6
Continuous
 62
     7
100
AcDbCircle
 10
11.175456808
 20
260.2361144342
 30
0.0
 40
0.387577501715037
100
AcDbArc
 50
12.0392861156
 51
66.0392861156
  0
ARC
  5
17B
330
1F
100
AcDbEntity
  8
0
  6
Continuous
 62
     7
100
AcDbCircle
 10
11.4818874943
 20
268.8936331473
 30
0.0
 40
8.304678369070995
100
AcDbArc
 50
256.7366887257
 51
268.9717439361
  0
LINE
  5
17C
330
1F
100
AcDbEntity
  8
0
  6
Continuous
 62
     7
100
AcDbLine
 10
9.5765739897
 20
260.8104739095
 30
0.0
 11
9.3061064141
 21
260.8742707487
 31
0.0
  0
LINE
  5
17D
330
1F
100
AcDbEntity
  8
0
  6
Continuous
 62
     7
100
AcDbLine
 10
9.3061064141
 20
260.8742707487
 30
0.0
 11
9.1794784737
 21
261.5924134849
 31
0.0
  0
LINE
  5
17E
330
1F
100
AcDbEntity
  8
0
  6
Continuous
 62
     7
100
AcDbLine
 10
9.1794784737
 20
261.5924134849
 30
0.0
 11
9.4118150546
 21
261.7448682629
 31
0.0
  0
ARC
  5
17F
330
1F
100
AcDbEntity
  8
0
  6
Continuous
 62
     7
100
AcDbCircle
 10
13.9668273762
 20
254.8008387724
 30
0.0
 40
8.304678369071755
100
AcDbArc
 50
111.0282560639
 51
123.2633112743
  0
ARC
  5
180
330
1F
100
AcDbEntity
  8
0
  6
Continuous
 62
     7
100
AcDbCircle
 10
10.7178309304
 20
262.8314397542
 30
0.0
 40
0.3875775017149914
100
AcDbArc
 50
313.9607138844
 51
7.9607138844
  0
LINE
  5
181
330
1F
100
AcDbEntity
  8
0
  6
Continuous
 62
     7
100
AcDbLine
 10
11.1016734497
 20
262.8851169395
 30
0.0
 11
11.0554592668
 21
263.2805045429
 31
0.0
  0
ARC
  5
182
330
1F
100
AcDbEntity
  8
0
  6
Continuous
 62
     7
100
AcDbCircle
 10
10.6695844615
 20
263.244214676
 30
0.0
 40
0.3875775017149925
100
AcDbArc
 50
5.3726194489
 51
59.3726194489
  0
ARC
  5
183
330
1F
100
AcDbEntity
  8
0
  6
Continuous
 62
     7
100
AcDbCircle
 10
11.9790197496
 20
271.8076199133
 30
0.0
 40
8.3046783690711
100
AcDbArc
 50
250.070022059
 51
262.3050772695
  0
LINE
  5
184
330
1F
100
AcDbEntity
  8
0
  6
Continuous
 62
     7
100
AcDbLine
 10
9.1481917821
 20
264.0003095037
 30
0.0
 11
8.8869593724
 21
264.0950743405
 31
0.0
  0
LINE
  5
185
330
1F
100
AcDbEntity
  8
0
  6
Continuous
 62
     7
100
AcDbLine
 10
8.8869593724
 20
264.0950743405
 30
0.0
 11
8.8445589278
 21
264.8230618591
 31
0.0
  0
LINE
  5
186
330
1F
100
AcDbEntity
  8
0
  6
Continuous
 62
     7
100
AcDbLine
 10
8.8445589278
 20
264.8230618591
 30
0.0
 11
9.0930234514
 21
264.9475131616
 31
0.0
  0
ARC
  5
187
330
1F
100
AcDbEntity
  8
0
  6
Continuous
 62
     7
100
AcDbCircle
 10
12.8110837898
 20
257.5216320602
 30
0.0
 40
8.304678369072203
100
AcDbArc
 50
104.3615893972
 51
116.5966446076
  0
ARC
  5
188
330
1F
100
AcDbEntity
  8
0
  6
Continuous
 62
     7
100
AcDbCircle
 10
10.5163517658
 20
265.8751184563
 30
0.0
 40
0.3875775017150071
100
AcDbArc
 50
307.2940472177
 51
1.2940472177
  0
LINE
  5
189
330
1F
100
AcDbEntity
  8
0
  6
Continuous
 62
     7
100
AcDbLine
 10
10.9038304202
 20
265.8838712991
 30
0.0
 11
10.9038304202
 21
266.2819505722
 31
0.0
  0
ARC
  5
18A
330
1F
100
AcDbEntity
  8
0
  6
Continuous
 62
     7
100
AcDbCircle
 10
10.5163517658
 20
266.2907034149
 30
0.0
 40
0.3875775017150109
100
AcDbArc
 50
358.7059527823
 51
52.7059527823
  0
ARC
  5
18B
330
1F
100
AcDbEntity
  8
0
  6
Continuous
 62
     7
100
AcDbCircle
 10
12.8110837898
 20
274.6441898111
 30
0.0
 40
8.304678369070107
100
AcDbArc
 50
243.4033553924
 51
255.6384106028
  0
LINE
  5
18C
330
1F
100
AcDbEntity
  8
0
  6
Continuous
 62
     7
100
AcDbLine
 10
9.0930234514
 20
267.2183087097
 30
0.0
 11
8.8445589278
 21
267.3427600122
 31
0.0
  0
LINE
  5
18D
330
1F
100
AcDbEntity
  8
0
  6
Continuous
 62
     7
100
AcDbLine
 10
8.8445589278
 20
267.3427600122
 30
0.0
 11
8.8869593724
 21
268.0707475308
 31
0.0
  0
LINE
  5
18E
330
1F
100
AcDbEntity
  8
0
  6
Continuous
 62
     7
100
AcDbLine
 10
8.8869593724
 20
268.0707475308
 30
0.0
 11
9.1481917821
 21
268.1655123676
 31
0.0
  0
ARC
  5
18F
330
1F
100
AcDbEntity
  8
0
  6
Continuous
 62
     7
100
AcDbCircle
 10
11.9790197496
 20
260.358201958
 30
0.0
 40
8.304678369071642
100
AcDbArc
 50
97.6949227305
 51
109.929977941
  0
ARC
  5
190
330
1F
100
AcDbEntity
  8
0
  6
Continuous
 62
     7
100
AcDbCircle
 10
10.6695844615
 20
268.9216071953
 30
0.0
 40
0.3875775017150129
100
AcDbArc
 50
300.6273805511
 51
354.6273805511
  0
LINE
  5
191
330
1F
100
AcDbEntity
  8
0
  6
Continuous
 62
     7
100
AcDbLine
 10
11.0554592668
 20
268.8853173283
 30
0.0
 11
11.1016734497
 21
269.2807049318
 31
0.0
  0
ARC
  5
192
330
1F
100
AcDbEntity
  8
0
  6
Continuous
 62
     7
100
AcDbCircle
 10
10.7178309304
 20
269.3343821171
 30
0.0
 40
0.3875775017149891
100
AcDbArc
 50
352.0392861156
 51
46.0392861156
  0
ARC
  5
193
330
1F
100
AcDbEntity
  8
0
  6
Continuous
 62
     7
100
AcDbCircle
 10
13.9668273762
 20
277.3649830989
 30
0.0
 40
8.304678369069718
100
AcDbArc
 50
236.7366887257
 51
248.9717439361
  0
LINE
  5
194
330
1F
100
AcDbEntity
  8
0
  6
Continuous
 62
     7
100
AcDbLine
 10
9.4118150546
 20
270.4209536084
 30
0.0
 11
9.1794784737
 21
270.5734083864
 31
0.0
  0
LINE
  5
195
330
1F
100
AcDbEntity
  8
0
  6
Continuous
 62
     7
100
AcDbLine
 10
9.1794784737
 20
270.5734083864
 30
0.0
 11
9.3061064141
 21
271.2915511226
 31
0.0
  0
LINE
  5
196
330
1F
100
AcDbEntity
  8
0
  6
Continuous
 62
     7
100
AcDbLine
 10
9.3061064141
 20
271.2915511226
 30
0.0
 11
9.5765739897
 21
271.3553479618
 31
0.0
  0
ARC
  5
197
330
1F
100
AcDbEntity
  8
0
  6
Continuous
 62
     7
100
AcDbCircle
 10
11.4818874943
 20
263.272188724
 30
0.0
 40
8.304678369072901
100
AcDbArc
 50
91.0282560639
 51
103.2633112743
  0
ARC
  5
198
330
1F
100
AcDbEntity
  8
0
  6
Continuous
 62
     7
100
AcDbCircle
 10
11.175456808
 20
271.9297074371
 30
0.0
 40
0.3875775017149948
100
AcDbArc
 50
293.9607138844
 51
347.9607138844
  0
LINE
  5
199
330
1F
100
AcDbEntity
  8
0
  6
Continuous
 62
     7
100
AcDbLine
 10
11.5545094696
 20
271.8488656186
 30
0.0
 11
11.6463128678
 21
272.2362146133
 31
0.0
  0
ARC
  5
19A
330
1F
100
AcDbEntity
  8
0
  6
Continuous
 62
     7
100
AcDbCircle
 10
11.2712972951
 20
272.3340902494
 30
0.0
 40
0.3875775017149976
100
AcDbArc
 50
345.3726194489
 51
39.3726194489
  0
ARC
  5
19B
330
1F
100
AcDbEntity
  8
0
  6
Continuous
 62
     7
100
AcDbCircle
 10
15.4306210594
 20
279.9332057148
 30
0.0
 40
8.304678369069677
100
AcDbArc
 50
230.070022059
 51
242.3050772695
  0
LINE
  5
19C
330
1F
100
AcDbEntity
  8
0
  6
Continuous
 62
     7
100
AcDbLine
 10
10.1002554823
 20
273.5649339219
 30
0.0
 11
9.8871887977
 21
273.7433304859
 31
0.0
  0
LINE
  5
19D
330
1F
100
AcDbEntity
  8
0
  6
Continuous
 62
     7
100
AcDbLine
 10
9.8871887977
 20
273.7433304859
 30
0.0
 11
10.0963318082
 21
274.4419167913
 31
0.0
  0
LINE
  5
19E
330
1F
100
AcDbEntity
  8
0
  6
Continuous
 62
     7
100
AcDbLine
 10
10.0963318082
 20
274.4419167913
 30
0.0
 11
10.3723769399
 21
274.47388289
 31
0.0
  0
ARC
  5
19F
330
1F
100
AcDbEntity
  8
0
  6
Continuous
 62
     7
100
AcDbCircle
 10
11.3264098849
 20
266.2241856862
 30
0.0
 40
8.304678369071524
100
AcDbArc
 50
84.3615893972
 51
96.5966446076
  0
ARC
  5
1A0
330
1F
100
AcDbEntity
  8
0
  6
Continuous
 62
     7
100
AcDbCircle
 10
12.0271277498
 20
274.8587397863
 30
0.0
 40
0.3875775017150214
100
AcDbArc
 50
287.2940472177
 51
341.2940472177
  0
LINE
  5
1A1
330
1F
100
AcDbEntity
  8
0
  6
Continuous
 62
     7
100
AcDbLine
 10
12.3942322305
 20
274.7344392632
 30
0.0
 11
12.5303833606
 21
275.1085114186
 31
0.0
  0
ARC
  5
1A2
330
1F
100
AcDbEntity
  8
0
  6
Continuous
 62
     7
100
AcDbCircle
 10
12.1692661769
 20
275.2492619052
 30
0.0
 40
0.3875775017150104
100
AcDbArc
 50
338.7059527823
 51
32.7059527823
  0
ARC
  5
1A3
330
1F
100
AcDbEntity
  8
0
  6
Continuous
 62
     7
100
AcDbCircle
 10
17.182669541
 20
282.3141268538
 30
0.0
 40
8.304678369070006
100
AcDbArc
 50
223.4033553924
 51
235.6384106028
  0
LINE
  5
1A4
330
1F
100
AcDbEntity
  8
0
  6
Continuous
 62
     7
100
AcDbLine
 10
11.1490347587
 20
276.6077327098
 30
0.0
 11
10.9581193317
 21
276.8096585524
 31
0.0
  0
LINE
  5
1A5
330
1F
100
AcDbEntity
  8
0
  6
Continuous
 62
     7
100
AcDbLine
 10
10.9581193317
 20
276.8096585524
 30
0.0
 11
11.246949112
 21
277.4792412455
 31
0.0
  0
LINE
  5
1A6
330
1F
100
AcDbEntity
  8
0
  6
Continuous
 62
     7
100
AcDbLine
 10
11.246949112
 20
277.4792412455
 30
0.0
 11
11.5248387628
 21
277.4789443171
 31
0.0
  0
ARC
  5
1A7
330
1F
100
AcDbEntity
  8
0
  6
Continuous
 62
     7
100
AcDbCircle
 10
11.5146894893
 20
269.1742721498
 30
0.0
 40
8.304678369071805
100
AcDbArc
 50
77.6949227305
 51
89.929977941
  0
ARC
  5
1A8
330
1F
100
AcDbEntity
  8
0
  6
Continuous
 62
     7
100
AcDbCircle
 10
13.2130798983
 20
277.6690941051
 30
0.0
 40
0.387577501715025
100
AcDbArc
 50
280.6273805511
 51
334.6273805511
  0
LINE
  5
1A9
330
1F
100
AcDbEntity
  8
0
  6
Continuous
 62
     7
100
AcDbLine
 10
13.5632717399
 20
277.5030158287
 30
0.0
 11
13.7419293913
 21
277.8587524605
 31
0.0
  0
ARC
  5
1AA
330
1F
100
AcDbEntity
  8
0
  6
Continuous
 62
     7
100
AcDbCircle
 10
13.399594087
 20
278.0404743889
 30
0.0
 40
0.3875775017150082
100
AcDbArc
 50
332.0392861156
 51
26.0392861156
  0
ARC
  5
1AB
330
1F
100
AcDbEntity
  8
0
  6
Continuous
 62
     7
100
AcDbCircle
 10
19.1992793709
 20
284.4755486419
 30
0.0
 40
8.304678369070023
100
AcDbArc
 50
216.7366887257
 51
228.9717439361
  0
LINE
  5
1AC
330
1F
100
AcDbEntity
  8
0
  6
Continuous
 62
     7
100
AcDbLine
 10
12.5439699431
 20
279.5082013383
 30
0.0
 11
12.3777875775
 21
279.7309257589
 31
0.0
  0
LINE
  5
1AD
330
1F
100
AcDbEntity
  8
0
  6
Continuous
 62
     7
100
AcDbLine
 10
12.3777875775
 20
279.7309257589
 30
0.0
 11
12.7423982002
 21
280.3624498825
 31
0.0
  0
LINE
  5
1AE
330
1F
100
AcDbEntity
  8
0
  6
Continuous
 62
     7
100
AcDbLine
 10
12.7423982002
 20
280.3624498825
 30
0.0
 11
13.0183743893
 21
280.3298939424
 31
0.0
  0
ARC
  5
1AF
330
1F
100
AcDbEntity
  8
0
  6
Continuous
 62
     7
100
AcDbCircle
 10
12.0441801489
 20
272.0825532562
 30
0.0
 40
8.30467836907119
100
AcDbArc
 50
71.0282560639
 51
83.2633112743
  0
ARC
  5
1B0
330
1F
100
AcDbEntity
  8
0
  6
Continuous
 62
     7
100
AcDbCircle
 10
14.7172752853
 20
280.3227651724
 30
0.0
 40
0.3875775017150143
100
AcDbArc
 50
273.9607138844
 51
327.9607138844
  0
LINE
  5
1B1
330
1F
100
AcDbEntity
  8
0
  6
Continuous
 62
     7
100
AcDbLine
 10
15.0458187438
 20
280.1171550665
 30
0.0
 11
15.2645668784
 21
280.4497454471
 31
0.0
  0
ARC
  5
1B2
330
1F
100
AcDbEntity
  8
0
  6
Continuous
 62
     7
100
AcDbCircle
 10
14.9456429512
 20
280.6699813399
 30
0.0
 40
0.3875775017150054
100
AcDbArc
 50
325.3726194489
 51
19.3726194489
  0
ARC
  5
1B3
330
1F
100
AcDbEntity
  8
0
  6
Continuous
 62
     7
100
AcDbCircle
 10
21.4531793606
 20
286.3882415573
 30
0.0
 40
8.304678369070329
100
AcDbArc
 50
210.070022059
 51
222.3050772695
  0
LINE
  5
1B4
330
1F
100
AcDbEntity
  8
0
  6
Continuous
 62
     7
100
AcDbLine
 10
14.2661969303
 20
282.227115945
 30
0.0
 11
14.1269949574
 21
282.4676269779
 31
0.0
  0
LINE
  5
1B5
330
1F
100
AcDbEntity
  8
0
  6
Continuous
 62
     7
100
AcDbLine
 10
14.1269949574
 20
282.4676269779
 30
0.0
 11
14.5624556894
 21
283.0525522515
 31
0.0
  0
LINE
  5
1B6
330
1F
100
AcDbEntity
  8
0
  6
Continuous
 62
     7
100
AcDbLine
 10
14.5624556894
 20
283.0525522515
 30
0.0
 11
14.8327863123
 21
282.9881775631
 31
0.0
  0
ARC
  5
1B7
330
1F
100
AcDbEntity
  8
0
  6
Continuous
 62
     7
100
AcDbCircle
 10
12.9077214107
 20
274.9096994924
 30
0.0
 40
8.30467836907217
100
AcDbArc
 50
64.3615893972
 51
76.5966446076
  0
ARC
  5
1B8
330
1F
100
AcDbEntity
  8
0
  6
Continuous
 62
     7
100
AcDbCircle
 10
16.5193722485
 20
282.7838666395
 30
0.0
 40
0.3875775017149906
100
AcDbArc
 50
267.2940472177
 51
321.2940472177
  0
LINE
  5
1B9
330
1F
100
AcDbEntity
  8
0
  6
Continuous
 62
     7
100
AcDbLine
 10
16.8218243373
 20
282.541505228
 30
0.0
 11
17.0777047617
 21
282.846451643
 31
0.0
  0
ARC
  5
1BA
330
1F
100
AcDbEntity
  8
0
  6
Continuous
 62
     7
100
AcDbCircle
 10
16.7865051106
 20
283.1022231876
 30
0.0
 40
0.3875775017150002
100
AcDbArc
 50
318.7059527823
 51
12.7059527823
  0
ARC
  5
1BB
330
1F
100
AcDbEntity
  8
0
  6
Continuous
 62
     7
100
AcDbCircle
 10
23.9138893792
 20
288.0263397095
 30
0.0
 40
8.304678369070073
100
AcDbArc
 50
203.4033553924
 51
215.6384106028
  0
LINE
  5
1BC
330
1F
100
AcDbEntity
  8
0
  6
Continuous
 62
     7
100
AcDbLine
 10
16.2924255547
 20
284.7277078741
 30
0.0
 11
16.1820864424
 21
284.9827530201
 31
0.0
  0
LINE
  5
1BD
330
1F
100
AcDbEntity
  8
0
  6
Continuous
 62
     7
100
AcDbLine
 10
16.1820864424
 20
284.9827530201
 30
0.0
 11
16.6825084243
 21
285.5131693329
 31
0.0
  0
LINE
  5
1BE
330
1F
100
AcDbEntity
  8
0
  6
Continuous
 62
     7
100
AcDbLine
 10
16.6825084243
 20
285.5131693329
 30
0.0
 11
16.943537723
 21
285.4178464533
 31
0.0
  0
ARC
  5
1BF
330
1F
100
AcDbEntity
  8
0
  6
Continuous
 62
     7
100
AcDbCircle
 10
14.0936353607
 20
277.6174785556
 30
0.0
 40
8.30467836907044
100
AcDbArc
 50
57.6949227305
 51
69.929977941
  0
ARC
  5
1C0
330
1F
100
AcDbEntity
  8
0
  6
Continuous
 62
     7
100
AcDbCircle
 10
18.5950005179
 20
285.0191163308
 30
0.0
 40
0.3875775017150248
100
AcDbArc
 50
260.6273805511
 51
314.627380551
  0
LINE
  5
1C1
330
1F
100
AcDbEntity
  8
0
  6
Continuous
 62
     7
100
AcDbLine
 10
18.8672710914
 20
284.7432811361
 30
0.0
 11
19.1568234619
 21
285.0164597085
 31
0.0
  0
ARC
  5
1C2
330
1F
100
AcDbEntity
  8
0
  6
Continuous
 62
     7
100
AcDbCircle
 10
18.8972860626
 20
285.3043080335
 30
0.0
 40
0.3875775017149822
100
AcDbArc
 50
312.0392861156
 51
6.0392861156
  0
ARC
  5
1C3
330
1F
100
AcDbEntity
  8
0
  6
Continuous
 62
     7
100
AcDbCircle
 10
26.5481325451
 20
289.3676906312
 30
0.0
 40
8.30467836906997
100
AcDbArc
 50
196.7366887257
 51
208.9717439361
  0
LINE
  5
1C4
330
1F
100
AcDbEntity
  8
0
  6
Continuous
 62
     7
100
AcDbLine
 10
18.59525455
 20
286.9761609095
 30
0.0
 11
18.5152704456
 21
287.2422911205
 31
0.0
  0
LINE
  5
1C5
330
1F
100
AcDbEntity
  8
0
  6
Continuous
 62
     7
100
AcDbLine
 10
18.5152704456
 20
287.2422911205
 30
0.0
 11
19.0738863285
 21
287.7110255018
 31
0.0
  0
LINE
  5
1C6
330
1F
100
AcDbEntity
  8
0
  6
Continuous
 62
     7
100
AcDbLine
 10
19.0738863285
 20
287.7110255018
 30
0.0
 11
19.3220843296
 21
287.5860435094
 31
0.0
  0
ARC
  5
1C7
330
1F
100
AcDbEntity
  8
0
  6
Continuous
 62
     7
100
AcDbCircle
 10
15.5858845471
 20
280.1692723792
 30
0.0
 40
8.304678369072244
100
AcDbArc
 50
51.0282560639
 51
63.2633112743
  0
ARC
  5
1C8
330
1F
100
AcDbEntity
  8
0
  6
Continuous
 62
     7
100
AcDbCircle
 10
20.916090782
 20
286.9982863289
 30
0.0
 40
0.3875775017149867
100
AcDbArc
 50
253.9607138844
 51
307.9607138844
  0
LINE
  5
1C9
330
1F
100
AcDbEntity
  8
0
  6
Continuous
 62
     7
100
AcDbLine
 10
21.1544978478
 20
286.6927075488
 30
0.0
 11
21.4738064653
 21
286.9304240069
 31
0.0
  0
ARC
  5
1CA
330
1F
100
AcDbEntity
  8
0
  6
Continuous
 62
     7
100
AcDbCircle
 10
21.2494411159
 20
287.2464564575
 30
0.0
 40
0.3875775017150189
100
AcDbArc
 50
305.3726194489
 51
359.3726194489
  0
ARC
  5
1CB
330
1F
100
AcDbEntity
  8
0
  6
Continuous
 62
     7
100
AcDbCircle
 10
29.3202852384
 20
290.3941548521
 30
0.0
 40
8.304678369070938
100
AcDbArc
 50
190.070022059
 51
202.3050772695
  0
LINE
  5
1CC
330
1F
100
AcDbEntity
  8
0
  6
Continuous
 62
     7
100
AcDbLine
 10
21.1435421047
 20
288.9420685809
 30
0.0
 11
21.0949946559
 21
289.2156849024
 31
0.0
  0
LINE
  5
1CD
330
1F
100
AcDbEntity
  8
0
  6
Continuous
 62
     7
100
AcDbLine
 10
21.0949946559
 20
289.2156849024
 30
0.0
 11
21.7042501183
 21
289.6163985238
 31
0.0
  0
LINE
  5
1CE
330
1F
100
AcDbEntity
  8
0
  6
Continuous
 62
     7
100
AcDbLine
 10
21.7042501183
 20
289.6163985238
 30
0.0
 11
21.9362603696
 21
289.4634475858
 31
0.0
  0
ARC
  5
1CF
330
1F
100
AcDbEntity
  8
0
  6
Continuous
 62
     7
100
AcDbCircle
 10
17.3642888595
 20
282.5305723291
 30
0.0
 40
8.304678369070562
100
AcDbArc
 50
44.3615893972
 51
56.5966446076
  0
ARC
  5
1D0
330
1F
100
AcDbEntity
  8
0
  6
Continuous
 62
     7
100
AcDbCircle
 10
23.4512542768
 20
288.6946117549
 30
0.0
 40
0.3875775017149742
100
AcDbArc
 50
247.2940472177
 51
301.2940472177
  0
LINE
  5
1D1
330
1F
100
AcDbEntity
  8
0
  6
Continuous
 62
     7
100
AcDbLine
 10
23.6525737882
 20
288.3634218181
 30
0.0
 11
23.9973205513
 21
288.5624614547
 31
0.0
  0
ARC
  5
1D2
330
1F
100
AcDbEntity
  8
0
  6
Continuous
 62
     7
100
AcDbCircle
 10
23.8111614084
 20
288.9024042342
 30
0.0
 40
0.3875775017150299
100
AcDbArc
 50
298.7059527823
 51
352.7059527823
  0
ARC
  5
1D3
330
1F
100
AcDbEntity
  8
0
  6
Continuous
 62
     7
100
AcDbCircle
 10
32.1928588496
 20
291.0918512046
 30
0.0
 40
8.304678369070416
100
AcDbArc
 50
183.4033553924
 51
195.6384106028
  0
LINE
  5
1D4
330
1F
100
AcDbEntity
  8
0
  6
Continuous
 62
     7
100
AcDbLine
 10
23.902827001
 20
290.5988453598
 30
0.0
 11
23.8863727288
 21
290.8762476004
 31
0.0
  0
LINE
  5
1D5
330
1F
100
AcDbEntity
  8
0
  6
Continuous
 62
     7
100
AcDbLine
 10
23.8863727288
 20
290.8762476004
 30
0.0
 11
24.5380286358
 21
291.2035214975
 31
0.0
  0
LINE
  5
1D6
330
1F
100
AcDbEntity
  8
0
  6
Continuous
 62
     7
100
AcDbLine
 10
24.5380286358
 20
291.2035214975
 30
0.0
 11
24.7507135967
 21
291.0246700128
 31
0.0
  0
ARC
  5
1D7
330
1F
100
AcDbEntity
  8
0
  6
Continuous
 62
     7
100
AcDbCircle
 10
19.4047984305
 20
284.6694458744
 30
0.0
 40
8.30467836907061
100
AcDbArc
 50
37.6949227305
 51
49.929977941
  0
ARC
  5
1D8
330
1F
100
AcDbEntity
  8
0
  6
Continuous
 62
     7
100
AcDbCircle
 10
26.1662072649
 20
290.0851527172
 30
0.0
 40
0.3875775017149928
100
AcDbArc
 50
240.6273805511
 51
294.6273805511
  0
LINE
  5
1D9
330
1F
100
AcDbEntity
  8
0
  6
Continuous
 62
     7
100
AcDbLine
 10
26.3277167209
 20
289.7328303996
 30
0.0
 11
26.6932395212
 21
289.890501545
 31
0.0
  0
ARC
  5
1DA
330
1F
100
AcDbEntity
  8
0
  6
Continuous
 62
     7
100
AcDbCircle
 10
26.5478040677
 20
290.2497575104
 30
0.0
 40
0.3875775017150042
100
AcDbArc
 50
292.0392861156
 51
346.0392861156
  0
ARC
  5
1DB
330
1F
100
AcDbEntity
  8
0
  6
Continuous
 62
     7
100
AcDbCircle
 10
35.1270067484
 20
291.4513445424
 30
0.0
 40
8.304678369071082
100
AcDbArc
 50
176.7366887257
 51
188.9717439361
  0
LINE
  5
1DC
330
1F
100
AcDbEntity
  8
0
  6
Continuous
 62
     7
100
AcDbLine
 10
26.8357946443
 20
291.9240861822
 30
0.0
 11
26.8516560645
 21
292.2015229525
 31
0.0
  0
LINE
  5
1DD
330
1F
100
AcDbEntity
  8
0
  6
Continuous
 62
     7
100
AcDbLine
 10
26.8516560645
 20
292.2015229525
 30
0.0
 11
27.5368998878
 21
292.4509313074
 31
0.0
  0
LINE
  5
1DE
330
1F
100
AcDbEntity
  8
0
  6
Continuous
 62
     7
100
AcDbLine
 10
27.5368998878
 20
292.4509313074
 30
0.0
 11
27.727383359
 21
292.2485979356
 31
0.0
  0
ARC
  5
1DF
330
1F
100
AcDbEntity
  8
0
  6
Continuous
 62
     7
100
AcDbCircle
 10
21.6798188686
 20
286.5569684195
 30
0.0
 40
8.304678369071215
100
AcDbArc
 50
31.0282560639
 51
43.2633112743
  0
ARC
  5
1E0
330
1F
100
AcDbEntity
  8
0
  6
Continuous
 62
     7
100
AcDbCircle
 10
29.0242346647
 20
291.1511045349
 30
0.0
 40
0.3875775017149682
100
AcDbArc
 50
233.9607138844
 51
287.9607138844
  0
LINE
  5
1E1
330
1F
100
AcDbEntity
  8
0
  6
Continuous
 62
     7
100
AcDbLine
 10
29.143749927
 20
290.7824143914
 30
0.0
 11
29.5251056956
 21
290.8965848138
 31
0.0
  0
ARC
  5
1E2
330
1F
100
AcDbEntity
  8
0
  6
Continuous
 62
     7
100
AcDbCircle
 10
29.4223606965
 20
291.2702956445
 30
0.0
 40
0.3875775017150124
100
AcDbArc
 50
285.372619449
 51
339.3726194489
  0
ARC
  5
1E3
330
1F
100
AcDbEntity
  8
0
  6
Continuous
 62
     7
100
AcDbCircle
 10
38.083049618
 20
291.4677733348
 30
0.0
 40
8.304678369070146
100
AcDbArc
 50
170.070022059
 51
182.3050772695
  0
LINE
  5
1E4
330
1F
100
AcDbEntity
  8
0
  6
Continuous
 62
     7
100
AcDbLine
 10
29.9027816786
 20
292.8998694396
 30
0.0
 11
29.9507442927
 21
293.1735888832
 31
0.0
  0
LINE
  5
1E5
330
1F
100
AcDbEntity
  8
0
  6
Continuous
 62
     7
100
AcDbLine
 10
29.9507442927
 20
293.1735888832
 30
0.0
 11
30.6603092851
 21
293.3417588757
 31
0.0
  0
LINE
  5
1E6
330
1F
100
AcDbEntity
  8
0
  6
Continuous
 62
     7
100
AcDbLine
 10
30.6603092851
 20
293.3417588757
 30
0.0
 11
30.8260153045
 21
293.1186798285
 31
0.0
  0
ARC
  5
1E7
330
1F
100
AcDbEntity
  8
0
  6
Continuous
 62
     7
100
AcDbCircle
 10
24.1585844251
 20
288.1676144601
 30
0.0
 40
8.304678369071084
100
AcDbArc
 50
24.3615893972
 51
36.5966446076
  0
ARC
  5
1E8
330
1F
100
AcDbEntity
  8
0
  6
Continuous
 62
     7
100
AcDbCircle
 10
31.9866865585
 20
291.8780520383
 30
0.0
 40
0.3875775017149505
100
AcDbArc
 50
227.2940472177
 51
281.2940472177
  0
LINE
  5
1E9
330
1F
100
AcDbEntity
  8
0
  6
Continuous
 62
     7
100
AcDbLine
 10
32.0625913881
 20
291.4979799706
 30
0.0
 11
32.4546229426
 21
291.5671057109
 31
0.0
  0
ARC
  5
1EA
330
1F
100
AcDbEntity
  8
0
  6
Continuous
 62
     7
100
AcDbCircle
 10
32.3959578478
 20
291.950217609
 30
0.0
 40
0.3875775017150337
100
AcDbArc
 50
278.7059527823
 51
332.7059527823
  0
ARC
  5
1EB
330
1F
100
AcDbEntity
  8
0
  6
Continuous
 62
     7
100
AcDbCircle
 10
41.0210120496
 20
291.1409154106
 30
0.0
 40
8.30467836907017
100
AcDbArc
 50
163.4033553924
 51
175.6384106028
  0
LINE
  5
1EC
330
1F
100
AcDbEntity
  8
0
  6
Continuous
 62
     7
100
AcDbLine
 10
33.0623123657
 20
293.5129993372
 30
0.0
 11
33.1417275616
 21
293.7792998683
 31
0.0
  0
LINE
  5
1ED
330
1F
100
AcDbEntity
  8
0
  6
Continuous
 62
     7
100
AcDbLine
 10
33.1417275616
 20
293.7792998683
 30
0.0
 11
33.8660180739
 21
293.8639572877
 31
0.0
  0
LINE
  5
1EE
330
1F
100
AcDbEntity
  8
0
  6
Continuous
 62
     7
100
AcDbLine
 10
33.8660180739
 20
293.8639572877
 30
0.0
 11
34.0047057518
 21
293.6231493265
 31
0.0
  0
ARC
  5
1EF
330
1F
100
AcDbEntity
  8
0
  6
Continuous
 62
     7
100
AcDbCircle
 10
26.8075740481
 20
289.4796027715
 30
0.0
 40
8.304678369071237
100
AcDbArc
 50
17.6949227305
 51
29.929977941
  0
ARC
  5
1F0
330
1F
100
AcDbEntity
  8
0
  6
Continuous
 62
     7
100
AcDbCircle
 10
35.0135008665
 20
292.2561645094
 30
0.0
 40
0.3875775017150074
100
AcDbArc
 50
220.6273805511
 51
274.6273805511
  0
LINE
  5
1F1
330
1F
100
AcDbEntity
  8
0
  6
Continuous
 62
     7
100
AcDbLine
 10
35.0447687809
 20
291.8698503402
 30
0.0
 11
35.4421745668
 21
291.8929965914
 31
0.0
  0
ARC
  5
1F2
330
1F
100
AcDbEntity
  8
0
  6
Continuous
 62
     7
100
AcDbCircle
 10
20.916090782
 20
245.1675355424
 30
0.0
 40
0.3875775017150163
100
AcDbArc
 50
52.0392861156
 51
106.0392861156
  0
ARC
  5
1F3
330
1F
100
AcDbEntity
  8
0
  6
Continuous
 62
     7
100
AcDbCircle
 10
18.8972860626
 20
246.8615138378
 30
0.0
 40
0.387577501714995
100
AcDbArc
 50
353.9607138844
 51
47.9607138844
  0
LINE
  5
1F4
330
1F
100
AcDbEntity
  8
0
  6
Continuous
 62
     7
100
AcDbLine
 10
38.0499532718
 20
291.8929965914
 30
0.0
 11
38.4473590578
 21
291.8698503402
 31
0.0
  0
ARC
  5
1F5
330
1F
100
AcDbEntity
  8
0
  6
Continuous
 62
     7
100
AcDbCircle
 10
38.4786269722
 20
292.2561645094
 30
0.0
 40
0.3875775017149753
100
AcDbArc
 50
265.3726194489
 51
319.3726194489
  0
ARC
  5
1F6
330
1F
100
AcDbEntity
  8
0
  6
Continuous
 62
     7
100
AcDbCircle
 10
46.6845537905
 20
289.4796027715
 30
0.0
 40
8.304678369070086
100
AcDbArc
 50
150.070022059
 51
162.3050772695
  0
LINE
  5
1F7
330
1F
100
AcDbEntity
  8
0
  6
Continuous
 62
     7
100
AcDbLine
 10
39.4874220868
 20
293.6231493265
 30
0.0
 11
39.6261097647
 21
293.8639572877
 31
0.0
  0
LINE
  5
1F8
330
1F
100
AcDbEntity
  8
0
  6
Continuous
 62
     7
100
AcDbLine
 10
39.6261097647
 20
293.8639572877
 30
0.0
 11
40.350400277
 21
293.7792998683
 31
0.0
  0
LINE
  5
1F9
330
1F
100
AcDbEntity
  8
0
  6
Continuous
 62
     7
100
AcDbLine
 10
40.350400277
 20
293.7792998683
 30
0.0
 11
40.4298154729
 21
293.5129993372
 31
0.0
  0
ARC
  5
1FA
330
1F
100
AcDbEntity
  8
0
  6
Continuous
 62
     7
100
AcDbCircle
 10
32.471115789
 20
291.1409154106
 30
0.0
 40
8.304678369072398
100
AcDbArc
 50
4.3615893972
 51
16.5966446076
  0
ARC
  5
1FB
330
1F
100
AcDbEntity
  8
0
  6
Continuous
 62
     7
100
AcDbCircle
 10
41.0961699909
 20
291.950217609
 30
0.0
 40
0.3875775017150003
100
AcDbArc
 50
207.2940472177
 51
261.2940472177
  0
LINE
  5
1FC
330
1F
100
AcDbEntity
  8
0
  6
Continuous
 62
     7
100
AcDbLine
 10
41.0375048961
 20
291.5671057109
 30
0.0
 11
41.4295364505
 21
291.4979799706
 31
0.0
  0
LINE
  5
1FD
330
1F
100
AcDbEntity
  8
Default
  6
Continuous
 62
     7
100
AcDbLine
 10
21.1544978478
 20
245.4731143225
 30
0.0
 11
21.4738064653
 21
245.2353978644
 31
0.0
  0
ARC
  5
1FE
330
1F
100
AcDbEntity
  8
0
  6
Continuous
 62
     7
100
AcDbCircle
 10
35.4283827211
 20
292.2803286257
 30
0.0
 40
0.3875775017150337
100
AcDbArc
 50
272.0392861156
 51
326.0392861156
  0
ARC
  5
1FF
330
1F
100
AcDbEntity
  8
0
  6
Continuous
 62
     7
100
AcDbCircle
 10
43.9011631413
 20
290.4751909624
 30
0.0
 40
8.30467836907017
100
AcDbArc
 50
156.7366887257
 51
168.9717439361
  0
LINE
  5
200
330
1F
100
AcDbEntity
  8
0
  6
Continuous
 62
     7
100
AcDbLine
 10
36.2716594731
 20
293.7551843451
 30
0.0
 11
36.3814532966
 21
294.0104647057
 31
0.0
  0
LINE
  5
201
330
1F
100
AcDbEntity
  8
0
  6
Continuous
 62
     7
100
AcDbLine
 10
36.3814532966
 20
294.0104647057
 30
0.0
 11
37.1106745421
 21
294.0104647057
 31
0.0
  0
LINE
  5
202
330
1F
100
AcDbEntity
  8
0
  6
Continuous
 62
     7
100
AcDbLine
 10
37.1106745421
 20
294.0104647057
 30
0.0
 11
37.2204683655
 21
293.7551843451
 31
0.0
  0
ARC
  5
203
330
1F
100
AcDbEntity
  8
0
  6
Continuous
 62
     7
100
AcDbCircle
 10
29.5909646973
 20
290.4751909624
 30
0.0
 40
8.304678369071237
100
AcDbArc
 50
11.0282560639
 51
23.2633112743
  0
ARC
  5
204
330
1F
100
AcDbEntity
  8
0
  6
Continuous
 62
     7
100
AcDbCircle
 10
38.0637451175
 20
292.2803286257
 30
0.0
 40
0.3875775017150074
100
AcDbArc
 50
213.9607138844
 51
267.9607138844
  0
INSERT
  5
206
330
1F
100
AcDbEntity
  8
Default
100
AcDbBlockReference
  2
SE
 10
0.0
 20
0.0
 30
0.0
  0
INSERT
  5
20E
330
1F
100
AcDbEntity
  8
Default
100
AcDbBlockReference
  2
SE1
 10
0.0
 20
0.0
 30
0.0
  0
INSERT
  5
216
330
1F
100
AcDbEntity
  8
Default
100
AcDbBlockReference
  2
SE2
 10
0.0
 20
0.0
 30
0.0
  0
INSERT
  5
21E
330
1F
100
AcDbEntity
  8
Default
100
AcDbBlockReference
  2
SE3
 10
0.0
 20
0.0
 30
0.0
  0
INSERT
  5
226
330
1F
100
AcDbEntity
  8
Default
100
AcDbBlockReference
  2
SE4
 10
0.0
 20
0.0
 30
0.0
  0
INSERT
  5
22E
330
1F
100
AcDbEntity
  8
Default
100
AcDbBlockReference
  2
SE5
 10
0.0
 20
0.0
 30
0.0
  0
INSERT
  5
233
330
1F
100
AcDbEntity
  8
Default
100
AcDbBlockReference
  2
SE6
 10
0.0
 20
0.0
 30
0.0
  0
INSERT
  5
23B
330
1F
100
AcDbEntity
  8
Default
100
AcDbBlockReference
  2
SE7
 10
0.0
 20
0.0
 30
0.0
  0
INSERT
  5
243
330
1F
100
AcDbEntity
  8
Default
100
AcDbBlockReference
  2
SE8
 10
0.0
 20
0.0
 30
0.0
  0
INSERT
  5
24B
330
1F
100
AcDbEntity
  8
Default
100
AcDbBlockReference
  2
SE9
 10
0.0
 20
0.0
 30
0.0
  0
INSERT
  5
253
330
1F
100
AcDbEntity
  8
Default
100
AcDbBlockReference
  2
SE10
 10
0.0
 20
0.0
 30
0.0
  0
INSERT
  5
25B
330
1F
100
AcDbEntity
  8
Default
100
AcDbBlockReference
  2
SE11
 10
0.0
 20
0.0
 30
0.0
  0
INSERT
  5
263
330
1F
100
AcDbEntity
  8
Default
100
AcDbBlockReference
  2
SE12
 10
0.0
 20
0.0
 30
0.0
  0
INSERT
  5
26B
330
1F
100
AcDbEntity
  8
Default
100
AcDbBlockReference
  2
SE13
 10
0.0
 20
0.0
 30
0.0
  0
INSERT
  5
273
330
1F
100
AcDbEntity
  8
Default
100
AcDbBlockReference
  2
SE14
 10
0.0
 20
0.0
 30
0.0
  0
INSERT
  5
27B
330
1F
100
AcDbEntity
  8
Default
100
AcDbBlockReference
  2
SE15
 10
0.0
 20
0.0
 30
0.0
  0
INSERT
  5
283
330
1F
100
AcDbEntity
  8
Default
100
AcDbBlockReference
  2
SE16
 10
0.0
 20
0.0
 30
0.0
  0
INSERT
  5
28B
330
1F
100
AcDbEntity
  8
Default
100
AcDbBlockReference
  2
SE17
 10
0.0
 20
0.0
 30
0.0
  0
INSERT
  5
293
330
1F
100
AcDbEntity
  8
Default
100
AcDbBlockReference
  2
SE18
 10
0.0
 20
0.0
 30
0.0
  0
INSERT
  5
29B
330
1F
100
AcDbEntity
  8
Default
100
AcDbBlockReference
  2
SE19
 10
0.0
 20
0.0
 30
0.0
  0
INSERT
  5
2A2
330
1F
100
AcDbEntity
  8
Default
100
AcDbBlockReference
  2
SE20
 10
0.0
 20
0.0
 30
0.0
  0
INSERT
  5
2A7
330
1F
100
AcDbEntity
  8
Default
100
AcDbBlockReference
  2
SE21
 10
0.0
 20
0.0
 30
0.0
  0
ENDSEC
  0
SECTION
  2
OBJECTS
  0
DICTIONARY
  5
C
330
0
100
AcDbDictionary
281
     1
  3
ACAD_GROUP
350
D
  3
ACAD_LAYOUT
350
1A
  3
ACAD_MLEADERSTYLE
350
2AF
  3
ACAD_MLINESTYLE
350
17
  3
ACAD_PLOTSETTINGS
350
19
  3
ACAD_PLOTSTYLENAME
350
E
  3
ACAD_VISUALSTYLE
350
2A
  3
AcDbVariableDictionary
350
2AD
  0
DICTIONARY
  5
D
102
{ACAD_REACTORS
330
C
102
}
330
C
100
AcDbDictionary
281
     1
  0
DICTIONARY
  5
1A
102
{ACAD_REACTORS
330
C
102
}
330
C
100
AcDbDictionary
281
     1
  3
Layout1
350
1E
  3
Model
350
22
  0
DICTIONARY
  5
2AF
102
{ACAD_REACTORS
330
C
102
}
330
C
100
AcDbDictionary
281
     1
  0
DICTIONARY
  5
17
102
{ACAD_REACTORS
330
C
102
}
330
C
100
AcDbDictionary
281
     1
  3
Standard
350
18
  0
DICTIONARY
  5
19
102
{ACAD_REACTORS
330
C
102
}
330
C
100
AcDbDictionary
281
     1
  0
ACDBDICTIONARYWDFLT
  5
E
102
{ACAD_REACTORS
330
C
102
}
330
C
100
AcDbDictionary
281
     1
  3
Normal
350
F
100
AcDbDictionaryWithDefault
340
F
  0
DICTIONARY
  5
2A
102
{ACAD_REACTORS
330
C
102
}
330
C
100
AcDbDictionary
281
     1
  3
2dWireframe
350
2F
  3
3D Hidden
350
31
  3
3dWireframe
350
30
  3
Basic
350
32
  3
Brighten
350
36
  3
ColorChange
350
3A
  3
Conceptual
350
34
  3
Dim
350
35
  3
Facepattern
350
39
  3
Flat
350
2B
  3
FlatWithEdges
350
2C
  3
Gouraud
350
2D
  3
GouraudWithEdges
350
2E
  3
Linepattern
350
38
  3
Realistic
350
33
  3
Thicken
350
37
  0
DICTIONARY
  5
2AD
102
{ACAD_REACTORS
330
C
102
}
330
C
100
AcDbDictionary
281
     1
  3
PSOLHEIGHT
350
2B1
  3
PSOLWIDTH
350
2B0
  0
LAYOUT
  5
1E
102
{ACAD_REACTORS
330
1A
102
}
330
1A
100
AcDbPlotSettings
  1

  2
none_device
  4

  6

 40
0.0
 41
0.0
 42
0.0
 43
0.0
 44
0.0
 45
0.0
 46
0.0
 47
0.0
 48
0.0
 49
0.0
140
0.0
141
0.0
142
1.0
143
1.0
 70
   688
 72
     0
 73
     0
 74
     5
  7

 75
    16
147
1.0
148
0.0
149
0.0
100
AcDbLayout
  1
Layout1
 70
     1
 71
     1
 10
0.0
 20
0.0
 11
450.0
 21
300.0
 12
0.0
 22
0.0
 32
0.0
 14
0.0
 24
0.0
 34
0.0
 15
450.0
 25
300.0
 35
0.0
146
0.0
 13
0.0
 23
0.0
 33
0.0
 16
1.0
 26
0.0
 36
0.0
 17
0.0
 27
1.0
 37
0.0
 76
     0
330
1B
  0
LAYOUT
  5
22
102
{ACAD_REACTORS
330
1A
102
}
330
1A
100
AcDbPlotSettings
  1

  2
none_device
  4

  6

 40
0.0
 41
0.0
 42
0.0
 43
0.0
 44
0.0
 45
0.0
 46
0.0
 47
0.0
 48
0.0
 49
0.0
140
0.0
141
0.0
142
1.0
143
1.0
 70
  1712
 72
     0
 73
     0
 74
     0
  7

 75
     0
147
1.0
148
0.0
149
0.0
100
AcDbLayout
  1
Model
 70
     1
 71
     0
 10
0.0
 20
0.0
 11
450.0
 21
300.0
 12
0.0
 22
0.0
 32
0.0
 14
0.0
 24
0.0
 34
0.0
 15
450.0
 25
300.0
 35
0.0
146
0.0
 13
0.0
 23
0.0
 33
0.0
 16
1.0
 26
0.0
 36
0.0
 17
0.0
 27
1.0
 37
0.0
 76
     0
330
1F
331
29
  0
MLINESTYLE
  5
18
102
{ACAD_REACTORS
330
17
102
}
330
17
100
AcDbMlineStyle
  2
Standard
 70
     0
  3

 62
   256
 51
90.0
 52
90.0
 71
     2
 49
0.5
 62
   256
  6
BYLAYER
 49
-0.5
 62
   256
  6
BYLAYER
  0
ACDBPLACEHOLDER
  5
F
102
{ACAD_REACTORS
330
E
102
}
330
E
  0
VISUALSTYLE
  5
2F
102
{ACAD_REACTORS
330
2A
102
}
330
2A
100
AcDbVisualStyle
  2
2dWireframe
 70
     4
 71
     0
 72
     2
 73
     0
 90
        0
 40
-0.6
 41
-30.0
 62
     5
 63
     7
 74
     1
 91
        4
 64
     7
 65
   257
 75
     1
175
     1
 42
1.0
 92
        0
 66
   257
 43
1.0
 76
     1
 77
     6
 78
     2
 67
     7
 79
     5
170
     0
171
     0
290
     0
174
     0
 93
        1
 44
0.0
173
     0
291
     0
 45
0.0
1001
ACAD
1000
AcDbSavedByObjectVersion
1070
     0
  0
VISUALSTYLE
  5
31
102
{ACAD_REACTORS
330
2A
102
}
330
2A
100
AcDbVisualStyle
  2
3D Hidden
 70
     6
 71
     1
 72
     2
 73
     2
 90
        0
 40
-0.6
 41
-30.0
 62
     5
 63
     7
 74
     2
 91
        2
 64
     7
 65
   257
 75
     2
175
     1
 42
40.0
 92
        0
 66
   257
 43
1.0
 76
     1
 77
     6
 78
     2
 67
     7
 79
     3
170
     0
171
     0
290
     0
174
     0
 93
        1
 44
0.0
173
     0
291
     0
 45
0.0
1001
ACAD
1000
AcDbSavedByObjectVersion
1070
     0
  0
VISUALSTYLE
  5
30
102
{ACAD_REACTORS
330
2A
102
}
330
2A
100
AcDbVisualStyle
  2
3dWireframe
 70
     5
 71
     0
 72
     2
 73
     0
 90
        0
 40
-0.6
 41
-30.0
 62
     5
 63
     7
 74
     1
 91
        4
 64
     7
 65
   257
 75
     1
175
     1
 42
1.0
 92
        0
 66
   257
 43
1.0
 76
     1
 77
     6
 78
     2
 67
     7
 79
     5
170
     0
171
     0
290
     0
174
     0
 93
        1
 44
0.0
173
     0
291
     0
 45
0.0
1001
ACAD
1000
AcDbSavedByObjectVersion
1070
     0
  0
VISUALSTYLE
  5
32
102
{ACAD_REACTORS
330
2A
102
}
330
2A
100
AcDbVisualStyle
  2
Basic
 70
     7
 71
     1
 72
     0
 73
     1
 90
        0
 40
-0.6
 41
-30.0
 62
     5
 63
     7
 74
     0
 91
        4
 64
     7
 65
   257
 75
     1
175
     1
 42
1.0
 92
        8
 66
     7
 43
1.0
 76
     1
 77
     6
 78
     2
 67
     7
 79
     5
170
     0
171
     0
290
     0
174
     0
 93
        1
 44
0.0
173
     0
291
     1
 45
0.0
1001
ACAD
1000
AcDbSavedByObjectVersion
1070
     0
  0
VISUALSTYLE
  5
36
102
{ACAD_REACTORS
330
2A
102
}
330
2A
100
AcDbVisualStyle
  2
Brighten
 70
    12
 71
     2
 72
     2
 73
     0
 90
        0
 40
-0.6
 41
-30.0
 62
     5
 63
     7
 74
     1
 91
        4
 64
     7
 65
   257
 75
     1
175
     1
 42
1.0
 92
        8
 66
     7
 43
1.0
 76
     1
 77
     6
 78
     2
 67
     7
 79
     5
170
     0
171
     0
290
     0
174
     0
 93
        1
 44
50.0
173
     0
291
     1
 45
0.0
1001
ACAD
1000
AcDbSavedByObjectVersion
1070
     0
  0
VISUALSTYLE
  5
3A
102
{ACAD_REACTORS
330
2A
102
}
330
2A
100
AcDbVisualStyle
  2
ColorChange
 70
    16
 71
     2
 72
     2
 73
     3
 90
        0
 40
-0.6
 41
-30.0
 62
     5
 63
     8
 74
     1
 91
        4
 64
     7
 65
   257
 75
     1
175
     1
 42
1.0
 92
        8
 66
     8
 43
1.0
 76
     1
 77
     6
 78
     2
 67
     7
 79
     5
170
     0
171
     0
290
     0
174
     0
 93
        1
 44
0.0
173
     0
291
     1
 45
0.0
1001
ACAD
1000
AcDbSavedByObjectVersion
1070
     0
  0
VISUALSTYLE
  5
34
102
{ACAD_REACTORS
330
2A
102
}
330
2A
100
AcDbVisualStyle
  2
Conceptual
 70
     9
 71
     3
 72
     2
 73
     0
 90
        0
 40
-0.6
 41
-30.0
 62
     5
 63
     7
 74
     2
 91
        2
 64
     7
 65
   257
 75
     1
175
     1
 42
40.0
 92
        8
 66
     7
 43
1.0
 76
     1
 77
     6
 78
     2
 67
     7
 79
     3
170
     0
171
     0
290
     0
174
     0
 93
        1
 44
0.0
173
     0
291
     0
 45
0.0
1001
ACAD
1000
AcDbSavedByObjectVersion
1070
     0
  0
VISUALSTYLE
  5
35
102
{ACAD_REACTORS
330
2A
102
}
330
2A
100
AcDbVisualStyle
  2
Dim
 70
    11
 71
     2
 72
     2
 73
     0
 90
        0
 40
-0.6
 41
-30.0
 62
     5
 63
     7
 74
     1
 91
        4
 64
     7
 65
   257
 75
     1
175
     1
 42
1.0
 92
        8
 66
     7
 43
1.0
 76
     1
 77
     6
 78
     2
 67
     7
 79
     5
170
     0
171
     0
290
     0
174
     0
 93
        1
 44
-50.0
173
     0
291
     1
 45
0.0
1001
ACAD
1000
AcDbSavedByObjectVersion
1070
     0
  0
VISUALSTYLE
  5
39
102
{ACAD_REACTORS
330
2A
102
}
330
2A
100
AcDbVisualStyle
  2
Facepattern
 70
    15
 71
     2
 72
     2
 73
     0
 90
        0
 40
-0.6
 41
-30.0
 62
     5
 63
     7
 74
     1
 91
        4
 64
     7
 65
   257
 75
     1
175
     1
 42
1.0
 92
        8
 66
     7
 43
1.0
 76
     1
 77
     6
 78
     2
 67
     7
 79
     5
170
     0
171
     0
290
     0
174
     0
 93
        1
 44
0.0
173
     0
291
     1
 45
0.0
1001
ACAD
1000
AcDbSavedByObjectVersion
1070
     0
  0
VISUALSTYLE
  5
2B
102
{ACAD_REACTORS
330
2A
102
}
330
2A
100
AcDbVisualStyle
  2
Flat
 70
     0
 71
     2
 72
     1
 73
     1
 90
        2
 40
-0.6
 41
30.0
 62
     5
 63
     7
 74
     0
 91
        4
 64
     7
 65
   257
 75
     1
175
     1
 42
1.0
 92
        8
 66
     7
 43
1.0
 76
     1
 77
     6
 78
     2
 67
     7
 79
     5
170
     0
171
     0
290
     0
174
     0
 93
       13
 44
0.0
173
     0
291
     1
 45
0.0
1001
ACAD
1000
AcDbSavedByObjectVersion
1070
     0
  0
VISUALSTYLE
  5
2C
102
{ACAD_REACTORS
330
2A
102
}
330
2A
100
AcDbVisualStyle
  2
FlatWithEdges
 70
     1
 71
     2
 72
     1
 73
     1
 90
        2
 40
-0.6
 41
30.0
 62
     5
 63
     7
 74
     1
 91
        4
 64
     7
 65
   257
 75
     1
175
     1
 42
1.0
 92
        0
 66
   257
 43
1.0
 76
     1
 77
     6
 78
     2
 67
     7
 79
     5
170
     0
171
     0
290
     0
174
     0
 93
       13
 44
0.0
173
     0
291
     1
 45
0.0
1001
ACAD
1000
AcDbSavedByObjectVersion
1070
     0
  0
VISUALSTYLE
  5
2D
102
{ACAD_REACTORS
330
2A
102
}
330
2A
100
AcDbVisualStyle
  2
Gouraud
 70
     2
 71
     2
 72
     2
 73
     1
 90
        2
 40
-0.6
 41
30.0
 62
     5
 63
     7
 74
     0
 91
        4
 64
     7
 65
   257
 75
     1
175
     1
 42
1.0
 92
        0
 66
     7
 43
1.0
 76
     1
 77
     6
 78
     2
 67
     7
 79
     5
170
     0
171
     0
290
     0
174
     0
 93
       13
 44
0.0
173
     0
291
     1
 45
0.0
1001
ACAD
1000
AcDbSavedByObjectVersion
1070
     0
  0
VISUALSTYLE
  5
2E
102
{ACAD_REACTORS
330
2A
102
}
330
2A
100
AcDbVisualStyle
  2
GouraudWithEdges
 70
     3
 71
     2
 72
     2
 73
     1
 90
        2
 40
-0.6
 41
30.0
 62
     5
 63
     7
 74
     1
 91
        4
 64
     7
 65
   257
 75
     1
175
     1
 42
1.0
 92
        0
 66
   257
 43
1.0
 76
     1
 77
     6
 78
     2
 67
     7
 79
     5
170
     0
171
     0
290
     0
174
     0
 93
       13
 44
0.0
173
     0
291
     1
 45
0.0
1001
ACAD
1000
AcDbSavedByObjectVersion
1070
     0
  0
VISUALSTYLE
  5
38
102
{ACAD_REACTORS
330
2A
102
}
330
2A
100
AcDbVisualStyle
  2
Linepattern
 70
    14
 71
     2
 72
     2
 73
     0
 90
        0
 40
-0.6
 41
-30.0
 62
     5
 63
     7
 74
     1
 91
        4
 64
     7
 65
   257
 75
     7
175
     7
 42
1.0
 92
        8
 66
     7
 43
1.0
 76
     1
 77
     6
 78
     2
 67
     7
 79
     5
170
     0
171
     0
290
     0
174
     0
 93
        1
 44
0.0
173
     0
291
     1
 45
0.0
1001
ACAD
1000
AcDbSavedByObjectVersion
1070
     0
  0
VISUALSTYLE
  5
33
102
{ACAD_REACTORS
330
2A
102
}
330
2A
100
AcDbVisualStyle
  2
Realistic
 70
     8
 71
     2
 72
     2
 73
     0
 90
        0
 40
-0.6
 41
-30.0
 62
     5
 63
     7
 74
     1
 91
        0
 64
     7
 65
   257
 75
     1
175
     1
 42
1.0
 92
        8
 66
     8
 43
1.0
 76
     1
 77
     6
 78
     2
 67
     7
 79
     5
170
     0
171
     0
290
     0
174
     0
 93
       13
 44
0.0
173
     0
291
     0
 45
0.0
1001
ACAD
1000
AcDbSavedByObjectVersion
1070
     0
  0
VISUALSTYLE
  5
37
102
{ACAD_REACTORS
330
2A
102
}
330
2A
100
AcDbVisualStyle
  2
Thicken
 70
    13
 71
     2
 72
     2
 73
     0
 90
        0
 40
-0.6
 41
-30.0
 62
     5
 63
     7
 74
     1
 91
        4
 64
     7
 65
   257
 75
     1
175
     1
 42
1.0
 92
       12
 66
     7
 43
1.0
 76
     1
 77
     6
 78
     2
 67
     7
 79
     5
170
     0
171
     0
290
     0
174
     0
 93
        1
 44
0.0
173
     0
291
     1
 45
0.0
1001
ACAD
1000
AcDbSavedByObjectVersion
1070
     0
  0
DICTIONARYVAR
  5
2B1
102
{ACAD_REACTORS
330
2AD
102
}
330
2AD
100
DictionaryVariables
280
     0
  1
80.000000
  0
DICTIONARYVAR
  5
2B0
102
{ACAD_REACTORS
330
2AD
102
}
330
2AD
100
DictionaryVariables
280
     0
  1
5.000000
  0
ENDSEC
  0
EOF
