  0
SECTION
  2
HEADER
  9
$ACADVER
  1
AC1015
  9
$ACADMAINTVER
 70
     6
  9
$DWGCODEPAGE
  3
ANSI_1252
  9
$INSBASE
 10
0.0
 20
0.0
 30
0.0
  9
$EXTMIN
 10
0.0
 20
0.0
 30
0.0
  9
$EXTMAX
 10
450.0
 20
300.0
 30
0.0
  9
$LIMMIN
 10
0.0
 20
0.0
  9
$LIMMAX
 10
450.0
 20
300.0
  9
$ORTHOMODE
 70
     0
  9
$REGENMODE
 70
     1
  9
$FILLMODE
 70
     1
  9
$QTEXTMODE
 70
     0
  9
$MIRRTEXT
 70
     1
  9
$LTSCALE
 40
1.0
  9
$ATTMODE
 70
     1
  9
$TEXTSIZE
 40
2.5
  9
$TRACEWID
 40
1.0
  9
$TEXTSTYLE
  7
Standard
  9
$CLAYER
  8
0
  9
$CELTYPE
  6
ByLayer
  9
$CECOLOR
 62
   256
  9
$CELTSCALE
 40
1.0
  9
$DISPSILH
 70
     0
  9
$DIMSCALE
 40
1.0
  9
$DIMASZ
 40
2.5
  9
$DIMEXO
 40
0.625
  9
$DIMDLI
 40
3.75
  9
$DIMRND
 40
0.0
  9
$DIMDLE
 40
0.0
  9
$DIMEXE
 40
1.25
  9
$DIMTP
 40
0.0
  9
$DIMTM
 40
0.0
  9
$DIMTXT
 40
2.5
  9
$DIMCEN
 40
2.5
  9
$DIMTSZ
 40
0.0
  9
$DIMTOL
 70
     0
  9
$DIMLIM
 70
     0
  9
$DIMTIH
 70
     0
  9
$DIMTOH
 70
     0
  9
$DIMSE1
 70
     0
  9
$DIMSE2
 70
     0
  9
$DIMTAD
 70
     1
  9
$DIMZIN
 70
     8
  9
$DIMBLK
  1

  9
$DIMASO
 70
     1
  9
$DIMSHO
 70
     1
  9
$DIMPOST
  1

  9
$DIMAPOST
  1

  9
$DIMALT
 70
     0
  9
$DIMALTD
 70
     3
  9
$DIMALTF
 40
0.0393700787
  9
$DIMLFAC
 40
1.0
  9
$DIMTOFL
 70
     1
  9
$DIMTVP
 40
0.0
  9
$DIMTIX
 70
     0
  9
$DIMSOXD
 70
     0
  9
$DIMSAH
 70
     0
  9
$DIMBLK1
  1

  9
$DIMBLK2
  1

  9
$DIMSTYLE
  2
ISO-25
  9
$DIMCLRD
 70
     0
  9
$DIMCLRE
 70
     0
  9
$DIMCLRT
 70
     0
  9
$DIMTFAC
 40
1.0
  9
$DIMGAP
 40
0.625
  9
$DIMJUST
 70
     0
  9
$DIMSD1
 70
     0
  9
$DIMSD2
 70
     0
  9
$DIMTOLJ
 70
     0
  9
$DIMTZIN
 70
     8
  9
$DIMALTZ
 70
     0
  9
$DIMALTTZ
 70
     0
  9
$DIMUPT
 70
     0
  9
$DIMDEC
 70
     2
  9
$DIMTDEC
 70
     2
  9
$DIMALTU
 70
     2
  9
$DIMALTTD
 70
     3
  9
$DIMTXSTY
  7
Standard
  9
$DIMAUNIT
 70
     0
  9
$DIMADEC
 70
     0
  9
$DIMALTRND
 40
0.0
  9
$DIMAZIN
 70
     0
  9
$DIMDSEP
 70
    44
  9
$DIMATFIT
 70
     3
  9
$DIMFRAC
 70
     0
  9
$DIMLDRBLK
  1

  9
$DIMLUNIT
 70
     2
  9
$DIMLWD
 70
    -2
  9
$DIMLWE
 70
    -2
  9
$DIMTMOVE
 70
     0
  9
$LUNITS
 70
     2
  9
$LUPREC
 70
     4
  9
$SKETCHINC
 40
1.0
  9
$FILLETRAD
 40
10.0
  9
$AUNITS
 70
     0
  9
$AUPREC
 70
     0
  9
$MENU
  1
.
  9
$ELEVATION
 40
0.0
  9
$PELEVATION
 40
0.0
  9
$THICKNESS
 40
0.0
  9
$LIMCHECK
 70
     0
  9
$CHAMFERA
 40
10.0
  9
$CHAMFERB
 40
10.0
  9
$CHAMFERC
 40
20.0
  9
$CHAMFERD
 40
0.0
  9
$SKPOLY
 70
     0
  9
$TDCREATE
 40
2456220.00171257
  9
$TDUCREATE
 40
2456220.12671257
  9
$TDUPDATE
 40
2456220.001712581
  9
$TDUUPDATE
 40
2456220.126712581
  9
$TDINDWG
 40
0.0000000116
  9
$TDUSRTIMER
 40
0.0000000116
  9
$USRTIMER
 70
     1
  9
$ANGBASE
 50
0.0
  9
$ANGDIR
 70
     0
  9
$PDMODE
 70
     0
  9
$PDSIZE
 40
0.0
  9
$PLINEWID
 40
0.0
  9
$SPLFRAME
 70
     0
  9
$SPLINETYPE
 70
     6
  9
$SPLINESEGS
 70
     8
  9
$HANDSEED
  5
10B
  9
$SURFTAB1
 70
     6
  9
$SURFTAB2
 70
     6
  9
$SURFTYPE
 70
     6
  9
$SURFU
 70
     6
  9
$SURFV
 70
     6
  9
$UCSBASE
  2

  9
$UCSNAME
  2

  9
$UCSORG
 10
0.0
 20
0.0
 30
0.0
  9
$UCSXDIR
 10
1.0
 20
0.0
 30
0.0
  9
$UCSYDIR
 10
0.0
 20
1.0
 30
0.0
  9
$UCSORTHOREF
  2

  9
$UCSORTHOVIEW
 70
     0
  9
$UCSORGTOP
 10
0.0
 20
0.0
 30
0.0
  9
$UCSORGBOTTOM
 10
0.0
 20
0.0
 30
0.0
  9
$UCSORGLEFT
 10
0.0
 20
0.0
 30
0.0
  9
$UCSORGRIGHT
 10
0.0
 20
0.0
 30
0.0
  9
$UCSORGFRONT
 10
0.0
 20
0.0
 30
0.0
  9
$UCSORGBACK
 10
0.0
 20
0.0
 30
0.0
  9
$PUCSBASE
  2

  9
$PUCSNAME
  2

  9
$PUCSORG
 10
0.0
 20
0.0
 30
0.0
  9
$PUCSXDIR
 10
1.0
 20
0.0
 30
0.0
  9
$PUCSYDIR
 10
0.0
 20
1.0
 30
0.0
  9
$PUCSORTHOREF
  2

  9
$PUCSORTHOVIEW
 70
     0
  9
$PUCSORGTOP
 10
0.0
 20
0.0
 30
0.0
  9
$PUCSORGBOTTOM
 10
0.0
 20
0.0
 30
0.0
  9
$PUCSORGLEFT
 10
0.0
 20
0.0
 30
0.0
  9
$PUCSORGRIGHT
 10
0.0
 20
0.0
 30
0.0
  9
$PUCSORGFRONT
 10
0.0
 20
0.0
 30
0.0
  9
$PUCSORGBACK
 10
0.0
 20
0.0
 30
0.0
  9
$USERI1
 70
     0
  9
$USERI2
 70
     0
  9
$USERI3
 70
     0
  9
$USERI4
 70
     0
  9
$USERI5
 70
     0
  9
$USERR1
 40
0.0
  9
$USERR2
 40
0.0
  9
$USERR3
 40
0.0
  9
$USERR4
 40
0.0
  9
$USERR5
 40
0.0
  9
$WORLDVIEW
 70
     1
  9
$SHADEDGE
 70
     3
  9
$SHADEDIF
 70
    70
  9
$TILEMODE
 70
     1
  9
$MAXACTVP
 70
    64
  9
$PINSBASE
 10
0.0
 20
0.0
 30
0.0
  9
$PLIMCHECK
 70
     0
  9
$PEXTMIN
 10
0.0
 20
0.0
 30
0.0
  9
$PEXTMAX
 10
450.0
 20
300.0
 30
0.0
  9
$PLIMMIN
 10
0.0
 20
0.0
  9
$PLIMMAX
 10
450.0
 20
300.0
  9
$UNITMODE
 70
     0
  9
$VISRETAIN
 70
     1
  9
$PLINEGEN
 70
     0
  9
$PSLTSCALE
 70
     1
  9
$TREEDEPTH
 70
  3020
  9
$CMLSTYLE
  2
Standard
  9
$CMLJUST
 70
     0
  9
$CMLSCALE
 40
20.0
  9
$PROXYGRAPHICS
 70
     1
  9
$MEASUREMENT
 70
     1
  9
$CELWEIGHT
370
    -1
  9
$ENDCAPS
280
     0
  9
$JOINSTYLE
280
     0
  9
$LWDISPLAY
290
     0
  9
$INSUNITS
 70
     4
  9
$HYPERLINKBASE
  1

  9
$STYLESHEET
  1

  9
$XEDIT
290
     1
  9
$CEPSNTYPE
380
     0
  9
$PSTYLEMODE
290
     1
  9
$FINGERPRINTGUID
  2
{8F027358-D1F2-4D3F-AF75-4C798CE4232D}
  9
$VERSIONGUID
  2
{FAEB1C32-E019-11D5-929B-00C0DF256EC4}
  9
$EXTNAMES
290
     1
  9
$PSVPSCALE
 40
0.0
  9
$OLESTARTUP
290
     0
  0
ENDSEC
  0
SECTION
  2
CLASSES
  0
CLASS
  1
ACDBDICTIONARYWDFLT
  2
AcDbDictionaryWithDefault
  3
ObjectDBX Classes
 90
        0
280
     0
281
     0
  0
CLASS
  1
VISUALSTYLE
  2
AcDbVisualStyle
  3
ObjectDBX Classes
 90
     4095
280
     0
281
     0
  0
CLASS
  1
SCALE
  2
AcDbScale
  3
ObjectDBX Classes
 90
     1153
280
     0
281
     0
  0
CLASS
  1
DICTIONARYVAR
  2
AcDbDictionaryVar
  3
ObjectDBX Classes
 90
        0
280
     0
281
     0
  0
CLASS
  1
ACDBPLACEHOLDER
  2
AcDbPlaceHolder
  3
ObjectDBX Classes
 90
        0
280
     0
281
     0
  0
CLASS
  1
LAYOUT
  2
AcDbLayout
  3
ObjectDBX Classes
 90
        0
280
     0
281
     0
  0
ENDSEC
  0
SECTION
  2
TABLES
  0
TABLE
  2
VPORT
  5
8
330
0
100
AcDbSymbolTable
 70
     1
  0
VPORT
  5
29
330
8
100
AcDbSymbolTableRecord
100
AcDbViewportTableRecord
  2
*Active
 70
     0
 10
0.0
 20
0.0
 11
1.0
 21
1.0
 12
344.1869158879
 22
148.5
 13
0.0
 23
0.0
 14
10.0
 24
10.0
 15
10.0
 25
10.0
 16
0.0
 26
0.0
 36
1.0
 17
0.0
 27
0.0
 37
0.0
 40
297.0
 41
1.9729729729
 42
50.0
 43
0.0
 44
0.0
 50
0.0
 51
0.0
 71
     0
 72
   100
 73
     1
 74
     3
 75
     0
 76
     0
 77
     0
 78
     0
281
     0
 65
     1
110
0.0
120
0.0
130
0.0
111
1.0
121
0.0
131
0.0
112
0.0
122
1.0
132
0.0
 79
     0
146
0.0
  0
ENDTAB
  0
TABLE
  2
LTYPE
  5
5
330
0
100
AcDbSymbolTable
 70
     2
  0
LTYPE
  5
14
330
5
100
AcDbSymbolTableRecord
100
AcDbLinetypeTableRecord
  2
ByBlock
 70
     0
  3

 72
    65
 73
     0
 40
0.0
  0
LTYPE
  5
15
330
5
100
AcDbSymbolTableRecord
100
AcDbLinetypeTableRecord
  2
ByLayer
 70
     0
  3

 72
    65
 73
     0
 40
0.0
  0
LTYPE
  5
16
330
5
100
AcDbSymbolTableRecord
100
AcDbLinetypeTableRecord
  2
Continuous
 70
     0
  3
Solid line
 72
    65
 73
     0
 40
0.0
  0
LTYPE
  5
41
330
5
100
AcDbSymbolTableRecord
100
AcDbLinetypeTableRecord
  2
HIDDEN2
 70
     0
  3
Hidden (.5x) _ _ _ _ _ _ _ _ _ _ _ _ _ _ _ _ _ 
 72
    65
 73
     2
 40
4.7625
 49
3.175
 74
     4
 75
     0
340
0
 46
0.0
 50
0.0
 44
0.0
 45
0.0
 49
-1.5875
 74
     4
 75
     0
340
0
 46
0.0
 50
0.0
 44
0.0
 45
0.0
  0
ENDTAB
  0
TABLE
  2
LAYER
  5
2
330
0
100
AcDbSymbolTable
 70
     2
  0
LAYER
  5
10
330
2
100
AcDbSymbolTableRecord
100
AcDbLayerTableRecord
  2
0
 70
     0
 62
     7
  6
Continuous
370
    -3
390
F
  0
LAYER
  5
3B
330
2
100
AcDbSymbolTableRecord
100
AcDbLayerTableRecord
  2
Default
 70
     0
 62
     7
  6
Continuous
370
    -3
390
F
  0
ENDTAB
  0
TABLE
  2
STYLE
  5
3
330
0
100
AcDbSymbolTable
 70
     3
  0
STYLE
  5
11
330
3
100
AcDbSymbolTableRecord
100
AcDbTextStyleTableRecord
  2
Standard
 70
     0
 40
0.0
 41
1.0
 50
0.0
 71
     0
 42
2.5
  3
txt
  4

  0
STYLE
  5
75
330
3
100
AcDbSymbolTableRecord
100
AcDbTextStyleTableRecord
  2
SEACAD_seiso_ttf
 70
     0
 40
0.0
 41
1.0
 50
0.0
 71
     0
 42
0.2
  3
seiso.ttf
  4

  0
STYLE
  5
B5
330
3
100
AcDbSymbolTableRecord
100
AcDbTextStyleTableRecord
  2
SEACAD_semeci1_ttf
 70
     0
 40
0.0
 41
1.0
 50
0.0
 71
     0
 42
0.2
  3
semeci1.ttf
  4

  0
ENDTAB
  0
TABLE
  2
VIEW
  5
6
330
0
100
AcDbSymbolTable
 70
     0
  0
ENDTAB
  0
TABLE
  2
UCS
  5
7
330
0
100
AcDbSymbolTable
 70
     0
  0
ENDTAB
  0
TABLE
  2
APPID
  5
9
330
0
100
AcDbSymbolTable
 70
     1
  0
APPID
  5
12
330
9
100
AcDbSymbolTableRecord
100
AcDbRegAppTableRecord
  2
ACAD
 70
     0
  0
ENDTAB
  0
TABLE
  2
DIMSTYLE
  5
A
330
0
100
AcDbSymbolTable
 70
     3
100
AcDbDimStyleTable
  0
DIMSTYLE
105
27
330
A
100
AcDbSymbolTableRecord
100
AcDbDimStyleTableRecord
  2
ISO-25
 70
     0
 41
2.5
 42
0.625
 43
3.75
 44
1.25
 73
     0
 74
     0
 77
     1
 78
     8
140
2.5
141
2.5
143
0.0393700787
147
0.625
171
     3
172
     1
271
     2
272
     2
274
     3
278
    44
283
     0
284
     8
340
11
  0
DIMSTYLE
105
79
330
A
100
AcDbSymbolTableRecord
100
AcDbDimStyleTableRecord
  2
Standard
 70
     0
340
11
  0
DIMSTYLE
105
8B
102
{ACAD_REACTORS
330
8C
330
96
330
A0
330
AA
330
B4
330
BF
330
C9
330
D3
330
DD
330
E7
330
F1
330
FB
102
}
330
A
100
AcDbSymbolTableRecord
100
AcDbDimStyleTableRecord
  2
ISO
 70
     0
 41
3.5
 42
0.0
 44
1.75
 73
     0
 74
     0
 77
     1
 78
     8
140
3.5
141
1.75
147
1.75
172
     1
173
     1
271
     2
272
     2
278
    44
284
     8
340
75
343
86
344
86
  0
ENDTAB
  0
TABLE
  2
BLOCK_RECORD
  5
1
330
0
100
AcDbSymbolTable
 70
    16
  0
BLOCK_RECORD
  5
1F
330
1
100
AcDbSymbolTableRecord
100
AcDbBlockTableRecord
  2
*Model_Space
340
22
  0
BLOCK_RECORD
  5
1B
330
1
100
AcDbSymbolTableRecord
100
AcDbBlockTableRecord
  2
*Paper_Space
340
1E
  0
BLOCK_RECORD
  5
7A
330
1
100
AcDbSymbolTableRecord
100
AcDbBlockTableRecord
  2
_OBLIQUE
340
0
  0
BLOCK_RECORD
  5
7E
330
1
100
AcDbSymbolTableRecord
100
AcDbBlockTableRecord
  2
_DOT
340
0
  0
BLOCK_RECORD
  5
86
330
1
100
AcDbSymbolTableRecord
100
AcDbBlockTableRecord
  2
_SE_FILLED
340
0
  0
BLOCK_RECORD
  5
8D
330
1
100
AcDbSymbolTableRecord
100
AcDbBlockTableRecord
  2
DMBLK1
340
0
  0
BLOCK_RECORD
  5
97
330
1
100
AcDbSymbolTableRecord
100
AcDbBlockTableRecord
  2
DMBLK2
340
0
  0
BLOCK_RECORD
  5
A1
330
1
100
AcDbSymbolTableRecord
100
AcDbBlockTableRecord
  2
DMBLK3
340
0
  0
BLOCK_RECORD
  5
AB
330
1
100
AcDbSymbolTableRecord
100
AcDbBlockTableRecord
  2
DMBLK4
340
0
  0
BLOCK_RECORD
  5
B6
330
1
100
AcDbSymbolTableRecord
100
AcDbBlockTableRecord
  2
DMBLK5
340
0
  0
BLOCK_RECORD
  5
C0
330
1
100
AcDbSymbolTableRecord
100
AcDbBlockTableRecord
  2
DMBLK6
340
0
  0
BLOCK_RECORD
  5
CA
330
1
100
AcDbSymbolTableRecord
100
AcDbBlockTableRecord
  2
DMBLK7
340
0
  0
BLOCK_RECORD
  5
D4
330
1
100
AcDbSymbolTableRecord
100
AcDbBlockTableRecord
  2
DMBLK8
340
0
  0
BLOCK_RECORD
  5
DE
330
1
100
AcDbSymbolTableRecord
100
AcDbBlockTableRecord
  2
DMBLK9
340
0
  0
BLOCK_RECORD
  5
E8
330
1
100
AcDbSymbolTableRecord
100
AcDbBlockTableRecord
  2
DMBLK10
340
0
  0
BLOCK_RECORD
  5
F2
330
1
100
AcDbSymbolTableRecord
100
AcDbBlockTableRecord
  2
DMBLK11
340
0
  0
BLOCK_RECORD
  5
FC
330
1
100
AcDbSymbolTableRecord
100
AcDbBlockTableRecord
  2
DMBLK12
340
0
  0
ENDTAB
  0
ENDSEC
  0
SECTION
  2
BLOCKS
  0
BLOCK
  5
20
330
1F
100
AcDbEntity
  8
0
100
AcDbBlockBegin
  2
*Model_Space
 70
     0
 10
0.0
 20
0.0
 30
0.0
  3
*Model_Space
  1

  0
ENDBLK
  5
21
330
1F
100
AcDbEntity
  8
0
100
AcDbBlockEnd
  0
BLOCK
  5
1C
330
1B
100
AcDbEntity
 67
     1
  8
0
100
AcDbBlockBegin
  2
*Paper_Space
 70
     0
 10
0.0
 20
0.0
 30
0.0
  3
*Paper_Space
  1

  0
ENDBLK
  5
1D
330
1B
100
AcDbEntity
 67
     1
  8
0
100
AcDbBlockEnd
  0
BLOCK
  5
7B
330
7A
100
AcDbEntity
  8
0
100
AcDbBlockBegin
  2
_OBLIQUE
 70
     0
 10
0.0
 20
0.0
 30
0.0
  3
_OBLIQUE
  1

  0
LINE
  5
7D
330
7A
100
AcDbEntity
  8
0
  6
ByBlock
 62
     0
370
    -2
100
AcDbLine
 10
-0.5
 20
-0.5
 30
0.0
 11
0.5
 21
0.5
 31
0.0
  0
ENDBLK
  5
7C
330
7A
100
AcDbEntity
  8
0
100
AcDbBlockEnd
  0
BLOCK
  5
7F
330
7E
100
AcDbEntity
  8
0
100
AcDbBlockBegin
  2
_DOT
 70
     0
 10
0.0
 20
0.0
 30
0.0
  3
_DOT
  1

  0
POLYLINE
  5
81
330
7E
100
AcDbEntity
  8
0
  6
ByBlock
 62
     0
100
AcDb2dPolyline
 66
     1
 10
0.0
 20
0.0
 30
0.0
 70
     1
 40
0.5
 41
0.5
  0
VERTEX
  5
83
330
81
100
AcDbEntity
  8
0
  6
ByBlock
 62
     0
100
AcDbVertex
100
AcDb2dVertex
 10
-0.25
 20
0.0
 30
0.0
 42
1.0
  0
VERTEX
  5
84
330
81
100
AcDbEntity
  8
0
  6
ByBlock
 62
     0
100
AcDbVertex
100
AcDb2dVertex
 10
0.25
 20
0.0
 30
0.0
 42
1.0
  0
SEQEND
  5
85
330
81
100
AcDbEntity
  8
0
  6
ByBlock
 62
     0
  0
LINE
  5
82
330
7E
100
AcDbEntity
  8
0
  6
ByBlock
 62
     0
370
    -2
100
AcDbLine
 10
-0.5
 20
0.0
 30
0.0
 11
-1.0
 21
0.0
 31
0.0
  0
ENDBLK
  5
80
330
7E
100
AcDbEntity
  8
0
100
AcDbBlockEnd
  0
BLOCK
  5
89
330
86
100
AcDbEntity
  8
0
100
AcDbBlockBegin
  2
_SE_FILLED
 70
     0
 10
0.0
 20
0.0
 30
0.0
  3
_SE_FILLED
  1

  0
SOLID
  5
87
330
86
100
AcDbEntity
  8
0
 62
     0
100
AcDbTrace
 10
0.0
 20
0.0
 30
0.0
 11
-1.0
 21
-0.1665
 31
0.0
 12
-1.0
 22
0.1665
 32
0.0
 13
0.0
 23
0.0
 33
0.0
  0
LINE
  5
88
330
86
100
AcDbEntity
  8
0
 62
     0
100
AcDbLine
 10
0.0
 20
0.0
 30
0.0
 11
-1.0
 21
0.0
 31
0.0
  0
ENDBLK
  5
8A
330
86
100
AcDbEntity
  8
0
100
AcDbBlockEnd
  0
BLOCK
  5
94
330
8D
100
AcDbEntity
  8
0
100
AcDbBlockBegin
  2
DMBLK1
 70
     0
 10
0.0
 20
0.0
 30
0.0
  3
DMBLK1
  1

  0
HATCH
  5
8E
330
8D
100
AcDbEntity
  8
Default
  6
Continuous
 62
     7
100
AcDbHatch
 10
0.0
 20
0.0
 30
0.0
210
0.0
220
0.0
230
1.0
  2
SOLID
 70
     1
 71
     0
 91
        1
 92
        1
 93
        3
 72
     1
 10
35.14829489263267
 20
244.2618317679182
 11
38.64829500066609
 21
244.8451651192571
 72
     1
 10
38.64829500066609
 20
244.8451651192571
 11
35.14829489263267
 21
245.428498470596
 72
     1
 10
35.14829489263267
 20
245.428498470596
 11
35.14829489263267
 21
244.2618317679182
 97
        0
 75
     0
 76
     1
 98
        0
  0
HATCH
  5
8F
330
8D
100
AcDbEntity
  8
Default
  6
Continuous
 62
     7
100
AcDbHatch
 10
0.0
 20
0.0
 30
0.0
210
0.0
220
0.0
230
1.0
  2
SOLID
 70
     1
 71
     0
 91
        1
 92
        1
 93
        3
 72
     1
 10
51.14829510869938
 20
244.2618317679182
 11
51.14829510869938
 21
245.428498470596
 72
     1
 10
51.14829510869938
 20
245.428498470596
 11
47.64829500066596
 21
244.8451651192571
 72
     1
 10
47.64829500066596
 20
244.8451651192571
 11
51.14829510869938
 21
244.2618317679182
 97
        0
 75
     0
 76
     1
 98
        0
  0
LINE
  5
90
330
8D
100
AcDbEntity
  8
Default
  6
Continuous
 62
     7
100
AcDbLine
 10
38.6482950007
 20
251.4086088098
 30
0.0
 11
38.6482950007
 21
243.0951650652
 31
0.0
  0
LINE
  5
91
330
8D
100
AcDbEntity
  8
Default
  6
Continuous
 62
     7
100
AcDbLine
 10
47.6482950007
 20
251.4086088098
 30
0.0
 11
47.6482950007
 21
243.0951650652
 31
0.0
  0
LINE
  5
92
330
8D
100
AcDbEntity
  8
Default
  6
Continuous
 62
     7
100
AcDbLine
 10
31.6482947846
 20
244.8451651193
 30
0.0
 11
54.6482957606
 21
244.8451651193
 31
0.0
  0
TEXT
  5
93
330
8D
100
AcDbEntity
  8
Default
  6
Continuous
 62
     7
100
AcDbText
 10
42.0744311706
 20
245.7201651193
 30
0.0
 40
3.5
  1
9
  7
SEACAD_seiso_ttf
 11
42.0744311706
 21
249.2201651193
 31
0.0
100
AcDbText
 73
     3
  0
ENDBLK
  5
95
330
8D
100
AcDbEntity
  8
0
100
AcDbBlockEnd
  0
BLOCK
  5
9E
330
97
100
AcDbEntity
  8
0
100
AcDbBlockBegin
  2
DMBLK2
 70
     0
 10
0.0
 20
0.0
 30
0.0
  3
DMBLK2
  1

  0
HATCH
  5
98
330
97
100
AcDbEntity
  8
Default
  6
Continuous
 62
     7
100
AcDbHatch
 10
0.0
 20
0.0
 30
0.0
210
0.0
220
0.0
230
1.0
  2
SOLID
 70
     1
 71
     0
 91
        1
 92
        1
 93
        3
 72
     1
 10
118.3702898784428
 20
233.9104456176924
 11
117.2036231757649
 21
233.9104456176924
 72
     1
 10
117.2036231757649
 20
233.9104456176924
 11
117.7869565271039
 21
230.410445509659
 72
     1
 10
117.7869565271039
 20
230.410445509659
 11
118.3702898784428
 21
233.9104456176924
 97
        0
 75
     0
 76
     1
 98
        0
  0
HATCH
  5
99
330
97
100
AcDbEntity
  8
Default
  6
Continuous
 62
     7
100
AcDbHatch
 10
0.0
 20
0.0
 30
0.0
210
0.0
220
0.0
230
1.0
  2
SOLID
 70
     1
 71
     0
 91
        1
 92
        1
 93
        3
 72
     1
 10
118.3702898784428
 20
217.9104454016257
 11
117.7869565271039
 21
221.4104455096591
 72
     1
 10
117.7869565271039
 20
221.4104455096591
 11
117.2036231757649
 21
217.9104454016257
 72
     1
 10
117.2036231757649
 20
217.9104454016257
 11
118.3702898784428
 21
217.9104454016257
 97
        0
 75
     0
 76
     1
 98
        0
  0
LINE
  5
9A
330
97
100
AcDbEntity
  8
Default
  6
Continuous
 62
     7
100
AcDbLine
 10
83.1502867349
 20
230.4104455097
 30
0.0
 11
119.5369565811
 21
230.4104455097
 31
0.0
  0
LINE
  5
9B
330
97
100
AcDbEntity
  8
Default
  6
Continuous
 62
     7
100
AcDbLine
 10
71.1502863847
 20
221.4104455097
 30
0.0
 11
119.5369565811
 21
221.4104455097
 31
0.0
  0
LINE
  5
9C
330
97
100
AcDbEntity
  8
Default
  6
Continuous
 62
     7
100
AcDbLine
 10
117.7869565271
 20
237.4104457257
 30
0.0
 11
117.7869565271
 21
214.4104447497
 31
0.0
  0
TEXT
  5
9D
330
97
100
AcDbEntity
  8
Default
  6
Continuous
 62
     7
100
AcDbText
 10
116.9119565271
 20
224.836582067
 30
0.0
 40
3.5
  1
9
 50
90.0
  7
SEACAD_seiso_ttf
 11
113.4119565271
 21
224.836582067
 31
0.0
100
AcDbText
 73
     3
  0
ENDBLK
  5
9F
330
97
100
AcDbEntity
  8
0
100
AcDbBlockEnd
  0
BLOCK
  5
A8
330
A1
100
AcDbEntity
  8
0
100
AcDbBlockBegin
  2
DMBLK3
 70
     0
 10
0.0
 20
0.0
 30
0.0
  3
DMBLK3
  1

  0
HATCH
  5
A2
330
A1
100
AcDbEntity
  8
Default
  6
Continuous
 62
     7
100
AcDbHatch
 10
0.0
 20
0.0
 30
0.0
210
0.0
220
0.0
230
1.0
  2
SOLID
 70
     1
 71
     0
 91
        1
 92
        1
 93
        3
 72
     1
 10
27.89852727189511
 20
265.908608701762
 11
29.06519397457291
 21
265.908608701762
 72
     1
 10
29.06519397457291
 20
265.908608701762
 11
28.48186062323397
 21
269.4086088097954
 72
     1
 10
28.48186062323398
 20
269.4086088097954
 11
27.89852727189511
 21
265.908608701762
 97
        0
 75
     0
 76
     1
 98
        0
  0
HATCH
  5
A3
330
A1
100
AcDbEntity
  8
Default
  6
Continuous
 62
     7
100
AcDbHatch
 10
0.0
 20
0.0
 30
0.0
210
0.0
220
0.0
230
1.0
  2
SOLID
 70
     1
 71
     0
 91
        1
 92
        1
 93
        3
 72
     1
 10
27.89852727189522
 20
254.9086096926892
 11
28.48186062323416
 21
251.4086095846558
 72
     1
 10
28.48186062323416
 20
251.4086095846558
 11
29.06519397457302
 21
254.9086096926892
 72
     1
 10
29.06519397457303
 20
254.9086096926892
 11
27.89852727189522
 21
254.9086096926892
 97
        0
 75
     0
 76
     1
 98
        0
  0
LINE
  5
A4
330
A1
100
AcDbEntity
  8
Default
  6
Continuous
 62
     7
100
AcDbLine
 10
43.1482950007
 20
269.4086088098
 30
0.0
 11
26.7318605692
 21
269.4086088098
 31
0.0
  0
LINE
  5
A5
330
A1
100
AcDbEntity
  8
Default
  6
Continuous
 62
     7
100
AcDbLine
 10
43.1482950007
 20
251.4086088098
 30
0.0
 11
26.7318605692
 21
251.4086088098
 31
0.0
  0
LINE
  5
A6
330
A1
100
AcDbEntity
  8
Default
  6
Continuous
 62
     7
100
AcDbLine
 10
28.4818606232
 20
269.4086088098
 30
0.0
 11
28.4818606232
 21
251.4086095847
 31
0.0
  0
TEXT
  5
A7
330
A1
100
AcDbEntity
  8
Default
  6
Continuous
 62
     7
100
AcDbText
 10
27.6068606232
 20
258.5790637427
 30
0.0
 40
3.5
  1
18
 50
90.0
  7
SEACAD_seiso_ttf
 11
24.1068606232
 21
258.5790637427
 31
0.0
100
AcDbText
 73
     3
  0
ENDBLK
  5
A9
330
A1
100
AcDbEntity
  8
0
100
AcDbBlockEnd
  0
BLOCK
  5
B2
330
AB
100
AcDbEntity
  8
0
100
AcDbBlockBegin
  2
DMBLK4
 70
     0
 10
0.0
 20
0.0
 30
0.0
  3
DMBLK4
  1

  0
HATCH
  5
AC
330
AB
100
AcDbEntity
  8
Default
  6
Continuous
 62
     7
100
AcDbHatch
 10
0.0
 20
0.0
 30
0.0
210
0.0
220
0.0
230
1.0
  2
SOLID
 70
     1
 71
     0
 91
        1
 92
        1
 93
        3
 72
     1
 10
102.1167317344694
 20
256.408608917829
 11
100.9500650317916
 21
256.408608917829
 72
     1
 10
100.9500650317916
 20
256.408608917829
 11
101.5333983831305
 21
252.9086088097956
 72
     1
 10
101.5333983831305
 20
252.9086088097955
 11
102.1167317344694
 21
256.4086089178289
 97
        0
 75
     0
 76
     1
 98
        0
  0
HATCH
  5
AD
330
AB
100
AcDbEntity
  8
Default
  6
Continuous
 62
     7
100
AcDbHatch
 10
0.0
 20
0.0
 30
0.0
210
0.0
220
0.0
230
1.0
  2
SOLID
 70
     1
 71
     0
 91
        1
 92
        1
 93
        3
 72
     1
 10
102.1167317344694
 20
247.9086087017621
 11
101.5333983831305
 21
251.4086088097955
 72
     1
 10
101.5333983831305
 20
251.4086088097955
 11
100.9500650317916
 21
247.9086087017621
 72
     1
 10
100.9500650317916
 20
247.9086087017621
 11
102.1167317344694
 21
247.9086087017621
 97
        0
 75
     0
 76
     1
 98
        0
  0
LINE
  5
AE
330
AB
100
AcDbEntity
  8
Default
  6
Continuous
 62
     7
100
AcDbLine
 10
87.6502863847
 20
252.9086088098
 30
0.0
 11
103.2833984371
 21
252.9086088098
 31
0.0
  0
LINE
  5
AF
330
AB
100
AcDbEntity
  8
Default
  6
Continuous
 62
     7
100
AcDbLine
 10
87.6502863847
 20
251.4086088098
 30
0.0
 11
103.2833984371
 21
251.4086088098
 31
0.0
  0
LINE
  5
B0
330
AB
100
AcDbEntity
  8
Default
  6
Continuous
 62
     7
100
AcDbLine
 10
101.5333983831
 20
259.9086090259
 30
0.0
 11
101.5333983831
 21
244.5953925408
 31
0.0
  0
TEXT
  5
B1
330
AB
100
AcDbEntity
  8
Default
  6
Continuous
 62
     7
100
AcDbText
 10
100.6583983831
 20
245.8203927056
 30
0.0
 40
3.5
  1
1,5
 50
90.0
  7
SEACAD_seiso_ttf
 11
97.1583983831
 21
245.8203927056
 31
0.0
100
AcDbText
 73
     3
  0
ENDBLK
  5
B3
330
AB
100
AcDbEntity
  8
0
100
AcDbBlockEnd
  0
BLOCK
  5
BD
330
B6
100
AcDbEntity
  8
0
100
AcDbBlockBegin
  2
DMBLK5
 70
     0
 10
0.0
 20
0.0
 30
0.0
  3
DMBLK5
  1

  0
LINE
  5
B7
330
B6
100
AcDbEntity
  8
Default
  6
Continuous
 62
     7
100
AcDbLine
 10
37.1118496732
 20
258.853542212
 30
0.0
 11
44.2426213818
 21
266.0063109769
 31
0.0
  0
LINE
  5
B8
330
B6
100
AcDbEntity
  8
Default
  6
Continuous
 62
     7
100
AcDbLine
 10
44.2426213189
 20
266.0063109138
 30
0.0
 11
62.6302353262
 21
284.4506471661
 31
0.0
  0
HATCH
  5
B9
330
B6
100
AcDbEntity
  8
Default
  6
Continuous
 62
     7
100
AcDbHatch
 10
0.0
 20
0.0
 30
0.0
210
0.0
220
0.0
230
1.0
  2
SOLID
 70
     1
 71
     0
 91
        1
 92
        1
 93
        3
 72
     1
 10
39.169795469998
 20
261.7440677096678
 11
39.99602288562291
 21
260.9203812081353
 72
     1
 10
39.99602288562291
 20
260.9203812081353
 11
42.05396868240801
 21
263.8109067057763
 72
     1
 10
42.05396868240802
 20
263.8109067057763
 11
39.169795469998
 21
261.7440677096678
 97
        0
 75
     0
 76
     1
 98
        0
  0
HATCH
  5
BA
330
B6
100
AcDbEntity
  8
Default
  6
Continuous
 62
     7
100
AcDbHatch
 10
0.0
 20
0.0
 30
0.0
210
0.0
220
0.0
230
1.0
  2
SOLID
 70
     1
 71
     0
 91
        1
 92
        1
 93
        3
 72
     1
 10
46.30056711570878
 20
268.8968364114558
 11
44.24262131892367
 21
266.0063109138148
 72
     1
 10
44.24262131892367
 20
266.0063109138148
 11
47.12679453133369
 21
268.0731499099233
 72
     1
 10
47.12679453133369
 20
268.0731499099232
 11
46.30056711570879
 21
268.8968364114558
 97
        0
 75
     0
 76
     1
 98
        0
  0
TEXT
  5
BB
330
B6
100
AcDbEntity
  8
Default
  6
Continuous
 62
     7
100
AcDbText
 10
54.1595804625
 20
277.1932089287
 30
0.0
 40
3.5
  1
O
 50
45.088237051
  7
SEACAD_semeci1_ttf
 11
51.6808982921
 21
279.664268357
 31
0.0
100
AcDbText
 73
     3
  0
TEXT
  5
BC
330
B6
100
AcDbEntity
  8
Default
  6
Continuous
 62
     7
100
AcDbText
 10
58.3938325135
 20
281.4405228311
 30
0.0
 40
3.5
  1
3,1
 50
45.088237051
  7
SEACAD_seiso_ttf
 11
55.9151503431
 21
283.9115822595
 31
0.0
100
AcDbText
 73
     3
  0
ENDBLK
  5
BE
330
B6
100
AcDbEntity
  8
0
100
AcDbBlockEnd
  0
BLOCK
  5
C7
330
C0
100
AcDbEntity
  8
0
100
AcDbBlockBegin
  2
DMBLK6
 70
     0
 10
0.0
 20
0.0
 30
0.0
  3
DMBLK6
  1

  0
LINE
  5
C1
330
C0
100
AcDbEntity
  8
Default
  6
Continuous
 62
     7
100
AcDbLine
 10
88.5146892879
 20
232.568199274
 30
0.0
 11
82.1777922598
 21
224.7034842621
 31
0.0
  0
LINE
  5
C2
330
C0
100
AcDbEntity
  8
Default
  6
Continuous
 62
     7
100
AcDbLine
 10
82.1777923157
 20
224.7034843314
 30
0.0
 11
69.7898573784
 21
209.3288337042
 31
0.0
  0
HATCH
  5
C3
330
C0
100
AcDbEntity
  8
Default
  6
Continuous
 62
     7
100
AcDbHatch
 10
0.0
 20
0.0
 30
0.0
210
0.0
220
0.0
230
1.0
  2
SOLID
 70
     1
 71
     0
 91
        1
 92
        1
 93
        3
 72
     1
 10
86.77296758632262
 20
229.4768105780828
 11
85.86450215530837
 21
230.208795383792
 72
     1
 10
85.86450215530837
 20
230.208795383792
 11
84.12278045368774
 21
227.1174066878947
 72
     1
 10
84.12278045368774
 20
227.1174066878947
 11
86.77296758632262
 21
229.4768105780828
 97
        0
 75
     0
 76
     1
 98
        0
  0
HATCH
  5
C4
330
C0
100
AcDbEntity
  8
Default
  6
Continuous
 62
     7
100
AcDbHatch
 10
0.0
 20
0.0
 30
0.0
210
0.0
220
0.0
230
1.0
  2
SOLID
 70
     1
 71
     0
 91
        1
 92
        1
 93
        3
 72
     1
 10
80.43607061407499
 20
221.6120956355264
 11
82.17779231569563
 21
224.7034843314238
 72
     1
 10
82.17779231569564
 20
224.7034843314238
 11
79.52760518306076
 21
222.3440804412357
 72
     1
 10
79.52760518306074
 20
222.3440804412357
 11
80.43607061407499
 21
221.6120956355264
 97
        0
 75
     0
 76
     1
 98
        0
  0
TEXT
  5
C5
330
C0
100
AcDbEntity
  8
Default
  6
Continuous
 62
     7
100
AcDbText
 10
69.877092201
 20
210.8317107817
 30
0.0
 40
3.5
  1
O
 50
51.1402987411
  7
SEACAD_semeci1_ttf
 11
67.1516959921
 21
213.0276651311
 31
0.0
100
AcDbText
 73
     3
  0
TEXT
  5
C6
330
C0
100
AcDbEntity
  8
Default
  6
Continuous
 62
     7
100
AcDbText
 10
73.6399414878
 20
215.5017783467
 30
0.0
 40
3.5
  1
3,1
 50
51.1402987411
  7
SEACAD_seiso_ttf
 11
70.9145452789
 21
217.697732696
 31
0.0
100
AcDbText
 73
     3
  0
ENDBLK
  5
C8
330
C0
100
AcDbEntity
  8
0
100
AcDbBlockEnd
  0
BLOCK
  5
D1
330
CA
100
AcDbEntity
  8
0
100
AcDbBlockBegin
  2
DMBLK7
 70
     0
 10
0.0
 20
0.0
 30
0.0
  3
DMBLK7
  1

  0
HATCH
  5
CB
330
CA
100
AcDbEntity
  8
Default
  6
Continuous
 62
     7
100
AcDbHatch
 10
0.0
 20
0.0
 30
0.0
210
0.0
220
0.0
230
1.0
  2
SOLID
 70
     1
 71
     0
 91
        1
 92
        1
 93
        3
 72
     1
 10
34.15025915935483
 20
261.4086087017621
 11
35.31692586203263
 21
261.4086087017621
 72
     1
 10
35.31692586203263
 20
261.4086087017621
 11
34.73359251069373
 21
264.9086088097956
 72
     1
 10
34.73359251069373
 20
264.9086088097956
 11
34.15025915935483
 21
261.4086087017621
 97
        0
 75
     0
 76
     1
 98
        0
  0
HATCH
  5
CC
330
CA
100
AcDbEntity
  8
Default
  6
Continuous
 62
     7
100
AcDbHatch
 10
0.0
 20
0.0
 30
0.0
210
0.0
220
0.0
230
1.0
  2
SOLID
 70
     1
 71
     0
 91
        1
 92
        1
 93
        3
 72
     1
 10
34.15025915935483
 20
272.908608917829
 11
34.73359251069373
 21
269.4086088097956
 72
     1
 10
34.73359251069373
 20
269.4086088097956
 11
35.31692586203263
 21
272.908608917829
 72
     1
 10
35.31692586203263
 20
272.908608917829
 11
34.15025915935483
 21
272.908608917829
 97
        0
 75
     0
 76
     1
 98
        0
  0
LINE
  5
CD
330
CA
100
AcDbEntity
  8
Default
  6
Continuous
 62
     7
100
AcDbLine
 10
43.1482950007
 20
264.9086088098
 30
0.0
 11
32.9835924567
 21
264.9086088098
 31
0.0
  0
LINE
  5
CE
330
CA
100
AcDbEntity
  8
Default
  6
Continuous
 62
     7
100
AcDbLine
 10
43.1482950007
 20
269.4086088098
 30
0.0
 11
32.9835924567
 21
269.4086088098
 31
0.0
  0
LINE
  5
CF
330
CA
100
AcDbEntity
  8
Default
  6
Continuous
 62
     7
100
AcDbLine
 10
34.7335925107
 20
257.9086085937
 30
0.0
 11
34.7335925107
 21
276.4086088321
 31
0.0
  0
TEXT
  5
D0
330
CA
100
AcDbEntity
  8
Default
  6
Continuous
 62
     7
100
AcDbText
 10
33.8585925107
 20
264.8120178038
 30
0.0
 40
3.5
  1
4,5
 50
90.0
  7
SEACAD_seiso_ttf
 11
30.3585925107
 21
264.8120178038
 31
0.0
100
AcDbText
 73
     3
  0
ENDBLK
  5
D2
330
CA
100
AcDbEntity
  8
0
100
AcDbBlockEnd
  0
BLOCK
  5
DB
330
D4
100
AcDbEntity
  8
0
100
AcDbBlockBegin
  2
DMBLK8
 70
     0
 10
0.0
 20
0.0
 30
0.0
  3
DMBLK8
  1

  0
HATCH
  5
D5
330
D4
100
AcDbEntity
  8
Default
  6
Continuous
 62
     7
100
AcDbHatch
 10
0.0
 20
0.0
 30
0.0
210
0.0
220
0.0
230
1.0
  2
SOLID
 70
     1
 71
     0
 91
        1
 92
        1
 93
        3
 72
     1
 10
73.15028649272509
 20
275.3813412128007
 11
69.65028638469167
 21
274.7980078614618
 72
     1
 10
69.65028638469167
 20
274.7980078614618
 11
73.15028649272509
 21
274.2146745101229
 72
     1
 10
73.15028649272509
 20
274.2146745101229
 11
73.15028649272509
 21
275.3813412128007
 97
        0
 75
     0
 76
     1
 98
        0
  0
HATCH
  5
D6
330
D4
100
AcDbEntity
  8
Default
  6
Continuous
 62
     7
100
AcDbHatch
 10
0.0
 20
0.0
 30
0.0
210
0.0
220
0.0
230
1.0
  2
SOLID
 70
     1
 71
     0
 91
        1
 92
        1
 93
        3
 72
     1
 10
84.15028550179787
 20
275.3813412128007
 11
84.15028550179787
 21
274.2146745101229
 72
     1
 10
84.15028550179787
 20
274.2146745101229
 11
87.65028560983129
 21
274.7980078614618
 72
     1
 10
87.65028560983129
 20
274.7980078614618
 11
84.15028550179787
 21
275.3813412128007
 97
        0
 75
     0
 76
     1
 98
        0
  0
LINE
  5
D7
330
D4
100
AcDbEntity
  8
Default
  6
Continuous
 62
     7
100
AcDbLine
 10
69.6502863847
 20
269.4086080349
 30
0.0
 11
69.6502863847
 21
276.5480079155
 31
0.0
  0
LINE
  5
D8
330
D4
100
AcDbEntity
  8
Default
  6
Continuous
 62
     7
100
AcDbLine
 10
87.6502863847
 20
252.1586088098
 30
0.0
 11
87.6502863847
 21
276.5480079155
 31
0.0
  0
LINE
  5
D9
330
D4
100
AcDbEntity
  8
Default
  6
Continuous
 62
     7
100
AcDbLine
 10
69.6502863847
 20
274.7980078615
 30
0.0
 11
87.6502856098
 21
274.7980078615
 31
0.0
  0
TEXT
  5
DA
330
D4
100
AcDbEntity
  8
Default
  6
Continuous
 62
     7
100
AcDbText
 10
76.8207405427
 20
275.6730078615
 30
0.0
 40
3.5
  1
18
  7
SEACAD_seiso_ttf
 11
76.8207405427
 21
279.1730078615
 31
0.0
100
AcDbText
 73
     3
  0
ENDBLK
  5
DC
330
D4
100
AcDbEntity
  8
0
100
AcDbBlockEnd
  0
BLOCK
  5
E5
330
DE
100
AcDbEntity
  8
0
100
AcDbBlockBegin
  2
DMBLK9
 70
     0
 10
0.0
 20
0.0
 30
0.0
  3
DMBLK9
  1

  0
HATCH
  5
DF
330
DE
100
AcDbEntity
  8
Default
  6
Continuous
 62
     7
100
AcDbHatch
 10
0.0
 20
0.0
 30
0.0
210
0.0
220
0.0
230
1.0
  2
SOLID
 70
     1
 71
     0
 91
        1
 92
        1
 93
        3
 72
     1
 10
52.85207405050443
 20
252.4086087017621
 11
52.26874069916553
 21
255.9086088097955
 72
     1
 10
52.26874069916553
 20
255.9086088097955
 11
51.68540734782663
 21
252.4086087017621
 72
     1
 10
51.68540734782663
 20
252.4086087017621
 11
52.85207405050443
 21
252.4086087017621
 97
        0
 75
     0
 76
     1
 98
        0
  0
HATCH
  5
E0
330
DE
100
AcDbEntity
  8
Default
  6
Continuous
 62
     7
100
AcDbHatch
 10
0.0
 20
0.0
 30
0.0
210
0.0
220
0.0
230
1.0
  2
SOLID
 70
     1
 71
     0
 91
        1
 92
        1
 93
        3
 72
     1
 10
52.85207405050443
 20
268.408608917829
 11
51.68540734782663
 21
268.408608917829
 72
     1
 10
51.68540734782663
 20
268.408608917829
 11
52.26874069916553
 21
264.9086088097956
 72
     1
 10
52.26874069916553
 20
264.9086088097956
 11
52.85207405050443
 21
268.408608917829
 97
        0
 75
     0
 76
     1
 98
        0
  0
LINE
  5
E1
330
DE
100
AcDbEntity
  8
Default
  6
Continuous
 62
     7
100
AcDbLine
 10
43.1482950007
 20
255.9086088098
 30
0.0
 11
54.0187407532
 21
255.9086088098
 31
0.0
  0
LINE
  5
E2
330
DE
100
AcDbEntity
  8
Default
  6
Continuous
 62
     7
100
AcDbLine
 10
43.1482950007
 20
264.9086088098
 30
0.0
 11
54.0187407532
 21
264.9086088098
 31
0.0
  0
LINE
  5
E3
330
DE
100
AcDbEntity
  8
Default
  6
Continuous
 62
     7
100
AcDbLine
 10
52.2687406992
 20
248.9086085937
 30
0.0
 11
52.2687406992
 21
271.9086095698
 31
0.0
  0
TEXT
  5
E4
330
DE
100
AcDbEntity
  8
Default
  6
Continuous
 62
     7
100
AcDbText
 10
51.3937406992
 20
259.3347449797
 30
0.0
 40
3.5
  1
9
 50
90.0
  7
SEACAD_seiso_ttf
 11
47.8937406992
 21
259.3347449797
 31
0.0
100
AcDbText
 73
     3
  0
ENDBLK
  5
E6
330
DE
100
AcDbEntity
  8
0
100
AcDbBlockEnd
  0
BLOCK
  5
EF
330
E8
100
AcDbEntity
  8
0
100
AcDbBlockBegin
  2
DMBLK10
 70
     0
 10
0.0
 20
0.0
 30
0.0
  3
DMBLK10
  1

  0
HATCH
  5
E9
330
E8
100
AcDbEntity
  8
Default
  6
Continuous
 62
     7
100
AcDbHatch
 10
0.0
 20
0.0
 30
0.0
210
0.0
220
0.0
230
1.0
  2
SOLID
 70
     1
 71
     0
 91
        1
 92
        1
 93
        3
 72
     1
 10
70.65028627665826
 20
234.0156987671375
 11
70.65028627665826
 21
232.8490320644597
 72
     1
 10
70.65028627665826
 20
232.8490320644597
 11
74.15028638469168
 21
233.4323654157986
 72
     1
 10
74.15028638469168
 20
233.4323654157986
 11
70.65028627665826
 21
234.0156987671375
 97
        0
 75
     0
 76
     1
 98
        0
  0
HATCH
  5
EA
330
E8
100
AcDbEntity
  8
Default
  6
Continuous
 62
     7
100
AcDbHatch
 10
0.0
 20
0.0
 30
0.0
210
0.0
220
0.0
230
1.0
  2
SOLID
 70
     1
 71
     0
 91
        1
 92
        1
 93
        3
 72
     1
 10
86.6502864927251
 20
234.0156987671375
 11
83.15028638469168
 21
233.4323654157986
 72
     1
 10
83.15028638469168
 20
233.4323654157986
 11
86.6502864927251
 21
232.8490320644597
 72
     1
 10
86.6502864927251
 20
232.8490320644597
 11
86.6502864927251
 21
234.0156987671375
 97
        0
 75
     0
 76
     1
 98
        0
  0
LINE
  5
EB
330
E8
100
AcDbEntity
  8
Default
  6
Continuous
 62
     7
100
AcDbLine
 10
74.1502863847
 20
225.9104455097
 30
0.0
 11
74.1502863847
 21
235.1823654698
 31
0.0
  0
LINE
  5
EC
330
E8
100
AcDbEntity
  8
Default
  6
Continuous
 62
     7
100
AcDbLine
 10
83.1502863847
 20
225.9104455097
 30
0.0
 11
83.1502863847
 21
235.1823654698
 31
0.0
  0
LINE
  5
ED
330
E8
100
AcDbEntity
  8
Default
  6
Continuous
 62
     7
100
AcDbLine
 10
67.1502861686
 20
233.4323654158
 30
0.0
 11
90.1502871447
 21
233.4323654158
 31
0.0
  0
TEXT
  5
EE
330
E8
100
AcDbEntity
  8
Default
  6
Continuous
 62
     7
100
AcDbText
 10
77.5764225546
 20
234.3073654158
 30
0.0
 40
3.5
  1
9
  7
SEACAD_seiso_ttf
 11
77.5764225546
 21
237.8073654158
 31
0.0
100
AcDbText
 73
     3
  0
ENDBLK
  5
F0
330
E8
100
AcDbEntity
  8
0
100
AcDbBlockEnd
  0
BLOCK
  5
F9
330
F2
100
AcDbEntity
  8
0
100
AcDbBlockBegin
  2
DMBLK11
 70
     0
 10
0.0
 20
0.0
 30
0.0
  3
DMBLK11
  1

  0
HATCH
  5
F3
330
F2
100
AcDbEntity
  8
Default
  6
Continuous
 62
     7
100
AcDbHatch
 10
0.0
 20
0.0
 30
0.0
210
0.0
220
0.0
230
1.0
  2
SOLID
 70
     1
 71
     0
 91
        1
 92
        1
 93
        3
 72
     1
 10
46.64829510869927
 20
281.4207339970386
 11
43.14829500066585
 21
280.8374006456997
 72
     1
 10
43.14829500066585
 20
280.8374006456997
 11
46.64829510869927
 21
280.2540672943608
 72
     1
 10
46.64829510869927
 20
280.2540672943608
 11
46.64829510869927
 21
281.4207339970386
 97
        0
 75
     0
 76
     1
 98
        0
  0
HATCH
  5
F4
330
F2
100
AcDbEntity
  8
Default
  6
Continuous
 62
     7
100
AcDbHatch
 10
0.0
 20
0.0
 30
0.0
210
0.0
220
0.0
230
1.0
  2
SOLID
 70
     1
 71
     0
 91
        1
 92
        1
 93
        3
 72
     1
 10
35.14829489263242
 20
281.4207339970386
 11
35.14829489263242
 21
280.2540672943608
 72
     1
 10
35.14829489263242
 20
280.2540672943608
 11
38.64829500066584
 21
280.8374006456997
 72
     1
 10
38.64829500066584
 20
280.8374006456997
 11
35.14829489263242
 21
281.4207339970386
 97
        0
 75
     0
 76
     1
 98
        0
  0
LINE
  5
F5
330
F2
100
AcDbEntity
  8
Default
  6
Continuous
 62
     7
100
AcDbLine
 10
43.1482950007
 20
264.9086088098
 30
0.0
 11
43.1482950007
 21
282.5874006997
 31
0.0
  0
LINE
  5
F6
330
F2
100
AcDbEntity
  8
Default
  6
Continuous
 62
     7
100
AcDbLine
 10
38.6482950007
 20
264.9086088098
 30
0.0
 11
38.6482950007
 21
282.5874006997
 31
0.0
  0
LINE
  5
F7
330
F2
100
AcDbEntity
  8
Default
  6
Continuous
 62
     7
100
AcDbLine
 10
50.1482952167
 20
280.8374006457
 30
0.0
 11
31.6482949783
 21
280.8374006457
 31
0.0
  0
TEXT
  5
F8
330
F2
100
AcDbEntity
  8
Default
  6
Continuous
 62
     7
100
AcDbText
 10
38.5517041884
 20
281.7124006457
 30
0.0
 40
3.5
  1
4,5
  7
SEACAD_seiso_ttf
 11
38.5517041884
 21
285.2124006457
 31
0.0
100
AcDbText
 73
     3
  0
ENDBLK
  5
FA
330
F2
100
AcDbEntity
  8
0
100
AcDbBlockEnd
  0
BLOCK
  5
103
330
FC
100
AcDbEntity
  8
0
100
AcDbBlockBegin
  2
DMBLK12
 70
     0
 10
0.0
 20
0.0
 30
0.0
  3
DMBLK12
  1

  0
HATCH
  5
FD
330
FC
100
AcDbEntity
  8
Default
  6
Continuous
 62
     7
100
AcDbHatch
 10
0.0
 20
0.0
 30
0.0
210
0.0
220
0.0
230
1.0
  2
SOLID
 70
     1
 71
     0
 91
        1
 92
        1
 93
        3
 72
     1
 10
105.8966290070562
 20
229.4104456176926
 11
104.7299623043784
 21
229.4104456176926
 72
     1
 10
104.7299623043784
 20
229.4104456176926
 11
105.3132956557173
 21
225.9104455096592
 72
     1
 10
105.3132956557173
 20
225.9104455096592
 11
105.8966290070562
 21
229.4104456176926
 97
        0
 75
     0
 76
     1
 98
        0
  0
HATCH
  5
FE
330
FC
100
AcDbEntity
  8
Default
  6
Continuous
 62
     7
100
AcDbHatch
 10
0.0
 20
0.0
 30
0.0
210
0.0
220
0.0
230
1.0
  2
SOLID
 70
     1
 71
     0
 91
        1
 92
        1
 93
        3
 72
     1
 10
105.8966290070562
 20
217.9104454016258
 11
105.3132956557173
 21
221.4104455096592
 72
     1
 10
105.3132956557173
 20
221.4104455096592
 11
104.7299623043784
 21
217.9104454016258
 72
     1
 10
104.7299623043784
 20
217.9104454016258
 11
105.8966290070562
 21
217.9104454016258
 97
        0
 75
     0
 76
     1
 98
        0
  0
LINE
  5
FF
330
FC
100
AcDbEntity
  8
Default
  6
Continuous
 62
     7
100
AcDbLine
 10
83.1502863847
 20
225.9104455097
 30
0.0
 11
107.0632957097
 21
225.9104455097
 31
0.0
  0
LINE
  5
100
330
FC
100
AcDbEntity
  8
Default
  6
Continuous
 62
     7
100
AcDbLine
 10
83.1502863847
 20
221.4104455097
 30
0.0
 11
107.0632957097
 21
221.4104455097
 31
0.0
  0
LINE
  5
101
330
FC
100
AcDbEntity
  8
Default
  6
Continuous
 62
     7
100
AcDbLine
 10
105.3132956557
 20
232.9104457257
 30
0.0
 11
105.3132956557
 21
214.4104454873
 31
0.0
  0
TEXT
  5
102
330
FC
100
AcDbEntity
  8
Default
  6
Continuous
 62
     7
100
AcDbText
 10
104.4382956557
 20
221.3138546974
 30
0.0
 40
3.5
  1
4,5
 50
90.0
  7
SEACAD_seiso_ttf
 11
100.9382956557
 21
221.3138546974
 31
0.0
100
AcDbText
 73
     3
  0
ENDBLK
  5
104
330
FC
100
AcDbEntity
  8
0
100
AcDbBlockEnd
  0
ENDSEC
  0
SECTION
  2
ENTITIES
  0
LINE
  5
3C
330
1F
100
AcDbEntity
  8
Default
  6
Continuous
 62
     7
100
AcDbLine
 10
83.1502863847
 20
221.4104455097
 30
0.0
 11
69.6502863847
 21
221.4104455097
 31
0.0
  0
LINE
  5
3D
330
1F
100
AcDbEntity
  8
Default
  6
Continuous
 62
     7
100
AcDbLine
 10
69.6502863847
 20
221.4104455097
 30
0.0
 11
69.6502863847
 21
230.4104455097
 31
0.0
  0
LINE
  5
3E
330
1F
100
AcDbEntity
  8
Default
  6
Continuous
 62
     7
100
AcDbLine
 10
69.6502863847
 20
230.4104455097
 30
0.0
 11
83.1502863847
 21
230.4104455097
 31
0.0
  0
ARC
  5
3F
330
1F
100
AcDbEntity
  8
Default
  6
Continuous
 62
     7
100
AcDbCircle
 10
83.1502863847
 20
225.9104455097
 30
0.0
 40
4.500000000000002
100
AcDbArc
 50
270.0
 51
90.0
  0
CIRCLE
  5
40
330
1F
100
AcDbEntity
  8
Default
  6
Continuous
 62
     7
100
AcDbCircle
 10
83.1502863847
 20
225.9104455097
 30
0.0
 40
1.55
  0
LINE
  5
42
330
1F
100
AcDbEntity
  8
Default
  6
HIDDEN2
 62
     7
100
AcDbLine
 10
71.1502863847
 20
221.4104455097
 30
0.0
 11
71.1502863847
 21
230.4104455097
 31
0.0
  0
LINE
  5
43
330
1F
100
AcDbEntity
  8
Default
  6
Continuous
 62
     7
100
AcDbLine
 10
87.6502863847
 20
251.4086088098
 30
0.0
 11
69.6502863847
 21
251.4086088098
 31
0.0
  0
LINE
  5
44
330
1F
100
AcDbEntity
  8
Default
  6
Continuous
 62
     7
100
AcDbLine
 10
69.6502863847
 20
251.4086088098
 30
0.0
 11
69.6502863847
 21
269.4086088098
 31
0.0
  0
LINE
  5
45
330
1F
100
AcDbEntity
  8
Default
  6
Continuous
 62
     7
100
AcDbLine
 10
87.6502863847
 20
252.9086088098
 30
0.0
 11
71.1502863847
 21
252.9086088098
 31
0.0
  0
LINE
  5
46
330
1F
100
AcDbEntity
  8
Default
  6
Continuous
 62
     7
100
AcDbLine
 10
71.1502863847
 20
252.9086088098
 30
0.0
 11
71.1502863847
 21
269.4086088098
 31
0.0
  0
LINE
  5
47
330
1F
100
AcDbEntity
  8
Default
  6
Continuous
 62
     7
100
AcDbLine
 10
69.6502863847
 20
269.4086088098
 30
0.0
 11
71.1502863847
 21
269.4086088098
 31
0.0
  0
LINE
  5
48
330
1F
100
AcDbEntity
  8
Default
  6
Continuous
 62
     7
100
AcDbLine
 10
87.6502863847
 20
252.9086088098
 30
0.0
 11
87.6502863847
 21
251.4086088098
 31
0.0
  0
LINE
  5
49
330
1F
100
AcDbEntity
  8
Default
  6
Continuous
 62
     7
100
AcDbLine
 10
47.6482950007
 20
264.9086088098
 30
0.0
 11
47.6482950007
 21
251.4086088098
 31
0.0
  0
LINE
  5
4A
330
1F
100
AcDbEntity
  8
Default
  6
Continuous
 62
     7
100
AcDbLine
 10
47.6482950007
 20
251.4086088098
 30
0.0
 11
38.6482950007
 21
251.4086088098
 31
0.0
  0
LINE
  5
4B
330
1F
100
AcDbEntity
  8
Default
  6
Continuous
 62
     7
100
AcDbLine
 10
38.6482950007
 20
251.4086088098
 30
0.0
 11
38.6482950007
 21
264.9086088098
 31
0.0
  0
ARC
  5
4C
330
1F
100
AcDbEntity
  8
Default
  6
Continuous
 62
     7
100
AcDbCircle
 10
43.1482950007
 20
264.9086088098
 30
0.0
 40
4.500000000000002
100
AcDbArc
 50
0.0
 51
180.0
  0
CIRCLE
  5
4D
330
1F
100
AcDbEntity
  8
Default
  6
Continuous
 62
     7
100
AcDbCircle
 10
43.1482950007
 20
264.9086088098
 30
0.0
 40
1.55
  0
LINE
  5
4E
330
1F
100
AcDbEntity
  8
Default
  6
HIDDEN2
 62
     7
100
AcDbLine
 10
47.6482950007
 20
252.9086088098
 30
0.0
 11
38.6482950007
 21
252.9086088098
 31
0.0
  0
LINE
  5
4F
330
1F
100
AcDbEntity
  8
Default
  6
HIDDEN2
 62
     7
100
AcDbLine
 10
47.6482950007
 20
251.4086088098
 30
0.0
 11
69.6482950007
 21
251.4086088098
 31
0.0
  0
LINE
  5
50
330
1F
100
AcDbEntity
  8
Default
  6
HIDDEN2
 62
     7
100
AcDbLine
 10
47.6482950007
 20
252.9086088098
 30
0.0
 11
69.6482950007
 21
252.9086088098
 31
0.0
  0
LINE
  5
51
330
1F
100
AcDbEntity
  8
Default
  6
HIDDEN2
 62
     7
100
AcDbLine
 10
69.6502863847
 20
230.4104455097
 30
0.0
 11
69.6502863847
 21
251.4104455097
 31
0.0
  0
LINE
  5
52
330
1F
100
AcDbEntity
  8
Default
  6
HIDDEN2
 62
     7
100
AcDbLine
 10
71.1701953137
 20
230.4104455097
 30
0.0
 11
71.1701953137
 21
251.4104455097
 31
0.0
  0
TEXT
  5
76
330
1F
100
AcDbEntity
  8
Default
  6
Continuous
 62
     7
100
AcDbText
 10
78.6178845153
 20
268.845577001
 30
0.0
 40
3.5
  1
[mm]
  7
SEACAD_seiso_ttf
 11
78.6178845153
 21
272.345577001
 31
0.0
100
AcDbText
 73
     3
  0
CIRCLE
  5
77
330
1F
100
AcDbEntity
  8
Default
  6
Continuous
 62
     7
100
AcDbCircle
 10
43.1482950007
 20
255.9086088098
 30
0.0
 40
1.55
  0
CIRCLE
  5
78
330
1F
100
AcDbEntity
  8
Default
  6
Continuous
 62
     7
100
AcDbCircle
 10
74.1502863847
 20
225.9104455097
 30
0.0
 40
1.55
  0
DIMENSION
  5
8C
330
1F
100
AcDbEntity
  8
Default
  6
Continuous
 62
     7
100
AcDbDimension
  2
DMBLK1
 10
38.6482950007
 20
244.8451651193
 30
0.0
 11
43.148294807
 21
244.8451651193
 31
0.0
 70
   161
  1
\A1;<>
 71
     5
 42
-1.0
  3
ISO
100
AcDbAlignedDimension
 13
38.6482950007
 23
251.4086088098
 33
0.0
 14
47.6482950007
 24
251.4086088098
 34
0.0
  0
DIMENSION
  5
96
330
1F
100
AcDbEntity
  8
Default
  6
Continuous
 62
     7
100
AcDbDimension
  2
DMBLK2
 10
117.7869565271
 20
221.4104455097
 30
0.0
 11
117.7869565271
 21
225.9104457034
 31
0.0
 70
   160
  1
\A1;<>
 71
     5
 42
-1.0
  3
ISO
100
AcDbAlignedDimension
 13
69.6502863847
 23
230.4104455097
 33
0.0
 14
71.1502863847
 24
221.4104455097
 34
0.0
 50
90.0
100
AcDbRotatedDimension
  0
DIMENSION
  5
A0
330
1F
100
AcDbEntity
  8
Default
  6
Continuous
 62
     7
100
AcDbDimension
  2
DMBLK3
 10
28.4818606232
 20
269.4086088098
 30
0.0
 11
28.4818606232
 21
260.4086091972
 31
0.0
 70
   161
  1
\A1;<>
 71
     5
 42
-1.0
  3
ISO
100
AcDbAlignedDimension
 13
43.1482950007
 23
269.4086088098
 33
0.0
 14
43.1482950007
 24
251.4086088098
 34
0.0
  0
DIMENSION
  5
AA
330
1F
100
AcDbEntity
  8
Default
  6
Continuous
 62
     7
100
AcDbDimension
  2
DMBLK4
 10
101.5333983831
 20
252.9086088098
 30
0.0
 11
101.5333983831
 21
251.1022108875
 31
0.0
 70
   161
  1
\A1;<>
 71
     5
 42
-1.0
  3
ISO
100
AcDbAlignedDimension
 13
87.6502863847
 23
252.9086088098
 33
0.0
 14
87.6502863847
 24
251.4086088098
 34
0.0
  0
DIMENSION
  5
B4
330
1F
100
AcDbEntity
  8
Default
  6
Continuous
 62
     7
100
AcDbDimension
  2
DMBLK5
 10
42.0539686824
 20
263.8109067058
 30
0.0
 11
53.9143802052
 21
275.707905312
 31
0.0
 70
   163
  1
\A1;<>
 71
     5
 42
-1.0
  3
ISO
100
AcDbDiametricDimension
 15
44.2426213189
 25
266.0063109138
 35
0.0
 40
0.0
1001
ACAD
1000
DSTYLE
1002
{
1070
   279
1070
     1
1070
     0
1002
}
  0
DIMENSION
  5
BF
330
1F
100
AcDbEntity
  8
Default
  6
Continuous
 62
     7
100
AcDbDimension
  2
DMBLK6
 10
84.1227804537
 20
227.1174066879
 30
0.0
 11
77.5353691787
 21
218.9417787561
 31
0.0
 70
   163
  1
\A1;<>
 71
     5
 42
-1.0
  3
ISO
100
AcDbDiametricDimension
 15
82.1777923157
 25
224.7034843314
 35
0.0
 40
0.0
1001
ACAD
1000
DSTYLE
1002
{
1070
   279
1070
     1
1070
     0
1002
}
  0
DIMENSION
  5
C9
330
1F
100
AcDbEntity
  8
Default
  6
Continuous
 62
     7
100
AcDbDimension
  2
DMBLK7
 10
34.7335925107
 20
264.9086088098
 30
0.0
 11
34.7335925107
 21
267.1586087129
 31
0.0
 70
   161
  1
\A1;<>
 71
     5
 42
-1.0
  3
ISO
100
AcDbAlignedDimension
 13
43.1482950007
 23
264.9086088098
 33
0.0
 14
43.1482950007
 24
269.4086088098
 34
0.0
  0
DIMENSION
  5
D3
330
1F
100
AcDbEntity
  8
Default
  6
Continuous
 62
     7
100
AcDbDimension
  2
DMBLK8
 10
87.6502863847
 20
274.7980078615
 30
0.0
 11
78.6502859973
 21
274.7980078615
 31
0.0
 70
   160
  1
\A1;<>
 71
     5
 42
-1.0
  3
ISO
100
AcDbAlignedDimension
 13
69.6502863847
 23
251.4086088098
 33
0.0
 14
87.6502863847
 24
252.1586088098
 34
0.0
100
AcDbRotatedDimension
  0
DIMENSION
  5
DD
330
1F
100
AcDbEntity
  8
Default
  6
Continuous
 62
     7
100
AcDbDimension
  2
DMBLK9
 10
52.2687406992
 20
255.9086088098
 30
0.0
 11
52.2687406992
 21
260.4086086161
 31
0.0
 70
   161
  1
\A1;<>
 71
     5
 42
-1.0
  3
ISO
100
AcDbAlignedDimension
 13
43.1482950007
 23
255.9086088098
 33
0.0
 14
43.1482950007
 24
264.9086088098
 34
0.0
  0
DIMENSION
  5
E7
330
1F
100
AcDbEntity
  8
Default
  6
Continuous
 62
     7
100
AcDbDimension
  2
DMBLK10
 10
74.1502863847
 20
233.4323654158
 30
0.0
 11
78.650286191
 21
233.4323654158
 31
0.0
 70
   161
  1
\A1;<>
 71
     5
 42
-1.0
  3
ISO
100
AcDbAlignedDimension
 13
74.1502863847
 23
225.9104455097
 33
0.0
 14
83.1502863847
 24
225.9104455097
 34
0.0
  0
DIMENSION
  5
F1
330
1F
100
AcDbEntity
  8
Default
  6
Continuous
 62
     7
100
AcDbDimension
  2
DMBLK11
 10
38.6482950007
 20
280.8374006457
 30
0.0
 11
40.8982950975
 21
280.8374006457
 31
0.0
 70
   160
  1
\A1;<>
 71
     5
 42
-1.0
  3
ISO
100
AcDbAlignedDimension
 13
43.1482950007
 23
264.9086088098
 33
0.0
 14
38.6482950007
 24
264.9086088098
 34
0.0
100
AcDbRotatedDimension
  0
DIMENSION
  5
FB
330
1F
100
AcDbEntity
  8
Default
  6
Continuous
 62
     7
100
AcDbDimension
  2
DMBLK12
 10
105.3132956557
 20
225.9104455097
 30
0.0
 11
105.3132956557
 21
223.6604456065
 31
0.0
 70
   161
  1
\A1;<>
 71
     5
 42
-1.0
  3
ISO
100
AcDbAlignedDimension
 13
83.1502863847
 23
225.9104455097
 33
0.0
 14
83.1502863847
 24
221.4104455097
 34
0.0
  0
ENDSEC
  0
SECTION
  2
OBJECTS
  0
DICTIONARY
  5
C
330
0
100
AcDbDictionary
281
     1
  3
ACAD_GROUP
350
D
  3
ACAD_LAYOUT
350
1A
  3
ACAD_MLEADERSTYLE
350
107
  3
ACAD_MLINESTYLE
350
17
  3
ACAD_PLOTSETTINGS
350
19
  3
ACAD_PLOTSTYLENAME
350
E
  3
ACAD_SCALELIST
350
53
  3
ACAD_VISUALSTYLE
350
2A
  3
AcDbVariableDictionary
350
105
  0
DICTIONARY
  5
D
102
{ACAD_REACTORS
330
C
102
}
330
C
100
AcDbDictionary
281
     1
  0
DICTIONARY
  5
1A
102
{ACAD_REACTORS
330
C
102
}
330
C
100
AcDbDictionary
281
     1
  3
Layout1
350
1E
  3
Model
350
22
  0
DICTIONARY
  5
107
102
{ACAD_REACTORS
330
C
102
}
330
C
100
AcDbDictionary
281
     1
  0
DICTIONARY
  5
17
102
{ACAD_REACTORS
330
C
102
}
330
C
100
AcDbDictionary
281
     1
  3
Standard
350
18
  0
DICTIONARY
  5
19
102
{ACAD_REACTORS
330
C
102
}
330
C
100
AcDbDictionary
281
     1
  0
ACDBDICTIONARYWDFLT
  5
E
102
{ACAD_REACTORS
330
C
102
}
330
C
100
AcDbDictionary
281
     1
  3
Normal
350
F
100
AcDbDictionaryWithDefault
340
F
  0
DICTIONARY
  5
53
102
{ACAD_REACTORS
330
C
102
}
330
C
100
AcDbDictionary
281
     1
  3
A0
350
54
  3
A1
350
55
  3
A2
350
56
  3
A3
350
57
  3
A4
350
58
  3
A5
350
59
  3
A6
350
5A
  3
A7
350
5B
  3
A8
350
5C
  3
A9
350
5D
  3
B0
350
5E
  3
B1
350
5F
  3
B2
350
60
  3
B3
350
61
  3
B4
350
62
  3
B5
350
63
  3
B6
350
64
  3
B7
350
65
  3
B8
350
66
  3
B9
350
67
  3
C0
350
68
  3
C1
350
69
  3
C2
350
6A
  3
C3
350
6B
  3
C4
350
6C
  3
C5
350
6D
  3
C6
350
6E
  3
C7
350
6F
  3
C8
350
70
  3
C9
350
71
  3
D0
350
72
  3
D1
350
73
  3
D2
350
74
  0
DICTIONARY
  5
2A
102
{ACAD_REACTORS
330
C
102
}
330
C
100
AcDbDictionary
281
     1
  3
2dWireframe
350
2F
  3
3D Hidden
350
31
  3
3dWireframe
350
30
  3
Basic
350
32
  3
Brighten
350
36
  3
ColorChange
350
3A
  3
Conceptual
350
34
  3
Dim
350
35
  3
Facepattern
350
39
  3
Flat
350
2B
  3
FlatWithEdges
350
2C
  3
Gouraud
350
2D
  3
GouraudWithEdges
350
2E
  3
Linepattern
350
38
  3
Realistic
350
33
  3
Thicken
350
37
  0
DICTIONARY
  5
105
102
{ACAD_REACTORS
330
C
102
}
330
C
100
AcDbDictionary
281
     1
  3
CANNOSCALE
350
10A
  3
PSOLHEIGHT
350
109
  3
PSOLWIDTH
350
108
  0
LAYOUT
  5
1E
102
{ACAD_REACTORS
330
1A
102
}
330
1A
100
AcDbPlotSettings
  1

  2
none_device
  4

  6

 40
0.0
 41
0.0
 42
0.0
 43
0.0
 44
0.0
 45
0.0
 46
0.0
 47
0.0
 48
0.0
 49
0.0
140
0.0
141
0.0
142
1.0
143
1.0
 70
   688
 72
     0
 73
     0
 74
     5
  7

 75
    16
147
1.0
148
0.0
149
0.0
100
AcDbLayout
  1
Layout1
 70
     1
 71
     1
 10
0.0
 20
0.0
 11
450.0
 21
300.0
 12
0.0
 22
0.0
 32
0.0
 14
0.0
 24
0.0
 34
0.0
 15
450.0
 25
300.0
 35
0.0
146
0.0
 13
0.0
 23
0.0
 33
0.0
 16
1.0
 26
0.0
 36
0.0
 17
0.0
 27
1.0
 37
0.0
 76
     0
330
1B
  0
LAYOUT
  5
22
102
{ACAD_REACTORS
330
1A
102
}
330
1A
100
AcDbPlotSettings
  1

  2
none_device
  4

  6

 40
0.0
 41
0.0
 42
0.0
 43
0.0
 44
0.0
 45
0.0
 46
0.0
 47
0.0
 48
0.0
 49
0.0
140
0.0
141
0.0
142
1.0
143
1.0
 70
  1712
 72
     0
 73
     0
 74
     0
  7

 75
     0
147
1.0
148
0.0
149
0.0
100
AcDbLayout
  1
Model
 70
     1
 71
     0
 10
0.0
 20
0.0
 11
450.0
 21
300.0
 12
0.0
 22
0.0
 32
0.0
 14
0.0
 24
0.0
 34
0.0
 15
450.0
 25
300.0
 35
0.0
146
0.0
 13
0.0
 23
0.0
 33
0.0
 16
1.0
 26
0.0
 36
0.0
 17
0.0
 27
1.0
 37
0.0
 76
     0
330
1F
331
29
  0
MLINESTYLE
  5
18
102
{ACAD_REACTORS
330
17
102
}
330
17
100
AcDbMlineStyle
  2
Standard
 70
     0
  3

 62
   256
 51
90.0
 52
90.0
 71
     2
 49
0.5
 62
   256
  6
BYLAYER
 49
-0.5
 62
   256
  6
BYLAYER
  0
ACDBPLACEHOLDER
  5
F
102
{ACAD_REACTORS
330
E
102
}
330
E
  0
SCALE
  5
54
102
{ACAD_REACTORS
330
53
102
}
330
53
100
AcDbScale
 70
     0
300
1:1
140
1.0
141
1.0
290
     1
  0
SCALE
  5
55
102
{ACAD_REACTORS
330
53
102
}
330
53
100
AcDbScale
 70
     0
300
1:2
140
1.0
141
2.0
290
     0
  0
SCALE
  5
56
102
{ACAD_REACTORS
330
53
102
}
330
53
100
AcDbScale
 70
     0
300
1:4
140
1.0
141
4.0
290
     0
  0
SCALE
  5
57
102
{ACAD_REACTORS
330
53
102
}
330
53
100
AcDbScale
 70
     0
300
1:5
140
1.0
141
5.0
290
     0
  0
SCALE
  5
58
102
{ACAD_REACTORS
330
53
102
}
330
53
100
AcDbScale
 70
     0
300
1:8
140
1.0
141
8.0
290
     0
  0
SCALE
  5
59
102
{ACAD_REACTORS
330
53
102
}
330
53
100
AcDbScale
 70
     0
300
1:10
140
1.0
141
10.0
290
     0
  0
SCALE
  5
5A
102
{ACAD_REACTORS
330
53
102
}
330
53
100
AcDbScale
 70
     0
300
1:16
140
1.0
141
16.0
290
     0
  0
SCALE
  5
5B
102
{ACAD_REACTORS
330
53
102
}
330
53
100
AcDbScale
 70
     0
300
1:20
140
1.0
141
20.0
290
     0
  0
SCALE
  5
5C
102
{ACAD_REACTORS
330
53
102
}
330
53
100
AcDbScale
 70
     0
300
1:30
140
1.0
141
30.0
290
     0
  0
SCALE
  5
5D
102
{ACAD_REACTORS
330
53
102
}
330
53
100
AcDbScale
 70
     0
300
1:40
140
1.0
141
40.0
290
     0
  0
SCALE
  5
5E
102
{ACAD_REACTORS
330
53
102
}
330
53
100
AcDbScale
 70
     0
300
1:50
140
1.0
141
50.0
290
     0
  0
SCALE
  5
5F
102
{ACAD_REACTORS
330
53
102
}
330
53
100
AcDbScale
 70
     0
300
1:100
140
1.0
141
100.0
290
     0
  0
SCALE
  5
60
102
{ACAD_REACTORS
330
53
102
}
330
53
100
AcDbScale
 70
     0
300
2:1
140
2.0
141
1.0
290
     0
  0
SCALE
  5
61
102
{ACAD_REACTORS
330
53
102
}
330
53
100
AcDbScale
 70
     0
300
4:1
140
4.0
141
1.0
290
     0
  0
SCALE
  5
62
102
{ACAD_REACTORS
330
53
102
}
330
53
100
AcDbScale
 70
     0
300
8:1
140
8.0
141
1.0
290
     0
  0
SCALE
  5
63
102
{ACAD_REACTORS
330
53
102
}
330
53
100
AcDbScale
 70
     0
300
10:1
140
10.0
141
1.0
290
     0
  0
SCALE
  5
64
102
{ACAD_REACTORS
330
53
102
}
330
53
100
AcDbScale
 70
     0
300
100:1
140
100.0
141
1.0
290
     0
  0
SCALE
  5
65
102
{ACAD_REACTORS
330
53
102
}
330
53
100
AcDbScale
 70
     0
300
1/128" = 1'-0"
140
0.0078125
141
12.0
290
     0
  0
SCALE
  5
66
102
{ACAD_REACTORS
330
53
102
}
330
53
100
AcDbScale
 70
     0
300
1/64" = 1'-0"
140
0.015625
141
12.0
290
     0
  0
SCALE
  5
67
102
{ACAD_REACTORS
330
53
102
}
330
53
100
AcDbScale
 70
     0
300
1/32" = 1'-0"
140
0.03125
141
12.0
290
     0
  0
SCALE
  5
68
102
{ACAD_REACTORS
330
53
102
}
330
53
100
AcDbScale
 70
     0
300
1/16" = 1'-0"
140
0.0625
141
12.0
290
     0
  0
SCALE
  5
69
102
{ACAD_REACTORS
330
53
102
}
330
53
100
AcDbScale
 70
     0
300
3/32" = 1'-0"
140
0.09375
141
12.0
290
     0
  0
SCALE
  5
6A
102
{ACAD_REACTORS
330
53
102
}
330
53
100
AcDbScale
 70
     0
300
1/8" = 1'-0"
140
0.125
141
12.0
290
     0
  0
SCALE
  5
6B
102
{ACAD_REACTORS
330
53
102
}
330
53
100
AcDbScale
 70
     0
300
3/16" = 1'-0"
140
0.1875
141
12.0
290
     0
  0
SCALE
  5
6C
102
{ACAD_REACTORS
330
53
102
}
330
53
100
AcDbScale
 70
     0
300
1/4" = 1'-0"
140
0.25
141
12.0
290
     0
  0
SCALE
  5
6D
102
{ACAD_REACTORS
330
53
102
}
330
53
100
AcDbScale
 70
     0
300
3/8" = 1'-0"
140
0.375
141
12.0
290
     0
  0
SCALE
  5
6E
102
{ACAD_REACTORS
330
53
102
}
330
53
100
AcDbScale
 70
     0
300
1/2" = 1'-0"
140
0.5
141
12.0
290
     0
  0
SCALE
  5
6F
102
{ACAD_REACTORS
330
53
102
}
330
53
100
AcDbScale
 70
     0
300
3/4" = 1'-0"
140
0.75
141
12.0
290
     0
  0
SCALE
  5
70
102
{ACAD_REACTORS
330
53
102
}
330
53
100
AcDbScale
 70
     0
300
1" = 1'-0"
140
1.0
141
12.0
290
     0
  0
SCALE
  5
71
102
{ACAD_REACTORS
330
53
102
}
330
53
100
AcDbScale
 70
     0
300
1-1/2" = 1'-0"
140
1.5
141
12.0
290
     0
  0
SCALE
  5
72
102
{ACAD_REACTORS
330
53
102
}
330
53
100
AcDbScale
 70
     0
300
3" = 1'-0"
140
3.0
141
12.0
290
     0
  0
SCALE
  5
73
102
{ACAD_REACTORS
330
53
102
}
330
53
100
AcDbScale
 70
     0
300
6" = 1'-0"
140
6.0
141
12.0
290
     0
  0
SCALE
  5
74
102
{ACAD_REACTORS
330
53
102
}
330
53
100
AcDbScale
 70
     0
300
1'-0" = 1'-0"
140
12.0
141
12.0
290
     0
  0
VISUALSTYLE
  5
2F
102
{ACAD_REACTORS
330
2A
102
}
330
2A
100
AcDbVisualStyle
  2
2dWireframe
 70
     4
 71
     0
 72
     2
 73
     0
 90
        0
 40
-0.6
 41
-30.0
 62
     5
 63
     7
 74
     1
 91
        4
 64
     7
 65
   257
 75
     1
175
     1
 42
1.0
 92
        0
 66
   257
 43
1.0
 76
     1
 77
     6
 78
     2
 67
     7
 79
     5
170
     0
171
     0
290
     0
174
     0
 93
        1
 44
0.0
173
     0
291
     0
 45
0.0
1001
ACAD
1000
AcDbSavedByObjectVersion
1070
     0
  0
VISUALSTYLE
  5
31
102
{ACAD_REACTORS
330
2A
102
}
330
2A
100
AcDbVisualStyle
  2
3D Hidden
 70
     6
 71
     1
 72
     2
 73
     2
 90
        0
 40
-0.6
 41
-30.0
 62
     5
 63
     7
 74
     2
 91
        2
 64
     7
 65
   257
 75
     2
175
     1
 42
40.0
 92
        0
 66
   257
 43
1.0
 76
     1
 77
     6
 78
     2
 67
     7
 79
     3
170
     0
171
     0
290
     0
174
     0
 93
        1
 44
0.0
173
     0
291
     0
 45
0.0
1001
ACAD
1000
AcDbSavedByObjectVersion
1070
     0
  0
VISUALSTYLE
  5
30
102
{ACAD_REACTORS
330
2A
102
}
330
2A
100
AcDbVisualStyle
  2
3dWireframe
 70
     5
 71
     0
 72
     2
 73
     0
 90
        0
 40
-0.6
 41
-30.0
 62
     5
 63
     7
 74
     1
 91
        4
 64
     7
 65
   257
 75
     1
175
     1
 42
1.0
 92
        0
 66
   257
 43
1.0
 76
     1
 77
     6
 78
     2
 67
     7
 79
     5
170
     0
171
     0
290
     0
174
     0
 93
        1
 44
0.0
173
     0
291
     0
 45
0.0
1001
ACAD
1000
AcDbSavedByObjectVersion
1070
     0
  0
VISUALSTYLE
  5
32
102
{ACAD_REACTORS
330
2A
102
}
330
2A
100
AcDbVisualStyle
  2
Basic
 70
     7
 71
     1
 72
     0
 73
     1
 90
        0
 40
-0.6
 41
-30.0
 62
     5
 63
     7
 74
     0
 91
        4
 64
     7
 65
   257
 75
     1
175
     1
 42
1.0
 92
        8
 66
     7
 43
1.0
 76
     1
 77
     6
 78
     2
 67
     7
 79
     5
170
     0
171
     0
290
     0
174
     0
 93
        1
 44
0.0
173
     0
291
     1
 45
0.0
1001
ACAD
1000
AcDbSavedByObjectVersion
1070
     0
  0
VISUALSTYLE
  5
36
102
{ACAD_REACTORS
330
2A
102
}
330
2A
100
AcDbVisualStyle
  2
Brighten
 70
    12
 71
     2
 72
     2
 73
     0
 90
        0
 40
-0.6
 41
-30.0
 62
     5
 63
     7
 74
     1
 91
        4
 64
     7
 65
   257
 75
     1
175
     1
 42
1.0
 92
        8
 66
     7
 43
1.0
 76
     1
 77
     6
 78
     2
 67
     7
 79
     5
170
     0
171
     0
290
     0
174
     0
 93
        1
 44
50.0
173
     0
291
     1
 45
0.0
1001
ACAD
1000
AcDbSavedByObjectVersion
1070
     0
  0
VISUALSTYLE
  5
3A
102
{ACAD_REACTORS
330
2A
102
}
330
2A
100
AcDbVisualStyle
  2
ColorChange
 70
    16
 71
     2
 72
     2
 73
     3
 90
        0
 40
-0.6
 41
-30.0
 62
     5
 63
     8
 74
     1
 91
        4
 64
     7
 65
   257
 75
     1
175
     1
 42
1.0
 92
        8
 66
     8
 43
1.0
 76
     1
 77
     6
 78
     2
 67
     7
 79
     5
170
     0
171
     0
290
     0
174
     0
 93
        1
 44
0.0
173
     0
291
     1
 45
0.0
1001
ACAD
1000
AcDbSavedByObjectVersion
1070
     0
  0
VISUALSTYLE
  5
34
102
{ACAD_REACTORS
330
2A
102
}
330
2A
100
AcDbVisualStyle
  2
Conceptual
 70
     9
 71
     3
 72
     2
 73
     0
 90
        0
 40
-0.6
 41
-30.0
 62
     5
 63
     7
 74
     2
 91
        2
 64
     7
 65
   257
 75
     1
175
     1
 42
40.0
 92
        8
 66
     7
 43
1.0
 76
     1
 77
     6
 78
     2
 67
     7
 79
     3
170
     0
171
     0
290
     0
174
     0
 93
        1
 44
0.0
173
     0
291
     0
 45
0.0
1001
ACAD
1000
AcDbSavedByObjectVersion
1070
     0
  0
VISUALSTYLE
  5
35
102
{ACAD_REACTORS
330
2A
102
}
330
2A
100
AcDbVisualStyle
  2
Dim
 70
    11
 71
     2
 72
     2
 73
     0
 90
        0
 40
-0.6
 41
-30.0
 62
     5
 63
     7
 74
     1
 91
        4
 64
     7
 65
   257
 75
     1
175
     1
 42
1.0
 92
        8
 66
     7
 43
1.0
 76
     1
 77
     6
 78
     2
 67
     7
 79
     5
170
     0
171
     0
290
     0
174
     0
 93
        1
 44
-50.0
173
     0
291
     1
 45
0.0
1001
ACAD
1000
AcDbSavedByObjectVersion
1070
     0
  0
VISUALSTYLE
  5
39
102
{ACAD_REACTORS
330
2A
102
}
330
2A
100
AcDbVisualStyle
  2
Facepattern
 70
    15
 71
     2
 72
     2
 73
     0
 90
        0
 40
-0.6
 41
-30.0
 62
     5
 63
     7
 74
     1
 91
        4
 64
     7
 65
   257
 75
     1
175
     1
 42
1.0
 92
        8
 66
     7
 43
1.0
 76
     1
 77
     6
 78
     2
 67
     7
 79
     5
170
     0
171
     0
290
     0
174
     0
 93
        1
 44
0.0
173
     0
291
     1
 45
0.0
1001
ACAD
1000
AcDbSavedByObjectVersion
1070
     0
  0
VISUALSTYLE
  5
2B
102
{ACAD_REACTORS
330
2A
102
}
330
2A
100
AcDbVisualStyle
  2
Flat
 70
     0
 71
     2
 72
     1
 73
     1
 90
        2
 40
-0.6
 41
30.0
 62
     5
 63
     7
 74
     0
 91
        4
 64
     7
 65
   257
 75
     1
175
     1
 42
1.0
 92
        8
 66
     7
 43
1.0
 76
     1
 77
     6
 78
     2
 67
     7
 79
     5
170
     0
171
     0
290
     0
174
     0
 93
       13
 44
0.0
173
     0
291
     1
 45
0.0
1001
ACAD
1000
AcDbSavedByObjectVersion
1070
     0
  0
VISUALSTYLE
  5
2C
102
{ACAD_REACTORS
330
2A
102
}
330
2A
100
AcDbVisualStyle
  2
FlatWithEdges
 70
     1
 71
     2
 72
     1
 73
     1
 90
        2
 40
-0.6
 41
30.0
 62
     5
 63
     7
 74
     1
 91
        4
 64
     7
 65
   257
 75
     1
175
     1
 42
1.0
 92
        0
 66
   257
 43
1.0
 76
     1
 77
     6
 78
     2
 67
     7
 79
     5
170
     0
171
     0
290
     0
174
     0
 93
       13
 44
0.0
173
     0
291
     1
 45
0.0
1001
ACAD
1000
AcDbSavedByObjectVersion
1070
     0
  0
VISUALSTYLE
  5
2D
102
{ACAD_REACTORS
330
2A
102
}
330
2A
100
AcDbVisualStyle
  2
Gouraud
 70
     2
 71
     2
 72
     2
 73
     1
 90
        2
 40
-0.6
 41
30.0
 62
     5
 63
     7
 74
     0
 91
        4
 64
     7
 65
   257
 75
     1
175
     1
 42
1.0
 92
        0
 66
     7
 43
1.0
 76
     1
 77
     6
 78
     2
 67
     7
 79
     5
170
     0
171
     0
290
     0
174
     0
 93
       13
 44
0.0
173
     0
291
     1
 45
0.0
1001
ACAD
1000
AcDbSavedByObjectVersion
1070
     0
  0
VISUALSTYLE
  5
2E
102
{ACAD_REACTORS
330
2A
102
}
330
2A
100
AcDbVisualStyle
  2
GouraudWithEdges
 70
     3
 71
     2
 72
     2
 73
     1
 90
        2
 40
-0.6
 41
30.0
 62
     5
 63
     7
 74
     1
 91
        4
 64
     7
 65
   257
 75
     1
175
     1
 42
1.0
 92
        0
 66
   257
 43
1.0
 76
     1
 77
     6
 78
     2
 67
     7
 79
     5
170
     0
171
     0
290
     0
174
     0
 93
       13
 44
0.0
173
     0
291
     1
 45
0.0
1001
ACAD
1000
AcDbSavedByObjectVersion
1070
     0
  0
VISUALSTYLE
  5
38
102
{ACAD_REACTORS
330
2A
102
}
330
2A
100
AcDbVisualStyle
  2
Linepattern
 70
    14
 71
     2
 72
     2
 73
     0
 90
        0
 40
-0.6
 41
-30.0
 62
     5
 63
     7
 74
     1
 91
        4
 64
     7
 65
   257
 75
     7
175
     7
 42
1.0
 92
        8
 66
     7
 43
1.0
 76
     1
 77
     6
 78
     2
 67
     7
 79
     5
170
     0
171
     0
290
     0
174
     0
 93
        1
 44
0.0
173
     0
291
     1
 45
0.0
1001
ACAD
1000
AcDbSavedByObjectVersion
1070
     0
  0
VISUALSTYLE
  5
33
102
{ACAD_REACTORS
330
2A
102
}
330
2A
100
AcDbVisualStyle
  2
Realistic
 70
     8
 71
     2
 72
     2
 73
     0
 90
        0
 40
-0.6
 41
-30.0
 62
     5
 63
     7
 74
     1
 91
        0
 64
     7
 65
   257
 75
     1
175
     1
 42
1.0
 92
        8
 66
     8
 43
1.0
 76
     1
 77
     6
 78
     2
 67
     7
 79
     5
170
     0
171
     0
290
     0
174
     0
 93
       13
 44
0.0
173
     0
291
     0
 45
0.0
1001
ACAD
1000
AcDbSavedByObjectVersion
1070
     0
  0
VISUALSTYLE
  5
37
102
{ACAD_REACTORS
330
2A
102
}
330
2A
100
AcDbVisualStyle
  2
Thicken
 70
    13
 71
     2
 72
     2
 73
     0
 90
        0
 40
-0.6
 41
-30.0
 62
     5
 63
     7
 74
     1
 91
        4
 64
     7
 65
   257
 75
     1
175
     1
 42
1.0
 92
       12
 66
     7
 43
1.0
 76
     1
 77
     6
 78
     2
 67
     7
 79
     5
170
     0
171
     0
290
     0
174
     0
 93
        1
 44
0.0
173
     0
291
     1
 45
0.0
1001
ACAD
1000
AcDbSavedByObjectVersion
1070
     0
  0
DICTIONARYVAR
  5
10A
102
{ACAD_REACTORS
330
105
102
}
330
105
100
DictionaryVariables
280
     0
  1
1:1
  0
DICTIONARYVAR
  5
109
102
{ACAD_REACTORS
330
105
102
}
330
105
100
DictionaryVariables
280
     0
  1
80.000000
  0
DICTIONARYVAR
  5
108
102
{ACAD_REACTORS
330
105
102
}
330
105
100
DictionaryVariables
280
     0
  1
5.000000
  0
ENDSEC
  0
EOF
