  0
SECTION
  2
HEADER
  9
$ACADVER
  1
AC1015
  9
$ACADMAINTVER
 70
     6
  9
$DWGCODEPAGE
  3
ANSI_1252
  9
$INSBASE
 10
0.0
 20
0.0
 30
0.0
  9
$EXTMIN
 10
0.0
 20
0.0
 30
0.0
  9
$EXTMAX
 10
457.0
 20
305.0
 30
0.0
  9
$LIMMIN
 10
0.0
 20
0.0
  9
$LIMMAX
 10
457.0
 20
305.0
  9
$ORTHOMODE
 70
     0
  9
$REGENMODE
 70
     1
  9
$FILLMODE
 70
     1
  9
$QTEXTMODE
 70
     0
  9
$MIRRTEXT
 70
     1
  9
$LTSCALE
 40
1.0
  9
$ATTMODE
 70
     1
  9
$TEXTSIZE
 40
2.5
  9
$TRACEWID
 40
1.0
  9
$TEXTSTYLE
  7
Standard
  9
$CLAYER
  8
0
  9
$CELTYPE
  6
ByLayer
  9
$CECOLOR
 62
   256
  9
$CELTSCALE
 40
1.0
  9
$DISPSILH
 70
     0
  9
$DIMSCALE
 40
1.0
  9
$DIMASZ
 40
2.5
  9
$DIMEXO
 40
0.625
  9
$DIMDLI
 40
3.75
  9
$DIMRND
 40
0.0
  9
$DIMDLE
 40
0.0
  9
$DIMEXE
 40
1.25
  9
$DIMTP
 40
0.0
  9
$DIMTM
 40
0.0
  9
$DIMTXT
 40
2.5
  9
$DIMCEN
 40
2.5
  9
$DIMTSZ
 40
0.0
  9
$DIMTOL
 70
     0
  9
$DIMLIM
 70
     0
  9
$DIMTIH
 70
     0
  9
$DIMTOH
 70
     0
  9
$DIMSE1
 70
     0
  9
$DIMSE2
 70
     0
  9
$DIMTAD
 70
     1
  9
$DIMZIN
 70
     8
  9
$DIMBLK
  1

  9
$DIMASO
 70
     1
  9
$DIMSHO
 70
     1
  9
$DIMPOST
  1

  9
$DIMAPOST
  1

  9
$DIMALT
 70
     0
  9
$DIMALTD
 70
     3
  9
$DIMALTF
 40
0.0393700787
  9
$DIMLFAC
 40
1.0
  9
$DIMTOFL
 70
     1
  9
$DIMTVP
 40
0.0
  9
$DIMTIX
 70
     0
  9
$DIMSOXD
 70
     0
  9
$DIMSAH
 70
     0
  9
$DIMBLK1
  1

  9
$DIMBLK2
  1

  9
$DIMSTYLE
  2
ISO-25
  9
$DIMCLRD
 70
     0
  9
$DIMCLRE
 70
     0
  9
$DIMCLRT
 70
     0
  9
$DIMTFAC
 40
1.0
  9
$DIMGAP
 40
0.625
  9
$DIMJUST
 70
     0
  9
$DIMSD1
 70
     0
  9
$DIMSD2
 70
     0
  9
$DIMTOLJ
 70
     0
  9
$DIMTZIN
 70
     8
  9
$DIMALTZ
 70
     0
  9
$DIMALTTZ
 70
     0
  9
$DIMUPT
 70
     0
  9
$DIMDEC
 70
     2
  9
$DIMTDEC
 70
     2
  9
$DIMALTU
 70
     2
  9
$DIMALTTD
 70
     3
  9
$DIMTXSTY
  7
Standard
  9
$DIMAUNIT
 70
     0
  9
$DIMADEC
 70
     0
  9
$DIMALTRND
 40
0.0
  9
$DIMAZIN
 70
     0
  9
$DIMDSEP
 70
    44
  9
$DIMATFIT
 70
     3
  9
$DIMFRAC
 70
     0
  9
$DIMLDRBLK
  1

  9
$DIMLUNIT
 70
     2
  9
$DIMLWD
 70
    -2
  9
$DIMLWE
 70
    -2
  9
$DIMTMOVE
 70
     0
  9
$LUNITS
 70
     2
  9
$LUPREC
 70
     4
  9
$SKETCHINC
 40
1.0
  9
$FILLETRAD
 40
10.0
  9
$AUNITS
 70
     0
  9
$AUPREC
 70
     0
  9
$MENU
  1
.
  9
$ELEVATION
 40
0.0
  9
$PELEVATION
 40
0.0
  9
$THICKNESS
 40
0.0
  9
$LIMCHECK
 70
     0
  9
$CHAMFERA
 40
10.0
  9
$CHAMFERB
 40
10.0
  9
$CHAMFERC
 40
20.0
  9
$CHAMFERD
 40
0.0
  9
$SKPOLY
 70
     0
  9
$TDCREATE
 40
2456220.012117731
  9
$TDUCREATE
 40
2456220.137117731
  9
$TDUPDATE
 40
2456220.012117743
  9
$TDUUPDATE
 40
2456220.137117743
  9
$TDINDWG
 40
0.0000000116
  9
$TDUSRTIMER
 40
0.0000000116
  9
$USRTIMER
 70
     1
  9
$ANGBASE
 50
0.0
  9
$ANGDIR
 70
     0
  9
$PDMODE
 70
     0
  9
$PDSIZE
 40
0.0
  9
$PLINEWID
 40
0.0
  9
$SPLFRAME
 70
     0
  9
$SPLINETYPE
 70
     6
  9
$SPLINESEGS
 70
     8
  9
$HANDSEED
  5
110
  9
$SURFTAB1
 70
     6
  9
$SURFTAB2
 70
     6
  9
$SURFTYPE
 70
     6
  9
$SURFU
 70
     6
  9
$SURFV
 70
     6
  9
$UCSBASE
  2

  9
$UCSNAME
  2

  9
$UCSORG
 10
0.0
 20
0.0
 30
0.0
  9
$UCSXDIR
 10
1.0
 20
0.0
 30
0.0
  9
$UCSYDIR
 10
0.0
 20
1.0
 30
0.0
  9
$UCSORTHOREF
  2

  9
$UCSORTHOVIEW
 70
     0
  9
$UCSORGTOP
 10
0.0
 20
0.0
 30
0.0
  9
$UCSORGBOTTOM
 10
0.0
 20
0.0
 30
0.0
  9
$UCSORGLEFT
 10
0.0
 20
0.0
 30
0.0
  9
$UCSORGRIGHT
 10
0.0
 20
0.0
 30
0.0
  9
$UCSORGFRONT
 10
0.0
 20
0.0
 30
0.0
  9
$UCSORGBACK
 10
0.0
 20
0.0
 30
0.0
  9
$PUCSBASE
  2

  9
$PUCSNAME
  2

  9
$PUCSORG
 10
0.0
 20
0.0
 30
0.0
  9
$PUCSXDIR
 10
1.0
 20
0.0
 30
0.0
  9
$PUCSYDIR
 10
0.0
 20
1.0
 30
0.0
  9
$PUCSORTHOREF
  2

  9
$PUCSORTHOVIEW
 70
     0
  9
$PUCSORGTOP
 10
0.0
 20
0.0
 30
0.0
  9
$PUCSORGBOTTOM
 10
0.0
 20
0.0
 30
0.0
  9
$PUCSORGLEFT
 10
0.0
 20
0.0
 30
0.0
  9
$PUCSORGRIGHT
 10
0.0
 20
0.0
 30
0.0
  9
$PUCSORGFRONT
 10
0.0
 20
0.0
 30
0.0
  9
$PUCSORGBACK
 10
0.0
 20
0.0
 30
0.0
  9
$USERI1
 70
     0
  9
$USERI2
 70
     0
  9
$USERI3
 70
     0
  9
$USERI4
 70
     0
  9
$USERI5
 70
     0
  9
$USERR1
 40
0.0
  9
$USERR2
 40
0.0
  9
$USERR3
 40
0.0
  9
$USERR4
 40
0.0
  9
$USERR5
 40
0.0
  9
$WORLDVIEW
 70
     1
  9
$SHADEDGE
 70
     3
  9
$SHADEDIF
 70
    70
  9
$TILEMODE
 70
     1
  9
$MAXACTVP
 70
    64
  9
$PINSBASE
 10
0.0
 20
0.0
 30
0.0
  9
$PLIMCHECK
 70
     0
  9
$PEXTMIN
 10
0.0
 20
0.0
 30
0.0
  9
$PEXTMAX
 10
457.0
 20
305.0
 30
0.0
  9
$PLIMMIN
 10
0.0
 20
0.0
  9
$PLIMMAX
 10
457.0
 20
305.0
  9
$UNITMODE
 70
     0
  9
$VISRETAIN
 70
     1
  9
$PLINEGEN
 70
     0
  9
$PSLTSCALE
 70
     1
  9
$TREEDEPTH
 70
  3020
  9
$CMLSTYLE
  2
Standard
  9
$CMLJUST
 70
     0
  9
$CMLSCALE
 40
20.0
  9
$PROXYGRAPHICS
 70
     1
  9
$MEASUREMENT
 70
     1
  9
$CELWEIGHT
370
    -1
  9
$ENDCAPS
280
     0
  9
$JOINSTYLE
280
     0
  9
$LWDISPLAY
290
     0
  9
$INSUNITS
 70
     4
  9
$HYPERLINKBASE
  1

  9
$STYLESHEET
  1

  9
$XEDIT
290
     1
  9
$CEPSNTYPE
380
     0
  9
$PSTYLEMODE
290
     1
  9
$FINGERPRINTGUID
  2
{305FF11C-ACEB-4935-9523-0C1FAC561336}
  9
$VERSIONGUID
  2
{FAEB1C32-E019-11D5-929B-00C0DF256EC4}
  9
$EXTNAMES
290
     1
  9
$PSVPSCALE
 40
0.0
  9
$OLESTARTUP
290
     0
  0
ENDSEC
  0
SECTION
  2
CLASSES
  0
CLASS
  1
ACDBDICTIONARYWDFLT
  2
AcDbDictionaryWithDefault
  3
ObjectDBX Classes
 90
        0
280
     0
281
     0
  0
CLASS
  1
VISUALSTYLE
  2
AcDbVisualStyle
  3
ObjectDBX Classes
 90
     4095
280
     0
281
     0
  0
CLASS
  1
DICTIONARYVAR
  2
AcDbDictionaryVar
  3
ObjectDBX Classes
 90
        0
280
     0
281
     0
  0
CLASS
  1
ACDBPLACEHOLDER
  2
AcDbPlaceHolder
  3
ObjectDBX Classes
 90
        0
280
     0
281
     0
  0
CLASS
  1
LAYOUT
  2
AcDbLayout
  3
ObjectDBX Classes
 90
        0
280
     0
281
     0
  0
ENDSEC
  0
SECTION
  2
TABLES
  0
TABLE
  2
VPORT
  5
8
330
0
100
AcDbSymbolTable
 70
     1
  0
VPORT
  5
29
330
8
100
AcDbSymbolTableRecord
100
AcDbViewportTableRecord
  2
*Active
 70
     0
 10
0.0
 20
0.0
 11
1.0
 21
1.0
 12
344.1869158879
 22
148.5
 13
0.0
 23
0.0
 14
10.0
 24
10.0
 15
10.0
 25
10.0
 16
0.0
 26
0.0
 36
1.0
 17
0.0
 27
0.0
 37
0.0
 40
297.0
 41
1.9729729729
 42
50.0
 43
0.0
 44
0.0
 50
0.0
 51
0.0
 71
     0
 72
   100
 73
     1
 74
     3
 75
     0
 76
     0
 77
     0
 78
     0
281
     0
 65
     1
110
0.0
120
0.0
130
0.0
111
1.0
121
0.0
131
0.0
112
0.0
122
1.0
132
0.0
 79
     0
146
0.0
  0
ENDTAB
  0
TABLE
  2
LTYPE
  5
5
330
0
100
AcDbSymbolTable
 70
     1
  0
LTYPE
  5
14
330
5
100
AcDbSymbolTableRecord
100
AcDbLinetypeTableRecord
  2
ByBlock
 70
     0
  3

 72
    65
 73
     0
 40
0.0
  0
LTYPE
  5
15
330
5
100
AcDbSymbolTableRecord
100
AcDbLinetypeTableRecord
  2
ByLayer
 70
     0
  3

 72
    65
 73
     0
 40
0.0
  0
LTYPE
  5
16
330
5
100
AcDbSymbolTableRecord
100
AcDbLinetypeTableRecord
  2
Continuous
 70
     0
  3
Solid line
 72
    65
 73
     0
 40
0.0
  0
ENDTAB
  0
TABLE
  2
LAYER
  5
2
330
0
100
AcDbSymbolTable
 70
     2
  0
LAYER
  5
10
330
2
100
AcDbSymbolTableRecord
100
AcDbLayerTableRecord
  2
0
 70
     0
 62
     7
  6
Continuous
370
    -3
390
F
  0
LAYER
  5
3B
330
2
100
AcDbSymbolTableRecord
100
AcDbLayerTableRecord
  2
Default
 70
     0
 62
     7
  6
Continuous
370
    -3
390
F
  0
ENDTAB
  0
TABLE
  2
STYLE
  5
3
330
0
100
AcDbSymbolTable
 70
     1
  0
STYLE
  5
11
330
3
100
AcDbSymbolTableRecord
100
AcDbTextStyleTableRecord
  2
Standard
 70
     0
 40
0.0
 41
1.0
 50
0.0
 71
     0
 42
2.5
  3
txt
  4

  0
ENDTAB
  0
TABLE
  2
VIEW
  5
6
330
0
100
AcDbSymbolTable
 70
     0
  0
ENDTAB
  0
TABLE
  2
UCS
  5
7
330
0
100
AcDbSymbolTable
 70
     0
  0
ENDTAB
  0
TABLE
  2
APPID
  5
9
330
0
100
AcDbSymbolTable
 70
     1
  0
APPID
  5
12
330
9
100
AcDbSymbolTableRecord
100
AcDbRegAppTableRecord
  2
ACAD
 70
     0
  0
ENDTAB
  0
TABLE
  2
DIMSTYLE
  5
A
330
0
100
AcDbSymbolTable
 70
     1
100
AcDbDimStyleTable
  0
DIMSTYLE
105
27
330
A
100
AcDbSymbolTableRecord
100
AcDbDimStyleTableRecord
  2
ISO-25
 70
     0
 41
2.5
 42
0.625
 43
3.75
 44
1.25
 73
     0
 74
     0
 77
     1
 78
     8
140
2.5
141
2.5
143
0.0393700787
147
0.625
171
     3
172
     1
271
     2
272
     2
274
     3
278
    44
283
     0
284
     8
340
11
  0
ENDTAB
  0
TABLE
  2
BLOCK_RECORD
  5
1
330
0
100
AcDbSymbolTable
 70
    19
  0
BLOCK_RECORD
  5
1F
330
1
100
AcDbSymbolTableRecord
100
AcDbBlockTableRecord
  2
*Model_Space
340
22
  0
BLOCK_RECORD
  5
1B
330
1
100
AcDbSymbolTableRecord
100
AcDbBlockTableRecord
  2
*Paper_Space
340
1E
  0
BLOCK_RECORD
  5
83
330
1
100
AcDbSymbolTableRecord
100
AcDbBlockTableRecord
  2
SE
340
0
102
{BLKREFS
331
84
102
}
  0
BLOCK_RECORD
  5
85
330
1
100
AcDbSymbolTableRecord
100
AcDbBlockTableRecord
  2
SE1
340
0
102
{BLKREFS
331
86
102
}
  0
BLOCK_RECORD
  5
8D
330
1
100
AcDbSymbolTableRecord
100
AcDbBlockTableRecord
  2
SE2
340
0
102
{BLKREFS
331
8E
102
}
  0
BLOCK_RECORD
  5
95
330
1
100
AcDbSymbolTableRecord
100
AcDbBlockTableRecord
  2
SE3
340
0
102
{BLKREFS
331
96
102
}
  0
BLOCK_RECORD
  5
9D
330
1
100
AcDbSymbolTableRecord
100
AcDbBlockTableRecord
  2
SE4
340
0
102
{BLKREFS
331
9E
102
}
  0
BLOCK_RECORD
  5
A7
330
1
100
AcDbSymbolTableRecord
100
AcDbBlockTableRecord
  2
SE5
340
0
102
{BLKREFS
331
A8
102
}
  0
BLOCK_RECORD
  5
A9
330
1
100
AcDbSymbolTableRecord
100
AcDbBlockTableRecord
  2
SE6
340
0
102
{BLKREFS
331
AA
102
}
  0
BLOCK_RECORD
  5
B1
330
1
100
AcDbSymbolTableRecord
100
AcDbBlockTableRecord
  2
SE7
340
0
102
{BLKREFS
331
B2
102
}
  0
BLOCK_RECORD
  5
B9
330
1
100
AcDbSymbolTableRecord
100
AcDbBlockTableRecord
  2
SE8
340
0
102
{BLKREFS
331
BA
102
}
  0
BLOCK_RECORD
  5
C1
330
1
100
AcDbSymbolTableRecord
100
AcDbBlockTableRecord
  2
SE9
340
0
102
{BLKREFS
331
C2
102
}
  0
BLOCK_RECORD
  5
CB
330
1
100
AcDbSymbolTableRecord
100
AcDbBlockTableRecord
  2
SE10
340
0
102
{BLKREFS
331
CC
102
}
  0
BLOCK_RECORD
  5
D3
330
1
100
AcDbSymbolTableRecord
100
AcDbBlockTableRecord
  2
SE11
340
0
102
{BLKREFS
331
D4
102
}
  0
BLOCK_RECORD
  5
DB
330
1
100
AcDbSymbolTableRecord
100
AcDbBlockTableRecord
  2
SE12
340
0
102
{BLKREFS
331
DC
102
}
  0
BLOCK_RECORD
  5
E3
330
1
100
AcDbSymbolTableRecord
100
AcDbBlockTableRecord
  2
SE13
340
0
102
{BLKREFS
331
E4
102
}
  0
BLOCK_RECORD
  5
EB
330
1
100
AcDbSymbolTableRecord
100
AcDbBlockTableRecord
  2
SE14
340
0
102
{BLKREFS
331
EC
102
}
  0
BLOCK_RECORD
  5
F3
330
1
100
AcDbSymbolTableRecord
100
AcDbBlockTableRecord
  2
SE15
340
0
102
{BLKREFS
331
F4
102
}
  0
BLOCK_RECORD
  5
FB
330
1
100
AcDbSymbolTableRecord
100
AcDbBlockTableRecord
  2
SE16
340
0
102
{BLKREFS
331
FC
102
}
  0
BLOCK_RECORD
  5
103
330
1
100
AcDbSymbolTableRecord
100
AcDbBlockTableRecord
  2
SE17
340
0
102
{BLKREFS
331
104
102
}
  0
ENDTAB
  0
ENDSEC
  0
SECTION
  2
BLOCKS
  0
BLOCK
  5
20
330
1F
100
AcDbEntity
  8
0
100
AcDbBlockBegin
  2
*Model_Space
 70
     0
 10
0.0
 20
0.0
 30
0.0
  3
*Model_Space
  1

  0
ENDBLK
  5
21
330
1F
100
AcDbEntity
  8
0
100
AcDbBlockEnd
  0
BLOCK
  5
1C
330
1B
100
AcDbEntity
 67
     1
  8
0
100
AcDbBlockBegin
  2
*Paper_Space
 70
     0
 10
0.0
 20
0.0
 30
0.0
  3
*Paper_Space
  1

  0
ENDBLK
  5
1D
330
1B
100
AcDbEntity
 67
     1
  8
0
100
AcDbBlockEnd
  0
BLOCK
  5
A5
330
83
100
AcDbEntity
  8
0
100
AcDbBlockBegin
  2
SE
 70
     0
 10
0.0
 20
0.0
 30
0.0
  3
SE
  1

  0
INSERT
  5
86
330
83
100
AcDbEntity
  8
Default
100
AcDbBlockReference
  2
SE1
 10
0.0
 20
0.0
 30
0.0
  0
INSERT
  5
8E
330
83
100
AcDbEntity
  8
Default
100
AcDbBlockReference
  2
SE2
 10
0.0
 20
0.0
 30
0.0
  0
INSERT
  5
96
330
83
100
AcDbEntity
  8
Default
100
AcDbBlockReference
  2
SE3
 10
0.0
 20
0.0
 30
0.0
  0
INSERT
  5
9E
330
83
100
AcDbEntity
  8
Default
100
AcDbBlockReference
  2
SE4
 10
0.0
 20
0.0
 30
0.0
  0
ENDBLK
  5
A6
330
83
100
AcDbEntity
  8
0
100
AcDbBlockEnd
  0
BLOCK
  5
8B
330
85
100
AcDbEntity
  8
0
100
AcDbBlockBegin
  2
SE1
 70
     0
 10
0.0
 20
0.0
 30
0.0
  3
SE1
  1

  0
LINE
  5
87
330
85
100
AcDbEntity
  8
Default
  6
Continuous
 62
     7
100
AcDbLine
 10
32.2955444018
 20
274.8522967684
 30
0.0
 11
41.2955444018
 21
274.8522967684
 31
0.0
  0
LINE
  5
88
330
85
100
AcDbEntity
  8
Default
  6
Continuous
 62
     7
100
AcDbLine
 10
32.2955444018
 20
277.8522967684
 30
0.0
 11
32.2955444018
 21
274.8522967684
 31
0.0
  0
LINE
  5
89
330
85
100
AcDbEntity
  8
Default
  6
Continuous
 62
     7
100
AcDbLine
 10
41.2955444018
 20
277.8522967684
 30
0.0
 11
32.2955444018
 21
277.8522967684
 31
0.0
  0
LINE
  5
8A
330
85
100
AcDbEntity
  8
Default
  6
Continuous
 62
     7
100
AcDbLine
 10
41.2955444018
 20
274.8522967684
 30
0.0
 11
41.2955444018
 21
277.8522967684
 31
0.0
  0
ENDBLK
  5
8C
330
85
100
AcDbEntity
  8
0
100
AcDbBlockEnd
  0
BLOCK
  5
93
330
8D
100
AcDbEntity
  8
0
100
AcDbBlockBegin
  2
SE2
 70
     0
 10
0.0
 20
0.0
 30
0.0
  3
SE2
  1

  0
LINE
  5
8F
330
8D
100
AcDbEntity
  8
Default
  6
Continuous
 62
     7
100
AcDbLine
 10
29.2955444018
 20
280.8522967684
 30
0.0
 11
29.2955444018
 21
289.8522967684
 31
0.0
  0
LINE
  5
90
330
8D
100
AcDbEntity
  8
Default
  6
Continuous
 62
     7
100
AcDbLine
 10
26.2955444018
 20
280.8522967684
 30
0.0
 11
29.2955444018
 21
280.8522967684
 31
0.0
  0
LINE
  5
91
330
8D
100
AcDbEntity
  8
Default
  6
Continuous
 62
     7
100
AcDbLine
 10
26.2955444018
 20
289.8522967684
 30
0.0
 11
26.2955444018
 21
280.8522967684
 31
0.0
  0
LINE
  5
92
330
8D
100
AcDbEntity
  8
Default
  6
Continuous
 62
     7
100
AcDbLine
 10
29.2955444018
 20
289.8522967684
 30
0.0
 11
26.2955444018
 21
289.8522967684
 31
0.0
  0
ENDBLK
  5
94
330
8D
100
AcDbEntity
  8
0
100
AcDbBlockEnd
  0
BLOCK
  5
9B
330
95
100
AcDbEntity
  8
0
100
AcDbBlockBegin
  2
SE3
 70
     0
 10
0.0
 20
0.0
 30
0.0
  3
SE3
  1

  0
LINE
  5
97
330
95
100
AcDbEntity
  8
Default
  6
Continuous
 62
     7
100
AcDbLine
 10
23.2955444018
 20
277.8522967684
 30
0.0
 11
14.2955444018
 21
277.8522967684
 31
0.0
  0
LINE
  5
98
330
95
100
AcDbEntity
  8
Default
  6
Continuous
 62
     7
100
AcDbLine
 10
23.2955444018
 20
274.8522967684
 30
0.0
 11
23.2955444018
 21
277.8522967684
 31
0.0
  0
LINE
  5
99
330
95
100
AcDbEntity
  8
Default
  6
Continuous
 62
     7
100
AcDbLine
 10
14.2955444018
 20
274.8522967684
 30
0.0
 11
23.2955444018
 21
274.8522967684
 31
0.0
  0
LINE
  5
9A
330
95
100
AcDbEntity
  8
Default
  6
Continuous
 62
     7
100
AcDbLine
 10
14.2955444018
 20
277.8522967684
 30
0.0
 11
14.2955444018
 21
274.8522967684
 31
0.0
  0
ENDBLK
  5
9C
330
95
100
AcDbEntity
  8
0
100
AcDbBlockEnd
  0
BLOCK
  5
A3
330
9D
100
AcDbEntity
  8
0
100
AcDbBlockBegin
  2
SE4
 70
     0
 10
0.0
 20
0.0
 30
0.0
  3
SE4
  1

  0
LINE
  5
9F
330
9D
100
AcDbEntity
  8
Default
  6
Continuous
 62
     7
100
AcDbLine
 10
26.2955444018
 20
271.8522967684
 30
0.0
 11
26.2955444018
 21
262.8522967684
 31
0.0
  0
LINE
  5
A0
330
9D
100
AcDbEntity
  8
Default
  6
Continuous
 62
     7
100
AcDbLine
 10
29.2955444018
 20
271.8522967684
 30
0.0
 11
26.2955444018
 21
271.8522967684
 31
0.0
  0
LINE
  5
A1
330
9D
100
AcDbEntity
  8
Default
  6
Continuous
 62
     7
100
AcDbLine
 10
29.2955444018
 20
262.8522967684
 30
0.0
 11
29.2955444018
 21
271.8522967684
 31
0.0
  0
LINE
  5
A2
330
9D
100
AcDbEntity
  8
Default
  6
Continuous
 62
     7
100
AcDbLine
 10
26.2955444018
 20
262.8522967684
 30
0.0
 11
29.2955444018
 21
262.8522967684
 31
0.0
  0
ENDBLK
  5
A4
330
9D
100
AcDbEntity
  8
0
100
AcDbBlockEnd
  0
BLOCK
  5
C9
330
A7
100
AcDbEntity
  8
0
100
AcDbBlockBegin
  2
SE5
 70
     0
 10
0.0
 20
0.0
 30
0.0
  3
SE5
  1

  0
INSERT
  5
AA
330
A7
100
AcDbEntity
  8
Default
100
AcDbBlockReference
  2
SE6
 10
0.0
 20
0.0
 30
0.0
  0
INSERT
  5
B2
330
A7
100
AcDbEntity
  8
Default
100
AcDbBlockReference
  2
SE7
 10
0.0
 20
0.0
 30
0.0
  0
INSERT
  5
BA
330
A7
100
AcDbEntity
  8
Default
100
AcDbBlockReference
  2
SE8
 10
0.0
 20
0.0
 30
0.0
  0
INSERT
  5
C2
330
A7
100
AcDbEntity
  8
Default
100
AcDbBlockReference
  2
SE9
 10
0.0
 20
0.0
 30
0.0
  0
ENDBLK
  5
CA
330
A7
100
AcDbEntity
  8
0
100
AcDbBlockEnd
  0
BLOCK
  5
AF
330
A9
100
AcDbEntity
  8
0
100
AcDbBlockBegin
  2
SE6
 70
     0
 10
0.0
 20
0.0
 30
0.0
  3
SE6
  1

  0
LINE
  5
AB
330
A9
100
AcDbEntity
  8
Default
  6
Continuous
 62
     7
100
AcDbLine
 10
68.2955444018
 20
274.8522967684
 30
0.0
 11
77.2955444018
 21
274.8522967684
 31
0.0
  0
LINE
  5
AC
330
A9
100
AcDbEntity
  8
Default
  6
Continuous
 62
     7
100
AcDbLine
 10
68.2955444018
 20
277.8522967684
 30
0.0
 11
68.2955444018
 21
274.8522967684
 31
0.0
  0
LINE
  5
AD
330
A9
100
AcDbEntity
  8
Default
  6
Continuous
 62
     7
100
AcDbLine
 10
77.2955444018
 20
277.8522967684
 30
0.0
 11
68.2955444018
 21
277.8522967684
 31
0.0
  0
LINE
  5
AE
330
A9
100
AcDbEntity
  8
Default
  6
Continuous
 62
     7
100
AcDbLine
 10
77.2955444018
 20
274.8522967684
 30
0.0
 11
77.2955444018
 21
277.8522967684
 31
0.0
  0
ENDBLK
  5
B0
330
A9
100
AcDbEntity
  8
0
100
AcDbBlockEnd
  0
BLOCK
  5
B7
330
B1
100
AcDbEntity
  8
0
100
AcDbBlockBegin
  2
SE7
 70
     0
 10
0.0
 20
0.0
 30
0.0
  3
SE7
  1

  0
LINE
  5
B3
330
B1
100
AcDbEntity
  8
Default
  6
Continuous
 62
     7
100
AcDbLine
 10
65.2955444018
 20
280.8522967684
 30
0.0
 11
65.2955444018
 21
289.8522967684
 31
0.0
  0
LINE
  5
B4
330
B1
100
AcDbEntity
  8
Default
  6
Continuous
 62
     7
100
AcDbLine
 10
62.2955444018
 20
280.8522967684
 30
0.0
 11
65.2955444018
 21
280.8522967684
 31
0.0
  0
LINE
  5
B5
330
B1
100
AcDbEntity
  8
Default
  6
Continuous
 62
     7
100
AcDbLine
 10
62.2955444018
 20
289.8522967684
 30
0.0
 11
62.2955444018
 21
280.8522967684
 31
0.0
  0
LINE
  5
B6
330
B1
100
AcDbEntity
  8
Default
  6
Continuous
 62
     7
100
AcDbLine
 10
65.2955444018
 20
289.8522967684
 30
0.0
 11
62.2955444018
 21
289.8522967684
 31
0.0
  0
ENDBLK
  5
B8
330
B1
100
AcDbEntity
  8
0
100
AcDbBlockEnd
  0
BLOCK
  5
BF
330
B9
100
AcDbEntity
  8
0
100
AcDbBlockBegin
  2
SE8
 70
     0
 10
0.0
 20
0.0
 30
0.0
  3
SE8
  1

  0
LINE
  5
BB
330
B9
100
AcDbEntity
  8
Default
  6
Continuous
 62
     7
100
AcDbLine
 10
59.2955444018
 20
277.8522967684
 30
0.0
 11
50.2955444018
 21
277.8522967684
 31
0.0
  0
LINE
  5
BC
330
B9
100
AcDbEntity
  8
Default
  6
Continuous
 62
     7
100
AcDbLine
 10
59.2955444018
 20
274.8522967684
 30
0.0
 11
59.2955444018
 21
277.8522967684
 31
0.0
  0
LINE
  5
BD
330
B9
100
AcDbEntity
  8
Default
  6
Continuous
 62
     7
100
AcDbLine
 10
50.2955444018
 20
274.8522967684
 30
0.0
 11
59.2955444018
 21
274.8522967684
 31
0.0
  0
LINE
  5
BE
330
B9
100
AcDbEntity
  8
Default
  6
Continuous
 62
     7
100
AcDbLine
 10
50.2955444018
 20
277.8522967684
 30
0.0
 11
50.2955444018
 21
274.8522967684
 31
0.0
  0
ENDBLK
  5
C0
330
B9
100
AcDbEntity
  8
0
100
AcDbBlockEnd
  0
BLOCK
  5
C7
330
C1
100
AcDbEntity
  8
0
100
AcDbBlockBegin
  2
SE9
 70
     0
 10
0.0
 20
0.0
 30
0.0
  3
SE9
  1

  0
LINE
  5
C3
330
C1
100
AcDbEntity
  8
Default
  6
Continuous
 62
     7
100
AcDbLine
 10
62.2955444018
 20
271.8522967684
 30
0.0
 11
62.2955444018
 21
262.8522967684
 31
0.0
  0
LINE
  5
C4
330
C1
100
AcDbEntity
  8
Default
  6
Continuous
 62
     7
100
AcDbLine
 10
65.2955444018
 20
271.8522967684
 30
0.0
 11
62.2955444018
 21
271.8522967684
 31
0.0
  0
LINE
  5
C5
330
C1
100
AcDbEntity
  8
Default
  6
Continuous
 62
     7
100
AcDbLine
 10
65.2955444018
 20
262.8522967684
 30
0.0
 11
65.2955444018
 21
271.8522967684
 31
0.0
  0
LINE
  5
C6
330
C1
100
AcDbEntity
  8
Default
  6
Continuous
 62
     7
100
AcDbLine
 10
62.2955444018
 20
262.8522967684
 30
0.0
 11
65.2955444018
 21
262.8522967684
 31
0.0
  0
ENDBLK
  5
C8
330
C1
100
AcDbEntity
  8
0
100
AcDbBlockEnd
  0
BLOCK
  5
D1
330
CB
100
AcDbEntity
  8
0
100
AcDbBlockBegin
  2
SE10
 70
     0
 10
0.0
 20
0.0
 30
0.0
  3
SE10
  1

  0
LINE
  5
CD
330
CB
100
AcDbEntity
  8
Default
  6
Continuous
 62
     7
100
AcDbLine
 10
35.2955444018
 20
286.8522967684
 30
0.0
 11
35.2955444018
 21
283.8522967684
 31
0.0
  0
LINE
  5
CE
330
CB
100
AcDbEntity
  8
Default
  6
Continuous
 62
     7
100
AcDbLine
 10
38.2955444018
 20
286.8522967684
 30
0.0
 11
35.2955444018
 21
286.8522967684
 31
0.0
  0
LINE
  5
CF
330
CB
100
AcDbEntity
  8
Default
  6
Continuous
 62
     7
100
AcDbLine
 10
38.2955444018
 20
283.8522967684
 30
0.0
 11
38.2955444018
 21
286.8522967684
 31
0.0
  0
LINE
  5
D0
330
CB
100
AcDbEntity
  8
Default
  6
Continuous
 62
     7
100
AcDbLine
 10
35.2955444018
 20
283.8522967684
 30
0.0
 11
38.2955444018
 21
283.8522967684
 31
0.0
  0
ENDBLK
  5
D2
330
CB
100
AcDbEntity
  8
0
100
AcDbBlockEnd
  0
BLOCK
  5
D9
330
D3
100
AcDbEntity
  8
0
100
AcDbBlockBegin
  2
SE11
 70
     0
 10
0.0
 20
0.0
 30
0.0
  3
SE11
  1

  0
LINE
  5
D5
330
D3
100
AcDbEntity
  8
Default
  6
Continuous
 62
     7
100
AcDbLine
 10
44.2955444018
 20
286.8522967684
 30
0.0
 11
44.2955444018
 21
283.8522967684
 31
0.0
  0
LINE
  5
D6
330
D3
100
AcDbEntity
  8
Default
  6
Continuous
 62
     7
100
AcDbLine
 10
47.2955444018
 20
286.8522967684
 30
0.0
 11
44.2955444018
 21
286.8522967684
 31
0.0
  0
LINE
  5
D7
330
D3
100
AcDbEntity
  8
Default
  6
Continuous
 62
     7
100
AcDbLine
 10
47.2955444018
 20
283.8522967684
 30
0.0
 11
47.2955444018
 21
286.8522967684
 31
0.0
  0
LINE
  5
D8
330
D3
100
AcDbEntity
  8
Default
  6
Continuous
 62
     7
100
AcDbLine
 10
44.2955444018
 20
283.8522967684
 30
0.0
 11
47.2955444018
 21
283.8522967684
 31
0.0
  0
ENDBLK
  5
DA
330
D3
100
AcDbEntity
  8
0
100
AcDbBlockEnd
  0
BLOCK
  5
E1
330
DB
100
AcDbEntity
  8
0
100
AcDbBlockBegin
  2
SE12
 70
     0
 10
0.0
 20
0.0
 30
0.0
  3
SE12
  1

  0
LINE
  5
DD
330
DB
100
AcDbEntity
  8
Default
  6
Continuous
 62
     7
100
AcDbLine
 10
53.2955444018
 20
286.8522967684
 30
0.0
 11
53.2955444018
 21
283.8522967684
 31
0.0
  0
LINE
  5
DE
330
DB
100
AcDbEntity
  8
Default
  6
Continuous
 62
     7
100
AcDbLine
 10
56.2955444018
 20
286.8522967684
 30
0.0
 11
53.2955444018
 21
286.8522967684
 31
0.0
  0
LINE
  5
DF
330
DB
100
AcDbEntity
  8
Default
  6
Continuous
 62
     7
100
AcDbLine
 10
56.2955444018
 20
283.8522967684
 30
0.0
 11
56.2955444018
 21
286.8522967684
 31
0.0
  0
LINE
  5
E0
330
DB
100
AcDbEntity
  8
Default
  6
Continuous
 62
     7
100
AcDbLine
 10
53.2955444018
 20
283.8522967684
 30
0.0
 11
56.2955444018
 21
283.8522967684
 31
0.0
  0
ENDBLK
  5
E2
330
DB
100
AcDbEntity
  8
0
100
AcDbBlockEnd
  0
BLOCK
  5
E9
330
E3
100
AcDbEntity
  8
0
100
AcDbBlockBegin
  2
SE13
 70
     0
 10
0.0
 20
0.0
 30
0.0
  3
SE13
  1

  0
LINE
  5
E5
330
E3
100
AcDbEntity
  8
Default
  6
Continuous
 62
     7
100
AcDbLine
 10
35.2955444018
 20
268.8522967684
 30
0.0
 11
35.2955444018
 21
265.8522967684
 31
0.0
  0
LINE
  5
E6
330
E3
100
AcDbEntity
  8
Default
  6
Continuous
 62
     7
100
AcDbLine
 10
38.2955444018
 20
268.8522967684
 30
0.0
 11
35.2955444018
 21
268.8522967684
 31
0.0
  0
LINE
  5
E7
330
E3
100
AcDbEntity
  8
Default
  6
Continuous
 62
     7
100
AcDbLine
 10
38.2955444018
 20
265.8522967684
 30
0.0
 11
38.2955444018
 21
268.8522967684
 31
0.0
  0
LINE
  5
E8
330
E3
100
AcDbEntity
  8
Default
  6
Continuous
 62
     7
100
AcDbLine
 10
35.2955444018
 20
265.8522967684
 30
0.0
 11
38.2955444018
 21
265.8522967684
 31
0.0
  0
ENDBLK
  5
EA
330
E3
100
AcDbEntity
  8
0
100
AcDbBlockEnd
  0
BLOCK
  5
F1
330
EB
100
AcDbEntity
  8
0
100
AcDbBlockBegin
  2
SE14
 70
     0
 10
0.0
 20
0.0
 30
0.0
  3
SE14
  1

  0
LINE
  5
ED
330
EB
100
AcDbEntity
  8
Default
  6
Continuous
 62
     7
100
AcDbLine
 10
44.2955444018
 20
268.8522967684
 30
0.0
 11
44.2955444018
 21
265.8522967684
 31
0.0
  0
LINE
  5
EE
330
EB
100
AcDbEntity
  8
Default
  6
Continuous
 62
     7
100
AcDbLine
 10
47.2955444018
 20
268.8522967684
 30
0.0
 11
44.2955444018
 21
268.8522967684
 31
0.0
  0
LINE
  5
EF
330
EB
100
AcDbEntity
  8
Default
  6
Continuous
 62
     7
100
AcDbLine
 10
47.2955444018
 20
265.8522967684
 30
0.0
 11
47.2955444018
 21
268.8522967684
 31
0.0
  0
LINE
  5
F0
330
EB
100
AcDbEntity
  8
Default
  6
Continuous
 62
     7
100
AcDbLine
 10
44.2955444018
 20
265.8522967684
 30
0.0
 11
47.2955444018
 21
265.8522967684
 31
0.0
  0
ENDBLK
  5
F2
330
EB
100
AcDbEntity
  8
0
100
AcDbBlockEnd
  0
BLOCK
  5
F9
330
F3
100
AcDbEntity
  8
0
100
AcDbBlockBegin
  2
SE15
 70
     0
 10
0.0
 20
0.0
 30
0.0
  3
SE15
  1

  0
LINE
  5
F5
330
F3
100
AcDbEntity
  8
Default
  6
Continuous
 62
     7
100
AcDbLine
 10
53.2955444018
 20
268.8522967684
 30
0.0
 11
53.2955444018
 21
265.8522967684
 31
0.0
  0
LINE
  5
F6
330
F3
100
AcDbEntity
  8
Default
  6
Continuous
 62
     7
100
AcDbLine
 10
56.2955444018
 20
268.8522967684
 30
0.0
 11
53.2955444018
 21
268.8522967684
 31
0.0
  0
LINE
  5
F7
330
F3
100
AcDbEntity
  8
Default
  6
Continuous
 62
     7
100
AcDbLine
 10
56.2955444018
 20
265.8522967684
 30
0.0
 11
56.2955444018
 21
268.8522967684
 31
0.0
  0
LINE
  5
F8
330
F3
100
AcDbEntity
  8
Default
  6
Continuous
 62
     7
100
AcDbLine
 10
53.2955444018
 20
265.8522967684
 30
0.0
 11
56.2955444018
 21
265.8522967684
 31
0.0
  0
ENDBLK
  5
FA
330
F3
100
AcDbEntity
  8
0
100
AcDbBlockEnd
  0
BLOCK
  5
101
330
FB
100
AcDbEntity
  8
0
100
AcDbBlockBegin
  2
SE16
 70
     0
 10
0.0
 20
0.0
 30
0.0
  3
SE16
  1

  0
LINE
  5
FD
330
FB
100
AcDbEntity
  8
Default
  6
Continuous
 62
     7
100
AcDbLine
 10
44.2955444018
 20
295.8522967684
 30
0.0
 11
44.2955444018
 21
292.8522967684
 31
0.0
  0
LINE
  5
FE
330
FB
100
AcDbEntity
  8
Default
  6
Continuous
 62
     7
100
AcDbLine
 10
47.2955444018
 20
295.8522967684
 30
0.0
 11
44.2955444018
 21
295.8522967684
 31
0.0
  0
LINE
  5
FF
330
FB
100
AcDbEntity
  8
Default
  6
Continuous
 62
     7
100
AcDbLine
 10
47.2955444018
 20
292.8522967684
 30
0.0
 11
47.2955444018
 21
295.8522967684
 31
0.0
  0
LINE
  5
100
330
FB
100
AcDbEntity
  8
Default
  6
Continuous
 62
     7
100
AcDbLine
 10
44.2955444018
 20
292.8522967684
 30
0.0
 11
47.2955444018
 21
292.8522967684
 31
0.0
  0
ENDBLK
  5
102
330
FB
100
AcDbEntity
  8
0
100
AcDbBlockEnd
  0
BLOCK
  5
109
330
103
100
AcDbEntity
  8
0
100
AcDbBlockBegin
  2
SE17
 70
     0
 10
0.0
 20
0.0
 30
0.0
  3
SE17
  1

  0
LINE
  5
105
330
103
100
AcDbEntity
  8
Default
  6
Continuous
 62
     7
100
AcDbLine
 10
44.2955444018
 20
259.8522967684
 30
0.0
 11
44.2955444018
 21
256.8522967684
 31
0.0
  0
LINE
  5
106
330
103
100
AcDbEntity
  8
Default
  6
Continuous
 62
     7
100
AcDbLine
 10
47.2955444018
 20
259.8522967684
 30
0.0
 11
44.2955444018
 21
259.8522967684
 31
0.0
  0
LINE
  5
107
330
103
100
AcDbEntity
  8
Default
  6
Continuous
 62
     7
100
AcDbLine
 10
47.2955444018
 20
256.8522967684
 30
0.0
 11
47.2955444018
 21
259.8522967684
 31
0.0
  0
LINE
  5
108
330
103
100
AcDbEntity
  8
Default
  6
Continuous
 62
     7
100
AcDbLine
 10
44.2955444018
 20
256.8522967684
 30
0.0
 11
47.2955444018
 21
256.8522967684
 31
0.0
  0
ENDBLK
  5
10A
330
103
100
AcDbEntity
  8
0
100
AcDbBlockEnd
  0
ENDSEC
  0
SECTION
  2
ENTITIES
  0
CIRCLE
  5
3C
330
1F
100
AcDbEntity
  8
Default
  6
Continuous
 62
     7
100
AcDbCircle
 10
22.8457969335
 20
281.3020442367
 30
0.0
 40
1.25
  0
CIRCLE
  5
3D
330
1F
100
AcDbEntity
  8
Default
  6
Continuous
 62
     7
100
AcDbCircle
 10
22.8457969335
 20
271.4025493001
 30
0.0
 40
1.25
  0
CIRCLE
  5
3E
330
1F
100
AcDbEntity
  8
Default
  6
Continuous
 62
     7
100
AcDbCircle
 10
32.7452918701
 20
271.4025493001
 30
0.0
 40
1.25
  0
CIRCLE
  5
3F
330
1F
100
AcDbEntity
  8
Default
  6
Continuous
 62
     7
100
AcDbCircle
 10
32.7452918701
 20
281.3020442367
 30
0.0
 40
1.25
  0
CIRCLE
  5
40
330
1F
100
AcDbEntity
  8
Default
  6
Continuous
 62
     7
100
AcDbCircle
 10
27.7955444018
 20
276.3522967684
 30
0.0
 40
3.5
  0
CIRCLE
  5
41
330
1F
100
AcDbEntity
  8
Default
  6
Continuous
 62
     7
100
AcDbCircle
 10
18.7955444018
 20
289.8522967684
 30
0.0
 40
1.55
  0
CIRCLE
  5
42
330
1F
100
AcDbEntity
  8
Default
  6
Continuous
 62
     7
100
AcDbCircle
 10
18.7955444018
 20
262.8522967684
 30
0.0
 40
1.55
  0
CIRCLE
  5
43
330
1F
100
AcDbEntity
  8
Default
  6
Continuous
 62
     7
100
AcDbCircle
 10
36.7955444018
 20
289.8522967684
 30
0.0
 40
1.55
  0
CIRCLE
  5
44
330
1F
100
AcDbEntity
  8
Default
  6
Continuous
 62
     7
100
AcDbCircle
 10
36.7955444018
 20
262.8522967684
 30
0.0
 40
1.55
  0
CIRCLE
  5
45
330
1F
100
AcDbEntity
  8
Default
  6
Continuous
 62
     7
100
AcDbCircle
 10
14.2955444018
 20
267.3522967684
 30
0.0
 40
1.55
  0
CIRCLE
  5
46
330
1F
100
AcDbEntity
  8
Default
  6
Continuous
 62
     7
100
AcDbCircle
 10
14.2955444018
 20
285.3522967684
 30
0.0
 40
1.55
  0
CIRCLE
  5
47
330
1F
100
AcDbEntity
  8
Default
  6
Continuous
 62
     7
100
AcDbCircle
 10
30.9775249171
 20
292.2621993451
 30
0.0
 40
1.55
  0
CIRCLE
  5
48
330
1F
100
AcDbEntity
  8
Default
  6
Continuous
 62
     7
100
AcDbCircle
 10
24.6135638864
 20
260.4423941917
 30
0.0
 40
1.55
  0
CIRCLE
  5
49
330
1F
100
AcDbEntity
  8
Default
  6
Continuous
 62
     7
100
AcDbCircle
 10
30.9775249171
 20
260.4423941917
 30
0.0
 40
1.55
  0
CIRCLE
  5
4A
330
1F
100
AcDbEntity
  8
Default
  6
Continuous
 62
     7
100
AcDbCircle
 10
24.6135638864
 20
292.2621993451
 30
0.0
 40
1.55
  0
CIRCLE
  5
4B
330
1F
100
AcDbEntity
  8
Default
  6
Continuous
 62
     7
100
AcDbCircle
 10
11.8856418251
 20
279.5342772837
 30
0.0
 40
1.55
  0
CIRCLE
  5
4C
330
1F
100
AcDbEntity
  8
Default
  6
Continuous
 62
     7
100
AcDbCircle
 10
11.8856418251
 20
273.170316253
 30
0.0
 40
1.55
  0
CIRCLE
  5
4D
330
1F
100
AcDbEntity
  8
Default
  6
Continuous
 62
     7
100
AcDbCircle
 10
58.8457969335
 20
281.3020442367
 30
0.0
 40
1.25
  0
CIRCLE
  5
4E
330
1F
100
AcDbEntity
  8
Default
  6
Continuous
 62
     7
100
AcDbCircle
 10
58.8457969335
 20
271.4025493001
 30
0.0
 40
1.25
  0
CIRCLE
  5
4F
330
1F
100
AcDbEntity
  8
Default
  6
Continuous
 62
     7
100
AcDbCircle
 10
68.7452918701
 20
271.4025493001
 30
0.0
 40
1.25
  0
CIRCLE
  5
50
330
1F
100
AcDbEntity
  8
Default
  6
Continuous
 62
     7
100
AcDbCircle
 10
68.7452918701
 20
281.3020442367
 30
0.0
 40
1.25
  0
CIRCLE
  5
51
330
1F
100
AcDbEntity
  8
Default
  6
Continuous
 62
     7
100
AcDbCircle
 10
54.7955444018
 20
289.8522967684
 30
0.0
 40
1.55
  0
CIRCLE
  5
52
330
1F
100
AcDbEntity
  8
Default
  6
Continuous
 62
     7
100
AcDbCircle
 10
54.7955444018
 20
262.8522967684
 30
0.0
 40
1.55
  0
CIRCLE
  5
53
330
1F
100
AcDbEntity
  8
Default
  6
Continuous
 62
     7
100
AcDbCircle
 10
72.7955444018
 20
289.8522967684
 30
0.0
 40
1.55
  0
CIRCLE
  5
54
330
1F
100
AcDbEntity
  8
Default
  6
Continuous
 62
     7
100
AcDbCircle
 10
72.7955444018
 20
262.8522967684
 30
0.0
 40
1.55
  0
CIRCLE
  5
55
330
1F
100
AcDbEntity
  8
Default
  6
Continuous
 62
     7
100
AcDbCircle
 10
77.2955444018
 20
267.3522967684
 30
0.0
 40
1.55
  0
CIRCLE
  5
56
330
1F
100
AcDbEntity
  8
Default
  6
Continuous
 62
     7
100
AcDbCircle
 10
77.2955444018
 20
285.3522967684
 30
0.0
 40
1.55
  0
CIRCLE
  5
57
330
1F
100
AcDbEntity
  8
Default
  6
Continuous
 62
     7
100
AcDbCircle
 10
66.9775249171
 20
292.2621993451
 30
0.0
 40
1.55
  0
CIRCLE
  5
58
330
1F
100
AcDbEntity
  8
Default
  6
Continuous
 62
     7
100
AcDbCircle
 10
60.6135638864
 20
260.4423941917
 30
0.0
 40
1.55
  0
CIRCLE
  5
59
330
1F
100
AcDbEntity
  8
Default
  6
Continuous
 62
     7
100
AcDbCircle
 10
66.9775249171
 20
260.4423941917
 30
0.0
 40
1.55
  0
CIRCLE
  5
5A
330
1F
100
AcDbEntity
  8
Default
  6
Continuous
 62
     7
100
AcDbCircle
 10
60.6135638864
 20
292.2621993451
 30
0.0
 40
1.55
  0
CIRCLE
  5
5B
330
1F
100
AcDbEntity
  8
Default
  6
Continuous
 62
     7
100
AcDbCircle
 10
79.7054469785
 20
273.170316253
 30
0.0
 40
1.55
  0
CIRCLE
  5
5C
330
1F
100
AcDbEntity
  8
Default
  6
Continuous
 62
     7
100
AcDbCircle
 10
79.7054469785
 20
279.5342772837
 30
0.0
 40
1.55
  0
CIRCLE
  5
5D
330
1F
100
AcDbEntity
  8
Default
  6
Continuous
 62
     7
100
AcDbCircle
 10
63.7955444018
 20
276.3522967684
 30
0.0
 40
3.5
  0
CIRCLE
  5
5E
330
1F
100
AcDbEntity
  8
Default
  6
Continuous
 62
     7
100
AcDbCircle
 10
18.7955444018
 20
285.3522967684
 30
0.0
 40
1.55
  0
CIRCLE
  5
5F
330
1F
100
AcDbEntity
  8
Default
  6
Continuous
 62
     7
100
AcDbCircle
 10
18.7955444018
 20
267.3522967684
 30
0.0
 40
1.55
  0
CIRCLE
  5
60
330
1F
100
AcDbEntity
  8
Default
  6
Continuous
 62
     7
100
AcDbCircle
 10
72.7955444018
 20
285.3522967684
 30
0.0
 40
1.55
  0
CIRCLE
  5
61
330
1F
100
AcDbEntity
  8
Default
  6
Continuous
 62
     7
100
AcDbCircle
 10
72.7955444018
 20
267.3522967684
 30
0.0
 40
1.55
  0
LINE
  5
62
330
1F
100
AcDbEntity
  8
Default
  6
Continuous
 62
     7
100
AcDbLine
 10
63.7955444018
 20
295.8522967684
 30
0.0
 11
56.0381850889
 21
295.8522967684
 31
0.0
  0
ARC
  5
63
330
1F
100
AcDbEntity
  8
Default
  6
Continuous
 62
     7
100
AcDbCircle
 10
63.7955444018
 20
276.3522967684
 30
0.0
 40
19.5
100
AcDbArc
 50
270.0
 51
90.0
  0
LINE
  5
64
330
1F
100
AcDbEntity
  8
Default
  6
Continuous
 62
     7
100
AcDbLine
 10
63.7955444018
 20
256.8522967684
 30
0.0
 11
56.0381850889
 21
256.8522967684
 31
0.0
  0
ARC
  5
65
330
1F
100
AcDbEntity
  8
Default
  6
Continuous
 62
     7
100
AcDbCircle
 10
27.7955444018
 20
276.3522967684
 30
0.0
 40
19.5
100
AcDbArc
 50
90.0
 51
270.0
  0
LINE
  5
66
330
1F
100
AcDbEntity
  8
Default
  6
Continuous
 62
     7
100
AcDbLine
 10
27.7955444018
 20
295.8522967684
 30
0.0
 11
35.5529037146
 21
295.8522967684
 31
0.0
  0
LINE
  5
67
330
1F
100
AcDbEntity
  8
Default
  6
Continuous
 62
     7
100
AcDbLine
 10
27.7955444018
 20
256.8522967684
 30
0.0
 11
35.5529037146
 21
256.8522967684
 31
0.0
  0
CIRCLE
  5
68
330
1F
100
AcDbEntity
  8
Default
  6
Continuous
 62
     7
100
AcDbCircle
 10
40.8457969335
 20
281.3020442367
 30
0.0
 40
1.25
  0
CIRCLE
  5
69
330
1F
100
AcDbEntity
  8
Default
  6
Continuous
 62
     7
100
AcDbCircle
 10
40.8457969335
 20
271.4025493001
 30
0.0
 40
1.25
  0
CIRCLE
  5
6A
330
1F
100
AcDbEntity
  8
Default
  6
Continuous
 62
     7
100
AcDbCircle
 10
50.7452918701
 20
271.4025493001
 30
0.0
 40
1.25
  0
CIRCLE
  5
6B
330
1F
100
AcDbEntity
  8
Default
  6
Continuous
 62
     7
100
AcDbCircle
 10
50.7452918701
 20
281.3020442367
 30
0.0
 40
1.25
  0
CIRCLE
  5
6C
330
1F
100
AcDbEntity
  8
Default
  6
Continuous
 62
     7
100
AcDbCircle
 10
45.7955444018
 20
276.3522967684
 30
0.0
 40
3.5
  0
CIRCLE
  5
6D
330
1F
100
AcDbEntity
  8
Default
  6
Continuous
 62
     7
100
AcDbCircle
 10
41.2955444018
 20
294.3522967684
 30
0.0
 40
1.55
  0
CIRCLE
  5
6E
330
1F
100
AcDbEntity
  8
Default
  6
Continuous
 62
     7
100
AcDbCircle
 10
50.2955444018
 20
294.3522967684
 30
0.0
 40
1.55
  0
CIRCLE
  5
6F
330
1F
100
AcDbEntity
  8
Default
  6
Continuous
 62
     7
100
AcDbCircle
 10
45.7955444018
 20
289.8522967684
 30
0.0
 40
1.55
  0
CIRCLE
  5
70
330
1F
100
AcDbEntity
  8
Default
  6
Continuous
 62
     7
100
AcDbCircle
 10
41.2955444018
 20
258.3522967684
 30
0.0
 40
1.55
  0
CIRCLE
  5
71
330
1F
100
AcDbEntity
  8
Default
  6
Continuous
 62
     7
100
AcDbCircle
 10
50.2955444018
 20
258.3522967684
 30
0.0
 40
1.55
  0
CIRCLE
  5
72
330
1F
100
AcDbEntity
  8
Default
  6
Continuous
 62
     7
100
AcDbCircle
 10
45.7955444018
 20
262.8522967684
 30
0.0
 40
1.55
  0
ARC
  5
73
330
1F
100
AcDbEntity
  8
Default
  6
Continuous
 62
     7
100
AcDbCircle
 10
56.0381850889
 20
298.8522967684
 30
0.0
 40
3.0
100
AcDbArc
 50
225.0
 51
270.0
  0
LINE
  5
74
330
1F
100
AcDbEntity
  8
Default
  6
Continuous
 62
     7
100
AcDbLine
 10
53.9168647453
 20
296.7309764248
 30
0.0
 11
52.6742240582
 21
297.9736171119
 31
0.0
  0
ARC
  5
75
330
1F
100
AcDbEntity
  8
Default
  6
Continuous
 62
     7
100
AcDbCircle
 10
50.5529037146
 20
295.8522967684
 30
0.0
 40
3.0
100
AcDbArc
 50
45.0
 51
90.0
  0
LINE
  5
76
330
1F
100
AcDbEntity
  8
Default
  6
Continuous
 62
     7
100
AcDbLine
 10
37.7212688633
 20
296.7309764248
 30
0.0
 11
37.7389288108
 21
296.7486363723
 31
0.0
  0
ARC
  5
77
330
1F
100
AcDbEntity
  8
Default
  6
Continuous
 62
     7
100
AcDbCircle
 10
35.5999485197
 20
298.8522967684
 30
0.0
 40
3.0
100
AcDbArc
 50
270.0
 51
315.0
  0
LINE
  5
78
330
1F
100
AcDbEntity
  8
Default
  6
Continuous
 62
     7
100
AcDbLine
 10
37.7212688633
 20
296.7309764248
 30
0.0
 11
38.9639095504
 21
297.9736171119
 31
0.0
  0
ARC
  5
79
330
1F
100
AcDbEntity
  8
Default
  6
Continuous
 62
     7
100
AcDbCircle
 10
41.0852298939
 20
295.8522967684
 30
0.0
 40
3.0
100
AcDbArc
 50
90.0
 51
135.0
  0
LINE
  5
7A
330
1F
100
AcDbEntity
  8
Default
  6
Continuous
 62
     7
100
AcDbLine
 10
41.0852298939
 20
298.8522967684
 30
0.0
 11
50.5529037146
 21
298.8522967684
 31
0.0
  0
ARC
  5
7B
330
1F
100
AcDbEntity
  8
Default
  6
Continuous
 62
     7
100
AcDbCircle
 10
55.9911402838
 20
253.8522967684
 30
0.0
 40
3.0
100
AcDbArc
 50
90.0
 51
135.0
  0
LINE
  5
7C
330
1F
100
AcDbEntity
  8
Default
  6
Continuous
 62
     7
100
AcDbLine
 10
53.8698199403
 20
255.9736171119
 30
0.0
 11
52.6271792531
 21
254.7309764248
 31
0.0
  0
ARC
  5
7D
330
1F
100
AcDbEntity
  8
Default
  6
Continuous
 62
     7
100
AcDbCircle
 10
50.5058589096
 20
256.8522967684
 30
0.0
 40
3.0
100
AcDbArc
 50
270.0
 51
315.0
  0
LINE
  5
7E
330
1F
100
AcDbEntity
  8
Default
  6
Continuous
 62
     7
100
AcDbLine
 10
37.6742240582
 20
255.9736171119
 30
0.0
 11
37.6918840057
 21
255.9559571644
 31
0.0
  0
ARC
  5
7F
330
1F
100
AcDbEntity
  8
Default
  6
Continuous
 62
     7
100
AcDbCircle
 10
35.5529037146
 20
253.8522967684
 30
0.0
 40
3.0
100
AcDbArc
 50
45.0
 51
90.0
  0
LINE
  5
80
330
1F
100
AcDbEntity
  8
Default
  6
Continuous
 62
     7
100
AcDbLine
 10
37.6742240582
 20
255.9736171119
 30
0.0
 11
38.9168647453
 21
254.7309764248
 31
0.0
  0
ARC
  5
81
330
1F
100
AcDbEntity
  8
Default
  6
Continuous
 62
     7
100
AcDbCircle
 10
41.0381850889
 20
256.8522967684
 30
0.0
 40
3.0
100
AcDbArc
 50
225.0
 51
270.0
  0
LINE
  5
82
330
1F
100
AcDbEntity
  8
Default
  6
Continuous
 62
     7
100
AcDbLine
 10
41.0381850889
 20
253.8522967684
 30
0.0
 11
50.5058589096
 21
253.8522967684
 31
0.0
  0
INSERT
  5
84
330
1F
100
AcDbEntity
  8
Default
100
AcDbBlockReference
  2
SE
 10
0.0
 20
0.0
 30
0.0
  0
INSERT
  5
A8
330
1F
100
AcDbEntity
  8
Default
100
AcDbBlockReference
  2
SE5
 10
0.0
 20
0.0
 30
0.0
  0
INSERT
  5
CC
330
1F
100
AcDbEntity
  8
Default
100
AcDbBlockReference
  2
SE10
 10
0.0
 20
0.0
 30
0.0
  0
INSERT
  5
D4
330
1F
100
AcDbEntity
  8
Default
100
AcDbBlockReference
  2
SE11
 10
0.0
 20
0.0
 30
0.0
  0
INSERT
  5
DC
330
1F
100
AcDbEntity
  8
Default
100
AcDbBlockReference
  2
SE12
 10
0.0
 20
0.0
 30
0.0
  0
INSERT
  5
E4
330
1F
100
AcDbEntity
  8
Default
100
AcDbBlockReference
  2
SE13
 10
0.0
 20
0.0
 30
0.0
  0
INSERT
  5
EC
330
1F
100
AcDbEntity
  8
Default
100
AcDbBlockReference
  2
SE14
 10
0.0
 20
0.0
 30
0.0
  0
INSERT
  5
F4
330
1F
100
AcDbEntity
  8
Default
100
AcDbBlockReference
  2
SE15
 10
0.0
 20
0.0
 30
0.0
  0
INSERT
  5
FC
330
1F
100
AcDbEntity
  8
Default
100
AcDbBlockReference
  2
SE16
 10
0.0
 20
0.0
 30
0.0
  0
INSERT
  5
104
330
1F
100
AcDbEntity
  8
Default
100
AcDbBlockReference
  2
SE17
 10
0.0
 20
0.0
 30
0.0
  0
ENDSEC
  0
SECTION
  2
OBJECTS
  0
DICTIONARY
  5
C
330
0
100
AcDbDictionary
281
     1
  3
ACAD_GROUP
350
D
  3
ACAD_LAYOUT
350
1A
  3
ACAD_MLEADERSTYLE
350
10D
  3
ACAD_MLINESTYLE
350
17
  3
ACAD_PLOTSETTINGS
350
19
  3
ACAD_PLOTSTYLENAME
350
E
  3
ACAD_VISUALSTYLE
350
2A
  3
AcDbVariableDictionary
350
10B
  0
DICTIONARY
  5
D
102
{ACAD_REACTORS
330
C
102
}
330
C
100
AcDbDictionary
281
     1
  0
DICTIONARY
  5
1A
102
{ACAD_REACTORS
330
C
102
}
330
C
100
AcDbDictionary
281
     1
  3
Layout1
350
1E
  3
Model
350
22
  0
DICTIONARY
  5
10D
102
{ACAD_REACTORS
330
C
102
}
330
C
100
AcDbDictionary
281
     1
  0
DICTIONARY
  5
17
102
{ACAD_REACTORS
330
C
102
}
330
C
100
AcDbDictionary
281
     1
  3
Standard
350
18
  0
DICTIONARY
  5
19
102
{ACAD_REACTORS
330
C
102
}
330
C
100
AcDbDictionary
281
     1
  0
ACDBDICTIONARYWDFLT
  5
E
102
{ACAD_REACTORS
330
C
102
}
330
C
100
AcDbDictionary
281
     1
  3
Normal
350
F
100
AcDbDictionaryWithDefault
340
F
  0
DICTIONARY
  5
2A
102
{ACAD_REACTORS
330
C
102
}
330
C
100
AcDbDictionary
281
     1
  3
2dWireframe
350
2F
  3
3D Hidden
350
31
  3
3dWireframe
350
30
  3
Basic
350
32
  3
Brighten
350
36
  3
ColorChange
350
3A
  3
Conceptual
350
34
  3
Dim
350
35
  3
Facepattern
350
39
  3
Flat
350
2B
  3
FlatWithEdges
350
2C
  3
Gouraud
350
2D
  3
GouraudWithEdges
350
2E
  3
Linepattern
350
38
  3
Realistic
350
33
  3
Thicken
350
37
  0
DICTIONARY
  5
10B
102
{ACAD_REACTORS
330
C
102
}
330
C
100
AcDbDictionary
281
     1
  3
PSOLHEIGHT
350
10F
  3
PSOLWIDTH
350
10E
  0
LAYOUT
  5
1E
102
{ACAD_REACTORS
330
1A
102
}
330
1A
100
AcDbPlotSettings
  1

  2
none_device
  4

  6

 40
0.0
 41
0.0
 42
0.0
 43
0.0
 44
0.0
 45
0.0
 46
0.0
 47
0.0
 48
0.0
 49
0.0
140
0.0
141
0.0
142
1.0
143
1.0
 70
   688
 72
     0
 73
     0
 74
     5
  7

 75
    16
147
1.0
148
0.0
149
0.0
100
AcDbLayout
  1
Layout1
 70
     1
 71
     1
 10
0.0
 20
0.0
 11
457.0
 21
305.0
 12
0.0
 22
0.0
 32
0.0
 14
0.0
 24
0.0
 34
0.0
 15
457.0
 25
305.0
 35
0.0
146
0.0
 13
0.0
 23
0.0
 33
0.0
 16
1.0
 26
0.0
 36
0.0
 17
0.0
 27
1.0
 37
0.0
 76
     0
330
1B
  0
LAYOUT
  5
22
102
{ACAD_REACTORS
330
1A
102
}
330
1A
100
AcDbPlotSettings
  1

  2
none_device
  4

  6

 40
0.0
 41
0.0
 42
0.0
 43
0.0
 44
0.0
 45
0.0
 46
0.0
 47
0.0
 48
0.0
 49
0.0
140
0.0
141
0.0
142
1.0
143
1.0
 70
  1712
 72
     0
 73
     0
 74
     0
  7

 75
     0
147
1.0
148
0.0
149
0.0
100
AcDbLayout
  1
Model
 70
     1
 71
     0
 10
0.0
 20
0.0
 11
457.0
 21
305.0
 12
0.0
 22
0.0
 32
0.0
 14
0.0
 24
0.0
 34
0.0
 15
457.0
 25
305.0
 35
0.0
146
0.0
 13
0.0
 23
0.0
 33
0.0
 16
1.0
 26
0.0
 36
0.0
 17
0.0
 27
1.0
 37
0.0
 76
     0
330
1F
331
29
  0
MLINESTYLE
  5
18
102
{ACAD_REACTORS
330
17
102
}
330
17
100
AcDbMlineStyle
  2
Standard
 70
     0
  3

 62
   256
 51
90.0
 52
90.0
 71
     2
 49
0.5
 62
   256
  6
BYLAYER
 49
-0.5
 62
   256
  6
BYLAYER
  0
ACDBPLACEHOLDER
  5
F
102
{ACAD_REACTORS
330
E
102
}
330
E
  0
VISUALSTYLE
  5
2F
102
{ACAD_REACTORS
330
2A
102
}
330
2A
100
AcDbVisualStyle
  2
2dWireframe
 70
     4
 71
     0
 72
     2
 73
     0
 90
        0
 40
-0.6
 41
-30.0
 62
     5
 63
     7
 74
     1
 91
        4
 64
     7
 65
   257
 75
     1
175
     1
 42
1.0
 92
        0
 66
   257
 43
1.0
 76
     1
 77
     6
 78
     2
 67
     7
 79
     5
170
     0
171
     0
290
     0
174
     0
 93
        1
 44
0.0
173
     0
291
     0
 45
0.0
1001
ACAD
1000
AcDbSavedByObjectVersion
1070
     0
  0
VISUALSTYLE
  5
31
102
{ACAD_REACTORS
330
2A
102
}
330
2A
100
AcDbVisualStyle
  2
3D Hidden
 70
     6
 71
     1
 72
     2
 73
     2
 90
        0
 40
-0.6
 41
-30.0
 62
     5
 63
     7
 74
     2
 91
        2
 64
     7
 65
   257
 75
     2
175
     1
 42
40.0
 92
        0
 66
   257
 43
1.0
 76
     1
 77
     6
 78
     2
 67
     7
 79
     3
170
     0
171
     0
290
     0
174
     0
 93
        1
 44
0.0
173
     0
291
     0
 45
0.0
1001
ACAD
1000
AcDbSavedByObjectVersion
1070
     0
  0
VISUALSTYLE
  5
30
102
{ACAD_REACTORS
330
2A
102
}
330
2A
100
AcDbVisualStyle
  2
3dWireframe
 70
     5
 71
     0
 72
     2
 73
     0
 90
        0
 40
-0.6
 41
-30.0
 62
     5
 63
     7
 74
     1
 91
        4
 64
     7
 65
   257
 75
     1
175
     1
 42
1.0
 92
        0
 66
   257
 43
1.0
 76
     1
 77
     6
 78
     2
 67
     7
 79
     5
170
     0
171
     0
290
     0
174
     0
 93
        1
 44
0.0
173
     0
291
     0
 45
0.0
1001
ACAD
1000
AcDbSavedByObjectVersion
1070
     0
  0
VISUALSTYLE
  5
32
102
{ACAD_REACTORS
330
2A
102
}
330
2A
100
AcDbVisualStyle
  2
Basic
 70
     7
 71
     1
 72
     0
 73
     1
 90
        0
 40
-0.6
 41
-30.0
 62
     5
 63
     7
 74
     0
 91
        4
 64
     7
 65
   257
 75
     1
175
     1
 42
1.0
 92
        8
 66
     7
 43
1.0
 76
     1
 77
     6
 78
     2
 67
     7
 79
     5
170
     0
171
     0
290
     0
174
     0
 93
        1
 44
0.0
173
     0
291
     1
 45
0.0
1001
ACAD
1000
AcDbSavedByObjectVersion
1070
     0
  0
VISUALSTYLE
  5
36
102
{ACAD_REACTORS
330
2A
102
}
330
2A
100
AcDbVisualStyle
  2
Brighten
 70
    12
 71
     2
 72
     2
 73
     0
 90
        0
 40
-0.6
 41
-30.0
 62
     5
 63
     7
 74
     1
 91
        4
 64
     7
 65
   257
 75
     1
175
     1
 42
1.0
 92
        8
 66
     7
 43
1.0
 76
     1
 77
     6
 78
     2
 67
     7
 79
     5
170
     0
171
     0
290
     0
174
     0
 93
        1
 44
50.0
173
     0
291
     1
 45
0.0
1001
ACAD
1000
AcDbSavedByObjectVersion
1070
     0
  0
VISUALSTYLE
  5
3A
102
{ACAD_REACTORS
330
2A
102
}
330
2A
100
AcDbVisualStyle
  2
ColorChange
 70
    16
 71
     2
 72
     2
 73
     3
 90
        0
 40
-0.6
 41
-30.0
 62
     5
 63
     8
 74
     1
 91
        4
 64
     7
 65
   257
 75
     1
175
     1
 42
1.0
 92
        8
 66
     8
 43
1.0
 76
     1
 77
     6
 78
     2
 67
     7
 79
     5
170
     0
171
     0
290
     0
174
     0
 93
        1
 44
0.0
173
     0
291
     1
 45
0.0
1001
ACAD
1000
AcDbSavedByObjectVersion
1070
     0
  0
VISUALSTYLE
  5
34
102
{ACAD_REACTORS
330
2A
102
}
330
2A
100
AcDbVisualStyle
  2
Conceptual
 70
     9
 71
     3
 72
     2
 73
     0
 90
        0
 40
-0.6
 41
-30.0
 62
     5
 63
     7
 74
     2
 91
        2
 64
     7
 65
   257
 75
     1
175
     1
 42
40.0
 92
        8
 66
     7
 43
1.0
 76
     1
 77
     6
 78
     2
 67
     7
 79
     3
170
     0
171
     0
290
     0
174
     0
 93
        1
 44
0.0
173
     0
291
     0
 45
0.0
1001
ACAD
1000
AcDbSavedByObjectVersion
1070
     0
  0
VISUALSTYLE
  5
35
102
{ACAD_REACTORS
330
2A
102
}
330
2A
100
AcDbVisualStyle
  2
Dim
 70
    11
 71
     2
 72
     2
 73
     0
 90
        0
 40
-0.6
 41
-30.0
 62
     5
 63
     7
 74
     1
 91
        4
 64
     7
 65
   257
 75
     1
175
     1
 42
1.0
 92
        8
 66
     7
 43
1.0
 76
     1
 77
     6
 78
     2
 67
     7
 79
     5
170
     0
171
     0
290
     0
174
     0
 93
        1
 44
-50.0
173
     0
291
     1
 45
0.0
1001
ACAD
1000
AcDbSavedByObjectVersion
1070
     0
  0
VISUALSTYLE
  5
39
102
{ACAD_REACTORS
330
2A
102
}
330
2A
100
AcDbVisualStyle
  2
Facepattern
 70
    15
 71
     2
 72
     2
 73
     0
 90
        0
 40
-0.6
 41
-30.0
 62
     5
 63
     7
 74
     1
 91
        4
 64
     7
 65
   257
 75
     1
175
     1
 42
1.0
 92
        8
 66
     7
 43
1.0
 76
     1
 77
     6
 78
     2
 67
     7
 79
     5
170
     0
171
     0
290
     0
174
     0
 93
        1
 44
0.0
173
     0
291
     1
 45
0.0
1001
ACAD
1000
AcDbSavedByObjectVersion
1070
     0
  0
VISUALSTYLE
  5
2B
102
{ACAD_REACTORS
330
2A
102
}
330
2A
100
AcDbVisualStyle
  2
Flat
 70
     0
 71
     2
 72
     1
 73
     1
 90
        2
 40
-0.6
 41
30.0
 62
     5
 63
     7
 74
     0
 91
        4
 64
     7
 65
   257
 75
     1
175
     1
 42
1.0
 92
        8
 66
     7
 43
1.0
 76
     1
 77
     6
 78
     2
 67
     7
 79
     5
170
     0
171
     0
290
     0
174
     0
 93
       13
 44
0.0
173
     0
291
     1
 45
0.0
1001
ACAD
1000
AcDbSavedByObjectVersion
1070
     0
  0
VISUALSTYLE
  5
2C
102
{ACAD_REACTORS
330
2A
102
}
330
2A
100
AcDbVisualStyle
  2
FlatWithEdges
 70
     1
 71
     2
 72
     1
 73
     1
 90
        2
 40
-0.6
 41
30.0
 62
     5
 63
     7
 74
     1
 91
        4
 64
     7
 65
   257
 75
     1
175
     1
 42
1.0
 92
        0
 66
   257
 43
1.0
 76
     1
 77
     6
 78
     2
 67
     7
 79
     5
170
     0
171
     0
290
     0
174
     0
 93
       13
 44
0.0
173
     0
291
     1
 45
0.0
1001
ACAD
1000
AcDbSavedByObjectVersion
1070
     0
  0
VISUALSTYLE
  5
2D
102
{ACAD_REACTORS
330
2A
102
}
330
2A
100
AcDbVisualStyle
  2
Gouraud
 70
     2
 71
     2
 72
     2
 73
     1
 90
        2
 40
-0.6
 41
30.0
 62
     5
 63
     7
 74
     0
 91
        4
 64
     7
 65
   257
 75
     1
175
     1
 42
1.0
 92
        0
 66
     7
 43
1.0
 76
     1
 77
     6
 78
     2
 67
     7
 79
     5
170
     0
171
     0
290
     0
174
     0
 93
       13
 44
0.0
173
     0
291
     1
 45
0.0
1001
ACAD
1000
AcDbSavedByObjectVersion
1070
     0
  0
VISUALSTYLE
  5
2E
102
{ACAD_REACTORS
330
2A
102
}
330
2A
100
AcDbVisualStyle
  2
GouraudWithEdges
 70
     3
 71
     2
 72
     2
 73
     1
 90
        2
 40
-0.6
 41
30.0
 62
     5
 63
     7
 74
     1
 91
        4
 64
     7
 65
   257
 75
     1
175
     1
 42
1.0
 92
        0
 66
   257
 43
1.0
 76
     1
 77
     6
 78
     2
 67
     7
 79
     5
170
     0
171
     0
290
     0
174
     0
 93
       13
 44
0.0
173
     0
291
     1
 45
0.0
1001
ACAD
1000
AcDbSavedByObjectVersion
1070
     0
  0
VISUALSTYLE
  5
38
102
{ACAD_REACTORS
330
2A
102
}
330
2A
100
AcDbVisualStyle
  2
Linepattern
 70
    14
 71
     2
 72
     2
 73
     0
 90
        0
 40
-0.6
 41
-30.0
 62
     5
 63
     7
 74
     1
 91
        4
 64
     7
 65
   257
 75
     7
175
     7
 42
1.0
 92
        8
 66
     7
 43
1.0
 76
     1
 77
     6
 78
     2
 67
     7
 79
     5
170
     0
171
     0
290
     0
174
     0
 93
        1
 44
0.0
173
     0
291
     1
 45
0.0
1001
ACAD
1000
AcDbSavedByObjectVersion
1070
     0
  0
VISUALSTYLE
  5
33
102
{ACAD_REACTORS
330
2A
102
}
330
2A
100
AcDbVisualStyle
  2
Realistic
 70
     8
 71
     2
 72
     2
 73
     0
 90
        0
 40
-0.6
 41
-30.0
 62
     5
 63
     7
 74
     1
 91
        0
 64
     7
 65
   257
 75
     1
175
     1
 42
1.0
 92
        8
 66
     8
 43
1.0
 76
     1
 77
     6
 78
     2
 67
     7
 79
     5
170
     0
171
     0
290
     0
174
     0
 93
       13
 44
0.0
173
     0
291
     0
 45
0.0
1001
ACAD
1000
AcDbSavedByObjectVersion
1070
     0
  0
VISUALSTYLE
  5
37
102
{ACAD_REACTORS
330
2A
102
}
330
2A
100
AcDbVisualStyle
  2
Thicken
 70
    13
 71
     2
 72
     2
 73
     0
 90
        0
 40
-0.6
 41
-30.0
 62
     5
 63
     7
 74
     1
 91
        4
 64
     7
 65
   257
 75
     1
175
     1
 42
1.0
 92
       12
 66
     7
 43
1.0
 76
     1
 77
     6
 78
     2
 67
     7
 79
     5
170
     0
171
     0
290
     0
174
     0
 93
        1
 44
0.0
173
     0
291
     1
 45
0.0
1001
ACAD
1000
AcDbSavedByObjectVersion
1070
     0
  0
DICTIONARYVAR
  5
10F
102
{ACAD_REACTORS
330
10B
102
}
330
10B
100
DictionaryVariables
280
     0
  1
80.000000
  0
DICTIONARYVAR
  5
10E
102
{ACAD_REACTORS
330
10B
102
}
330
10B
100
DictionaryVariables
280
     0
  1
5.000000
  0
ENDSEC
  0
EOF
